<?xml version="1.0" encoding="utf-8"?>
<!-- Generator: Adobe Illustrator 25.4.1, SVG Export Plug-In . SVG Version: 6.00 Build 0)  -->
<svg version="1.1" id="Capa_1" xmlns="http://www.w3.org/2000/svg" xmlns:xlink="http://www.w3.org/1999/xlink" x="0px" y="0px"
	 viewBox="0 0 126.6 126.6" style="enable-background:new 0 0 126.6 126.6;" xml:space="preserve">
<style type="text/css">
	.st0{fill-rule:evenodd;clip-rule:evenodd;fill:#FFFFFF;}
	.st1{fill-rule:evenodd;clip-rule:evenodd;}
</style>
<circle class="st0" cx="63.3" cy="63.3" r="63.3"/>
<g>
	<g>
		<path class="st1" d="M63.2,6.6c7.4,0,10.7,9,6,14c-0.6,0.6-0.9,1.3-0.9,2.2c0,1.3,0.8,2.5,2.1,2.9l7.2,2.8
			c1.5,0.6,2.6,1.7,3.2,3.1l7.5,17.7c0.7,1.8,0.7,3.7-0.1,5.5l-6.4,14.3c-0.2,0.4-0.2,0.9,0,1.3l1.5,3.7c0.6,1.5-1,2.8-2.3,2.2
			c-0.6-0.2-1-0.6-1.3-1.2L77.6,71c-0.4-0.7-0.5-1.6-0.2-2.3L82.6,53c0.2-0.7,0.1-1.5-0.2-2.2l-4.5-9.1c-0.8-1.5-3.1-1.1-3.2,0.6
			l-1.5,19.3l4.2,51.7c0.1,0.6,0.4,1.2,1,1.4l4.1,2.1c0.6,0.3,1,0.9,1,1.5c0,1-0.8,1.8-1.8,1.8l-0.2,0h0.1l-11.3-1.3
			c-0.8-0.1-1.4-0.8-1.5-1.6l-5.6-42.5l-5.5,42.5c-0.1,0.8-0.7,1.5-1.5,1.6C45,120,44.9,120,44.9,120c-1,0-1.8-0.8-1.8-1.8
			c0-0.6,0.4-1.2,1-1.5l4.1-2.1c0.6-0.2,0.9-0.8,1-1.4l4.2-51.7l-1.5-19.3c-0.1-1.7-2.5-2.1-3.2-0.6l-4.5,9.1
			c-0.3,0.7-0.4,1.5-0.2,2.2l5.2,15.7c0.3,0.7,0.2,1.6-0.2,2.3l-2.2,3.9c-0.3,0.6-0.7,1-1.3,1.2c-1.5,0.7-2.9-0.9-2.3-2.2l1.5-3.7
			c0.2-0.4,0.2-0.9,0-1.3l-6.4-14.3c-0.8-1.8-0.8-3.7-0.1-5.5l7.5-17.7c0.6-1.5,1.7-2.6,3.2-3.1l7.2-2.8c1.3-0.4,2.1-1.6,2.1-2.9
			c0-0.9-0.3-1.6-0.9-2.2C52.6,15.6,56,6.6,63.2,6.6"/>
	</g>
</g>
</svg>
