<?xml version="1.0" encoding="utf-8"?>
<!-- Generator: Adobe Illustrator 26.2.1, SVG Export Plug-In . SVG Version: 6.00 Build 0)  -->
<svg version="1.1" id="Capa_1" xmlns="http://www.w3.org/2000/svg" xmlns:xlink="http://www.w3.org/1999/xlink" x="0px" y="0px"
	 viewBox="0 0 448.4 459.5" style="enable-background:new 0 0 448.4 459.5;" xml:space="preserve">
<style type="text/css">
	.st0{fill:#466BA6;}
</style>
<path class="st0" d="M229.9,79V5.8c0-3.2-2.6-5.8-5.8-5.8c-1.5,0-3,0.6-4.1,1.7s-1.7,2.6-1.7,4.1V79c0,1.5,0.6,3,1.7,4.1
	c1.1,1.1,2.6,1.7,4.1,1.7C227.3,84.8,229.9,82.2,229.9,79z"/>
<path class="st0" d="M303,102.9L339,39c0.8-1.3,1-2.9,0.6-4.4s-1.4-2.8-2.7-3.5c-1.3-0.8-2.9-1-4.4-0.5c-1.5,0.4-2.8,1.4-3.5,2.8
	l-36,63.8c-0.8,1.3-1,2.9-0.5,4.4c0.4,1.5,1.4,2.7,2.8,3.5c0.8,0.5,1.8,0.8,2.8,0.8C300.1,105.8,302,104.6,303,102.9L303,102.9z"/>
<path class="st0" d="M347.9,148.3c-2.7,1.7-3.6,5.2-1.9,7.9c1,1.7,2.9,2.8,4.9,2.8c1.1,0,2.1-0.2,3-0.8l0,0l62.8-38
	c1.3-0.8,2.3-2,2.7-3.5c0.4-1.5,0.1-3.1-0.7-4.4c-1.7-2.7-5.3-3.6-8-1.9L347.9,148.3L347.9,148.3z"/>
<path class="st0" d="M363.8,226.1c-0.1,1.5,0.5,3,1.6,4.1s2.5,1.7,4,1.8l73.2,1.8c3.2,0,5.8-2.5,5.8-5.7c0.1-1.5-0.5-3-1.6-4.1
	s-2.5-1.7-4-1.8l0,0l-73.3-1.8c-1.5,0-3,0.6-4.1,1.6c-1.1,1.1-1.7,2.5-1.8,4.1L363.8,226.1z"/>
<path class="st0" d="M354.1,292.7c-1.3-1.2-3-1.7-4.7-1.5s-3.3,1.2-4.2,2.7c-0.9,1.5-1.1,3.3-0.6,4.9c0.6,1.6,1.8,3,3.5,3.6
	l62.4,38.7c0.9,0.6,2,0.9,3.1,0.9c2.6,0,4.8-1.8,5.5-4.2c0.7-2.5-0.3-5.1-2.5-6.5l0,0l-62.5-38.7L354.1,292.7z"/>
<path class="st0" d="M111.3,31.1c-1.4,0.8-2.4,2-2.8,3.5s-0.2,3.1,0.6,4.4l0,0l36,63.8c1,1.8,3,2.9,5,2.9c1,0,2-0.2,2.8-0.8
	c1.3-0.7,2.3-2,2.8-3.5c0.4-1.5,0.2-3.1-0.5-4.4l-36-63.8c-0.8-1.3-2-2.3-3.5-2.8C114.2,30.1,112.6,30.3,111.3,31.1L111.3,31.1z"/>
<path class="st0" d="M97.2,159c2.1,0,4-1,5-2.8c1.6-2.7,0.8-6.3-1.9-7.9l0,0l-62.8-37.9c-2.8-1.7-6.3-0.8-8,1.9
	c-0.8,1.3-1,2.9-0.7,4.4c0.4,1.5,1.4,2.8,2.7,3.5l0,0l62.8,38C95.2,158.8,96.2,159.1,97.2,159L97.2,159z"/>
<path class="st0" d="M5.6,222.2c-1.5,0-3,0.7-4,1.8c-1.1,1.1-1.6,2.6-1.6,4.1c0.1,3.2,2.6,5.7,5.8,5.7l73.3-1.8c1.5,0,3-0.7,4-1.8
	c1.1-1.1,1.6-2.6,1.6-4.1s-0.7-3-1.8-4.1c-1.1-1.1-2.6-1.7-4.1-1.6l-73.4,1.8L5.6,222.2z"/>
<path class="st0" d="M31.7,330.6c-2.2,1.4-3.2,4-2.5,6.5s3,4.2,5.5,4.2c1.1,0,2.2-0.3,3.1-0.9l0,0l62.4-38.7c2-1.9,2.4-4.9,1-7.3
	c-1.5-2.4-4.4-3.3-7-2.4l-62.5,38.7L31.7,330.6z"/>
<g>
	<path class="st0" d="M231.9,135.7c0.3,0.1,0.5,0.1,0.8,0.2C232.4,135.8,232.2,135.8,231.9,135.7z"/>
	<path class="st0" d="M228.2,135.3c0.3,0,0.5,0,0.8,0C228.7,135.3,228.4,135.3,228.2,135.3z"/>
	<path class="st0" d="M237.6,137.5c0.3,0.1,0.5,0.3,0.8,0.4C238.2,137.8,237.9,137.7,237.6,137.5z"/>
	<path class="st0" d="M227.4,135.3c-0.1,0-0.2,0-0.2,0c0.2,0,0.4,0,0.6,0C227.6,135.3,227.5,135.3,227.4,135.3z"/>
	<path class="st0" d="M225.9,135.3c0.2,0,0.3,0,0.5,0C226.2,135.3,226,135.3,225.9,135.3z"/>
	<path class="st0" d="M234.2,136.3c0.2,0.1,0.5,0.1,0.7,0.2C234.7,136.4,234.4,136.3,234.2,136.3z"/>
	<path class="st0" d="M235.3,136.6c0.3,0.1,0.6,0.2,0.9,0.3C235.9,136.8,235.6,136.7,235.3,136.6z"/>
	<path class="st0" d="M236.4,137c0.4,0.1,0.7,0.3,1.1,0.4C237.1,137.3,236.7,137.1,236.4,137z"/>
	<path class="st0" d="M233.1,136c0.2,0.1,0.5,0.1,0.7,0.2C233.6,136.1,233.3,136,233.1,136z"/>
	<path class="st0" d="M224.6,135.5c0.1,0,0.3,0,0.4,0C224.8,135.4,224.7,135.4,224.6,135.5z"/>
	<path class="st0" d="M229.3,135.4c0.8,0.1,1.5,0.2,2.3,0.3C230.8,135.5,230.1,135.4,229.3,135.4z"/>
	<path class="st0" d="M214.2,141c0.1-0.1,0.2-0.2,0.3-0.3C214.4,140.7,214.3,140.8,214.2,141z"/>
	<path class="st0" d="M213.4,142c0.1-0.1,0.2-0.3,0.3-0.4C213.6,141.7,213.5,141.9,213.4,142z"/>
	<path class="st0" d="M215.1,139.9c0.1-0.1,0.1-0.1,0.2-0.2C215.3,139.8,215.2,139.8,215.1,139.9z"/>
	<path class="st0" d="M221.8,136c0.1,0,0.2-0.1,0.3-0.1C222,136,221.9,136,221.8,136z"/>
	<path class="st0" d="M212.8,143.2c0.1-0.2,0.2-0.3,0.2-0.5C212.9,142.9,212.9,143,212.8,143.2z"/>
	<path class="st0" d="M212.2,144.4c0.1-0.2,0.1-0.3,0.2-0.5C212.4,144.1,212.3,144.2,212.2,144.4z"/>
	<path class="st0" d="M220.5,136.5c0.1-0.1,0.3-0.1,0.4-0.2C220.8,136.4,220.6,136.4,220.5,136.5z"/>
	<path class="st0" d="M216.2,138.9c0.1-0.1,0.1-0.1,0.2-0.2C216.4,138.8,216.3,138.8,216.2,138.9z"/>
	<path class="st0" d="M219.3,137c0.1-0.1,0.3-0.1,0.4-0.2C219.6,136.8,219.5,136.9,219.3,137z"/>
	<path class="st0" d="M218.2,137.5c0.1-0.1,0.3-0.1,0.4-0.2C218.5,137.4,218.4,137.4,218.2,137.5z"/>
	<path class="st0" d="M211.7,145.7c0-0.1,0.1-0.3,0.1-0.4C211.8,145.4,211.8,145.5,211.7,145.7z"/>
	<path class="st0" d="M159.7,182.6c0.1,0,0.3,0,0.4,0C160,182.6,159.9,182.6,159.7,182.6z"/>
	<path class="st0" d="M162.7,182.6c0.2,0,0.4,0.1,0.6,0.1C163.1,182.7,162.9,182.7,162.7,182.6z"/>
	<path class="st0" d="M161.7,182.6c0.2,0,0.4,0,0.6,0C162.1,182.6,161.9,182.6,161.7,182.6z"/>
	<path class="st0" d="M164.7,183c0.3,0.1,0.6,0.1,0.8,0.2C165.3,183.1,165,183.1,164.7,183z"/>
	<path class="st0" d="M161.1,182.5c-0.1,0-0.2,0-0.2,0c0.2,0,0.3,0,0.5,0C161.3,182.5,161.2,182.5,161.1,182.5z"/>
	<path class="st0" d="M163.6,182.8c0.3,0,0.6,0.1,0.9,0.2C164.2,182.9,163.9,182.8,163.6,182.8z"/>
	<path class="st0" d="M168.8,184.5c0.2,0.1,0.4,0.2,0.6,0.3C169.2,184.7,169,184.6,168.8,184.5z"/>
	<path class="st0" d="M167.9,184.1c0.2,0.1,0.4,0.2,0.5,0.2C168.2,184.2,168.1,184.1,167.9,184.1z"/>
	<path class="st0" d="M166.9,183.7c0.2,0.1,0.4,0.1,0.5,0.2C167.3,183.8,167.1,183.7,166.9,183.7z"/>
	<path class="st0" d="M165.9,183.3c0.2,0.1,0.4,0.1,0.6,0.2C166.3,183.4,166.1,183.4,165.9,183.3z"/>
	<path class="st0" d="M238.8,138.1c0.2,0.1,0.4,0.2,0.7,0.4C239.2,138.4,239,138.2,238.8,138.1z"/>
	<path class="st0" d="M241.7,139.9c0.3,0.2,0.6,0.4,0.9,0.7C242.3,140.4,242,140.2,241.7,139.9z"/>
	<path class="st0" d="M240.8,139.3c0.2,0.1,0.4,0.3,0.6,0.4C241.2,139.6,241,139.4,240.8,139.3z"/>
	<path class="st0" d="M239.8,138.7c0.2,0.1,0.4,0.2,0.6,0.4C240.2,138.9,240,138.8,239.8,138.7z"/>
	<path class="st0" d="M152.7,185.5c0.1-0.1,0.2-0.2,0.3-0.3C152.9,185.4,152.8,185.4,152.7,185.5z"/>
	<path class="st0" d="M154.8,184.1c0.1-0.1,0.3-0.1,0.4-0.2C155.1,184,155,184.1,154.8,184.1z"/>
	<path class="st0" d="M156,183.6c0.1-0.1,0.2-0.1,0.4-0.2C156.2,183.5,156.1,183.5,156,183.6z"/>
	<path class="st0" d="M157.4,183.1h0.1C157.5,183,157.4,183.1,157.4,183.1z"/>
	<path class="st0" d="M158.6,182.8c0.1,0,0.3,0,0.4-0.1C158.8,182.7,158.7,182.8,158.6,182.8z"/>
	<path class="st0" d="M153.7,184.8c0.1-0.1,0.3-0.2,0.4-0.3C154,184.6,153.9,184.7,153.7,184.8z"/>
	<path class="st0" d="M225.6,193.2L225.6,193.2L225.6,193.2z"/>
	<path class="st0" d="M193.3,155.3c0.2,0.1,0.4,0.1,0.6,0.2C193.6,155.4,193.5,155.4,193.3,155.3z"/>
	<path class="st0" d="M194.3,155.7c0.2,0.1,0.3,0.1,0.5,0.2C194.6,155.8,194.4,155.7,194.3,155.7z"/>
	<path class="st0" d="M195.2,156c0.2,0.1,0.3,0.1,0.5,0.2C195.5,156.2,195.4,156.1,195.2,156z"/>
	<path class="st0" d="M192,155c0.3,0.1,0.6,0.1,0.9,0.2C192.6,155.2,192.3,155.1,192,155z"/>
	<path class="st0" d="M191,154.9c0.2,0,0.5,0.1,0.7,0.1C191.5,154.9,191.3,154.9,191,154.9z"/>
	<path class="st0" d="M199.3,158.3c0.1,0.1,0.3,0.2,0.4,0.3C199.6,158.4,199.5,158.4,199.3,158.3z"/>
	<path class="st0" d="M196.2,156.4c0.2,0.1,0.3,0.2,0.5,0.2C196.5,156.6,196.3,156.5,196.2,156.4z"/>
	<path class="st0" d="M190.1,154.8c0.2,0,0.4,0,0.6,0C190.5,154.8,190.3,154.8,190.1,154.8z"/>
	<path class="st0" d="M198,157.4c0.2,0.1,0.3,0.2,0.5,0.3C198.3,157.6,198.2,157.5,198,157.4z"/>
	<path class="st0" d="M197.1,156.9c0.2,0.1,0.3,0.2,0.5,0.3C197.4,157.1,197.2,157,197.1,156.9z"/>
	<path class="st0" d="M200.3,158.9c0.1,0.1,0.3,0.2,0.4,0.3C200.5,159.1,200.4,159,200.3,158.9z"/>
	<path class="st0" d="M181.8,157.1c0.1-0.1,0.2-0.1,0.4-0.2C182,157,181.9,157,181.8,157.1z"/>
	<path class="st0" d="M183.9,156c0.2-0.1,0.3-0.1,0.5-0.2C184.2,155.8,184,155.9,183.9,156z"/>
	<path class="st0" d="M227.6,196.5L227.6,196.5L227.6,196.5z"/>
	<path class="st0" d="M184.9,155.5c0.2-0.1,0.3-0.1,0.5-0.2C185.2,155.4,185.1,155.5,184.9,155.5z"/>
	<path class="st0" d="M188.1,154.8c0.2,0,0.3,0,0.5,0C188.4,154.8,188.2,154.8,188.1,154.8z"/>
	<path class="st0" d="M187,155c0.2,0,0.3-0.1,0.5-0.1C187.4,154.9,187.2,154.9,187,155z"/>
	<path class="st0" d="M189.3,154.8c-0.1,0-0.1,0-0.2,0c0.2,0,0.4,0,0.6,0C189.6,154.8,189.5,154.8,189.3,154.8z"/>
	<path class="st0" d="M186,155.2c0.2,0,0.3-0.1,0.5-0.1C186.3,155.1,186.1,155.2,186,155.2z"/>
	<path class="st0" d="M182.8,156.5c0.1-0.1,0.3-0.2,0.4-0.2C183.1,156.3,183,156.4,182.8,156.5z"/>
	<path class="st0" d="M225.9,193.8L225.9,193.8L225.9,193.8z"/>
	<path class="st0" d="M226.5,194.9C226.6,194.9,226.6,194.9,226.5,194.9C226.6,194.9,226.6,194.9,226.5,194.9z"/>
	<path class="st0" d="M169.8,185c0.3,0.2,0.6,0.3,0.9,0.5C170.4,185.3,170.1,185.1,169.8,185z"/>
	<path class="st0" d="M219.1,181.8C219.2,181.9,219.2,181.9,219.1,181.8C219.2,181.9,219.2,181.9,219.1,181.8z"/>
	<path class="st0" d="M222.2,187.1L222.2,187.1L222.2,187.1z"/>
	<path class="st0" d="M221.8,186.3L221.8,186.3L221.8,186.3z"/>
	<path class="st0" d="M226.8,195.3l0.1,0.1C226.8,195.4,226.8,195.4,226.8,195.3z"/>
	<path class="st0" d="M227.2,196c0,0,0,0.1,0.1,0.1L227.2,196z"/>
	<path class="st0" d="M227.4,196.3L227.4,196.3L227.4,196.3z"/>
	<path class="st0" d="M227,195.7l0.1,0.1L227,195.7z"/>
	<path class="st0" d="M208.4,166.6c0.1,0.1,0.2,0.2,0.3,0.3C208.6,166.8,208.5,166.7,208.4,166.6z"/>
	<path class="st0" d="M206,164c0.1,0.1,0.2,0.2,0.2,0.2S206.1,164.1,206,164z"/>
	<path class="st0" d="M202.9,161c0.1,0.1,0.2,0.2,0.3,0.3C203.2,161.2,203,161.1,202.9,161z"/>
	<path class="st0" d="M218.5,180.9c0,0.1,0.1,0.1,0.1,0.2C218.6,181,218.6,180.9,218.5,180.9z"/>
	<path class="st0" d="M202.1,160.3c0.1,0.1,0.2,0.2,0.4,0.3C202.3,160.5,202.2,160.4,202.1,160.3z"/>
	<path class="st0" d="M203.8,161.8c0.1,0.1,0.2,0.2,0.3,0.3C204,162,203.9,161.9,203.8,161.8z"/>
	<path class="st0" d="M206.8,164.8c0.1,0.1,0.2,0.2,0.3,0.3C207,165,206.9,164.9,206.8,164.8z"/>
	<path class="st0" d="M209.2,167.6c0.1,0.1,0.1,0.2,0.2,0.2C209.4,167.8,209.3,167.7,209.2,167.6z"/>
	<path class="st0" d="M201.2,159.6c0.1,0.1,0.3,0.2,0.4,0.3C201.4,159.8,201.3,159.7,201.2,159.6z"/>
	<path class="st0" d="M207.6,165.7c0.1,0.1,0.2,0.2,0.3,0.3C207.8,165.9,207.7,165.8,207.6,165.7z"/>
	<path class="st0" d="M217.2,138.2c0.1-0.1,0.2-0.1,0.3-0.2C217.4,138,217.3,138.1,217.2,138.2z"/>
	<path class="st0" d="M125.5,241.7c0-0.4,0-0.8,0-1.2C125.5,240.9,125.5,241.3,125.5,241.7z"/>
	<path class="st0" d="M145.4,198.4c0,0.2,0,0.5,0,0.7C145.4,198.8,145.4,198.6,145.4,198.4z"/>
	<path class="st0" d="M208.5,293.8c-0.1,0.1-0.2,0.2-0.3,0.3C208.3,294,208.4,293.9,208.5,293.8z"/>
	<path class="st0" d="M203.2,296.9c-0.1,0-0.2,0-0.3,0C202.9,296.9,203.1,296.9,203.2,296.9z"/>
	<path class="st0" d="M207.6,294.8c-0.1,0.1-0.2,0.2-0.3,0.3C207.4,295,207.5,294.9,207.6,294.8z"/>
	<path class="st0" d="M203.8,296.8c-0.1,0-0.2,0-0.3,0.1C203.6,296.8,203.7,296.8,203.8,296.8z"/>
	<path class="st0" d="M208.9,293.2c-0.1,0.1-0.2,0.3-0.3,0.4C208.8,293.5,208.8,293.4,208.9,293.2z"/>
	<path class="st0" d="M206.6,295.6c-0.1,0.1-0.2,0.1-0.3,0.2C206.4,295.7,206.5,295.7,206.6,295.6z"/>
	<path class="st0" d="M205,296.4c-0.1,0-0.2,0.1-0.3,0.1C204.7,296.5,204.8,296.5,205,296.4z"/>
	<path class="st0" d="M205.5,296.2c-0.1,0-0.2,0.1-0.3,0.1C205.3,296.3,205.4,296.2,205.5,296.2z"/>
	<path class="st0" d="M204.4,296.6c-0.1,0-0.2,0.1-0.3,0.1C204.2,296.7,204.3,296.6,204.4,296.6z"/>
	<path class="st0" d="M207.1,295.2c-0.1,0.1-0.2,0.2-0.3,0.2C206.9,295.4,207,295.3,207.1,295.2z"/>
	<path class="st0" d="M206.1,295.9c-0.1,0.1-0.2,0.1-0.3,0.2C205.9,296,206,296,206.1,295.9z"/>
	<path class="st0" d="M208.1,294.3c-0.1,0.1-0.2,0.2-0.3,0.3C207.9,294.5,208,294.4,208.1,294.3z"/>
	<path class="st0" d="M157.3,229.6c0.2,0.2,0.5,0.5,0.7,0.7C157.8,230,157.6,229.8,157.3,229.6z"/>
	<path class="st0" d="M156.3,228.6c0.2,0.2,0.4,0.4,0.7,0.6C156.7,229,156.5,228.8,156.3,228.6z"/>
	<path class="st0" d="M155.2,227.6c0.2,0.2,0.4,0.4,0.6,0.6C155.6,228,155.4,227.8,155.2,227.6z"/>
	<path class="st0" d="M154.2,226.7c0.2,0.2,0.4,0.3,0.6,0.5C154.6,227.1,154.4,226.9,154.2,226.7z"/>
	<path class="st0" d="M153.1,225.9c0.2,0.2,0.5,0.3,0.7,0.5C153.5,226.2,153.3,226,153.1,225.9z"/>
	<path class="st0" d="M206.2,277c0.3,0.3,0.6,0.7,0.8,1C206.8,277.7,206.5,277.3,206.2,277z"/>
	<path class="st0" d="M209.7,291.7c-0.1,0.2-0.2,0.4-0.3,0.6C209.5,292.2,209.6,292,209.7,291.7z"/>
	<path class="st0" d="M210.5,285.6c0.1,0.4,0.1,0.8,0.1,1.2C210.6,286.4,210.6,286,210.5,285.6z"/>
	<path class="st0" d="M209.4,282c0.2,0.4,0.3,0.8,0.5,1.2C209.7,282.8,209.6,282.4,209.4,282z"/>
	<path class="st0" d="M158.4,230.6c0.4,0.3,0.7,0.7,1.1,1C159.1,231.3,158.8,230.9,158.4,230.6z"/>
	<path class="st0" d="M209.3,292.6c-0.1,0.2-0.2,0.3-0.3,0.4C209.2,292.9,209.2,292.7,209.3,292.6z"/>
	<path class="st0" d="M200.4,296.9C200.4,296.9,200.3,296.9,200.4,296.9C200.3,296.9,200.4,296.9,200.4,296.9z"/>
	<path class="st0" d="M252,252l-0.1,0.1C251.9,252.1,252,252.1,252,252z"/>
	<path class="st0" d="M241.9,254.9h0.1C241.9,254.9,241.9,254.9,241.9,254.9C241.8,254.9,241.9,254.9,241.9,254.9z"/>
	<path class="st0" d="M251.1,252.6c-0.1,0-0.1,0.1-0.2,0.1C250.9,252.7,251,252.7,251.1,252.6z"/>
	<path class="st0" d="M250,253.2C249.9,253.2,249.9,253.2,250,253.2C249.9,253.2,249.9,253.2,250,253.2z"/>
	<path class="st0" d="M240.2,254.8c-0.1,0-0.2,0-0.2,0C240.1,254.8,240.1,254.8,240.2,254.8z"/>
	<path class="st0" d="M241,254.9h-0.1C240.9,254.8,241,254.9,241,254.9z"/>
	<path class="st0" d="M252.8,251.4C252.8,251.5,252.8,251.5,252.8,251.4C252.8,251.5,252.8,251.5,252.8,251.4z"/>
	<path class="st0" d="M239.4,254.7c-0.1,0-0.2,0-0.2,0C239.3,254.7,239.4,254.7,239.4,254.7z"/>
	<path class="st0" d="M202.5,296.9c-0.1,0-0.2,0-0.3,0C202.3,297,202.4,297,202.5,296.9z"/>
	<path class="st0" d="M233.5,263.9c0.2,0.5,0.3,0.9,0.4,1.3C233.8,264.8,233.6,264.3,233.5,263.9z"/>
	<path class="st0" d="M254.4,249.8l-0.1,0.1C254.3,249.9,254.4,249.9,254.4,249.8z"/>
	<path class="st0" d="M253.7,250.7l-0.1,0.1C253.6,250.7,253.6,250.7,253.7,250.7z"/>
	<path class="st0" d="M254.9,249L254.9,249L254.9,249z"/>
	<path class="st0" d="M197.8,296.4C197.7,296.4,197.7,296.4,197.8,296.4C197.7,296.4,197.7,296.4,197.8,296.4z"/>
	<path class="st0" d="M199.1,296.7C199.1,296.7,199,296.7,199.1,296.7C199,296.7,199.1,296.7,199.1,296.7z"/>
	<path class="st0" d="M196.5,296C196.5,296,196.4,296,196.5,296C196.4,296,196.5,296,196.5,296z"/>
	<path class="st0" d="M201.6,297c0.1,0,0.2,0,0.3,0C201.8,297,201.7,297,201.6,297L201.6,297z"/>
	<path class="st0" d="M238.5,254.6c-0.2-0.1-0.5-0.2-0.8-0.4C238,254.3,238.3,254.5,238.5,254.6z"/>
	<path class="st0" d="M151.7,224.9c0.3,0.2,0.7,0.5,1,0.7C152.4,225.4,152.1,225.1,151.7,224.9z"/>
	<path class="st0" d="M314.6,259.1c3.9-11.7,2.6-23.3-3.1-28.9c-2.3-2.2-7.4-4-12.4-5.7c-3.8-1.3-7.6-2.6-10.7-4.3
		c-10.6-5.7-21.4-11.6-32.2-17.6c-8.8,6.8-11.4,20-5.6,29.9v0.1c8.5,15.4,25.4,22.8,41.8,29.8c1.9,0.8,3.8,1.6,5.6,2.4
		c1.6,0.7,2.3,2.6,1.6,4.2c-0.7,1.6-2.6,2.3-4.2,1.6c-1.8-0.8-3.7-1.6-5.6-2.4c-9.9-4.3-20.7-9-29.7-15.7c-2.8,4.5-8,7.4-13.7,8.3
		c-2.3,2.8-4.3,5.6-6.1,8.6c-0.4,3-1.7,5.7-3.9,8c-3,7.5-4.3,15.6-4,24.1c0.5,12.6,4.6,21.5,4.6,21.6c0.7,1.6,0,3.4-1.5,4.2
		c-0.4,0.2-0.9,0.3-1.3,0.3c-1.2,0-2.3-0.7-2.9-1.8c-0.2-0.4-4.6-10-5.2-23.8c-0.2-5.5,0.2-12.3,2.1-19.5c-2.8,1-5.9,1.6-8.9,1.6
		c-0.8,0-1.7,0-2.4-0.1h-0.4c0.7,3.6,0.4,7.2-1.1,10.4c-2.5,5.7-7.6,9-13.9,9c-4.1,0-8.8-1.5-12.9-4c-12.8-6-23.3-12.1-32.1-18.6
		l-0.1-0.1l-0.1-0.1c-1.7-1.4-5.5-3.9-9.5-6.5c-2.8-1.8-5.4-3.6-7.8-5.2c4,20.3,11.4,39.8,23.8,55.9c4.6,5.8,9.9,11.2,12.5,18
		c5,21.3,6.4,45.4-1.5,65.8c17.6,7.4,36.3,8.8,55.2,6.7c21.7-1.4,46-3.8,61.9-20.3c-8-14.6-9.4-33.7-7-50.2c1-6.6,5.4-10.9,8.1-16.9
		c3-6.5,5.7-13.2,8.2-19.9c3.2-10.8,8.3-23.7,11.5-36.6l0.3-1.8C312.5,266.3,313.4,262.8,314.6,259.1z"/>
	<path class="st0" d="M237.7,254.1c-0.2-0.1-0.4-0.3-0.6-0.4C237.3,253.9,237.5,254,237.7,254.1z"/>
	<path class="st0" d="M192.8,294.4L192.8,294.4L192.8,294.4z"/>
	<path class="st0" d="M194,295L194,295L194,295z"/>
	<path class="st0" d="M195.2,295.6C195.2,295.5,195.2,295.5,195.2,295.6C195.2,295.5,195.2,295.5,195.2,295.6z"/>
	<path class="st0" d="M207.8,279.1c0.2,0.4,0.5,0.7,0.7,1.1C208.3,279.8,208.1,279.5,207.8,279.1z"/>
	<path class="st0" d="M227.1,276.2c-0.1,0.1-0.3,0.1-0.4,0.2C226.8,276.3,226.9,276.3,227.1,276.2z"/>
	<path class="st0" d="M150.7,224.2c0.3,0.2,0.6,0.3,0.8,0.5C151.2,224.6,150.9,224.4,150.7,224.2z"/>
	<path class="st0" d="M225.8,276.7c-0.2,0.1-0.3,0.1-0.5,0.2C225.4,276.8,225.6,276.8,225.8,276.7z"/>
	<path class="st0" d="M223.5,277.3c-0.1,0-0.3,0.1-0.4,0.1C223.3,277.4,223.4,277.3,223.5,277.3z"/>
	<path class="st0" d="M226.4,276.5c-0.1,0.1-0.3,0.1-0.4,0.1C226.1,276.6,226.3,276.5,226.4,276.5z"/>
	<path class="st0" d="M224.3,277.1c-0.2,0-0.3,0.1-0.5,0.1C223.9,277.2,224.1,277.2,224.3,277.1z"/>
	<path class="st0" d="M221.5,277.6c-0.1,0-0.3,0-0.4,0C221.2,277.6,221.4,277.6,221.5,277.6z"/>
	<path class="st0" d="M222.8,277.4c-0.1,0-0.3,0-0.4,0.1C222.6,277.5,222.7,277.4,222.8,277.4z"/>
	<path class="st0" d="M220.8,277.7c-0.1,0-0.2,0-0.4,0C220.6,277.7,220.7,277.7,220.8,277.7z"/>
	<path class="st0" d="M222.2,277.5c-0.1,0-0.3,0-0.4,0.1C221.9,277.6,222,277.6,222.2,277.5z"/>
	<path class="st0" d="M231.2,273.8c-0.1,0.1-0.3,0.2-0.4,0.3C230.9,274,231,273.9,231.2,273.8z"/>
	<path class="st0" d="M230.6,274.2c-0.1,0.1-0.2,0.2-0.3,0.3C230.4,274.4,230.5,274.3,230.6,274.2z"/>
	<path class="st0" d="M230,274.6c-0.1,0.1-0.2,0.1-0.3,0.2C229.8,274.8,229.9,274.7,230,274.6z"/>
	<path class="st0" d="M220.2,277.7c-0.1,0-0.2,0-0.4,0C219.9,277.7,220,277.7,220.2,277.7z"/>
	<path class="st0" d="M216.1,239c2.4,3,4.8,6.1,7.2,9.2C220.9,245.1,218.5,242.1,216.1,239z"/>
	<path class="st0" d="M229.5,275c-0.1,0.1-0.2,0.1-0.3,0.2C229.3,275.1,229.4,275.1,229.5,275z"/>
	<path class="st0" d="M227.7,275.9c-0.1,0.1-0.2,0.1-0.4,0.2C227.4,276.1,227.6,276,227.7,275.9z"/>
	<path class="st0" d="M228.3,275.7c-0.1,0.1-0.2,0.1-0.4,0.2C228.1,275.8,228.2,275.7,228.3,275.7z"/>
	<path class="st0" d="M228.9,275.3c-0.1,0.1-0.2,0.1-0.3,0.2C228.7,275.5,228.8,275.4,228.9,275.3z"/>
	<path class="st0" d="M225.1,276.9c-0.2,0.1-0.4,0.1-0.7,0.2C224.7,277,224.9,277,225.1,276.9z"/>
	<path class="st0" d="M141.7,222.3c0.2,0,0.3,0,0.5,0C142,222.2,141.9,222.2,141.7,222.3z"/>
	<path class="st0" d="M143.2,222.2L143.2,222.2c0.4,0,0.8,0,1.3,0.1C144,222.2,143.6,222.2,143.2,222.2z"/>
	<path class="st0" d="M243,254.8h0.1l0,0C243,254.8,243,254.8,243,254.8z"/>
	<path class="st0" d="M146.1,222.5c0.2,0.1,0.5,0.1,0.7,0.2C146.6,222.6,146.4,222.5,146.1,222.5z"/>
	<path class="st0" d="M148.5,223.2c0.2,0.1,0.4,0.2,0.7,0.3C148.9,223.4,148.7,223.3,148.5,223.2z"/>
	<path class="st0" d="M144.8,222.3c0.3,0,0.6,0.1,0.9,0.1C145.4,222.3,145.1,222.3,144.8,222.3z"/>
	<path class="st0" d="M147.3,222.8c0.2,0.1,0.5,0.1,0.7,0.2C147.8,222.9,147.6,222.9,147.3,222.8z"/>
	<path class="st0" d="M234.3,267.5c0-0.6-0.2-1.4-0.4-2.3C234.1,266.1,234.3,266.9,234.3,267.5L234.3,267.5z"/>
	<path class="st0" d="M219.4,277.7C219.5,277.7,219.5,277.7,219.4,277.7h-0.1C219.3,277.7,219.4,277.7,219.4,277.7z"/>
	<path class="st0" d="M218.7,277.7c-0.1,0-0.2,0-0.2,0S218.6,277.7,218.7,277.7z"/>
	<path class="st0" d="M231.3,273.7L231.3,273.7L231.3,273.7L231.3,273.7z"/>
	<path class="st0" d="M231.2,258.7c-0.2-0.3-0.4-0.6-0.6-0.9c-2.5-3.3-4.9-6.5-7.3-9.6c2.4,3.1,4.8,6.3,7.3,9.6
		C230.8,258.1,231,258.4,231.2,258.7z"/>
	<path class="st0" d="M149.6,223.7c0.2,0.1,0.5,0.2,0.7,0.4C150,223.9,149.8,223.8,149.6,223.7z"/>
	<path class="st0" d="M167.8,280.7c2.6,1.6,5.2,3.2,7.8,4.7c1.3,0.8,2.7,1.5,4,2.2c2.7,1.4,5.4,2.8,8.1,4.1c1.4,0.7,2.7,1.3,4.1,1.9
		c0.3,0.2,0.7,0.4,1.1,0.7l0,0c0.4,0.2,0.8,0.4,1.1,0.6l0,0c0.4,0.2,0.8,0.4,1.2,0.5l0,0c0.4,0.2,0.8,0.3,1.2,0.5l0,0
		c0.4,0.1,0.8,0.3,1.2,0.4l0,0c0.4,0.1,0.8,0.2,1.3,0.3c0,0,0,0,0.1,0c0.4,0.1,0.8,0.1,1.2,0.2c0,0,0,0,0.1,0c0.4,0,0.8,0.1,1.2,0.1
		c0.1,0,0.2,0,0.3,0s0.2,0,0.3,0s0.2,0,0.3,0s0.2,0,0.3,0s0.2,0,0.3,0s0.2,0,0.3,0s0.2,0,0.3-0.1c0.1,0,0.2,0,0.3-0.1
		c0.1,0,0.2-0.1,0.3-0.1s0.2,0,0.3-0.1c0.1,0,0.2-0.1,0.3-0.1s0.2-0.1,0.3-0.1s0.2-0.1,0.3-0.1s0.2-0.1,0.2-0.1
		c0.1-0.1,0.2-0.1,0.3-0.2c0.1,0,0.2-0.1,0.2-0.1c0.1-0.1,0.2-0.1,0.3-0.2c0.1,0,0.1-0.1,0.2-0.1c0.1-0.1,0.2-0.1,0.3-0.2
		s0.1-0.1,0.2-0.2c0.1-0.1,0.2-0.2,0.3-0.3c0.1-0.1,0.1-0.1,0.2-0.2c0.1-0.1,0.2-0.2,0.3-0.3c0.1-0.1,0.1-0.1,0.2-0.2
		c0.1-0.1,0.2-0.2,0.3-0.3c0.1-0.1,0.1-0.1,0.2-0.2c0.1-0.1,0.2-0.3,0.3-0.4c0-0.1,0.1-0.1,0.1-0.2c0.1-0.1,0.2-0.3,0.3-0.4
		c0-0.1,0.1-0.1,0.1-0.2c0.1-0.2,0.2-0.4,0.3-0.6c0,0,0,0,0-0.1l0,0c0.5-1,0.7-2,0.8-3c0-0.4,0.1-0.8,0.1-1.2c0-0.2,0-0.4,0-0.6
		c0-0.4-0.1-0.8-0.1-1.2c-0.1-0.8-0.4-1.6-0.6-2.4c-0.1-0.4-0.3-0.8-0.5-1.2c-0.3-0.6-0.6-1.2-0.9-1.7c-0.2-0.4-0.5-0.8-0.7-1.1
		c-0.2-0.4-0.5-0.7-0.8-1.1s-0.5-0.7-0.8-1c-1-1.2-2.1-2.3-3.2-3.2l0,0c0,0-0.1-0.1-0.2-0.2c-0.1-0.1-0.1-0.1-0.2-0.2
		c-0.2-0.2-0.4-0.3-0.6-0.6c-0.7-0.7-1.7-1.6-2.9-2.8c-0.4-0.4-0.9-0.8-1.3-1.3c-0.7-0.7-1.4-1.4-2.2-2.2c-1.3-1.3-2.8-2.7-4.3-4.2
		c-0.3-0.3-0.6-0.6-0.9-0.9c-1.3-1.2-2.6-2.5-3.9-3.8c-4-3.9-8.2-7.9-12.1-11.7c-1.3-1.3-2.6-2.5-3.8-3.6c-6.3-6.1-11-10.6-11-10.6
		c-0.4-0.4-0.7-0.7-1.1-1c-0.1-0.1-0.2-0.2-0.3-0.3c-0.3-0.2-0.5-0.5-0.7-0.7c-0.1-0.1-0.3-0.3-0.4-0.4c-0.2-0.2-0.4-0.4-0.7-0.6
		c-0.1-0.1-0.3-0.3-0.4-0.4c-0.2-0.2-0.4-0.4-0.6-0.6c-0.1-0.1-0.3-0.3-0.4-0.4c-0.2-0.2-0.4-0.4-0.6-0.5c-0.1-0.1-0.3-0.2-0.4-0.3
		c-0.2-0.2-0.5-0.4-0.7-0.5c-0.1-0.1-0.2-0.2-0.3-0.3c-0.3-0.3-0.7-0.5-1-0.7c-0.1,0-0.1-0.1-0.2-0.1c-0.3-0.2-0.6-0.4-0.8-0.5
		c-0.1-0.1-0.3-0.1-0.4-0.2c-0.2-0.1-0.5-0.2-0.7-0.4c-0.1-0.1-0.3-0.1-0.4-0.2c-0.2-0.1-0.4-0.2-0.7-0.3c-0.2-0.1-0.3-0.1-0.5-0.2
		c-0.2-0.1-0.5-0.2-0.7-0.2s-0.3-0.1-0.5-0.1c-0.2-0.1-0.5-0.1-0.7-0.2c-0.2,0-0.3-0.1-0.5-0.1c-0.3-0.1-0.6-0.1-0.9-0.1
		c-0.1,0-0.2,0-0.3,0c-0.4,0-0.9-0.1-1.3-0.1c-0.3,0-0.6,0-1,0c-0.2,0-0.3,0-0.5,0c-0.5,0-1,0.1-1.6,0.2c-2.3,0.1-4.3,0.6-6,1.5
		c-0.7,0.3-1.3,0.7-2,1.2c-0.9,0.7-1.7,1.4-2.5,2.3c-1.9,2.3-3.2,5.2-3.8,8.3c-0.2,0.8-0.3,1.6-0.3,2.4c-0.1,0.8-0.1,1.6-0.1,2.4
		c0,0.4,0,0.8,0,1.2c0.2,3.7,1.2,7.3,3,10.4c3.9,6,26,18.8,31.8,23.5C162.7,277.4,165.2,279.1,167.8,280.7z"/>
	<path class="st0" d="M145.5,200.5c0,0.2,0,0.5,0.1,0.7c0.1,0.9,0.3,1.8,0.6,2.8c0.2,0.7,0.4,1.4,0.7,2.1s0.6,1.4,0.9,2
		c0.1,0.2,0.2,0.5,0.3,0.7c1.5,2.9,3.5,5.8,5.8,8.4c0.5,0.6,1.1,1.2,1.6,1.8c0.4,0.4,0.7,0.8,1.1,1.1c2.4,2.5,5,4.7,7.4,6.5
		c8.4,7.3,16.2,15,23.8,22.5l0,0l27.8,27.5c0.1,0.1,0.5,0.3,1,0.5c0.3,0.2,0.7,0.3,0.9,0.4c0.1,0,0.2,0.1,0.2,0.1
		c0.3,0,0.5,0,0.8,0.1c0.1,0,0.2,0,0.2,0c0.2,0,0.4,0,0.6,0c0.1,0,0.2,0,0.2,0c0.1,0,0.2,0,0.3,0s0.2,0,0.4,0c0.1,0,0.2,0,0.3,0
		s0.2,0,0.4,0c0.1,0,0.2,0,0.3,0s0.3,0,0.4,0c0.1,0,0.2,0,0.3,0s0.3,0,0.4-0.1c0.1,0,0.2,0,0.3,0s0.3,0,0.4-0.1c0.1,0,0.2,0,0.3,0
		s0.3-0.1,0.4-0.1c0.1,0,0.2,0,0.3-0.1c0.2,0,0.3-0.1,0.5-0.1c0.1,0,0.1,0,0.2,0c0.2-0.1,0.4-0.1,0.7-0.2h0.1
		c0.2-0.1,0.4-0.1,0.5-0.2c0.1,0,0.2-0.1,0.2-0.1c0.1,0,0.3-0.1,0.4-0.1c0.1,0,0.2-0.1,0.3-0.1s0.3-0.1,0.4-0.2
		c0.1,0,0.2-0.1,0.3-0.1c0.1-0.1,0.2-0.1,0.4-0.2c0.1,0,0.2-0.1,0.3-0.1c0.1-0.1,0.2-0.1,0.4-0.2c0.1,0,0.2-0.1,0.3-0.1
		c0.1-0.1,0.2-0.1,0.3-0.2c0.1,0,0.2-0.1,0.2-0.1c0.1-0.1,0.2-0.1,0.3-0.2c0.1,0,0.2-0.1,0.2-0.1c0.1-0.1,0.2-0.1,0.3-0.2
		c0.1,0,0.1-0.1,0.2-0.1c0.1-0.1,0.2-0.2,0.3-0.3c0.1,0,0.1-0.1,0.2-0.1c0.1-0.1,0.3-0.2,0.4-0.3c0,0,0.1,0,0.1-0.1l0,0
		c0.2-0.1,0.3-0.3,0.4-0.4l0.1-0.1c0.1-0.1,0.2-0.2,0.3-0.3c0.1-0.1,0.1-0.1,0.1-0.2c0.1-0.1,0.2-0.2,0.2-0.3
		c0.1-0.1,0.1-0.1,0.1-0.2c0.1-0.1,0.1-0.2,0.2-0.3c0-0.1,0.1-0.1,0.1-0.2c0.1-0.1,0.1-0.2,0.2-0.3c0-0.1,0.1-0.2,0.1-0.2
		c0.1-0.1,0.1-0.2,0.2-0.3c0-0.1,0.1-0.2,0.1-0.2c0-0.1,0.1-0.2,0.1-0.3c0-0.1,0.1-0.2,0.1-0.2c0-0.1,0.1-0.2,0.1-0.3
		c0-0.1,0.1-0.2,0.1-0.2c0-0.1,0.1-0.2,0.1-0.4c0-0.1,0-0.2,0.1-0.2c0-0.1,0-0.3,0.1-0.4c0-0.1,0-0.1,0-0.2c0-0.2,0-0.4,0-0.6l0,0
		l0,0c0-0.6-0.2-1.4-0.4-2.3c-0.1-0.4-0.3-0.9-0.4-1.3c-0.6-1.8-1.5-3.8-2.3-5.1c-0.2-0.3-0.4-0.6-0.6-0.9c-2.5-3.3-4.9-6.5-7.3-9.6
		c-2.4-3.1-4.8-6.2-7.2-9.2c0,0,0-0.1-0.1-0.1l-9.6-11.4c-6.8-8-13.8-16.3-21.3-24.1c-3.6-3.3-9.9-9.8-14-17.8
		c-0.1-0.1-0.2-0.1-0.3-0.2c-0.3-0.2-0.6-0.3-0.9-0.5c-0.1-0.1-0.3-0.1-0.4-0.2c-0.2-0.1-0.4-0.2-0.6-0.3c-0.1-0.1-0.3-0.1-0.4-0.2
		c-0.2-0.1-0.4-0.2-0.5-0.2c-0.1-0.1-0.3-0.1-0.4-0.2c-0.2-0.1-0.4-0.1-0.5-0.2c-0.1-0.1-0.3-0.1-0.4-0.2c-0.2-0.1-0.4-0.1-0.6-0.2
		c-0.1,0-0.2-0.1-0.4-0.1c-0.3-0.1-0.6-0.2-0.8-0.2c-0.1,0-0.1,0-0.2,0c-0.3-0.1-0.6-0.1-0.9-0.2c-0.1,0-0.2,0-0.3,0
		c-0.2,0-0.4-0.1-0.6-0.1c-0.1,0-0.2,0-0.4,0s-0.4,0-0.6,0c-0.1,0-0.2,0-0.4,0s-0.3,0-0.5,0s-0.5,0-0.7,0c-0.1,0-0.3,0-0.4,0
		c-0.3,0-0.5,0.1-0.8,0.1c-0.1,0-0.3,0-0.4,0.1c-0.4,0.1-0.7,0.2-1.1,0.3h-0.1c-0.4,0.1-0.7,0.2-1.1,0.4c-0.1,0-0.2,0.1-0.4,0.2
		c-0.2,0.1-0.5,0.2-0.7,0.3c-0.1,0.1-0.3,0.1-0.4,0.2c-0.2,0.1-0.5,0.3-0.7,0.4c-0.1,0.1-0.3,0.2-0.4,0.3c-0.2,0.2-0.5,0.3-0.7,0.5
		c-0.1,0.1-0.2,0.2-0.3,0.3c-0.4,0.3-0.7,0.6-1.1,0.9c-2.3,2.1-3.9,4.3-4.9,6.5c-0.1,0.2-0.2,0.4-0.3,0.7c-0.6,1.6-0.9,3.2-1,4.8
		c0,0.2,0,0.5,0,0.7C145.4,199.6,145.5,200,145.5,200.5z"/>
	<path class="st0" d="M255.7,165.8c-0.9-2.2-2-4.5-3-6.8c-1.4-3.2-3-6.5-4.4-9.4c-0.6-1.2-1.2-2.4-1.8-3.5c-0.4-0.7-0.8-1.4-1.2-2
		s-0.8-1.2-1.1-1.7c-0.6-0.8-1.1-1.4-1.6-1.8c-0.3-0.2-0.6-0.5-0.9-0.7c-0.1-0.1-0.2-0.1-0.3-0.2c-0.2-0.1-0.4-0.3-0.6-0.4
		c-0.1-0.1-0.2-0.2-0.3-0.2c-0.2-0.1-0.4-0.3-0.6-0.4c-0.1-0.1-0.2-0.1-0.4-0.2c-0.2-0.1-0.4-0.2-0.7-0.4c-0.1-0.1-0.2-0.1-0.3-0.2
		c-0.3-0.1-0.5-0.3-0.8-0.4c-0.1,0-0.1-0.1-0.2-0.1c-0.3-0.2-0.7-0.3-1.1-0.4c-0.1,0-0.1-0.1-0.2-0.1c-0.3-0.1-0.6-0.2-0.9-0.3
		c-0.1,0-0.2-0.1-0.4-0.1c-0.2-0.1-0.5-0.2-0.7-0.2c-0.1,0-0.3-0.1-0.4-0.1c-0.2-0.1-0.5-0.1-0.7-0.2c-0.1,0-0.3-0.1-0.4-0.1
		c-0.3-0.1-0.5-0.1-0.8-0.2c-0.1,0-0.2,0-0.3-0.1c-0.7-0.1-1.5-0.2-2.3-0.3c-0.1,0-0.2,0-0.3,0c-0.3,0-0.5,0-0.8,0
		c-0.1,0-0.3,0-0.4,0c-0.2,0-0.4,0-0.6,0c-0.3,0-0.5,0-0.8,0c-0.2,0-0.3,0-0.5,0c-0.3,0-0.6,0.1-0.9,0.1c-0.1,0-0.3,0-0.4,0
		c-0.8,0.1-1.7,0.3-2.5,0.5c-0.1,0-0.2,0.1-0.3,0.1c-0.3,0.1-0.6,0.2-0.8,0.3c-0.1,0-0.3,0.1-0.4,0.2c-0.2,0.1-0.5,0.2-0.7,0.3
		c-0.1,0.1-0.3,0.1-0.4,0.2c-0.2,0.1-0.5,0.2-0.7,0.3c-0.1,0.1-0.3,0.1-0.4,0.2c-0.2,0.1-0.5,0.3-0.7,0.4c-0.1,0.1-0.2,0.1-0.3,0.2
		c-0.3,0.2-0.5,0.4-0.8,0.6c-0.1,0.1-0.1,0.1-0.2,0.2c-0.3,0.3-0.6,0.5-0.9,0.8c-0.1,0.1-0.1,0.1-0.2,0.2c-0.2,0.2-0.4,0.5-0.7,0.7
		c-0.1,0.1-0.2,0.2-0.3,0.3c-0.2,0.2-0.3,0.4-0.5,0.7c-0.1,0.1-0.2,0.3-0.3,0.4c-0.1,0.2-0.3,0.5-0.4,0.7c-0.1,0.1-0.2,0.3-0.2,0.5
		c-0.1,0.2-0.2,0.5-0.4,0.8c-0.1,0.2-0.1,0.3-0.2,0.5c-0.1,0.3-0.2,0.6-0.3,0.9c0,0.1-0.1,0.3-0.1,0.4c-0.1,0.5-0.3,0.9-0.4,1.4
		c-1.2,3.5-1.2,6.5-0.4,9.4c0.5,1.6,1.2,3.2,2.1,4.9c0.8,1.4,1.7,2.8,2.7,4.3c3.1,3.9,5.8,8.1,8.2,12c5.9,8.6,14.4,21,20.4,29.8
		c2.2-4.5,5.6-8.4,9.9-11.2c1-0.6,2.2-0.7,3.2-0.1c4.6,2.5,9.1,5.1,13.6,7.5c-2.9-9.5-6.3-18.9-10.8-27.7
		C259.3,173.9,257.6,170.2,255.7,165.8z"/>
	<path class="st0" d="M227.7,196.6l-0.1-0.1c0,0,0,0,0-0.1l-0.1-0.1c0,0,0-0.1-0.1-0.1l-0.1-0.1c0,0,0-0.1-0.1-0.1
		c0-0.1-0.1-0.1-0.1-0.2l-0.1-0.1c0-0.1-0.1-0.2-0.1-0.2l-0.1-0.1c-0.1-0.1-0.1-0.2-0.2-0.3c0,0,0,0,0-0.1c-0.2-0.3-0.4-0.7-0.6-1
		c0,0,0,0,0-0.1c-0.1-0.2-0.2-0.4-0.3-0.6l0,0c-0.9-1.6-2-3.7-3.3-6l0,0c-0.2-0.3-0.3-0.5-0.5-0.8l0,0c-0.8-1.4-1.7-2.9-2.6-4.4
		c0,0,0,0,0-0.1c-0.2-0.3-0.3-0.6-0.5-0.8c0-0.1-0.1-0.1-0.1-0.2c-0.2-0.3-0.3-0.5-0.5-0.8c0-0.1-0.1-0.1-0.1-0.2
		c-0.2-0.3-0.3-0.5-0.5-0.8l-0.1-0.1c-0.8-1.2-1.6-2.5-2.4-3.7c0,0,0,0,0-0.1c-0.2-0.3-0.4-0.5-0.6-0.8c-0.1-0.1-0.1-0.1-0.2-0.2
		c-0.2-0.3-0.4-0.5-0.5-0.8c-0.1-0.1-0.1-0.2-0.2-0.3c-0.2-0.2-0.4-0.5-0.5-0.7c-0.1-0.1-0.1-0.2-0.2-0.2c-0.2-0.3-0.4-0.5-0.6-0.8
		c0-0.1-0.1-0.1-0.1-0.2c-0.9-1.1-1.7-2.3-2.6-3.4c-0.1-0.1-0.1-0.2-0.2-0.2c-0.2-0.2-0.4-0.4-0.5-0.7c-0.1-0.1-0.2-0.2-0.3-0.3
		c-0.2-0.2-0.4-0.4-0.5-0.6c-0.1-0.1-0.2-0.2-0.3-0.3c-0.2-0.2-0.4-0.4-0.5-0.6c-0.1-0.1-0.2-0.2-0.3-0.3c-0.2-0.2-0.4-0.4-0.6-0.6
		c-0.1-0.1-0.2-0.2-0.2-0.2c-0.6-0.7-1.3-1.3-2-1.9c-0.1-0.1-0.2-0.2-0.3-0.3c-0.2-0.2-0.4-0.3-0.5-0.5c-0.1-0.1-0.2-0.2-0.3-0.3
		c-0.2-0.1-0.3-0.3-0.5-0.4c-0.1-0.1-0.2-0.2-0.4-0.3s-0.3-0.3-0.5-0.4c-0.1-0.1-0.3-0.2-0.4-0.3c-0.2-0.1-0.3-0.3-0.5-0.4
		c-0.1-0.1-0.3-0.2-0.4-0.3c-0.2-0.1-0.3-0.2-0.5-0.4c-0.1-0.1-0.3-0.2-0.4-0.3c-0.3-0.2-0.6-0.4-0.8-0.5s-0.3-0.2-0.5-0.3
		c-0.1-0.1-0.3-0.2-0.4-0.3c-0.2-0.1-0.3-0.2-0.5-0.3s-0.3-0.2-0.5-0.2c-0.2-0.1-0.3-0.2-0.5-0.2c-0.1-0.1-0.3-0.1-0.4-0.2
		c-0.2-0.1-0.3-0.1-0.5-0.2c-0.1-0.1-0.3-0.1-0.4-0.2c-0.2-0.1-0.3-0.1-0.5-0.2c-0.1,0-0.3-0.1-0.4-0.1c-0.2-0.1-0.4-0.1-0.6-0.2
		c-0.1,0-0.2-0.1-0.4-0.1c-0.3-0.1-0.6-0.2-0.9-0.2c-0.1,0-0.2,0-0.2,0c-0.2,0-0.5-0.1-0.7-0.1c-0.1,0-0.2,0-0.4,0s-0.4,0-0.6,0
		c-0.1,0-0.3,0-0.4,0c-0.2,0-0.4,0-0.6,0c-0.2,0-0.4,0-0.6,0c-0.2,0-0.3,0-0.5,0s-0.4,0-0.6,0.1c-0.2,0-0.3,0-0.5,0.1
		c-0.2,0-0.4,0.1-0.6,0.1c-0.2,0-0.3,0.1-0.5,0.1s-0.4,0.1-0.6,0.2c-0.2,0.1-0.3,0.1-0.5,0.2c-0.2,0.1-0.4,0.1-0.6,0.2
		c-0.2,0.1-0.3,0.1-0.5,0.2c-0.2,0.1-0.4,0.2-0.6,0.3c-0.1,0.1-0.3,0.1-0.4,0.2c-0.2,0.1-0.5,0.3-0.7,0.4c-0.1,0.1-0.2,0.1-0.4,0.2
		c-0.4,0.2-0.7,0.5-1.1,0.7c-5.3,3.9-7.3,8.6-7.3,13.5c0,0.5,0,0.9,0.1,1.4c0.1,0.7,0.2,1.4,0.3,2.1c0.2,0.9,0.4,1.9,0.7,2.8
		c0.1,0.2,0.2,0.5,0.2,0.7c0.2,0.5,0.3,0.9,0.5,1.4c0.1,0.2,0.2,0.5,0.3,0.7c0.8,1.9,1.8,3.7,2.9,5.5c0.3,0.4,0.6,0.9,0.9,1.3
		c3,4.4,6.7,8.5,10.2,11.6c1,1,1.9,2,2.9,3c0.9,1,1.9,2,2.8,3c1.9,2,3.7,4.1,5.5,6.2c3.6,4.1,7.1,8.3,10.6,12.3l0,0l0,0l0,0
		l25.2,29.8c0.1,0.1,0.3,0.2,0.6,0.4c0.2,0.1,0.4,0.3,0.6,0.4c0.3,0.2,0.6,0.4,0.8,0.4s0.5,0.1,0.7,0.1c0.1,0,0.2,0,0.2,0
		c0.2,0,0.4,0,0.6,0.1c0.1,0,0.2,0,0.2,0c0.2,0,0.4,0,0.7,0h0.1c0.3,0,0.5,0,0.8,0c0.1,0,0.1,0,0.2,0c0.3,0,0.6,0,1,0h0.1l0,0
		c0.3,0,0.7-0.1,1-0.1c0.1,0,0.1,0,0.2,0c0.3,0,0.7-0.1,1-0.1c0.1,0,0.1,0,0.2,0c0.3-0.1,0.7-0.1,1-0.2h0.1c0.3-0.1,0.7-0.2,1-0.3
		c0.1,0,0.1,0,0.2-0.1c0.3-0.1,0.7-0.2,1-0.3c0.1,0,0.1,0,0.2-0.1c0.3-0.1,0.6-0.2,0.9-0.4h0.1c0.3-0.1,0.6-0.3,0.9-0.5
		c0.1,0,0.1-0.1,0.2-0.1c0.3-0.2,0.6-0.3,0.8-0.5c0.1,0,0.1-0.1,0.1-0.1c0.3-0.2,0.5-0.4,0.8-0.6l0,0c0.2-0.2,0.5-0.4,0.7-0.6
		l0.1-0.1c0.2-0.2,0.4-0.5,0.6-0.7l0.1-0.1c0.2-0.2,0.4-0.5,0.5-0.8l0,0c0.1-0.2,0.2-0.5,0.4-0.7c-3.9-3.6-7.4-7.8-10.1-12.7
		c-3.2-5.5-4.4-11.8-3.8-17.9C236.8,210.6,232.3,203.7,227.7,196.6z"/>
</g>
</svg>
