<?xml version="1.0" encoding="utf-8"?>
<!-- Generator: Adobe Illustrator 26.2.1, SVG Export Plug-In . SVG Version: 6.00 Build 0)  -->
<svg version="1.1" id="Capa_1" xmlns="http://www.w3.org/2000/svg" xmlns:xlink="http://www.w3.org/1999/xlink" x="0px" y="0px"
	 viewBox="0 0 481.4 551.6" style="enable-background:new 0 0 481.4 551.6;" xml:space="preserve">
<style type="text/css">
	.st0{fill:#BCBEC0;}
</style>
<path class="st0" d="M461.4,226.7c-1.7-6.2-6.2-8.1-6.2-8.1s-4.3-27.8-36-27.3s-35.7,23.6-43.7,32.4c-5.3,5.7-14,11.9-19.4,15.5
	c-2.9,1.9-6-11.8-6-11.8c-34.5-114.6-9.6-178.4,11.2-219c5.6-10.9-16.3-7-26.3-0.9c-139.5,85.3-117.3,223-104.4,230.8
	c21.9,13.3,46.1,31.4,46.1,31.4s13.5,8.6-72.5-32.9C111.5,192.1,52,113.4,19.7,76.7c-8.6-9.8-16,1.5-16.8,27.2
	c-1.9,58-3.2,139.3,64.9,203.6c78.6,74.3,152.4,48.4,148.2,54c-28.1,37.9-35.7,65.4-35.7,65.4C154.1,458.3,77.4,544.8,77.4,544.8
	c11.7,14.2,32.5-4.5,32.5-4.5c20.1,11.4,37.5-11.5,37.5-11.5s14.7,2.4,25.5-14.9c9-14.4,40.6-70.3,40.6-70.3s86.9-6.6,140.1-52.9
	c32.9-28.6,43.3-60.3,51.8-100.4s49.7-51.6,49.7-51.6l24.1,1.1L461.4,226.7z M426.8,219.8c-2.9,0-5.2-2.3-5.3-5.1
	c0-2.9,2.3-5.2,5.1-5.3c2.9,0,5.2,2.3,5.3,5.1C431.9,217.4,429.6,219.8,426.8,219.8z"/>
</svg>
