<?xml version="1.0" encoding="utf-8"?>
<!-- Generator: Adobe Illustrator 26.2.1, SVG Export Plug-In . SVG Version: 6.00 Build 0)  -->
<svg version="1.1" id="Capa_1" xmlns="http://www.w3.org/2000/svg" xmlns:xlink="http://www.w3.org/1999/xlink" x="0px" y="0px"
	 viewBox="0 0 481.4 551.6" style="enable-background:new 0 0 481.4 551.6;" xml:space="preserve">
<style type="text/css">
	.st0{fill:#CE4425;}
</style>
<path class="st0" d="M2.3,323.2l23.2-7.9c0,0,43.4-0.4,63,36.4s38.7,64.8,78.9,83.5c65,30.2,151.8,12.3,151.8,12.3
	s46.6,45.8,59.5,57.3c15.4,13.8,29.1,7.3,29.1,7.3s23.4,17.5,39.8,0.7c0,0,25.6,12.3,33.1-4.8c0,0-99.3-62.9-133.7-86.3
	c0,0-15.2-24.7-53.3-53.8c-5.7-4.3,73.7,0.3,129.6-94.5c48.4-82,24.2-161.1,6.1-217.2c-8-24.8-18.4-33.8-24-21.8
	C384,79.3,348,173,270,242.8c-72.4,64.8-61.6,52.6-61.6,52.6s18.6-24.5,36.2-43.6C255,240.4,238,99.7,77.7,55.6
	c-11.5-3.2-34-0.8-25.5,8.3C84,97.7,126.3,153,124.8,274.7c0,0,0.8,14.3-2.5,13.2c-6.3-2-16.6-5.6-23.3-9.7
	c-10.3-6.3-20.7-27.8-51.8-19.3c-31.1,8.5-27.4,36.8-27.4,36.8s-3.9,3.1-3.8,9.6L2.3,323.2z"/>
<path d="M41.3,285.1c-0.8-2.8,0.9-5.7,3.7-6.5s5.7,0.9,6.5,3.7c0.8,2.8-0.9,5.7-3.7,6.5S42.1,288,41.3,285.1z"/>
</svg>
