<?xml version="1.0" encoding="utf-8"?>
<!-- Generator: Adobe Illustrator 25.4.1, SVG Export Plug-In . SVG Version: 6.00 Build 0)  -->
<svg version="1.1" id="Capa_1" xmlns="http://www.w3.org/2000/svg" xmlns:xlink="http://www.w3.org/1999/xlink" x="0px" y="0px"
	 viewBox="0 0 481.4 551.6" style="enable-background:new 0 0 481.4 551.6;" xml:space="preserve">
<style type="text/css">
	.st0{fill:none;}
	.st1{fill:#BCBEC0;}
</style>
<g>
	<circle class="st0" cx="52.7" cy="217" r="5.3"/>
	<path class="st1" d="M0,243.3l24.4-1.5c0,0,41.9,11,51.1,51.5s20.2,72.4,54,100.9c54.6,46.1,142.7,51.5,142.7,51.5
		s32.9,56.2,42.2,70.6c11.1,17.3,26,14.7,26,14.7s18,22.9,38.2,11.1c0,0,21.3,18.5,33,4c0,0-79-86.4-106-117.9
		c0,0-8.1-27.7-37.2-65.7c-4.3-5.6,70.8,19.6,149.3-56.9c68-66.2,65.4-148.6,62.7-207.3c-1.2-25.9-8.8-37.2-17.4-27.2
		c-31.2,36.5-87.7,113.5-176.2,160.7c-5.1,4.4-19.3,8.7-41,12.6c-0.1,0-0.3,0-0.4,0c-1.2,0-2.3-0.9-2.5-2.1c-0.3-1.4,0.6-2.7,2-2.9
		c2.5-0.4,4.9-0.9,7.1-1.3c-0.1-0.1-0.2-0.1-0.3-0.1C264.6,229.9,285,90.1,142.6,5.7c-10.3-6-32.5-9.7-26.7,1.3
		c21.7,40.9,47.9,105,14.7,221.7c0,0-3,13.9-5.9,12c-5.5-3.5-14.5-9.7-19.9-15.4c-8.3-8.7-12.7-32.1-44.8-32.1s-36,28.2-36,28.2
		s-4.6,2-6.2,8.3L0,243.3z M47.4,216.9c0-2.9,2.4-5.3,5.3-5.3s5.3,2.4,5.3,5.3c0,2.9-2.4,5.3-5.3,5.3S47.5,219.9,47.4,216.9z"/>
</g>
</svg>
