<?xml version="1.0" encoding="utf-8"?>
<!-- Generator: Adobe Illustrator 25.4.1, SVG Export Plug-In . SVG Version: 6.00 Build 0)  -->
<svg version="1.1" id="Capa_1" xmlns="http://www.w3.org/2000/svg" xmlns:xlink="http://www.w3.org/1999/xlink" x="0px" y="0px"
	 viewBox="0 0 481.4 551.6" style="enable-background:new 0 0 481.4 551.6;" xml:space="preserve">
<style type="text/css">
	.st0{fill:none;}
	.st1{fill:#BCBEC0;}
</style>
<g>
	<circle class="st0" cx="428.7" cy="217" r="5.3"/>
	<path class="st1" d="M463.6,229.7c-1.6-6.3-6.2-8.3-6.2-8.3s-3.9-28.2-36-28.2c-32.1,0-36.5,23.4-44.8,32.1
		c-5.4,5.7-14.4,11.9-19.9,15.4c-2.9,1.9-5.9-12-5.9-12c-33.2-116.7-7-180.8,14.7-221.7c5.8-11-16.4-7.3-26.7-1.3
		C196.4,90.1,216.8,229.9,229.7,238c-0.1,0-0.2,0-0.3,0.1c2.2,0.4,4.6,0.9,7.1,1.3c1.4,0.2,2.3,1.5,2,2.9c-0.2,1.2-1.3,2.1-2.5,2.1
		c-0.1,0-0.3,0-0.4,0c-21.7-3.9-35.9-8.2-41-12.6c-88.5-47.2-145-124.2-176.2-160.7c-8.6-10-16.2,1.3-17.4,27.2
		C-1.7,157-4.3,239.4,63.7,305.6c78.5,76.5,153.6,51.3,149.3,56.9c-29.1,38-37.2,65.7-37.2,65.7C148.8,459.7,69.8,546.1,69.8,546.1
		c11.7,14.5,33-4,33-4C123,553.9,141,531,141,531s14.9,2.6,26-14.7c9.3-14.4,42.2-70.6,42.2-70.6s88.1-5.4,142.7-51.5
		c33.8-28.5,44.8-60.4,54-100.9c9.2-40.5,51.1-51.5,51.1-51.5l24.4,1.5L463.6,229.7z M428.7,222.2c-2.9,0-5.3-2.4-5.3-5.3
		c0-2.9,2.4-5.3,5.3-5.3c2.9,0,5.3,2.4,5.3,5.3C433.9,219.9,431.6,222.2,428.7,222.2z"/>
</g>
</svg>
