<?xml version="1.0" encoding="utf-8"?>
<!-- Generator: Adobe Illustrator 25.4.1, SVG Export Plug-In . SVG Version: 6.00 Build 0)  -->
<svg version="1.1" id="Capa_1" xmlns="http://www.w3.org/2000/svg" xmlns:xlink="http://www.w3.org/1999/xlink" x="0px" y="0px"
	 viewBox="0 0 489.2 204.7" style="enable-background:new 0 0 489.2 204.7;" xml:space="preserve">
<style type="text/css">
	.st0{fill:#BCBEC0;}
</style>
<path class="st0" d="M477.9,96.7c-1.8-32.7-19.2-62.6-46.7-80.3c-28-18.1-63.2-21.3-94.1-8.7C307,20,284.6,45.8,276.6,77.2
	c-9.6-6.2-20.6-9.5-32.1-9.5s-22.5,3.3-32.1,9.5c-5.8-22.8-19.3-43-38.3-57.1c-19.7-14.6-44-21.6-68.5-19.8
	C81.3,2.1,58.3,12.6,40.9,30c-18,17.8-28.7,41.5-30,66.8H0V112h11.3c2.4,25.1,13.9,48.3,32.4,65.5c19,17.5,43.6,27.2,69.5,27.2
	c27.3,0,53-10.7,72.3-30c19.3-19.3,30-45,30-72.3c0-2.7,0-5.3-0.3-8.2c8-7.2,18.4-11.2,29.2-11.2c10.9,0,21.2,4,29.2,11.2
	c-2.7,36.1,14,71.2,43.8,91.8c30,20.8,69.1,24.1,102.1,8.5c32.5-15.3,54.7-46.8,58.3-82.5h11.3V96.7L477.9,96.7z M462.7,102.4
	c0,22.9-9.3,45.4-25.6,61.6l0,0c-19,19-46.3,28.2-72.9,24.6c-26.6-3.5-50.5-19.6-64-42.9c-13.4-23.3-15.3-52-4.9-76.8
	c10.3-24.8,32-43.8,57.9-50.7c7.3-1.9,14.8-2.9,22.2-2.9c19.1,0,37.9,6.2,53.2,18C450.1,49.7,462.8,75.5,462.7,102.4z M174.8,163.9
	c-16.5,16.4-38.3,25.5-61.6,25.5c-23.3,0-45.1-9.1-61.6-25.5c-16.4-16.4-25.5-38.3-25.5-61.6c0-23.3,9.1-45.1,25.5-61.6
	C68.1,24.3,90,15.2,113.2,15.2c23.3,0,45.1,9.1,61.6,25.5c16.3,16.2,25.6,38.6,25.6,61.6C200.4,125.3,191.1,147.7,174.8,163.9
	L174.8,163.9z"/>
</svg>
