<?xml version="1.0" encoding="utf-8"?>
<!-- Generator: Adobe Illustrator 26.2.1, SVG Export Plug-In . SVG Version: 6.00 Build 0)  -->
<svg version="1.1" id="Capa_1" xmlns="http://www.w3.org/2000/svg" xmlns:xlink="http://www.w3.org/1999/xlink" x="0px" y="0px"
	 viewBox="0 0 417.9 598.8" style="enable-background:new 0 0 417.9 598.8;" xml:space="preserve">
<style type="text/css">
	.st0{fill:#ED9C93;}
</style>
<g>
	<g>
		<path d="M179.1,409.1c2.3-5.2,1.5-11.9-2.1-17.4c-2-3-4.7-5.7-7.3-8.2L108,322.7c-9-8.9-15.6-15.4-27.6-13.4
			c-3.3,0.5-6.5,1.2-9.3,2.5c-0.6,0.3-1.2,0.6-1.8,1c-4,2.6-7.2,7-8.8,12.2c-1.6,5.3-1.6,11.5-0.2,18.3c0.8,3.6,1.8,6.2,3.1,8.4
			c2.5,4.1,6.8,7.1,10.9,10l34.2,24c11.8,8.3,24,16.8,37.3,22.5c2.7,1.2,5.1,2.5,7.4,3.8c1.4,0.8,2.7,1.6,4.2,2.3
			c1.9,1,4.7,1.7,7,2.2l0.9,0.2C170.6,417.9,176.7,414.6,179.1,409.1L179.1,409.1z"/>
		<path d="M148.2,348l39.4,39.7c0.3,0.2,2.4,1.3,3,1.5c7.5,0.9,15.5-1.6,20.5-6.7c2.9-3,3.5-3.9,3.4-7.6c-0.1-3.6-3.1-11-5.2-13.9
			c-9.2-12.5-16.6-22.1-24.5-32.3l-16.2-21c-3.1-2.2-6.4-4.3-9.5-6.5c-10-7.2-20.3-15.1-28.1-25.5c-5.3-7.1-8.8-14.9-10.3-22.6
			l-2.2-0.6c-0.4-0.1-0.7-0.2-1.1-0.3c-4.1-0.5-8.7,0.3-14.1,2.5c-2.4,0.9-4.4,2-6.1,3.1c-1.3,0.8-2.4,1.7-3.4,2.7
			c-6.7,6.6-6.8,17.5-4,25.3c4.2,11.7,14.6,20.8,24.6,29.6C126.3,325.9,137.5,337.2,148.2,348L148.2,348z"/>
		<path d="M306.9,274.5c-0.2-0.1-0.4-0.2-0.5-0.1c-1,0.1-2.1,0.1-3.5,0.2c-0.5,0-1.1,0.1-1.7,0.1c-0.9,0-1.8,0.1-2.8,0.1
			c-0.6,0-1.3,0-2,0.1c-1.1,0-2.1,0.1-3.3,0.1c-0.7,0-1.5,0-2.3,0c-1.2,0-2.4,0-3.7,0.1c-0.8,0-1.7,0-2.6,0c-1.3,0-2.7,0-4.1,0
			c-0.9,0-1.8,0-2.8,0c-1.4,0-2.9-0.1-4.4-0.1c-0.9,0-1.8-0.1-2.8-0.1c-1.6-0.1-3.3-0.2-5-0.3c-0.8-0.1-1.6-0.1-2.5-0.1
			c-2.5-0.2-5.1-0.4-7.6-0.7c-15.5-1.6-30.7-3.6-44.5-10.1c-10.2-4.8-19.2-11.8-27.1-18c-12.7-9.9-25.3-20-37.9-30.1
			c-9.8,4.2-17.3,13.7-19.1,24.2c-0.3,1.8-0.4,3.6-0.4,5.5c0,2.4,0.3,4.9,0.8,7.3c0.3,1.5,0.7,3.1,1.3,4.6c0.1,0.3,0.2,0.5,0.3,0.8
			c0.4,1.3,0.9,2.6,1.5,3.8c0.2,0.4,0.3,0.7,0.5,1.1c0.6,1.2,1.2,2.4,1.9,3.5c0.2,0.4,0.4,0.8,0.7,1.2c0.9,1.5,1.9,3,3,4.4
			c7.2,9.7,17.2,17.3,26.7,24.2c6.1,4.4,12.4,8.7,18.7,12.9l0,0c5.2,3.5,10.4,6.8,15.7,10.1c2.2,1.4,4.3,2.7,6.5,4.1
			c4.5,2.8,9,5.5,13.6,8.1c3.7,2.2,7.4,4.2,11.1,6.3c3.5,1.9,6.9,3.9,10.4,5.8c7.6,4.1,15.2,8,22.9,11.7c0.7,0.4,2.1,1,3,2.4
			c1.3,2.1,0.7,4.4,0.3,5.6c-9.1,32.5,3.4,69.4,30.3,89.8c1.4,1.1,1.7,3,0.6,4.4c-0.2,0.3-0.5,0.5-0.8,0.7c-1.1,0.7-2.5,0.7-3.6-0.1
			c-28.9-21.9-42.2-61.6-32.5-96.5c0-0.1,0.1-0.4,0.1-0.6c-0.1,0-0.1-0.1-0.2-0.1c-22.6-11-44.5-23.4-65.8-36.8l-11.5-8.5l9.3,10.8
			c7.5,9.7,14.6,19,23.4,30.9c2.8,3.7,6.2,12.4,6.4,17.4c0.2,6.3-1.8,8.8-5.2,12.2c-1.4,1.4-3,2.7-4.7,3.8
			c-6.1,3.9-13.8,5.6-21.6,4.6c-1.1-0.3-3.1-1.2-4.5-2.1c2.4,6.2,2.6,12.9,0.1,18.4c-1.6,3.6-4.2,6.5-7.3,8.5
			c-4.1,2.6-9.1,3.7-13.7,2.5l-0.9-0.2c-2.6-0.6-5.8-1.4-8.4-2.7c-1.6-0.8-3-1.6-4.5-2.4c-2.2-1.3-4.3-2.5-6.8-3.5
			c-13.6-5.8-25.8-14.3-37.6-22.5c3.2,7.2,7.2,14.1,11.4,20.6c23.3,36.2,52.2,71.2,91.7,88.4c9.6,4.2,20,7.4,27.9,14.3
			c4.4,3.9,7.8,8.7,11.2,13.5c14.8,21.4,28.8,44.7,31.3,70.5c11.6-1.6,21.3-3.2,32.4-6.9c14.9-4.9,28.4-13.4,41.7-21.8
			c13.5-8.5,27-17.1,38.7-27.9c11.7-10.8,21.5-24.1,25.8-39.4c-19.9-13-34.5-36.3-42.6-58.7c-3.2-9-0.5-17.4-1.1-26.8
			c-0.7-10.2-1.7-20.4-3.1-30.6c-2.7-20.3-6.9-40.4-12.4-60.1c-3-10.8-6.6-21.8-13-31C337.4,283.7,321.8,274.6,306.9,274.5
			L306.9,274.5z"/>
		<path d="M171.2,0c-16.1,0.9-25.3,13.4-26,29.5c-0.8,16.1,8.3,35,13.6,50.3c14.7,42.5,29.7,81.9,42.1,124c1.4,4.6,2.4,10.2-1,13.5
			c-4.7,4.5-12.3,0.2-17.2-4.2c-38.3-33.9-75.7-68.8-112.2-104.7c-11.9-11.5-24.7-23.8-41-26.3c-4.1-0.6-8.3-0.6-12.2,0.7
			C1.6,89.3-0.5,100.6,0.1,112.9s14.7,30.3,27,42.1c30.8,29.4,61.6,58.8,92.4,88.2l0.5,0.1c0.1-1.6,0.2-3.1,0.5-4.6
			c2.2-13.5,12-25.1,24.8-29.8l1.7-0.6l1.4,1.1c13,10.5,26.1,20.9,39.2,31.2c7.7,6,16.4,12.8,25.9,17.3c13,6.1,27.5,8,42.5,9.5
			c16.1,1.7,32.2,1.5,42.5,1.1c-16.9-26.6-27.7-56.9-38.7-86.4C247,147.9,207.9,31.7,201.7,20.3C195.6,9,184.1-0.7,171.2,0L171.2,0z
			"/>
	</g>
	<path d="M120.7,253.1l-0.7-9.8l10.6-51.6l55.6,35.3l112.4,41.5l4.4,6.1l25.1,31.1l-12.9,69.9l-9.1,88.8c0,0-149.9-28.7-151-28.3
		s-49.2-44.9-49.2-44.9l-11.9-20.9l91,22.8l-72.2-122.7L120.7,253.1z"/>
</g>
<g>
	<g>
		<path class="st0" d="M179.1,409.1c2.3-5.2,1.5-11.9-2.1-17.4c-2-3-4.7-5.7-7.3-8.2L108,322.7c-9-8.9-15.6-15.4-27.6-13.4
			c-3.3,0.5-6.5,1.2-9.3,2.5c-0.6,0.3-1.2,0.6-1.8,1c-4,2.6-7.2,7-8.8,12.2c-1.6,5.3-1.6,11.5-0.2,18.3c0.8,3.6,1.8,6.2,3.1,8.4
			c2.5,4.1,6.8,7.1,10.9,10l34.2,24c11.8,8.3,24,16.8,37.3,22.5c2.7,1.2,5.1,2.5,7.4,3.8c1.4,0.8,2.7,1.6,4.2,2.3
			c1.9,1,4.7,1.7,7,2.2l0.9,0.2C170.6,417.9,176.7,414.6,179.1,409.1L179.1,409.1z"/>
		<path class="st0" d="M148.2,348l39.4,39.7c0.3,0.2,2.4,1.3,3,1.5c7.5,0.9,15.5-1.6,20.5-6.7c2.9-3,3.5-3.9,3.4-7.6
			c-0.1-3.6-3.1-11-5.2-13.9c-9.2-12.5-16.6-22.1-24.5-32.3l-16.2-21c-3.1-2.2-6.4-4.3-9.5-6.5c-10-7.2-20.3-15.1-28.1-25.5
			c-5.3-7.1-8.8-14.9-10.3-22.6l-2.2-0.6c-0.4-0.1-0.7-0.2-1.1-0.3c-4.1-0.5-8.7,0.3-14.1,2.5c-2.4,0.9-4.4,2-6.1,3.1
			c-1.3,0.8-2.4,1.7-3.4,2.7c-6.7,6.6-6.8,17.5-4,25.3c4.2,11.7,14.6,20.8,24.6,29.6C126.3,325.9,137.5,337.2,148.2,348L148.2,348z"
			/>
		<path class="st0" d="M306.9,274.5c-0.2-0.1-0.4-0.2-0.5-0.1c-1,0.1-2.1,0.1-3.5,0.2c-0.5,0-1.1,0.1-1.7,0.1
			c-0.9,0-1.8,0.1-2.8,0.1c-0.6,0-1.3,0-2,0.1c-1.1,0-2.1,0.1-3.3,0.1c-0.7,0-1.5,0-2.3,0c-1.2,0-2.4,0-3.7,0.1c-0.8,0-1.7,0-2.6,0
			c-1.3,0-2.7,0-4.1,0c-0.9,0-1.8,0-2.8,0c-1.4,0-2.9-0.1-4.4-0.1c-0.9,0-1.8-0.1-2.8-0.1c-1.6-0.1-3.3-0.2-5-0.3
			c-0.8-0.1-1.6-0.1-2.5-0.1c-2.5-0.2-5.1-0.4-7.6-0.7c-15.5-1.6-30.7-3.6-44.5-10.1c-10.2-4.8-19.2-11.8-27.1-18
			c-12.7-9.9-25.3-20-37.9-30.1c-9.8,4.2-17.3,13.7-19.1,24.2c-0.3,1.8-0.4,3.6-0.4,5.5c0,2.4,0.3,4.9,0.8,7.3
			c0.3,1.5,0.7,3.1,1.3,4.6c0.1,0.3,0.2,0.5,0.3,0.8c0.4,1.3,0.9,2.6,1.5,3.8c0.2,0.4,0.3,0.7,0.5,1.1c0.6,1.2,1.2,2.4,1.9,3.5
			c0.2,0.4,0.4,0.8,0.7,1.2c0.9,1.5,1.9,3,3,4.4c7.2,9.7,17.2,17.3,26.7,24.2c6.1,4.4,12.4,8.7,18.7,12.9l0,0
			c5.2,3.5,10.4,6.8,15.7,10.1c2.2,1.4,4.3,2.7,6.5,4.1c4.5,2.8,9,5.5,13.6,8.1c3.7,2.2,7.4,4.2,11.1,6.3c3.5,1.9,6.9,3.9,10.4,5.8
			c7.6,4.1,15.2,8,22.9,11.7c0.7,0.4,2.1,1,3,2.4c1.3,2.1,0.7,4.4,0.3,5.6c-9.1,32.5,3.4,69.4,30.3,89.8c1.4,1.1,1.7,3,0.6,4.4
			c-0.2,0.3-0.5,0.5-0.8,0.7c-1.1,0.7-2.5,0.7-3.6-0.1c-28.9-21.9-42.2-61.6-32.5-96.5c0-0.1,0.1-0.4,0.1-0.6
			c-0.1,0-0.1-0.1-0.2-0.1c-22.6-11-44.5-23.4-65.8-36.8l-11.5-8.5l9.3,10.8c7.5,9.7,14.6,19,23.4,30.9c2.8,3.7,6.2,12.4,6.4,17.4
			c0.2,6.3-1.8,8.8-5.2,12.2c-1.4,1.4-3,2.7-4.7,3.8c-6.1,3.9-13.8,5.6-21.6,4.6c-1.1-0.3-3.1-1.2-4.5-2.1
			c2.4,6.2,2.6,12.9,0.1,18.4c-1.6,3.6-4.2,6.5-7.3,8.5c-4.1,2.6-9.1,3.7-13.7,2.5l-0.9-0.2c-2.6-0.6-5.8-1.4-8.4-2.7
			c-1.6-0.8-3-1.6-4.5-2.4c-2.2-1.3-4.3-2.5-6.8-3.5c-13.6-5.8-25.8-14.3-37.6-22.5c3.2,7.2,7.2,14.1,11.4,20.6
			c23.3,36.2,52.2,71.2,91.7,88.4c9.6,4.2,20,7.4,27.9,14.3c4.4,3.9,7.8,8.7,11.2,13.5c14.8,21.4,28.8,44.7,31.3,70.5
			c11.6-1.6,21.3-3.2,32.4-6.9c14.9-4.9,28.4-13.4,41.7-21.8c13.5-8.5,27-17.1,38.7-27.9c11.7-10.8,21.5-24.1,25.8-39.4
			c-19.9-13-34.5-36.3-42.6-58.7c-3.2-9-0.5-17.4-1.1-26.8c-0.7-10.2-1.7-20.4-3.1-30.6c-2.7-20.3-6.9-40.4-12.4-60.1
			c-3-10.8-6.6-21.8-13-31C337.4,283.7,321.8,274.6,306.9,274.5L306.9,274.5z"/>
		<path class="st0" d="M171.2,0c-16.1,0.9-25.3,13.4-26,29.5c-0.8,16.1,8.3,35,13.6,50.3c14.7,42.5,29.7,81.9,42.1,124
			c1.4,4.6,2.4,10.2-1,13.5c-4.7,4.5-12.3,0.2-17.2-4.2c-38.3-33.9-75.7-68.8-112.2-104.7c-11.9-11.5-24.7-23.8-41-26.3
			c-4.1-0.6-8.3-0.6-12.2,0.7C1.6,89.3-0.5,100.6,0.1,112.9s14.7,30.3,27,42.1c30.8,29.4,61.6,58.8,92.4,88.2l0.5,0.1
			c0.1-1.6,0.2-3.1,0.5-4.6c2.2-13.5,12-25.1,24.8-29.8l1.7-0.6l1.4,1.1c13,10.5,26.1,20.9,39.2,31.2c7.7,6,16.4,12.8,25.9,17.3
			c13,6.1,27.5,8,42.5,9.5c16.1,1.7,32.2,1.5,42.5,1.1c-16.9-26.6-27.7-56.9-38.7-86.4C247,147.9,207.9,31.7,201.7,20.3
			C195.6,9,184.1-0.7,171.2,0L171.2,0z"/>
	</g>
</g>
</svg>
