<?xml version="1.0" encoding="utf-8"?>
<!-- Generator: Adobe Illustrator 25.4.1, SVG Export Plug-In . SVG Version: 6.00 Build 0)  -->
<svg version="1.1" id="Capa_1" xmlns="http://www.w3.org/2000/svg" xmlns:xlink="http://www.w3.org/1999/xlink" x="0px" y="0px"
	 viewBox="0 0 289.3 289.3" style="enable-background:new 0 0 289.3 289.3;" xml:space="preserve">
<style type="text/css">
	.st0{fill:#BCBEC0;}
</style>
<path class="st0" d="M199.3,164.4l85.1,17.7l-82.6-27.3l-28.9-4.1c0.3-1.5,0.5-3,0.6-4.6l29,3.5l86.8-5l-86.8-5l-29,3.5
	c-0.1-1.6-0.3-3.1-0.6-4.6l28.9-4.1l82.6-27.3l-85.1,17.7l-27.1,10.9c-0.5-1.5-1.1-2.9-1.8-4.2l26.8-11.5l72.7-47.7l-77.6,39.1
	l-23.4,17.5c-0.8-1.3-1.8-2.5-2.8-3.7l22.9-18l57.9-64.9l-64.9,57.9l-18,22.9c-1.1-1-2.4-2-3.7-2.8L177.9,97L217,19.4l-47.7,72.7
	l-11.5,26.8c-1.4-0.7-2.8-1.3-4.2-1.8L164.4,90l17.7-85.1l-27.3,82.6l-4.1,28.9c-1.5-0.3-3-0.5-4.6-0.6l3.5-29l-5-86.8l-5,86.8
	l3.5,29c-1.6,0.1-3.1,0.3-4.6,0.6l-4.1-28.9L107.2,4.9L124.9,90l10.9,27.1c-1.5,0.5-2.9,1.1-4.2,1.8L120,92.1L72.3,19.4L111.4,97
	l17.5,23.4c-1.3,0.8-2.5,1.8-3.7,2.8l-18-22.9L42.4,42.4l57.9,64.9l22.9,18c-1,1.1-2,2.4-2.8,3.7L97,111.4L19.4,72.3L92.1,120
	l26.8,11.5c-0.7,1.4-1.3,2.8-1.8,4.2L90,124.9L4.9,107.2l82.6,27.3l28.9,4.1c-0.3,1.5-0.5,3-0.6,4.6l-29-3.5l-86.8,5l86.8,5l29-3.5
	c0.1,1.6,0.3,3.1,0.6,4.6l-28.9,4.1L4.9,182.1L90,164.4l27.1-10.9c0.5,1.5,1.1,2.9,1.8,4.2l-26.8,11.5L19.4,217L97,177.9l23.4-17.5
	c0.8,1.3,1.8,2.5,2.8,3.7l-22.9,18l-57.9,64.9l64.9-57.9l18-22.9c1.1,1,2.4,2,3.7,2.8l-17.5,23.4l-39.1,77.6l47.7-72.7l11.5-26.8
	c1.4,0.7,2.8,1.3,4.2,1.8l-10.9,27.1l-17.7,85.1l27.3-82.6l4.1-28.9c1.5,0.3,3,0.5,4.6,0.6l-3.5,29l5,86.8l5-86.8l-3.5-29
	c1.6-0.1,3.1-0.3,4.6-0.6l4.1,28.9l27.3,82.6l-17.7-85.1l-10.9-27.1c1.5-0.5,2.9-1.1,4.2-1.8l11.5,26.8l47.7,72.7l-39.1-77.6
	l-17.5-23.4c1.3-0.8,2.5-1.8,3.7-2.8l18,22.9l64.9,57.9l-57.9-64.9l-22.9-18c1-1.1,2-2.4,2.8-3.7l23.4,17.5l77.6,39.1l-72.7-47.7
	l-26.8-11.5c0.7-1.4,1.3-2.8,1.8-4.2L199.3,164.4z"/>
</svg>
