<?xml version="1.0" encoding="utf-8"?>
<!-- Generator: Adobe Illustrator 25.4.1, SVG Export Plug-In . SVG Version: 6.00 Build 0)  -->
<svg version="1.1" id="Capa_1" xmlns="http://www.w3.org/2000/svg" xmlns:xlink="http://www.w3.org/1999/xlink" x="0px" y="0px"
	 viewBox="0 0 1914.9 600.2" style="enable-background:new 0 0 1914.9 600.2;" xml:space="preserve">
<style type="text/css">
	.st0{fill:#BCBEC0;}
</style>
<g>
	<path class="st0" d="M1169.7,295.1c-633.4-17.8-672.4-138.5-1178.2-67v158.5c505.8-71.5,544.7,49.2,1178.2,67
		c633.4,17.8,753.7-182.8,753.7-182.8V112.3C1923.4,112.3,1803.1,313,1169.7,295.1z"/>
	<g>
		<path d="M1169.7,453.6c-633.4-17.8-672.4-138.5-1178.2-67v143c505.8-71.5,544.7,49.2,1178.2,67s753.7-182.8,753.7-182.8v-143
			C1923.4,270.8,1803.1,471.4,1169.7,453.6z"/>
		<path class="st0" d="M1247.3,600.2c-25.4,0-51.3-0.4-77.7-1.1c-270.4-7.6-435.9-34.5-568.9-56.1c-91.9-14.9-171.3-27.8-264.4-32
			c-101.6-4.5-211,2.2-344.4,21c-0.7,0.1-1.4-0.1-2-0.6c-0.5-0.5-0.9-1.2-0.9-1.9v-143c0-1.2,0.9-2.3,2.1-2.5
			c133.7-18.9,243.4-25.6,345.3-21.1c93.4,4.1,172.9,17.1,265,32c132.8,21.6,298.1,48.4,568.3,56c144,4,273.2-3,383.9-20.9
			c88.5-14.3,165.5-35.6,228.7-63.3c107.6-47.1,138.6-96.9,138.9-97.4c0.6-1,1.7-1.4,2.8-1.1c1.1,0.3,1.8,1.3,1.8,2.4v143
			c0,0.5-0.1,0.9-0.4,1.3c-1.2,2.1-31.7,51.4-140.5,99.1c-63.6,27.9-141,49.4-230,63.9C1464.2,592.8,1361,600.2,1247.3,600.2z
			 M274.3,504.7c21.1,0,41.8,0.5,62.2,1.4c93.4,4.1,172.9,17.1,265,32c132.8,21.6,298.1,48.4,568.3,56c144,4,273.2-3,383.9-20.9
			c88.5-14.3,165.5-35.6,228.7-63.3c101.5-44.4,134.8-91.2,138.5-96.8V278.6c-11.9,15.2-48.8,54.4-135.8,92.6
			c-63.6,27.9-141,49.4-230,63.9c-111.1,18.1-240.8,25.2-385.5,21.1c-270.4-7.6-435.9-34.5-568.9-56.1
			c-91.9-14.9-171.3-27.8-264.4-32c-101-4.5-209.8,2.1-342.3,20.7v137.9C99.8,511.9,190.5,504.7,274.3,504.7z"/>
	</g>
	<path id="XMLID_53_" d="M1025.4,389c12.9-33.3-3.3-71-36.1-84.1c-32.8-13.1-70,3.3-82.9,36.6c-12.9,33.3,3.3,71,36.1,84.1
		C975.3,438.7,1012.5,422.3,1025.4,389z M1021.9,368.7c-0.1,0.9-0.1,1.8-0.2,2.7c-6.7-1.2-13.4-2.5-20.1-3.7
		c-3.8-0.7-7.6-1.3-11.4-1.7c-3.5-0.3-7.1-0.1-10.7-0.1c0,0,0,0,0,0c0-0.6,0-1.3,0-1.9c0,0,0,0,0,0c0.7-0.2,1.4-0.1,2.1-0.1
		c4.1-0.2,8.3,0,12.3-0.8c9.2-1.8,18.4-4,27.6-6.1c0.2,1.2,0.3,2.5,0.4,3.7c-1.4,0.1-2.8,1-3.3,2.4c-0.8,2,0.1,4.4,2.1,5.2
		C1021,368.6,1021.5,368.7,1021.9,368.7z M1020.8,353.8c0.2,0.9,0.4,1.9,0.5,2.9c-0.2,0-0.4,0-0.6,0c-6.5,0.5-12.9,1.1-19.4,1.5
		c-5.5,0.4-10.9,0.8-16.1,2.6c-2,0.7-4,1.1-6,1.7c0,0,0,0-0.1,0c-0.1-0.6-0.3-1.2-0.5-1.8c0,0,0.1,0,0.1-0.1
		c0.4-0.3,0.9-0.3,1.4-0.4c4.5-1.6,9.2-2.9,13.6-4.8c5.2-2.3,10.1-5.2,15.1-7.9c2.9-1.5,5.7-3.2,8.6-4.7c0.5,1.1,0.9,2.3,1.3,3.5
		c-2,0.4-3.5,2.3-3.2,4.3c0.2,2.2,2.2,3.7,4.3,3.5C1020.2,354,1020.5,353.9,1020.8,353.8z M1016,339.7c0.4,0.9,0.9,1.8,1.3,2.7
		c-0.3,0.1-0.6,0.1-0.8,0.2c-8.6,3.1-17.1,6.2-25.7,9.3c-0.9,0.3-1.8,0.7-2.6,1.2c-3.3,1.9-6.6,3.8-9.9,5.7
		c-0.1,0.1-0.2,0.1-0.3,0.1c-0.3-0.5-0.6-1.1-0.9-1.6c0.2-0.1,0.4-0.3,0.5-0.4c6.6-3.9,12.8-8.3,18.2-13.7
		c4.6-4.6,9.4-8.9,14.1-13.3c0.7,0.9,1.4,1.9,2.1,2.9c-1.4,0.7-2.4,2.3-2.2,4c0.2,2.2,2.2,3.7,4.3,3.5
		C1014.9,340.3,1015.5,340,1016,339.7z M1008,327.7c0.6,0.7,1.1,1.3,1.7,2c0,0-0.1,0-0.1,0.1c-6.6,4.6-13.1,9.2-19.7,13.7
		c-3.1,2.1-6,4.5-8.6,7.3c-1.7,1.8-3.5,3.5-5.2,5.3c0,0,0,0-0.1,0.1c-0.4-0.5-0.9-0.9-1.3-1.3c0,0,0,0,0.1-0.1
		c1.4-1.5,2.9-3.1,4.3-4.6c1.8-2,3.8-3.9,5.2-6.1c4-6,7.7-12.1,11.6-18.2c1.2-2,2.5-4,3.7-6c1,0.8,2,1.6,3,2.4
		c-1.2,1.4-1.3,3.4-0.2,4.9c1.2,1.8,3.7,2.2,5.5,0.9C1007.8,327.9,1007.9,327.8,1008,327.7z M997.1,318c0.7,0.5,1.4,0.9,2,1.4
		c-0.2,0.2-0.4,0.4-0.6,0.6c-3.5,4.2-7,8.3-10.5,12.5c-4,4.9-8.5,9.4-11.3,15.2c-1,2-2.1,3.9-3.3,5.8c0,0-0.1,0.1-0.1,0.1
		c-0.5-0.3-1-0.6-1.6-0.9c0,0,0-0.1,0.1-0.1c0.6-1.1,1.3-2.3,1.9-3.5c1.8-3.9,3.9-7.8,5.3-11.8c1.9-5.1,3.3-10.4,5-15.7
		c1-3.1,1.9-6.2,2.9-9.3c1.2,0.5,2.4,1,3.6,1.6c-0.6,1.3-0.6,2.8,0.3,4.1c1.3,1.8,3.7,2.2,5.5,0.9
		C996.5,318.8,996.9,318.4,997.1,318z M983,311c1.1,0.4,2.2,0.7,3.3,1.2c0,0.1-0.1,0.1-0.1,0.2c-3.1,6.5-6.2,13-9.2,19.6
		c-1.7,3.9-3.2,7.9-4.6,11.9c-0.9,2.7-1.4,5.5-2.2,8.2c0,0,0,0,0,0c-0.6-0.2-1.2-0.4-1.8-0.5c0.3-1.2,0.6-2.4,0.8-3.7
		c0.7-3.7,1.8-7.3,2.1-11c0.6-8.8,0.9-17.7,1.2-26.5c0-0.6,0-1.2,0-1.8c0.9,0.1,1.9,0.3,2.8,0.4c-0.1,0.5-0.1,1.1,0,1.6
		c0.4,2.1,2.5,3.5,4.6,3.1C981.5,313.6,982.6,312.4,983,311z M968.7,308.4c1.2,0.1,2.4,0.2,3.6,0.3c-1.3,6-2.5,12-3.5,18
		c-0.8,4.9-1.6,9.7-2,14.6c-0.3,3.3-0.1,6.7-0.1,10.1c0,0,0,0,0,0c-0.6,0-1.2,0-1.8,0c0,0,0,0,0,0c-0.2-1.2-0.1-2.5-0.2-3.8
		c-0.2-3.5,0-7.1-0.6-10.5c-1.8-9.1-3.9-18.2-5.9-27.2c-0.1-0.4-0.2-0.7-0.3-1.1c1-0.1,2-0.3,3-0.4c0,0.2,0,0.5,0.1,0.7
		c0.4,2.1,2.5,3.5,4.6,3.1C967.5,312,968.7,310.3,968.7,308.4z M954.4,309.6c1.1-0.2,2.2-0.4,3.3-0.6c-0.2,0.3-0.2,0.6-0.2,0.9
		c0.5,6.7,1.1,13.3,1.6,20c0.4,5.5,0.9,11,2.6,16.4c0.6,1.8,1,3.7,1.5,5.5c-0.6,0.1-1.2,0.3-1.8,0.5c-0.2-0.4-0.2-0.9-0.4-1.3
		c-1.6-4.7-3-9.6-4.9-14.1c-2.1-4.9-4.7-9.5-7.2-14.2c-1.7-3.3-3.4-6.5-5.2-9.7c1.1-0.5,2.1-0.9,3.2-1.3c0.1,0.8,0.4,1.5,0.9,2.1
		c1.4,1.7,3.9,1.9,5.5,0.4C954.8,313.1,955.1,311.1,954.4,309.6z M940.5,314.8c-0.1-0.1-0.1-0.1-0.2-0.2c1-0.5,2.1-1,3.1-1.5
		c0.1,0.3,0.1,0.6,0.2,0.8c2.4,6.9,4.8,13.9,7.3,20.8c1.1,3.1,2.3,6.2,3.7,9.2c1.5,3.1,3.3,6,5,8.9c0,0,0.1,0.1,0.1,0.1
		c-0.6,0.3-1.1,0.6-1.6,1c0-0.1-0.1-0.1-0.1-0.2c-0.2-0.3-0.3-0.5-0.5-0.8c-3.7-6.5-7.9-12.5-13.2-17.9c-4.6-4.7-8.9-9.7-13.3-14.5
		c0.9-0.7,1.7-1.3,2.6-2c0.2,0.5,0.4,0.9,0.7,1.4c1.4,1.7,3.9,1.9,5.5,0.4C941.7,318.9,941.9,316.4,940.5,314.8z M929.4,327.6
		c0.6-1.6,0.1-3.4-1.2-4.4c0.9-0.8,1.8-1.6,2.7-2.3c0,0,0,0.1,0,0.1c3.7,5.5,7.4,11,11.1,16.4c2.8,4,5.2,8.2,8.8,11.6
		c2.1,1.9,4,4.1,6,6.1c-0.5,0.4-0.9,0.9-1.3,1.4c-1-1-2-2-3.1-2.9c-2.5-2.3-4.9-4.8-7.6-6.8c-6.3-4.3-12.8-8.4-19.2-12.5
		c-1.6-1-3.1-2-4.7-3c0.6-0.8,1.2-1.5,1.8-2.3c0.4,0.5,0.9,0.9,1.5,1.1C926.4,330.7,928.6,329.7,929.4,327.6z M909.9,362.4
		c0.1-1.1,0.1-2.2,0.3-3.3c6,1.1,11.9,2.3,17.9,3.3c4.7,0.8,9.5,1.6,14.2,2.1c3.3,0.3,6.7,0.1,10.1,0.1c0,0.6,0,1.3,0,1.9
		c-1.1,0-2.3,0-3.4,0.1c-3.9,0.3-7.9,0.2-11.7,0.9c-7.8,1.5-15.6,3.4-23.3,5.2c-1.2,0.3-2.3,0.6-3.5,0.9c-0.2-1.1-0.3-2.2-0.4-3.4
		c0.4,0.1,0.8,0.1,1.2,0c2.1-0.4,3.5-2.5,3.1-4.6C914,363.4,912,362,909.9,362.4z M910.5,373.8c7.5-0.6,15.1-1.3,22.7-1.7
		c5.2-0.3,10.2-1.3,15.2-2.8c1.4-0.4,2.9-0.8,4.3-1.2c0.1,0.6,0.3,1.2,0.5,1.8c-0.1,0-0.2,0.1-0.3,0.1c-5.3,1.9-10.8,2.9-15.7,5.7
		c-5,2.8-10.2,5.4-15.3,8.1c-2.5,1.3-4.9,2.7-7.3,4.1c-0.5-1.1-0.9-2.3-1.3-3.5c0.8,0,1.7-0.3,2.4-0.9c1.7-1.4,1.9-3.9,0.5-5.6
		c-1.2-1.5-3.4-1.9-5-0.9C910.8,376,910.6,374.9,910.5,373.8z M916.1,391.3c-0.5-1-1-2-1.5-3.1c0.2,0,0.4-0.1,0.5-0.1
		c7.4-2.7,14.7-5.4,22.2-8c3.7-1.3,7.3-2.9,10.6-5c1.9-1.2,4-2.3,6-3.5c0.3,0.6,0.6,1.1,1,1.6c-0.6,0.3-1.2,0.7-1.8,1.1
		c-3.2,2.1-6.8,3.9-9.7,6.4c-7.3,6.4-14.3,13.2-21.4,19.8c-0.7-0.9-1.3-1.8-2-2.7c0.5-0.1,0.9-0.4,1.3-0.7c1.7-1.4,1.9-3.9,0.5-5.6
		c-1.4-1.7-3.8-1.9-5.5-0.6C916.2,391.1,916.1,391.2,916.1,391.3z M924.5,403.5c-0.8-0.9-1.5-1.8-2.2-2.7c0.1-0.1,0.3-0.1,0.4-0.2
		c7.3-5.1,14.6-10.2,21.9-15.3c1.5-1.1,3-2.4,4.4-3.7c2.4-2.3,4.7-4.8,7.1-7.2c0.4,0.5,0.9,0.9,1.3,1.3c-0.7,0.9-1.5,1.7-2.3,2.5
		c-2.4,2.8-5.1,5.4-7.2,8.4c-3.7,5.4-7.1,11.1-10.6,16.7c-1.6,2.5-3.1,5-4.6,7.4c-0.8-0.6-1.6-1.2-2.3-1.9c0.3-0.4,0.6-0.8,0.8-1.3
		c0.8-2-0.2-4.4-2.2-5.2C927.2,402,925.5,402.4,924.5,403.5z M935.6,413.1c-0.9-0.6-1.9-1.3-2.8-1.9l0,0
		c5.9-7.1,11.9-14.1,17.8-21.2c1-1.2,1.9-2.6,2.7-4c1.7-2.9,3.4-5.9,5.1-8.9c0.1-0.1,0.1-0.2,0.2-0.3c0.5,0.3,1,0.6,1.6,0.9
		c0,0.2-0.1,0.3-0.1,0.4c-2.2,4.6-4.8,8.9-6.5,13.6c-2.6,7.1-4.6,14.5-6.9,21.7c-0.5,1.6-1,3.1-1.4,4.7c-1-0.4-1.9-0.8-2.8-1.2
		c0,0,0-0.1,0.1-0.1c0.8-2-0.2-4.3-2.2-5.1C938.5,411,936.6,411.6,935.6,413.1z M949,419.4C949,419.4,949,419.4,949,419.4
		c-1.1-0.3-2.2-0.6-3.2-1.1c2.9-6.3,5.9-12.5,8.8-18.8c2-4.3,4.2-8.4,5.2-13.1c0.6-2.7,1.4-5.4,2.1-8c0,0,0,0,0-0.1
		c0.6,0.2,1.2,0.4,1.8,0.5c0,0,0,0,0,0c-0.1,1.1-0.5,2.2-0.7,3.3c-0.7,3.5-1.9,7-2.1,10.6c-0.6,9.5-0.9,19-1.3,28.5
		c0,0.2,0,0.3,0,0.5c-1-0.1-2-0.3-3-0.4c0.2-1.8-0.7-3.5-2.4-4.2C952,416.4,949.8,417.4,949,419.4z M960,421.8
		c1.2-6.6,2.3-13.2,3.6-19.8c1.2-6.1,2.1-12.2,1.8-18.5c-0.1-1.4,0-2.9,0-4.3c0-0.1,0-0.2,0-0.2c0.6,0,1.2,0,1.9,0
		c0,0.1,0,0.2,0,0.3c0,1.1,0.1,2.3,0.1,3.4c0.2,3.7,0.1,7.5,0.8,11.2c1.7,9,3.8,17.9,5.8,26.9c0.1,0.3,0.1,0.6,0.2,0.8
		c-1,0.2-2,0.3-3.1,0.4c-0.1-1.5-1-2.8-2.5-3.4c-2-0.8-4.3,0.2-5.1,2.2c-0.2,0.4-0.2,0.9-0.3,1.3C962.2,422,961.1,421.9,960,421.8z
		 M977.7,419.7c0,0.4,0.2,0.7,0.3,1.1c-1.1,0.3-2.3,0.5-3.4,0.6c0-0.1,0-0.2,0-0.3c-0.7-9-1.4-17.9-2.2-26.9c-0.2-1.9-0.5-3.8-1-5.7
		c-0.8-3.3-1.7-6.6-2.6-9.9c0.6-0.1,1.2-0.3,1.8-0.5c0.3,0.6,0.4,1.4,0.7,2c1.7,5.1,2.8,10.3,5.4,15.1c4,7.3,7.7,14.8,11.5,22.2
		c-0.9,0.4-1.8,0.8-2.8,1.1c-0.3-2.1-2.3-3.6-4.4-3.3C978.9,415.6,977.4,417.6,977.7,419.7z M991,413.7c0.1,0.7,0.4,1.4,0.8,1.9
		c-1.1,0.6-2.2,1.1-3.3,1.6c-0.1-0.3-0.1-0.6-0.2-0.9c-2.5-7.2-5-14.4-7.6-21.6c-1-2.8-2.1-5.6-3.5-8.3c-1.5-3.1-3.3-6-5-8.9
		c0,0,0-0.1-0.1-0.1c0.6-0.3,1.1-0.6,1.6-1c0,0,0,0,0,0.1c0.4,0.7,0.9,1.4,1.3,2.1c2.5,3.7,4.7,7.7,7.6,11.1
		c5.8,6.9,12,13.4,18,20.1c-0.7,0.6-1.5,1.1-2.2,1.7c-0.7-1.6-2.3-2.5-4.1-2.3C992.3,409.6,990.8,411.6,991,413.7z M1003.1,406.9
		c0.1,0.2,0.3,0.3,0.5,0.5c-0.8,0.7-1.6,1.4-2.5,2.1c-4.7-7-9.4-14-14.2-20.9c-1.4-2-2.9-4-4.5-5.8c-2.3-2.5-4.8-4.9-7.2-7.3
		c0,0-0.1-0.1-0.1-0.1c0.5-0.4,0.9-0.9,1.3-1.4c0,0,0.1,0.1,0.1,0.1c1.2,1.1,2.4,2.3,3.7,3.4c2.3,2.1,4.4,4.4,7,6.2
		c4.9,3.4,10,6.6,15,9.8c2.9,1.9,5.9,3.8,8.8,5.7c-0.6,0.8-1.3,1.7-1.9,2.4c-1.4-1.3-3.5-1.5-5-0.4
		C1002.2,402.7,1001.9,405.1,1003.1,406.9z M1019.2,383.2c-0.3,0.9-0.6,1.7-0.9,2.6c-6.1-3-12.2-6-18.4-8.9c-3.6-1.7-7.2-3.4-11-4.7
		c-3.2-1.1-6.5-1.8-9.8-2.7c-0.1,0-0.2,0-0.2-0.1c0.2-0.6,0.3-1.2,0.4-1.8c0,0,0.1,0,0.1,0c1.1,0.1,2.2,0.5,3.3,0.7
		c3.6,0.8,7.2,1.9,10.8,2.2c7.3,0.6,14.6,0.7,21.9,1.1c2.1,0.1,4.1,0.2,6.2,0.2c-0.1,1.2-0.3,2.4-0.5,3.6c-1.7-0.3-3.5,0.7-4.2,2.4
		c-0.8,2,0.1,4.4,2.1,5.2C1019,383.2,1019.1,383.2,1019.2,383.2z M1011.7,395c0.4,0.5,0.9,0.9,1.4,1.2c-0.6,0.9-1.2,1.8-1.8,2.7
		c-0.1-0.1-0.2-0.2-0.3-0.3c-6.1-5.3-12.3-10.7-18.5-15.9c-2.2-1.9-4.6-3.6-7-5.2c-2.3-1.5-4.7-2.8-7.1-4.2
		c-0.3-0.2-0.5-0.3-0.8-0.5c-0.1,0-0.1-0.1-0.2-0.1c0.3-0.5,0.6-1,0.9-1.6c0.1,0,0.2,0.1,0.3,0.1c4.4,2.2,8.6,4.8,13.1,6.5
		c7.3,2.7,14.8,4.9,22.2,7.3c1.4,0.4,2.8,0.9,4.2,1.3c-0.4,1-0.8,2-1.2,2.9c-1.3-0.8-3-0.7-4.3,0.2
		C1010.8,390.7,1010.4,393.2,1011.7,395z M920.7,331.5c0.1,0.1,0.3,0.3,0.4,0.4c5.8,5,11.6,10,17.3,15c3,2.7,6.1,5.2,9.7,7
		c2.2,1.1,4.2,2.5,6.3,3.7c0,0,0,0,0,0c-0.3,0.5-0.6,1.1-0.9,1.7c0,0,0,0-0.1,0c-1.1-0.6-2.2-1.2-3.3-1.8c-3.1-1.6-6-3.5-9.3-4.6
		c-7.5-2.7-15.2-5-22.7-7.4c-1.5-0.5-3-0.9-4.5-1.4c0.4-0.9,0.7-1.8,1.1-2.6c0.2,0.1,0.4,0.3,0.7,0.3c2,0.8,4.3-0.3,5-2.3
		c0.7-1.9-0.2-4.1-2-4.9C919.3,333.5,920,332.5,920.7,331.5z M910.2,358.5c0.1-1.1,0.3-2.2,0.5-3.3c0.7,0.3,1.5,0.5,2.3,0.3
		c2.1-0.4,3.5-2.5,3.1-4.6c-0.3-1.8-1.9-3.1-3.6-3.2c0.3-1,0.7-2.1,1.1-3.1c0.1,0,0.2,0.1,0.2,0.1c6.2,3,12.3,6,18.5,8.9
		c4,1.9,7.9,4.1,12.4,5.1c2.8,0.6,5.5,1.5,8.3,2.2l0,0c-0.2,0.6-0.4,1.2-0.5,1.9c-1.2-0.3-2.4-0.6-3.5-0.8
		c-3.9-0.8-7.8-1.8-11.7-2.2c-5.8-0.5-11.7-0.6-17.6-0.9C916.5,358.8,913.4,358.7,910.2,358.5z"/>
	<g>
		<path d="M1169.7,185.3C536.2,167.5,497.3,46.8-8.5,118.3v109.8c505.8-71.5,544.7,49.2,1178.2,67
			c633.4,17.8,753.7-182.8,753.7-182.8V2.5C1923.4,2.5,1803.1,203.1,1169.7,185.3z"/>
		<path class="st0" d="M1247.3,298.8c-25.4,0-51.3-0.4-77.7-1.1c-270.4-7.6-435.9-34.5-568.9-56.1c-91.9-14.9-171.3-27.8-264.4-32
			c-101.6-4.5-211,2.2-344.4,21c-0.7,0.1-1.4-0.1-2-0.6c-0.5-0.5-0.9-1.2-0.9-1.9V118.3c0-1.2,0.9-2.3,2.1-2.5
			c133.7-18.9,243.5-25.6,345.3-21.1c93.4,4.1,172.9,17.1,265,32c132.8,21.6,298.1,48.4,568.3,56c26.3,0.7,52.2,1.1,77.5,1.1
			c113.2,0,215.9-7.4,306.4-22c88.5-14.3,165.5-35.6,228.7-63.3C1890,51.5,1921,1.7,1921.3,1.2c0.6-1,1.7-1.4,2.8-1.1
			c1.1,0.3,1.8,1.3,1.8,2.4v109.8c0,0.5-0.1,0.9-0.4,1.3c-1.2,2.1-31.7,51.4-140.5,99.1c-63.6,27.9-141,49.4-230,63.9
			C1464.2,291.3,1361,298.8,1247.3,298.8z M274.3,203.2c21.1,0,41.8,0.5,62.2,1.4c93.4,4.1,172.9,17.1,265,32
			c132.8,21.6,298.1,48.4,568.3,56c144,4,273.2-3,383.9-20.9c88.5-14.3,165.5-35.6,228.7-63.3c101.5-44.4,134.8-91.2,138.5-96.8
			V10.3c-11.9,15.2-48.8,54.4-135.8,92.6c-63.6,27.9-141,49.4-230,63.9c-111.1,18.1-240.8,25.2-385.5,21.1
			c-270.4-7.6-435.9-34.5-568.9-56.1c-91.9-14.9-171.3-27.8-264.4-32c-101-4.5-209.8,2.1-342.3,20.7v104.8
			C99.8,210.4,190.5,203.2,274.3,203.2z"/>
	</g>
</g>
</svg>
