<?xml version="1.0" encoding="utf-8"?>
<!-- Generator: Adobe Illustrator 26.2.1, SVG Export Plug-In . SVG Version: 6.00 Build 0)  -->
<svg version="1.1" id="Capa_1" xmlns="http://www.w3.org/2000/svg" xmlns:xlink="http://www.w3.org/1999/xlink" x="0px" y="0px"
	 viewBox="0 0 1914.9 577.7" style="enable-background:new 0 0 1914.9 577.7;" xml:space="preserve">
<style type="text/css">
	.st0{fill:#22876A;}
	.st1{fill:#D0954E;}
	.st2{fill:#FFFFFF;}
	.st3{fill:#35588A;}
</style>
<g>
	<path class="st0" d="M1785.1,353.7c-63.6,27.9-141,49.4-230,63.9c-111.1,18.1-240.8,25.2-385.5,21.1
		c-270.4-7.6-435.9-34.5-568.9-56.1c-91.9-14.9-171.3-27.8-264.4-32c-99.5-4.4-206.5,1.9-336.3,19.9v137.9
		c103.2-14.2,192.1-21.2,274.3-21.2c21.1,0,41.8,0.5,62.2,1.4c93.4,4.1,172.9,17.1,265,32c132.8,21.6,298.1,48.4,568.3,56
		c144,4,273.2-3,383.9-20.9c88.5-14.3,165.5-35.6,228.7-63.3c81.4-35.6,118.9-72.7,132.5-88.9V268.2
		C1898.5,286.5,1860.7,320.5,1785.1,353.7z"/>
	<path class="st1" d="M1785.1,85.4c-63.6,27.9-141,49.4-230,63.9c-111.1,18.1-240.8,25.2-385.5,21.1
		c-270.4-7.6-435.9-34.5-568.9-56.1c-91.9-14.9-171.3-27.8-264.4-32C236.8,77.9,129.8,84.2,0,102.2V207
		c103.2-14.3,192.1-21.3,274.3-21.3c21.1,0,41.8,0.5,62.2,1.4c93.4,4.1,172.9,17.1,265,32c132.8,21.6,298.1,48.4,568.3,56
		c144,4,273.2-3,383.9-20.9c88.5-14.3,165.5-35.6,228.7-63.3c81.4-35.6,118.9-72.7,132.5-88.9V0
		C1898.5,18.2,1860.7,52.2,1785.1,85.4z"/>
	<path class="st2" d="M1914.9,105.8v-3.9c-13.6,16.2-51.1,53.3-132.5,88.9c-63.2,27.7-140.2,49-228.7,63.3
		C1443,272,1313.8,279,1169.8,275c-270.2-7.6-435.5-34.4-568.3-56c-92.1-14.9-171.6-27.9-265-32c-20.4-0.9-41.1-1.4-62.2-1.4
		c-82.2,0-171.1,6.9-274.3,21.3v163.6c129.8-18,236.8-24.3,336.3-19.9c93.1,4.2,172.5,17.1,264.4,32c133,21.6,298.5,48.5,568.9,56.1
		c144.7,4.1,274.4-3,385.5-21.1c89-14.5,166.4-36,230-63.9c75.6-33.2,113.4-67.2,129.8-85.5L1914.9,105.8L1914.9,105.8z"/>
	<path class="st3" d="M942.5,408.1c32.8,13.1,70-3.3,82.9-36.6s-3.3-71-36.1-84.1s-70,3.3-82.9,36.6S909.7,395,942.5,408.1z
		 M930.4,391.3c0.3-0.4,0.6-0.8,0.8-1.3c0.8-2-0.2-4.4-2.2-5.2c-1.8-0.3-3.5,0.1-4.5,1.2c-0.8-0.9-1.5-1.8-2.2-2.7
		c0.1-0.1,0.3-0.1,0.4-0.2c7.3-5.1,14.6-10.2,21.9-15.3c1.5-1.1,3-2.4,4.4-3.7c2.4-2.3,4.7-4.8,7.1-7.2c0.4,0.5,0.9,0.9,1.3,1.3
		c-0.7,0.9-1.5,1.7-2.3,2.5c-2.4,2.8-5.1,5.4-7.2,8.4c-3.7,5.4-7.1,11.1-10.6,16.7c-1.6,2.5-3.1,5-4.6,7.4
		C931.9,392.6,931.1,392,930.4,391.3z M942.5,399.4c0,0,0-0.1,0.1-0.1c0.8-2-0.2-4.3-2.2-5.1c-1.9-0.7-3.8-0.1-4.8,1.4
		c-0.9-0.6-1.9-1.3-2.8-1.9c5.9-7.1,11.9-14.1,17.8-21.2c1-1.2,1.9-2.6,2.7-4c1.7-2.9,3.4-5.9,5.1-8.9c0.1-0.1,0.1-0.2,0.2-0.3
		c0.5,0.3,1,0.6,1.6,0.9c0,0.2-0.1,0.3-0.1,0.4c-2.2,4.6-4.8,8.9-6.5,13.6c-2.6,7.1-4.6,14.5-6.9,21.7c-0.5,1.6-1,3.1-1.4,4.7
		C944.3,400.2,943.4,399.8,942.5,399.4z M959.6,404.2c-1-0.1-2-0.3-3-0.4c0.2-1.8-0.7-3.5-2.4-4.2c-2.2-0.7-4.4,0.3-5.2,2.3
		c-1.1-0.3-2.2-0.6-3.2-1.1c2.9-6.3,5.9-12.5,8.8-18.8c2-4.3,4.2-8.4,5.2-13.1c0.6-2.7,1.4-5.4,2.1-8c0,0,0,0,0-0.1
		c0.6,0.2,1.2,0.4,1.8,0.5c-0.1,1.1-0.5,2.2-0.7,3.3c-0.7,3.5-1.9,7-2.1,10.6c-0.6,9.5-0.9,19-1.3,28.5L959.6,404.2L959.6,404.2z
		 M971.1,404.5c-0.1-1.5-1-2.8-2.5-3.4c-2-0.8-4.3,0.2-5.1,2.2c-0.2,0.4-0.2,0.9-0.3,1.3c-1-0.1-2.1-0.2-3.2-0.3
		c1.2-6.6,2.3-13.2,3.6-19.8c1.2-6.1,2.1-12.2,1.8-18.5c-0.1-1.4,0-2.9,0-4.3c0-0.1,0-0.2,0-0.2h1.9v0.3c0,1.1,0.1,2.3,0.1,3.4
		c0.2,3.7,0.1,7.5,0.8,11.2c1.7,9,3.8,17.9,5.8,26.9c0.1,0.3,0.1,0.6,0.2,0.8C973.2,404.3,972.2,404.4,971.1,404.5z M985.4,401
		c-0.3-2.1-2.3-3.6-4.4-3.3c-2.1,0.4-3.6,2.4-3.3,4.5c0,0.4,0.2,0.7,0.3,1.1c-1.1,0.3-2.3,0.5-3.4,0.6v-0.3
		c-0.7-9-1.4-17.9-2.2-26.9c-0.2-1.9-0.5-3.8-1-5.7c-0.8-3.3-1.7-6.6-2.6-9.9c0.6-0.1,1.2-0.3,1.8-0.5c0.3,0.6,0.4,1.4,0.7,2
		c1.7,5.1,2.8,10.3,5.4,15.1c4,7.3,7.7,14.8,11.5,22.2C987.3,400.3,986.4,400.7,985.4,401z M998.4,394c-0.7-1.6-2.3-2.5-4.1-2.3
		c-2,0.4-3.5,2.4-3.3,4.5c0.1,0.7,0.4,1.4,0.8,1.9c-1.1,0.6-2.2,1.1-3.3,1.6c-0.1-0.3-0.1-0.6-0.2-0.9c-2.5-7.2-5-14.4-7.6-21.6
		c-1-2.8-2.1-5.6-3.5-8.3c-1.5-3.1-3.3-6-5-8.9c0,0,0-0.1-0.1-0.1c0.6-0.3,1.1-0.6,1.6-1c0,0,0,0,0,0.1c0.4,0.7,0.9,1.4,1.3,2.1
		c2.5,3.7,4.7,7.7,7.6,11.1c5.8,6.9,12,13.4,18,20.1C999.9,392.9,999.1,393.4,998.4,394z M1009.1,384.1c-1.4-1.3-3.5-1.5-5-0.4
		c-1.9,1.5-2.2,3.9-1,5.7c0.1,0.2,0.3,0.3,0.5,0.5c-0.8,0.7-1.6,1.4-2.5,2.1c-4.7-7-9.4-14-14.2-20.9c-1.4-2-2.9-4-4.5-5.8
		c-2.3-2.5-4.8-4.9-7.2-7.3l-0.1-0.1c0.5-0.4,0.9-0.9,1.3-1.4l0.1,0.1c1.2,1.1,2.4,2.3,3.7,3.4c2.3,2.1,4.4,4.4,7,6.2
		c4.9,3.4,10,6.6,15,9.8c2.9,1.9,5.9,3.8,8.8,5.7C1010.4,382.5,1009.7,383.4,1009.1,384.1z M1016.9,371.7c-1.3-0.8-3-0.7-4.3,0.2
		c-1.8,1.3-2.2,3.8-0.9,5.6c0.4,0.5,0.9,0.9,1.4,1.2c-0.6,0.9-1.2,1.8-1.8,2.7c-0.1-0.1-0.2-0.2-0.3-0.3
		c-6.1-5.3-12.3-10.7-18.5-15.9c-2.2-1.9-4.6-3.6-7-5.2c-2.3-1.5-4.7-2.8-7.1-4.2c-0.3-0.2-0.5-0.3-0.8-0.5c-0.1,0-0.1-0.1-0.2-0.1
		c0.3-0.5,0.6-1,0.9-1.6c0.1,0,0.2,0.1,0.3,0.1c4.4,2.2,8.6,4.8,13.1,6.5c7.3,2.7,14.8,4.9,22.2,7.3c1.4,0.4,2.8,0.9,4.2,1.3
		C1017.7,369.8,1017.3,370.8,1016.9,371.7z M1021.1,357.9c-1.7-0.3-3.5,0.7-4.2,2.4c-0.8,2,0.1,4.4,2.1,5.2c0,0.2,0.1,0.2,0.2,0.2
		c-0.3,0.9-0.6,1.7-0.9,2.6c-6.1-3-12.2-6-18.4-8.9c-3.6-1.7-7.2-3.4-11-4.7c-3.2-1.1-6.5-1.8-9.8-2.7c-0.1,0-0.2,0-0.2-0.1
		c0.2-0.6,0.3-1.2,0.4-1.8h0.1c1.1,0.1,2.2,0.5,3.3,0.7c3.6,0.8,7.2,1.9,10.8,2.2c7.3,0.6,14.6,0.7,21.9,1.1
		c2.1,0.1,4.1,0.2,6.2,0.2C1021.5,355.5,1021.3,356.7,1021.1,357.9z M1021.9,343.2c-1.4,0.1-2.8,1-3.3,2.4c-0.8,2,0.1,4.4,2.1,5.2
		c0.3,0.3,0.8,0.4,1.2,0.4c-0.1,0.9-0.1,1.8-0.2,2.7c-6.7-1.2-13.4-2.5-20.1-3.7c-3.8-0.7-7.6-1.3-11.4-1.7
		c-3.5-0.3-7.1-0.1-10.7-0.1v-1.9c0.7-0.2,1.4-0.1,2.1-0.1c4.1-0.2,8.3,0,12.3-0.8c9.2-1.8,18.4-4,27.6-6.1
		C1021.7,340.7,1021.8,342,1021.9,343.2z M1018.7,328.8c-2,0.4-3.5,2.3-3.2,4.3c0.2,2.2,2.2,3.7,4.3,3.5c0.4-0.1,0.7-0.2,1-0.3
		c0.2,0.9,0.4,1.9,0.5,2.9h-0.6c-6.5,0.5-12.9,1.1-19.4,1.5c-5.5,0.4-10.9,0.8-16.1,2.6c-2,0.7-4,1.1-6,1.7c0,0,0,0-0.1,0
		c-0.1-0.6-0.3-1.2-0.5-1.8c0,0,0.1,0,0.1-0.1c0.4-0.3,0.9-0.3,1.4-0.4c4.5-1.6,9.2-2.9,13.6-4.8c5.2-2.3,10.1-5.2,15.1-7.9
		c2.9-1.5,5.7-3.2,8.6-4.7C1017.9,326.4,1018.3,327.6,1018.7,328.8z M1012,315.3c-1.4,0.7-2.4,2.3-2.2,4c0.2,2.2,2.2,3.7,4.3,3.5
		c0.8,0,1.4-0.3,1.9-0.6c0.4,0.9,0.9,1.8,1.3,2.7c-0.3,0.1-0.6,0.1-0.8,0.2c-8.6,3.1-17.1,6.2-25.7,9.3c-0.9,0.3-1.8,0.7-2.6,1.2
		c-3.3,1.9-6.6,3.8-9.9,5.7c-0.1,0.1-0.2,0.1-0.3,0.1c-0.3-0.5-0.6-1.1-0.9-1.6c0.2-0.1,0.4-0.3,0.5-0.4c6.6-3.9,12.8-8.3,18.2-13.7
		c4.6-4.6,9.4-8.9,14.1-13.3C1010.6,313.3,1011.3,314.3,1012,315.3z M1002.6,304.8c-1.2,1.4-1.3,3.4-0.2,4.9
		c1.2,1.8,3.7,2.2,5.5,0.9c-0.1-0.2,0-0.3,0.1-0.4c0.6,0.7,1.1,1.3,1.7,2c0,0-0.1,0-0.1,0.1c-6.6,4.6-13.1,9.2-19.7,13.7
		c-3.1,2.1-6,4.5-8.6,7.3c-1.7,1.8-3.5,3.5-5.2,5.3c0,0,0,0-0.1,0.1c-0.4-0.5-0.9-0.9-1.3-1.3c0,0,0,0,0.1-0.1
		c1.4-1.5,2.9-3.1,4.3-4.6c1.8-2,3.8-3.9,5.2-6.1c4-6,7.7-12.1,11.6-18.2c1.2-2,2.5-4,3.7-6C1000.6,303.2,1001.6,304,1002.6,304.8z
		 M990.5,296.4c-0.6,1.3-0.6,2.8,0.3,4.1c1.3,1.8,3.7,2.2,5.5,0.9c0.2-0.1,0.6-0.5,0.8-0.9c0.7,0.5,1.4,0.9,2,1.4
		c-0.2,0.2-0.4,0.4-0.6,0.6c-3.5,4.2-7,8.3-10.5,12.5c-4,4.9-8.5,9.4-11.3,15.2c-1,2-2.1,3.9-3.3,5.8l-0.1,0.1
		c-0.5-0.3-1-0.6-1.6-0.9c0,0,0-0.1,0.1-0.1c0.6-1.1,1.3-2.3,1.9-3.5c1.8-3.9,3.9-7.8,5.3-11.8c1.9-5.1,3.3-10.4,5-15.7
		c1-3.1,1.9-6.2,2.9-9.3C988.1,295.3,989.3,295.8,990.5,296.4z M972.5,291.1c0.9,0.1,1.9,0.3,2.8,0.4c-0.1,0.5-0.1,1.1,0,1.6
		c0.4,2.1,2.5,3.5,4.6,3.1c1.6-0.1,2.7-1.3,3.1-2.7c1.1,0.4,2.2,0.7,3.3,1.2c0,0.1-0.1,0.1-0.1,0.2c-3.1,6.5-6.2,13-9.2,19.6
		c-1.7,3.9-3.2,7.9-4.6,11.9c-0.9,2.7-1.4,5.5-2.2,8.2c-0.6-0.2-1.2-0.4-1.8-0.5c0.3-1.2,0.6-2.4,0.8-3.7c0.7-3.7,1.8-7.3,2.1-11
		c0.6-8.8,0.9-17.7,1.2-26.5L972.5,291.1L972.5,291.1z M960.9,290.9c0,0.2,0,0.5,0.1,0.7c0.4,2.1,2.5,3.5,4.6,3.1
		c1.9-0.2,3.1-1.9,3.1-3.8c1.2,0.1,2.4,0.2,3.6,0.3c-1.3,6-2.5,12-3.5,18c-0.8,4.9-1.6,9.7-2,14.6c-0.3,3.3-0.1,6.7-0.1,10.1h-1.8
		c-0.2-1.2-0.1-2.5-0.2-3.8c-0.2-3.5,0-7.1-0.6-10.5c-1.8-9.1-3.9-18.2-5.9-27.2c-0.1-0.4-0.2-0.7-0.3-1.1
		C958.9,291.2,959.9,291,960.9,290.9z M946.9,294.2c0.1,0.8,0.4,1.5,0.9,2.1c1.4,1.7,3.9,1.9,5.5,0.4c1.5-1.1,1.8-3.1,1.1-4.6
		c1.1-0.2,2.2-0.4,3.3-0.6c-0.2,0.3-0.2,0.6-0.2,0.9c0.5,6.7,1.1,13.3,1.6,20c0.4,5.5,0.9,11,2.6,16.4c0.6,1.8,1,3.7,1.5,5.5
		c-0.6,0.1-1.2,0.3-1.8,0.5c-0.2-0.4-0.2-0.9-0.4-1.3c-1.6-4.7-3-9.6-4.9-14.1c-2.1-4.9-4.7-9.5-7.2-14.2c-1.7-3.3-3.4-6.5-5.2-9.7
		C944.8,295,945.8,294.6,946.9,294.2z M933.6,301c0.2,0.5,0.4,0.9,0.7,1.4c1.4,1.7,3.9,1.9,5.5,0.4c1.9-1.4,2.1-3.9,0.7-5.5
		c-0.1-0.1-0.1-0.1-0.2-0.2c1-0.5,2.1-1,3.1-1.5c0.1,0.3,0.1,0.6,0.2,0.8c2.4,6.9,4.8,13.9,7.3,20.8c1.1,3.1,2.3,6.2,3.7,9.2
		c1.5,3.1,3.3,6,5,8.9l0.1,0.1c-0.6,0.3-1.1,0.6-1.6,1c0-0.1-0.1-0.1-0.1-0.2c-0.2-0.3-0.3-0.5-0.5-0.8c-3.7-6.5-7.9-12.5-13.2-17.9
		c-4.6-4.7-8.9-9.7-13.3-14.5C931.9,302.3,932.7,301.7,933.6,301z M922.7,311.5c0.4,0.5,0.9,0.9,1.5,1.1c2.2,0.6,4.4-0.4,5.2-2.5
		c0.6-1.6,0.1-3.4-1.2-4.4c0.9-0.8,1.8-1.6,2.7-2.3v0.1c3.7,5.5,7.4,11,11.1,16.4c2.8,4,5.2,8.2,8.8,11.6c2.1,1.9,4,4.1,6,6.1
		c-0.5,0.4-0.9,0.9-1.3,1.4c-1-1-2-2-3.1-2.9c-2.5-2.3-4.9-4.8-7.6-6.8c-6.3-4.3-12.8-8.4-19.2-12.5c-1.6-1-3.1-2-4.7-3
		C921.5,313,922.1,312.3,922.7,311.5z M914.7,324c0.2,0.1,0.4,0.3,0.7,0.3c2,0.8,4.3-0.3,5-2.3c0.7-1.9-0.2-4.1-2-4.9
		c0.9-1.1,1.6-2.1,2.3-3.1c0.1,0.1,0.3,0.3,0.4,0.4c5.8,5,11.6,10,17.3,15c3,2.7,6.1,5.2,9.7,7c2.2,1.1,4.2,2.5,6.3,3.7
		c-0.3,0.5-0.6,1.1-0.9,1.7c0,0,0,0-0.1,0c-1.1-0.6-2.2-1.2-3.3-1.8c-3.1-1.6-6-3.5-9.3-4.6c-7.5-2.7-15.2-5-22.7-7.4
		c-1.5-0.5-3-0.9-4.5-1.4C914,325.7,914.3,324.8,914.7,324z M910.7,337.7c0.7,0.3,1.5,0.5,2.3,0.3c2.1-0.4,3.5-2.5,3.1-4.6
		c-0.3-1.8-1.9-3.1-3.6-3.2c0.3-1,0.7-2.1,1.1-3.1c0.1,0,0.2,0.1,0.2,0.1c6.2,3,12.3,6,18.5,8.9c4,1.9,7.9,4.1,12.4,5.1
		c2.8,0.6,5.5,1.5,8.3,2.2c-0.2,0.6-0.4,1.2-0.5,1.9c-1.2-0.3-2.4-0.6-3.5-0.8c-3.9-0.8-7.8-1.8-11.7-2.2
		c-5.8-0.5-11.7-0.6-17.6-0.9c-3.2-0.1-6.3-0.2-9.5-0.4C910.3,339.9,910.5,338.8,910.7,337.7z M914.4,348.1
		c-0.4-2.2-2.4-3.6-4.5-3.2c0.1-1.1,0.1-2.2,0.3-3.3c6,1.1,11.9,2.3,17.9,3.3c4.7,0.8,9.5,1.6,14.2,2.1c3.3,0.3,6.7,0.1,10.1,0.1
		v1.9c-1.1,0-2.3,0-3.4,0.1c-3.9,0.3-7.9,0.2-11.7,0.9c-7.8,1.5-15.6,3.4-23.3,5.2c-1.2,0.3-2.3,0.6-3.5,0.9
		c-0.2-1.1-0.3-2.2-0.4-3.4c0.4,0.1,0.8,0.1,1.2,0C913.4,352.3,914.8,350.2,914.4,348.1z M916.2,360.4c-1.2-1.5-3.4-1.9-5-0.9
		c-0.4-1-0.6-2.1-0.7-3.2c7.5-0.6,15.1-1.3,22.7-1.7c5.2-0.3,10.2-1.3,15.2-2.8c1.4-0.4,2.9-0.8,4.3-1.2c0.1,0.6,0.3,1.2,0.5,1.8
		c-0.1,0-0.2,0.1-0.3,0.1c-5.3,1.9-10.8,2.9-15.7,5.7c-5,2.8-10.2,5.4-15.3,8.1c-2.5,1.3-4.9,2.7-7.3,4.1c-0.5-1.1-0.9-2.3-1.3-3.5
		c0.8,0,1.7-0.3,2.4-0.9C917.4,364.6,917.6,362.1,916.2,360.4z M921.8,374c-1.4-1.7-3.8-1.9-5.5-0.6c-0.1,0.2-0.2,0.3-0.2,0.4
		c-0.5-1-1-2-1.5-3.1c0.2,0,0.4-0.1,0.5-0.1c7.4-2.7,14.7-5.4,22.2-8c3.7-1.3,7.3-2.9,10.6-5c1.9-1.2,4-2.3,6-3.5
		c0.3,0.6,0.6,1.1,1,1.6c-0.6,0.3-1.2,0.7-1.8,1.1c-3.2,2.1-6.8,3.9-9.7,6.4c-7.3,6.4-14.3,13.2-21.4,19.8c-0.7-0.9-1.3-1.8-2-2.7
		c0.5-0.1,0.9-0.4,1.3-0.7C923,378.2,923.2,375.7,921.8,374z"/>
</g>
</svg>
