<?xml version="1.0" encoding="utf-8"?>
<!-- Generator: Adobe Illustrator 25.4.1, SVG Export Plug-In . SVG Version: 6.00 Build 0)  -->
<svg version="1.1" id="Capa_1" xmlns="http://www.w3.org/2000/svg" xmlns:xlink="http://www.w3.org/1999/xlink" x="0px" y="0px"
	 viewBox="0 0 497.6 553.4" style="enable-background:new 0 0 497.6 553.4;" xml:space="preserve">
<style type="text/css">
	.st0{fill-rule:evenodd;clip-rule:evenodd;fill:#BCBEC0;}
</style>
<path class="st0" d="M310.3,333.9c-3.6,16-27.6,28.2-35.5,47.4c-9.2-1.3-9.8,6-16.6,7.1c1.8,2.1,2.5,5.3,2.4,9.5
	c-11.5,7.2-23.7-0.4-26.1,16.6c-4.2,0.3-5-2.9-9.5-2.4c-4.2,2.1-3.9,8.7-9.5,9.5c7.2,12.6-0.2,27.6,7.1,35.5
	c-6.9,24.4-13.9,26.8-9.5,56.8c-15.2-2.2-20.6,11.4-16.6,21.3c-8.2-1.9-10,4.4-14.2,0c-2.7,2.8-2.7,8.4-2.4,14.2
	c-48.2,22.5-33.3-55.6-63.9-71c-6.2-48.6-39.2-77.4-33.1-125.5c-4.7,3.4-8.8-22.1,0-28.4c-9.1-14.5-1.5-23.5-7.1-35.5
	c-1,21.9-11.8,34-37.9,30.8c-7.8-11.9-16.8-22.7-26-33.2c4.8-6.4,28.1,0.3,30.8-14.2c-11.5,12.1-44.8,2.3-33.2-16.6
	c-3.5-0.1-10.6,9.7-9.5,0c3.2-7.1,10,1.1,11.8-9.5c13.3,0.6,23,8.5,33.2-2.4c2.8,0.4,2,4.3,2.4,7.1c1.9-0.5,2.4-2.4,4.7-2.4
	c1.9-6.7-2-28-14.2-28.4c-1.7-7.2,2.4-8.6,2.4-14.2c-1.7-2.5-7.1-0.3-11.8-4.7c1.4-15.2,10.8-22.3,23.7-26v7.1
	c3.1-3.3,10.3-2.3,16.6-2.4c7.3-14.8,25.6-18.6,28.4-37.9c13-3.6,23.6-22.1,21.3-33.2c2.5-5.4,7.2-8.6,14.2-9.5
	c-7.2-8.6-16.7-14.9-28.4-18.9c4-12.8-6.5-33.4,9.5-37.9c-5-8.4-10.3-16.5-23.7-16.6c5.3-27.8,28.2-20.1,45-26
	c11.4,12.8,27.3,23.8,35.5,33.2c15.3-4.5,34.2-14.8,47.4-2.4c1.7,8.8-4,10.2-2.4,18.9c-12.8-1.7-6,16.1-21.3,11.8
	c-2.3,4.4,7.1,7.9,0,9.5c0.6,4.2,4.1,5.4,9.5,4.7c-1.7,7.2,2.4,8.6,2.4,14.2c-5.8-1.8-13.7,11.3-14.2,0c-12.1,5.4,4,11.9,0,23.7
	c10.9,1.8,24.4,14.9,37.9,21.3c-4.3,9.9-15.8,12.6-14.2,28.4c10.1,7.3,26.9,16.2,45,21.3c0.4,0.1-0.3,4.3,0,4.7
	c10.6,1.2,17.7-1.2,26-2.4c14.3,18.5,32.6,17.4,61.6,18.9c-1.9-11-0.9-22.7-2.4-28.4c2.2-4.1,7.4-5.2,14.2-4.7
	c-3.5,39.4,29.9,19.5,52.1,18.9c3.1-11-5.3-10.5-9.5-14.2c-0.4-7.6,11.3-0.6,16.6-7.1c1-10.7,23.8-16.3,28.4-30.8
	c12.3,9.8,16.5-2.2,28.4-4.7c-3,11,11.2,5.3,4.7,18.9c10.4,1.2,7.8,0.7,16.6,2.4c2.7,10-14.7,13.5-2.4,18.9
	c-32.9-1.1-35.4,42-40.3,71c-4.2,4.4-6-1.9-14.2,0c-2.1,19.7-1.8,27.2-4.7,45c-2.1-1.5-4.2-2.9-4.7,0c-4.8-11.8-5.7-27.4-11.8-37.9
	c-4.8,2.3-5.1,9.1-4.7,16.6c-9.4-2.8-11.9-5.5-11.8-21.3c7.3-4.5,14.7-9,16.6-18.9c-11.5-5-26,1.6-40.3-2.4c-2.4-5.8-0.8-5-2.4-14.2
	c-4.1-3-17.3-2-21.3-7.1c-2.6,0.6-1.6,4.7-4.7,4.7c-0.4,11.5,13.8,8.3,14.2,18.9c-10.5-3.4-6.2,8-14.2,7.1
	c-1.1,7.4,5.1,7.6,11.8,7.1c-6.2,19.7,9.7,27,7.1,49.7c-16.8,0.3-22.9,5.8-35.5,14.2c8.7,17.4-6.7,22.9-18.9,30.8
	C311,339.5,310.6,336.8,310.3,333.9L310.3,333.9z"/>
</svg>
