<?xml version="1.0" encoding="utf-8"?>
<!-- Generator: Adobe Illustrator 26.2.1, SVG Export Plug-In . SVG Version: 6.00 Build 0)  -->
<svg version="1.1" id="Capa_1" xmlns="http://www.w3.org/2000/svg" xmlns:xlink="http://www.w3.org/1999/xlink" x="0px" y="0px"
	 viewBox="0 0 1914.9 600.2" style="enable-background:new 0 0 1914.9 600.2;" xml:space="preserve">
<style type="text/css">
	.st0{fill:#22876A;}
	.st1{fill:#D0954E;}
	.st2{fill:#FFFFFF;}
	.st3{fill:#35588A;}
</style>
<g>
	<path class="st0" d="M1785.1,371.2c-63.6,27.9-141,49.4-230,63.9c-111.1,18.1-240.8,25.2-385.5,21.1
		c-270.4-7.6-435.9-34.5-568.9-56.1c-91.9-14.9-171.3-27.8-264.4-32C236.8,363.7,129.8,370,0,388v137.9
		c103.2-14.2,192.1-21.2,274.3-21.2c21.1,0,41.8,0.5,62.2,1.4c93.4,4.1,172.9,17.1,265,32c132.8,21.6,298.1,48.4,568.3,56
		c144,4,273.2-3,383.9-20.9c88.5-14.3,165.5-35.6,228.7-63.3c81.4-35.6,118.9-72.7,132.5-88.9V285.7
		C1898.5,304,1860.7,338,1785.1,371.2z"/>
	<path class="st1" d="M1785.1,102.9c-63.6,27.9-141,49.4-230,63.9c-111.1,18.1-240.8,25.2-385.5,21.1
		c-270.4-7.6-435.9-34.5-568.9-56.1c-91.9-14.9-171.3-27.8-264.4-32c-99.5-4.4-206.5,1.9-336.3,19.9v104.8
		c103.2-14.3,192.1-21.3,274.3-21.3c21.1,0,41.8,0.5,62.2,1.4c93.4,4.1,172.9,17.1,265,32c132.8,21.6,298.1,48.4,568.3,56
		c144,4,273.2-3,383.9-20.9c88.5-14.3,165.5-35.6,228.7-63.3c81.4-35.6,118.9-72.7,132.5-88.9v-102
		C1898.5,35.7,1860.7,69.7,1785.1,102.9z"/>
	<path class="st2" d="M1914.9,123.3v-3.9c-13.6,16.2-51.1,53.3-132.5,88.9c-63.2,27.7-140.2,49-228.7,63.3
		c-110.7,17.9-239.9,24.9-383.9,20.9c-270.2-7.6-435.5-34.4-568.3-56c-92.1-14.9-171.6-27.9-265-32c-20.4-0.9-41.1-1.4-62.2-1.4
		c-82.2,0-171.1,6.9-274.3,21.3V388c129.8-18,236.8-24.3,336.3-19.9c93.1,4.2,172.5,17.1,264.4,32c133,21.6,298.5,48.5,568.9,56.1
		c144.7,4.1,274.4-3,385.5-21.1c89-14.5,166.4-36,230-63.9c75.6-33.2,113.4-67.2,129.8-85.5V123.3L1914.9,123.3z M906.4,341.5
		c12.9-33.3,50.1-49.7,82.9-36.6c32.8,13.1,49,50.8,36.1,84.1s-50.1,49.7-82.9,36.6C909.7,412.5,893.5,374.8,906.4,341.5z"/>
	<path class="st3" d="M942.5,425.6c32.8,13.1,70-3.3,82.9-36.6s-3.3-71-36.1-84.1c-32.8-13.1-70,3.3-82.9,36.6
		C893.5,374.8,909.7,412.5,942.5,425.6z M930.4,408.8c0.3-0.4,0.6-0.8,0.8-1.3c0.8-2-0.2-4.4-2.2-5.2c-1.8-0.3-3.5,0.1-4.5,1.2
		c-0.8-0.9-1.5-1.8-2.2-2.7c0.1-0.1,0.3-0.1,0.4-0.2c7.3-5.1,14.6-10.2,21.9-15.3c1.5-1.1,3-2.4,4.4-3.7c2.4-2.3,4.7-4.8,7.1-7.2
		c0.4,0.5,0.9,0.9,1.3,1.3c-0.7,0.9-1.5,1.7-2.3,2.5c-2.4,2.8-5.1,5.4-7.2,8.4c-3.7,5.4-7.1,11.1-10.6,16.7c-1.6,2.5-3.1,5-4.6,7.4
		C931.9,410.1,931.1,409.5,930.4,408.8z M942.5,416.9c0,0,0-0.1,0.1-0.1c0.8-2-0.2-4.3-2.2-5.1c-1.9-0.7-3.8-0.1-4.8,1.4
		c-0.9-0.6-1.9-1.3-2.8-1.9c5.9-7.1,11.9-14.1,17.8-21.2c1-1.2,1.9-2.6,2.7-4c1.7-2.9,3.4-5.9,5.1-8.9c0.1-0.1,0.1-0.2,0.2-0.3
		c0.5,0.3,1,0.6,1.6,0.9c0,0.2-0.1,0.3-0.1,0.4c-2.2,4.6-4.8,8.9-6.5,13.6c-2.6,7.1-4.6,14.5-6.9,21.7c-0.5,1.6-1,3.1-1.4,4.7
		C944.3,417.7,943.4,417.3,942.5,416.9z M959.6,421.7c-1-0.1-2-0.3-3-0.4c0.2-1.8-0.7-3.5-2.4-4.2c-2.2-0.7-4.4,0.3-5.2,2.3
		c-1.1-0.3-2.2-0.6-3.2-1.1c2.9-6.3,5.9-12.5,8.8-18.8c2-4.3,4.2-8.4,5.2-13.1c0.6-2.7,1.4-5.4,2.1-8c0,0,0,0,0-0.1
		c0.6,0.2,1.2,0.4,1.8,0.5c-0.1,1.1-0.5,2.2-0.7,3.3c-0.7,3.5-1.9,7-2.1,10.6c-0.6,9.5-0.9,19-1.3,28.5V421.7z M971.1,422
		c-0.1-1.5-1-2.8-2.5-3.4c-2-0.8-4.3,0.2-5.1,2.2c-0.2,0.4-0.2,0.9-0.3,1.3c-1-0.1-2.1-0.2-3.2-0.3c1.2-6.6,2.3-13.2,3.6-19.8
		c1.2-6.1,2.1-12.2,1.8-18.5c-0.1-1.4,0-2.9,0-4.3c0-0.1,0-0.2,0-0.2h1.9v0.3c0,1.1,0.1,2.3,0.1,3.4c0.2,3.7,0.1,7.5,0.8,11.2
		c1.7,9,3.8,17.9,5.8,26.9c0.1,0.3,0.1,0.6,0.2,0.8C973.2,421.8,972.2,421.9,971.1,422z M985.4,418.5c-0.3-2.1-2.3-3.6-4.4-3.3
		c-2.1,0.4-3.6,2.4-3.3,4.5c0,0.4,0.2,0.7,0.3,1.1c-1.1,0.3-2.3,0.5-3.4,0.6v-0.3c-0.7-9-1.4-17.9-2.2-26.9c-0.2-1.9-0.5-3.8-1-5.7
		c-0.8-3.3-1.7-6.6-2.6-9.9c0.6-0.1,1.2-0.3,1.8-0.5c0.3,0.6,0.4,1.4,0.7,2c1.7,5.1,2.8,10.3,5.4,15.1c4,7.3,7.7,14.8,11.5,22.2
		C987.3,417.8,986.4,418.2,985.4,418.5z M998.4,411.5c-0.7-1.6-2.3-2.5-4.1-2.3c-2,0.4-3.5,2.4-3.3,4.5c0.1,0.7,0.4,1.4,0.8,1.9
		c-1.1,0.6-2.2,1.1-3.3,1.6c-0.1-0.3-0.1-0.6-0.2-0.9c-2.5-7.2-5-14.4-7.6-21.6c-1-2.8-2.1-5.6-3.5-8.3c-1.5-3.1-3.3-6-5-8.9
		c0,0,0-0.1-0.1-0.1c0.6-0.3,1.1-0.6,1.6-1c0,0,0,0,0,0.1c0.4,0.7,0.9,1.4,1.3,2.1c2.5,3.7,4.7,7.7,7.6,11.1
		c5.8,6.9,12,13.4,18,20.1C999.9,410.4,999.1,410.9,998.4,411.5z M1009.1,401.6c-1.4-1.3-3.5-1.5-5-0.4c-1.9,1.5-2.2,3.9-1,5.7
		c0.1,0.2,0.3,0.3,0.5,0.5c-0.8,0.7-1.6,1.4-2.5,2.1c-4.7-7-9.4-14-14.2-20.9c-1.4-2-2.9-4-4.5-5.8c-2.3-2.5-4.8-4.9-7.2-7.3
		l-0.1-0.1c0.5-0.4,0.9-0.9,1.3-1.4l0.1,0.1c1.2,1.1,2.4,2.3,3.7,3.4c2.3,2.1,4.4,4.4,7,6.2c4.9,3.4,10,6.6,15,9.8
		c2.9,1.9,5.9,3.8,8.8,5.7C1010.4,400,1009.7,400.9,1009.1,401.6z M1016.9,389.2c-1.3-0.8-3-0.7-4.3,0.2c-1.8,1.3-2.2,3.8-0.9,5.6
		c0.4,0.5,0.9,0.9,1.4,1.2c-0.6,0.9-1.2,1.8-1.8,2.7c-0.1-0.1-0.2-0.2-0.3-0.3c-6.1-5.3-12.3-10.7-18.5-15.9c-2.2-1.9-4.6-3.6-7-5.2
		c-2.3-1.5-4.7-2.8-7.1-4.2c-0.3-0.2-0.5-0.3-0.8-0.5c-0.1,0-0.1-0.1-0.2-0.1c0.3-0.5,0.6-1,0.9-1.6c0.1,0,0.2,0.1,0.3,0.1
		c4.4,2.2,8.6,4.8,13.1,6.5c7.3,2.7,14.8,4.9,22.2,7.3c1.4,0.4,2.8,0.9,4.2,1.3C1017.7,387.3,1017.3,388.3,1016.9,389.2z
		 M1021.1,375.4c-1.7-0.3-3.5,0.7-4.2,2.4c-0.8,2,0.1,4.4,2.1,5.2c0,0.2,0.1,0.2,0.2,0.2c-0.3,0.9-0.6,1.7-0.9,2.6
		c-6.1-3-12.2-6-18.4-8.9c-3.6-1.7-7.2-3.4-11-4.7c-3.2-1.1-6.5-1.8-9.8-2.7c-0.1,0-0.2,0-0.2-0.1c0.2-0.6,0.3-1.2,0.4-1.8h0.1
		c1.1,0.1,2.2,0.5,3.3,0.7c3.6,0.8,7.2,1.9,10.8,2.2c7.3,0.6,14.6,0.7,21.9,1.1c2.1,0.1,4.1,0.2,6.2,0.2
		C1021.5,373,1021.3,374.2,1021.1,375.4z M1021.9,360.7c-1.4,0.1-2.8,1-3.3,2.4c-0.8,2,0.1,4.4,2.1,5.2c0.3,0.3,0.8,0.4,1.2,0.4
		c-0.1,0.9-0.1,1.8-0.2,2.7c-6.7-1.2-13.4-2.5-20.1-3.7c-3.8-0.7-7.6-1.3-11.4-1.7c-3.5-0.3-7.1-0.1-10.7-0.1V364
		c0.7-0.2,1.4-0.1,2.1-0.1c4.1-0.2,8.3,0,12.3-0.8c9.2-1.8,18.4-4,27.6-6.1C1021.7,358.2,1021.8,359.5,1021.9,360.7z M1018.7,346.3
		c-2,0.4-3.5,2.3-3.2,4.3c0.2,2.2,2.2,3.7,4.3,3.5c0.4-0.1,0.7-0.2,1-0.3c0.2,0.9,0.4,1.9,0.5,2.9h-0.6c-6.5,0.5-12.9,1.1-19.4,1.5
		c-5.5,0.4-10.9,0.8-16.1,2.6c-2,0.7-4,1.1-6,1.7c0,0,0,0-0.1,0c-0.1-0.6-0.3-1.2-0.5-1.8c0,0,0.1,0,0.1-0.1
		c0.4-0.3,0.9-0.3,1.4-0.4c4.5-1.6,9.2-2.9,13.6-4.8c5.2-2.3,10.1-5.2,15.1-7.9c2.9-1.5,5.7-3.2,8.6-4.7
		C1017.9,343.9,1018.3,345.1,1018.7,346.3z M1012,332.8c-1.4,0.7-2.4,2.3-2.2,4c0.2,2.2,2.2,3.7,4.3,3.5c0.8,0,1.4-0.3,1.9-0.6
		c0.4,0.9,0.9,1.8,1.3,2.7c-0.3,0.1-0.6,0.1-0.8,0.2c-8.6,3.1-17.1,6.2-25.7,9.3c-0.9,0.3-1.8,0.7-2.6,1.2c-3.3,1.9-6.6,3.8-9.9,5.7
		c-0.1,0.1-0.2,0.1-0.3,0.1c-0.3-0.5-0.6-1.1-0.9-1.6c0.2-0.1,0.4-0.3,0.5-0.4c6.6-3.9,12.8-8.3,18.2-13.7
		c4.6-4.6,9.4-8.9,14.1-13.3C1010.6,330.8,1011.3,331.8,1012,332.8z M1002.6,322.3c-1.2,1.4-1.3,3.4-0.2,4.9
		c1.2,1.8,3.7,2.2,5.5,0.9c-0.1-0.2,0-0.3,0.1-0.4c0.6,0.7,1.1,1.3,1.7,2c0,0-0.1,0-0.1,0.1c-6.6,4.6-13.1,9.2-19.7,13.7
		c-3.1,2.1-6,4.5-8.6,7.3c-1.7,1.8-3.5,3.5-5.2,5.3c0,0,0,0-0.1,0.1c-0.4-0.5-0.9-0.9-1.3-1.3c0,0,0,0,0.1-0.1
		c1.4-1.5,2.9-3.1,4.3-4.6c1.8-2,3.8-3.9,5.2-6.1c4-6,7.7-12.1,11.6-18.2c1.2-2,2.5-4,3.7-6C1000.6,320.7,1001.6,321.5,1002.6,322.3
		z M990.5,313.9c-0.6,1.3-0.6,2.8,0.3,4.1c1.3,1.8,3.7,2.2,5.5,0.9c0.2-0.1,0.6-0.5,0.8-0.9c0.7,0.5,1.4,0.9,2,1.4
		c-0.2,0.2-0.4,0.4-0.6,0.6c-3.5,4.2-7,8.3-10.5,12.5c-4,4.9-8.5,9.4-11.3,15.2c-1,2-2.1,3.9-3.3,5.8l-0.1,0.1
		c-0.5-0.3-1-0.6-1.6-0.9c0,0,0-0.1,0.1-0.1c0.6-1.1,1.3-2.3,1.9-3.5c1.8-3.9,3.9-7.8,5.3-11.8c1.9-5.1,3.3-10.4,5-15.7
		c1-3.1,1.9-6.2,2.9-9.3C988.1,312.8,989.3,313.3,990.5,313.9z M972.5,308.6c0.9,0.1,1.9,0.3,2.8,0.4c-0.1,0.5-0.1,1.1,0,1.6
		c0.4,2.1,2.5,3.5,4.6,3.1c1.6-0.1,2.7-1.3,3.1-2.7c1.1,0.4,2.2,0.7,3.3,1.2c0,0.1-0.1,0.1-0.1,0.2c-3.1,6.5-6.2,13-9.2,19.6
		c-1.7,3.9-3.2,7.9-4.6,11.9c-0.9,2.7-1.4,5.5-2.2,8.2c-0.6-0.2-1.2-0.4-1.8-0.5c0.3-1.2,0.6-2.4,0.8-3.7c0.7-3.7,1.8-7.3,2.1-11
		c0.6-8.8,0.9-17.7,1.2-26.5V308.6z M960.9,308.4c0,0.2,0,0.5,0.1,0.7c0.4,2.1,2.5,3.5,4.6,3.1c1.9-0.2,3.1-1.9,3.1-3.8
		c1.2,0.1,2.4,0.2,3.6,0.3c-1.3,6-2.5,12-3.5,18c-0.8,4.9-1.6,9.7-2,14.6c-0.3,3.3-0.1,6.7-0.1,10.1h-1.8c-0.2-1.2-0.1-2.5-0.2-3.8
		c-0.2-3.5,0-7.1-0.6-10.5c-1.8-9.1-3.9-18.2-5.9-27.2c-0.1-0.4-0.2-0.7-0.3-1.1C958.9,308.7,959.9,308.5,960.9,308.4z M946.9,311.7
		c0.1,0.8,0.4,1.5,0.9,2.1c1.4,1.7,3.9,1.9,5.5,0.4c1.5-1.1,1.8-3.1,1.1-4.6c1.1-0.2,2.2-0.4,3.3-0.6c-0.2,0.3-0.2,0.6-0.2,0.9
		c0.5,6.7,1.1,13.3,1.6,20c0.4,5.5,0.9,11,2.6,16.4c0.6,1.8,1,3.7,1.5,5.5c-0.6,0.1-1.2,0.3-1.8,0.5c-0.2-0.4-0.2-0.9-0.4-1.3
		c-1.6-4.7-3-9.6-4.9-14.1c-2.1-4.9-4.7-9.5-7.2-14.2c-1.7-3.3-3.4-6.5-5.2-9.7C944.8,312.5,945.8,312.1,946.9,311.7z M933.6,318.5
		c0.2,0.5,0.4,0.9,0.7,1.4c1.4,1.7,3.9,1.9,5.5,0.4c1.9-1.4,2.1-3.9,0.7-5.5c-0.1-0.1-0.1-0.1-0.2-0.2c1-0.5,2.1-1,3.1-1.5
		c0.1,0.3,0.1,0.6,0.2,0.8c2.4,6.9,4.8,13.9,7.3,20.8c1.1,3.1,2.3,6.2,3.7,9.2c1.5,3.1,3.3,6,5,8.9l0.1,0.1c-0.6,0.3-1.1,0.6-1.6,1
		c0-0.1-0.1-0.1-0.1-0.2c-0.2-0.3-0.3-0.5-0.5-0.8c-3.7-6.5-7.9-12.5-13.2-17.9c-4.6-4.7-8.9-9.7-13.3-14.5
		C931.9,319.8,932.7,319.2,933.6,318.5z M922.7,329c0.4,0.5,0.9,0.9,1.5,1.1c2.2,0.6,4.4-0.4,5.2-2.5c0.6-1.6,0.1-3.4-1.2-4.4
		c0.9-0.8,1.8-1.6,2.7-2.3v0.1c3.7,5.5,7.4,11,11.1,16.4c2.8,4,5.2,8.2,8.8,11.6c2.1,1.9,4,4.1,6,6.1c-0.5,0.4-0.9,0.9-1.3,1.4
		c-1-1-2-2-3.1-2.9c-2.5-2.3-4.9-4.8-7.6-6.8c-6.3-4.3-12.8-8.4-19.2-12.5c-1.6-1-3.1-2-4.7-3C921.5,330.5,922.1,329.8,922.7,329z
		 M914.7,341.5c0.2,0.1,0.4,0.3,0.7,0.3c2,0.8,4.3-0.3,5-2.3c0.7-1.9-0.2-4.1-2-4.9c0.9-1.1,1.6-2.1,2.3-3.1
		c0.1,0.1,0.3,0.3,0.4,0.4c5.8,5,11.6,10,17.3,15c3,2.7,6.1,5.2,9.7,7c2.2,1.1,4.2,2.5,6.3,3.7c-0.3,0.5-0.6,1.1-0.9,1.7
		c0,0,0,0-0.1,0c-1.1-0.6-2.2-1.2-3.3-1.8c-3.1-1.6-6-3.5-9.3-4.6c-7.5-2.7-15.2-5-22.7-7.4c-1.5-0.5-3-0.9-4.5-1.4
		C914,343.2,914.3,342.3,914.7,341.5z M910.7,355.2c0.7,0.3,1.5,0.5,2.3,0.3c2.1-0.4,3.5-2.5,3.1-4.6c-0.3-1.8-1.9-3.1-3.6-3.2
		c0.3-1,0.7-2.1,1.1-3.1c0.1,0,0.2,0.1,0.2,0.1c6.2,3,12.3,6,18.5,8.9c4,1.9,7.9,4.1,12.4,5.1c2.8,0.6,5.5,1.5,8.3,2.2
		c-0.2,0.6-0.4,1.2-0.5,1.9c-1.2-0.3-2.4-0.6-3.5-0.8c-3.9-0.8-7.8-1.8-11.7-2.2c-5.8-0.5-11.7-0.6-17.6-0.9
		c-3.2-0.1-6.3-0.2-9.5-0.4C910.3,357.4,910.5,356.3,910.7,355.2z M914.4,365.6c-0.4-2.2-2.4-3.6-4.5-3.2c0.1-1.1,0.1-2.2,0.3-3.3
		c6,1.1,11.9,2.3,17.9,3.3c4.7,0.8,9.5,1.6,14.2,2.1c3.3,0.3,6.7,0.1,10.1,0.1v1.9c-1.1,0-2.3,0-3.4,0.1c-3.9,0.3-7.9,0.2-11.7,0.9
		c-7.8,1.5-15.6,3.4-23.3,5.2c-1.2,0.3-2.3,0.6-3.5,0.9c-0.2-1.1-0.3-2.2-0.4-3.4c0.4,0.1,0.8,0.1,1.2,0
		C913.4,369.8,914.8,367.7,914.4,365.6z M916.2,377.9c-1.2-1.5-3.4-1.9-5-0.9c-0.4-1-0.6-2.1-0.7-3.2c7.5-0.6,15.1-1.3,22.7-1.7
		c5.2-0.3,10.2-1.3,15.2-2.8c1.4-0.4,2.9-0.8,4.3-1.2c0.1,0.6,0.3,1.2,0.5,1.8c-0.1,0-0.2,0.1-0.3,0.1c-5.3,1.9-10.8,2.9-15.7,5.7
		c-5,2.8-10.2,5.4-15.3,8.1c-2.5,1.3-4.9,2.7-7.3,4.1c-0.5-1.1-0.9-2.3-1.3-3.5c0.8,0,1.7-0.3,2.4-0.9
		C917.4,382.1,917.6,379.6,916.2,377.9z M921.8,391.5c-1.4-1.7-3.8-1.9-5.5-0.6c-0.1,0.2-0.2,0.3-0.2,0.4c-0.5-1-1-2-1.5-3.1
		c0.2,0,0.4-0.1,0.5-0.1c7.4-2.7,14.7-5.4,22.2-8c3.7-1.3,7.3-2.9,10.6-5c1.9-1.2,4-2.3,6-3.5c0.3,0.6,0.6,1.1,1,1.6
		c-0.6,0.3-1.2,0.7-1.8,1.1c-3.2,2.1-6.8,3.9-9.7,6.4c-7.3,6.4-14.3,13.2-21.4,19.8c-0.7-0.9-1.3-1.8-2-2.7c0.5-0.1,0.9-0.4,1.3-0.7
		C923,395.7,923.2,393.2,921.8,391.5z"/>
</g>
</svg>
