<?xml version="1.0" encoding="utf-8"?>
<!-- Generator: Adobe Illustrator 25.4.1, SVG Export Plug-In . SVG Version: 6.00 Build 0)  -->
<svg version="1.1" id="Capa_1" xmlns="http://www.w3.org/2000/svg" xmlns:xlink="http://www.w3.org/1999/xlink" x="0px" y="0px"
	 viewBox="0 0 435.6 566.5" style="enable-background:new 0 0 435.6 566.5;" xml:space="preserve">
<style type="text/css">
	.st0{fill:none;}
	.st1{fill:#BCBEC0;}
</style>
<g>
	<path class="st0" d="M78,428.9l0.7,0.6c1.1,0.9,1.6,2.2,1.6,3.5c1.3-0.3,2.6,0,3.7,0.9l0.8,0.6c1.1,0.9,1.6,2.2,1.7,3.4
		c1-0.2,2.1-0.1,3,0.4l-0.4-0.4c-0.9-1.1-1.2-2.5-0.9-3.9c-1.3,0-2.6-0.6-3.5-1.8l-0.6-0.8c-0.9-1.2-1.1-2.6-0.7-3.9
		c-1.3-0.1-2.6-0.7-3.4-1.9l-0.6-0.8c-0.8-1.2-1-2.6-0.6-3.9c-1.3-0.1-2.6-0.8-3.4-2l-0.6-0.9c-0.8-1.2-0.9-2.6-0.5-3.9
		c-1.3-0.2-2.6-0.9-3.3-2.1l-0.5-0.9c-0.7-1.2-0.8-2.7-0.4-3.9c-1.3-0.2-2.5-1-3.2-2.2l-0.5-0.9c-0.7-1.2-0.8-2.7-0.3-3.9
		c-1.3-0.2-2.5-1-3.2-2.3l-0.5-0.9c-0.7-1.3-0.7-2.7-0.2-3.9c-1.3-0.2-2.5-1.1-3.1-2.3l-0.5-0.9c-0.7-1.3-0.7-2.7-0.1-3.9
		c-1.3-0.3-2.5-1.1-3.1-2.4l-0.5-0.9c-0.6-1.3-0.6-2.7-0.1-3.9c-1.3-0.3-2.4-1.1-3.1-2.4l-0.4-0.9c-0.6-1.3-0.6-2.7,0-3.9
		c-1.3-0.3-2.4-1.2-3-2.4l-0.4-0.9c-0.6-1.3-0.6-2.7,0-3.9c-1.3-0.3-2.4-1.2-3-2.4l-0.4-0.9c-0.6-1.3-0.6-2.7,0-3.9
		c-1.3-0.3-2.4-1.2-3-2.4L41,354c-0.6-1.3-0.6-2.7,0-3.9c-0.6-0.1-1.1-0.4-1.5-0.7c-0.1,0.8-0.4,1.5-0.9,2.1c1.2,0.6,2.1,1.7,2.4,3
		l0.2,0.9c0.3,1.4,0,2.7-0.8,3.8c1.2,0.5,2.1,1.6,2.5,2.9l0.3,1c0.4,1.3,0.1,2.7-0.7,3.8c1.2,0.5,2.2,1.5,2.5,2.9l0.3,0.9
		c0.4,1.3,0.1,2.7-0.6,3.8c1.2,0.5,2.2,1.5,2.6,2.8l0.3,0.9c0.4,1.3,0.2,2.7-0.5,3.8c1.2,0.4,2.2,1.4,2.7,2.7l0.3,0.9
		c0.5,1.3,0.3,2.7-0.4,3.8c1.2,0.4,2.3,1.3,2.8,2.6l0.4,0.9c0.5,1.3,0.4,2.7-0.3,3.8c1.2,0.4,2.3,1.3,2.8,2.6l0.4,0.9
		c0.5,1.3,0.4,2.7-0.2,3.8c1.2,0.3,2.3,1.2,2.9,2.5l0.4,0.9c0.6,1.3,0.5,2.7-0.1,3.8c1.2,0.3,2.4,1.1,3,2.4l0.4,0.9
		c0.4,0.8,0.5,1.7,0.4,2.5c1.2-0.1,2.5,0.2,3.5,1.2l0.7,0.7c1,1,1.5,2.3,1.4,3.6c1.3-0.2,2.6,0.2,3.7,1.1l0.7,0.7
		c1,0.9,1.6,2.2,1.5,3.5C75.5,427.7,76.9,428,78,428.9z"/>
	<path class="st0" d="M36.9,343.8c0.1,0.1,0.2,0.1,0.3,0.2c0.1-0.4,0.2-0.7,0.3-1c0,0,0,0,0,0C37.4,343.3,37.2,343.6,36.9,343.8z"/>
	<path class="st0" d="M70,432.2c0,0.1,0,0.2-0.1,0.2c0.2,0,0.5,0.1,0.7,0.2c0-0.2,0-0.3,0-0.5C70.4,432.2,70.2,432.2,70,432.2z"/>
	<path class="st0" d="M368.6,139.1c-0.1,0-0.1,0-0.2,0c0,0,0,0.1,0.1,0.1l0,0.1C368.6,139.2,368.6,139.2,368.6,139.1z"/>
	<path class="st0" d="M321,484.5l-0.9,0.5c-1.3,0.7-2.7,0.7-3.9,0.1c-0.3,1.3-1.2,2.5-2.5,3.1l-0.9,0.4c-1.3,0.6-2.8,0.5-4-0.1
		c-0.3,1.3-1.3,2.4-2.6,3l-0.9,0.4c-1.3,0.6-2.8,0.4-4-0.2c-0.4,1.3-1.4,2.4-2.7,2.9l-1,0.4c-1.4,0.5-2.8,0.3-3.9-0.4
		c-0.5,1.3-1.5,2.3-2.8,2.7l-1,0.3c-1.4,0.4-2.8,0.2-3.9-0.6c-0.5,1.2-1.6,2.2-3,2.6l-1,0.3c-1.4,0.4-2.8,0-3.9-0.8
		c-0.6,1.2-1.7,2.2-3.1,2.5l-1,0.2c-1.4,0.3-2.8-0.1-3.8-1c-0.6,1.2-1.8,2.1-3.2,2.3l-1,0.2c-1.4,0.2-2.8-0.2-3.8-1.1
		c-0.7,1.1-1.9,2-3.3,2.2l-1,0.1c-0.2,0-0.3,0-0.5,0c-1.3,0-2.5-0.6-3.3-1.5c-0.8,1.5-2.4,2.5-4.2,2.5c-1.4,0-2.6-0.6-3.5-1.5
		c-0.1-0.1-0.2-0.2-0.3-0.3c-0.8,1.1-2.1,1.8-3.5,1.8l-1,0c0,0-0.1,0-0.1,0c-1.4,0-2.7-0.6-3.5-1.7c-0.8,1-2.1,1.7-3.5,1.7
		c0,0,0,0-0.1,0l-1,0c-1.4,0-2.7-0.7-3.5-1.8c-0.9,1-2.2,1.6-3.6,1.5l-1-0.1c-1.4-0.1-2.7-0.9-3.4-2c-0.9,1-2.3,1.5-3.7,1.4l-1-0.1
		c-1.4-0.2-2.6-1-3.3-2.1c-1,0.9-2.3,1.4-3.8,1.2l-1-0.1c-1.4-0.2-2.6-1.1-3.2-2.2c-1,0.9-2.4,1.3-3.8,1l-1-0.2
		c-1.4-0.3-2.5-1.2-3.2-2.4c-1,0.8-2.4,1.2-3.8,0.9l-1-0.2c-1.4-0.3-2.5-1.3-3.1-2.5c-1.1,0.8-2.5,1.1-3.9,0.7l-1-0.3
		c-1.4-0.4-2.4-1.4-3-2.6c-1.1,0.8-2.5,1-3.9,0.6l-1-0.3c-1.4-0.4-2.4-1.5-2.9-2.7c-1.1,0.7-2.6,0.9-3.9,0.5l-1-0.3
		c-1.4-0.5-2.3-1.5-2.8-2.8c-1.1,0.7-2.6,0.9-3.9,0.3l-1-0.4c-1.3-0.5-2.3-1.6-2.7-2.9c-1.2,0.6-2.6,0.8-3.9,0.2l-0.9-0.4
		c-1.3-0.6-2.2-1.7-2.6-3c-1.2,0.6-2.6,0.7-3.9,0.1l-0.9-0.4c-1.3-0.6-2.2-1.7-2.5-3c-1.2,0.6-2.6,0.6-3.9,0l-0.9-0.4
		c-1.3-0.6-2.1-1.8-2.4-3.1c-1.2,0.5-2.7,0.5-3.9-0.1l-0.9-0.5c-1.3-0.7-2.1-1.9-2.3-3.2c-1.2,0.5-2.7,0.5-3.9-0.3l-0.9-0.5
		c-1.2-0.7-2-1.9-2.2-3.2c-1.2,0.5-2.7,0.4-3.9-0.4L118,469c-1.2-0.7-2-2-2.1-3.3c-1.3,0.4-2.7,0.3-3.9-0.5l-0.9-0.5
		c-1.2-0.8-1.9-2-2-3.3c-1.3,0.4-2.7,0.2-3.9-0.5l-0.8-0.6c-1.2-0.8-1.9-2.1-2-3.4c-1.3,0.4-2.7,0.2-3.9-0.6l-0.8-0.6
		c-1.2-0.8-1.8-2.1-1.9-3.4c-1.3,0.3-2.7,0.1-3.8-0.7l-0.8-0.6c-1.1-0.9-1.8-2.1-1.8-3.5c-1.3,0.3-2.7,0.1-3.8-0.8l-0.8-0.6
		c-1.1-0.9-1.7-2.2-1.7-3.5c-1.3,0.3-2.7,0-3.8-0.9l-0.8-0.6c-1.1-0.9-1.7-2.2-1.7-3.6c-0.8,0.2-1.7,0.1-2.5-0.2
		c0.1,0.7,0,1.4-0.2,2c1.3,0.2,2.5,0.8,3.2,2l0.5,0.8c0.8,1.2,0.9,2.5,0.5,3.8c1.3,0.1,2.5,0.8,3.3,1.9l0.6,0.8
		c0.8,1.1,1,2.5,0.7,3.8c1.3,0.1,2.5,0.7,3.4,1.8l0.6,0.8c0.8,1.1,1.1,2.5,0.8,3.7c1.3,0,2.6,0.6,3.4,1.7l0.6,0.8
		c0.9,1.1,1.2,2.4,0.9,3.7c1.3,0,2.6,0.5,3.5,1.5l0.6,0.7c0.9,1,1.3,2.4,1.1,3.7c1.3-0.1,2.6,0.4,3.5,1.4l0.7,0.7
		c1,1,1.3,2.3,1.2,3.6c1.3-0.1,2.6,0.3,3.6,1.3l0.7,0.7c1,1,1.4,2.3,1.3,3.6c1.3-0.2,2.6,0.2,3.6,1.1l0.7,0.7c1,0.9,1.5,2.2,1.5,3.5
		c1.3-0.2,2.6,0.1,3.7,1l0.8,0.6c1.1,0.9,1.6,2.2,1.6,3.4c1.3-0.3,2.6,0,3.7,0.8l0.8,0.6c1.1,0.8,1.7,2.1,1.8,3.4
		c1.2-0.3,2.6-0.1,3.7,0.7l0.8,0.6c1.1,0.8,1.8,2,1.9,3.3c1.2-0.4,2.6-0.2,3.8,0.5l0.8,0.5c1.2,0.7,1.9,1.9,2.1,3.2
		c1.2-0.4,2.6-0.4,3.8,0.3l0.8,0.5c1.2,0.7,2,1.8,2.2,3.1c1.2-0.5,2.6-0.5,3.8,0.1l0.9,0.4c1.2,0.6,2,1.7,2.3,3
		c1.2-0.5,2.5-0.6,3.8,0l0.9,0.4c1.3,0.6,2.1,1.6,2.5,2.9c1.1-0.6,2.5-0.7,3.8-0.2l0.9,0.4c1.3,0.5,2.2,1.5,2.6,2.7
		c1.1-0.7,2.4-0.8,3.7-0.4l0.9,0.3c1.3,0.4,2.3,1.4,2.8,2.6c1.1-0.7,2.4-1,3.7-0.6l0.9,0.3c1.3,0.4,2.4,1.3,2.9,2.4
		c1-0.8,2.4-1.1,3.7-0.8l0.9,0.2c1.3,0.3,2.4,1.1,3,2.3c1-0.8,2.3-1.2,3.7-1l0.9,0.2c1.4,0.2,2.5,1,3.2,2.1c0.9-0.9,2.2-1.4,3.6-1.2
		l1,0.1c1.4,0.1,2.5,0.9,3.2,1.9c0.8-0.9,2-1.4,3.3-1.4c0.1,0,0.2,0,0.3,0l1,0c1.4,0.1,2.6,0.7,3.4,1.7c0.8-1,2.1-1.6,3.4-1.6l1,0h0
		c1.4,0,2.6,0.6,3.4,1.6c0.8-1,2-1.7,3.3-1.8l1-0.1c1.4-0.1,2.6,0.5,3.5,1.4c0.7-1,1.9-1.8,3.2-1.9l1-0.1c1.4-0.2,2.7,0.3,3.6,1.2
		c0.7-1.1,1.8-1.9,3.1-2.1l1-0.2c1.4-0.2,2.7,0.2,3.7,1c0.6-1.1,1.7-2,3-2.3l1-0.2c1.3-0.3,2.7,0,3.7,0.8c0.5-1.2,1.6-2.1,2.9-2.4
		l0.9-0.3c1.3-0.4,2.7-0.1,3.7,0.6c0.5-1.2,1.4-2.2,2.7-2.6l0.9-0.3c1.3-0.4,2.7-0.3,3.8,0.4c0.4-1.2,1.3-2.2,2.6-2.7l0.9-0.4
		c1.3-0.5,2.7-0.4,3.8,0.2c0.3-1.2,1.2-2.3,2.5-2.9l0.9-0.4c1.3-0.6,2.6-0.5,3.8,0c0.3-1.3,1.1-2.4,2.3-3l0.9-0.4
		c1.2-0.6,2.6-0.7,3.8-0.2c0.2-1.3,1-2.4,2.2-3.1l0.8-0.5c1.2-0.7,2.6-0.8,3.8-0.4c0.2-1.3,0.9-2.5,2-3.2l0.8-0.5
		c1.2-0.8,2.5-0.9,3.8-0.5c0.1-1.3,0.8-2.5,1.9-3.3l0.8-0.6c1.1-0.8,2.5-1,3.7-0.7c0.1-1.3,0.7-2.5,1.7-3.4l0.8-0.6
		c1.1-0.9,2.4-1.1,3.7-0.9c0-1.3,0.5-2.5,1.6-3.4l0.8-0.6c1.1-0.9,2.4-1.2,3.7-1c-0.1-1.3,0.4-2.6,1.5-3.5l0.7-0.7
		c0.4-0.4,0.9-0.6,1.3-0.8c-0.6,0-1.3-0.1-1.9-0.3C323.1,482.6,322.3,483.8,321,484.5z"/>
	<path class="st0" d="M54.3,253.1c0-2.1,0-4.2,0-6.3c-5.4-12.5-10.3-25-13.1-38c-0.4,0.6-1,1-1.6,1.3c0.8,1,1.1,2.4,0.8,3.7l-0.2,1
		c-0.3,1.4-1.2,2.4-2.3,3c0.8,1,1.2,2.4,0.9,3.7l-0.2,1c-0.3,1.4-1.1,2.5-2.3,3.1c0.8,1,1.3,2.3,1,3.7l-0.2,1
		c-0.2,1.4-1.1,2.5-2.2,3.1c0.3,0.3,0.5,0.7,0.7,1.1C42.4,236.7,48.6,244.5,54.3,253.1z"/>
	<path class="st0" d="M91.7,440.2c0.6,0.8,1,1.7,1,2.7c0.3-0.1,0.5-0.1,0.8-0.1c-0.3-0.8-0.3-1.6-0.2-2.3
		C92.8,440.5,92.2,440.4,91.7,440.2z"/>
	<path class="st0" d="M401.9,306.9c0.1-1.4,0.8-2.6,1.9-3.3c-0.4-0.4-0.8-0.9-1-1.4c-5.7,7.3-11.2,14.9-13.7,22.3
		c-4.7,14.4-19.8,30.2-25.5,17.3c-0.4-2.6-1.7-6.6-5.2-5.7c-7.1,66.6-49.6,144.5-140.3,144.6v0c0,0-0.1,0-0.1,0c0,0-0.1,0-0.1,0v0
		C127,480.4,84.5,402.6,77.3,336c-3.6-0.9-4.9,3.2-5.2,5.7c-5.8,12.9-20.8-2.9-25.5-17.3c-2.5-7.3-7.9-14.7-13.4-21.9
		c-0.2,0.8-0.7,1.5-1.3,2.1c1.1,0.7,1.8,2,1.9,3.3l0.1,1c0.1,1.4-0.4,2.7-1.4,3.6c1.1,0.7,1.8,1.9,2,3.3l0.1,1
		c0.1,1.3-0.3,2.5-1.1,3.5c0.5,0.4,0.9,0.8,1.2,1.3l0.4,0.7c0.5,1,0.7,2,0.5,3c0,0.3-0.1,0.6-0.1,0.9c1.3,0.3,2.4,1.1,3,2.3l0.5,0.9
		c0.7,1.3,0.7,2.7,0.1,3.9c1.3,0.3,2.5,1.1,3.1,2.4l0.4,0.9c0.6,1.3,0.6,2.7,0.1,3.9c1.3,0.3,2.4,1.1,3.1,2.4l0.4,0.9
		c0.6,1.3,0.6,2.7,0,3.9c1.3,0.3,2.4,1.2,3,2.4l0.4,0.9c0.6,1.3,0.6,2.7,0,3.9c1.3,0.3,2.4,1.2,3,2.4l0.4,0.9c0.6,1.3,0.6,2.7,0,3.9
		c1.3,0.3,2.4,1.2,3,2.4l0.4,0.9c0.6,1.3,0.6,2.7,0,3.9c1.3,0.3,2.4,1.1,3,2.4l0.4,0.9c0.6,1.3,0.6,2.7,0,3.9c1.3,0.3,2.4,1.1,3,2.4
		l0.4,0.9c0.6,1.3,0.6,2.7,0.1,3.9c1.3,0.3,2.4,1.1,3.1,2.3l0.5,0.9c0.7,1.2,0.7,2.6,0.2,3.8c1.3,0.2,2.4,1,3.1,2.3l0.5,0.9
		c0.7,1.2,0.7,2.6,0.2,3.8c1.3,0.2,2.5,1,3.2,2.2l0.5,0.9c0.7,1.2,0.8,2.6,0.3,3.8c1.3,0.2,2.5,0.9,3.2,2.1l0.5,0.8
		c0.7,1.2,0.8,2.6,0.4,3.8c1.3,0.2,2.5,0.9,3.3,2l0.5,0.8c0.8,1.2,0.9,2.5,0.5,3.8c1.3,0.1,2.5,0.8,3.3,1.9l0.6,0.8
		c0.8,1.1,1,2.5,0.6,3.8c1.3,0.1,2.5,0.7,3.4,1.8L92,427c0.8,1.1,1.1,2.5,0.8,3.7c1.3,0,2.5,0.6,3.4,1.7l0.6,0.8
		c0.9,1.1,1.2,2.4,0.9,3.7c1.3,0,2.6,0.5,3.5,1.5l0.6,0.7c0.9,1,1.3,2.4,1.1,3.6c1.3-0.1,2.6,0.4,3.5,1.4l0.7,0.7
		c1,1,1.4,2.3,1.2,3.6c1.3-0.1,2.6,0.3,3.6,1.2l0.7,0.7c1,1,1.5,2.3,1.4,3.5c1.3-0.2,2.6,0.2,3.6,1.1l0.7,0.6c1,0.9,1.6,2.2,1.5,3.5
		c1.3-0.2,2.6,0,3.7,0.9l0.8,0.6c1.1,0.9,1.7,2.1,1.7,3.4c1.2-0.3,2.6-0.1,3.7,0.7l0.8,0.6c1.1,0.8,1.8,2,1.8,3.3
		c0,0.1,0.1,0.2,0.1,0.3c1.2-0.5,2.6-0.5,3.8,0.2l0.9,0.5c1.2,0.7,2,1.8,2.3,3.1c1.2-0.5,2.6-0.5,3.8,0.1l0.9,0.4
		c1.3,0.6,2.1,1.7,2.4,3c1.2-0.6,2.6-0.6,3.8,0l0.9,0.4c1.3,0.6,2.1,1.7,2.5,2.9c1.2-0.6,2.5-0.7,3.8-0.1l0.9,0.4
		c1.3,0.5,2.2,1.6,2.6,2.8c1.1-0.6,2.5-0.8,3.8-0.3l0.9,0.4c1.3,0.5,2.2,1.5,2.7,2.8c1.1-0.7,2.5-0.8,3.8-0.4l0.9,0.3
		c1.3,0.5,2.3,1.5,2.7,2.7c1.1-0.7,2.5-0.9,3.8-0.5l0.9,0.3c1.3,0.4,2.3,1.4,2.8,2.6c1.1-0.7,2.4-1,3.8-0.6l1,0.3
		c1.3,0.4,2.4,1.3,2.9,2.5c1-0.8,2.4-1.1,3.7-0.8l0.9,0.2c1.4,0.3,2.4,1.2,3,2.3c1-0.8,2.3-1.2,3.7-0.9l1,0.2
		c1.4,0.3,2.5,1.1,3.1,2.2c1-0.8,2.3-1.3,3.6-1.1l1,0.1c1.4,0.2,2.5,1,3.2,2.1c0.9-0.9,2.2-1.4,3.6-1.2l1,0.1c1.4,0.1,2.5,0.9,3.3,2
		c0.9-0.9,2.1-1.5,3.5-1.4l1,0.1c1.4,0.1,2.6,0.8,3.3,1.8c0.8-1,2.1-1.6,3.5-1.5l1,0c1.4,0,2.6,0.7,3.4,1.7c0.8-1,2-1.6,3.4-1.7l1,0
		c1.4,0,2.6,0.5,3.5,1.5c0.2-0.2,0.3-0.4,0.5-0.6c0.9-1,2.1-1.6,3.6-1.6c1.5,0,2.8,0.7,3.7,1.8c0.7-1.1,1.9-2,3.3-2.1l0.9-0.1
		c1.4-0.2,2.7,0.3,3.6,1.2c0.7-1.1,1.8-1.9,3.1-2.1l0.9-0.2c1.4-0.2,2.7,0.2,3.7,1c0.6-1.1,1.7-2,3-2.3l0.9-0.2
		c1.4-0.3,2.7,0,3.7,0.8c0.5-1.2,1.6-2.1,2.9-2.4l0.9-0.2c1.3-0.4,2.7-0.1,3.7,0.6c0.5-1.2,1.5-2.1,2.8-2.6l0.9-0.3
		c1.3-0.4,2.7-0.2,3.8,0.5c0.4-1.2,1.4-2.2,2.7-2.7l0.9-0.3c1.3-0.5,2.7-0.3,3.8,0.3c0.4-1.2,1.3-2.3,2.6-2.8l0.9-0.4
		c1.3-0.5,2.6-0.4,3.8,0.1c0.3-1.2,1.2-2.3,2.4-2.9l0.9-0.4c1.2-0.6,2.6-0.6,3.8,0c0.3-1.3,1.1-2.4,2.3-3l0.8-0.4
		c1.2-0.7,2.6-0.7,3.8-0.2c0.2-1.3,1-2.4,2.2-3.1l0.8-0.5c1.2-0.7,2.6-0.8,3.8-0.4c0.2-1.3,0.9-2.5,2-3.2l0.8-0.5
		c1.2-0.7,2.5-0.9,3.8-0.5c0.1-1.3,0.8-2.5,1.9-3.3l0.8-0.5c1.1-0.8,2.5-1,3.8-0.7c0.1-1.3,0.7-2.5,1.8-3.4l0.8-0.6
		c0.8-0.6,1.8-0.9,2.7-0.9c0.3-0.3,0.7-0.5,1.1-0.6c0.2-1,0.7-2,1.6-2.7l0.2-0.2c0.1-0.4,0.3-0.9,0.6-1.2l0.6-0.8
		c0.8-1.1,2.1-1.7,3.4-1.8c-0.3-1.2-0.1-2.6,0.7-3.8l0.6-0.8c0.8-1.1,2-1.8,3.3-1.9c-0.4-1.2-0.2-2.6,0.5-3.8l0.5-0.8
		c0.8-1.2,2-1.9,3.2-2c-0.4-1.2-0.3-2.6,0.4-3.8l0.5-0.8c0.7-1.2,1.9-1.9,3.2-2.1c-0.5-1.2-0.4-2.6,0.3-3.8l0.5-0.9
		c0.7-1.2,1.8-2,3.1-2.2c-0.5-1.2-0.5-2.6,0.2-3.8l0.5-0.9c0.6-1.2,1.8-2.1,3-2.3c-0.5-1.2-0.6-2.6,0-3.8l0.4-0.9
		c0.6-1.3,1.7-2.1,3-2.4c-0.6-1.2-0.6-2.6-0.1-3.8l0.4-0.9c0.6-1.3,1.7-2.2,2.9-2.5c-0.6-1.1-0.7-2.5-0.2-3.8l0.4-0.9
		c0.5-1.3,1.6-2.2,2.8-2.6c-0.6-1.1-0.8-2.5-0.3-3.8l0.4-0.9c0.5-1.3,1.5-2.2,2.7-2.7c-0.7-1.1-0.9-2.5-0.4-3.8l0.3-0.9
		c0.5-1.3,1.5-2.3,2.7-2.7c-0.7-1.1-0.9-2.5-0.5-3.8l0.3-0.9c0.4-1.3,1.4-2.3,2.6-2.8c-0.7-1.1-1-2.4-0.6-3.8l0.3-0.9
		c0.4-1.3,1.3-2.4,2.5-2.9c-0.8-1.1-1.1-2.4-0.7-3.8l0.2-0.9c0.3-1.4,1.3-2.4,2.4-3c-0.8-1-1.1-2.4-0.8-3.8l0.2-0.9
		c0.3-1.4,1.2-2.4,2.4-3c-0.8-1-1.2-2.4-0.9-3.7l0.2-1c0.3-1.4,1.1-2.5,2.3-3.1c-0.8-1-1.2-2.3-1-3.7l0.2-1c0.2-1.4,1.1-2.5,2.2-3.1
		c-0.9-1-1.3-2.3-1.1-3.7l0.1-1c0.2-1.4,1-2.5,2.1-3.2c-0.9-0.9-1.4-2.3-1.2-3.7l0.1-1c0.2-1.4,1-2.5,2-3.2
		c-0.9-0.9-1.4-2.2-1.3-3.6l0.1-1c0.1-1.4,0.9-2.6,2-3.3c-0.9-0.9-1.5-2.2-1.4-3.6L401.9,306.9z"/>
	<path class="st0" d="M326.8,481.3c0.2,0,0.5,0,0.7,0c0-0.1,0-0.3,0-0.4l-0.2,0.1C327.1,481.1,326.9,481.2,326.8,481.3z"/>
	<path class="st1" d="M142.4,268c0-3.4,1.8-6.4,4.6-8c-7.1,1.5-13.5,6.1-17.4,9.5c-0.1,0.1-0.2,0.2-0.4,0.3c-0.5,0.4-1,0.9-1.4,1.2
		c3.5,1.6,11.1,4.8,19.1,4.9C144.2,274.3,142.4,271.3,142.4,268z"/>
	<path class="st1" d="M279.8,260.3c-7.2,2.3-13.2,9-16.3,13.1c1.6-0.3,3.1-0.4,4.7-0.4c2.8,0,5.8,0.4,9.9,1.2
		c-1.5-1.6-2.4-3.8-2.4-6.2C275.7,264.8,277.3,262,279.8,260.3z"/>
	<path class="st1" d="M307,269.4c-3.9-3.3-10.3-7.9-17.4-9.4c2.7,1.6,4.6,4.6,4.6,8c0,3.4-1.8,6.3-4.5,7.9c8-0.1,15.6-3.3,19.1-4.9
		c-0.4-0.4-0.9-0.8-1.4-1.2C307.3,269.7,307.2,269.6,307,269.4z"/>
	<path class="st1" d="M160.9,268c0,2.4-0.9,4.6-2.4,6.2c6.5-1.2,10.4-1.5,14.7-0.7c-3.1-4.1-9.1-10.8-16.3-13.1
		C159.3,262,160.9,264.8,160.9,268z"/>
	<path class="st1" d="M250.4,402.9l-26.6,3.1c-1.9,0.2-3.9,0.3-5.9,0.3c-1.9,0-3.9-0.1-5.8-0.3l-24.5-2.8c-0.7,0-1.4,0.1-2.1,0.2
		c-1.3,0.1-2.4,1-2.9,2.1s-0.3,2.5,0.5,3.5c6.5,8.1,18.2,12.3,34.6,12.3c15.3,0,26.2-3.4,32.4-10c1-1,1.9-1.9,2.6-3.4
		c0.5-1,0.5-2.2-0.1-3.2C252.3,403.8,251.4,403.1,250.4,402.9z"/>
	<path class="st1" d="M231.2,391.7c-4.5-1-10,1.6-12.2,2.8c-0.7,0.4-1.6,0.4-2.4,0c-1.7-0.9-7.5-3.8-12.2-2.8
		c-1.9,0.4-4.7,1.2-7.9,2c-5.6,1.5-10.6,2.8-14.7,3.7c1.2,0.2,2.5,0.4,3.8,0.6l27,3.1c3.5,0.4,7,0.4,10.5,0l26.8-3.1
		c1.3-0.1,2.5-0.3,3.8-0.6c-4.1-0.9-9.1-2.2-14.7-3.7C235.9,392.8,233.1,392.1,231.2,391.7z"/>
	<path d="M266.6,395.8c-0.5-2.4-3.1-2.3-3.9-2.2c-3.7,0.1-14.9-2.8-22.3-4.8c-3.3-0.9-6.1-1.6-8.1-2c-5.3-1.2-11,0.9-14.5,2.6
		c-3.5-1.7-9.2-3.8-14.5-2.6c-2,0.4-4.8,1.2-8.1,2c-7.4,2-18.6,4.9-22.3,4.8c-0.9,0-3.5-0.1-3.9,2.2c-0.5,2.5,2.2,3.5,4.7,4.4
		c1.7,0.6,3.5,1.2,5.3,1.6c-0.4,0.5-0.7,1.1-1,1.7c-1.2,2.9-0.7,6.2,1.2,8.6c7.5,9.4,20.5,14.2,38.5,14.2c16.8,0,28.9-3.9,36-11.5
		c1.1-1.1,2.4-2.4,3.5-4.6c1.3-2.5,1.2-5.4-0.1-7.9c-0.1-0.2-0.2-0.3-0.3-0.5c1.7-0.4,3.4-0.9,5-1.5
		C264.4,399.3,267.1,398.4,266.6,395.8z M252.8,407.9c-0.8,1.5-1.6,2.3-2.6,3.4c-6.2,6.6-17.1,10-32.4,10
		c-16.5,0-28.1-4.1-34.6-12.3c-0.8-1-1-2.4-0.5-3.5s1.6-2,2.9-2.1c0.7-0.1,1.4-0.1,2.1-0.2l24.5,2.8c1.9,0.2,3.9,0.3,5.8,0.3
		c2,0,3.9-0.1,5.9-0.3l26.6-3.1c1,0.2,1.9,0.8,2.4,1.7C253.3,405.7,253.4,406.9,252.8,407.9z M250,397.9l-26.8,3.1
		c-3.5,0.4-7,0.4-10.5,0l-27-3.1c-1.3-0.1-2.5-0.3-3.8-0.6c4.1-0.9,9.1-2.2,14.7-3.7c3.2-0.8,6-1.6,7.9-2c4.7-1,10.5,1.8,12.2,2.8
		c0.7,0.4,1.6,0.4,2.4,0c2.2-1.2,7.7-3.8,12.2-2.8c1.9,0.4,4.7,1.2,7.9,2c5.6,1.5,10.6,2.8,14.7,3.7
		C252.6,397.6,251.3,397.8,250,397.9z"/>
	<path d="M67.2,277.5c0.2-21.4,15.3-40,32.8-52.4c17.5-12.4,37.7-20.3,55.6-32c12.9-8.5,24.6-19,34.3-31c8.8-10.7,16-22.6,25.1-33.2
		c7.6-8.8,16.8-16.8,27.5-21.1c0.1-0.3,0.2-0.5,0.3-0.8c3.7-6.7,4.9-27.5,2-35.9c-0.6-1.8,0.4-3.8,2.2-4.4c1.8-0.6,3.8,0.4,4.4,2.2
		c2.8,8.4,2.7,27-0.9,37.6c3.2,4.9,7.5,9.2,11.7,14.5c21.2,27.3,43,54.3,68.1,78.1c12.1,11.5,25.1,22.4,35.5,35.5
		c10.4,13.1,18.4,29,18.5,45.7c9.9-9.7,15.1-23.5,16.5-37.3c-0.4-0.6-0.7-1.3-0.9-2.1l-0.1-1c-0.2-1.4,0.3-2.7,1.1-3.7
		c-1.1-0.7-1.9-1.8-2.2-3.2l-0.2-1c-0.2-1.4,0.2-2.7,1.1-3.7c-1.1-0.6-2-1.7-2.2-3.1l-0.2-1c-0.3-1.4,0.1-2.7,1-3.7
		c-1.2-0.6-2-1.7-2.3-3.1l-0.2-0.9c-0.3-1.4,0.1-2.7,0.9-3.7c-1.2-0.6-2.1-1.6-2.4-3L394,209c-0.3-1.4,0-2.7,0.8-3.8
		c-1.2-0.5-2.1-1.6-2.5-2.9l-0.3-0.9c-0.4-1.3-0.1-2.7,0.7-3.8c-1.2-0.5-2.2-1.5-2.6-2.9l-0.3-0.9c-0.4-1.3-0.2-2.7,0.6-3.8
		c-1.2-0.5-2.2-1.5-2.6-2.8l-0.3-0.9c-0.4-1.3-0.2-2.7,0.5-3.8c-1.2-0.4-2.2-1.4-2.7-2.7l-0.3-0.9c-0.5-1.3-0.3-2.7,0.4-3.8
		c-1.2-0.4-2.3-1.3-2.8-2.6l-0.4-0.9c-0.5-1.3-0.4-2.7,0.2-3.8c-1.2-0.4-2.3-1.3-2.8-2.5l-0.4-0.9c-0.5-1.3-0.5-2.7,0.1-3.8
		c-1.2-0.3-2.3-1.2-2.9-2.5l-0.4-0.9c-0.6-1.3-0.5-2.7,0-3.8c-1.3-0.3-2.4-1.1-3-2.4l-0.4-0.9c-0.6-1.2-0.6-2.6-0.1-3.8
		c-1.3-0.3-2.4-1.1-3.1-2.3l-0.5-0.9c-0.6-1.2-0.7-2.5-0.3-3.6l0-0.1c0-0.1-0.1-0.1-0.1-0.2c-1.2-0.3-2.3-1-2.9-2.1l-0.5-0.9
		c-0.6-1-0.7-2.1-0.5-3.2c-0.2-0.3-0.3-0.5-0.5-0.8c-1-0.3-1.9-0.9-2.5-1.9l-0.5-0.8c-0.7-1.1-0.8-2.3-0.5-3.5
		c-0.1-0.1-0.1-0.3-0.2-0.4c-1.2-0.2-2.3-0.9-3-1.9l-0.5-0.8c-0.8-1.2-0.9-2.5-0.6-3.8c-1.3-0.1-2.5-0.7-3.3-1.9l-0.6-0.8
		c-0.8-1.1-1-2.5-0.7-3.8c-1.3-0.1-2.5-0.7-3.4-1.8l-0.6-0.8c-0.9-1.1-1.1-2.5-0.8-3.7h0c-1.3,0-2.5-0.5-3.4-1.6l-0.6-0.8
		c-0.9-1.1-1.2-2.4-1-3.7c-1.3,0-2.6-0.5-3.5-1.5l-0.7-0.7c-0.9-1-1.3-2.4-1.1-3.6c-1.3,0.1-2.6-0.4-3.5-1.4l-0.7-0.7
		c-1-1-1.4-2.3-1.2-3.6c-1.3,0.1-2.6-0.3-3.6-1.2l-0.7-0.7c-1-1-1.5-2.3-1.4-3.6c-1.3,0.2-2.6-0.2-3.6-1.1l-0.7-0.7
		c-1-0.9-1.5-2.2-1.5-3.5c-1.3,0.2-2.6-0.1-3.7-0.9l-0.8-0.6c-1.1-0.9-1.6-2.1-1.7-3.4c-1.2,0.3-2.6,0-3.7-0.8l-0.8-0.6
		c-1.1-0.8-1.7-2.1-1.8-3.3c-1.2,0.3-2.6,0.2-3.7-0.6l-0.8-0.6c-1.1-0.8-1.8-2-1.9-3.3c-1.2,0.4-2.6,0.3-3.8-0.5l-0.8-0.5
		c-1.2-0.7-1.9-1.9-2.1-3.2c-1.2,0.5-2.6,0.4-3.8-0.3l-0.8-0.5c-1.2-0.7-2-1.8-2.2-3.1c-1.2,0.5-2.6,0.5-3.8-0.1l-0.9-0.4
		c-1.2-0.6-2.1-1.7-2.4-2.9c-1.1,0.6-2.5,0.6-3.8,0.1l-0.9-0.4c-1.3-0.5-2.1-1.6-2.5-2.8c-1.1,0.6-2.5,0.8-3.8,0.3l-0.9-0.3
		c-1.3-0.5-2.2-1.5-2.7-2.7c-1.1,0.7-2.4,0.9-3.7,0.5l-0.9-0.3c-1.3-0.4-2.3-1.4-2.8-2.5c-1,0.7-2.4,1-3.7,0.7l-1-0.2
		c-1.3-0.3-2.4-1.2-2.9-2.4c-1,0.8-2.3,1.1-3.7,0.9l-1-0.2c-1.3-0.3-2.4-1.1-3.1-2.2c-1,0.8-2.3,1.3-3.6,1.1l-1-0.1
		c-1.4-0.2-2.5-1-3.2-2.1c-0.9,0.9-2.2,1.4-3.6,1.3l-1-0.1c-1.4-0.1-2.5-0.8-3.3-1.9c-0.9,0.9-2.1,1.5-3.5,1.4l-1,0
		c-1.4,0-2.6-0.7-3.4-1.7c-0.8,1-2,1.6-3.4,1.6l-1,0c-1.4,0.1-2.6-0.6-3.5-1.5c-0.8,1-1.9,1.7-3.3,1.8l-1,0.1
		c-1.4,0.1-2.6-0.4-3.5-1.3c-0.7,1.1-1.8,1.8-3.2,2l-1,0.1c-1.4,0.2-2.7-0.3-3.6-1.1c-0.6,1.1-1.7,1.9-3.1,2.2l-1,0.2
		c-1.3,0.2-2.7-0.1-3.6-0.9c-0.6,1.1-1.6,2-3,2.3l-0.9,0.2c-1.3,0.3-2.7,0-3.7-0.7c-0.5,1.2-1.5,2.1-2.8,2.5l-0.9,0.3
		c-1.3,0.4-2.7,0.2-3.7-0.5c-0.5,1.2-1.4,2.2-2.7,2.6l-0.9,0.3c-1.3,0.5-2.7,0.3-3.8-0.3c-0.4,1.2-1.3,2.3-2.6,2.8l-0.9,0.4
		c-1.3,0.5-2.7,0.4-3.8-0.2c-0.3,1.2-1.2,2.3-2.4,2.9l-0.9,0.4c-1.2,0.6-2.6,0.6-3.8,0c-0.3,1.3-1.1,2.4-2.3,3l-0.9,0.5
		c-1.2,0.6-2.6,0.7-3.8,0.2c-0.2,1.3-1,2.4-2.2,3.1l-0.8,0.5c-1.2,0.7-2.6,0.8-3.8,0.4c-0.2,1.3-0.8,2.5-2,3.2l-0.8,0.5
		c-1.2,0.8-2.5,0.9-3.8,0.6c-0.1,1.3-0.7,2.5-1.9,3.3l-0.8,0.6c-1.1,0.8-2.5,1-3.7,0.7c0,1.3-0.6,2.5-1.7,3.4l-0.8,0.6
		c-1.1,0.9-2.4,1.1-3.7,0.9c0,1.3-0.5,2.6-1.6,3.5l-0.7,0.6c-1,0.9-2.4,1.2-3.7,1c0.1,1.3-0.4,2.6-1.4,3.5l-0.7,0.7
		c-1,0.9-2.3,1.3-3.6,1.2c0.1,1.3-0.3,2.6-1.3,3.6l-0.7,0.7c-1,1-2.3,1.4-3.6,1.3c0.2,1.3-0.2,2.6-1.1,3.6l-0.7,0.7
		c-0.9,1-2.2,1.5-3.5,1.5c0.2,1.3-0.1,2.6-1,3.7l-0.6,0.7c-0.9,1.1-2.2,1.6-3.4,1.6h0c0.3,1.3,0,2.6-0.9,3.7l-0.6,0.8
		c-0.9,1.1-2.1,1.7-3.4,1.7c0.3,1.3,0.1,2.6-0.7,3.7l-0.6,0.8c-0.8,1.1-2.1,1.8-3.3,1.8c0.3,1.2,0.2,2.6-0.6,3.8l-0.6,0.8
		c-0.8,1.1-2,1.8-3.3,1.9c0.4,1.2,0.3,2.6-0.5,3.8l-0.5,0.8c-0.7,1.2-1.9,1.9-3.2,2.1c0.4,1.2,0.3,2.6-0.4,3.8l-0.5,0.8
		c-0.7,1.2-1.9,2-3.2,2.2c0.5,1.2,0.4,2.6-0.2,3.8l-0.5,0.9c-0.7,1.2-1.8,2-3.1,2.3c0.5,1.2,0.5,2.6-0.1,3.8l-0.5,0.9
		c-0.6,1.2-1.8,2.1-3,2.3c0.5,1.2,0.6,2.6,0,3.8l-0.4,0.9c-0.6,1.3-1.7,2.1-2.9,2.4c0.6,1.2,0.7,2.5,0.1,3.8l-0.4,0.9
		c-0.6,1.3-1.6,2.2-2.9,2.5c0.6,1.1,0.7,2.5,0.2,3.8l-0.4,0.9c-0.5,1.3-1.6,2.2-2.8,2.6c0.6,1.1,0.8,2.5,0.3,3.8l-0.3,0.9
		c-0.5,1.3-1.5,2.2-2.7,2.7c0.7,1.1,0.9,2.5,0.4,3.8l-0.3,0.9c-0.4,1.3-1.4,2.3-2.7,2.8c0.7,1.1,0.9,2.5,0.5,3.8l-0.3,0.9
		c-0.4,1.3-1.4,2.3-2.6,2.8c0.7,1.1,1,2.4,0.6,3.8l-0.3,0.9c-0.4,1.3-1.3,2.4-2.5,2.9c0.8,1,1.1,2.4,0.7,3.8l-0.2,1
		c-0.2,0.6-0.4,1.2-0.8,1.7c2.8,13,7.8,25.5,13.1,38C58.7,257,63.4,267.2,67.2,277.5z"/>
	<g>
		<path d="M192.8,352c4.7,0,10.9,6.4,15.2,3.4c0.6-1.8-3.6-4.5-4.8-5C200.3,349.4,193.2,347.5,192.8,352z"/>
	</g>
	<path d="M181.1,348.3c0,9.6,7.8,17.5,17.5,17.5c1.4,0,2.5-1.1,2.5-2.5s-1.1-2.5-2.5-2.5c-6.9,0-12.5-5.6-12.5-12.5
		s5.6-12.5,12.5-12.5c0.9,0,1.7-0.5,2.1-1.2s0.5-1.7,0-2.5c0-0.1-4.3-8.1-0.4-15.4c0.7-1.2,0.2-2.7-1-3.4c-1.2-0.7-2.7-0.2-3.4,1
		c-3.5,6.4-2.3,13-1,16.8C187.1,332.8,181.1,339.9,181.1,348.3z"/>
	<g>
		<path d="M227.6,355.4c4.2,3.1,10.4-3.4,15.2-3.4c-0.4-4.5-7.5-2.6-10.4-1.6C231.2,350.9,227,353.5,227.6,355.4z"/>
	</g>
	<path d="M234.9,334.6c0.5,0.8,1.3,1.2,2.2,1.2c6.9,0,12.5,5.6,12.5,12.5s-5.6,12.5-12.5,12.5c-1.4,0-2.5,1.1-2.5,2.5
		s1.1,2.5,2.5,2.5c9.6,0,17.5-7.8,17.5-17.5c0-8.4-6-15.4-13.9-17.1c1.3-3.8,2.5-10.4-1-16.8c-0.7-1.2-2.2-1.7-3.4-1
		c-1.2,0.7-1.7,2.2-1,3.4c3.9,7.3-0.3,15.3-0.4,15.4C234.4,332.9,234.5,333.8,234.9,334.6z"/>
	<path class="st1" d="M411.7,284.2l0-1c0-0.5-0.1-1.1-0.3-1.5c0.2-0.5,0.3-1,0.3-1.5l0-1c0-1.4-0.7-2.7-1.8-3.5
		c1-0.9,1.6-2.2,1.6-3.6l0-1c0-1.4-0.8-2.7-1.8-3.5c1-0.9,1.6-2.2,1.5-3.6l-0.1-1c-0.1-1.4-0.8-2.7-1.9-3.4c1-0.9,1.5-2.2,1.4-3.7
		l-0.1-1c-0.1-1.4-0.9-2.6-2-3.4c0.9-0.9,1.5-2.3,1.3-3.7l-0.1-1c-0.2-1.4-1-2.6-2.1-3.3c0.9-1,1.4-2.3,1.2-3.7l-0.1-1
		c-0.2-1.4-1-2.6-2.2-3.3c0.9-1,1.4-2.3,1.1-3.7l-0.2-1c-0.2-1.4-1.1-2.6-2.3-3.2c0.9-1,1.3-2.4,1-3.8l-0.2-1
		c-0.3-1.4-1.2-2.5-2.3-3.2c0.8-1,1.2-2.4,0.9-3.8l-0.2-1c-0.3-1.4-1.2-2.5-2.4-3.1c0.8-1,1.2-2.4,0.8-3.8l-0.2-1
		c-0.3-1.4-1.3-2.5-2.5-3c0.8-1.1,1.1-2.5,0.7-3.8l-0.3-1c-0.4-1.4-1.4-2.4-2.6-3c0.8-1.1,1-2.5,0.6-3.9l-0.3-1
		c-0.4-1.4-1.4-2.4-2.7-2.9c0.7-1.1,1-2.5,0.5-3.9l-0.3-1c-0.5-1.4-1.5-2.4-2.7-2.8c0.7-1.1,0.9-2.6,0.4-3.9l-0.3-0.9
		c-0.5-1.3-1.6-2.3-2.8-2.7c0.7-1.2,0.8-2.6,0.3-3.9l-0.4-0.9c-0.5-1.3-1.6-2.3-2.9-2.7c0.6-1.2,0.8-2.6,0.2-3.9l-0.4-0.9
		c-0.6-1.3-1.7-2.2-3-2.6c0.6-1.2,0.7-2.6,0.1-3.9l-0.4-0.9c-0.6-1.3-1.7-2.2-3-2.5c0.6-1.2,0.6-2.7,0-3.9l-0.5-0.9
		c-0.6-1.3-1.8-2.1-3.1-2.4c0.5-1.2,0.5-2.7-0.2-3.9l-0.5-0.9c-0.7-1.3-1.9-2.1-3.2-2.3c0.5-1.2,0.4-2.7-0.3-3.9l-0.5-0.9
		c-0.7-1.2-1.9-2-3.3-2.2c0.5-1.3,0.4-2.7-0.4-3.9l-0.5-0.9c-0.8-1.2-2-2-3.3-2.1c0.4-1.3,0.3-2.7-0.5-3.9l-0.6-0.8
		c-0.8-1.2-2.1-1.9-3.4-2c0.4-1.3,0.2-2.7-0.7-3.9l-0.6-0.8c-0.8-1.2-2.1-1.8-3.5-1.9c0.3-1.3,0.1-2.7-0.8-3.9l-0.6-0.8
		c-0.9-1.2-2.2-1.8-3.6-1.8h0c0.3-1.3,0-2.8-0.9-3.9l-0.6-0.7c-0.9-1.1-2.3-1.7-3.6-1.6c0.2-1.3-0.1-2.7-1.1-3.8l-0.7-0.8
		c-1-1.1-2.3-1.6-3.6-1.5c0.2-1.3-0.2-2.7-1.2-3.8l-0.7-0.7c-1-1-2.4-1.5-3.7-1.4c0.1-1.3-0.3-2.7-1.3-3.7l-0.7-0.7
		c-1-1-2.4-1.4-3.8-1.2c0.1-1.3-0.4-2.7-1.5-3.7l-0.8-0.7c-1.1-1-2.5-1.3-3.8-1.1c0-1.3-0.5-2.7-1.6-3.6l-0.8-0.6
		c-1.1-0.9-2.5-1.2-3.8-0.9c0-1.3-0.6-2.7-1.8-3.5l-0.8-0.6c-1.2-0.9-2.6-1.1-3.9-0.7c-0.1-1.3-0.8-2.6-2-3.5l-0.8-0.6
		c-1.2-0.8-2.6-1-3.9-0.6c-0.1-1.3-0.9-2.6-2.1-3.4l-0.9-0.5c-1.2-0.8-2.7-0.9-3.9-0.4c-0.2-1.3-1-2.5-2.2-3.3l-0.9-0.5
		c-1.3-0.7-2.7-0.7-4-0.2c-0.3-1.3-1.1-2.5-2.4-3.1l-0.9-0.5c-1.3-0.6-2.8-0.6-4,0c-0.3-1.3-1.2-2.4-2.6-3l-0.9-0.4
		c-1.3-0.6-2.8-0.5-3.9,0.2c-0.4-1.3-1.4-2.4-2.7-2.9l-1-0.4c-1.4-0.5-2.8-0.3-3.9,0.4c-0.5-1.3-1.5-2.3-2.9-2.7l-1-0.3
		c-1.4-0.4-2.8-0.2-3.9,0.6c-0.5-1.2-1.6-2.2-3-2.6l-1-0.3c-1.4-0.4-2.8,0-3.9,0.8c-0.6-1.2-1.7-2.1-3.1-2.4l-1-0.2
		c-1.4-0.3-2.8,0.1-3.8,1c-0.7-1.2-1.8-2.1-3.3-2.3l-1-0.1c-1.4-0.2-2.8,0.3-3.8,1.2c-0.7-1.1-1.9-2-3.4-2.1l-1-0.1
		c-1.4-0.1-2.8,0.4-3.7,1.4c-0.8-1.1-2-1.8-3.5-1.9l-1,0c-1.4-0.1-2.8,0.6-3.6,1.6c-0.8-1.1-2.1-1.7-3.6-1.7l-1,0
		c-1.5,0-2.7,0.7-3.5,1.8c-0.9-1-2.2-1.6-3.7-1.5l-1,0.1c-1.4,0.1-2.7,0.9-3.4,2c-0.9-1-2.3-1.5-3.8-1.3l-1,0.1
		c-1.4,0.2-2.6,1-3.3,2.2c-1-0.9-2.4-1.4-3.8-1.1l-1,0.2c-1.4,0.3-2.6,1.2-3.2,2.4c-1-0.8-2.4-1.2-3.8-0.9l-1,0.2
		c-1.4,0.3-2.5,1.3-3,2.5c-1.1-0.8-2.5-1.1-3.9-0.7l-1,0.3c-1.4,0.4-2.4,1.4-2.9,2.7c-1.1-0.7-2.6-1-3.9-0.5l-1,0.3
		c-1.4,0.5-2.3,1.6-2.8,2.8c-1.2-0.7-2.6-0.8-4-0.3l-0.9,0.4c-1.3,0.6-2.3,1.7-2.6,3c-1.2-0.6-2.7-0.7-4-0.1l-0.9,0.4
		c-1.3,0.6-2.2,1.8-2.5,3.1c-1.2-0.6-2.7-0.6-4,0.1l-0.9,0.5c-1.3,0.7-2.1,1.9-2.3,3.2c-1.2-0.5-2.7-0.4-3.9,0.3l-0.9,0.5
		c-1.2,0.7-2,2-2.2,3.3c-1.3-0.4-2.7-0.3-3.9,0.5l-0.9,0.6c-1.2,0.8-1.9,2.1-2,3.4c-1.3-0.4-2.7-0.2-3.9,0.7l-0.8,0.6
		c-1.2,0.9-1.8,2.2-1.8,3.5c-1.3-0.3-2.7-0.1-3.9,0.8l-0.8,0.6c-1.1,0.9-1.7,2.2-1.7,3.6c-1.3-0.3-2.7,0.1-3.8,1l-0.8,0.7
		c-1.1,0.9-1.6,2.3-1.5,3.6c-1.3-0.2-2.7,0.2-3.8,1.2l-0.7,0.7c-1.1,1-1.5,2.4-1.4,3.7c-1.3-0.2-2.7,0.3-3.7,1.3l-0.7,0.7
		c-1,1-1.4,2.4-1.2,3.7c-1.3-0.1-2.7,0.4-3.7,1.4l-0.7,0.8c-1,1.1-1.3,2.5-1.1,3.8c-1.3-0.1-2.7,0.5-3.6,1.6l-0.7,0.8
		c-0.9,1.1-1.2,2.5-1,3.8h0c-1.3,0-2.6,0.6-3.5,1.7l-0.6,0.8c-0.9,1.1-1.1,2.6-0.8,3.8c-1.3,0-2.6,0.7-3.5,1.8l-0.6,0.8
		c-0.8,1.2-1.1,2.6-0.7,3.9c-1.3,0.1-2.6,0.8-3.4,2l-0.6,0.8c-0.8,1.2-1,2.6-0.6,3.9c-1.3,0.1-2.6,0.8-3.4,2.1l-0.5,0.9
		c-0.8,1.2-0.9,2.7-0.4,3.9c-1.3,0.2-2.6,0.9-3.3,2.2l-0.5,0.9c-0.7,1.2-0.8,2.7-0.3,3.9c-1.3,0.2-2.5,1-3.2,2.3l-0.5,0.9
		c-0.7,1.3-0.7,2.7-0.2,3.9c-1.3,0.3-2.5,1.1-3.1,2.4l-0.5,0.9c-0.7,1.3-0.6,2.7-0.1,3.9c-1.3,0.3-2.5,1.2-3.1,2.5l-0.4,0.9
		c-0.6,1.3-0.6,2.7,0,3.9c-1.3,0.3-2.4,1.2-3,2.5l-0.4,0.9c-0.6,1.3-0.5,2.8,0.2,3.9c-1.3,0.4-2.4,1.3-2.9,2.6l-0.4,0.9
		c-0.5,1.3-0.4,2.8,0.3,3.9c-1.3,0.4-2.3,1.4-2.8,2.7l-0.3,0.9c-0.5,1.3-0.3,2.8,0.4,3.9c-1.3,0.4-2.3,1.4-2.8,2.8l-0.3,1
		c-0.5,1.4-0.2,2.8,0.5,3.9c-1.2,0.5-2.3,1.5-2.7,2.9l-0.3,1c-0.4,1.4-0.2,2.8,0.6,3.9c-1.2,0.5-2.2,1.6-2.6,2.9l-0.3,1
		c-0.4,1.4-0.1,2.8,0.7,3.9c-1.2,0.5-2.2,1.6-2.5,3l-0.2,1c-0.3,1.4,0,2.8,0.8,3.8c-1.2,0.6-2.1,1.7-2.4,3.1l-0.2,1
		c-0.3,1.4,0.1,2.8,0.9,3.8c-1.2,0.6-2.1,1.7-2.4,3.1l-0.2,1c-0.3,1.4,0.1,2.8,1,3.8c-1.2,0.6-2,1.8-2.3,3.2l-0.2,1
		c-0.2,1.4,0.2,2.8,1.1,3.8c-1.1,0.7-2,1.8-2.2,3.2l-0.1,1c-0.2,1.4,0.3,2.8,1.2,3.7c-1.1,0.7-1.9,1.9-2.1,3.3l-0.1,1
		c-0.2,1.4,0.3,2.8,1.3,3.7c-1.1,0.7-1.9,1.9-2,3.3l-0.1,1c-0.1,1.4,0.4,2.8,1.4,3.7c-1.1,0.7-1.8,2-2,3.4l-0.1,1
		c-0.1,1.4,0.5,2.7,1.5,3.6c-1.1,0.8-1.8,2-1.9,3.4l0,1c-0.1,1.4,0.6,2.7,1.6,3.6c-1.1,0.8-1.7,2.1-1.8,3.5l0,1
		c0,1.4,0.6,2.7,1.6,3.6c-1,0.8-1.7,2.1-1.7,3.5l0,1c0,1.4,0.7,2.7,1.7,3.5c-1,0.9-1.6,2.1-1.6,3.6l0,1c0,1.4,0.7,2.7,1.8,3.5
		c-1,0.9-1.6,2.2-1.5,3.6l0.1,1c0.1,1.4,0.8,2.7,1.9,3.4c-1,0.9-1.5,2.2-1.4,3.6l0.1,1c0.1,1.4,0.9,2.6,2,3.4
		c-1,0.9-1.5,2.3-1.3,3.7l0.1,1c0.1,1.3,0.8,2.4,1.7,3.1c-1.1,1.2-1.4,3-0.8,4.6l0,0.4c0.2,1.4,1,2.6,2.2,3.3
		c-0.9,1-1.4,2.3-1.2,3.7l0.2,1c0.2,1.4,1.1,2.6,2.2,3.2c-0.9,1-1.3,2.4-1.1,3.8l0.2,1c0.3,1.4,1.1,2.5,2.3,3.2
		c-0.9,1-1.3,2.4-1,3.8l0.2,1c0.3,1.4,1.2,2.5,2.4,3.1c-0.8,1-1.2,2.4-0.9,3.8l0.2,1c0.3,1.4,1.3,2.5,2.5,3
		c-0.8,1.1-1.1,2.5-0.8,3.8l0.3,1c0.4,1.4,1.3,2.5,2.6,3c-0.8,1.1-1.1,2.5-0.7,3.9l0.3,1c0.4,1.4,1.4,2.4,2.6,2.9
		c-0.7,1.1-1,2.5-0.6,3.9l0.3,1c0.4,1.4,1.5,2.4,2.7,2.8c-0.7,1.1-0.9,2.6-0.4,3.9l0.3,0.9c0.5,1.4,1.5,2.3,2.8,2.8
		c-0.7,1.1-0.9,2.6-0.3,3.9l0.4,0.9c0.5,1.3,1.6,2.3,2.9,2.7c-0.7,1.2-0.8,2.6-0.2,3.9l0.4,0.9c0.6,1.3,1.7,2.2,3,2.6
		c-0.6,1.2-0.7,2.6-0.1,3.9l0.4,0.9c0.6,1.2,1.6,2.1,2.8,2.4c-1.1,1.8-0.9,4.1,0.7,5.6l0.7,0.7c0.7,0.6,1.5,1,2.3,1.2
		c-0.5,1.2-0.5,2.6,0.2,3.8l0.5,0.9c0.7,1.3,1.9,2.1,3.2,2.3c-0.5,1.2-0.5,2.7,0.2,3.9l0.5,0.9c0.7,1.2,1.9,2,3.2,2.2
		c-0.5,1.3-0.4,2.7,0.4,3.9l0.5,0.9c0.7,1.2,2,2,3.3,2.1c-0.4,1.3-0.3,2.7,0.5,3.9l0.6,0.8c0.8,1.2,2.1,1.9,3.4,2
		c-0.4,1.3-0.2,2.7,0.6,3.9l0.6,0.8c0.8,1.2,2.1,1.8,3.4,1.9c-0.3,1.3-0.1,2.7,0.7,3.9l0.6,0.8c0.9,1.1,2.2,1.8,3.5,1.8
		c-0.3,1.3,0,2.7,0.9,3.8l0.6,0.8c0.9,1.1,2.2,1.7,3.6,1.7c-0.3,1.3,0.1,2.8,1,3.9L90,473c0.9,1.1,2.3,1.6,3.6,1.5
		c-0.2,1.3,0.2,2.7,1.2,3.8l0.7,0.7c1,1,2.4,1.5,3.7,1.4c-0.2,1.3,0.3,2.7,1.3,3.7l0.7,0.7c1,1,2.4,1.4,3.7,1.2
		c-0.1,1.3,0.4,2.7,1.5,3.7l0.8,0.7c1.1,1,2.5,1.3,3.8,1.1c0,1.3,0.5,2.7,1.6,3.6l0.8,0.7c1.1,0.9,2.5,1.2,3.8,0.9
		c0,1.3,0.6,2.7,1.8,3.5l0.8,0.6c1.1,0.9,2.6,1.1,3.9,0.8c0.1,1.3,0.7,2.6,1.9,3.5l0.8,0.6c1.2,0.8,2.6,1,3.9,0.6
		c0.1,1.3,0.8,2.6,2.1,3.4l0.9,0.6c1.2,0.8,2.7,0.9,3.9,0.4c0.2,1.3,1,2.6,2.2,3.3l0.9,0.5c1.3,0.7,2.7,0.8,3.9,0.2
		c0.2,1.3,1.1,2.5,2.4,3.2l0.9,0.5c1.3,0.7,2.8,0.6,4,0c0.3,1.3,1.2,2.5,2.5,3.1l0.9,0.4c1.3,0.6,2.8,0.5,4-0.1
		c0.4,1.3,1.3,2.4,2.7,2.9l1,0.4c1.3,0.5,2.8,0.3,3.9-0.3c0.4,1.3,1.4,2.3,2.8,2.8l1,0.3c1.4,0.5,2.8,0.2,3.9-0.5
		c0.5,1.2,1.6,2.2,3,2.6l1,0.3c1.4,0.4,2.8,0.1,3.9-0.8c0.6,1.2,1.7,2.2,3.1,2.5l1,0.2c1.4,0.3,2.8-0.1,3.9-1
		c0.6,1.2,1.8,2.1,3.2,2.3l1,0.2c1.4,0.2,2.8-0.3,3.8-1.2c0.7,1.2,1.9,2,3.4,2.1l1,0.1c1.4,0.1,2.8-0.4,3.7-1.4
		c0.8,1.1,2,1.9,3.5,1.9l1,0.1c1.4,0.1,2.8-0.6,3.6-1.6c0.8,1.1,2.1,1.8,3.6,1.8l1,0c1.5,0,2.7-0.7,3.6-1.8c0.9,1,2.2,1.6,3.6,1.6
		l1-0.1c1.4-0.1,2.7-0.9,3.4-2c0.9,1,2.3,1.5,3.7,1.4l1-0.1c1.4-0.2,2.6-1,3.3-2.2c1,0.9,2.4,1.4,3.8,1.1l1-0.2
		c1.4-0.2,2.6-1.1,3.2-2.3c1,0.9,2.4,1.3,3.9,0.9l1-0.2c1.4-0.3,2.5-1.3,3.1-2.5c1.1,0.8,2.5,1.1,3.9,0.7l1-0.3
		c1.4-0.4,2.4-1.4,2.9-2.7c1.1,0.7,2.6,1,3.9,0.5l1-0.3c1.4-0.5,2.4-1.5,2.8-2.8c1.2,0.7,2.6,0.9,4,0.3l1-0.4c1.3-0.5,2.3-1.7,2.7-3
		c1.2,0.6,2.6,0.7,4,0.1l0.9-0.4c1.3-0.6,2.2-1.8,2.5-3.1c1.2,0.6,2.7,0.6,4-0.1l0.9-0.5c1.3-0.7,2.1-1.9,2.3-3.2
		c1.2,0.5,2.7,0.5,3.9-0.3l0.9-0.5c1.2-0.7,2-2,2.2-3.3c1.3,0.4,2.7,0.3,3.9-0.4l0.9-0.6c1.2-0.8,1.9-2.1,2-3.4
		c1.3,0.4,2.7,0.2,3.9-0.6l0.8-0.6c1.2-0.8,1.8-2.1,1.9-3.5c1.3,0.3,2.7,0.1,3.9-0.8l0.8-0.6c1.1-0.9,1.7-2.2,1.7-3.6
		c1.3,0.3,2.7,0,3.8-1l0.8-0.7c1.1-0.9,1.6-2.3,1.6-3.6c1.3,0.2,2.7-0.1,3.8-1.1l0.8-0.7c1.1-1,1.5-2.3,1.4-3.7
		c1.3,0.2,2.7-0.3,3.7-1.3l0.7-0.7c1-1,1.5-2.4,1.3-3.7c1.3,0.1,2.7-0.4,3.7-1.4l0.7-0.7c1-1.1,1.4-2.5,1.1-3.8
		c1.3,0.1,2.7-0.5,3.6-1.5l0.7-0.8c0.9-1.1,1.3-2.5,1-3.8c1.3,0,2.7-0.6,3.6-1.7l0.6-0.8c0.5-0.6,0.8-1.3,0.9-2
		c0.4-0.2,0.7-0.4,1.1-0.6l0.8-0.6c0.7-0.6,1.2-1.4,1.5-2.3c0,0,0.1-0.1,0.1-0.1l0.6-0.8c0.9-1.2,1.1-2.6,0.7-3.9
		c1.3-0.1,2.6-0.7,3.4-1.9l0.6-0.8c0.8-1.2,1-2.6,0.6-3.9c1.3-0.1,2.6-0.8,3.4-2l0.5-0.8c0.8-1.2,0.9-2.6,0.5-3.9
		c1.3-0.2,2.6-0.9,3.3-2.1l0.5-0.9c0.7-1.2,0.8-2.7,0.3-3.9c1.3-0.2,2.5-1,3.2-2.2l0.5-0.9c0.7-1.3,0.7-2.7,0.2-3.9
		c1.3-0.2,2.5-1.1,3.2-2.3l0.5-0.9c0.7-1.3,0.7-2.7,0.1-3.9c1.3-0.3,2.5-1.1,3.1-2.4l0.4-0.9c0.6-1.3,0.6-2.7,0-3.9
		c1.3-0.3,2.4-1.2,3-2.5l0.4-0.9c0.6-1.3,0.5-2.7-0.1-3.9c1.3-0.4,2.4-1.3,2.9-2.6l0.4-0.9c0.5-1.3,0.4-2.8-0.2-3.9
		c1.3-0.4,2.4-1.4,2.9-2.7l0.4-0.9c0.5-1.3,0.3-2.8-0.4-3.9c1.3-0.4,2.3-1.4,2.8-2.8l0.3-1c0.5-1.4,0.3-2.8-0.5-3.9
		c1.2-0.5,2.3-1.5,2.7-2.8l0.3-1c0.4-1.4,0.2-2.8-0.6-3.9c1.2-0.5,2.2-1.5,2.6-2.9l0.3-1c0.4-1.4,0.1-2.8-0.7-3.9
		c1.2-0.5,2.2-1.6,2.5-3l0.3-1c0.4-1.4,0-2.8-0.8-3.8c1.2-0.6,2.1-1.7,2.5-3l0.2-1c0.3-1.4,0-2.8-0.9-3.8c1.2-0.6,2.1-1.7,2.4-3.1
		l0.2-1c0.3-1.4-0.1-2.8-1-3.8c1.2-0.6,2.1-1.8,2.3-3.2l0.2-1c0.2-1.4-0.2-2.8-1.1-3.8c1.2-0.7,2-1.8,2.2-3.2l0.2-1
		c0.2-1.4-0.3-2.8-1.2-3.8c1.1-0.7,2-1.9,2.1-3.3l0.1-1c0.2-1.4-0.3-2.8-1.3-3.7c1.1-0.7,1.9-1.9,2.1-3.3l0.1-1
		c0.1-1.4-0.4-2.8-1.4-3.7c1.1-0.7,1.9-2,2-3.4l0.1-1c0.1-1.4-0.5-2.7-1.4-3.6c1.1-0.8,1.8-2,1.9-3.4l0.1-1c0.1-1.4-0.5-2.7-1.5-3.6
		c1.1-0.8,1.8-2,1.8-3.5l0-1c0-1.4-0.6-2.7-1.6-3.6C411.1,287,411.7,285.7,411.7,284.2z M37.2,230.2l0.2-1c0.2-1.4-0.2-2.7-1-3.7
		c1.1-0.6,2-1.7,2.3-3.1l0.2-1c0.3-1.4-0.1-2.7-0.9-3.7c1.2-0.6,2-1.7,2.3-3l0.2-1c0.3-1.4,0-2.7-0.8-3.7c0.6-0.3,1.2-0.8,1.6-1.3
		c0.4-0.5,0.7-1,0.8-1.7l0.2-1c0.3-1.4,0-2.7-0.7-3.8c1.2-0.5,2.1-1.6,2.5-2.9l0.3-0.9c0.4-1.3,0.1-2.7-0.6-3.8
		c1.2-0.5,2.2-1.5,2.6-2.8l0.3-0.9c0.4-1.3,0.2-2.7-0.5-3.8c1.2-0.5,2.2-1.4,2.7-2.8l0.3-0.9c0.5-1.3,0.3-2.7-0.4-3.8
		c1.2-0.4,2.2-1.4,2.7-2.7l0.3-0.9c0.5-1.3,0.3-2.7-0.3-3.8c1.2-0.4,2.3-1.3,2.8-2.6l0.4-0.9c0.5-1.3,0.4-2.7-0.2-3.8
		c1.2-0.4,2.3-1.2,2.9-2.5l0.4-0.9c0.6-1.3,0.5-2.7-0.1-3.8c1.2-0.3,2.4-1.2,2.9-2.4l0.4-0.9c0.6-1.3,0.6-2.6,0-3.8
		c1.3-0.3,2.4-1.1,3-2.3l0.5-0.9c0.6-1.2,0.6-2.6,0.1-3.8c1.3-0.2,2.4-1,3.1-2.3l0.5-0.9c0.7-1.2,0.7-2.6,0.2-3.8
		c1.3-0.2,2.5-1,3.2-2.2l0.5-0.8c0.7-1.2,0.8-2.6,0.4-3.8c1.3-0.2,2.5-0.9,3.2-2.1l0.5-0.8c0.7-1.2,0.9-2.6,0.5-3.8
		c1.3-0.1,2.5-0.8,3.3-1.9l0.6-0.8c0.8-1.1,1-2.5,0.6-3.8c1.3-0.1,2.5-0.7,3.3-1.8l0.6-0.8c0.8-1.1,1.1-2.5,0.7-3.7
		c1.3,0,2.6-0.6,3.4-1.7l0.6-0.8c0.9-1.1,1.1-2.5,0.9-3.7h0c1.3,0,2.6-0.5,3.4-1.6l0.6-0.7c0.9-1.1,1.2-2.4,1-3.7
		c1.3,0.1,2.6-0.4,3.5-1.5l0.7-0.7c0.9-1,1.3-2.4,1.1-3.6c1.3,0.1,2.6-0.3,3.6-1.3l0.7-0.7c1-1,1.4-2.3,1.3-3.6
		c1.3,0.2,2.6-0.2,3.6-1.2l0.7-0.7c1-0.9,1.5-2.2,1.4-3.5c1.3,0.2,2.6-0.1,3.7-1l0.7-0.6c1-0.9,1.6-2.2,1.6-3.5
		c1.3,0.3,2.6,0,3.7-0.9l0.8-0.6c1.1-0.9,1.7-2.1,1.7-3.4c1.2,0.3,2.6,0.1,3.7-0.7l0.8-0.6c1.1-0.8,1.8-2,1.9-3.3
		c1.2,0.4,2.6,0.2,3.8-0.6l0.8-0.5c1.2-0.8,1.9-2,2-3.2c1.2,0.4,2.6,0.3,3.8-0.4l0.8-0.5c1.2-0.7,1.9-1.9,2.2-3.1
		c1.2,0.5,2.6,0.4,3.8-0.2l0.9-0.5c1.2-0.6,2-1.8,2.3-3c1.2,0.5,2.6,0.6,3.8,0l0.9-0.4c1.3-0.6,2.1-1.7,2.4-2.9
		c1.1,0.6,2.5,0.7,3.8,0.2l0.9-0.4c1.3-0.5,2.2-1.6,2.6-2.8c1.1,0.6,2.5,0.8,3.8,0.3l0.9-0.3c1.3-0.5,2.3-1.4,2.7-2.6
		c1.1,0.7,2.4,0.9,3.7,0.5l0.9-0.3c1.3-0.4,2.3-1.3,2.8-2.5c1,0.7,2.4,1.1,3.7,0.7l0.9-0.2c1.3-0.3,2.4-1.2,3-2.3
		c1,0.8,2.3,1.2,3.6,0.9l1-0.2c1.3-0.2,2.4-1.1,3.1-2.2c0.9,0.9,2.2,1.3,3.6,1.1l1-0.1c1.4-0.2,2.5-0.9,3.2-2
		c0.9,0.9,2.2,1.4,3.5,1.3l1-0.1c1.4-0.1,2.5-0.8,3.3-1.8c0.8,1,2.1,1.6,3.5,1.5l1,0c1.4,0,2.6-0.7,3.4-1.6c0.8,1,2,1.7,3.4,1.7l1,0
		c1.4,0,2.6-0.5,3.5-1.4c0.7,1,1.9,1.8,3.3,1.9l1,0.1c1.4,0.1,2.7-0.4,3.6-1.3c0.7,1.1,1.8,1.9,3.2,2.1l1,0.1
		c1.4,0.2,2.7-0.2,3.6-1.1c0.6,1.1,1.7,2,3.1,2.2l1,0.2c1.3,0.3,2.7-0.1,3.7-0.9c0.6,1.1,1.6,2,2.9,2.4l1,0.2
		c1.3,0.3,2.7,0.1,3.7-0.7c0.5,1.2,1.5,2.1,2.8,2.5l0.9,0.3c1.3,0.4,2.7,0.2,3.7-0.5c0.4,1.2,1.4,2.2,2.7,2.7l0.9,0.3
		c1.3,0.5,2.7,0.4,3.8-0.3c0.4,1.2,1.3,2.3,2.5,2.8l0.9,0.4c1.3,0.6,2.6,0.5,3.8-0.1c0.3,1.2,1.1,2.3,2.4,2.9l0.9,0.4
		c1.2,0.6,2.6,0.6,3.8,0.1c0.3,1.3,1,2.4,2.2,3.1l0.8,0.5c1.2,0.7,2.6,0.7,3.8,0.3c0.2,1.3,0.9,2.4,2.1,3.2l0.8,0.5
		c1.2,0.7,2.5,0.9,3.8,0.5c0.1,1.3,0.8,2.5,1.9,3.3l0.8,0.6c1.1,0.8,2.5,1,3.7,0.6c0.1,1.3,0.7,2.5,1.8,3.3l0.8,0.6
		c1.1,0.8,2.5,1.1,3.7,0.8c0,1.3,0.6,2.5,1.7,3.4l0.8,0.6c1.1,0.9,2.4,1.2,3.7,0.9c0,1.3,0.5,2.6,1.5,3.5l0.7,0.7
		c1,0.9,2.4,1.3,3.6,1.1c-0.1,1.3,0.4,2.6,1.4,3.6l0.7,0.7c1,1,2.3,1.4,3.6,1.2c-0.1,1.3,0.3,2.6,1.2,3.6l0.7,0.7
		c1,1,2.3,1.5,3.5,1.4c-0.2,1.3,0.2,2.6,1.1,3.6l0.7,0.7c0.9,1,2.2,1.5,3.5,1.5c-0.2,1.3,0.1,2.6,1,3.7l0.6,0.8
		c0.9,1.1,2.1,1.6,3.4,1.6h0c-0.3,1.3,0,2.6,0.8,3.7l0.6,0.8c0.8,1.1,2.1,1.7,3.4,1.8c-0.3,1.2-0.1,2.6,0.7,3.8l0.6,0.8
		c0.8,1.1,2,1.8,3.3,1.9c-0.4,1.2-0.2,2.6,0.6,3.8l0.5,0.8c0.7,1.1,1.8,1.7,3,1.9c0.1,0.1,0.1,0.3,0.2,0.4c-0.3,1.1-0.1,2.4,0.5,3.5
		l0.5,0.8c0.6,1,1.5,1.6,2.5,1.9c0.2,0.3,0.3,0.5,0.5,0.8c-0.2,1-0.1,2.2,0.5,3.2l0.5,0.9c0.7,1.1,1.7,1.9,2.9,2.1
		c0,0.1,0.1,0.1,0.1,0.2c0,0,0-0.1-0.1-0.1c0.1,0,0.1,0,0.2,0c0,0.1,0,0.1-0.1,0.2c-0.4,1.2-0.4,2.5,0.3,3.6l0.5,0.9
		c0.7,1.2,1.8,2,3.1,2.3c-0.5,1.2-0.5,2.6,0.1,3.8l0.4,0.9c0.6,1.2,1.7,2.1,3,2.4c-0.6,1.2-0.6,2.6,0,3.8l0.4,0.9
		c0.6,1.3,1.7,2.1,2.9,2.5c-0.6,1.1-0.7,2.5-0.1,3.8l0.4,0.9c0.5,1.3,1.6,2.2,2.8,2.5c-0.6,1.1-0.8,2.5-0.2,3.8l0.4,0.9
		c0.5,1.3,1.5,2.2,2.8,2.6c-0.7,1.1-0.8,2.5-0.4,3.8l0.3,0.9c0.5,1.3,1.5,2.3,2.7,2.7c-0.7,1.1-0.9,2.5-0.5,3.8l0.3,0.9
		c0.4,1.3,1.4,2.3,2.6,2.8c-0.7,1.1-1,2.4-0.6,3.8l0.3,0.9c0.4,1.3,1.4,2.4,2.6,2.9c-0.7,1.1-1,2.4-0.7,3.8l0.3,0.9
		c0.4,1.4,1.3,2.4,2.5,2.9c-0.8,1-1.1,2.4-0.8,3.8l0.2,0.9c0.3,1.4,1.2,2.4,2.4,3c-0.8,1-1.2,2.4-0.9,3.7l0.2,0.9
		c0.3,1.4,1.2,2.5,2.3,3.1c-0.8,1-1.2,2.3-1,3.7l0.2,1c0.3,1.4,1.1,2.5,2.2,3.1c-0.9,1-1.3,2.3-1.1,3.7l0.2,1c0.2,1.4,1,2.5,2.2,3.2
		c-0.9,1-1.3,2.3-1.1,3.7l0.1,1c0.1,0.8,0.4,1.5,0.9,2.1c-1.4,13.9-6.6,27.6-16.5,37.3c-0.1-16.8-8-32.6-18.5-45.7
		c-10.4-13.1-23.4-24-35.5-35.5c-25.1-23.9-46.9-50.8-68.1-78.1c-4.1-5.3-8.5-9.6-11.7-14.5c3.5-10.6,3.7-29.1,0.9-37.6
		c-0.6-1.8-2.6-2.8-4.4-2.2c-1.8,0.6-2.8,2.6-2.2,4.4c2.8,8.4,1.7,29.2-2,35.9c-0.1,0.3-0.2,0.5-0.3,0.8
		c-10.7,4.3-19.9,12.2-27.5,21.1c-9,10.5-16.3,22.4-25.1,33.2c-9.8,12-21.4,22.5-34.3,31c-17.9,11.8-38.1,19.7-55.6,32
		c-17.5,12.4-32.6,31-32.8,52.4c-3.8-10.3-8.4-20.5-12.8-30.7c0,2.1,0,4.2,0,6.3c-5.7-8.7-11.9-16.5-18.5-18.6
		c-0.2-0.4-0.4-0.8-0.7-1.1C36.2,232.7,37,231.6,37.2,230.2z M314.1,271.9c-0.2,1.5-1.2,2.7-2.6,3.3c-3.4,1.5-12.4,5.7-22.1,5.7
		c-2,0-4.1-0.2-6.2-0.6c-11.9-2.5-15.5-2.9-21-1.5c-1.5,0.4-3-0.2-3.9-1.5c-1.1-1.6-1.1-4,0-5.5c3.7-5.2,13.8-17.4,26.6-17.4
		c3.9,0,7.6,0.9,11.1,2.3c0.1,0,0.1-0.1,0.2-0.1c2.5-0.6,4-4.8,4.3-6.2c0.3-1.3,1.6-2.2,3-1.9c1.3,0.3,2.2,1.6,1.9,3
		c-0.1,0.6-1.2,4.9-4.1,7.8c0.5,0.3,1,0.6,1.5,0.9c0.2-0.1,0.4-0.2,0.5-0.2c2.6-0.6,4.1-5,4.3-6.2c0.3-1.3,1.6-2.2,3-1.9
		c1.3,0.3,2.2,1.6,1.9,3c-0.2,0.7-1.4,5.9-5,8.6c0.6,0.5,1.2,0.9,1.8,1.4c1.9-1.3,3-4.5,3.3-5.7c0.3-1.3,1.6-2.2,3-1.9
		c1.3,0.3,2.2,1.6,1.9,3c-0.1,0.7-1.3,5.2-4.4,8C314,269.3,314.3,270.6,314.1,271.9z M257.2,402.3c1.3,2.4,1.4,5.4,0.1,7.9
		c-1.1,2.2-2.4,3.5-3.5,4.6c-7.1,7.6-19.2,11.5-36,11.5c-18.1,0-31-4.8-38.5-14.2c-1.9-2.4-2.4-5.7-1.2-8.6c0.3-0.6,0.6-1.2,1-1.7
		c-1.8-0.4-3.6-1-5.3-1.6c-2.6-0.9-5.2-1.9-4.7-4.4c0.5-2.4,3.1-2.2,3.9-2.2c3.7,0.1,14.9-2.8,22.3-4.8c3.3-0.9,6.1-1.6,8.1-2
		c5.3-1.2,11,0.9,14.5,2.6c3.5-1.7,9.2-3.8,14.5-2.6c2,0.4,4.8,1.2,8.1,2c7.4,2,18.6,4.9,22.3,4.8c0.9,0,3.5-0.1,3.9,2.2
		c0.5,2.5-2.2,3.5-4.8,4.4c-1.6,0.6-3.3,1.1-5,1.5C257,401.9,257.1,402.1,257.2,402.3z M119.1,260.2c-0.3-1.3,0.6-2.7,1.9-3
		c1.4-0.3,2.7,0.6,3,1.9c0.3,1.2,1.4,4.4,3.3,5.7c0.6-0.5,1.1-0.9,1.8-1.4c-3.6-2.7-4.9-7.9-5-8.6c-0.3-1.3,0.6-2.7,1.9-3
		c1.4-0.3,2.7,0.6,3,1.9c0.3,1.4,1.8,5.6,4.3,6.2c0.2,0,0.4,0.1,0.5,0.2c0.5-0.3,1-0.6,1.5-0.9c-2.9-2.8-4-7.1-4.1-7.8
		c-0.3-1.3,0.6-2.7,1.9-3c1.4-0.3,2.7,0.6,3,1.9c0.3,1.4,1.8,5.6,4.3,6.2c0.1,0,0.1,0,0.2,0.1c3.5-1.4,7.2-2.3,11.1-2.3
		c12.8,0,22.8,12.2,26.6,17.4c1.1,1.5,1.1,3.9,0,5.5c-0.9,1.3-2.4,1.9-3.9,1.5c-5.5-1.5-9.1-1-21,1.5c-2.1,0.4-4.1,0.6-6.2,0.6
		c-9.7,0-18.7-4.1-22.1-5.7c-1.4-0.6-2.3-1.9-2.6-3.3c-0.2-1.3,0.2-2.7,1-3.7C120.3,265.5,119.2,260.9,119.1,260.2z M195.9,314.4
		c0.7-1.2,2.2-1.7,3.4-1c1.2,0.7,1.7,2.2,1,3.4c-3.9,7.3,0.3,15.3,0.4,15.4c0.4,0.8,0.4,1.7,0,2.5s-1.3,1.2-2.1,1.2
		c-6.9,0-12.5,5.6-12.5,12.5s5.6,12.5,12.5,12.5c1.4,0,2.5,1.1,2.5,2.5s-1.1,2.5-2.5,2.5c-9.6,0-17.5-7.8-17.5-17.5
		c0-8.4,6-15.4,13.9-17.1C193.7,327.4,192.5,320.8,195.9,314.4z M203.2,350.3c1.2,0.5,5.4,3.2,4.8,5c-4.2,3.1-10.4-3.4-15.2-3.4
		C193.2,347.5,200.3,349.4,203.2,350.3z M185.3,249.2c-1,0.9-2.6,0.8-3.5-0.2c-11.6-13.2-28.1-16.5-49.2-9.7
		c-16.1,5.2-29,14.6-29.1,14.7c-0.4,0.3-1,0.5-1.5,0.5c-0.8,0-1.5-0.4-2-1c-0.8-1.1-0.6-2.7,0.5-3.5c0.5-0.4,13.5-9.9,30.4-15.4
		c22.9-7.4,41.8-3.5,54.6,11.1C186.4,246.8,186.3,248.3,185.3,249.2z M235.3,316.7c-0.7-1.2-0.2-2.7,1-3.4c1.2-0.7,2.7-0.2,3.4,1
		c3.5,6.4,2.3,13,1,16.8c7.9,1.7,13.9,8.7,13.9,17.1c0,9.6-7.8,17.5-17.5,17.5c-1.4,0-2.5-1.1-2.5-2.5s1.1-2.5,2.5-2.5
		c6.9,0,12.5-5.6,12.5-12.5s-5.6-12.5-12.5-12.5c-0.9,0-1.7-0.5-2.2-1.2c-0.4-0.8-0.5-1.7,0-2.5C234.9,332,239.2,324,235.3,316.7z
		 M242.8,352c-4.7,0-10.9,6.4-15.2,3.4c-0.6-1.8,3.6-4.5,4.8-5C235.3,349.4,242.4,347.5,242.8,352z M303.1,239.3
		c-21.1-6.8-37.6-3.5-49.2,9.7c-0.9,1-2.5,1.1-3.5,0.2c-1-0.9-1.1-2.5-0.2-3.5c12.9-14.7,31.8-18.5,54.6-11.1
		c16.9,5.4,29.9,15,30.4,15.4c1.1,0.8,1.3,2.4,0.5,3.5c-0.5,0.7-1.2,1-2,1c-0.5,0-1-0.2-1.5-0.5C332,253.9,319.2,244.5,303.1,239.3z
		 M32,270.9c0.7-1.2,2.3-1.5,3.4-0.8c0.3,0.2,8.5,5.3,16.5,13.8c10.7,11.6,15.8,23.9,14.7,35.8c-0.1,1.3-1.2,2.3-2.5,2.3
		c-0.1,0-0.2,0-0.2,0c-1.4-0.1-2.4-1.3-2.3-2.7c2.4-25.4-28.5-44.8-28.8-45C31.6,273.6,31.2,272.1,32,270.9z M37.2,344
		c-0.1-0.1-0.2-0.1-0.3-0.2c0.2-0.3,0.4-0.5,0.6-0.9c0,0,0,0,0,0C37.4,343.3,37.3,343.7,37.2,344z M69.9,432.5
		c0-0.1,0.1-0.2,0.1-0.2c0.2,0,0.4,0,0.6,0c0,0.2,0,0.3,0,0.5C70.4,432.6,70.1,432.5,69.9,432.5z M72.8,424.4l-0.7-0.7
		c-1-0.9-2.4-1.3-3.7-1.1c0.1-1.3-0.4-2.6-1.4-3.6l-0.7-0.7c-1-0.9-2.3-1.3-3.5-1.2c0.1-0.8,0-1.7-0.4-2.5l-0.4-0.9
		c-0.6-1.2-1.7-2.1-3-2.4c0.6-1.2,0.6-2.6,0.1-3.8l-0.4-0.9c-0.6-1.3-1.7-2.1-2.9-2.5c0.6-1.1,0.7-2.5,0.2-3.8l-0.4-0.9
		c-0.5-1.3-1.6-2.2-2.8-2.6c0.6-1.1,0.8-2.5,0.3-3.8l-0.4-0.9c-0.5-1.3-1.5-2.2-2.8-2.6c0.7-1.1,0.8-2.5,0.4-3.8l-0.3-0.9
		c-0.5-1.3-1.5-2.3-2.7-2.7c0.7-1.1,0.9-2.5,0.5-3.8l-0.3-0.9c-0.4-1.3-1.4-2.3-2.6-2.8c0.7-1.1,1-2.4,0.6-3.8l-0.3-0.9
		c-0.4-1.3-1.3-2.4-2.5-2.9c0.8-1.1,1-2.4,0.7-3.8l-0.3-1c-0.4-1.4-1.3-2.4-2.5-2.9c0.8-1,1.1-2.4,0.8-3.8l-0.2-0.9
		c-0.3-1.4-1.2-2.4-2.4-3c0.5-0.6,0.8-1.4,0.9-2.1c0.5,0.3,1,0.6,1.5,0.7c-0.6,1.2-0.6,2.6,0,3.9l0.4,0.9c0.6,1.3,1.7,2.1,3,2.4
		c-0.6,1.2-0.6,2.6,0,3.9l0.4,0.9c0.6,1.3,1.7,2.1,3,2.4c-0.6,1.2-0.6,2.6,0,3.9l0.4,0.9c0.6,1.3,1.8,2.1,3,2.4
		c-0.6,1.2-0.6,2.6,0,3.9l0.4,0.9c0.6,1.3,1.8,2.1,3.1,2.4c-0.5,1.2-0.6,2.6,0.1,3.9l0.5,0.9c0.6,1.3,1.8,2.1,3.1,2.4
		c-0.5,1.2-0.5,2.6,0.1,3.9l0.5,0.9c0.7,1.3,1.8,2.1,3.1,2.3c-0.5,1.2-0.5,2.7,0.2,3.9l0.5,0.9c0.7,1.3,1.9,2,3.2,2.3
		c-0.5,1.2-0.4,2.7,0.3,3.9l0.5,0.9c0.7,1.2,1.9,2,3.2,2.2c-0.5,1.2-0.4,2.7,0.4,3.9l0.5,0.9c0.7,1.2,2,2,3.3,2.1
		c-0.4,1.3-0.3,2.7,0.5,3.9l0.6,0.9c0.8,1.2,2,1.9,3.4,2c-0.4,1.3-0.2,2.7,0.6,3.9l0.6,0.8c0.8,1.2,2.1,1.8,3.4,1.9
		c-0.4,1.3-0.1,2.7,0.7,3.9l0.6,0.8c0.9,1.2,2.2,1.8,3.5,1.8c-0.3,1.3,0,2.7,0.9,3.9l0.4,0.4c-1-0.5-2-0.6-3-0.4
		c0-1.3-0.6-2.6-1.7-3.4L84,434c-1.1-0.9-2.5-1.2-3.7-0.9c0-1.3-0.5-2.6-1.6-3.5l-0.7-0.6c-1.1-0.9-2.4-1.2-3.7-1
		C74.3,426.6,73.8,425.3,72.8,424.4z M323.9,482.5l-0.7,0.7c-1,0.9-1.5,2.2-1.5,3.5c-1.3-0.2-2.6,0.1-3.7,1l-0.8,0.6
		c-1.1,0.9-1.6,2.2-1.6,3.4c-1.3-0.3-2.6,0-3.7,0.9l-0.8,0.6c-1.1,0.8-1.7,2.1-1.7,3.4c-1.2-0.3-2.6-0.1-3.7,0.7l-0.8,0.6
		c-1.1,0.8-1.8,2-1.9,3.3c-1.2-0.4-2.6-0.2-3.8,0.5l-0.8,0.5c-1.2,0.7-1.9,1.9-2,3.2c-1.2-0.4-2.6-0.3-3.8,0.4l-0.8,0.5
		c-1.2,0.7-2,1.8-2.2,3.1c-1.2-0.5-2.6-0.5-3.8,0.2l-0.9,0.4c-1.2,0.6-2,1.8-2.3,3c-1.2-0.5-2.5-0.6-3.8,0l-0.9,0.4
		c-1.3,0.6-2.1,1.6-2.5,2.9c-1.1-0.6-2.5-0.7-3.8-0.2l-0.9,0.4c-1.3,0.5-2.2,1.5-2.6,2.7c-1.1-0.7-2.5-0.8-3.8-0.4l-0.9,0.3
		c-1.3,0.4-2.3,1.4-2.7,2.6c-1.1-0.7-2.4-1-3.7-0.6l-0.9,0.3c-1.3,0.4-2.3,1.3-2.9,2.4c-1-0.8-2.4-1.1-3.7-0.8l-1,0.2
		c-1.3,0.3-2.4,1.2-3,2.3c-1-0.8-2.3-1.2-3.7-1l-1,0.2c-1.4,0.2-2.5,1-3.1,2.1c-0.9-0.9-2.2-1.3-3.6-1.2l-1,0.1
		c-1.4,0.2-2.5,0.9-3.2,1.9c-0.9-0.9-2.1-1.5-3.5-1.4l-1,0.1c-1.4,0.1-2.6,0.8-3.3,1.8c-0.8-1-2-1.6-3.4-1.6h0l-1,0
		c-1.4,0-2.6,0.6-3.4,1.6c-0.8-1-2-1.7-3.4-1.7l-1,0c-0.1,0-0.2,0-0.3,0c-1.3,0-2.4,0.5-3.3,1.4c-0.7-1-1.9-1.8-3.2-1.9l-1-0.1
		c-1.4-0.1-2.7,0.3-3.6,1.2c-0.7-1.1-1.8-1.9-3.2-2.1l-0.9-0.2c-1.4-0.2-2.7,0.2-3.7,1c-0.6-1.1-1.7-2-3-2.3l-0.9-0.2
		c-1.3-0.3-2.7,0-3.7,0.8c-0.5-1.2-1.6-2.1-2.9-2.4l-0.9-0.3c-1.3-0.4-2.7-0.1-3.7,0.6c-0.5-1.2-1.5-2.1-2.8-2.6l-0.9-0.3
		c-1.3-0.4-2.7-0.2-3.7,0.4c-0.4-1.2-1.3-2.2-2.6-2.7l-0.9-0.4c-1.3-0.5-2.7-0.4-3.8,0.2c-0.4-1.2-1.2-2.3-2.5-2.9l-0.9-0.4
		c-1.3-0.6-2.6-0.5-3.8,0c-0.3-1.2-1.1-2.4-2.3-3l-0.9-0.4c-1.2-0.6-2.6-0.6-3.8-0.1c-0.2-1.3-1-2.4-2.2-3.1l-0.8-0.5
		c-1.2-0.7-2.6-0.8-3.8-0.3c-0.2-1.3-0.9-2.5-2.1-3.2l-0.8-0.5c-1.2-0.7-2.5-0.9-3.8-0.5c-0.1-1.3-0.8-2.5-1.9-3.3l-0.8-0.6
		c-1.1-0.8-2.5-1-3.7-0.7c-0.1-1.3-0.7-2.5-1.8-3.4l-0.8-0.6c-1.1-0.8-2.5-1.1-3.7-0.8c0-1.3-0.6-2.6-1.6-3.4l-0.8-0.6
		c-1.1-0.9-2.4-1.2-3.7-1c0-1.3-0.5-2.6-1.5-3.5l-0.7-0.7c-1-0.9-2.3-1.3-3.6-1.1c0.1-1.3-0.3-2.6-1.3-3.6l-0.7-0.7
		c-1-1-2.3-1.4-3.6-1.3c0.1-1.3-0.2-2.6-1.2-3.6l-0.7-0.7c-0.9-1-2.2-1.5-3.5-1.4c0.2-1.3-0.1-2.6-1.1-3.7l-0.6-0.7
		c-0.9-1-2.2-1.6-3.5-1.5c0.2-1.3,0-2.6-0.9-3.7l-0.6-0.8c-0.9-1.1-2.1-1.6-3.4-1.7c0.3-1.3,0-2.6-0.8-3.7l-0.6-0.8
		c-0.8-1.1-2.1-1.7-3.4-1.8c0.3-1.2,0.1-2.6-0.7-3.8l-0.6-0.8c-0.8-1.1-2-1.8-3.3-1.9c0.4-1.2,0.2-2.6-0.5-3.8l-0.5-0.8
		c-0.8-1.2-2-1.9-3.2-2c0.2-0.7,0.3-1.3,0.2-2c0.8,0.3,1.7,0.4,2.5,0.2c0,1.3,0.5,2.6,1.7,3.6l0.8,0.6c1.1,0.9,2.5,1.2,3.8,0.9
		c0,1.3,0.6,2.6,1.7,3.5l0.8,0.6c1.1,0.9,2.5,1.1,3.8,0.8c0,1.3,0.7,2.6,1.8,3.5l0.8,0.6c1.1,0.8,2.6,1.1,3.8,0.7
		c0.1,1.3,0.7,2.6,1.9,3.4l0.8,0.6c1.2,0.8,2.6,1,3.9,0.6c0.1,1.3,0.8,2.6,2,3.4l0.8,0.6c1.2,0.8,2.6,1,3.9,0.5
		c0.1,1.3,0.8,2.6,2,3.3l0.9,0.5c1.2,0.8,2.6,0.9,3.9,0.5c0.2,1.3,0.9,2.6,2.1,3.3l0.9,0.5c1.2,0.7,2.7,0.8,3.9,0.4
		c0.2,1.3,1,2.5,2.2,3.2l0.9,0.5c1.2,0.7,2.7,0.8,3.9,0.3c0.2,1.3,1,2.5,2.3,3.2l0.9,0.5c1.3,0.7,2.7,0.7,3.9,0.1
		c0.3,1.3,1.1,2.5,2.4,3.1l0.9,0.4c1.3,0.6,2.7,0.6,3.9,0c0.3,1.3,1.2,2.4,2.5,3l0.9,0.4c1.3,0.6,2.7,0.5,3.9-0.1
		c0.3,1.3,1.3,2.4,2.6,3l0.9,0.4c1.3,0.6,2.8,0.4,3.9-0.2c0.4,1.3,1.3,2.4,2.7,2.9l1,0.4c1.3,0.5,2.8,0.3,3.9-0.3
		c0.4,1.3,1.4,2.3,2.8,2.8l1,0.3c1.4,0.5,2.8,0.3,3.9-0.5c0.5,1.2,1.5,2.3,2.9,2.7l1,0.3c1.4,0.4,2.8,0.2,3.9-0.6
		c0.5,1.2,1.6,2.2,3,2.6l1,0.3c1.4,0.4,2.8,0.1,3.9-0.7c0.6,1.2,1.7,2.2,3.1,2.5l1,0.2c1.4,0.3,2.8-0.1,3.8-0.9
		c0.6,1.2,1.7,2.1,3.2,2.4l1,0.2c1.4,0.3,2.8-0.2,3.8-1c0.7,1.2,1.8,2,3.2,2.2l1,0.1c1.4,0.2,2.8-0.3,3.8-1.2c0.7,1.1,1.9,2,3.3,2.1
		l1,0.1c1.4,0.1,2.8-0.4,3.7-1.4c0.8,1.1,2,1.9,3.4,2l1,0.1c1.4,0.1,2.8-0.5,3.6-1.5c0.8,1.1,2.1,1.8,3.5,1.8l1,0c0,0,0,0,0.1,0
		c1.4,0,2.7-0.7,3.5-1.7c0.8,1,2.1,1.7,3.5,1.7c0,0,0.1,0,0.1,0l1,0c1.4,0,2.7-0.8,3.5-1.8c0.1,0.1,0.2,0.2,0.3,0.3
		c0.9,0.9,2.1,1.5,3.5,1.5c1.8,0,3.4-1,4.2-2.5c0.8,0.9,2,1.5,3.3,1.5c0.2,0,0.3,0,0.5,0l1-0.1c1.4-0.2,2.6-1,3.3-2.2
		c1,0.9,2.4,1.4,3.8,1.1l1-0.2c1.4-0.2,2.6-1.1,3.2-2.3c1,0.9,2.4,1.3,3.8,1l1-0.2c1.4-0.3,2.5-1.3,3.1-2.5c1.1,0.8,2.5,1.1,3.9,0.8
		l1-0.3c1.4-0.4,2.5-1.4,3-2.6c1.1,0.8,2.5,1,3.9,0.6l1-0.3c1.4-0.4,2.4-1.5,2.8-2.7c1.1,0.7,2.6,0.9,3.9,0.4l1-0.4
		c1.4-0.5,2.3-1.6,2.7-2.9c1.2,0.7,2.6,0.8,4,0.2l0.9-0.4c1.3-0.6,2.3-1.7,2.6-3c1.2,0.6,2.6,0.7,4,0.1l0.9-0.4
		c1.3-0.6,2.2-1.8,2.5-3.1c1.2,0.6,2.7,0.6,3.9-0.1l0.9-0.5c1.3-0.7,2.1-1.9,2.3-3.2c0.6,0.2,1.2,0.3,1.9,0.3
		C324.7,481.8,324.3,482.1,323.9,482.5z M93.5,442.8c-0.3,0-0.5,0-0.8,0.1c0-1-0.4-1.9-1-2.7c0.5,0.2,1.1,0.3,1.7,0.3
		C93.2,441.3,93.3,442.1,93.5,442.8z M327.5,481.3c-0.2,0-0.5,0-0.7,0c0.2-0.1,0.3-0.2,0.5-0.2l0.2-0.1
		C327.5,481,327.5,481.2,327.5,481.3z M403.2,311.5c-1.1,0.7-1.8,1.9-2,3.3l-0.1,1c-0.1,1.4,0.4,2.7,1.3,3.6c-1.1,0.7-1.9,1.9-2,3.2
		l-0.1,1c-0.2,1.4,0.3,2.7,1.2,3.7c-1.1,0.7-1.9,1.8-2.1,3.2l-0.1,1c-0.2,1.4,0.2,2.7,1.1,3.7c-1.1,0.6-2,1.8-2.2,3.1l-0.2,1
		c-0.2,1.4,0.2,2.7,1,3.7c-1.1,0.6-2,1.7-2.3,3.1l-0.2,1c-0.3,1.4,0.1,2.7,0.9,3.7c-1.2,0.6-2.1,1.7-2.4,3l-0.2,0.9
		c-0.3,1.4,0,2.7,0.8,3.8c-1.2,0.6-2.1,1.6-2.4,3l-0.2,0.9c-0.4,1.4-0.1,2.7,0.7,3.8c-1.2,0.5-2.1,1.5-2.5,2.9l-0.3,0.9
		c-0.4,1.3-0.1,2.7,0.6,3.8c-1.2,0.5-2.2,1.5-2.6,2.8l-0.3,0.9c-0.4,1.3-0.2,2.7,0.5,3.8c-1.2,0.5-2.2,1.4-2.7,2.7l-0.3,0.9
		c-0.5,1.3-0.3,2.7,0.4,3.8c-1.2,0.4-2.3,1.4-2.7,2.7l-0.4,0.9c-0.5,1.3-0.3,2.7,0.3,3.8c-1.2,0.4-2.3,1.3-2.8,2.6l-0.4,0.9
		c-0.5,1.3-0.4,2.7,0.2,3.8c-1.2,0.4-2.3,1.2-2.9,2.5l-0.4,0.9c-0.6,1.3-0.5,2.7,0.1,3.8c-1.3,0.3-2.4,1.2-3,2.4l-0.4,0.9
		c-0.6,1.2-0.6,2.6,0,3.8c-1.3,0.3-2.4,1.1-3,2.3l-0.5,0.9c-0.6,1.2-0.7,2.6-0.2,3.8c-1.3,0.2-2.4,1-3.1,2.2l-0.5,0.9
		c-0.7,1.2-0.7,2.6-0.3,3.8c-1.3,0.2-2.5,0.9-3.2,2.1l-0.5,0.8c-0.7,1.2-0.8,2.6-0.4,3.8c-1.3,0.2-2.5,0.9-3.2,2l-0.5,0.8
		c-0.8,1.2-0.9,2.5-0.5,3.8c-1.3,0.1-2.5,0.8-3.3,1.9l-0.6,0.8c-0.8,1.1-1,2.5-0.7,3.8c-1.3,0.1-2.5,0.7-3.4,1.8l-0.6,0.8
		c-0.3,0.4-0.5,0.8-0.6,1.2l-0.2,0.2c-0.9,0.7-1.4,1.7-1.6,2.7c-0.4,0.2-0.7,0.3-1.1,0.6c-1,0-1.9,0.3-2.7,0.9l-0.8,0.6
		c-1.1,0.8-1.7,2.1-1.8,3.4c-1.2-0.3-2.6-0.1-3.8,0.7l-0.8,0.5c-1.1,0.8-1.8,2-1.9,3.3c-1.2-0.4-2.6-0.2-3.8,0.5l-0.8,0.5
		c-1.2,0.7-1.9,1.9-2,3.2c-1.2-0.4-2.6-0.3-3.8,0.4l-0.8,0.5c-1.2,0.7-2,1.9-2.2,3.1c-1.2-0.5-2.6-0.4-3.8,0.2l-0.8,0.4
		c-1.2,0.6-2,1.8-2.3,3c-1.2-0.5-2.6-0.6-3.8,0l-0.9,0.4c-1.3,0.6-2.1,1.7-2.4,2.9c-1.1-0.6-2.5-0.7-3.8-0.1l-0.9,0.4
		c-1.3,0.5-2.2,1.6-2.6,2.8c-1.1-0.6-2.5-0.8-3.8-0.3l-0.9,0.3c-1.3,0.5-2.2,1.5-2.7,2.7c-1.1-0.7-2.5-0.9-3.8-0.5l-0.9,0.3
		c-1.3,0.4-2.3,1.4-2.8,2.6c-1.1-0.7-2.4-1-3.7-0.6l-0.9,0.2c-1.3,0.4-2.4,1.3-2.9,2.4c-1-0.8-2.4-1.1-3.7-0.8l-0.9,0.2
		c-1.4,0.3-2.4,1.2-3,2.3c-1-0.8-2.3-1.2-3.7-1l-0.9,0.2c-1.4,0.2-2.5,1-3.1,2.1c-0.9-0.9-2.2-1.3-3.6-1.2l-0.9,0.1
		c-1.4,0.2-2.6,1-3.3,2.1c-0.9-1.1-2.2-1.8-3.7-1.8c-1.4,0-2.7,0.6-3.6,1.6c-0.2,0.2-0.4,0.4-0.5,0.6c-0.9-1-2.1-1.5-3.5-1.5l-1,0
		c-1.4,0-2.6,0.7-3.4,1.7c-0.8-1-2-1.6-3.4-1.7l-1,0c-1.4,0-2.6,0.6-3.5,1.5c-0.8-1-2-1.7-3.3-1.8l-1-0.1c-1.4-0.1-2.6,0.5-3.5,1.4
		c-0.7-1.1-1.9-1.8-3.3-2l-1-0.1c-1.4-0.1-2.7,0.3-3.6,1.2c-0.7-1.1-1.8-1.9-3.2-2.1l-1-0.1c-1.4-0.2-2.7,0.2-3.6,1.1
		c-0.6-1.1-1.7-2-3.1-2.2l-1-0.2c-1.4-0.3-2.7,0.1-3.7,0.9c-0.6-1.1-1.7-2-3-2.3l-0.9-0.2c-1.4-0.3-2.7,0-3.7,0.8
		c-0.5-1.2-1.6-2.1-2.9-2.5l-1-0.3c-1.3-0.4-2.7-0.1-3.8,0.6c-0.5-1.2-1.5-2.2-2.8-2.6l-0.9-0.3c-1.3-0.4-2.7-0.2-3.8,0.5
		c-0.5-1.2-1.4-2.2-2.7-2.7l-0.9-0.3c-1.3-0.5-2.7-0.3-3.8,0.4c-0.4-1.2-1.4-2.3-2.7-2.8l-0.9-0.4c-1.3-0.5-2.7-0.4-3.8,0.3
		c-0.4-1.2-1.3-2.3-2.6-2.8l-0.9-0.4c-1.3-0.5-2.7-0.5-3.8,0.1c-0.3-1.2-1.2-2.3-2.5-2.9l-0.9-0.4c-1.3-0.6-2.7-0.5-3.8,0
		c-0.3-1.3-1.1-2.4-2.4-3l-0.9-0.4c-1.2-0.6-2.6-0.6-3.8-0.1c-0.3-1.3-1.1-2.4-2.3-3.1l-0.9-0.5c-1.2-0.7-2.6-0.7-3.8-0.2
		c0-0.1-0.1-0.2-0.1-0.3c-0.1-1.3-0.7-2.5-1.8-3.3l-0.8-0.6c-1.1-0.8-2.5-1-3.7-0.7c0-1.3-0.6-2.5-1.7-3.4l-0.8-0.6
		c-1.1-0.9-2.4-1.2-3.7-0.9c0-1.3-0.5-2.6-1.5-3.5l-0.7-0.6c-1-0.9-2.4-1.3-3.6-1.1c0.1-1.3-0.4-2.6-1.4-3.5l-0.7-0.7
		c-1-1-2.3-1.4-3.6-1.2c0.1-1.3-0.3-2.6-1.2-3.6l-0.7-0.7c-0.9-1-2.2-1.5-3.5-1.4c0.2-1.3-0.2-2.6-1.1-3.6l-0.6-0.7
		c-0.9-1-2.2-1.6-3.5-1.5c0.2-1.3,0-2.6-0.9-3.7l-0.6-0.8c-0.9-1.1-2.1-1.7-3.4-1.7c0.3-1.3,0.1-2.6-0.8-3.7l-0.6-0.8
		c-0.8-1.1-2.1-1.7-3.4-1.8c0.3-1.2,0.1-2.6-0.6-3.8l-0.6-0.8c-0.8-1.1-2-1.8-3.3-1.9c0.4-1.2,0.2-2.6-0.5-3.8l-0.5-0.8
		c-0.8-1.2-2-1.9-3.3-2c0.4-1.2,0.3-2.6-0.4-3.8l-0.5-0.8c-0.7-1.2-1.9-1.9-3.2-2.1c0.5-1.2,0.4-2.6-0.3-3.8l-0.5-0.9
		c-0.7-1.2-1.9-2-3.2-2.2c0.5-1.2,0.4-2.6-0.2-3.8l-0.5-0.9c-0.7-1.2-1.8-2-3.1-2.3c0.5-1.2,0.5-2.6-0.2-3.8l-0.5-0.9
		c-0.6-1.2-1.8-2.1-3.1-2.3c0.5-1.2,0.5-2.6-0.1-3.9l-0.4-0.9c-0.6-1.3-1.8-2.1-3-2.4c0.5-1.2,0.6-2.6,0-3.9l-0.4-0.9
		c-0.6-1.3-1.8-2.1-3-2.4c0.6-1.2,0.6-2.6,0-3.9l-0.4-0.9c-0.6-1.3-1.7-2.1-3-2.4c0.6-1.2,0.6-2.6,0-3.9l-0.4-0.9
		c-0.6-1.3-1.7-2.1-3-2.4c0.6-1.2,0.6-2.6,0-3.9l-0.4-0.9c-0.6-1.3-1.7-2.1-3-2.4c0.6-1.2,0.6-2.6,0-3.9l-0.4-0.9
		c-0.6-1.3-1.8-2.1-3.1-2.4c0.6-1.2,0.6-2.6-0.1-3.9l-0.4-0.9c-0.6-1.3-1.8-2.1-3.1-2.4c0.5-1.2,0.5-2.6-0.1-3.9l-0.5-0.9
		c-0.6-1.2-1.8-2-3-2.3c0.1-0.3,0.1-0.6,0.1-0.9c0.2-1,0-2.1-0.5-3l-0.4-0.7c-0.3-0.5-0.7-1-1.2-1.3c0.8-0.9,1.2-2.1,1.1-3.5l-0.1-1
		c-0.1-1.4-0.9-2.6-2-3.3c0.9-0.9,1.5-2.2,1.4-3.6l-0.1-1c-0.1-1.4-0.8-2.6-1.9-3.3c0.6-0.6,1-1.3,1.3-2.1
		c5.6,7.2,11,14.6,13.4,21.9c4.7,14.4,19.8,30.2,25.5,17.3c0.4-2.6,1.7-6.6,5.2-5.7c7.1,66.6,49.6,144.5,140.3,144.6v0
		c0,0,0.1,0,0.1,0c0,0,0.1,0,0.1,0v0c90.7-0.1,133.2-78,140.3-144.6c3.6-0.9,4.9,3.2,5.2,5.7c5.8,12.9,20.8-2.9,25.5-17.3
		c2.5-7.5,8-15,13.7-22.3c0.3,0.5,0.6,1,1,1.4c-1.1,0.8-1.8,1.9-1.9,3.3l-0.1,1C401.7,309.3,402.2,310.6,403.2,311.5z M402.8,274.3
		c-0.3,0.2-31.2,19.5-28.8,45c0.1,1.4-0.9,2.6-2.3,2.7c-0.1,0-0.2,0-0.2,0c-1.3,0-2.4-1-2.5-2.3c-1.1-11.9,4-24.3,14.7-35.8
		c8-8.6,16.2-13.6,16.5-13.8c1.2-0.7,2.7-0.4,3.4,0.8C404.4,272.1,404,273.6,402.8,274.3z"/>
	<path d="M122.5,271.9c0.2,1.5,1.2,2.7,2.6,3.3c3.4,1.5,12.4,5.7,22.1,5.7c2,0,4.1-0.2,6.2-0.6c11.9-2.5,15.5-2.9,21-1.5
		c1.5,0.4,3-0.2,3.9-1.5c1.1-1.6,1.1-4,0-5.5c-3.7-5.2-13.8-17.4-26.6-17.4c-3.9,0-7.6,0.9-11.1,2.3c-0.1,0-0.1-0.1-0.2-0.1
		c-2.5-0.6-4-4.8-4.3-6.2c-0.3-1.3-1.6-2.2-3-1.9c-1.3,0.3-2.2,1.6-1.9,3c0.1,0.6,1.2,4.9,4.1,7.8c-0.5,0.3-1,0.6-1.5,0.9
		c-0.2-0.1-0.4-0.2-0.5-0.2c-2.5-0.6-4-4.8-4.3-6.2c-0.3-1.3-1.6-2.2-3-1.9c-1.3,0.3-2.2,1.6-1.9,3c0.2,0.7,1.4,5.9,5,8.6
		c-0.6,0.5-1.2,0.9-1.8,1.4c-1.9-1.3-3-4.5-3.3-5.7c-0.3-1.3-1.6-2.2-3-1.9c-1.3,0.3-2.2,1.6-1.9,3c0.1,0.7,1.3,5.2,4.4,8
		C122.6,269.3,122.2,270.6,122.5,271.9z M173.1,273.4c-4.3-0.8-8.1-0.5-14.7,0.7c1.5-1.6,2.4-3.8,2.4-6.2c0-3.2-1.6-6-4.1-7.7
		C164.1,262.7,170,269.3,173.1,273.4z M129.2,269.8c0.1-0.1,0.3-0.2,0.4-0.3c3.9-3.3,10.3-7.9,17.4-9.5c-2.7,1.6-4.6,4.6-4.6,8
		c0,3.4,1.8,6.3,4.5,7.9c-8-0.1-15.6-3.3-19.1-4.9C128.2,270.6,128.7,270.2,129.2,269.8z"/>
	<path d="M317.5,260.2c0.3-1.3-0.6-2.7-1.9-3c-1.3-0.3-2.7,0.6-3,1.9c-0.3,1.2-1.4,4.4-3.3,5.7c-0.6-0.5-1.1-0.9-1.8-1.4
		c3.6-2.7,4.9-7.9,5-8.6c0.3-1.3-0.6-2.7-1.9-3c-1.3-0.3-2.7,0.6-3,1.9c-0.3,1.1-1.7,5.6-4.3,6.2c-0.2,0-0.4,0.1-0.5,0.2
		c-0.5-0.3-1-0.6-1.5-0.9c2.9-2.8,4-7.1,4.1-7.8c0.3-1.3-0.6-2.7-1.9-3c-1.3-0.3-2.7,0.6-3,1.9c-0.3,1.4-1.8,5.6-4.3,6.2
		c-0.1,0-0.1,0-0.2,0.1c-3.5-1.4-7.2-2.3-11.1-2.3c-12.8,0-22.8,12.2-26.6,17.4c-1.1,1.5-1.1,3.9,0,5.5c0.9,1.3,2.4,1.9,3.9,1.5
		c5.5-1.5,9.1-1,21,1.5c2.1,0.4,4.1,0.6,6.2,0.6c9.7,0,18.7-4.1,22.1-5.7c1.4-0.6,2.3-1.9,2.6-3.3c0.2-1.3-0.2-2.7-1-3.7
		C316.3,265.5,317.4,260.9,317.5,260.2z M278.1,274.2c-4.1-0.8-7.2-1.2-9.9-1.2c-1.6,0-3.2,0.1-4.7,0.4c3.1-4.1,9.1-10.8,16.3-13.1
		c-2.4,1.7-4.1,4.5-4.1,7.7C275.7,270.4,276.6,272.5,278.1,274.2z M289.7,275.9c2.7-1.6,4.5-4.6,4.5-7.9c0-3.4-1.8-6.4-4.6-8
		c7.1,1.5,13.5,6.1,17.4,9.4c0.1,0.1,0.2,0.2,0.4,0.3c0.5,0.4,1,0.9,1.4,1.2C305.3,272.6,297.7,275.8,289.7,275.9z"/>
	<path d="M32.8,274.3c0.3,0.2,31.2,19.5,28.8,45c-0.1,1.4,0.9,2.6,2.3,2.7c0.1,0,0.2,0,0.2,0c1.3,0,2.4-1,2.5-2.3
		c1.1-11.9-4-24.3-14.7-35.8c-8-8.6-16.2-13.6-16.5-13.8c-1.2-0.7-2.7-0.4-3.4,0.8C31.2,272.1,31.6,273.6,32.8,274.3z"/>
	<path d="M400.2,270.1c-0.3,0.2-8.5,5.3-16.5,13.8c-10.7,11.6-15.8,23.9-14.7,35.8c0.1,1.3,1.2,2.3,2.5,2.3c0.1,0,0.2,0,0.2,0
		c1.4-0.1,2.4-1.3,2.3-2.7c-2.4-25.4,28.5-44.8,28.8-45c1.2-0.7,1.5-2.3,0.8-3.4C402.9,269.7,401.4,269.4,400.2,270.1z"/>
	<path d="M130.9,234.6c-16.9,5.4-29.9,15-30.4,15.4c-1.1,0.8-1.3,2.4-0.5,3.5c0.5,0.7,1.2,1,2,1c0.5,0,1-0.2,1.5-0.5
		c0.1-0.1,12.9-9.5,29.1-14.7c21.1-6.8,37.6-3.5,49.2,9.7c0.9,1,2.5,1.1,3.5,0.2s1.1-2.5,0.2-3.5
		C172.7,231.1,153.8,227.2,130.9,234.6z"/>
	<path d="M333.6,254.5c0.8,0,1.5-0.4,2-1c0.8-1.1,0.6-2.7-0.5-3.5c-0.5-0.4-13.5-9.9-30.4-15.4c-22.9-7.4-41.8-3.5-54.6,11.1
		c-0.9,1-0.8,2.6,0.2,3.5c1,0.9,2.6,0.8,3.5-0.2c11.6-13.2,28.2-16.5,49.2-9.7c16.1,5.2,29,14.6,29.1,14.7
		C332.6,254.3,333.1,254.5,333.6,254.5z"/>
</g>
</svg>
