<?xml version="1.0" encoding="utf-8"?>
<!-- Generator: Adobe Illustrator 25.4.1, SVG Export Plug-In . SVG Version: 6.00 Build 0)  -->
<svg version="1.1" id="Capa_1" xmlns="http://www.w3.org/2000/svg" xmlns:xlink="http://www.w3.org/1999/xlink" x="0px" y="0px"
	 viewBox="0 0 435.6 566.5" style="enable-background:new 0 0 435.6 566.5;" xml:space="preserve">
<style type="text/css">
	.st0{fill:none;}
	.st1{fill:#BCBEC0;}
</style>
<g>
	<path class="st0" d="M380.6,178.4c-0.1,0-0.2-0.1-0.3-0.2c0,0.2,0.1,0.3,0.1,0.5C380.5,178.6,380.5,178.5,380.6,178.4z"/>
	<path class="st0" d="M378.7,170.8C378.7,170.8,378.7,170.8,378.7,170.8C378.6,170.8,378.6,170.8,378.7,170.8
		C378.7,170.8,378.7,170.8,378.7,170.8z"/>
	<path class="st0" d="M52,275.1c-0.5-0.2-0.9-0.6-1.3-0.9c0.3,0.5,0.6,1,0.9,1.5c0.1-0.1,0.2-0.2,0.2-0.3c0,0,0,0,0-0.1
		C51.9,275.3,52,275.2,52,275.1z"/>
	<path class="st0" d="M383.4,193.8c-0.3-0.2-0.5-0.4-0.8-0.6c0.1,0.5,0.1,0.9,0.2,1.4C383,194.4,383.2,194.1,383.4,193.8z"/>
	<path class="st0" d="M384.4,201.6c-0.4-0.2-0.7-0.6-1-0.9c0,0.1,0,0.2,0,0.3c0.3,0.3,0.5,0.6,0.8,0.9
		C384.3,201.8,384.3,201.7,384.4,201.6z"/>
	<path class="st0" d="M382.2,186.1c-0.2-0.1-0.4-0.2-0.5-0.4c0,0.3,0.1,0.6,0.1,0.9C381.9,186.4,382,186.2,382.2,186.1z"/>
	<path class="st0" d="M382.5,256.1c0,0.3,0,0.5,0,0.8c0.1-0.1,0.3-0.2,0.4-0.3C382.8,256.4,382.6,256.2,382.5,256.1z"/>
	<path class="st0" d="M383.2,248.6c-0.3-0.3-0.6-0.6-0.8-0.9c0,0.5,0,1,0,1.8C382.6,249.1,382.9,248.8,383.2,248.6z"/>
	<path class="st0" d="M382.9,240.6c0,0.2,0,0.3,0,0.4c0.1-0.1,0.2-0.2,0.3-0.3C383.1,240.7,383,240.6,382.9,240.6z"/>
	<path class="st1" d="M271.3,293c0.2,0.1,0.5,0.2,0.7,0.3c-1.1-1.3-1.7-2.9-1.7-4.6c0-1.8,0.6-3.4,1.7-4.6
		c-5.8,1.7-10.8,6.2-14.2,10c4.3-1.5,6.7-2.1,8.7-2.1C268,291.9,269.4,292.3,271.3,293z"/>
	<path class="st1" d="M420.5,274.2c-3-5.7-9.2-15.1-16.8-15.1c-5.3,0-10.4,4.6-14.2,9.1c-0.1-1-0.5-2-1.2-2.8c1.1-0.7,2-1.9,2.2-3.3
		l0.1-1c0.2-1.4-0.3-2.8-1.2-3.7c1.1-0.7,1.9-1.9,2.1-3.3l0.1-1c0.1-1.4-0.4-2.8-1.3-3.7c1.1-0.7,1.9-2,2-3.4l0.1-1
		c0.1-1.4-0.5-2.7-1.4-3.6c1.1-0.8,1.8-2,1.9-3.5l0-1c0.1-1.4-0.6-2.7-1.6-3.6c1.1-0.8,1.7-2.1,1.8-3.5l0-1c0-1.4-0.6-2.7-1.7-3.6
		c1-0.8,1.7-2.1,1.7-3.6l0-1c0-1.4-0.7-2.7-1.8-3.5c1-0.9,1.6-2.2,1.6-3.6l0-1c-0.1-1.4-0.8-2.7-1.9-3.4c1-0.9,1.5-2.2,1.4-3.7
		l-0.1-1c-0.1-1.4-0.9-2.6-2-3.4c0.9-0.9,1.5-2.3,1.3-3.7l-0.1-1c-0.2-1.4-1-2.6-2.1-3.3c0.9-1,1.4-2.3,1.1-3.8l-0.2-1
		c-0.2-1.4-1.1-2.6-2.3-3.2c0.9-1,1.3-2.4,1-3.8l-0.2-1c-0.3-1.4-1.2-2.5-2.4-3.1c0.8-1.1,1.2-2.5,0.8-3.9l-0.2-1
		c-0.4-1.4-1.3-2.5-2.5-3c0.8-1.1,1.1-2.5,0.6-3.9l-0.3-1c-0.4-1.4-1.4-2.4-2.7-2.9c0.7-1.1,0.9-2.6,0.5-3.9l-0.3-1
		c-0.5-1.4-1.6-2.3-2.8-2.8c0.7-1.2,0.8-2.6,0.3-3.9L379,149c-0.6-1.3-1.7-2.3-3-2.6c0.6-1.2,0.7-2.7,0-4l-0.5-0.9
		c-0.6-1.3-1.8-2.2-3.1-2.4c0.5-1.2,0.5-2.7-0.2-4l-0.5-0.9c-0.7-1.3-1.9-2.1-3.3-2.3c0.5-1.3,0.4-2.7-0.4-3.9l-0.6-0.9
		c-0.8-1.2-2.1-1.9-3.4-2.1c0.4-1.3,0.2-2.7-0.7-3.9l-0.6-0.8c-0.9-1.2-2.2-1.8-3.5-1.8c0.3-1.3,0-2.7-0.9-3.9l-0.7-0.8
		c-0.9-1.1-2.3-1.7-3.6-1.6c0.2-1.3-0.2-2.7-1.2-3.8l-0.7-0.8c-1-1-2.4-1.5-3.7-1.4c0.1-1.3-0.3-2.7-1.4-3.7l-0.8-0.7
		c-1.1-1-2.5-1.4-3.8-1.1c0-1.3-0.5-2.7-1.6-3.6l-0.8-0.7c-1.1-0.9-2.6-1.2-3.9-0.9c0-1.3-0.7-2.7-1.9-3.5l-0.8-0.6
		c-1.2-0.8-2.6-1-3.9-0.6c-0.1-1.3-0.8-2.6-2.1-3.4l-0.9-0.5c-1.2-0.8-2.7-0.9-3.9-0.4c-0.2-1.3-1-2.5-2.3-3.2l-0.9-0.5
		c-1.3-0.7-2.7-0.7-4-0.2c-0.3-1.3-1.1-2.5-2.4-3.1l-0.9-0.4c-1.3-0.6-2.8-0.6-4,0c-0.3-1.3-1.3-2.4-2.6-3l-0.9-0.4
		c-1.3-0.6-2.8-0.4-3.9,0.2c-0.4-1.3-1.4-2.3-2.7-2.8l-1-0.3c-1.4-0.5-2.8-0.3-3.9,0.4c-0.5-1.2-1.5-2.3-2.9-2.7l-1-0.3
		c-1.4-0.4-2.8-0.2-3.9,0.6c-0.5-1.2-1.6-2.2-3-2.6l-1-0.3c-1.4-0.4-2.8,0-3.8,0.8c-0.6-1.2-1.7-2.1-3.1-2.4l-1-0.2
		c-1.4-0.3-2.8,0.1-3.8,0.9c-0.6-1.2-1.8-2.1-3.2-2.3l-1-0.2c-1.4-0.2-2.8,0.2-3.8,1.1c-0.7-1.1-1.8-2-3.2-2.2l-1-0.1
		c-1.4-0.2-2.8,0.3-3.7,1.2c-0.7-1.1-1.9-1.9-3.3-2.1l-1-0.1c-1.4-0.2-2.8,0.4-3.7,1.3c-0.7-1.1-2-1.9-3.4-2l-1-0.1
		c-1.4-0.1-2.7,0.5-3.6,1.4c-0.8-1.1-2-1.8-3.4-1.9l-1,0c-1.4-0.1-2.7,0.5-3.6,1.5c-0.8-1.1-2.1-1.7-3.5-1.8l-1,0
		c-1.4,0-2.7,0.6-3.6,1.6c-0.8-1-2.1-1.7-3.5-1.7l-1,0c-1.4,0-2.7,0.7-3.5,1.7c-0.9-1-2.1-1.6-3.6-1.6l-1,0c-1.4,0-2.7,0.7-3.5,1.8
		c-0.9-1-2.2-1.6-3.6-1.5l-1,0.1c-1.4,0.1-2.7,0.8-3.4,1.9c-0.9-1-2.2-1.5-3.6-1.4l-1,0.1c-1.4,0.1-2.6,0.9-3.4,2
		c-0.9-0.9-2.3-1.5-3.7-1.3l-1,0.1c-1.4,0.2-2.6,1-3.3,2.1c-1-0.9-2.3-1.4-3.7-1.2l-1,0.1c-1.4,0.2-2.6,1.1-3.2,2.2
		c-1-0.9-2.4-1.3-3.8-1l-1,0.2c-1.4,0.3-2.5,1.2-3.2,2.3c-1-0.8-2.4-1.2-3.8-0.9l-1,0.2c-1.4,0.3-2.5,1.3-3.1,2.5
		c-1.1-0.8-2.5-1.1-3.9-0.8l-1,0.3c-1.4,0.4-2.4,1.4-3,2.6c-1.1-0.8-2.5-1-3.9-0.6l-1,0.3c-1.4,0.4-2.4,1.5-2.9,2.7
		c-1.1-0.7-2.6-0.9-3.9-0.4l-1,0.4c-1.4,0.5-2.3,1.6-2.7,2.9c-1.2-0.6-2.6-0.8-3.9-0.2l-0.9,0.4c-1.3,0.6-2.2,1.7-2.6,3
		c-1.2-0.6-2.7-0.6-4,0l-0.9,0.4c-1.3,0.6-2.1,1.8-2.4,3.1c-1.2-0.5-2.7-0.5-4,0.2l-0.9,0.5c-1.3,0.7-2,1.9-2.2,3.3
		c-1.3-0.4-2.7-0.3-3.9,0.5l-0.9,0.6c-1.2,0.8-1.9,2.1-2,3.4c-1.3-0.4-2.7-0.2-3.9,0.7c-0.3,0.2-0.6,0.4-0.8,0.6
		c-1.2,0.9-1.8,2.2-1.8,3.5c-1.3-0.3-2.7,0-3.9,0.9L94.9,98c-1.1,0.9-1.6,2.3-1.6,3.6c-1.3-0.2-2.7,0.2-3.8,1.2l-0.7,0.7
		c-1,1-1.5,2.4-1.3,3.7c-1.3-0.1-2.7,0.4-3.7,1.4l-0.7,0.8c-1,1.1-1.3,2.5-1.1,3.8c-1.3,0-2.7,0.5-3.6,1.7l-0.6,0.8
		c-0.9,1.1-1.2,2.6-0.8,3.9c-1.3,0.1-2.7,0.7-3.5,1.9l-0.6,0.8c-0.8,1.2-1,2.6-0.6,3.9c-1.3,0.1-2.6,0.9-3.4,2.1l-0.5,0.9
		c-0.8,1.2-0.8,2.7-0.3,4c-1.3,0.2-2.5,1-3.2,2.3l-0.5,0.9c-0.7,1.3-0.7,2.7-0.1,4c-1.3,0.3-2.5,1.2-3.1,2.5c-0.1,0.3-0.3,0.6-0.4,1
		c-0.6,1.3-0.5,2.8,0.1,3.9c-1.3,0.4-2.4,1.3-2.9,2.7l-0.4,1c-0.5,1.3-0.4,2.8,0.3,4c-1.3,0.4-2.3,1.4-2.8,2.8l-0.3,1
		c-0.5,1.4-0.2,2.8,0.5,3.9c-1.2,0.5-2.2,1.6-2.6,2.9l-0.3,1c-0.4,1.4-0.1,2.8,0.7,3.9c-1.2,0.6-2.2,1.7-2.5,3.1l-0.2,1
		c-0.3,1.4,0.1,2.8,0.9,3.8c-1.2,0.6-2.1,1.8-2.4,3.2l-0.2,1c-0.3,1.4,0.2,2.8,1.1,3.8c-1.2,0.7-2,1.8-2.2,3.3l-0.1,1
		c-0.2,1.4,0.3,2.8,1.2,3.8c-1.1,0.7-2,1.9-2.1,3.4l-0.1,1c-0.1,1.4,0.4,2.8,1.3,3.7c-1.1,0.7-1.9,2-2,3.4l-0.1,1
		c-0.1,1.4,0.5,2.8,1.5,3.7c-1.1,0.8-1.8,2.1-1.9,3.5l0,1c0,1.4,0.6,2.7,1.6,3.6c-1,0.8-1.7,2.1-1.7,3.5l0,1c0,1.4,0.7,2.7,1.7,3.5
		c-1,0.9-1.7,2.1-1.6,3.6l0,1c0,1.4,0.8,2.7,1.8,3.5c-1,0.9-1.6,2.2-1.5,3.6l0.1,1c0.1,1.4,0.8,2.7,1.9,3.4c-1,0.9-1.5,2.2-1.4,3.7
		l0.1,1c0.1,1.4,0.9,2.6,2,3.4c-0.9,0.9-1.4,2.3-1.3,3.7l0.1,1c0.2,1.4,1,2.6,2.1,3.3c-0.9,1-1.4,2.3-1.2,3.7l0.1,1
		c0.2,1.4,1.1,2.6,2.2,3.2c-0.9,1-1.3,2.4-1.1,3.8l0.2,1c0,0.3,0.1,0.5,0.2,0.7c-3.8-5.8-10.5-13.5-17.8-13.5
		c-7.6,0-13.7,9.5-16.8,15.1C5.6,292,17.2,307.3,30.6,325c0,0,0,0,0,0.1c6.3,8,12.7,16.4,15.5,24.6c4.1,12.9,13.1,20.2,17.8,21.8
		c0.6,0.2,1.3,0.3,1.9,0.3c1.2,0,2.5-0.4,3.5-1.1c1.2-0.9,2.1-2.2,2.4-3.6c0.3-0.8,0.5-1.7,0.6-2.9c0.5-1.7,2.1-3,3.8-3
		c0.2,0,0.4,0,0.6,0.1c0.1,0,0.1,0,0.2,0c1.4,0.2,2.2,0.8,2.9,2.1c27.2,60.2,65,142.4,137.5,142.5c72.7,0.1,111.2-82.2,138.4-142.2
		c0.5-0.8,1.6-2.2,3-2.4c0.1,0,0.1,0,0.2,0c0.3,0,0.5-0.1,0.8-0.1c1.8,0,3.2,1.2,3.6,2.9c0.1,1.1,0.4,2,0.5,2.6c0,0,0,0,0,0
		c0.2,1.6,1.1,3,2.4,4c1,0.7,2.3,1.1,3.5,1.1c0.6,0,1.3-0.1,1.9-0.3c4.7-1.6,13.6-8.9,17.8-21.8c2.8-8.2,9.2-16.6,15.5-24.6
		c0.1-0.1,0.2-0.2,0.2-0.3C418.6,307.2,430,291.9,420.5,274.2z M383.4,193.8c-0.2,0.2-0.4,0.5-0.6,0.8c-0.1-0.5-0.1-0.9-0.2-1.4
		C382.9,193.5,383.2,193.7,383.4,193.8z M382.2,186.1c-0.1,0.2-0.3,0.3-0.4,0.5c0-0.3-0.1-0.6-0.1-0.9
		C381.8,185.8,382,186,382.2,186.1z M380.6,178.4c-0.1,0.1-0.1,0.2-0.2,0.3c0-0.2-0.1-0.3-0.1-0.5
		C380.4,178.3,380.5,178.3,380.6,178.4z M378.7,170.8C378.7,170.8,378.7,170.8,378.7,170.8C378.6,170.8,378.6,170.8,378.7,170.8
		C378.7,170.8,378.7,170.8,378.7,170.8z M66.6,345c-0.1,1.3-1.2,2.3-2.5,2.3c-0.1,0-0.2,0-0.2,0c-1.4-0.1-2.4-1.3-2.3-2.7
		c2.4-25.4-28.5-44.8-28.8-45c-1.2-0.7-1.5-2.3-0.8-3.4c0.7-1.2,2.3-1.5,3.4-0.8c0.3,0.2,8.5,5.3,16.5,13.8
		C62.6,320.8,67.7,333.1,66.6,345z M169.6,470.4c-0.4,0.3-1,0.5-1.5,0.5c-0.8,0-1.5-0.4-2-1c-0.1-0.1-9.5-13.2-18.7-28.6
		c-12.5-21-18.6-36.1-18.3-45c0.1-3,1.3-6.6,3-10.5c-9.2-0.7-16.6-3.1-22.4-6.1c5.2,17.2,24.3,54.3,34,73.3
		c6.9,13.5,6.9,13.5,6.8,14.6c-0.1,1.3-1.2,2.3-2.5,2.3c-0.1,0-0.1,0-0.2,0c-1.1-0.1-2-0.9-2.2-1.9c-0.4-1.1-3.2-6.5-6.3-12.6
		c-11.6-22.6-32.9-64.1-35.6-79.2c-8.7-6-12.3-12.6-12.5-13.1c-0.6-1.2-0.2-2.7,1-3.4c1.2-0.6,2.7-0.2,3.4,1
		c0.4,0.8,10.4,18.7,38.9,20.3c9.7-18.5,29.4-41.3,30.5-42.6c0.9-1,2.5-1.2,3.5-0.3c1,0.9,1.2,2.5,0.3,3.5
		c-9.4,10.9-34.1,42-34.7,54.9c-0.3,7.8,5.7,22.3,17.5,42.2c9.1,15.2,18.4,28.2,18.5,28.3C171,468.1,170.7,469.6,169.6,470.4z
		 M190.5,210.5c10.1,7,19.7,13.6,27.3,13.6c7.6,0,17.2-6.6,27.3-13.6c10.1-7,20.6-14.2,30.7-15.9c22.3-3.8,53.7,18.1,55.1,19
		c1.1,0.8,1.4,2.4,0.6,3.5c-0.8,1.1-2.4,1.4-3.5,0.6c-0.3-0.2-31-21.6-51.3-18.2c-9,1.5-19,8.4-28.7,15.1
		c-10.8,7.5-21,14.5-30.2,14.5c-9.2,0-19.4-7.1-30.2-14.5C178,207.9,168,201,159,199.5c-20.3-3.4-51,18-51.3,18.2
		c-1.1,0.8-2.7,0.5-3.5-0.6c-0.8-1.1-0.5-2.7,0.6-3.5c1.3-0.9,32.7-22.8,55.1-19C169.9,196.3,180.4,203.5,190.5,210.5z M166,163.3
		c1.2-0.7,2.7-0.2,3.4,1c6.3,11.2,24.4,18,48.4,18c24.1,0,42.2-6.7,48.4-18c0.7-1.2,2.2-1.6,3.4-1c1.2,0.7,1.6,2.2,1,3.4
		c-7.2,12.9-26.9,20.5-52.8,20.5c-25.9,0-45.6-7.7-52.8-20.5C164.3,165.4,164.8,163.9,166,163.3z M262.2,358.1
		c-1.9,3.6-5.1,6.3-9,7.5c-1.5,0.5-3.1,0.7-4.6,0.7c-2.4,0-4.8-0.6-7.1-1.7c-1.7-0.9-3.2-2.1-4.5-3.5c-3.3,5.3-10.6,9-19.3,9
		c-8.7,0-16-3.6-19.3-9c-1.2,1.4-2.7,2.6-4.4,3.5c-2.2,1.2-4.6,1.7-7.1,1.7c-1.5,0-3.1-0.2-4.6-0.7c-3.9-1.2-7.1-3.9-9-7.5
		s-2.3-7.8-1-11.7c0.4-1.3,1.8-2,3.1-1.6c1.3,0.4,2,1.8,1.6,3.1c-0.8,2.6-0.6,5.4,0.7,7.8c1.3,2.4,3.4,4.2,6,5.1
		c5.3,1.7,10.9-1.2,12.8-6.4c0.1-1.2,1.2-2.2,2.5-2.2c1.1,0,2,0.7,2.3,1.7c0.2,0.4,0.2,0.8,0.2,1.2c0.3,5.4,7.6,9.9,16.1,9.9
		c8.8,0,16.2-4.7,16.2-10.3c0,0,0-0.1,0-0.1c0,0,0,0,0,0c0.1-1.3,1.2-2.3,2.5-2.3c1.2,0,2.2,0.9,2.5,2c1.8,5.3,7.5,8.2,12.8,6.5
		c2.6-0.8,4.8-2.6,6-5.1c1.3-2.4,1.5-5.2,0.7-7.8c-0.4-1.3,0.3-2.7,1.6-3.1c1.3-0.4,2.7,0.3,3.1,1.6
		C264.5,350.4,264.1,354.5,262.2,358.1z M279.6,397.6C279.6,397.6,279.6,397.6,279.6,397.6c1.5,0.2,2.7,1.2,3.3,2.6
		c0.1,0.2,0.2,0.5,0.2,0.8c0,0,0,0.1,0,0.1c0.2,1.1,0,2.3-0.7,3.3c-4.2,6.2-27.7,29.3-64.7,29.3c-37,0-60.4-23.1-64.7-29.3
		c-0.7-1-0.9-2.2-0.7-3.3c0,0,0-0.1,0-0.1c0.1-0.3,0.1-0.5,0.2-0.8c0.6-1.4,1.8-2.3,3.3-2.6c10.3-1.6,35.3-5.1,45.3-4.5
		c2.9,0.2,8.3,2,14,4c1,0.3,1.9,0.7,2.5,0.9c0.7-0.2,1.6-0.5,2.5-0.9c5.7-2,11-3.8,14-4C244.2,392.4,269.3,396,279.6,397.6z
		 M182.9,300.7c-0.1,0-0.1,0-0.2,0c-0.7,0-1.3-0.1-2.1-0.4c-10.9-4.1-11.3-4-14.6-2.7c-1.1,0.4-2.4,0.9-4.3,1.4
		c-4.9,1.4-10.2-0.2-16.3-1.9c-8.6-2.5-19.3-5.6-32.6-1.3c-2.3,0.7-3.3,1.1-4.4-0.2c-0.7-0.7-0.8-1.8-0.4-2.7
		c0.5-1.1,0.5-1.1,7.7-3.5c2.7-0.9,8.1-2.7,14.4-4.6c14.6-4.4,24.3-6.7,28.8-6.7c12.3,0,22,11.2,26.1,16.7c5.3,5.9,5.1,15-0.6,20.7
		c-0.5,0.5-1.1,0.7-1.8,0.7s-1.3-0.2-1.8-0.7c-1-1-1-2.6,0-3.5C184,309.1,184.7,304.5,182.9,300.7z M254.9,300.4
		c-0.7,0.3-1.4,0.4-2.1,0.4c-0.1,0-0.1,0-0.2,0c-0.6,1.3-0.9,2.7-0.9,4.2c0,2.7,1.1,5.3,3,7.2c1,1,1,2.6,0,3.5
		c-0.5,0.5-1.1,0.7-1.8,0.7s-1.3-0.2-1.8-0.7c-2.9-2.9-4.4-6.7-4.4-10.7c0-3.7,1.4-7.3,3.8-10c4.1-5.5,13.8-16.7,26.1-16.7
		c4.5,0,14.2,2.2,28.8,6.7c6.3,1.9,11.7,3.7,14.4,4.6c7.2,2.4,7.2,2.4,7.7,3.5c0.4,0.9,0.2,2-0.4,2.7c-1.1,1.2-2.2,0.9-4.4,0.2
		c-13.3-4.3-24-1.2-32.6,1.3c-6.1,1.8-11.4,3.3-16.3,1.9c-1.9-0.5-3.2-1-4.3-1.4C266.2,296.4,265.8,296.3,254.9,300.4z M303.1,242.6
		c-21.1-6.8-37.6-3.5-49.2,9.7c-0.9,1-2.5,1.1-3.5,0.2c-1-0.9-1.1-2.5-0.2-3.5c12.9-14.7,31.8-18.5,54.6-11.1
		c16.9,5.4,29.9,15,30.4,15.4c1.1,0.8,1.3,2.4,0.5,3.5c-0.5,0.7-1.2,1-2,1c-0.5,0-1-0.2-1.5-0.5C332,257.2,319.2,247.8,303.1,242.6z
		 M130.9,237.9c22.9-7.4,41.8-3.5,54.6,11.1c0.9,1,0.8,2.6-0.2,3.5s-2.6,0.8-3.5-0.2c-27.9-31.8-77.8,4.6-78.3,5
		c-0.4,0.3-1,0.5-1.5,0.5c-0.8,0-1.5-0.3-2-1c-0.8-1.1-0.6-2.7,0.5-3.5C101,252.8,114,243.3,130.9,237.9z M233.5,458.3
		c-4.2,0.2-9.7,0.3-15.7,0.3s-11.6-0.1-15.7-0.3c-6.1-0.3-9.5-0.5-9.5-3.5c0-1.4,1.1-2.5,2.5-2.5c0.6,0,1.1,0.2,1.5,0.5
		c4.8,1.1,37.6,1.1,42.4,0c0.4-0.3,0.9-0.5,1.5-0.5c1.4,0,2.5,1.1,2.5,2.5C243,457.8,239.6,458,233.5,458.3z M344.4,362.9
		c-0.3,0.5-3.9,7.1-12.5,13.1c-2.7,15-24,56.6-35.6,79.2c-3.2,6.1-5.9,11.5-6.3,12.6c-0.2,1-1.1,1.8-2.2,1.9c-0.1,0-0.1,0-0.2,0
		c-1.3,0-2.4-1-2.5-2.3c-0.1-1.1-0.1-1.1,6.8-14.6c9.7-18.9,28.8-56.1,34-73.3c-5.8,2.9-13.2,5.3-22.4,6.1c1.7,4,2.9,7.6,3,10.5
		c0.4,8.9-5.7,24-18.3,45c-9.2,15.4-18.6,28.5-18.7,28.6c-0.5,0.7-1.3,1-2,1c-0.5,0-1-0.2-1.5-0.5c-1.1-0.8-1.4-2.4-0.6-3.5
		c0.1-0.1,9.4-13.1,18.5-28.3c11.8-19.8,17.9-34.4,17.5-42.2c-0.6-12.9-25.2-44-34.7-54.9c-0.9-1-0.8-2.6,0.3-3.5
		c1-0.9,2.6-0.8,3.5,0.3c1.1,1.3,20.8,24.1,30.5,42.6c28.5-1.5,38.5-19.5,38.9-20.3c0.7-1.2,2.2-1.7,3.4-1
		C344.6,360.2,345,361.7,344.4,362.9z M367.9,183.8c-0.6-1.2-0.6-2.6-0.1-3.8c-1.3-0.2-2.4-1-3.1-2.2c-0.2-0.3-0.3-0.6-0.5-0.8
		c-0.7-1.2-0.8-2.6-0.4-3.8c-1.3-0.1-2.5-0.8-3.2-2l-0.5-0.8c-0.8-1.1-1-2.5-0.6-3.7c-1.3-0.1-2.5-0.7-3.3-1.7l-0.6-0.8
		c-0.8-1.1-1.1-2.4-0.9-3.7c-1.3,0-2.5-0.5-3.5-1.5l-0.6-0.7c-0.9-1-1.3-2.3-1.1-3.6c-1.3,0.1-2.6-0.3-3.6-1.2l-0.7-0.7
		c-1-0.9-1.5-2.2-1.4-3.5c-1.3,0.2-2.6-0.1-3.6-1l-0.7-0.6c-1.1-0.9-1.6-2.1-1.6-3.4c-1.2,0.3-2.6,0.1-3.7-0.8l-0.8-0.6
		c-1.1-0.8-1.8-2-1.8-3.3c-1.2,0.4-2.6,0.2-3.8-0.5l-0.8-0.5c-1.2-0.7-1.9-1.9-2.1-3.2c-1.2,0.5-2.6,0.4-3.8-0.3l-0.8-0.5
		c-1.2-0.7-2-1.8-2.2-3.1c-1.2,0.5-2.6,0.5-3.8-0.1l-0.9-0.4c-1.2-0.6-2.1-1.7-2.4-2.9c-1.1,0.6-2.5,0.7-3.8,0.1l-0.9-0.4
		c-1.3-0.5-2.2-1.6-2.6-2.8c-1.1,0.6-2.5,0.8-3.8,0.3l-0.9-0.3c-1.3-0.5-2.3-1.5-2.7-2.7c-1.1,0.7-2.5,0.9-3.8,0.5l-0.9-0.3
		c-1.3-0.4-2.3-1.4-2.8-2.6c-1,0.7-2.4,1-3.8,0.7l-1-0.2c-1.3-0.3-2.4-1.3-2.9-2.4c-1,0.8-2.4,1.1-3.7,0.8l-1-0.2
		c-1.4-0.3-2.4-1.2-3-2.3c-1,0.8-2.3,1.2-3.7,1l-1-0.2c-1.4-0.2-2.5-1.1-3.1-2.2c-1,0.9-2.3,1.3-3.7,1.1l-1-0.1
		c-1.4-0.2-2.5-1-3.2-2.1c-0.9,0.9-2.3,1.4-3.6,1.2l-1-0.1c-1.4-0.2-2.6-0.9-3.3-2c-0.9,0.9-2.2,1.5-3.6,1.3l-1-0.1
		c-1.4-0.1-2.6-0.9-3.3-1.9c-0.9,1-2.1,1.5-3.6,1.4l-1-0.1c-1.4-0.1-2.6-0.8-3.4-1.8c-0.9,1-2.1,1.6-3.5,1.5l-1,0
		c-1.4,0-2.6-0.7-3.4-1.8c-0.8,1-2.1,1.6-3.5,1.6h-0.1l-1,0c-1.4,0-2.7-0.7-3.5-1.7c-0.8,1-2.1,1.7-3.5,1.7l-1,0c0,0,0,0-0.1,0
		c-1.4,0-2.6-0.6-3.4-1.6c-0.8,1-2,1.7-3.4,1.8l-1,0c-1.4,0.1-2.7-0.5-3.5-1.5c-0.8,1.1-2,1.8-3.4,1.9l-1,0.1
		c-1.4,0.1-2.7-0.5-3.6-1.4c-0.7,1.1-1.9,1.8-3.3,1.9l-1,0.1c-1.4,0.1-2.7-0.4-3.6-1.3c-0.7,1.1-1.9,1.9-3.3,2l-1,0.1
		c-1.4,0.2-2.7-0.3-3.6-1.2c-0.7,1.1-1.8,1.9-3.2,2.1l-1,0.1c-1.4,0.2-2.7-0.2-3.7-1.1c-0.6,1.1-1.7,2-3.1,2.2l-1,0.2
		c-1.4,0.3-2.7-0.1-3.7-1c-0.6,1.2-1.7,2-3,2.3l-1,0.2c-1.4,0.3-2.7,0-3.7-0.8c-0.5,1.2-1.6,2.1-2.9,2.5l-0.9,0.3
		c-1.3,0.4-2.7,0.1-3.8-0.7c-0.5,1.2-1.5,2.2-2.8,2.6l-0.9,0.3c-1.3,0.4-2.7,0.2-3.8-0.5c-0.4,1.2-1.4,2.2-2.7,2.7L136,126
		c-1.3,0.5-2.7,0.3-3.8-0.3c-0.4,1.2-1.3,2.3-2.6,2.8l-0.9,0.4c-1.3,0.5-2.7,0.5-3.8-0.1c-0.3,1.2-1.1,2.3-2.4,3l-0.9,0.4
		c-1.2,0.6-2.6,0.6-3.8,0.1c-0.2,1.3-1,2.4-2.2,3.1l-0.8,0.5c-1.2,0.7-2.6,0.8-3.8,0.3c-0.2,1.3-0.9,2.5-2,3.2l-0.8,0.5
		c-1.1,0.8-2.5,0.9-3.7,0.6c-0.1,1.3-0.7,2.5-1.8,3.3l-0.8,0.6c-1.1,0.8-2.4,1.1-3.7,0.8c0,1.3-0.5,2.5-1.6,3.4l-0.7,0.6
		c-1,0.9-2.4,1.2-3.6,1.1c0.1,1.3-0.3,2.6-1.3,3.5l-0.7,0.7c-1,1-2.3,1.4-3.5,1.3c0.2,1.3-0.2,2.6-1.1,3.6l-0.6,0.7
		c-0.9,1-2.2,1.6-3.4,1.6h0c0.3,1.2,0,2.6-0.8,3.7c-0.2,0.3-0.4,0.5-0.6,0.8c-0.8,1.1-2,1.7-3.3,1.8c0.4,1.2,0.2,2.6-0.5,3.7
		l-0.5,0.8c-0.7,1.2-1.9,1.9-3.2,2c0.5,1.2,0.4,2.6-0.3,3.8c-0.2,0.3-0.3,0.6-0.5,0.8c-0.7,1.2-1.8,2-3,2.3c0.5,1.2,0.6,2.5,0,3.8
		c-0.1,0.3-0.3,0.6-0.4,0.9c-0.6,1.3-1.6,2.1-2.9,2.5c0.6,1.1,0.7,2.5,0.2,3.8l-0.3,0.9c-0.5,1.3-1.5,2.2-2.7,2.7
		c0.7,1.1,0.9,2.4,0.5,3.8l-0.3,0.9c-0.4,1.3-1.4,2.3-2.5,2.8c0.8,1,1.1,2.4,0.7,3.7l-0.2,0.9c-0.3,1.3-1.2,2.4-2.4,3
		c0.8,1,1.2,2.3,0.9,3.7l-0.2,1c-0.3,1.4-1.1,2.5-2.2,3.1c0.9,1,1.3,2.3,1.1,3.6l-0.1,1c-0.2,1.4-1,2.5-2.1,3.2
		c0.9,0.9,1.4,2.2,1.3,3.6l-0.1,0.9l-0.1,0c-0.3,1.3-1.1,2.4-2.2,3.1c1.2,0.9,1.9,2.3,1.9,3.8l0,1c0,1.4-0.7,2.6-1.7,3.4
		c1,0.8,1.6,2.1,1.6,3.5l0,1c0,1.4-0.6,2.7-1.6,3.5c1,0.8,1.7,2,1.8,3.4l0.1,1c0.1,1.4-0.5,2.7-1.4,3.5c1.1,0.7,1.8,1.9,1.9,3.3
		l0.1,1c0.1,1.4-0.4,2.7-1.3,3.6c1.1,0.7,1.9,1.8,2.1,3.2l0.1,1c0.2,1.5-0.3,2.9-1.3,3.8c1.3,0.6,2.2,1.8,2.5,3.3
		c0.1,0.8,0.4,2.5-1,4.1c-0.9,1-2.1,1.6-3.4,1.6c-2.4,0-4.4-1.9-4.5-4.3c-0.2-1.3,0.2-2.5,0.9-3.5c-0.1,0.1-0.2,0.2-0.2,0.3
		c-0.3-0.5-0.5-1-0.9-1.5c0.4,0.4,0.8,0.7,1.3,0.9c-0.1,0.1-0.1,0.1-0.2,0.2c0.1-0.1,0.2-0.2,0.3-0.4c-1.3-0.6-2.3-1.9-2.5-3.4
		l-0.1-1c-0.2-1.4,0.3-2.8,1.3-3.8c-1.1-0.7-2-1.9-2.1-3.4l-0.1-1c-0.1-1.4,0.4-2.8,1.4-3.7c-1.1-0.8-1.9-2-1.9-3.5l-0.1-1
		c-0.1-1.5,0.6-2.8,1.6-3.7c-1.1-0.8-1.8-2.1-1.8-3.5l0-1c0-1.5,0.7-2.8,1.7-3.6c-1-0.9-1.7-2.2-1.6-3.6l0-1c0.1-1.5,0.8-2.7,2-3.5
		c-1.3-0.9-2.1-2.3-2.1-4c0-1.9,1.1-3.5,2.7-4.3c-0.9-1-1.4-2.3-1.2-3.7l0.1-1c0.2-1.4,1.1-2.6,2.3-3.3c-0.9-1-1.4-2.4-1.1-3.8
		l0.2-1c0.3-1.4,1.2-2.6,2.4-3.2c-0.9-1.1-1.2-2.5-0.9-3.9l0.3-1c0.4-1.4,1.4-2.5,2.6-3c-0.8-1.1-1.1-2.6-0.7-4l0.3-1
		c0.4-1.4,1.5-2.4,2.8-2.9c-0.7-1.2-0.9-2.6-0.4-4l0.4-1c0.5-1.4,1.7-2.3,3-2.7c-0.7-1.2-0.8-2.7-0.2-4c0.1-0.3,0.3-0.6,0.4-1
		c0.6-1.3,1.8-2.2,3.1-2.5c-0.6-1.2-0.6-2.7,0.1-4c0.2-0.3,0.3-0.6,0.5-0.9c0.7-1.3,2-2.1,3.3-2.3c-0.5-1.3-0.4-2.8,0.4-4l0.6-0.9
		c0.8-1.2,2.1-2,3.5-2.1c-0.4-1.3-0.2-2.8,0.7-4c0.2-0.3,0.4-0.6,0.6-0.8c0.9-1.2,2.2-1.8,3.6-1.8h0c-0.3-1.3,0-2.8,1-3.9l0.7-0.8
		c1-1.1,2.4-1.6,3.7-1.5c-0.2-1.4,0.2-2.8,1.3-3.8l0.7-0.7c1-1,2.5-1.5,3.8-1.3c-0.1-1.4,0.4-2.8,1.5-3.7l0.8-0.7
		c1.1-1,2.6-1.3,3.9-1c0-1.4,0.6-2.7,1.8-3.6c0.3-0.2,0.6-0.4,0.8-0.6c1.2-0.9,2.6-1.1,3.9-0.7c0.1-1.4,0.8-2.7,2-3.5l0.9-0.6
		c1.2-0.8,2.7-0.9,4-0.5c0.2-1.3,1-2.6,2.2-3.3l0.9-0.5c1.3-0.7,2.8-0.7,4-0.2c0.3-1.3,1.1-2.5,2.4-3.2l0.9-0.5c1.3-0.6,2.8-0.6,4,0
		c0.3-1.3,1.2-2.5,2.6-3l0.9-0.4c1.3-0.6,2.8-0.4,4,0.2c0.4-1.3,1.4-2.4,2.7-2.9l1-0.4c1.4-0.5,2.8-0.3,4,0.4
		c0.5-1.3,1.5-2.3,2.9-2.8l1-0.3c1.4-0.4,2.8-0.2,3.9,0.6c0.5-1.2,1.6-2.2,3-2.6l1-0.3c1.4-0.4,2.8,0,3.9,0.8
		c0.6-1.2,1.7-2.2,3.1-2.5l1-0.2c1.4-0.3,2.8,0.1,3.9,0.9c0.6-1.2,1.7-2.1,3.2-2.4l1-0.2c1.4-0.3,2.8,0.2,3.8,1.1
		c0.7-1.2,1.8-2,3.2-2.3l1-0.2c1.4-0.2,2.8,0.3,3.8,1.2c0.7-1.1,1.9-2,3.3-2.2l1-0.1c1.4-0.2,2.8,0.4,3.7,1.3c0.7-1.1,1.9-1.9,3.4-2
		l1-0.1c1.4-0.1,2.8,0.4,3.7,1.4c0.8-1.1,2-1.9,3.4-2l1-0.1c1.4-0.1,2.8,0.5,3.6,1.5c0.8-1.1,2-1.8,3.5-1.9l1,0
		c1.4-0.1,2.7,0.6,3.6,1.6c0.8-1.1,2.1-1.8,3.5-1.8l1,0c1.5,0,2.7,0.6,3.6,1.7c0.8-1,2.1-1.7,3.5-1.7h0l1,0c1.4,0,2.7,0.7,3.5,1.8
		c0.9-1,2.1-1.7,3.6-1.6l1,0c1.4,0.1,2.7,0.8,3.5,1.9c0.9-1,2.2-1.6,3.6-1.5l1,0.1c1.4,0.1,2.7,0.8,3.4,1.9c0.9-1,2.2-1.5,3.7-1.4
		l1,0.1c1.4,0.1,2.7,0.9,3.4,2c0.9-1,2.3-1.5,3.7-1.3l1,0.1c1.4,0.2,2.6,1,3.3,2.1c1-0.9,2.3-1.4,3.8-1.2l1,0.1
		c1.4,0.2,2.6,1.1,3.3,2.2c1-0.9,2.4-1.3,3.8-1.1l1,0.2c1.4,0.3,2.6,1.2,3.2,2.4c1-0.9,2.4-1.3,3.8-1l1,0.2c1.4,0.3,2.5,1.3,3.1,2.5
		c1.1-0.8,2.5-1.2,3.9-0.8l1,0.3c1.4,0.4,2.5,1.4,3,2.6c1.1-0.8,2.5-1.1,3.9-0.6l1,0.3c1.4,0.4,2.4,1.5,2.9,2.7c1.1-0.7,2.6-1,4-0.5
		l1,0.3c1.4,0.5,2.3,1.6,2.8,2.9c1.2-0.7,2.6-0.8,4-0.3l1,0.4c1.3,0.6,2.3,1.7,2.6,3c1.2-0.6,2.7-0.7,4-0.1l0.9,0.4
		c1.3,0.6,2.2,1.8,2.5,3.2c1.2-0.6,2.7-0.5,4,0.2l0.9,0.5c1.3,0.7,2.1,2,2.3,3.3c1.3-0.5,2.7-0.4,4,0.4c0.3,0.2,0.6,0.4,0.9,0.6
		c1.2,0.8,1.9,2.1,2.1,3.4c1.3-0.4,2.8-0.2,4,0.7l0.8,0.6c1.2,0.9,1.8,2.2,1.8,3.6c1.3-0.3,2.8,0,3.9,0.9c0.3,0.2,0.5,0.4,0.8,0.7
		c1.1,0.9,1.7,2.3,1.6,3.7c1.3-0.2,2.8,0.2,3.8,1.2l0.8,0.7c1.1,1,1.5,2.4,1.3,3.8c1.4-0.1,2.8,0.4,3.8,1.5l0.7,0.8
		c1,1.1,1.3,2.5,1.1,3.9c0,0,0.1,0,0.1,0c1.3,0,2.7,0.6,3.5,1.7l0.6,0.8c0.9,1.2,1.1,2.6,0.8,3.9c1.4,0.1,2.7,0.8,3.5,2l0.6,0.9
		c0.8,1.2,1,2.7,0.5,4c1.4,0.2,2.6,0.9,3.4,2.2c0.2,0.3,0.4,0.6,0.5,0.9c0.7,1.3,0.8,2.8,0.2,4c1.3,0.3,2.6,1.1,3.2,2.4l0.5,0.9
		c0.6,1.3,0.6,2.8,0,4c1.3,0.3,2.5,1.3,3,2.6l0.4,0.9c0.6,1.4,0.4,2.8-0.3,4c1.3,0.4,2.4,1.4,2.9,2.8l0.3,1c0.5,1.4,0.2,2.8-0.6,4
		c0.5,0.2,0.9,0.5,1.3,0.8c0-0.1,0-0.2,0-0.3c0.3,0.3,0.6,0.7,1,0.9c-0.1,0.1-0.1,0.1-0.2,0.2c0.3,0.4,0.5,0.8,0.6,1.3l0.3,1
		c0.4,1.4,0,2.8-0.8,3.9c1.2,0.6,2.2,1.7,2.5,3.1l0.2,1c0.3,1.4-0.1,2.9-1,3.9c1.2,0.6,2.1,1.8,2.3,3.3l0.2,1
		c0.2,1.4-0.3,2.8-1.2,3.8c1.2,0.7,2,1.9,2.2,3.4l0.1,1c0.2,1.5-0.4,2.8-1.4,3.7c1.1,0.8,1.9,2,2,3.5l0.1,1c0.1,1.5-0.6,2.9-1.7,3.8
		c1.3,0.8,2.2,2.3,2.2,4c0,0.9-0.3,1.7-0.7,2.5c0,0.1-0.1,0.1-0.1,0.2c0,0,0,0,0,0c-0.3,0.5-0.7,1-1.2,1.4c1,0.9,1.7,2.2,1.7,3.6
		l0,1c-0.1,1.5-0.8,2.7-1.9,3.5c1,0.9,1.6,2.2,1.5,3.7l-0.1,1c-0.1,1.5-0.9,2.7-2,3.4c1,0.9,1.5,2.3,1.3,3.8l-0.1,1
		c-0.2,1.5-1,2.7-2.2,3.3c0.9,1,1.4,2.4,1.2,3.8l0,0.1c0,0.6-0.2,1.2-0.5,1.8c-0.8,1.5-2.3,2.3-4,2.3c-0.5,0-1-0.1-1.5-0.2
		c-0.6-0.2-3.6-1.4-2.9-5.5c0.2-1.4,1.1-2.5,2.2-3.2c-0.9-0.9-1.4-2.2-1.2-3.6l0.1-1c0.2-1.4,0.9-2.5,2-3.2
		c-0.9-0.9-1.5-2.2-1.3-3.6l0.1-1c0.1-1.2,0.6-2.2,1.5-3c0-0.3,0-0.5,0-0.8c-0.7-0.8-1.1-1.9-1.1-3.1l0-1c0-1,0.4-1.9,0.9-2.6
		c0-0.7,0-1.3,0-1.8c-0.1-0.1-0.1-0.2-0.2-0.3c-0.6-0.8-0.9-1.8-0.9-2.8c0-1.4,0.7-2.7,1.7-3.6c0-0.1,0-0.3,0-0.4
		c-1-0.8-1.6-1.9-1.7-3.2l-0.1-1c-0.1-1.4,0.5-2.7,1.4-3.6c-1.1-0.7-1.8-1.9-2-3.3l-0.1-1c-0.1-1.4,0.3-2.7,1.2-3.6
		c-1.1-0.7-1.9-1.8-2.1-3.2l-0.2-1c-0.2-1.4,0.2-2.7,1-3.7c-1.1-0.6-2-1.7-2.3-3l-0.2-1c-0.3-1.4,0.1-2.7,0.8-3.7
		c-1.2-0.5-2.1-1.6-2.5-2.9l-0.3-0.9c-0.4-1.3-0.1-2.7,0.6-3.7c-1.2-0.5-2.2-1.4-2.6-2.8l-0.3-0.9c-0.4-1.3-0.3-2.7,0.4-3.8
		c-1.2-0.4-2.2-1.3-2.8-2.6l-0.4-0.9c-0.5-1.3-0.4-2.6,0.2-3.8c-1.2-0.3-2.3-1.2-2.9-2.4L367.9,183.8z M402.8,299.6
		c-0.3,0.2-31.2,19.5-28.8,45c0.1,1.4-0.9,2.6-2.3,2.7c-0.1,0-0.2,0-0.2,0c-1.3,0-2.4-1-2.5-2.3c-1.1-11.9,4-24.3,14.7-35.8
		c8-8.6,16.2-13.6,16.5-13.8c1.2-0.7,2.7-0.4,3.4,0.8C404.4,297.4,404,298.9,402.8,299.6z"/>
	<path class="st1" d="M150.9,288.6c0-1.7,0.6-3.2,1.6-4.5c-5.4,1.1-12.5,3-19.3,5.1c5.1,0.7,9.6,2,13.7,3.2c2.4,0.7,4.6,1.3,6.6,1.7
		C151.9,292.8,150.9,290.8,150.9,288.6z"/>
	<path class="st1" d="M302.4,289.2c-6.8-2-13.9-4-19.3-5.1c1,1.2,1.6,2.8,1.6,4.5c0,2.2-1,4.2-2.6,5.5c2-0.4,4.3-1.1,6.6-1.7
		C292.8,291.2,297.3,289.9,302.4,289.2z"/>
	<path class="st1" d="M163.7,284c1.1,1.3,1.7,2.9,1.7,4.6c0,1.8-0.6,3.4-1.7,4.6c0.2-0.1,0.5-0.2,0.7-0.3c4.1-1.5,5.7-1.7,13.5,1
		C174.4,290.1,169.4,285.6,163.7,284z"/>
	<path d="M371.2,187.1c-0.6,1.1-0.7,2.5-0.2,3.8l0.4,0.9c0.5,1.3,1.6,2.2,2.8,2.6c-0.7,1.1-0.8,2.5-0.4,3.8l0.3,0.9
		c0.4,1.3,1.4,2.3,2.6,2.8c-0.7,1.1-1,2.4-0.6,3.7l0.3,0.9c0.4,1.3,1.3,2.4,2.5,2.9c-0.8,1-1.1,2.4-0.8,3.7l0.2,1
		c0.3,1.4,1.2,2.4,2.3,3c-0.8,1-1.3,2.3-1,3.7l0.2,1c0.2,1.4,1,2.5,2.1,3.2c-0.9,0.9-1.4,2.2-1.2,3.6l0.1,1c0.1,1.4,0.9,2.6,2,3.3
		c-0.9,0.9-1.5,2.2-1.4,3.6l0.1,1c0.1,1.3,0.7,2.5,1.7,3.2c0.1,0.1,0.2,0.1,0.3,0.2c-0.1,0.1-0.2,0.2-0.3,0.3
		c-1,0.9-1.7,2.2-1.7,3.6c0,1.1,0.4,2,0.9,2.8c0.1,0.1,0.1,0.2,0.2,0.3c0.2,0.3,0.5,0.7,0.8,0.9c-0.3,0.2-0.6,0.5-0.8,0.9
		c-0.5,0.7-0.9,1.6-0.9,2.6l0,1c0,1.2,0.4,2.2,1.1,3.1c0.1,0.2,0.3,0.3,0.4,0.5c-0.1,0.1-0.3,0.2-0.4,0.3c-0.8,0.7-1.4,1.8-1.5,3
		l-0.1,1c-0.1,1.4,0.4,2.7,1.3,3.6c-1.1,0.7-1.9,1.9-2,3.2l-0.1,1c-0.2,1.4,0.3,2.7,1.2,3.6c-1.1,0.6-2,1.8-2.2,3.2
		c-0.7,4,2.3,5.3,2.9,5.5c0.5,0.2,1,0.2,1.5,0.2c1.6,0,3.1-0.9,4-2.3c0.3-0.6,0.5-1.2,0.5-1.8l0-0.1c0.2-1.4-0.2-2.8-1.2-3.8
		c1.2-0.7,2-1.9,2.2-3.3l0.1-1c0.2-1.5-0.4-2.8-1.3-3.8c1.1-0.7,1.9-2,2-3.4l0.1-1c0.1-1.4-0.5-2.8-1.5-3.7c1.1-0.8,1.8-2.1,1.9-3.5
		l0-1c0-1.5-0.6-2.8-1.7-3.6c0.5-0.4,0.9-0.8,1.2-1.4c0,0,0,0,0,0c0-0.1,0.1-0.1,0.1-0.2c0.4-0.7,0.7-1.6,0.7-2.5
		c0-1.7-0.9-3.2-2.2-4c1.1-0.9,1.8-2.3,1.7-3.8l-0.1-1c-0.1-1.5-0.9-2.7-2-3.5c1-0.9,1.5-2.3,1.4-3.7l-0.1-1c-0.2-1.5-1-2.7-2.2-3.4
		c0.9-1,1.4-2.4,1.2-3.8l-0.2-1c-0.2-1.4-1.1-2.6-2.3-3.3c0.9-1,1.3-2.4,1-3.9l-0.2-1c-0.3-1.4-1.3-2.6-2.5-3.1
		c0.8-1.1,1.2-2.5,0.8-3.9l-0.3-1c-0.1-0.5-0.3-0.9-0.6-1.3c-0.2-0.3-0.5-0.6-0.8-0.9c-0.4-0.3-0.8-0.6-1.3-0.8c0.8-1.1,1-2.6,0.6-4
		l-0.3-1c-0.5-1.4-1.6-2.4-2.9-2.8c0.7-1.2,0.9-2.6,0.3-4l-0.4-0.9c-0.6-1.4-1.7-2.3-3-2.6c0.6-1.2,0.7-2.7,0-4l-0.5-0.9
		c-0.7-1.3-1.9-2.2-3.2-2.4c0.5-1.3,0.5-2.7-0.2-4c-0.2-0.3-0.3-0.6-0.5-0.9c-0.7-1.3-2-2-3.4-2.2c0.5-1.3,0.3-2.8-0.5-4l-0.6-0.9
		c-0.8-1.2-2.1-1.9-3.5-2c0.4-1.3,0.1-2.8-0.8-3.9l-0.6-0.8c-0.9-1.1-2.2-1.7-3.5-1.7c0,0-0.1,0-0.1,0c0.3-1.3-0.1-2.8-1.1-3.9
		l-0.7-0.8c-1-1.1-2.4-1.6-3.8-1.5c0.2-1.4-0.3-2.8-1.3-3.8l-0.8-0.7c-1.1-1-2.5-1.4-3.8-1.2c0.1-1.4-0.5-2.7-1.6-3.7
		c-0.3-0.2-0.5-0.5-0.8-0.7c-1.1-0.9-2.6-1.2-3.9-0.9c0-1.4-0.7-2.7-1.8-3.6l-0.8-0.6c-1.2-0.9-2.7-1.1-4-0.7
		c-0.1-1.4-0.8-2.6-2.1-3.4c-0.3-0.2-0.6-0.4-0.9-0.6c-1.2-0.8-2.7-0.9-4-0.4c-0.2-1.3-1-2.6-2.3-3.3l-0.9-0.5
		c-1.3-0.7-2.8-0.7-4-0.2c-0.3-1.3-1.1-2.5-2.5-3.2l-0.9-0.4c-1.3-0.6-2.8-0.6-4,0.1c-0.3-1.3-1.3-2.4-2.6-3l-1-0.4
		c-1.3-0.6-2.8-0.4-4,0.3c-0.4-1.3-1.4-2.4-2.8-2.9l-1-0.3c-1.4-0.5-2.8-0.3-4,0.5c-0.5-1.3-1.5-2.3-2.9-2.7l-1-0.3
		c-1.4-0.4-2.8-0.1-3.9,0.6c-0.5-1.2-1.6-2.2-3-2.6l-1-0.3c-1.4-0.4-2.8,0-3.9,0.8c-0.6-1.2-1.7-2.2-3.1-2.5l-1-0.2
		c-1.4-0.3-2.8,0.1-3.8,1c-0.6-1.2-1.8-2.1-3.2-2.4l-1-0.2c-1.4-0.3-2.8,0.2-3.8,1.1c-0.7-1.2-1.8-2-3.3-2.2l-1-0.1
		c-1.4-0.2-2.8,0.3-3.8,1.2c-0.7-1.1-1.9-2-3.3-2.1l-1-0.1c-1.4-0.2-2.8,0.4-3.7,1.3c-0.7-1.1-1.9-1.9-3.4-2l-1-0.1
		c-1.4-0.1-2.8,0.5-3.7,1.4c-0.8-1.1-2-1.9-3.4-1.9l-1-0.1c-1.4-0.1-2.8,0.5-3.6,1.5c-0.8-1.1-2-1.8-3.5-1.9l-1,0
		c-1.5,0-2.7,0.6-3.6,1.6c-0.8-1.1-2.1-1.7-3.5-1.8l-1,0h0c-1.4,0-2.7,0.7-3.5,1.7c-0.8-1-2.1-1.7-3.6-1.7l-1,0
		c-1.4,0-2.7,0.7-3.5,1.8c-0.9-1-2.2-1.7-3.6-1.6l-1,0c-1.4,0.1-2.7,0.8-3.5,1.9c-0.9-1-2.2-1.6-3.6-1.5l-1,0.1
		c-1.4,0.1-2.7,0.8-3.4,2c-0.9-1-2.2-1.5-3.7-1.4l-1,0.1c-1.4,0.1-2.7,0.9-3.4,2c-0.9-1-2.3-1.5-3.7-1.3l-1,0.1
		c-1.4,0.2-2.6,1-3.3,2.2c-1-0.9-2.3-1.4-3.8-1.2l-1,0.2c-1.4,0.2-2.6,1.1-3.2,2.3c-1-0.9-2.4-1.3-3.8-1.1l-1,0.2
		c-1.4,0.3-2.6,1.2-3.2,2.4c-1-0.9-2.4-1.2-3.9-0.9l-1,0.2c-1.4,0.3-2.5,1.3-3.1,2.5c-1.1-0.8-2.5-1.1-3.9-0.8l-1,0.3
		c-1.4,0.4-2.5,1.4-3,2.6c-1.1-0.8-2.5-1-3.9-0.6l-1,0.3c-1.4,0.4-2.4,1.5-2.9,2.8c-1.1-0.7-2.6-0.9-4-0.4l-1,0.4
		c-1.4,0.5-2.3,1.6-2.7,2.9c-1.2-0.7-2.6-0.8-4-0.2l-0.9,0.4c-1.3,0.6-2.3,1.7-2.6,3c-1.2-0.6-2.7-0.7-4,0l-0.9,0.5
		c-1.3,0.7-2.2,1.9-2.4,3.2c-1.2-0.5-2.7-0.5-4,0.2l-0.9,0.5c-1.3,0.7-2.1,2-2.2,3.3c-1.3-0.5-2.8-0.3-4,0.5l-0.9,0.6
		c-1.2,0.8-1.9,2.1-2,3.5c-1.3-0.4-2.8-0.2-3.9,0.7c-0.3,0.2-0.6,0.4-0.8,0.6c-1.2,0.9-1.8,2.2-1.8,3.6c-1.3-0.3-2.8,0-3.9,1
		l-0.8,0.7c-1.1,1-1.6,2.4-1.5,3.7c-1.4-0.2-2.8,0.2-3.8,1.3l-0.7,0.7c-1,1-1.5,2.5-1.3,3.8c-1.4-0.1-2.8,0.4-3.7,1.5l-0.7,0.8
		c-1,1.1-1.3,2.6-1,3.9h0c-1.4,0-2.7,0.6-3.6,1.8c-0.2,0.3-0.4,0.6-0.6,0.8c-0.9,1.2-1.1,2.7-0.7,4c-1.4,0.1-2.7,0.8-3.5,2.1
		l-0.6,0.9c-0.8,1.2-0.9,2.7-0.4,4c-1.4,0.2-2.6,1-3.3,2.3c-0.2,0.3-0.3,0.6-0.5,0.9c-0.7,1.3-0.7,2.8-0.1,4
		c-1.3,0.3-2.5,1.2-3.1,2.5c-0.1,0.3-0.3,0.6-0.4,1c-0.6,1.3-0.5,2.8,0.2,4c-1.3,0.4-2.4,1.3-3,2.7l-0.4,1c-0.5,1.4-0.3,2.8,0.4,4
		c-1.3,0.5-2.4,1.5-2.8,2.9l-0.3,1c-0.4,1.4-0.1,2.9,0.7,4c-1.3,0.5-2.2,1.6-2.6,3l-0.3,1c-0.3,1.4,0,2.9,0.9,3.9
		c-1.2,0.6-2.2,1.7-2.4,3.2l-0.2,1c-0.3,1.4,0.2,2.8,1.1,3.8c-1.2,0.7-2.1,1.9-2.3,3.3l-0.1,1c-0.2,1.4,0.3,2.7,1.2,3.7
		c-1.6,0.8-2.7,2.4-2.7,4.3c0,1.7,0.9,3.1,2.1,4c-1.1,0.8-1.9,2-2,3.5l0,1c-0.1,1.5,0.6,2.8,1.6,3.6c-1.1,0.8-1.8,2.1-1.7,3.6l0,1
		c0,1.5,0.7,2.7,1.8,3.5c-1,0.9-1.7,2.2-1.6,3.7l0.1,1c0.1,1.5,0.8,2.7,1.9,3.5c-1,0.9-1.6,2.3-1.4,3.7l0.1,1c0.1,1.4,1,2.7,2.1,3.4
		c-1,1-1.5,2.3-1.3,3.8l0.1,1c0.2,1.5,1.2,2.8,2.5,3.4c-0.1,0.1-0.2,0.2-0.3,0.4c0,0,0,0,0,0.1c-0.8,0.9-1.1,2.2-0.9,3.5
		c0.1,2.4,2.1,4.3,4.5,4.3c1.3,0,2.6-0.6,3.4-1.6c1.4-1.6,1.1-3.4,1-4.1c-0.2-1.5-1.2-2.7-2.5-3.3c1-1,1.5-2.4,1.3-3.8l-0.1-1
		c-0.2-1.4-1-2.5-2.1-3.2c0.9-0.9,1.4-2.2,1.3-3.6l-0.1-1c-0.1-1.4-0.9-2.6-1.9-3.3c0.9-0.9,1.5-2.2,1.4-3.5l-0.1-1
		c-0.1-1.4-0.8-2.6-1.8-3.4c1-0.8,1.6-2.1,1.6-3.5l0-1c0-1.4-0.6-2.6-1.6-3.5c1-0.8,1.7-2,1.7-3.4l0-1c0.1-1.6-0.7-3-1.9-3.8
		c1.1-0.7,1.9-1.8,2.2-3.1l0.1,0l0.1-0.9c0.1-1.4-0.4-2.7-1.3-3.6c1.1-0.7,1.9-1.8,2.1-3.2l0.1-1c0.2-1.4-0.3-2.7-1.1-3.6
		c1.1-0.6,2-1.7,2.2-3.1l0.2-1c0.3-1.4-0.1-2.7-0.9-3.7c1.2-0.6,2.1-1.6,2.4-3l0.2-0.9c0.3-1.3,0-2.7-0.7-3.7
		c1.2-0.5,2.1-1.5,2.5-2.8l0.3-0.9c0.4-1.3,0.2-2.7-0.5-3.8c1.2-0.4,2.2-1.4,2.7-2.7l0.3-0.9c0.5-1.3,0.4-2.7-0.2-3.8
		c1.2-0.3,2.3-1.2,2.9-2.5c0.1-0.3,0.3-0.6,0.4-0.9c0.6-1.2,0.5-2.6,0-3.8c1.2-0.3,2.4-1.1,3-2.3c0.1-0.3,0.3-0.6,0.5-0.8
		c0.7-1.2,0.7-2.6,0.3-3.8c1.3-0.2,2.4-0.9,3.2-2l0.5-0.8c0.7-1.2,0.9-2.5,0.5-3.7c1.3-0.1,2.5-0.7,3.3-1.8c0.2-0.3,0.4-0.5,0.6-0.8
		c0.8-1.1,1.1-2.4,0.8-3.7h0c1.3,0,2.5-0.5,3.4-1.6l0.6-0.7c0.9-1,1.2-2.4,1.1-3.6c1.3,0.1,2.6-0.3,3.5-1.3l0.7-0.7
		c1-1,1.4-2.3,1.3-3.5c1.3,0.2,2.6-0.2,3.6-1.1l0.7-0.6c1-0.9,1.6-2.2,1.6-3.4c1.2,0.3,2.6,0,3.7-0.8l0.8-0.6
		c1.1-0.8,1.7-2.1,1.8-3.3c1.2,0.4,2.6,0.2,3.7-0.6l0.8-0.5c1.2-0.7,1.9-1.9,2-3.2c1.2,0.4,2.6,0.4,3.8-0.3l0.8-0.5
		c1.2-0.7,2-1.8,2.2-3.1c1.2,0.5,2.6,0.5,3.8-0.1l0.9-0.4c1.2-0.6,2.1-1.7,2.4-3c1.1,0.6,2.5,0.7,3.8,0.1l0.9-0.4
		c1.3-0.5,2.2-1.6,2.6-2.8c1.1,0.6,2.5,0.8,3.8,0.3l0.9-0.3c1.3-0.5,2.3-1.5,2.7-2.7c1.1,0.7,2.5,0.9,3.8,0.5l0.9-0.3
		c1.3-0.4,2.3-1.4,2.8-2.6c1.1,0.7,2.4,1,3.8,0.7l0.9-0.3c1.3-0.4,2.4-1.3,2.9-2.5c1,0.8,2.4,1.1,3.7,0.8l1-0.2
		c1.4-0.3,2.4-1.2,3-2.3c1,0.8,2.3,1.2,3.7,1l1-0.2c1.4-0.3,2.5-1.1,3.1-2.2c1,0.9,2.3,1.3,3.7,1.1l1-0.1c1.4-0.2,2.5-1,3.2-2.1
		c0.9,0.9,2.3,1.4,3.6,1.2l1-0.1c1.4-0.2,2.6-0.9,3.3-2c0.9,0.9,2.2,1.5,3.6,1.3l1-0.1c1.4-0.1,2.6-0.9,3.3-1.9
		c0.9,1,2.2,1.5,3.6,1.4l1-0.1c1.4-0.1,2.6-0.8,3.4-1.9c0.9,1,2.2,1.6,3.5,1.5l1,0c1.4,0,2.6-0.7,3.4-1.8c0.8,1,2.1,1.6,3.4,1.6
		c0,0,0,0,0.1,0l1,0c1.4,0,2.7-0.7,3.5-1.7c0.8,1,2.1,1.7,3.5,1.7l1,0h0.1c1.4,0,2.6-0.6,3.5-1.6c0.8,1,2,1.7,3.4,1.8l1,0
		c1.4,0,2.7-0.6,3.5-1.5c0.8,1.1,2,1.8,3.4,1.8l1,0.1c1.4,0.1,2.7-0.5,3.6-1.4c0.7,1.1,1.9,1.8,3.3,1.9l1,0.1
		c1.4,0.1,2.7-0.4,3.6-1.3c0.7,1.1,1.9,1.9,3.3,2l1,0.1c1.4,0.2,2.7-0.3,3.6-1.2c0.7,1.1,1.8,1.9,3.2,2.1l1,0.1
		c1.4,0.2,2.7-0.2,3.7-1.1c0.6,1.1,1.8,2,3.1,2.2l1,0.2c1.4,0.3,2.7-0.1,3.7-1c0.6,1.1,1.7,2,3,2.3l1,0.2c1.4,0.3,2.7,0,3.7-0.8
		c0.5,1.2,1.6,2.1,2.9,2.4l1,0.2c1.3,0.4,2.7,0.1,3.8-0.7c0.5,1.2,1.5,2.2,2.8,2.6l0.9,0.3c1.3,0.4,2.7,0.2,3.8-0.5
		c0.4,1.2,1.4,2.2,2.7,2.7l0.9,0.3c1.3,0.5,2.7,0.3,3.8-0.3c0.4,1.2,1.3,2.3,2.6,2.8l0.9,0.4c1.3,0.5,2.7,0.4,3.8-0.1
		c0.3,1.2,1.2,2.3,2.4,2.9l0.9,0.4c1.2,0.6,2.6,0.6,3.8,0.1c0.3,1.3,1,2.4,2.2,3.1l0.8,0.5c1.2,0.7,2.6,0.7,3.8,0.3
		c0.2,1.3,0.9,2.4,2.1,3.2l0.8,0.5c1.2,0.7,2.5,0.9,3.8,0.5c0.1,1.3,0.7,2.5,1.8,3.3l0.8,0.6c1.1,0.8,2.5,1,3.7,0.8
		c0,1.3,0.6,2.5,1.6,3.4l0.7,0.6c1,0.9,2.4,1.2,3.6,1c-0.1,1.3,0.4,2.6,1.4,3.5l0.7,0.7c1,1,2.3,1.4,3.6,1.2
		c-0.2,1.3,0.2,2.6,1.1,3.6l0.6,0.7c0.9,1,2.2,1.5,3.5,1.5c-0.2,1.2,0,2.6,0.9,3.7l0.6,0.8c0.8,1.1,2.1,1.7,3.3,1.7
		c-0.3,1.2-0.2,2.6,0.6,3.7l0.5,0.8c0.8,1.1,2,1.8,3.2,2c-0.4,1.2-0.3,2.6,0.4,3.8c0.2,0.3,0.3,0.6,0.5,0.8c0.7,1.2,1.8,2,3.1,2.2
		c-0.5,1.2-0.5,2.5,0.1,3.8l0.4,0.9C368.9,185.9,370,186.8,371.2,187.1z"/>
	<path d="M260.1,344.8c-1.3,0.4-2,1.8-1.6,3.1c0.8,2.6,0.6,5.4-0.7,7.8c-1.3,2.4-3.4,4.2-6,5.1c-5.4,1.7-11.1-1.3-12.8-6.5
		c-0.2-1.2-1.2-2-2.5-2c-1.3,0-2.4,1-2.5,2.3c0,0,0,0,0,0c0,0,0,0.1,0,0.1c0,5.6-7.4,10.3-16.2,10.3c-8.6,0-15.8-4.5-16.1-9.9
		c0-0.4,0-0.8-0.2-1.2c-0.3-1-1.3-1.7-2.3-1.7c-1.3,0-2.3,1-2.5,2.2c-1.8,5.2-7.5,8-12.8,6.4c-2.6-0.8-4.8-2.6-6-5.1
		c-1.3-2.4-1.5-5.2-0.7-7.8c0.4-1.3-0.3-2.7-1.6-3.1c-1.3-0.4-2.7,0.3-3.1,1.6c-1.2,3.9-0.9,8,1,11.7s5.1,6.3,9,7.5
		c1.5,0.5,3.1,0.7,4.6,0.7c2.4,0,4.8-0.6,7.1-1.7c1.7-0.9,3.2-2.1,4.4-3.5c3.3,5.3,10.6,9,19.3,9c8.7,0,16.1-3.6,19.3-9
		c1.2,1.4,2.7,2.6,4.5,3.5c2.2,1.2,4.6,1.7,7.1,1.7c1.5,0,3.1-0.2,4.6-0.7c3.9-1.2,7.1-3.9,9-7.5s2.3-7.8,1-11.7
		C262.8,345.2,261.4,344.4,260.1,344.8z"/>
	<path d="M240.5,452.3c-0.6,0-1.1,0.2-1.5,0.5c-4.8,1.1-37.6,1.1-42.4,0c-0.4-0.3-0.9-0.5-1.5-0.5c-1.4,0-2.5,1.1-2.5,2.5
		c0,3,3.4,3.2,9.5,3.5c4.2,0.2,9.7,0.3,15.7,0.3s11.6-0.1,15.7-0.3c6.1-0.3,9.5-0.5,9.5-3.5C243,453.4,241.8,452.3,240.5,452.3z"/>
	<path d="M151.7,438.6c-11.8-19.8-17.9-34.4-17.5-42.2c0.6-12.9,25.2-44,34.7-54.9c0.9-1,0.8-2.6-0.3-3.5c-1-0.9-2.6-0.8-3.5,0.3
		c-1.1,1.3-20.8,24.1-30.5,42.6c-28.5-1.5-38.5-19.5-38.9-20.3c-0.6-1.2-2.2-1.7-3.4-1c-1.2,0.6-1.7,2.2-1,3.4
		c0.3,0.5,3.9,7.1,12.5,13.1c2.7,15,24,56.6,35.6,79.2c3.2,6.1,5.9,11.5,6.3,12.6c0.2,1,1.1,1.8,2.2,1.9c0.1,0,0.1,0,0.2,0
		c1.3,0,2.4-1,2.5-2.3c0.1-1.1,0.1-1.1-6.8-14.6c-9.7-18.9-28.8-56.1-34-73.3c5.8,2.9,13.2,5.3,22.4,6.1c-1.7,4-2.9,7.6-3,10.5
		c-0.4,8.9,5.7,24,18.3,45c9.2,15.4,18.6,28.5,18.7,28.6c0.5,0.7,1.3,1,2,1c0.5,0,1-0.2,1.5-0.5c1.1-0.8,1.4-2.4,0.6-3.5
		C170.1,466.8,160.8,453.9,151.7,438.6z"/>
	<path d="M343.3,359.6c-1.2-0.6-2.7-0.2-3.4,1c-0.4,0.8-10.4,18.7-38.9,20.3c-9.7-18.5-29.4-41.3-30.5-42.6c-0.9-1-2.5-1.2-3.5-0.3
		c-1,0.9-1.2,2.5-0.3,3.5c9.4,10.9,34.1,42,34.7,54.9c0.3,7.8-5.7,22.3-17.5,42.2c-9.1,15.2-18.4,28.2-18.5,28.3
		c-0.8,1.1-0.6,2.7,0.6,3.5c0.4,0.3,1,0.5,1.5,0.5c0.8,0,1.5-0.4,2-1c0.1-0.1,9.5-13.2,18.7-28.6c12.5-21,18.6-36.1,18.3-45
		c-0.1-3-1.3-6.6-3-10.5c9.2-0.7,16.6-3.1,22.4-6.1c-5.2,17.2-24.3,54.3-34,73.3c-6.9,13.5-6.9,13.5-6.8,14.6
		c0.1,1.3,1.2,2.3,2.5,2.3c0.1,0,0.1,0,0.2,0c1.1-0.1,2-0.9,2.2-1.9c0.4-1.1,3.2-6.5,6.3-12.6c11.6-22.6,32.9-64.1,35.6-79.2
		c8.7-6,12.3-12.6,12.5-13.1C345,361.7,344.6,360.2,343.3,359.6z"/>
	<path class="st1" d="M234.6,398.1c-2.3,0.2-8,2.1-11.8,3.4h-10.1c-3.8-1.3-9.5-3.3-11.8-3.4c-6.2-0.4-19.1,1-29.8,2.4
		c12.7,2.1,27.7,5.8,30.2,6.4c0,0,0.1,0,0.1,0c0,0,12.5,3.8,16.4,4.9c3.9-1.2,16.4-4.9,16.4-4.9c0,0,0.1,0,0.1,0
		c2.5-0.6,17.4-4.2,30.2-6.4C253.8,399.1,240.8,397.6,234.6,398.1z"/>
	<path class="st1" d="M218.5,416.8c-0.2,0.1-0.5,0.1-0.7,0.1s-0.5,0-0.7-0.1c-2.6-0.8-16-4.8-17-5.1c-8.8-2.1-30.5-7-40.7-7.7
		c7.1,7.7,28.1,24.6,58.5,24.6c30.4,0,51.4-16.9,58.5-24.6c-10.3,0.7-32,5.6-40.7,7.7C234.5,412,221.1,416,218.5,416.8z"/>
	<path d="M234.3,393.1c-2.9,0.2-8.3,2-14,4c-1,0.3-1.9,0.7-2.5,0.9c-0.7-0.2-1.6-0.5-2.5-0.9c-5.7-2-11-3.8-14-4
		c-9.9-0.7-35,2.9-45.3,4.5c-1.5,0.2-2.7,1.2-3.3,2.6c-0.1,0.2-0.2,0.5-0.2,0.8c0,0,0,0.1,0,0.1c-0.2,1.1,0,2.3,0.7,3.3
		c4.2,6.2,27.7,29.3,64.7,29.3c37,0,60.4-23.1,64.7-29.3c0.7-1,0.9-2.2,0.7-3.3c0,0,0-0.1,0-0.1c-0.1-0.3-0.1-0.5-0.2-0.8
		c-0.6-1.4-1.8-2.3-3.3-2.6c0,0,0,0,0,0C269.3,396,244.2,392.4,234.3,393.1z M217.8,428.5c-30.4,0-51.4-16.9-58.5-24.6
		c10.3,0.7,32,5.6,40.7,7.7c1,0.3,14.5,4.4,17,5.1c0.2,0.1,0.5,0.1,0.7,0.1s0.5,0,0.7-0.1c2.6-0.8,16-4.8,17-5.1
		c8.8-2.1,30.5-7,40.7-7.7C269.2,411.6,248.2,428.5,217.8,428.5z M234.3,406.8c0,0-0.1,0-0.1,0c0,0-12.5,3.8-16.4,4.9
		c-3.9-1.2-16.4-4.9-16.4-4.9c0,0-0.1,0-0.1,0c-2.5-0.6-17.4-4.2-30.2-6.4c10.7-1.4,23.6-2.8,29.8-2.4c2.3,0.2,8,2.1,11.8,3.4h10.1
		c3.8-1.3,9.5-3.3,11.8-3.4c6.2-0.4,19.1,1,29.8,2.4C251.7,402.6,236.8,406.2,234.3,406.8z"/>
	<path d="M180.9,315.7c0.5,0.5,1.1,0.7,1.8,0.7s1.3-0.2,1.8-0.7c5.7-5.7,5.9-14.8,0.6-20.7c-4.1-5.5-13.8-16.7-26.1-16.7
		c-4.5,0-14.2,2.2-28.8,6.7c-6.3,1.9-11.7,3.7-14.4,4.6c-7.2,2.4-7.2,2.4-7.7,3.5c-0.4,0.9-0.2,2,0.4,2.7c1.1,1.2,2.2,0.9,4.4,0.2
		c13.3-4.3,24-1.2,32.6,1.3c6.1,1.8,11.4,3.3,16.3,1.9c1.9-0.5,3.2-1,4.3-1.4c3.4-1.3,3.7-1.4,14.6,2.7c0.7,0.3,1.4,0.4,2.1,0.4
		c0.1,0,0.1,0,0.2,0c1.7,3.7,1,8.3-2,11.4C179.9,313.1,179.9,314.7,180.9,315.7z M146.9,292.4c-4.1-1.2-8.6-2.5-13.7-3.2
		c6.8-2,13.9-4,19.3-5.1c-1,1.2-1.6,2.8-1.6,4.5c0,2.2,1,4.2,2.6,5.5C151.5,293.7,149.2,293.1,146.9,292.4z M164.3,293
		c-0.2,0.1-0.5,0.2-0.7,0.3c1.1-1.3,1.7-2.9,1.7-4.6c0-1.8-0.6-3.4-1.7-4.6c5.8,1.7,10.8,6.2,14.2,10
		C170.1,291.2,168.5,291.4,164.3,293z"/>
	<path d="M269.5,297.7c1.1,0.4,2.4,0.9,4.3,1.4c4.9,1.4,10.2-0.2,16.3-1.9c8.6-2.5,19.3-5.6,32.6-1.3c2.3,0.7,3.3,1.1,4.4-0.2
		c0.7-0.7,0.8-1.8,0.4-2.7c-0.5-1.1-0.5-1.1-7.7-3.5c-2.7-0.9-8.1-2.7-14.4-4.6c-14.6-4.4-24.3-6.7-28.8-6.7
		c-12.3,0-22,11.2-26.1,16.7c-2.5,2.8-3.8,6.3-3.8,10c0,4,1.6,7.8,4.4,10.7c0.5,0.5,1.1,0.7,1.8,0.7s1.3-0.2,1.8-0.7
		c1-1,1-2.6,0-3.5c-1.9-1.9-3-4.5-3-7.2c0-1.5,0.3-2.9,0.9-4.2c0.1,0,0.1,0,0.2,0c0.7,0,1.3-0.1,2.1-0.4
		C265.8,296.3,266.2,296.4,269.5,297.7z M284.7,288.6c0-1.7-0.6-3.2-1.6-4.5c5.4,1.1,12.5,3,19.3,5.1c-5.1,0.7-9.6,2-13.7,3.2
		c-2.4,0.7-4.6,1.3-6.6,1.7C283.7,292.8,284.7,290.8,284.7,288.6z M271.9,284c-1.1,1.3-1.7,2.9-1.7,4.6c0,1.8,0.6,3.4,1.7,4.6
		c-0.2-0.1-0.5-0.2-0.7-0.3c-1.9-0.7-3.2-1.1-4.9-1.1c-2,0-4.4,0.6-8.7,2.1C261.2,290.1,266.2,285.6,271.9,284z"/>
	<path d="M35.4,295.4c-1.2-0.7-2.7-0.4-3.4,0.8c-0.7,1.2-0.4,2.7,0.8,3.4c0.3,0.2,31.2,19.5,28.8,45c-0.1,1.4,0.9,2.6,2.3,2.7
		c0.1,0,0.2,0,0.2,0c1.3,0,2.4-1,2.5-2.3c1.1-11.9-4-24.3-14.7-35.8C43.9,300.6,35.7,295.6,35.4,295.4z"/>
	<path d="M400.2,295.4c-0.3,0.2-8.5,5.3-16.5,13.8C373,320.8,367.9,333.1,369,345c0.1,1.3,1.2,2.3,2.5,2.3c0.1,0,0.2,0,0.2,0
		c1.4-0.1,2.4-1.3,2.3-2.7c-2.4-25.4,28.5-44.8,28.8-45c1.2-0.7,1.5-2.3,0.8-3.4C402.9,295,401.4,294.6,400.2,295.4z"/>
	<path d="M217.8,187.2c25.9,0,45.6-7.7,52.8-20.5c0.7-1.2,0.2-2.7-1-3.4c-1.2-0.7-2.7-0.2-3.4,1c-6.3,11.2-24.4,18-48.4,18
		c-24,0-42.1-6.7-48.4-18c-0.7-1.2-2.2-1.6-3.4-1c-1.2,0.7-1.6,2.2-1,3.4C172.2,179.5,191.9,187.2,217.8,187.2z"/>
	<path d="M100,256.7c0.5,0.7,1.2,1,2,1c0.5,0,1-0.2,1.5-0.5c0.5-0.4,50.4-36.7,78.3-5c0.9,1,2.5,1.1,3.5,0.2s1.1-2.5,0.2-3.5
		c-12.9-14.7-31.8-18.5-54.6-11.1c-16.9,5.4-29.9,15-30.4,15.4C99.4,254.1,99.1,255.6,100,256.7z"/>
	<path d="M333.6,257.7c0.8,0,1.5-0.4,2-1c0.8-1.1,0.6-2.7-0.5-3.5c-0.5-0.4-13.5-9.9-30.4-15.4c-22.9-7.4-41.8-3.5-54.6,11.1
		c-0.9,1-0.8,2.6,0.2,3.5c1,0.9,2.6,0.8,3.5-0.2c11.6-13.2,28.2-16.5,49.2-9.7c16.1,5.2,29,14.6,29.1,14.7
		C332.6,257.6,333.1,257.7,333.6,257.7z"/>
	<path d="M104.8,213.6c-1.1,0.8-1.4,2.4-0.6,3.5c0.8,1.1,2.4,1.4,3.5,0.6c0.3-0.2,31-21.6,51.3-18.2c9,1.5,19,8.4,28.7,15.1
		c10.8,7.5,21,14.5,30.2,14.5c9.2,0,19.4-7.1,30.2-14.5c9.7-6.7,19.6-13.6,28.7-15.1c20.3-3.4,51,18,51.3,18.2
		c1.1,0.8,2.7,0.5,3.5-0.6c0.8-1.1,0.5-2.7-0.6-3.5c-1.3-0.9-32.7-22.8-55.1-19c-10.1,1.7-20.6,8.9-30.7,15.9
		c-10.1,7-19.7,13.6-27.3,13.6c-7.6,0-17.2-6.6-27.3-13.6c-10.1-7-20.6-14.2-30.7-15.9C137.5,190.8,106.1,212.7,104.8,213.6z"/>
</g>
</svg>
