<?xml version="1.0" encoding="utf-8"?>
<!-- Generator: Adobe Illustrator 26.2.1, SVG Export Plug-In . SVG Version: 6.00 Build 0)  -->
<svg version="1.1" id="Capa_1" xmlns="http://www.w3.org/2000/svg" xmlns:xlink="http://www.w3.org/1999/xlink" x="0px" y="0px"
	 viewBox="0 0 435.6 895.1" style="enable-background:new 0 0 435.6 895.1;" xml:space="preserve">
<style type="text/css">
	.st0{fill:none;}
	.st1{fill:#BCBEC0;}
	.st2{fill:#E4A85A;}
</style>
<g>
	<path class="st0" d="M380.5,546.6c-0.1,0-0.2-0.1-0.3-0.2c0,0.2,0.1,0.3,0.1,0.5C380.4,546.8,380.4,546.7,380.5,546.6z"/>
	<path class="st0" d="M378.6,539L378.6,539C378.5,539,378.5,539,378.6,539L378.6,539z"/>
	<path class="st0" d="M51.9,643.3c-0.5-0.2-0.9-0.6-1.3-0.9c0.3,0.5,0.6,1,0.9,1.5c0.1-0.1,0.2-0.2,0.2-0.3c0,0,0,0,0-0.1
		C51.8,643.5,51.9,643.4,51.9,643.3z"/>
	<path class="st0" d="M383.3,562c-0.3-0.2-0.5-0.4-0.8-0.6c0.1,0.5,0.1,0.9,0.2,1.4C382.9,562.6,383.1,562.3,383.3,562z"/>
	<path class="st0" d="M384.3,569.8c-0.4-0.2-0.7-0.6-1-0.9c0,0.1,0,0.2,0,0.3c0.3,0.3,0.5,0.6,0.8,0.9
		C384.2,570,384.2,569.9,384.3,569.8z"/>
	<path class="st0" d="M382.1,554.3c-0.2-0.1-0.4-0.2-0.5-0.4c0,0.3,0.1,0.6,0.1,0.9C381.8,554.6,381.9,554.4,382.1,554.3z"/>
	<path class="st0" d="M382.4,624.3c0,0.3,0,0.5,0,0.8c0.1-0.1,0.3-0.2,0.4-0.3C382.7,624.6,382.5,624.4,382.4,624.3z"/>
	<path class="st0" d="M383.1,616.8c-0.3-0.3-0.6-0.6-0.8-0.9c0,0.5,0,1,0,1.8C382.5,617.3,382.8,617,383.1,616.8z"/>
	<path class="st0" d="M382.8,608.8c0,0.2,0,0.3,0,0.4c0.1-0.1,0.2-0.2,0.3-0.3C383,608.9,382.9,608.8,382.8,608.8z"/>
	<path class="st1" d="M271.2,661.2c0.2,0.1,0.5,0.2,0.7,0.3c-1.1-1.3-1.7-2.9-1.7-4.6c0-1.8,0.6-3.4,1.7-4.6
		c-5.8,1.7-10.8,6.2-14.2,10c4.3-1.5,6.7-2.1,8.7-2.1C267.9,660.1,269.3,660.5,271.2,661.2z"/>
	<path class="st1" d="M420.4,642.4c-3-5.7-9.2-15.1-16.8-15.1c-5.3,0-10.4,4.6-14.2,9.1c-0.1-1-0.5-2-1.2-2.8c1.1-0.7,2-1.9,2.2-3.3
		l0.1-1c0.2-1.4-0.3-2.8-1.2-3.7c1.1-0.7,1.9-1.9,2.1-3.3l0.1-1c0.1-1.4-0.4-2.8-1.3-3.7c1.1-0.7,1.9-2,2-3.4l0.1-1
		c0.1-1.4-0.5-2.7-1.4-3.6c1.1-0.8,1.8-2,1.9-3.5v-1c0.1-1.4-0.6-2.7-1.6-3.6c1.1-0.8,1.7-2.1,1.8-3.5v-1c0-1.4-0.6-2.7-1.7-3.6
		c1-0.8,1.7-2.1,1.7-3.6v-1c0-1.4-0.7-2.7-1.8-3.5c1-0.9,1.6-2.2,1.6-3.6v-1c-0.1-1.4-0.8-2.7-1.9-3.4c1-0.9,1.5-2.2,1.4-3.7l-0.1-1
		c-0.1-1.4-0.9-2.6-2-3.4c0.9-0.9,1.5-2.3,1.3-3.7l-0.1-1c-0.2-1.4-1-2.6-2.1-3.3c0.9-1,1.4-2.3,1.1-3.8l-0.2-1
		c-0.2-1.4-1.1-2.6-2.3-3.2c0.9-1,1.3-2.4,1-3.8l-0.2-1c-0.3-1.4-1.2-2.5-2.4-3.1c0.8-1.1,1.2-2.5,0.8-3.9l-0.2-1
		c-0.4-1.4-1.3-2.5-2.5-3c0.8-1.1,1.1-2.5,0.6-3.9l-0.3-1c-0.4-1.4-1.4-2.4-2.7-2.9c0.7-1.1,0.9-2.6,0.5-3.9l-0.3-1
		c-0.5-1.4-1.6-2.3-2.8-2.8c0.7-1.2,0.8-2.6,0.3-3.9l-0.8-0.8c-0.6-1.3-1.7-2.3-3-2.6c0.6-1.2,0.7-2.7,0-4l-0.5-0.9
		c-0.6-1.3-1.8-2.2-3.1-2.4c0.5-1.2,0.5-2.7-0.2-4l-0.5-0.9c-0.7-1.3-1.9-2.1-3.3-2.3c0.5-1.3,0.4-2.7-0.4-3.9l-0.6-0.9
		c-0.8-1.2-2.1-1.9-3.4-2.1c0.4-1.3,0.2-2.7-0.7-3.9l-0.6-0.8c-0.9-1.2-2.2-1.8-3.5-1.8c0.3-1.3,0-2.7-0.9-3.9l-0.7-0.8
		c-0.9-1.1-2.3-1.7-3.6-1.6c0.2-1.3-0.2-2.7-1.2-3.8l-0.7-0.8c-1-1-2.4-1.5-3.7-1.4c0.1-1.3-0.3-2.7-1.4-3.7l-0.8-0.7
		c-1.1-1-2.5-1.4-3.8-1.1c0-1.3-0.5-2.7-1.6-3.6l-0.8-0.7c-1.1-0.9-2.6-1.2-3.9-0.9c0-1.3-0.7-2.7-1.9-3.5l-0.8-0.6
		c-1.2-0.8-2.6-1-3.9-0.6c-0.1-1.3-0.8-2.6-2.1-3.4l-0.9-0.5c-1.2-0.8-2.7-0.9-3.9-0.4c-0.2-1.3-1-2.5-2.3-3.2l-0.9-0.5
		c-1.3-0.7-2.7-0.7-4-0.2c-0.3-1.3-1.1-2.5-2.4-3.1l-0.9-0.4c-1.3-0.6-2.8-0.6-4,0c-0.3-1.3-1.3-2.4-2.6-3l-0.9-0.4
		c-1.3-0.6-2.8-0.4-3.9,0.2c-0.4-1.3-1.4-2.3-2.7-2.8l-1-0.3c-1.4-0.5-2.8-0.3-3.9,0.4c-0.5-1.2-1.5-2.3-2.9-2.7l-1-0.3
		c-1.4-0.4-2.8-0.2-3.9,0.6c-0.5-1.2-1.6-2.2-3-2.6l-1-0.3c-1.4-0.4-2.8,0-3.8,0.8c-0.6-1.2-1.7-2.1-3.1-2.4l-1-0.2
		c-1.4-0.3-2.8,0.1-3.8,0.9c-0.6-1.2-1.8-2.1-3.2-2.3l-1-0.2c-1.4-0.2-2.8,0.2-3.8,1.1c-0.7-1.1-1.8-2-3.2-2.2l-1-0.1
		c-1.4-0.2-2.8,0.3-3.7,1.2c-0.7-1.1-1.9-1.9-3.3-2.1l-1-0.1c-1.4-0.2-2.8,0.4-3.7,1.3c-0.7-1.1-2-1.9-3.4-2l-1-0.1
		c-1.4-0.1-2.7,0.5-3.6,1.4c-0.8-1.1-2-1.8-3.4-1.9h-1c-1.4-0.1-2.7,0.5-3.6,1.5c-0.8-1.1-2.1-1.7-3.5-1.8h-1
		c-1.4,0-2.7,0.6-3.6,1.6c-0.8-1-2.1-1.7-3.5-1.7h-1c-1.4,0-2.7,0.7-3.5,1.7c-0.9-1-2.1-1.6-3.6-1.6h-1c-1.4,0-2.7,0.7-3.5,1.8
		c-0.9-1-2.2-1.6-3.6-1.5l-1,0.1c-1.4,0.1-2.7,0.8-3.4,1.9c-0.9-1-2.2-1.5-3.6-1.4l-1,0.1c-1.4,0.1-2.6,0.9-3.4,2
		c-0.9-0.9-2.3-1.5-3.7-1.3l-1,0.1c-1.4,0.2-2.6,1-3.3,2.1c-1-0.9-2.3-1.4-3.7-1.2l-1,0.1c-1.4,0.2-2.6,1.1-3.2,2.2
		c-1-0.9-2.4-1.3-3.8-1l-1,0.2c-1.4,0.3-2.5,1.2-3.2,2.3c-1-0.8-2.4-1.2-3.8-0.9l-1,0.2c-1.4,0.3-2.5,1.3-3.1,2.5
		c-1.1-0.8-2.5-1.1-3.9-0.8l-1,0.3c-1.4,0.4-2.4,1.4-3,2.6c-1.1-0.8-2.5-1-3.9-0.6l-1,0.3c-1.4,0.4-2.4,1.5-2.9,2.7
		c-1.1-0.7-2.6-0.9-3.9-0.4l-1,0.4c-1.4,0.5-2.3,1.6-2.7,2.9c-1.2-0.6-2.6-0.8-3.9-0.2l-0.9,0.4c-1.3,0.6-2.2,1.7-2.6,3
		c-1.2-0.6-2.7-0.6-4,0l-0.9,0.4c-1.3,0.6-2.1,1.8-2.4,3.1c-1.2-0.5-2.7-0.5-4,0.2l-0.9,0.5c-1.3,0.7-2,1.9-2.2,3.3
		c-1.3-0.4-2.7-0.3-3.9,0.5l-0.9,0.6c-1.2,0.8-1.9,2.1-2,3.4c-1.3-0.4-2.7-0.2-3.9,0.7c-0.3,0.2-0.6,0.4-0.8,0.6
		c-1.2,0.9-1.8,2.2-1.8,3.5c-1.3-0.3-2.7,0-3.9,0.9l-0.5,0.7c-1.1,0.9-1.6,2.3-1.6,3.6c-1.3-0.2-2.7,0.2-3.8,1.2l-0.7,0.7
		c-1,1-1.5,2.4-1.3,3.7c-1.3-0.1-2.7,0.4-3.7,1.4l-0.7,0.8c-1,1.1-1.3,2.5-1.1,3.8c-1.3,0-2.7,0.5-3.6,1.7l-0.6,0.8
		c-0.9,1.1-1.2,2.6-0.8,3.9c-1.3,0.1-2.7,0.7-3.5,1.9l-0.6,0.8c-0.8,1.2-1,2.6-0.6,3.9c-1.3,0.1-2.6,0.9-3.4,2.1l-0.5,0.9
		c-0.8,1.2-0.8,2.7-0.3,4c-1.3,0.2-2.5,1-3.2,2.3l-0.5,0.9c-0.7,1.3-0.7,2.7-0.1,4c-1.3,0.3-2.5,1.2-3.1,2.5c-0.1,0.3-0.3,0.6-0.4,1
		c-0.6,1.3-0.5,2.8,0.1,3.9c-1.3,0.4-2.4,1.3-2.9,2.7l-0.4,1c-0.5,1.3-0.4,2.8,0.3,4c-1.3,0.4-2.3,1.4-2.8,2.8l-0.3,1
		c-0.5,1.4-0.2,2.8,0.5,3.9c-1.2,0.5-2.2,1.6-2.6,2.9l-0.3,1c-0.4,1.4-0.1,2.8,0.7,3.9c-1.2,0.6-2.2,1.7-2.5,3.1l-0.2,1
		c-0.3,1.4,0.1,2.8,0.9,3.8c-1.2,0.6-2.1,1.8-2.4,3.2l-0.2,1c-0.3,1.4,0.2,2.8,1.1,3.8c-1.2,0.7-2,1.8-2.2,3.3l-0.1,1
		c-0.2,1.4,0.3,2.8,1.2,3.8c-1.1,0.7-2,1.9-2.1,3.4l-0.1,1c-0.1,1.4,0.4,2.8,1.3,3.7c-1.1,0.7-1.9,2-2,3.4l-0.1,1
		c-0.1,1.4,0.5,2.8,1.5,3.7c-1.1,0.8-1.8,2.1-1.9,3.5v1c0,1.4,0.6,2.7,1.6,3.6c-1,0.8-1.7,2.1-1.7,3.5v1c0,1.4,0.7,2.7,1.7,3.5
		c-1,0.9-1.7,2.1-1.6,3.6v1c0,1.4,0.8,2.7,1.8,3.5c-1,0.9-1.6,2.2-1.5,3.6l0.1,1c0.1,1.4,0.8,2.7,1.9,3.4c-1,0.9-1.5,2.2-1.4,3.7
		l0.1,1c0.1,1.4,0.9,2.6,2,3.4c-0.9,0.9-1.4,2.3-1.3,3.7l0.1,1c0.2,1.4,1,2.6,2.1,3.3c-0.9,1-1.4,2.3-1.2,3.7l0.1,1
		c0.2,1.4,1.1,2.6,2.2,3.2c-0.9,1-1.3,2.4-1.1,3.8l0.2,1c0,0.3,0.1,0.5,0.2,0.7c-3.8-5.8-10.5-13.5-17.8-13.5
		c-7.6,0-13.7,9.5-16.8,15.1c-9.4,17.5,2.2,32.8,15.6,50.5c0,0,0,0,0,0.1c6.3,8,12.7,16.4,15.5,24.6c4.1,12.9,13.1,20.2,17.8,21.8
		c0.6,0.2,1.3,0.3,1.9,0.3c1.2,0,2.5-0.4,3.5-1.1c1.2-0.9,2.1-2.2,2.4-3.6c0.3-0.8,0.5-1.7,0.6-2.9c0.5-1.7,2.1-3,3.8-3
		c0.2,0,0.4,0,0.6,0.1c0.1,0,0.1,0,0.2,0c1.4,0.2,2.2,0.8,2.9,2.1c27.2,60.2,65,142.4,137.5,142.5c72.7,0.1,111.2-82.2,138.4-142.2
		c0.5-0.8,1.6-2.2,3-2.4c0.1,0,0.1,0,0.2,0c0.3,0,0.5-0.1,0.8-0.1c1.8,0,3.2,1.2,3.6,2.9c0.1,1.1,0.4,2,0.5,2.6l0,0
		c0.2,1.6,1.1,3,2.4,4c1,0.7,2.3,1.1,3.5,1.1c0.6,0,1.3-0.1,1.9-0.3c4.7-1.6,13.6-8.9,17.8-21.8c2.8-8.2,9.2-16.6,15.5-24.6
		c0.1-0.1,0.2-0.2,0.2-0.3C418.5,675.4,429.9,660.1,420.4,642.4z M383.3,562c-0.2,0.2-0.4,0.5-0.6,0.8c-0.1-0.5-0.1-0.9-0.2-1.4
		C382.8,561.7,383.1,561.9,383.3,562z M382.1,554.3c-0.1,0.2-0.3,0.3-0.4,0.5c0-0.3-0.1-0.6-0.1-0.9
		C381.7,554,381.9,554.2,382.1,554.3z M380.5,546.6c-0.1,0.1-0.1,0.2-0.2,0.3c0-0.2-0.1-0.3-0.1-0.5
		C380.3,546.5,380.4,546.5,380.5,546.6z M378.6,539L378.6,539C378.5,539,378.5,539,378.6,539L378.6,539z M66.5,713.2
		c-0.1,1.3-1.2,2.3-2.5,2.3c-0.1,0-0.2,0-0.2,0c-1.4-0.1-2.4-1.3-2.3-2.7c2.4-25.4-28.5-44.8-28.8-45c-1.2-0.7-1.5-2.3-0.8-3.4
		c0.7-1.2,2.3-1.5,3.4-0.8c0.3,0.2,8.5,5.3,16.5,13.8C62.5,689,67.6,701.3,66.5,713.2z M169.5,838.6c-0.4,0.3-1,0.5-1.5,0.5
		c-0.8,0-1.5-0.4-2-1c-0.1-0.1-9.5-13.2-18.7-28.6c-12.5-21-18.6-36.1-18.3-45c0.1-3,1.3-6.6,3-10.5c-9.2-0.7-16.6-3.1-22.4-6.1
		c5.2,17.2,24.3,54.3,34,73.3c6.9,13.5,6.9,13.5,6.8,14.6c-0.1,1.3-1.2,2.3-2.5,2.3c-0.1,0-0.1,0-0.2,0c-1.1-0.1-2-0.9-2.2-1.9
		c-0.4-1.1-3.2-6.5-6.3-12.6c-11.6-22.6-32.9-64.1-35.6-79.2c-8.7-6-12.3-12.6-12.5-13.1c-0.6-1.2-0.2-2.7,1-3.4
		c1.2-0.6,2.7-0.2,3.4,1c0.4,0.8,10.4,18.7,38.9,20.3c9.7-18.5,29.4-41.3,30.5-42.6c0.9-1,2.5-1.2,3.5-0.3s1.2,2.5,0.3,3.5
		c-9.4,10.9-34.1,42-34.7,54.9c-0.3,7.8,5.7,22.3,17.5,42.2c9.1,15.2,18.4,28.2,18.5,28.3C170.9,836.3,170.6,837.8,169.5,838.6z
		 M190.4,578.7c10.1,7,19.7,13.6,27.3,13.6s17.2-6.6,27.3-13.6s20.6-14.2,30.7-15.9c22.3-3.8,53.7,18.1,55.1,19
		c1.1,0.8,1.4,2.4,0.6,3.5s-2.4,1.4-3.5,0.6c-0.3-0.2-31-21.6-51.3-18.2c-9,1.5-19,8.4-28.7,15.1c-10.8,7.5-21,14.5-30.2,14.5
		s-19.4-7.1-30.2-14.5c-9.6-6.7-19.6-13.6-28.6-15.1c-20.3-3.4-51,18-51.3,18.2c-1.1,0.8-2.7,0.5-3.5-0.6s-0.5-2.7,0.6-3.5
		c1.3-0.9,32.7-22.8,55.1-19C169.8,564.5,180.3,571.7,190.4,578.7z M165.9,531.5c1.2-0.7,2.7-0.2,3.4,1c6.3,11.2,24.4,18,48.4,18
		c24.1,0,42.2-6.7,48.4-18c0.7-1.2,2.2-1.6,3.4-1c1.2,0.7,1.6,2.2,1,3.4c-7.2,12.9-26.9,20.5-52.8,20.5s-45.6-7.7-52.8-20.5
		C164.2,533.6,164.7,532.1,165.9,531.5z M262.1,726.3c-1.9,3.6-5.1,6.3-9,7.5c-1.5,0.5-3.1,0.7-4.6,0.7c-2.4,0-4.8-0.6-7.1-1.7
		c-1.7-0.9-3.2-2.1-4.5-3.5c-3.3,5.3-10.6,9-19.3,9s-16-3.6-19.3-9c-1.2,1.4-2.7,2.6-4.4,3.5c-2.2,1.2-4.6,1.7-7.1,1.7
		c-1.5,0-3.1-0.2-4.6-0.7c-3.9-1.2-7.1-3.9-9-7.5s-2.3-7.8-1-11.7c0.4-1.3,1.8-2,3.1-1.6s2,1.8,1.6,3.1c-0.8,2.6-0.6,5.4,0.7,7.8
		c1.3,2.4,3.4,4.2,6,5.1c5.3,1.7,10.9-1.2,12.8-6.4c0.1-1.2,1.2-2.2,2.5-2.2c1.1,0,2,0.7,2.3,1.7c0.2,0.4,0.2,0.8,0.2,1.2
		c0.3,5.4,7.6,9.9,16.1,9.9c8.8,0,16.2-4.7,16.2-10.3v-0.1l0,0c0.1-1.3,1.2-2.3,2.5-2.3c1.2,0,2.2,0.9,2.5,2
		c1.8,5.3,7.5,8.2,12.8,6.5c2.6-0.8,4.8-2.6,6-5.1c1.3-2.4,1.5-5.2,0.7-7.8c-0.4-1.3,0.3-2.7,1.6-3.1c1.3-0.4,2.7,0.3,3.1,1.6
		C264.4,718.6,264,722.7,262.1,726.3z M279.5,765.8L279.5,765.8c1.5,0.2,2.7,1.2,3.3,2.6c0.1,0.2,0.2,0.5,0.2,0.8v0.1
		c0.2,1.1,0,2.3-0.7,3.3c-4.2,6.2-27.7,29.3-64.7,29.3s-60.4-23.1-64.7-29.3c-0.7-1-0.9-2.2-0.7-3.3v-0.1c0.1-0.3,0.1-0.5,0.2-0.8
		c0.6-1.4,1.8-2.3,3.3-2.6c10.3-1.6,35.3-5.1,45.3-4.5c2.9,0.2,8.3,2,14,4c1,0.3,1.9,0.7,2.5,0.9c0.7-0.2,1.6-0.5,2.5-0.9
		c5.7-2,11-3.8,14-4C244.1,760.6,269.2,764.2,279.5,765.8z M182.8,668.9c-0.1,0-0.1,0-0.2,0c-0.7,0-1.3-0.1-2.1-0.4
		c-10.9-4.1-11.3-4-14.6-2.7c-1.1,0.4-2.4,0.9-4.3,1.4c-4.9,1.4-10.2-0.2-16.3-1.9c-8.6-2.5-19.3-5.6-32.6-1.3
		c-2.3,0.7-3.3,1.1-4.4-0.2c-0.7-0.7-0.8-1.8-0.4-2.7c0.5-1.1,0.5-1.1,7.7-3.5c2.7-0.9,8.1-2.7,14.4-4.6c14.6-4.4,24.3-6.7,28.8-6.7
		c12.3,0,22,11.2,26.1,16.7c5.3,5.9,5.1,15-0.6,20.7c-0.5,0.5-1.1,0.7-1.8,0.7s-1.3-0.2-1.8-0.7c-1-1-1-2.6,0-3.5
		C183.9,677.3,184.6,672.7,182.8,668.9z M254.8,668.6c-0.7,0.3-1.4,0.4-2.1,0.4c-0.1,0-0.1,0-0.2,0c-0.6,1.3-0.9,2.7-0.9,4.2
		c0,2.7,1.1,5.3,3,7.2c1,1,1,2.6,0,3.5c-0.5,0.5-1.1,0.7-1.8,0.7s-1.3-0.2-1.8-0.7c-2.9-2.9-4.4-6.7-4.4-10.7c0-3.7,1.4-7.3,3.8-10
		c4.1-5.5,13.8-16.7,26.1-16.7c4.5,0,14.2,2.2,28.8,6.7c6.3,1.9,11.7,3.7,14.4,4.6c7.2,2.4,7.2,2.4,7.7,3.5c0.4,0.9,0.2,2-0.4,2.7
		c-1.1,1.2-2.2,0.9-4.4,0.2c-13.3-4.3-24-1.2-32.6,1.3c-6.1,1.8-11.4,3.3-16.3,1.9c-1.9-0.5-3.2-1-4.3-1.4
		C266.1,664.6,265.7,664.5,254.8,668.6z M303,610.8c-21.1-6.8-37.6-3.5-49.2,9.7c-0.9,1-2.5,1.1-3.5,0.2c-1-0.9-1.1-2.5-0.2-3.5
		c12.9-14.7,31.8-18.5,54.6-11.1c16.9,5.4,29.9,15,30.4,15.4c1.1,0.8,1.3,2.4,0.5,3.5c-0.5,0.7-1.2,1-2,1c-0.5,0-1-0.2-1.5-0.5
		C331.9,625.4,319.1,616,303,610.8z M130.8,606.1c22.9-7.4,41.8-3.5,54.6,11.1c0.9,1,0.8,2.6-0.2,3.5s-2.6,0.8-3.5-0.2
		c-27.9-31.8-77.8,4.6-78.3,5c-0.4,0.3-1,0.5-1.5,0.5c-0.8,0-1.5-0.3-2-1c-0.8-1.1-0.6-2.7,0.5-3.5
		C100.9,621,113.9,611.5,130.8,606.1z M233.4,826.5c-4.2,0.2-9.7,0.3-15.7,0.3s-11.6-0.1-15.7-0.3c-6.1-0.3-9.5-0.5-9.5-3.5
		c0-1.4,1.1-2.5,2.5-2.5c0.6,0,1.1,0.2,1.5,0.5c4.8,1.1,37.6,1.1,42.4,0c0.4-0.3,0.9-0.5,1.5-0.5c1.4,0,2.5,1.1,2.5,2.5
		C242.9,826,239.5,826.2,233.4,826.5z M344.3,731.1c-0.3,0.5-3.9,7.1-12.5,13.1c-2.7,15-24,56.6-35.6,79.2
		c-3.2,6.1-5.9,11.5-6.3,12.6c-0.2,1-1.1,1.8-2.2,1.9c-0.1,0-0.1,0-0.2,0c-1.3,0-2.4-1-2.5-2.3c-0.1-1.1-0.1-1.1,6.8-14.6
		c9.7-18.9,28.8-56.1,34-73.3c-5.8,2.9-13.2,5.3-22.4,6.1c1.7,4,2.9,7.6,3,10.5c0.4,8.9-5.7,24-18.3,45
		c-9.2,15.4-18.6,28.5-18.7,28.6c-0.5,0.7-1.3,1-2,1c-0.5,0-1-0.2-1.5-0.5c-1.1-0.8-1.4-2.4-0.6-3.5c0.1-0.1,9.4-13.1,18.5-28.3
		c11.8-19.8,17.9-34.4,17.5-42.2c-0.6-12.9-25.2-44-34.7-54.9c-0.9-1-0.8-2.6,0.3-3.5c1-0.9,2.6-0.8,3.5,0.3
		c1.1,1.3,20.8,24.1,30.5,42.6c28.5-1.5,38.5-19.5,38.9-20.3c0.7-1.2,2.2-1.7,3.4-1C344.5,728.4,344.9,729.9,344.3,731.1z
		 M367.8,552c-0.6-1.2-0.6-2.6-0.1-3.8c-1.3-0.2-2.4-1-3.1-2.2c-0.2-0.3-0.3-0.6-0.5-0.8c-0.7-1.2-0.8-2.6-0.4-3.8
		c-1.3-0.1-2.5-0.8-3.2-2l-0.5-0.8c-0.8-1.1-1-2.5-0.6-3.7c-1.3-0.1-2.5-0.7-3.3-1.7l-0.6-0.8c-0.8-1.1-1.1-2.4-0.9-3.7
		c-1.3,0-2.5-0.5-3.5-1.5l-0.6-0.7c-0.9-1-1.3-2.3-1.1-3.6c-1.3,0.1-2.6-0.3-3.6-1.2l-0.7-0.7c-1-0.9-1.5-2.2-1.4-3.5
		c-1.3,0.2-2.6-0.1-3.6-1l-0.7-0.6c-1.1-0.9-1.6-2.1-1.6-3.4c-1.2,0.3-2.6,0.1-3.7-0.8l-0.8-0.6c-1.1-0.8-1.8-2-1.8-3.3
		c-1.2,0.4-2.6,0.2-3.8-0.5l-0.8-0.5c-1.2-0.7-1.9-1.9-2.1-3.2c-1.2,0.5-2.6,0.4-3.8-0.3l-0.8-0.5c-1.2-0.7-2-1.8-2.2-3.1
		c-1.2,0.5-2.6,0.5-3.8-0.1l-0.9-0.4c-1.2-0.6-2.1-1.7-2.4-2.9c-1.1,0.6-2.5,0.7-3.8,0.1l-0.9-0.4c-1.3-0.5-2.2-1.6-2.6-2.8
		c-1.1,0.6-2.5,0.8-3.8,0.3l-0.9-0.3c-1.3-0.5-2.3-1.5-2.7-2.7c-1.1,0.7-2.5,0.9-3.8,0.5l-0.9-0.3c-1.3-0.4-2.3-1.4-2.8-2.6
		c-1,0.7-2.4,1-3.8,0.7l-1-0.2c-1.3-0.3-2.4-1.3-2.9-2.4c-1,0.8-2.4,1.1-3.7,0.8l-1-0.2c-1.4-0.3-2.4-1.2-3-2.3
		c-1,0.8-2.3,1.2-3.7,1l-1-0.2c-1.4-0.2-2.5-1.1-3.1-2.2c-1,0.9-2.3,1.3-3.7,1.1l-1-0.1c-1.4-0.2-2.5-1-3.2-2.1
		c-0.9,0.9-2.3,1.4-3.6,1.2l-1-0.1c-1.4-0.2-2.6-0.9-3.3-2c-0.9,0.9-2.2,1.5-3.6,1.3l-1-0.1c-1.4-0.1-2.6-0.9-3.3-1.9
		c-0.9,1-2.1,1.5-3.6,1.4l-1-0.1c-1.4-0.1-2.6-0.8-3.4-1.8c-0.9,1-2.1,1.6-3.5,1.5h-1c-1.4,0-2.6-0.7-3.4-1.8
		c-0.8,1-2.1,1.6-3.5,1.6h-0.1h-1c-1.4,0-2.7-0.7-3.5-1.7c-0.8,1-2.1,1.7-3.5,1.7h-1c0,0,0,0-0.1,0c-1.4,0-2.6-0.6-3.4-1.6
		c-0.8,1-2,1.7-3.4,1.8h-1c-1.4,0.1-2.7-0.5-3.5-1.5c-0.8,1.1-2,1.8-3.4,1.9l-1,0.1c-1.4,0.1-2.7-0.5-3.6-1.4
		c-0.7,1.1-1.9,1.8-3.3,1.9l-1,0.1c-1.4,0.1-2.7-0.4-3.6-1.3c-0.7,1.1-1.9,1.9-3.3,2l-1,0.1c-1.4,0.2-2.7-0.3-3.6-1.2
		c-0.7,1.1-1.8,1.9-3.2,2.1l-1,0.1c-1.4,0.2-2.7-0.2-3.7-1.1c-0.6,1.1-1.7,2-3.1,2.2l-1,0.2c-1.4,0.3-2.7-0.1-3.7-1
		c-0.6,1.2-1.7,2-3,2.3l-1,0.2c-1.4,0.3-2.7,0-3.7-0.8c-0.5,1.2-1.6,2.1-2.9,2.5l-0.9,0.3c-1.3,0.4-2.7,0.1-3.8-0.7
		c-0.5,1.2-1.5,2.2-2.8,2.6l-0.9,0.3c-1.3,0.4-2.7,0.2-3.8-0.5c-0.4,1.2-1.4,2.2-2.7,2.7l-1,0.7c-1.3,0.5-2.7,0.3-3.8-0.3
		c-0.4,1.2-1.3,2.3-2.6,2.8l-0.9,0.4c-1.3,0.5-2.7,0.5-3.8-0.1c-0.3,1.2-1.1,2.3-2.4,3l-0.9,0.4c-1.2,0.6-2.6,0.6-3.8,0.1
		c-0.2,1.3-1,2.4-2.2,3.1l-0.8,0.5c-1.2,0.7-2.6,0.8-3.8,0.3c-0.2,1.3-0.9,2.5-2,3.2l-0.8,0.5c-1.1,0.8-2.5,0.9-3.7,0.6
		c-0.1,1.3-0.7,2.5-1.8,3.3l-0.8,0.6c-1.1,0.8-2.4,1.1-3.7,0.8c0,1.3-0.5,2.5-1.6,3.4l-0.7,0.6c-1,0.9-2.4,1.2-3.6,1.1
		c0.1,1.3-0.3,2.6-1.3,3.5l-0.7,0.7c-1,1-2.3,1.4-3.5,1.3c0.2,1.3-0.2,2.6-1.1,3.6l-0.6,0.7c-0.9,1-2.2,1.6-3.4,1.6l0,0
		c0.3,1.2,0,2.6-0.8,3.7c-0.2,0.3-0.4,0.5-0.6,0.8c-0.8,1.1-2,1.7-3.3,1.8c0.4,1.2,0.2,2.6-0.5,3.7l-0.5,0.8c-0.7,1.2-1.9,1.9-3.2,2
		c0.5,1.2,0.4,2.6-0.3,3.8c-0.2,0.3-0.3,0.6-0.5,0.8c-0.7,1.2-1.8,2-3,2.3c0.5,1.2,0.6,2.5,0,3.8c-0.1,0.3-0.3,0.6-0.4,0.9
		c-0.6,1.3-1.6,2.1-2.9,2.5c0.6,1.1,0.7,2.5,0.2,3.8l-0.3,0.9c-0.5,1.3-1.5,2.2-2.7,2.7c0.7,1.1,0.9,2.4,0.5,3.8l-0.3,0.9
		c-0.4,1.3-1.4,2.3-2.5,2.8c0.8,1,1.1,2.4,0.7,3.7l-0.2,0.9c-0.3,1.3-1.2,2.4-2.4,3c0.8,1,1.2,2.3,0.9,3.7l-0.2,1
		c-0.3,1.4-1.1,2.5-2.2,3.1c0.9,1,1.3,2.3,1.1,3.6l-0.1,1c-0.2,1.4-1,2.5-2.1,3.2c0.9,0.9,1.4,2.2,1.3,3.6l-0.1,0.9h-0.1
		c-0.3,1.3-1.1,2.4-2.2,3.1c1.2,0.9,1.9,2.3,1.9,3.8v1c0,1.4-0.7,2.6-1.7,3.4c1,0.8,1.6,2.1,1.6,3.5v1c0,1.4-0.6,2.7-1.6,3.5
		c1,0.8,1.7,2,1.8,3.4l0.1,1c0.1,1.4-0.5,2.7-1.4,3.5c1.1,0.7,1.8,1.9,1.9,3.3l0.1,1c0.1,1.4-0.4,2.7-1.3,3.6
		c1.1,0.7,1.9,1.8,2.1,3.2l0.1,1c0.2,1.5-0.3,2.9-1.3,3.8c1.3,0.6,2.2,1.8,2.5,3.3c0.1,0.8,0.4,2.5-1,4.1c-0.9,1-2.1,1.6-3.4,1.6
		c-2.4,0-4.4-1.9-4.5-4.3c-0.2-1.3,0.2-2.5,0.9-3.5c-0.1,0.1-0.2,0.2-0.2,0.3c-0.3-0.5-0.5-1-0.9-1.5c0.4,0.4,0.8,0.7,1.3,0.9
		c-0.1,0.1-0.1,0.1-0.2,0.2c0.1-0.1,0.2-0.2,0.3-0.4c-1.3-0.6-2.3-1.9-2.5-3.4l-0.1-1c-0.2-1.4,0.3-2.8,1.3-3.8
		c-1.1-0.7-2-1.9-2.1-3.4l-0.1-1c-0.1-1.4,0.4-2.8,1.4-3.7c-1.1-0.8-1.9-2-1.9-3.5l-0.1-1c-0.1-1.5,0.6-2.8,1.6-3.7
		c-1.1-0.8-1.8-2.1-1.8-3.5v-1c0-1.5,0.7-2.8,1.7-3.6c-1-0.9-1.7-2.2-1.6-3.6v-1c0.1-1.5,0.8-2.7,2-3.5c-1.3-0.9-2.1-2.3-2.1-4
		c0-1.9,1.1-3.5,2.7-4.3c-0.9-1-1.4-2.3-1.2-3.7l0.1-1c0.2-1.4,1.1-2.6,2.3-3.3c-0.9-1-1.4-2.4-1.1-3.8l0.2-1
		c0.3-1.4,1.2-2.6,2.4-3.2c-0.9-1.1-1.2-2.5-0.9-3.9l0.3-1c0.4-1.4,1.4-2.5,2.6-3c-0.8-1.1-1.1-2.6-0.7-4l0.3-1
		c0.4-1.4,1.5-2.4,2.8-2.9c-0.7-1.2-0.9-2.6-0.4-4l0.4-1c0.5-1.4,1.7-2.3,3-2.7c-0.7-1.2-0.8-2.7-0.2-4c0.1-0.3,0.3-0.6,0.4-1
		c0.6-1.3,1.8-2.2,3.1-2.5c-0.6-1.2-0.6-2.7,0.1-4c0.2-0.3,0.3-0.6,0.5-0.9c0.7-1.3,2-2.1,3.3-2.3c-0.5-1.3-0.4-2.8,0.4-4l0.6-0.9
		c0.8-1.2,2.1-2,3.5-2.1c-0.4-1.3-0.2-2.8,0.7-4c0.2-0.3,0.4-0.6,0.6-0.8c0.9-1.2,2.2-1.8,3.6-1.8l0,0c-0.3-1.3,0-2.8,1-3.9l0.7-0.8
		c1-1.1,2.4-1.6,3.7-1.5c-0.2-1.4,0.2-2.8,1.3-3.8l0.7-0.7c1-1,2.5-1.5,3.8-1.3c-0.1-1.4,0.4-2.8,1.5-3.7l0.8-0.7
		c1.1-1,2.6-1.3,3.9-1c0-1.4,0.6-2.7,1.8-3.6c0.3-0.2,0.6-0.4,0.8-0.6c1.2-0.9,2.6-1.1,3.9-0.7c0.1-1.4,0.8-2.7,2-3.5l0.9-0.6
		c1.2-0.8,2.7-0.9,4-0.5c0.2-1.3,1-2.6,2.2-3.3l0.9-0.5c1.3-0.7,2.8-0.7,4-0.2c0.3-1.3,1.1-2.5,2.4-3.2l0.9-0.5c1.3-0.6,2.8-0.6,4,0
		c0.3-1.3,1.2-2.5,2.6-3l0.9-0.4c1.3-0.6,2.8-0.4,4,0.2c0.4-1.3,1.4-2.4,2.7-2.9l1-0.4c1.4-0.5,2.8-0.3,4,0.4
		c0.5-1.3,1.5-2.3,2.9-2.8l1-0.3c1.4-0.4,2.8-0.2,3.9,0.6c0.5-1.2,1.6-2.2,3-2.6l1-0.3c1.4-0.4,2.8,0,3.9,0.8
		c0.6-1.2,1.7-2.2,3.1-2.5l1-0.2c1.4-0.3,2.8,0.1,3.9,0.9c0.6-1.2,1.7-2.1,3.2-2.4l1-0.2c1.4-0.3,2.8,0.2,3.8,1.1
		c0.7-1.2,1.8-2,3.2-2.3l1-0.2c1.4-0.2,2.8,0.3,3.8,1.2c0.7-1.1,1.9-2,3.3-2.2l1-0.1c1.4-0.2,2.8,0.4,3.7,1.3c0.7-1.1,1.9-1.9,3.4-2
		l1-0.1c1.4-0.1,2.8,0.4,3.7,1.4c0.8-1.1,2-1.9,3.4-2l1-0.1c1.4-0.1,2.8,0.5,3.6,1.5c0.8-1.1,2-1.8,3.5-1.9h1
		c1.4-0.1,2.7,0.6,3.6,1.6c0.8-1.1,2.1-1.8,3.5-1.8h1c1.5,0,2.7,0.6,3.6,1.7c0.8-1,2.1-1.7,3.5-1.7l0,0h1c1.4,0,2.7,0.7,3.5,1.8
		c0.9-1,2.1-1.7,3.6-1.6h1c1.4,0.1,2.7,0.8,3.5,1.9c0.9-1,2.2-1.6,3.6-1.5l1,0.1c1.4,0.1,2.7,0.8,3.4,1.9c0.9-1,2.2-1.5,3.7-1.4
		l1,0.1c1.4,0.1,2.7,0.9,3.4,2c0.9-1,2.3-1.5,3.7-1.3l1,0.1c1.4,0.2,2.6,1,3.3,2.1c1-0.9,2.3-1.4,3.8-1.2l1,0.1
		c1.4,0.2,2.6,1.1,3.3,2.2c1-0.9,2.4-1.3,3.8-1.1l1,0.2c1.4,0.3,2.6,1.2,3.2,2.4c1-0.9,2.4-1.3,3.8-1l1,0.2c1.4,0.3,2.5,1.3,3.1,2.5
		c1.1-0.8,2.5-1.2,3.9-0.8l1,0.3c1.4,0.4,2.5,1.4,3,2.6c1.1-0.8,2.5-1.1,3.9-0.6l1,0.3c1.4,0.4,2.4,1.5,2.9,2.7c1.1-0.7,2.6-1,4-0.5
		l1,0.3c1.4,0.5,2.3,1.6,2.8,2.9c1.2-0.7,2.6-0.8,4-0.3l1,0.4c1.3,0.6,2.3,1.7,2.6,3c1.2-0.6,2.7-0.7,4-0.1l0.9,0.4
		c1.3,0.6,2.2,1.8,2.5,3.2c1.2-0.6,2.7-0.5,4,0.2l0.9,0.5c1.3,0.7,2.1,2,2.3,3.3c1.3-0.5,2.7-0.4,4,0.4c0.3,0.2,0.6,0.4,0.9,0.6
		c1.2,0.8,1.9,2.1,2.1,3.4c1.3-0.4,2.8-0.2,4,0.7l0.8,0.6c1.2,0.9,1.8,2.2,1.8,3.6c1.3-0.3,2.8,0,3.9,0.9c0.3,0.2,0.5,0.4,0.8,0.7
		c1.1,0.9,1.7,2.3,1.6,3.7c1.3-0.2,2.8,0.2,3.8,1.2l0.8,0.7c1.1,1,1.5,2.4,1.3,3.8c1.4-0.1,2.8,0.4,3.8,1.5l0.7,0.8
		c1,1.1,1.3,2.5,1.1,3.9h0.1c1.3,0,2.7,0.6,3.5,1.7l0.6,0.8c0.9,1.2,1.1,2.6,0.8,3.9c1.4,0.1,2.7,0.8,3.5,2l0.6,0.9
		c0.8,1.2,1,2.7,0.5,4c1.4,0.2,2.6,0.9,3.4,2.2c0.2,0.3,0.4,0.6,0.5,0.9c0.7,1.3,0.8,2.8,0.2,4c1.3,0.3,2.6,1.1,3.2,2.4l0.5,0.9
		c0.6,1.3,0.6,2.8,0,4c1.3,0.3,2.5,1.3,3,2.6l0.4,0.9c0.6,1.4,0.4,2.8-0.3,4c1.3,0.4,2.4,1.4,2.9,2.8l0.3,1c0.5,1.4,0.2,2.8-0.6,4
		c0.5,0.2,0.9,0.5,1.3,0.8c0-0.1,0-0.2,0-0.3c0.3,0.3,0.6,0.7,1,0.9c-0.1,0.1-0.1,0.1-0.2,0.2c0.3,0.4,0.5,0.8,0.6,1.3l0.3,1
		c0.4,1.4,0,2.8-0.8,3.9c1.2,0.6,2.2,1.7,2.5,3.1l0.2,1c0.3,1.4-0.1,2.9-1,3.9c1.2,0.6,2.1,1.8,2.3,3.3l0.2,1
		c0.2,1.4-0.3,2.8-1.2,3.8c1.2,0.7,2,1.9,2.2,3.4l0.1,1c0.2,1.5-0.4,2.8-1.4,3.7c1.1,0.8,1.9,2,2,3.5l0.1,1c0.1,1.5-0.6,2.9-1.7,3.8
		c1.3,0.8,2.2,2.3,2.2,4c0,0.9-0.3,1.7-0.7,2.5c0,0.1-0.1,0.1-0.1,0.2l0,0c-0.3,0.5-0.7,1-1.2,1.4c1,0.9,1.7,2.2,1.7,3.6v1
		c-0.1,1.5-0.8,2.7-1.9,3.5c1,0.9,1.6,2.2,1.5,3.7l-0.1,1c-0.1,1.5-0.9,2.7-2,3.4c1,0.9,1.5,2.3,1.3,3.8l-0.1,1
		c-0.2,1.5-1,2.7-2.2,3.3c0.9,1,1.4,2.4,1.2,3.8v0.1c0,0.6-0.2,1.2-0.5,1.8c-0.8,1.5-2.3,2.3-4,2.3c-0.5,0-1-0.1-1.5-0.2
		c-0.6-0.2-3.6-1.4-2.9-5.5c0.2-1.4,1.1-2.5,2.2-3.2c-0.9-0.9-1.4-2.2-1.2-3.6l0.1-1c0.2-1.4,0.9-2.5,2-3.2
		c-0.9-0.9-1.5-2.2-1.3-3.6l0.1-1c0.1-1.2,0.6-2.2,1.5-3c0-0.3,0-0.5,0-0.8c-0.7-0.8-1.1-1.9-1.1-3.1v-1c0-1,0.4-1.9,0.9-2.6
		c0-0.7,0-1.3,0-1.8c-0.1-0.1-0.1-0.2-0.2-0.3c-0.6-0.8-0.9-1.8-0.9-2.8c0-1.4,0.7-2.7,1.7-3.6c0-0.1,0-0.3,0-0.4
		c-1-0.8-1.6-1.9-1.7-3.2l-0.1-1c-0.1-1.4,0.5-2.7,1.4-3.6c-1.1-0.7-1.8-1.9-2-3.3l-0.1-1c-0.1-1.4,0.3-2.7,1.2-3.6
		c-1.1-0.7-1.9-1.8-2.1-3.2l-0.2-1c-0.2-1.4,0.2-2.7,1-3.7c-1.1-0.6-2-1.7-2.3-3l-0.2-1c-0.3-1.4,0.1-2.7,0.8-3.7
		c-1.2-0.5-2.1-1.6-2.5-2.9l-0.3-0.9c-0.4-1.3-0.1-2.7,0.6-3.7c-1.2-0.5-2.2-1.4-2.6-2.8l-0.3-0.9c-0.4-1.3-0.3-2.7,0.4-3.8
		c-1.2-0.4-2.2-1.3-2.8-2.6l-0.4-0.9c-0.5-1.3-0.4-2.6,0.2-3.8c-1.2-0.3-2.3-1.2-2.9-2.4L367.8,552z M402.7,667.8
		c-0.3,0.2-31.2,19.5-28.8,45c0.1,1.4-0.9,2.6-2.3,2.7c-0.1,0-0.2,0-0.2,0c-1.3,0-2.4-1-2.5-2.3c-1.1-11.9,4-24.3,14.7-35.8
		c8-8.6,16.2-13.6,16.5-13.8c1.2-0.7,2.7-0.4,3.4,0.8C404.3,665.6,403.9,667.1,402.7,667.8z"/>
	<path class="st1" d="M150.8,656.8c0-1.7,0.6-3.2,1.6-4.5c-5.4,1.1-12.5,3-19.3,5.1c5.1,0.7,9.6,2,13.7,3.2c2.4,0.7,4.6,1.3,6.6,1.7
		C151.8,661,150.8,659,150.8,656.8z"/>
	<path class="st1" d="M302.3,657.4c-6.8-2-13.9-4-19.3-5.1c1,1.2,1.6,2.8,1.6,4.5c0,2.2-1,4.2-2.6,5.5c2-0.4,4.3-1.1,6.6-1.7
		C292.7,659.4,297.2,658.1,302.3,657.4z"/>
	<path class="st1" d="M163.6,652.2c1.1,1.3,1.7,2.9,1.7,4.6c0,1.8-0.6,3.4-1.7,4.6c0.2-0.1,0.5-0.2,0.7-0.3c4.1-1.5,5.7-1.7,13.5,1
		C174.3,658.3,169.3,653.8,163.6,652.2z"/>
	<path d="M371.1,555.3c-0.6,1.1-0.7,2.5-0.2,3.8l0.4,0.9c0.5,1.3,1.6,2.2,2.8,2.6c-0.7,1.1-0.8,2.5-0.4,3.8l0.3,0.9
		c0.4,1.3,1.4,2.3,2.6,2.8c-0.7,1.1-1,2.4-0.6,3.7l0.3,0.9c0.4,1.3,1.3,2.4,2.5,2.9c-0.8,1-1.1,2.4-0.8,3.7l0.2,1
		c0.3,1.4,1.2,2.4,2.3,3c-0.8,1-1.3,2.3-1,3.7l0.2,1c0.2,1.4,1,2.5,2.1,3.2c-0.9,0.9-1.4,2.2-1.2,3.6l0.1,1c0.1,1.4,0.9,2.6,2,3.3
		c-0.9,0.9-1.5,2.2-1.4,3.6l0.1,1c0.1,1.3,0.7,2.5,1.7,3.2c0.1,0.1,0.2,0.1,0.3,0.2c-0.1,0.1-0.2,0.2-0.3,0.3
		c-1,0.9-1.7,2.2-1.7,3.6c0,1.1,0.4,2,0.9,2.8c0.1,0.1,0.1,0.2,0.2,0.3c0.2,0.3,0.5,0.7,0.8,0.9c-0.3,0.2-0.6,0.5-0.8,0.9
		c-0.5,0.7-0.9,1.6-0.9,2.6v1c0,1.2,0.4,2.2,1.1,3.1c0.1,0.2,0.3,0.3,0.4,0.5c-0.1,0.1-0.3,0.2-0.4,0.3c-0.8,0.7-1.4,1.8-1.5,3
		l-0.1,1c-0.1,1.4,0.4,2.7,1.3,3.6c-1.1,0.7-1.9,1.9-2,3.2l-0.1,1c-0.2,1.4,0.3,2.7,1.2,3.6c-1.1,0.6-2,1.8-2.2,3.2
		c-0.7,4,2.3,5.3,2.9,5.5c0.5,0.2,1,0.2,1.5,0.2c1.6,0,3.1-0.9,4-2.3c0.3-0.6,0.5-1.2,0.5-1.8v-0.1c0.2-1.4-0.2-2.8-1.2-3.8
		c1.2-0.7,2-1.9,2.2-3.3l0.1-1c0.2-1.5-0.4-2.8-1.3-3.8c1.1-0.7,1.9-2,2-3.4l0.1-1c0.1-1.4-0.5-2.8-1.5-3.7c1.1-0.8,1.8-2.1,1.9-3.5
		v-1c0-1.5-0.6-2.8-1.7-3.6c0.5-0.4,0.9-0.8,1.2-1.4l0,0c0-0.1,0.1-0.1,0.1-0.2c0.4-0.7,0.7-1.6,0.7-2.5c0-1.7-0.9-3.2-2.2-4
		c1.1-0.9,1.8-2.3,1.7-3.8l-0.1-1c-0.1-1.5-0.9-2.7-2-3.5c1-0.9,1.5-2.3,1.4-3.7l-0.1-1c-0.2-1.5-1-2.7-2.2-3.4
		c0.9-1,1.4-2.4,1.2-3.8l-0.2-1c-0.2-1.4-1.1-2.6-2.3-3.3c0.9-1,1.3-2.4,1-3.9l-0.2-1c-0.3-1.4-1.3-2.6-2.5-3.1
		c0.8-1.1,1.2-2.5,0.8-3.9l-0.3-1c-0.1-0.5-0.3-0.9-0.6-1.3c-0.2-0.3-0.5-0.6-0.8-0.9c-0.4-0.3-0.8-0.6-1.3-0.8c0.8-1.1,1-2.6,0.6-4
		l-0.3-1c-0.5-1.4-1.6-2.4-2.9-2.8c0.7-1.2,0.9-2.6,0.3-4l-0.4-0.9c-0.6-1.4-1.7-2.3-3-2.6c0.6-1.2,0.7-2.7,0-4l-0.5-0.9
		c-0.7-1.3-1.9-2.2-3.2-2.4c0.5-1.3,0.5-2.7-0.2-4c-0.2-0.3-0.3-0.6-0.5-0.9c-0.7-1.3-2-2-3.4-2.2c0.5-1.3,0.3-2.8-0.5-4l-0.6-0.9
		c-0.8-1.2-2.1-1.9-3.5-2c0.4-1.3,0.1-2.8-0.8-3.9l-0.6-0.8c-0.9-1.1-2.2-1.7-3.5-1.7H359c0.3-1.3-0.1-2.8-1.1-3.9l-0.7-0.8
		c-1-1.1-2.4-1.6-3.8-1.5c0.2-1.4-0.3-2.8-1.3-3.8l-0.8-0.7c-1.1-1-2.5-1.4-3.8-1.2c0.1-1.4-0.5-2.7-1.6-3.7
		c-0.3-0.2-0.5-0.5-0.8-0.7c-1.1-0.9-2.6-1.2-3.9-0.9c0-1.4-0.7-2.7-1.8-3.6l-0.8-0.6c-1.2-0.9-2.7-1.1-4-0.7
		c-0.1-1.4-0.8-2.6-2.1-3.4c-0.3-0.2-0.6-0.4-0.9-0.6c-1.2-0.8-2.7-0.9-4-0.4c-0.2-1.3-1-2.6-2.3-3.3l-0.9-0.5
		c-1.3-0.7-2.8-0.7-4-0.2c-0.3-1.3-1.1-2.5-2.5-3.2l-0.9-0.4c-1.3-0.6-2.8-0.6-4,0.1c-0.3-1.3-1.3-2.4-2.6-3l-1-0.4
		c-1.3-0.6-2.8-0.4-4,0.3c-0.4-1.3-1.4-2.4-2.8-2.9l-1-0.3c-1.4-0.5-2.8-0.3-4,0.5c-0.5-1.3-1.5-2.3-2.9-2.7l-1-0.3
		c-1.4-0.4-2.8-0.1-3.9,0.6c-0.5-1.2-1.6-2.2-3-2.6l-1-0.3c-1.4-0.4-2.8,0-3.9,0.8c-0.6-1.2-1.7-2.2-3.1-2.5l-1-0.2
		c-1.4-0.3-2.8,0.1-3.8,1c-0.6-1.2-1.8-2.1-3.2-2.4l-1-0.2c-1.4-0.3-2.8,0.2-3.8,1.1c-0.7-1.2-1.8-2-3.3-2.2l-1-0.1
		c-1.4-0.2-2.8,0.3-3.8,1.2c-0.7-1.1-1.9-2-3.3-2.1l-1-0.1c-1.4-0.2-2.8,0.4-3.7,1.3c-0.7-1.1-1.9-1.9-3.4-2l-1-0.1
		c-1.4-0.1-2.8,0.5-3.7,1.4c-0.8-1.1-2-1.9-3.4-1.9l-1-0.1c-1.4-0.1-2.8,0.5-3.6,1.5c-0.8-1.1-2-1.8-3.5-1.9h-1
		c-1.5,0-2.7,0.6-3.6,1.6c-0.8-1.1-2.1-1.7-3.5-1.8h-1l0,0c-1.4,0-2.7,0.7-3.5,1.7c-0.8-1-2.1-1.7-3.6-1.7h-1
		c-1.4,0-2.7,0.7-3.5,1.8c-0.9-1-2.2-1.7-3.6-1.6h-1c-1.4,0.1-2.7,0.8-3.5,1.9c-0.9-1-2.2-1.6-3.6-1.5l-1,0.1
		c-1.4,0.1-2.7,0.8-3.4,2c-0.9-1-2.2-1.5-3.7-1.4l-1,0.1c-1.4,0.1-2.7,0.9-3.4,2c-0.9-1-2.3-1.5-3.7-1.3l-1,0.1
		c-1.4,0.2-2.6,1-3.3,2.2c-1-0.9-2.3-1.4-3.8-1.2l-1,0.2c-1.4,0.2-2.6,1.1-3.2,2.3c-1-0.9-2.4-1.3-3.8-1.1l-1,0.2
		c-1.4,0.3-2.6,1.2-3.2,2.4c-1-0.9-2.4-1.2-3.9-0.9l-1,0.2c-1.4,0.3-2.5,1.3-3.1,2.5c-1.1-0.8-2.5-1.1-3.9-0.8l-1,0.3
		c-1.4,0.4-2.5,1.4-3,2.6c-1.1-0.8-2.5-1-3.9-0.6l-1,0.3c-1.4,0.4-2.4,1.5-2.9,2.8c-1.1-0.7-2.6-0.9-4-0.4l-1,0.4
		c-1.4,0.5-2.3,1.6-2.7,2.9c-1.2-0.7-2.6-0.8-4-0.2l-0.9,0.4c-1.3,0.6-2.3,1.7-2.6,3c-1.2-0.6-2.7-0.7-4,0l-0.9,0.5
		c-1.3,0.7-2.2,1.9-2.4,3.2c-1.2-0.5-2.7-0.5-4,0.2l-0.9,0.5c-1.3,0.7-2.1,2-2.2,3.3c-1.3-0.5-2.8-0.3-4,0.5l-0.9,0.6
		c-1.2,0.8-1.9,2.1-2,3.5c-1.3-0.4-2.8-0.2-3.9,0.7c-0.3,0.2-0.6,0.4-0.8,0.6c-1.2,0.9-1.8,2.2-1.8,3.6c-1.3-0.3-2.8,0-3.9,1
		l-0.8,0.7c-1.1,1-1.6,2.4-1.5,3.7c-1.4-0.2-2.8,0.2-3.8,1.3l-0.7,0.7c-1,1-1.5,2.5-1.3,3.8c-1.4-0.1-2.8,0.4-3.7,1.5l-0.7,0.8
		c-1,1.1-1.3,2.6-1,3.9l0,0c-1.4,0-2.7,0.6-3.6,1.8c-0.2,0.3-0.4,0.6-0.6,0.8c-0.9,1.2-1.1,2.7-0.7,4c-1.4,0.1-2.7,0.8-3.5,2.1
		l-0.6,0.9c-0.8,1.2-0.9,2.7-0.4,4c-1.4,0.2-2.6,1-3.3,2.3c-0.2,0.3-0.3,0.6-0.5,0.9c-0.7,1.3-0.7,2.8-0.1,4
		c-1.3,0.3-2.5,1.2-3.1,2.5c-0.1,0.3-0.3,0.6-0.4,1c-0.6,1.3-0.5,2.8,0.2,4c-1.3,0.4-2.4,1.3-3,2.7l-0.4,1c-0.5,1.4-0.3,2.8,0.4,4
		c-1.3,0.5-2.4,1.5-2.8,2.9l-0.3,1c-0.4,1.4-0.1,2.9,0.7,4c-1.3,0.5-2.2,1.6-2.6,3l-0.3,1c-0.3,1.4,0,2.9,0.9,3.9
		c-1.2,0.6-2.2,1.7-2.4,3.2l-0.2,1c-0.3,1.4,0.2,2.8,1.1,3.8c-1.2,0.7-2.1,1.9-2.3,3.3l-0.1,1c-0.2,1.4,0.3,2.7,1.2,3.7
		c-1.6,0.8-2.7,2.4-2.7,4.3c0,1.7,0.9,3.1,2.1,4c-1.1,0.8-1.9,2-2,3.5v1c-0.1,1.5,0.6,2.8,1.6,3.6c-1.1,0.8-1.8,2.1-1.7,3.6v1
		c0,1.5,0.7,2.7,1.8,3.5c-1,0.9-1.7,2.2-1.6,3.7l0.1,1c0.1,1.5,0.8,2.7,1.9,3.5c-1,0.9-1.6,2.3-1.4,3.7l0.1,1c0.1,1.4,1,2.7,2.1,3.4
		c-1,1-1.5,2.3-1.3,3.8l0.1,1c0.2,1.5,1.2,2.8,2.5,3.4c-0.1,0.1-0.2,0.2-0.3,0.4c0,0,0,0,0,0.1c-0.8,0.9-1.1,2.2-0.9,3.5
		c0.1,2.4,2.1,4.3,4.5,4.3c1.3,0,2.6-0.6,3.4-1.6c1.4-1.6,1.1-3.4,1-4.1c-0.2-1.5-1.2-2.7-2.5-3.3c1-1,1.5-2.4,1.3-3.8l-0.1-1
		c-0.2-1.4-1-2.5-2.1-3.2c0.9-0.9,1.4-2.2,1.3-3.6l-0.1-1c-0.1-1.4-0.9-2.6-1.9-3.3c0.9-0.9,1.5-2.2,1.4-3.5l-0.1-1
		c-0.1-1.4-0.8-2.6-1.8-3.4c1-0.8,1.6-2.1,1.6-3.5v-1c0-1.4-0.6-2.6-1.6-3.5c1-0.8,1.7-2,1.7-3.4v-1c0.1-1.6-0.7-3-1.9-3.8
		c1.1-0.7,1.9-1.8,2.2-3.1h0.1l0.1-0.9c0.1-1.4-0.4-2.7-1.3-3.6c1.1-0.7,1.9-1.8,2.1-3.2l0.1-1c0.2-1.4-0.3-2.7-1.1-3.6
		c1.1-0.6,2-1.7,2.2-3.1l0.2-1c0.3-1.4-0.1-2.7-0.9-3.7c1.2-0.6,2.1-1.6,2.4-3l0.2-0.9c0.3-1.3,0-2.7-0.7-3.7
		c1.2-0.5,2.1-1.5,2.5-2.8l0.3-0.9c0.4-1.3,0.2-2.7-0.5-3.8c1.2-0.4,2.2-1.4,2.7-2.7l0.3-0.9c0.5-1.3,0.4-2.7-0.2-3.8
		c1.2-0.3,2.3-1.2,2.9-2.5c0.1-0.3,0.3-0.6,0.4-0.9c0.6-1.2,0.5-2.6,0-3.8c1.2-0.3,2.4-1.1,3-2.3c0.1-0.3,0.3-0.6,0.5-0.8
		c0.7-1.2,0.7-2.6,0.3-3.8c1.3-0.2,2.4-0.9,3.2-2l0.5-0.8c0.7-1.2,0.9-2.5,0.5-3.7c1.3-0.1,2.5-0.7,3.3-1.8c0.2-0.3,0.4-0.5,0.6-0.8
		c0.8-1.1,1.1-2.4,0.8-3.7l0,0c1.3,0,2.5-0.5,3.4-1.6l0.6-0.7c0.9-1,1.2-2.4,1.1-3.6c1.3,0.1,2.6-0.3,3.5-1.3l0.7-0.7
		c1-1,1.4-2.3,1.3-3.5c1.3,0.2,2.6-0.2,3.6-1.1l0.7-0.6c1-0.9,1.6-2.2,1.6-3.4c1.2,0.3,2.6,0,3.7-0.8l0.8-0.6
		c1.1-0.8,1.7-2.1,1.8-3.3c1.2,0.4,2.6,0.2,3.7-0.6l0.8-0.5c1.2-0.7,1.9-1.9,2-3.2c1.2,0.4,2.6,0.4,3.8-0.3l0.8-0.5
		c1.2-0.7,2-1.8,2.2-3.1c1.2,0.5,2.6,0.5,3.8-0.1l0.9-0.4c1.2-0.6,2.1-1.7,2.4-3c1.1,0.6,2.5,0.7,3.8,0.1l0.9-0.4
		c1.3-0.5,2.2-1.6,2.6-2.8c1.1,0.6,2.5,0.8,3.8,0.3l0.9-0.3c1.3-0.5,2.3-1.5,2.7-2.7c1.1,0.7,2.5,0.9,3.8,0.5l0.9-0.3
		c1.3-0.4,2.3-1.4,2.8-2.6c1.1,0.7,2.4,1,3.8,0.7l0.9-0.3c1.3-0.4,2.4-1.3,2.9-2.5c1,0.8,2.4,1.1,3.7,0.8l1-0.2
		c1.4-0.3,2.4-1.2,3-2.3c1,0.8,2.3,1.2,3.7,1l1-0.2c1.4-0.3,2.5-1.1,3.1-2.2c1,0.9,2.3,1.3,3.7,1.1l1-0.1c1.4-0.2,2.5-1,3.2-2.1
		c0.9,0.9,2.3,1.4,3.6,1.2l1-0.1c1.4-0.2,2.6-0.9,3.3-2c0.9,0.9,2.2,1.5,3.6,1.3l1-0.1c1.4-0.1,2.6-0.9,3.3-1.9
		c0.9,1,2.2,1.5,3.6,1.4l1-0.1c1.4-0.1,2.6-0.8,3.4-1.9c0.9,1,2.2,1.6,3.5,1.5h1c1.4,0,2.6-0.7,3.4-1.8c0.8,1,2.1,1.6,3.4,1.6
		c0,0,0,0,0.1,0h1c1.4,0,2.7-0.7,3.5-1.7c0.8,1,2.1,1.7,3.5,1.7h1h0.1c1.4,0,2.6-0.6,3.5-1.6c0.8,1,2,1.7,3.4,1.8h1
		c1.4,0,2.7-0.6,3.5-1.5c0.8,1.1,2,1.8,3.4,1.8l1,0.1c1.4,0.1,2.7-0.5,3.6-1.4c0.7,1.1,1.9,1.8,3.3,1.9l1,0.1
		c1.4,0.1,2.7-0.4,3.6-1.3c0.7,1.1,1.9,1.9,3.3,2l1,0.1c1.4,0.2,2.7-0.3,3.6-1.2c0.7,1.1,1.8,1.9,3.2,2.1l1,0.1
		c1.4,0.2,2.7-0.2,3.7-1.1c0.6,1.1,1.8,2,3.1,2.2l1,0.2c1.4,0.3,2.7-0.1,3.7-1c0.6,1.1,1.7,2,3,2.3l1,0.2c1.4,0.3,2.7,0,3.7-0.8
		c0.5,1.2,1.6,2.1,2.9,2.4l1,0.2c1.3,0.4,2.7,0.1,3.8-0.7c0.5,1.2,1.5,2.2,2.8,2.6l0.9,0.3c1.3,0.4,2.7,0.2,3.8-0.5
		c0.4,1.2,1.4,2.2,2.7,2.7l0.9,0.3c1.3,0.5,2.7,0.3,3.8-0.3c0.4,1.2,1.3,2.3,2.6,2.8l0.9,0.4c1.3,0.5,2.7,0.4,3.8-0.1
		c0.3,1.2,1.2,2.3,2.4,2.9l0.9,0.4c1.2,0.6,2.6,0.6,3.8,0.1c0.3,1.3,1,2.4,2.2,3.1l0.8,0.5c1.2,0.7,2.6,0.7,3.8,0.3
		c0.2,1.3,0.9,2.4,2.1,3.2l0.8,0.5c1.2,0.7,2.5,0.9,3.8,0.5c0.1,1.3,0.7,2.5,1.8,3.3l0.8,0.6c1.1,0.8,2.5,1,3.7,0.8
		c0,1.3,0.6,2.5,1.6,3.4l0.7,0.6c1,0.9,2.4,1.2,3.6,1c-0.1,1.3,0.4,2.6,1.4,3.5l0.7,0.7c1,1,2.3,1.4,3.6,1.2
		c-0.2,1.3,0.2,2.6,1.1,3.6l0.6,0.7c0.9,1,2.2,1.5,3.5,1.5c-0.2,1.2,0,2.6,0.9,3.7l0.6,0.8c0.8,1.1,2.1,1.7,3.3,1.7
		c-0.3,1.2-0.2,2.6,0.6,3.7l0.5,0.8c0.8,1.1,2,1.8,3.2,2c-0.4,1.2-0.3,2.6,0.4,3.8c0.2,0.3,0.3,0.6,0.5,0.8c0.7,1.2,1.8,2,3.1,2.2
		c-0.5,1.2-0.5,2.5,0.1,3.8l0.4,0.9C368.8,554.1,369.9,555,371.1,555.3z"/>
	<path d="M260,713c-1.3,0.4-2,1.8-1.6,3.1c0.8,2.6,0.6,5.4-0.7,7.8c-1.3,2.4-3.4,4.2-6,5.1c-5.4,1.7-11.1-1.3-12.8-6.5
		c-0.2-1.2-1.2-2-2.5-2s-2.4,1-2.5,2.3l0,0v0.1c0,5.6-7.4,10.3-16.2,10.3c-8.6,0-15.8-4.5-16.1-9.9c0-0.4,0-0.8-0.2-1.2
		c-0.3-1-1.3-1.7-2.3-1.7c-1.3,0-2.3,1-2.5,2.2c-1.8,5.2-7.5,8-12.8,6.4c-2.6-0.8-4.8-2.6-6-5.1c-1.3-2.4-1.5-5.2-0.7-7.8
		c0.4-1.3-0.3-2.7-1.6-3.1c-1.3-0.4-2.7,0.3-3.1,1.6c-1.2,3.9-0.9,8,1,11.7s5.1,6.3,9,7.5c1.5,0.5,3.1,0.7,4.6,0.7
		c2.4,0,4.8-0.6,7.1-1.7c1.7-0.9,3.2-2.1,4.4-3.5c3.3,5.3,10.6,9,19.3,9s16.1-3.6,19.3-9c1.2,1.4,2.7,2.6,4.5,3.5
		c2.2,1.2,4.6,1.7,7.1,1.7c1.5,0,3.1-0.2,4.6-0.7c3.9-1.2,7.1-3.9,9-7.5s2.3-7.8,1-11.7C262.7,713.4,261.3,712.6,260,713z"/>
	<path d="M240.4,820.5c-0.6,0-1.1,0.2-1.5,0.5c-4.8,1.1-37.6,1.1-42.4,0c-0.4-0.3-0.9-0.5-1.5-0.5c-1.4,0-2.5,1.1-2.5,2.5
		c0,3,3.4,3.2,9.5,3.5c4.2,0.2,9.7,0.3,15.7,0.3s11.6-0.1,15.7-0.3c6.1-0.3,9.5-0.5,9.5-3.5C242.9,821.6,241.7,820.5,240.4,820.5z"
		/>
	<path d="M151.6,806.8c-11.8-19.8-17.9-34.4-17.5-42.2c0.6-12.9,25.2-44,34.7-54.9c0.9-1,0.8-2.6-0.3-3.5c-1-0.9-2.6-0.8-3.5,0.3
		c-1.1,1.3-20.8,24.1-30.5,42.6c-28.5-1.5-38.5-19.5-38.9-20.3c-0.6-1.2-2.2-1.7-3.4-1c-1.2,0.6-1.7,2.2-1,3.4
		c0.3,0.5,3.9,7.1,12.5,13.1c2.7,15,24,56.6,35.6,79.2c3.2,6.1,5.9,11.5,6.3,12.6c0.2,1,1.1,1.8,2.2,1.9c0.1,0,0.1,0,0.2,0
		c1.3,0,2.4-1,2.5-2.3c0.1-1.1,0.1-1.1-6.8-14.6c-9.7-18.9-28.8-56.1-34-73.3c5.8,2.9,13.2,5.3,22.4,6.1c-1.7,4-2.9,7.6-3,10.5
		c-0.4,8.9,5.7,24,18.3,45c9.2,15.4,18.6,28.5,18.7,28.6c0.5,0.7,1.3,1,2,1c0.5,0,1-0.2,1.5-0.5c1.1-0.8,1.4-2.4,0.6-3.5
		C170,835,160.7,822.1,151.6,806.8z"/>
	<path d="M343.2,727.8c-1.2-0.6-2.7-0.2-3.4,1c-0.4,0.8-10.4,18.7-38.9,20.3c-9.7-18.5-29.4-41.3-30.5-42.6c-0.9-1-2.5-1.2-3.5-0.3
		s-1.2,2.5-0.3,3.5c9.4,10.9,34.1,42,34.7,54.9c0.3,7.8-5.7,22.3-17.5,42.2c-9.1,15.2-18.4,28.2-18.5,28.3c-0.8,1.1-0.6,2.7,0.6,3.5
		c0.4,0.3,1,0.5,1.5,0.5c0.8,0,1.5-0.4,2-1c0.1-0.1,9.5-13.2,18.7-28.6c12.5-21,18.6-36.1,18.3-45c-0.1-3-1.3-6.6-3-10.5
		c9.2-0.7,16.6-3.1,22.4-6.1c-5.2,17.2-24.3,54.3-34,73.3c-6.9,13.5-6.9,13.5-6.8,14.6c0.1,1.3,1.2,2.3,2.5,2.3c0.1,0,0.1,0,0.2,0
		c1.1-0.1,2-0.9,2.2-1.9c0.4-1.1,3.2-6.5,6.3-12.6c11.6-22.6,32.9-64.1,35.6-79.2c8.7-6,12.3-12.6,12.5-13.1
		C344.9,729.9,344.5,728.4,343.2,727.8z"/>
	<path class="st1" d="M234.5,766.3c-2.3,0.2-8,2.1-11.8,3.4h-10.1c-3.8-1.3-9.5-3.3-11.8-3.4c-6.2-0.4-19.1,1-29.8,2.4
		c12.7,2.1,27.7,5.8,30.2,6.4h0.1c0,0,12.5,3.8,16.4,4.9c3.9-1.2,16.4-4.9,16.4-4.9h0.1c2.5-0.6,17.4-4.2,30.2-6.4
		C253.7,767.3,240.7,765.8,234.5,766.3z"/>
	<path class="st1" d="M218.4,785c-0.2,0.1-0.5,0.1-0.7,0.1s-0.5,0-0.7-0.1c-2.6-0.8-16-4.8-17-5.1c-8.8-2.1-30.5-7-40.7-7.7
		c7.1,7.7,28.1,24.6,58.5,24.6s51.4-16.9,58.5-24.6c-10.3,0.7-32,5.6-40.7,7.7C234.4,780.2,221,784.2,218.4,785z"/>
	<path d="M234.2,761.3c-2.9,0.2-8.3,2-14,4c-1,0.3-1.9,0.7-2.5,0.9c-0.7-0.2-1.6-0.5-2.5-0.9c-5.7-2-11-3.8-14-4
		c-9.9-0.7-35,2.9-45.3,4.5c-1.5,0.2-2.7,1.2-3.3,2.6c-0.1,0.2-0.2,0.5-0.2,0.8v0.1c-0.2,1.1,0,2.3,0.7,3.3
		c4.2,6.2,27.7,29.3,64.7,29.3s60.4-23.1,64.7-29.3c0.7-1,0.9-2.2,0.7-3.3v-0.1c-0.1-0.3-0.1-0.5-0.2-0.8c-0.6-1.4-1.8-2.3-3.3-2.6
		l0,0C269.2,764.2,244.1,760.6,234.2,761.3z M217.7,796.7c-30.4,0-51.4-16.9-58.5-24.6c10.3,0.7,32,5.6,40.7,7.7
		c1,0.3,14.5,4.4,17,5.1c0.2,0.1,0.5,0.1,0.7,0.1s0.5,0,0.7-0.1c2.6-0.8,16-4.8,17-5.1c8.8-2.1,30.5-7,40.7-7.7
		C269.1,779.8,248.1,796.7,217.7,796.7z M234.2,775h-0.1c0,0-12.5,3.8-16.4,4.9c-3.9-1.2-16.4-4.9-16.4-4.9h-0.1
		c-2.5-0.6-17.4-4.2-30.2-6.4c10.7-1.4,23.6-2.8,29.8-2.4c2.3,0.2,8,2.1,11.8,3.4h10.1c3.8-1.3,9.5-3.3,11.8-3.4
		c6.2-0.4,19.1,1,29.8,2.4C251.6,770.8,236.7,774.4,234.2,775z"/>
	<path d="M180.8,683.9c0.5,0.5,1.1,0.7,1.8,0.7s1.3-0.2,1.8-0.7c5.7-5.7,5.9-14.8,0.6-20.7c-4.1-5.5-13.8-16.7-26.1-16.7
		c-4.5,0-14.2,2.2-28.8,6.7c-6.3,1.9-11.7,3.7-14.4,4.6c-7.2,2.4-7.2,2.4-7.7,3.5c-0.4,0.9-0.2,2,0.4,2.7c1.1,1.2,2.2,0.9,4.4,0.2
		c13.3-4.3,24-1.2,32.6,1.3c6.1,1.8,11.4,3.3,16.3,1.9c1.9-0.5,3.2-1,4.3-1.4c3.4-1.3,3.7-1.4,14.6,2.7c0.7,0.3,1.4,0.4,2.1,0.4
		c0.1,0,0.1,0,0.2,0c1.7,3.7,1,8.3-2,11.4C179.8,681.3,179.8,682.9,180.8,683.9z M146.8,660.6c-4.1-1.2-8.6-2.5-13.7-3.2
		c6.8-2,13.9-4,19.3-5.1c-1,1.2-1.6,2.8-1.6,4.5c0,2.2,1,4.2,2.6,5.5C151.4,661.9,149.1,661.3,146.8,660.6z M164.2,661.2
		c-0.2,0.1-0.5,0.2-0.7,0.3c1.1-1.3,1.7-2.9,1.7-4.6c0-1.8-0.6-3.4-1.7-4.6c5.8,1.7,10.8,6.2,14.2,10
		C170,659.4,168.4,659.6,164.2,661.2z"/>
	<path d="M269.4,665.9c1.1,0.4,2.4,0.9,4.3,1.4c4.9,1.4,10.2-0.2,16.3-1.9c8.6-2.5,19.3-5.6,32.6-1.3c2.3,0.7,3.3,1.1,4.4-0.2
		c0.7-0.7,0.8-1.8,0.4-2.7c-0.5-1.1-0.5-1.1-7.7-3.5c-2.7-0.9-8.1-2.7-14.4-4.6c-14.6-4.4-24.3-6.7-28.8-6.7
		c-12.3,0-22,11.2-26.1,16.7c-2.5,2.8-3.8,6.3-3.8,10c0,4,1.6,7.8,4.4,10.7c0.5,0.5,1.1,0.7,1.8,0.7s1.3-0.2,1.8-0.7
		c1-1,1-2.6,0-3.5c-1.9-1.9-3-4.5-3-7.2c0-1.5,0.3-2.9,0.9-4.2c0.1,0,0.1,0,0.2,0c0.7,0,1.3-0.1,2.1-0.4
		C265.7,664.5,266.1,664.6,269.4,665.9z M284.6,656.8c0-1.7-0.6-3.2-1.6-4.5c5.4,1.1,12.5,3,19.3,5.1c-5.1,0.7-9.6,2-13.7,3.2
		c-2.4,0.7-4.6,1.3-6.6,1.7C283.6,661,284.6,659,284.6,656.8z M271.8,652.2c-1.1,1.3-1.7,2.9-1.7,4.6c0,1.8,0.6,3.4,1.7,4.6
		c-0.2-0.1-0.5-0.2-0.7-0.3c-1.9-0.7-3.2-1.1-4.9-1.1c-2,0-4.4,0.6-8.7,2.1C261.1,658.3,266.1,653.8,271.8,652.2z"/>
	<path d="M35.3,663.6c-1.2-0.7-2.7-0.4-3.4,0.8c-0.7,1.2-0.4,2.7,0.8,3.4c0.3,0.2,31.2,19.5,28.8,45c-0.1,1.4,0.9,2.6,2.3,2.7
		c0.1,0,0.2,0,0.2,0c1.3,0,2.4-1,2.5-2.3c1.1-11.9-4-24.3-14.7-35.8C43.8,668.8,35.6,663.8,35.3,663.6z"/>
	<path d="M400.1,663.6c-0.3,0.2-8.5,5.3-16.5,13.8c-10.7,11.6-15.8,23.9-14.7,35.8c0.1,1.3,1.2,2.3,2.5,2.3c0.1,0,0.2,0,0.2,0
		c1.4-0.1,2.4-1.3,2.3-2.7c-2.4-25.4,28.5-44.8,28.8-45c1.2-0.7,1.5-2.3,0.8-3.4C402.8,663.2,401.3,662.8,400.1,663.6z"/>
	<path d="M217.7,555.4c25.9,0,45.6-7.7,52.8-20.5c0.7-1.2,0.2-2.7-1-3.4s-2.7-0.2-3.4,1c-6.3,11.2-24.4,18-48.4,18
		s-42.1-6.7-48.4-18c-0.7-1.2-2.2-1.6-3.4-1c-1.2,0.7-1.6,2.2-1,3.4C172.1,547.7,191.8,555.4,217.7,555.4z"/>
	<path d="M99.9,624.9c0.5,0.7,1.2,1,2,1c0.5,0,1-0.2,1.5-0.5c0.5-0.4,50.4-36.7,78.3-5c0.9,1,2.5,1.1,3.5,0.2s1.1-2.5,0.2-3.5
		c-12.9-14.7-31.8-18.5-54.6-11.1c-16.9,5.4-29.9,15-30.4,15.4C99.3,622.3,99,623.8,99.9,624.9z"/>
	<path d="M333.5,625.9c0.8,0,1.5-0.4,2-1c0.8-1.1,0.6-2.7-0.5-3.5c-0.5-0.4-13.5-9.9-30.4-15.4c-22.9-7.4-41.8-3.5-54.6,11.1
		c-0.9,1-0.8,2.6,0.2,3.5s2.6,0.8,3.5-0.2c11.6-13.2,28.2-16.5,49.2-9.7c16.1,5.2,29,14.6,29.1,14.7
		C332.5,625.8,333,625.9,333.5,625.9z"/>
	<path d="M104.7,581.8c-1.1,0.8-1.4,2.4-0.6,3.5s2.4,1.4,3.5,0.6c0.3-0.2,31-21.6,51.3-18.2c9,1.5,19,8.4,28.7,15.1
		c10.8,7.5,21,14.5,30.2,14.5s19.4-7.1,30.2-14.5c9.7-6.7,19.6-13.6,28.7-15.1c20.3-3.4,51,18,51.3,18.2c1.1,0.8,2.7,0.5,3.5-0.6
		s0.5-2.7-0.6-3.5c-1.3-0.9-32.7-22.8-55.1-19c-10.1,1.7-20.6,8.9-30.7,15.9c-10.1,7-19.7,13.6-27.3,13.6s-17.2-6.6-27.3-13.6
		s-20.6-14.2-30.7-15.9C137.4,559,106,580.9,104.7,581.8z"/>
</g>
<g>
	<g>
		<path class="st2" d="M231.8,21.5c0.4,0.1,0.7,0.1,1,0.3C232.5,21.7,232.2,21.7,231.8,21.5z"/>
		<path class="st2" d="M227,21c0.4,0,0.7,0,1,0C227.6,21,227.3,21,227,21z"/>
		<path class="st2" d="M239.3,23.9c0.4,0.1,0.7,0.4,1,0.5C240.1,24.3,239.7,24.1,239.3,23.9z"/>
		<path class="st2" d="M225.9,21c-0.1,0-0.3,0-0.3,0c0.3,0,0.5,0,0.8,0C226.2,21,226.1,21,225.9,21z"/>
		<path class="st2" d="M224,21c0.3,0,0.4,0,0.7,0C224.4,21,224.1,21,224,21z"/>
		<path class="st2" d="M234.8,22.3c0.3,0.1,0.7,0.1,0.9,0.3C235.5,22.4,235.1,22.3,234.8,22.3z"/>
		<path class="st2" d="M236.3,22.7c0.4,0.1,0.8,0.3,1.2,0.4C237.1,23,236.7,22.8,236.3,22.7z"/>
		<path class="st2" d="M237.7,23.2c0.5,0.1,0.9,0.4,1.4,0.5C238.6,23.6,238.1,23.4,237.7,23.2z"/>
		<path class="st2" d="M233.4,21.9c0.3,0.1,0.7,0.1,0.9,0.3C234.1,22,233.7,21.9,233.4,21.9z"/>
		<path class="st2" d="M222.3,21.3c0.1,0,0.4,0,0.5,0C222.5,21.1,222.4,21.1,222.3,21.3z"/>
		<path class="st2" d="M228.4,21.1c1,0.1,2,0.3,3,0.4C230.4,21.3,229.5,21.1,228.4,21.1z"/>
		<path class="st2" d="M208.7,28.5c0.1-0.1,0.3-0.3,0.4-0.4C208.9,28.1,208.8,28.2,208.7,28.5z"/>
		<path class="st2" d="M207.6,29.8c0.1-0.1,0.3-0.4,0.4-0.5C207.9,29.4,207.8,29.6,207.6,29.8z"/>
		<path class="st2" d="M209.9,27c0.1-0.1,0.1-0.1,0.3-0.3C210.1,26.9,210,26.9,209.9,27z"/>
		<path class="st2" d="M218.6,21.9c0.1,0,0.3-0.1,0.4-0.1C218.9,21.9,218.8,21.9,218.6,21.9z"/>
		<path class="st2" d="M206.9,31.3c0.1-0.3,0.3-0.4,0.3-0.7C207,30.9,207,31.1,206.9,31.3z"/>
		<path class="st2" d="M206.1,32.9c0.1-0.3,0.1-0.4,0.3-0.7C206.3,32.5,206.2,32.6,206.1,32.9z"/>
		<path class="st2" d="M216.9,22.6c0.1-0.1,0.4-0.1,0.5-0.3C217.3,22.4,217.1,22.4,216.9,22.6z"/>
		<path class="st2" d="M211.3,25.7c0.1-0.1,0.1-0.1,0.3-0.3C211.6,25.6,211.4,25.6,211.3,25.7z"/>
		<path class="st2" d="M215.4,23.2c0.1-0.1,0.4-0.1,0.5-0.3C215.7,23,215.6,23.1,215.4,23.2z"/>
		<path class="st2" d="M213.9,23.9c0.1-0.1,0.4-0.1,0.5-0.3C214.3,23.7,214.2,23.7,213.9,23.9z"/>
		<path class="st2" d="M205.4,34.6c0-0.1,0.1-0.4,0.1-0.5C205.5,34.2,205.5,34.3,205.4,34.6z"/>
		<path class="st2" d="M137.4,82.9c0.1,0,0.4,0,0.5,0C137.8,82.9,137.7,82.9,137.4,82.9z"/>
		<path class="st2" d="M141.3,82.9c0.3,0,0.5,0.1,0.8,0.1C141.9,83,141.6,83,141.3,82.9z"/>
		<path class="st2" d="M140,82.9c0.3,0,0.5,0,0.8,0C140.5,82.9,140.3,82.9,140,82.9z"/>
		<path class="st2" d="M143.9,83.4c0.4,0.1,0.8,0.1,1,0.3C144.7,83.5,144.3,83.5,143.9,83.4z"/>
		<path class="st2" d="M139.2,82.7c-0.1,0-0.3,0-0.3,0c0.3,0,0.4,0,0.7,0C139.5,82.7,139.4,82.7,139.2,82.7z"/>
		<path class="st2" d="M142.5,83.1c0.4,0,0.8,0.1,1.2,0.3C143.3,83.3,142.9,83.1,142.5,83.1z"/>
		<path class="st2" d="M149.3,85.3c0.3,0.1,0.5,0.3,0.8,0.4C149.8,85.6,149.6,85.5,149.3,85.3z"/>
		<path class="st2" d="M148.1,84.8c0.3,0.1,0.5,0.3,0.7,0.3C148.5,85,148.4,84.8,148.1,84.8z"/>
		<path class="st2" d="M146.8,84.3c0.3,0.1,0.5,0.1,0.7,0.3C147.3,84.4,147.1,84.3,146.8,84.3z"/>
		<path class="st2" d="M145.5,83.8c0.3,0.1,0.5,0.1,0.8,0.3C146,83.9,145.8,83.9,145.5,83.8z"/>
		<path class="st2" d="M240.9,24.7c0.3,0.1,0.5,0.3,0.9,0.5C241.4,25.1,241.1,24.8,240.9,24.7z"/>
		<path class="st2" d="M244.7,27c0.4,0.3,0.8,0.5,1.2,0.9C245.4,27.7,245,27.4,244.7,27z"/>
		<path class="st2" d="M243.5,26.2c0.3,0.1,0.5,0.4,0.8,0.5C244,26.6,243.7,26.4,243.5,26.2z"/>
		<path class="st2" d="M242.2,25.4c0.3,0.1,0.5,0.3,0.8,0.5C242.7,25.7,242.4,25.6,242.2,25.4z"/>
		<path class="st2" d="M128.2,86.7c0.1-0.1,0.3-0.3,0.4-0.4C128.5,86.5,128.4,86.5,128.2,86.7z"/>
		<path class="st2" d="M131,84.8c0.1-0.1,0.4-0.1,0.5-0.3C131.4,84.7,131.3,84.8,131,84.8z"/>
		<path class="st2" d="M132.6,84.2c0.1-0.1,0.3-0.1,0.5-0.3C132.8,84,132.7,84,132.6,84.2z"/>
		<path class="st2" d="M134.4,83.5h0.1C134.5,83.4,134.4,83.5,134.4,83.5z"/>
		<path class="st2" d="M136,83.1c0.1,0,0.4,0,0.5-0.1C136.2,83,136.1,83.1,136,83.1z"/>
		<path class="st2" d="M129.6,85.7c0.1-0.1,0.4-0.3,0.5-0.4C129.9,85.5,129.8,85.6,129.6,85.7z"/>
		<path class="st2" d="M223.6,96.7L223.6,96.7L223.6,96.7z"/>
		<path class="st2" d="M181.3,47.2c0.3,0.1,0.5,0.1,0.8,0.3C181.7,47.3,181.6,47.3,181.3,47.2z"/>
		<path class="st2" d="M182.7,47.7c0.3,0.1,0.4,0.1,0.7,0.3C183.1,47.8,182.8,47.7,182.7,47.7z"/>
		<path class="st2" d="M183.8,48.1c0.3,0.1,0.4,0.1,0.7,0.3C184.2,48.3,184.1,48.2,183.8,48.1z"/>
		<path class="st2" d="M179.6,46.8c0.4,0.1,0.8,0.1,1.2,0.3C180.4,47,180,46.9,179.6,46.8z"/>
		<path class="st2" d="M178.3,46.6c0.3,0,0.7,0.1,0.9,0.1C179,46.6,178.7,46.6,178.3,46.6z"/>
		<path class="st2" d="M189.2,51.1c0.1,0.1,0.4,0.3,0.5,0.4C189.6,51.2,189.5,51.2,189.2,51.1z"/>
		<path class="st2" d="M185.1,48.6c0.3,0.1,0.4,0.3,0.7,0.3C185.5,48.9,185.3,48.7,185.1,48.6z"/>
		<path class="st2" d="M177.2,46.5c0.3,0,0.5,0,0.8,0C177.7,46.5,177.4,46.5,177.2,46.5z"/>
		<path class="st2" d="M187.5,49.9c0.3,0.1,0.4,0.3,0.7,0.4C187.9,50.2,187.8,50,187.5,49.9z"/>
		<path class="st2" d="M186.3,49.3c0.3,0.1,0.4,0.3,0.7,0.4C186.7,49.5,186.5,49.4,186.3,49.3z"/>
		<path class="st2" d="M190.5,51.9c0.1,0.1,0.4,0.3,0.5,0.4C190.8,52.1,190.6,52,190.5,51.9z"/>
		<path class="st2" d="M166.3,49.5c0.1-0.1,0.3-0.1,0.5-0.3C166.6,49.4,166.4,49.4,166.3,49.5z"/>
		<path class="st2" d="M169.1,48.1c0.3-0.1,0.4-0.1,0.7-0.3C169.4,47.8,169.2,47.9,169.1,48.1z"/>
		<path class="st2" d="M226.2,101L226.2,101L226.2,101z"/>
		<path class="st2" d="M170.4,47.4c0.3-0.1,0.4-0.1,0.7-0.3C170.8,47.3,170.6,47.4,170.4,47.4z"/>
		<path class="st2" d="M174.5,46.5c0.3,0,0.4,0,0.7,0C174.9,46.5,174.7,46.5,174.5,46.5z"/>
		<path class="st2" d="M173.1,46.8c0.3,0,0.4-0.1,0.7-0.1C173.6,46.6,173.4,46.6,173.1,46.8z"/>
		<path class="st2" d="M176.1,46.5c-0.1,0-0.1,0-0.3,0c0.3,0,0.5,0,0.8,0C176.5,46.5,176.4,46.5,176.1,46.5z"/>
		<path class="st2" d="M171.8,47c0.3,0,0.4-0.1,0.7-0.1C172.2,46.9,171.9,47,171.8,47z"/>
		<path class="st2" d="M167.6,48.7c0.1-0.1,0.4-0.3,0.5-0.3C168,48.5,167.9,48.6,167.6,48.7z"/>
		<path class="st2" d="M224,97.5L224,97.5L224,97.5z"/>
		<path class="st2" d="M224.8,99C224.9,99,224.9,99,224.8,99C224.9,99,224.9,99,224.8,99z"/>
		<path class="st2" d="M150.6,86c0.4,0.3,0.8,0.4,1.2,0.7C151.4,86.4,151,86.1,150.6,86z"/>
		<path class="st2" d="M215.1,81.8C215.2,81.9,215.2,81.9,215.1,81.8C215.2,81.9,215.2,81.9,215.1,81.8z"/>
		<path class="st2" d="M219.1,88.7L219.1,88.7L219.1,88.7z"/>
		<path class="st2" d="M218.6,87.7L218.6,87.7L218.6,87.7z"/>
		<path class="st2" d="M225.2,99.5l0.1,0.1C225.2,99.6,225.2,99.6,225.2,99.5z"/>
		<path class="st2" d="M225.7,100.4c0,0,0,0.1,0.1,0.1L225.7,100.4z"/>
		<path class="st2" d="M225.9,100.8L225.9,100.8L225.9,100.8z"/>
		<path class="st2" d="M225.4,100l0.1,0.1L225.4,100z"/>
		<path class="st2" d="M201.1,61.9c0.1,0.1,0.3,0.3,0.4,0.4C201.4,62.2,201.2,62.1,201.1,61.9z"/>
		<path class="st2" d="M198,58.5c0.1,0.1,0.3,0.3,0.3,0.3S198.1,58.7,198,58.5z"/>
		<path class="st2" d="M193.9,54.6c0.1,0.1,0.3,0.3,0.4,0.4C194.3,54.9,194,54.7,193.9,54.6z"/>
		<path class="st2" d="M214.3,80.6c0,0.1,0.1,0.1,0.1,0.3C214.4,80.8,214.4,80.6,214.3,80.6z"/>
		<path class="st2" d="M192.9,53.7c0.1,0.1,0.3,0.3,0.5,0.4C193.1,54,193,53.8,192.9,53.7z"/>
		<path class="st2" d="M195.1,55.7c0.1,0.1,0.3,0.3,0.4,0.4C195.3,55.9,195.2,55.8,195.1,55.7z"/>
		<path class="st2" d="M199,59.6c0.1,0.1,0.3,0.3,0.4,0.4C199.3,59.8,199.1,59.7,199,59.6z"/>
		<path class="st2" d="M202.1,63.2c0.1,0.1,0.1,0.3,0.3,0.3C202.4,63.5,202.3,63.4,202.1,63.2z"/>
		<path class="st2" d="M191.7,52.8c0.1,0.1,0.4,0.3,0.5,0.4C191.9,53,191.8,52.9,191.7,52.8z"/>
		<path class="st2" d="M200.1,60.8c0.1,0.1,0.3,0.3,0.4,0.4C200.3,61,200.2,60.9,200.1,60.8z"/>
		<path class="st2" d="M212.6,24.8c0.1-0.1,0.3-0.1,0.4-0.3C212.9,24.5,212.7,24.7,212.6,24.8z"/>
		<path class="st2" d="M92.7,160.2c0-0.5,0-1,0-1.6C92.7,159.1,92.7,159.6,92.7,160.2z"/>
		<path class="st2" d="M118.7,103.5c0,0.3,0,0.7,0,0.9C118.7,104.1,118.7,103.8,118.7,103.5z"/>
		<path class="st2" d="M201.2,228.3c-0.1,0.1-0.3,0.3-0.4,0.4C201,228.6,201.1,228.4,201.2,228.3z"/>
		<path class="st2" d="M194.3,232.4c-0.1,0-0.3,0-0.4,0C193.9,232.4,194.2,232.4,194.3,232.4z"/>
		<path class="st2" d="M200.1,229.6c-0.1,0.1-0.3,0.3-0.4,0.4C199.8,229.9,199.9,229.7,200.1,229.6z"/>
		<path class="st2" d="M195.1,232.2c-0.1,0-0.3,0-0.4,0.1C194.8,232.2,195,232.2,195.1,232.2z"/>
		<path class="st2" d="M201.8,227.5c-0.1,0.1-0.3,0.4-0.4,0.5C201.6,227.9,201.6,227.8,201.8,227.5z"/>
		<path class="st2" d="M198.7,230.7c-0.1,0.1-0.3,0.1-0.4,0.3C198.5,230.8,198.6,230.8,198.7,230.7z"/>
		<path class="st2" d="M196.7,231.7c-0.1,0-0.3,0.1-0.4,0.1C196.3,231.8,196.4,231.8,196.7,231.7z"/>
		<path class="st2" d="M197.3,231.4c-0.1,0-0.3,0.1-0.4,0.1C197,231.6,197.2,231.4,197.3,231.4z"/>
		<path class="st2" d="M195.9,232c-0.1,0-0.3,0.1-0.4,0.1C195.6,232.1,195.7,232,195.9,232z"/>
		<path class="st2" d="M199.4,230.1c-0.1,0.1-0.3,0.3-0.4,0.3C199.1,230.4,199.3,230.3,199.4,230.1z"/>
		<path class="st2" d="M198.1,231.1c-0.1,0.1-0.3,0.1-0.4,0.3C197.8,231.2,198,231.2,198.1,231.1z"/>
		<path class="st2" d="M200.7,229c-0.1,0.1-0.3,0.3-0.4,0.4C200.4,229.2,200.6,229.1,200.7,229z"/>
		<path class="st2" d="M134.3,144.3c0.3,0.3,0.7,0.7,0.9,0.9C134.9,144.9,134.7,144.6,134.3,144.3z"/>
		<path class="st2" d="M133,143c0.3,0.3,0.5,0.5,0.9,0.8C133.5,143.6,133.2,143.3,133,143z"/>
		<path class="st2" d="M131.5,141.7c0.3,0.3,0.5,0.5,0.8,0.8C132,142.2,131.8,142,131.5,141.7z"/>
		<path class="st2" d="M130.2,140.5c0.3,0.3,0.5,0.4,0.8,0.7C130.7,141.1,130.5,140.8,130.2,140.5z"/>
		<path class="st2" d="M128.8,139.5c0.3,0.3,0.7,0.4,0.9,0.7C129.3,139.9,129,139.6,128.8,139.5z"/>
		<path class="st2" d="M198.2,206.3c0.4,0.4,0.8,0.9,1,1.3C199,207.2,198.6,206.7,198.2,206.3z"/>
		<path class="st2" d="M202.8,225.6c-0.1,0.3-0.3,0.5-0.4,0.8C202.5,226.2,202.7,226,202.8,225.6z"/>
		<path class="st2" d="M203.8,217.6c0.1,0.5,0.1,1,0.1,1.6C204,218.6,204,218.1,203.8,217.6z"/>
		<path class="st2" d="M202.4,212.9c0.3,0.5,0.4,1,0.7,1.6C202.8,213.9,202.7,213.4,202.4,212.9z"/>
		<path class="st2" d="M135.7,145.6c0.5,0.4,0.9,0.9,1.4,1.3C136.6,146.6,136.2,146,135.7,145.6z"/>
		<path class="st2" d="M202.3,226.7c-0.1,0.3-0.3,0.4-0.4,0.5C202.1,227.1,202.1,226.9,202.3,226.7z"/>
		<path class="st2" d="M190.6,232.4C190.6,232.4,190.5,232.4,190.6,232.4C190.5,232.4,190.6,232.4,190.6,232.4z"/>
		<path class="st2" d="M258.1,173.6l-0.1,0.1C258,173.8,258.1,173.8,258.1,173.6z"/>
		<path class="st2" d="M244.9,177.4h0.1C244.9,177.4,244.9,177.4,244.9,177.4C244.8,177.4,244.9,177.4,244.9,177.4z"/>
		<path class="st2" d="M256.9,174.4c-0.1,0-0.1,0.1-0.3,0.1C256.7,174.5,256.8,174.5,256.9,174.4z"/>
		<path class="st2" d="M255.5,175.2C255.4,175.2,255.4,175.2,255.5,175.2C255.4,175.2,255.4,175.2,255.5,175.2z"/>
		<path class="st2" d="M242.7,177.3c-0.1,0-0.3,0-0.3,0C242.6,177.3,242.6,177.3,242.7,177.3z"/>
		<path class="st2" d="M243.7,177.4h-0.1C243.6,177.3,243.7,177.4,243.7,177.4z"/>
		<path class="st2" d="M259.2,172.8C259.2,173,259.2,173,259.2,172.8C259.2,173,259.2,173,259.2,172.8z"/>
		<path class="st2" d="M241.6,177.2c-0.1,0-0.3,0-0.3,0C241.5,177.2,241.6,177.2,241.6,177.2z"/>
		<path class="st2" d="M193.4,232.4c-0.1,0-0.3,0-0.4,0C193.1,232.5,193.3,232.5,193.4,232.4z"/>
		<path class="st2" d="M233.9,189.2c0.3,0.7,0.4,1.2,0.5,1.7C234.3,190.4,234.1,189.7,233.9,189.2z"/>
		<path class="st2" d="M261.3,170.8l-0.1,0.1C261.1,170.9,261.3,170.9,261.3,170.8z"/>
		<path class="st2" d="M260.3,171.9l-0.1,0.1C260.2,171.9,260.2,171.9,260.3,171.9z"/>
		<path class="st2" d="M261.9,169.7L261.9,169.7L261.9,169.7z"/>
		<path class="st2" d="M187.2,231.7C187.1,231.7,187.1,231.7,187.2,231.7C187.1,231.7,187.1,231.7,187.2,231.7z"/>
		<path class="st2" d="M188.9,232.1C188.9,232.1,188.8,232.1,188.9,232.1C188.8,232.1,188.9,232.1,188.9,232.1z"/>
		<path class="st2" d="M185.5,231.2C185.5,231.2,185.4,231.2,185.5,231.2C185.4,231.2,185.5,231.2,185.5,231.2z"/>
		<path class="st2" d="M192.2,232.5c0.1,0,0.3,0,0.4,0C192.5,232.5,192.3,232.5,192.2,232.5L192.2,232.5z"/>
		<path class="st2" d="M240.5,177c-0.3-0.1-0.7-0.3-1-0.5C239.8,176.6,240.2,176.9,240.5,177z"/>
		<path class="st2" d="M126.9,138.2c0.4,0.3,0.9,0.7,1.3,0.9C127.9,138.8,127.5,138.5,126.9,138.2z"/>
		<path class="st2" d="M340,182.9c5.1-15.3,3.4-30.5-4.1-37.8c-3-2.9-9.7-5.2-16.2-7.5c-5-1.7-9.9-3.4-14-5.6
			c-13.9-7.5-28-15.2-42.1-23c-11.5,8.9-14.9,26.2-7.3,39.1v0.1c11.1,20.1,33.2,29.8,54.7,39c2.5,1,5,2.1,7.3,3.1
			c2.1,0.9,3,3.4,2.1,5.5s-3.4,3-5.5,2.1c-2.4-1-4.8-2.1-7.3-3.1c-12.9-5.6-27.1-11.8-38.8-20.5c-3.7,5.9-10.5,9.7-17.9,10.9
			c-3,3.7-5.6,7.3-8,11.2c-0.5,3.9-2.2,7.5-5.1,10.5c-3.9,9.8-5.6,20.4-5.2,31.5c0.7,16.5,6,28.1,6,28.3c0.9,2.1,0,4.4-2,5.5
			c-0.5,0.3-1.2,0.4-1.7,0.4c-1.6,0-3-0.9-3.8-2.4c-0.3-0.5-6-13.1-6.8-31.1c-0.3-7.2,0.3-16.1,2.7-25.5c-3.7,1.3-7.7,2.1-11.6,2.1
			c-1,0-2.2,0-3.1-0.1h-0.5c0.9,4.7,0.5,9.4-1.4,13.6c-3.3,7.5-9.9,11.8-18.2,11.8c-5.4,0-11.5-2-16.9-5.2
			c-16.7-7.8-30.5-15.8-42-24.3l-0.1-0.1L133,211c-2.2-1.8-7.2-5.1-12.4-8.5c-3.7-2.4-7.1-4.7-10.2-6.8
			c5.2,26.6,14.9,52.1,31.1,73.1c6,7.6,12.9,14.6,16.3,23.5c6.5,27.9,8.4,59.4-2,86.1c23,9.7,47.5,11.5,72.2,8.8
			c28.4-1.8,60.2-5,81-26.6c-10.5-19.1-12.3-44.1-9.2-65.7c1.3-8.6,7.1-14.3,10.6-22.1c3.9-8.5,7.5-17.3,10.7-26
			c4.2-14.1,10.9-31,15-47.9l0.4-2.4C337.3,192.3,338.4,187.8,340,182.9z"/>
		<path class="st2" d="M239.4,176.4c-0.3-0.1-0.5-0.4-0.8-0.5C238.9,176.1,239.2,176.2,239.4,176.4z"/>
		<path class="st2" d="M180.7,229.1L180.7,229.1L180.7,229.1z"/>
		<path class="st2" d="M182.3,229.9L182.3,229.9L182.3,229.9z"/>
		<path class="st2" d="M183.8,230.7C183.8,230.5,183.8,230.5,183.8,230.7C183.8,230.5,183.8,230.5,183.8,230.7z"/>
		<path class="st2" d="M200.3,209.1c0.3,0.5,0.7,0.9,0.9,1.4C201,210,200.7,209.6,200.3,209.1z"/>
		<path class="st2" d="M225.6,205.3c-0.1,0.1-0.4,0.1-0.5,0.3C225.2,205.4,225.3,205.4,225.6,205.3z"/>
		<path class="st2" d="M125.6,137.3c0.4,0.3,0.8,0.4,1,0.7C126.3,137.8,125.9,137.5,125.6,137.3z"/>
		<path class="st2" d="M223.9,205.9c-0.3,0.1-0.4,0.1-0.7,0.3C223.3,206.1,223.6,206.1,223.9,205.9z"/>
		<path class="st2" d="M220.8,206.7c-0.1,0-0.4,0.1-0.5,0.1C220.6,206.9,220.7,206.7,220.8,206.7z"/>
		<path class="st2" d="M224.6,205.7c-0.1,0.1-0.4,0.1-0.5,0.1C224.2,205.8,224.5,205.7,224.6,205.7z"/>
		<path class="st2" d="M221.9,206.5c-0.3,0-0.4,0.1-0.7,0.1C221.4,206.6,221.6,206.6,221.9,206.5z"/>
		<path class="st2" d="M218.2,207.1c-0.1,0-0.4,0-0.5,0C217.8,207.1,218.1,207.1,218.2,207.1z"/>
		<path class="st2" d="M219.9,206.9c-0.1,0-0.4,0-0.5,0.1C219.7,207,219.8,206.9,219.9,206.9z"/>
		<path class="st2" d="M217.3,207.2c-0.1,0-0.3,0-0.5,0C217.1,207.2,217.2,207.2,217.3,207.2z"/>
		<path class="st2" d="M219.1,207c-0.1,0-0.4,0-0.5,0.1C218.8,207.1,218.9,207.1,219.1,207z"/>
		<path class="st2" d="M230.9,202.1c-0.1,0.1-0.4,0.3-0.5,0.4C230.5,202.4,230.7,202.3,230.9,202.1z"/>
		<path class="st2" d="M230.1,202.7c-0.1,0.1-0.3,0.3-0.4,0.4C229.9,202.9,230,202.8,230.1,202.7z"/>
		<path class="st2" d="M229.4,203.2c-0.1,0.1-0.3,0.1-0.4,0.3C229.1,203.5,229.2,203.3,229.4,203.2z"/>
		<path class="st2" d="M216.5,207.2c-0.1,0-0.3,0-0.5,0C216.1,207.2,216.3,207.2,216.5,207.2z"/>
		<path class="st2" d="M211.2,156.6c3.1,3.9,6.3,8,9.4,12C217.4,164.6,214.3,160.7,211.2,156.6z"/>
		<path class="st2" d="M228.7,203.7c-0.1,0.1-0.3,0.1-0.4,0.3C228.4,203.8,228.6,203.8,228.7,203.7z"/>
		<path class="st2" d="M226.3,204.9c-0.1,0.1-0.3,0.1-0.5,0.3C225.9,205.2,226.2,205,226.3,204.9z"/>
		<path class="st2" d="M227.1,204.6c-0.1,0.1-0.3,0.1-0.5,0.3C226.9,204.8,227,204.6,227.1,204.6z"/>
		<path class="st2" d="M227.9,204.1c-0.1,0.1-0.3,0.1-0.4,0.3C227.6,204.4,227.8,204.2,227.9,204.1z"/>
		<path class="st2" d="M222.9,206.2c-0.3,0.1-0.5,0.1-0.9,0.3C222.4,206.3,222.7,206.3,222.9,206.2z"/>
		<path class="st2" d="M113.9,134.8c0.3,0,0.4,0,0.7,0C114.3,134.7,114.1,134.7,113.9,134.8z"/>
		<path class="st2" d="M115.8,134.7L115.8,134.7c0.5,0,1,0,1.7,0.1C116.9,134.7,116.3,134.7,115.8,134.7z"/>
		<path class="st2" d="M246.4,177.3h0.1l0,0C246.4,177.3,246.4,177.3,246.4,177.3z"/>
		<path class="st2" d="M119.6,135.1c0.3,0.1,0.7,0.1,0.9,0.3C120.3,135.2,120,135.1,119.6,135.1z"/>
		<path class="st2" d="M122.8,136c0.3,0.1,0.5,0.3,0.9,0.4C123.3,136.2,123,136.1,122.8,136z"/>
		<path class="st2" d="M117.9,134.8c0.4,0,0.8,0.1,1.2,0.1C118.7,134.8,118.3,134.8,117.9,134.8z"/>
		<path class="st2" d="M121.2,135.4c0.3,0.1,0.7,0.1,0.9,0.3C121.8,135.6,121.6,135.6,121.2,135.4z"/>
		<path class="st2" d="M235,193.9c0-0.8-0.3-1.8-0.5-3C234.7,192.1,235,193.1,235,193.9L235,193.9z"/>
		<path class="st2" d="M215.5,207.2C215.6,207.2,215.6,207.2,215.5,207.2h-0.1H215.5z"/>
		<path class="st2" d="M214.6,207.2c-0.1,0-0.3,0-0.3,0S214.4,207.2,214.6,207.2z"/>
		<path class="st2" d="M231.1,202L231.1,202L231.1,202L231.1,202z"/>
		<path class="st2" d="M230.9,182.4c-0.3-0.4-0.5-0.8-0.8-1.2c-3.3-4.3-6.4-8.5-9.5-12.6c3.1,4.1,6.3,8.2,9.5,12.6
			C230.4,181.6,230.7,182,230.9,182.4z"/>
		<path class="st2" d="M124.2,136.6c0.3,0.1,0.7,0.3,0.9,0.5C124.7,136.9,124.5,136.8,124.2,136.6z"/>
		<path class="st2" d="M148,211.2c3.4,2.1,6.8,4.2,10.2,6.1c1.7,1,3.5,2,5.2,2.9c3.5,1.8,7.1,3.7,10.6,5.4c1.8,0.9,3.5,1.7,5.4,2.5
			c0.4,0.3,0.9,0.5,1.4,0.9l0,0c0.5,0.3,1,0.5,1.4,0.8l0,0c0.5,0.3,1,0.5,1.6,0.7l0,0c0.5,0.3,1,0.4,1.6,0.7l0,0
			c0.5,0.1,1,0.4,1.6,0.5l0,0c0.5,0.1,1,0.3,1.7,0.4c0,0,0,0,0.1,0c0.5,0.1,1,0.1,1.6,0.3c0,0,0,0,0.1,0c0.5,0,1,0.1,1.6,0.1
			c0.1,0,0.3,0,0.4,0s0.3,0,0.4,0s0.3,0,0.4,0s0.3,0,0.4,0s0.3,0,0.4,0s0.3,0,0.4,0s0.3,0,0.4-0.1c0.1,0,0.3,0,0.4-0.1
			c0.1,0,0.3-0.1,0.4-0.1s0.3,0,0.4-0.1c0.1,0,0.3-0.1,0.4-0.1c0.1,0,0.3-0.1,0.4-0.1s0.3-0.1,0.4-0.1s0.3-0.1,0.3-0.1
			c0.1-0.1,0.3-0.1,0.4-0.3c0.1,0,0.3-0.1,0.3-0.1c0.1-0.1,0.3-0.1,0.4-0.3c0.1,0,0.1-0.1,0.3-0.1c0.1-0.1,0.3-0.1,0.4-0.3
			c0.1-0.1,0.1-0.1,0.3-0.3c0.1-0.1,0.3-0.3,0.4-0.4c0.1-0.1,0.1-0.1,0.3-0.3c0.1-0.1,0.3-0.3,0.4-0.4c0.1-0.1,0.1-0.1,0.3-0.3
			c0.1-0.1,0.3-0.3,0.4-0.4c0.1-0.1,0.1-0.1,0.3-0.3c0.1-0.1,0.3-0.4,0.4-0.5c0-0.1,0.1-0.1,0.1-0.3c0.1-0.1,0.3-0.4,0.4-0.5
			c0-0.1,0.1-0.1,0.1-0.3c0.1-0.3,0.3-0.5,0.4-0.8c0,0,0,0,0-0.1l0,0c0.7-1.3,0.9-2.6,1-3.9c0-0.5,0.1-1,0.1-1.6c0-0.3,0-0.5,0-0.8
			c0-0.5-0.1-1-0.1-1.6c-0.1-1-0.5-2.1-0.8-3.1c-0.1-0.5-0.4-1-0.7-1.6c-0.4-0.8-0.8-1.6-1.2-2.2c-0.3-0.5-0.7-1-0.9-1.4
			c-0.3-0.5-0.7-0.9-1-1.4s-0.7-0.9-1-1.3c-1.3-1.6-2.7-3-4.2-4.2l0,0c0,0-0.1-0.1-0.3-0.3c-0.1-0.1-0.1-0.1-0.3-0.3
			c-0.3-0.3-0.5-0.4-0.8-0.8c-0.9-0.9-2.2-2.1-3.8-3.7c-0.5-0.5-1.2-1-1.7-1.7c-0.9-0.9-1.8-1.8-2.9-2.9c-1.7-1.7-3.7-3.5-5.6-5.5
			c-0.4-0.4-0.8-0.8-1.2-1.2c-1.7-1.6-3.4-3.3-5.1-5c-5.2-5.1-10.7-10.3-15.8-15.3c-1.7-1.7-3.4-3.3-5-4.7
			c-8.2-8-14.4-13.9-14.4-13.9c-0.5-0.5-0.9-0.9-1.4-1.3c-0.1-0.1-0.3-0.3-0.4-0.4c-0.4-0.3-0.7-0.7-0.9-0.9
			c-0.1-0.1-0.4-0.4-0.5-0.5c-0.3-0.3-0.5-0.5-0.9-0.8c-0.1-0.1-0.4-0.4-0.5-0.5c-0.3-0.3-0.5-0.5-0.8-0.8c-0.1-0.1-0.4-0.4-0.5-0.5
			c-0.3-0.3-0.5-0.5-0.8-0.7c-0.1-0.1-0.4-0.3-0.5-0.4c-0.3-0.3-0.7-0.5-0.9-0.7c-0.1-0.1-0.3-0.3-0.4-0.4c-0.4-0.4-0.9-0.7-1.3-0.9
			c-0.1,0-0.1-0.1-0.3-0.1c-0.4-0.3-0.8-0.5-1-0.7c-0.1-0.1-0.4-0.1-0.5-0.3c-0.3-0.1-0.7-0.3-0.9-0.5c-0.1-0.1-0.4-0.1-0.5-0.3
			c-0.3-0.1-0.5-0.3-0.9-0.4c-0.3-0.1-0.4-0.1-0.7-0.3c-0.3-0.1-0.7-0.3-0.9-0.3c-0.3,0-0.4-0.1-0.7-0.1c-0.3-0.1-0.7-0.1-0.9-0.3
			c-0.3,0-0.4-0.1-0.7-0.1c-0.4-0.1-0.8-0.1-1.2-0.1c-0.1,0-0.3,0-0.4,0c-0.5,0-1.2-0.1-1.7-0.1c-0.4,0-0.8,0-1.3,0
			c-0.3,0-0.4,0-0.7,0c-0.7,0-1.3,0.1-2.1,0.3c-3,0.1-5.6,0.8-7.8,2c-0.9,0.4-1.7,0.9-2.6,1.6c-1.2,0.9-2.2,1.8-3.3,3
			c-2.5,3-4.2,6.8-5,10.9c-0.3,1-0.4,2.1-0.4,3.1c-0.1,1-0.1,2.1-0.1,3.1c0,0.5,0,1,0,1.6c0.3,4.8,1.6,9.5,3.9,13.6
			c5.1,7.8,34,24.6,41.6,30.7C141.3,206.9,144.6,209.1,148,211.2z"/>
		<path class="st2" d="M118.8,106.3c0,0.3,0,0.7,0.1,0.9c0.1,1.2,0.4,2.4,0.8,3.7c0.3,0.9,0.5,1.8,0.9,2.7c0.4,0.9,0.8,1.8,1.2,2.6
			c0.1,0.3,0.3,0.7,0.4,0.9c2,3.8,4.6,7.6,7.6,11c0.7,0.8,1.4,1.6,2.1,2.4c0.5,0.5,0.9,1,1.4,1.4c3.1,3.3,6.5,6.1,9.7,8.5
			c11,9.5,21.2,19.6,31.1,29.4l0,0l36.4,36c0.1,0.1,0.7,0.4,1.3,0.7c0.4,0.3,0.9,0.4,1.2,0.5c0.1,0,0.3,0.1,0.3,0.1
			c0.4,0,0.7,0,1,0.1c0.1,0,0.3,0,0.3,0c0.3,0,0.5,0,0.8,0c0.1,0,0.3,0,0.3,0c0.1,0,0.3,0,0.4,0s0.3,0,0.5,0c0.1,0,0.3,0,0.4,0
			s0.3,0,0.5,0c0.1,0,0.3,0,0.4,0s0.4,0,0.5,0s0.3,0,0.4,0s0.4,0,0.5-0.1c0.1,0,0.3,0,0.4,0c0.1,0,0.4,0,0.5-0.1c0.1,0,0.3,0,0.4,0
			s0.4-0.1,0.5-0.1s0.3,0,0.4-0.1c0.3,0,0.4-0.1,0.7-0.1c0.1,0,0.1,0,0.3,0c0.3-0.1,0.5-0.1,0.9-0.3h0.1c0.3-0.1,0.5-0.1,0.7-0.3
			c0.1,0,0.3-0.1,0.3-0.1c0.1,0,0.4-0.1,0.5-0.1s0.3-0.1,0.4-0.1s0.4-0.1,0.5-0.3c0.1,0,0.3-0.1,0.4-0.1c0.1-0.1,0.3-0.1,0.5-0.3
			c0.1,0,0.3-0.1,0.4-0.1c0.1-0.1,0.3-0.1,0.5-0.3c0.1,0,0.3-0.1,0.4-0.1c0.1-0.1,0.3-0.1,0.4-0.3c0.1,0,0.3-0.1,0.3-0.1
			c0.1-0.1,0.3-0.1,0.4-0.3c0.1,0,0.3-0.1,0.3-0.1c0.1-0.1,0.3-0.1,0.4-0.3c0.1,0,0.1-0.1,0.3-0.1c0.1-0.1,0.3-0.3,0.4-0.4
			c0.1,0,0.1-0.1,0.3-0.1c0.1-0.1,0.4-0.3,0.5-0.4c0,0,0.1,0,0.1-0.1l0,0c0.3-0.1,0.4-0.4,0.5-0.5l0.1-0.1c0.1-0.1,0.3-0.3,0.4-0.4
			c0.1-0.1,0.1-0.1,0.1-0.3c0.1-0.1,0.3-0.3,0.3-0.4c0.1-0.1,0.1-0.1,0.1-0.3c0.1-0.1,0.1-0.3,0.3-0.4c0-0.1,0.1-0.1,0.1-0.3
			c0.1-0.1,0.1-0.3,0.3-0.4c0-0.1,0.1-0.3,0.1-0.3c0.1-0.1,0.1-0.3,0.3-0.4c0-0.1,0.1-0.3,0.1-0.3c0-0.1,0.1-0.3,0.1-0.4
			c0-0.1,0.1-0.3,0.1-0.3c0-0.1,0.1-0.3,0.1-0.4c0-0.1,0.1-0.3,0.1-0.3c0-0.1,0.1-0.3,0.1-0.5c0-0.1,0-0.3,0.1-0.3
			c0-0.1,0-0.4,0.1-0.5c0-0.1,0-0.1,0-0.3c0-0.3,0-0.5,0-0.8l0,0l0,0c0-0.8-0.3-1.8-0.5-3c-0.1-0.5-0.4-1.2-0.5-1.7
			c-0.8-2.4-2-5-3-6.7c-0.3-0.4-0.5-0.8-0.8-1.2c-3.3-4.3-6.4-8.5-9.5-12.6s-6.3-8.1-9.4-12c0,0,0-0.1-0.1-0.1l-12.6-14.9
			c-8.9-10.5-18-21.3-27.9-31.5c-4.7-4.3-12.9-12.8-18.3-23.3c-0.1-0.1-0.3-0.1-0.4-0.3c-0.4-0.3-0.8-0.4-1.2-0.7
			c-0.1-0.1-0.4-0.1-0.5-0.3c-0.3-0.1-0.5-0.3-0.8-0.4c-0.1-0.1-0.4-0.1-0.5-0.3c-0.3-0.1-0.5-0.3-0.7-0.3c-0.1-0.1-0.4-0.1-0.5-0.3
			c-0.3-0.1-0.5-0.1-0.7-0.3c-0.1-0.1-0.4-0.1-0.5-0.3c-0.3-0.1-0.5-0.1-0.8-0.3c-0.1,0-0.3-0.1-0.5-0.1c-0.4-0.1-0.8-0.3-1-0.3
			c-0.1,0-0.1,0-0.3,0c-0.4-0.1-0.8-0.1-1.2-0.3c-0.1,0-0.3,0-0.4,0c-0.3,0-0.5-0.1-0.8-0.1c-0.1,0-0.3,0-0.5,0s-0.5,0-0.8,0
			c-0.1,0-0.3,0-0.5,0c-0.3,0-0.4,0-0.7,0s-0.7,0-0.9,0c-0.1,0-0.4,0-0.5,0c-0.4,0-0.7,0.1-1,0.1c-0.1,0-0.4,0-0.5,0.1
			c-0.5,0.1-0.9,0.3-1.4,0.4h-0.1c-0.5,0.1-0.9,0.3-1.4,0.5c-0.1,0-0.3,0.1-0.5,0.3c-0.3,0.1-0.7,0.3-0.9,0.4
			c-0.1,0.1-0.4,0.1-0.5,0.3c-0.3,0.1-0.7,0.4-0.9,0.5c-0.1,0.1-0.4,0.3-0.5,0.4c-0.3,0.3-0.7,0.4-0.9,0.7c-0.1,0.1-0.3,0.3-0.4,0.4
			c-0.5,0.4-0.9,0.8-1.4,1.2c-3,2.7-5.1,5.6-6.4,8.5c-0.1,0.3-0.3,0.5-0.4,0.9c-0.8,2.1-1.2,4.2-1.3,6.3c0,0.3,0,0.7,0,0.9
			C118.7,105.1,118.8,105.6,118.8,106.3z"/>
		<path class="st2" d="M263,60.9c-1.2-2.9-2.6-5.9-3.9-8.9c-1.8-4.2-3.9-8.5-5.8-12.3c-0.8-1.6-1.6-3.1-2.4-4.6
			c-0.5-0.9-1-1.8-1.6-2.6c-0.5-0.8-1-1.6-1.4-2.2c-0.8-1-1.4-1.8-2.1-2.4c-0.4-0.3-0.8-0.7-1.2-0.9c-0.1-0.1-0.3-0.1-0.4-0.3
			c-0.3-0.1-0.5-0.4-0.8-0.5c-0.1-0.1-0.3-0.3-0.4-0.3c-0.3-0.1-0.5-0.4-0.8-0.5c-0.1-0.1-0.3-0.1-0.5-0.3c-0.3-0.1-0.5-0.3-0.9-0.5
			c-0.1-0.1-0.3-0.1-0.4-0.3c-0.4-0.1-0.7-0.4-1-0.5c-0.1,0-0.1-0.1-0.3-0.1c-0.4-0.3-0.9-0.4-1.4-0.5c-0.1,0-0.1-0.1-0.3-0.1
			c-0.4-0.1-0.8-0.3-1.2-0.4c-0.1,0-0.3-0.1-0.5-0.1c-0.3-0.1-0.7-0.3-0.9-0.3c-0.1,0-0.4-0.1-0.5-0.1c-0.3-0.1-0.7-0.1-0.9-0.3
			c-0.1,0-0.4-0.1-0.5-0.1c-0.4-0.1-0.7-0.1-1-0.3c-0.1,0-0.3,0-0.4-0.1c-0.9-0.1-2-0.3-3-0.4c-0.1,0-0.3,0-0.4,0c-0.4,0-0.7,0-1,0
			c-0.1,0-0.4,0-0.5,0c-0.3,0-0.5,0-0.8,0c-0.4,0-0.7,0-1,0s-0.4,0-0.7,0c-0.4,0-0.8,0.1-1.2,0.1c-0.1,0-0.4,0-0.5,0
			c-1,0.1-2.2,0.4-3.3,0.7c-0.1,0-0.3,0.1-0.4,0.1c-0.4,0.1-0.8,0.3-1,0.4c-0.1,0-0.4,0.1-0.5,0.3c-0.3,0.1-0.7,0.3-0.9,0.4
			c-0.1,0.1-0.4,0.1-0.5,0.3c-0.3,0.1-0.7,0.3-0.9,0.4c-0.1,0.1-0.4,0.1-0.5,0.3c-0.3,0.1-0.7,0.4-0.9,0.5c-0.1,0.1-0.3,0.1-0.4,0.3
			c-0.4,0.3-0.7,0.5-1,0.8c-0.1,0.1-0.1,0.1-0.3,0.3c-0.4,0.4-0.8,0.7-1.2,1c-0.1,0.1-0.1,0.1-0.3,0.3c-0.3,0.3-0.5,0.7-0.9,0.9
			c-0.1,0.1-0.3,0.3-0.4,0.4c-0.3,0.3-0.4,0.5-0.7,0.9c-0.1,0.1-0.3,0.4-0.4,0.5c-0.1,0.3-0.4,0.7-0.5,0.9c-0.1,0.1-0.3,0.4-0.3,0.7
			c-0.1,0.3-0.3,0.7-0.5,1c-0.1,0.3-0.1,0.4-0.3,0.7c-0.1,0.4-0.3,0.8-0.4,1.2c0,0.1-0.1,0.4-0.1,0.5c-0.1,0.7-0.4,1.2-0.5,1.8
			c-1.6,4.6-1.6,8.5-0.5,12.3c0.7,2.1,1.6,4.2,2.7,6.4c1,1.8,2.2,3.7,3.5,5.6c4.1,5.1,7.6,10.6,10.7,15.7
			c7.7,11.2,18.8,27.5,26.7,39c2.9-5.9,7.3-11,12.9-14.6c1.3-0.8,2.9-0.9,4.2-0.1c6,3.3,11.9,6.7,17.8,9.8
			c-3.8-12.4-8.2-24.7-14.1-36.2C267.7,71.5,265.4,66.6,263,60.9z"/>
		<path class="st2" d="M226.3,101.2l-0.1-0.1c0,0,0,0,0-0.1l-0.1-0.1c0,0,0-0.1-0.1-0.1l-0.1-0.1c0,0,0-0.1-0.1-0.1
			c0-0.1-0.1-0.1-0.1-0.3l-0.1-0.1c0-0.1-0.1-0.3-0.1-0.3l-0.1-0.1c-0.1-0.1-0.1-0.3-0.3-0.4c0,0,0,0,0-0.1
			c-0.3-0.4-0.5-0.9-0.8-1.3c0,0,0,0,0-0.1c-0.1-0.3-0.3-0.5-0.4-0.8l0,0c-1.2-2.1-2.6-4.8-4.3-7.8l0,0c-0.3-0.4-0.4-0.7-0.7-1l0,0
			c-1-1.8-2.2-3.8-3.4-5.8c0,0,0,0,0-0.1c-0.3-0.4-0.4-0.8-0.7-1c0-0.1-0.1-0.1-0.1-0.3c-0.3-0.4-0.4-0.7-0.7-1
			c0-0.1-0.1-0.1-0.1-0.3c-0.3-0.4-0.4-0.7-0.7-1l-0.1-0.1c-1-1.6-2.1-3.3-3.1-4.8c0,0,0,0,0-0.1c-0.3-0.4-0.5-0.7-0.8-1
			c-0.1-0.1-0.1-0.1-0.3-0.3c-0.3-0.4-0.5-0.7-0.7-1c-0.1-0.1-0.1-0.3-0.3-0.4c-0.3-0.3-0.5-0.7-0.7-0.9c-0.1-0.1-0.1-0.3-0.3-0.3
			c-0.3-0.4-0.5-0.7-0.8-1c0-0.1-0.1-0.1-0.1-0.3c-1.2-1.4-2.2-3-3.4-4.4c-0.1-0.1-0.1-0.3-0.3-0.3c-0.3-0.3-0.5-0.5-0.7-0.9
			c-0.1-0.1-0.3-0.3-0.4-0.4c-0.3-0.3-0.5-0.5-0.7-0.8c-0.1-0.1-0.3-0.3-0.4-0.4c-0.3-0.3-0.5-0.5-0.7-0.8c-0.1-0.1-0.3-0.3-0.4-0.4
			c-0.3-0.3-0.5-0.5-0.8-0.8c-0.1-0.1-0.3-0.3-0.3-0.3c-0.8-0.9-1.7-1.7-2.6-2.5c-0.1-0.1-0.3-0.3-0.4-0.4c-0.3-0.3-0.5-0.4-0.7-0.7
			c-0.1-0.1-0.3-0.3-0.4-0.4c-0.3-0.1-0.4-0.4-0.7-0.5c-0.1-0.1-0.3-0.3-0.5-0.4c-0.3-0.1-0.4-0.4-0.7-0.5c-0.1-0.1-0.4-0.3-0.5-0.4
			c-0.3-0.1-0.4-0.4-0.7-0.5c-0.1-0.1-0.4-0.3-0.5-0.4c-0.3-0.1-0.4-0.3-0.7-0.5c-0.1-0.1-0.4-0.3-0.5-0.4c-0.4-0.3-0.8-0.5-1-0.7
			c-0.3-0.1-0.4-0.3-0.7-0.4c-0.1-0.1-0.4-0.3-0.5-0.4c-0.3-0.1-0.4-0.3-0.7-0.4c-0.3-0.1-0.4-0.3-0.7-0.3c-0.3-0.1-0.4-0.3-0.7-0.3
			c-0.1-0.1-0.4-0.1-0.5-0.3c-0.3-0.1-0.4-0.1-0.7-0.3c-0.1-0.1-0.4-0.1-0.5-0.3c-0.3-0.1-0.4-0.1-0.7-0.3c-0.1,0-0.4-0.1-0.5-0.1
			c-0.3-0.1-0.5-0.1-0.8-0.3c-0.1,0-0.3-0.1-0.5-0.1c-0.4-0.1-0.8-0.3-1.2-0.3c-0.1,0-0.3,0-0.3,0c-0.3,0-0.7-0.1-0.9-0.1
			c-0.1,0-0.3,0-0.5,0s-0.5,0-0.8,0c-0.1,0-0.4,0-0.5,0c-0.3,0-0.5,0-0.8,0s-0.5,0-0.8,0s-0.4,0-0.7,0s-0.5,0-0.8,0.1
			c-0.3,0-0.4,0-0.7,0.1c-0.3,0-0.5,0.1-0.8,0.1s-0.4,0.1-0.7,0.1s-0.5,0.1-0.8,0.3c-0.3,0.1-0.4,0.1-0.7,0.3
			c-0.3,0.1-0.5,0.1-0.8,0.3c-0.3,0.1-0.4,0.1-0.7,0.3c-0.3,0.1-0.5,0.3-0.8,0.4c-0.1,0.1-0.4,0.1-0.5,0.3c-0.3,0.1-0.7,0.4-0.9,0.5
			c-0.1,0.1-0.3,0.1-0.5,0.3c-0.5,0.3-0.9,0.7-1.4,0.9c-6.9,5.1-9.5,11.2-9.5,17.7c0,0.7,0,1.2,0.1,1.8c0.1,0.9,0.3,1.8,0.4,2.7
			c0.3,1.2,0.5,2.5,0.9,3.7c0.1,0.3,0.3,0.7,0.3,0.9c0.3,0.7,0.4,1.2,0.7,1.8c0.1,0.3,0.3,0.7,0.4,0.9c1,2.5,2.4,4.8,3.8,7.2
			c0.4,0.5,0.8,1.2,1.2,1.7c3.9,5.8,8.8,11.1,13.3,15.2c1.3,1.3,2.5,2.6,3.8,3.9c1.2,1.3,2.5,2.6,3.7,3.9c2.5,2.6,4.8,5.4,7.2,8.1
			c4.7,5.4,9.3,10.9,13.9,16.1l0,0l0,0l0,0l33,39c0.1,0.1,0.4,0.3,0.8,0.5c0.3,0.1,0.5,0.4,0.8,0.5c0.4,0.3,0.8,0.5,1,0.5
			s0.7,0.1,0.9,0.1c0.1,0,0.3,0,0.3,0c0.3,0,0.5,0,0.8,0.1c0.1,0,0.3,0,0.3,0c0.3,0,0.5,0,0.9,0h0.1c0.4,0,0.7,0,1,0
			c0.1,0,0.1,0,0.3,0c0.4,0,0.8,0,1.3,0h0.1l0,0c0.4,0,0.9-0.1,1.3-0.1c0.1,0,0.1,0,0.3,0c0.4,0,0.9-0.1,1.3-0.1c0.1,0,0.1,0,0.3,0
			c0.4-0.1,0.9-0.1,1.3-0.3h0.1c0.4-0.1,0.9-0.3,1.3-0.4c0.1,0,0.1,0,0.3-0.1c0.4-0.1,0.9-0.3,1.3-0.4c0.1,0,0.1,0,0.3-0.1
			c0.4-0.1,0.8-0.3,1.2-0.5h0.1c0.4-0.1,0.8-0.4,1.2-0.7c0.1,0,0.1-0.1,0.3-0.1c0.4-0.3,0.8-0.4,1-0.7c0.1,0,0.1-0.1,0.1-0.1
			c0.4-0.3,0.7-0.5,1-0.8l0,0c0.3-0.3,0.7-0.5,0.9-0.8l0.1-0.1c0.3-0.3,0.5-0.7,0.8-0.9l0.1-0.1c0.3-0.3,0.5-0.7,0.7-1l0,0
			c0.1-0.3,0.3-0.7,0.5-0.9c-5.1-4.7-9.7-10.2-13.2-16.6c-4.2-7.2-5.8-15.4-5-23.4C238.2,119.5,232.4,110.5,226.3,101.2z"/>
	</g>
</g>
</svg>
