<?xml version="1.0" encoding="utf-8"?>
<!-- Generator: Adobe Illustrator 26.2.1, SVG Export Plug-In . SVG Version: 6.00 Build 0)  -->
<svg version="1.1" id="Capa_1" xmlns="http://www.w3.org/2000/svg" xmlns:xlink="http://www.w3.org/1999/xlink" x="0px" y="0px"
	 viewBox="0 0 435.6 895.1" style="enable-background:new 0 0 435.6 895.1;" xml:space="preserve">
<style type="text/css">
	.st0{fill:none;}
	.st1{fill:#BCBEC0;}
	.st2{fill:#E4A85A;}
</style>
<g>
	<path class="st0" d="M380.5,138.8c-0.1,0-0.2-0.1-0.3-0.2c0,0.2,0.1,0.3,0.1,0.5C380.4,139,380.4,138.9,380.5,138.8z"/>
	<path class="st0" d="M378.6,131.2L378.6,131.2C378.5,131.2,378.5,131.2,378.6,131.2L378.6,131.2z"/>
	<path class="st0" d="M51.9,235.5c-0.5-0.2-0.9-0.6-1.3-0.9c0.3,0.5,0.6,1,0.9,1.5c0.1-0.1,0.2-0.2,0.2-0.3c0,0,0,0,0-0.1
		C51.8,235.7,51.9,235.6,51.9,235.5z"/>
	<path class="st0" d="M383.3,154.2c-0.3-0.2-0.5-0.4-0.8-0.6c0.1,0.5,0.1,0.9,0.2,1.4C382.9,154.8,383.1,154.5,383.3,154.2z"/>
	<path class="st0" d="M384.3,162c-0.4-0.2-0.7-0.6-1-0.9c0,0.1,0,0.2,0,0.3c0.3,0.3,0.5,0.6,0.8,0.9
		C384.2,162.2,384.2,162.1,384.3,162z"/>
	<path class="st0" d="M382.1,146.5c-0.2-0.1-0.4-0.2-0.5-0.4c0,0.3,0.1,0.6,0.1,0.9C381.8,146.8,381.9,146.6,382.1,146.5z"/>
	<path class="st0" d="M382.4,216.5c0,0.3,0,0.5,0,0.8c0.1-0.1,0.3-0.2,0.4-0.3C382.7,216.8,382.5,216.6,382.4,216.5z"/>
	<path class="st0" d="M383.1,209c-0.3-0.3-0.6-0.6-0.8-0.9c0,0.5,0,1,0,1.8C382.5,209.5,382.8,209.2,383.1,209z"/>
	<path class="st0" d="M382.8,201c0,0.2,0,0.3,0,0.4c0.1-0.1,0.2-0.2,0.3-0.3C383,201.1,382.9,201,382.8,201z"/>
	<path class="st1" d="M271.2,253.4c0.2,0.1,0.5,0.2,0.7,0.3c-1.1-1.3-1.7-2.9-1.7-4.6c0-1.8,0.6-3.4,1.7-4.6
		c-5.8,1.7-10.8,6.2-14.2,10c4.3-1.5,6.7-2.1,8.7-2.1C267.9,252.3,269.3,252.7,271.2,253.4z"/>
	<path class="st1" d="M420.4,234.6c-3-5.7-9.2-15.1-16.8-15.1c-5.3,0-10.4,4.6-14.2,9.1c-0.1-1-0.5-2-1.2-2.8c1.1-0.7,2-1.9,2.2-3.3
		l0.1-1c0.2-1.4-0.3-2.8-1.2-3.7c1.1-0.7,1.9-1.9,2.1-3.3l0.1-1c0.1-1.4-0.4-2.8-1.3-3.7c1.1-0.7,1.9-2,2-3.4l0.1-1
		c0.1-1.4-0.5-2.7-1.4-3.6c1.1-0.8,1.8-2,1.9-3.5v-1c0.1-1.4-0.6-2.7-1.6-3.6c1.1-0.8,1.7-2.1,1.8-3.5v-1c0-1.4-0.6-2.7-1.7-3.6
		c1-0.8,1.7-2.1,1.7-3.6v-1c0-1.4-0.7-2.7-1.8-3.5c1-0.9,1.6-2.2,1.6-3.6v-1c-0.1-1.4-0.8-2.7-1.9-3.4c1-0.9,1.5-2.2,1.4-3.7l-0.1-1
		c-0.1-1.4-0.9-2.6-2-3.4c0.9-0.9,1.5-2.3,1.3-3.7l-0.1-1c-0.2-1.4-1-2.6-2.1-3.3c0.9-1,1.4-2.3,1.1-3.8l-0.2-1
		c-0.2-1.4-1.1-2.6-2.3-3.2c0.9-1,1.3-2.4,1-3.8l-0.2-1c-0.3-1.4-1.2-2.5-2.4-3.1c0.8-1.1,1.2-2.5,0.8-3.9l-0.2-1
		c-0.4-1.4-1.3-2.5-2.5-3c0.8-1.1,1.1-2.5,0.6-3.9l-0.3-1c-0.4-1.4-1.4-2.4-2.7-2.9c0.7-1.1,0.9-2.6,0.5-3.9l-0.3-1
		c-0.5-1.4-1.6-2.3-2.8-2.8c0.7-1.2,0.8-2.6,0.3-3.9l-0.8-0.8c-0.6-1.3-1.7-2.3-3-2.6c0.6-1.2,0.7-2.7,0-4l-0.5-0.9
		c-0.6-1.3-1.8-2.2-3.1-2.4c0.5-1.2,0.5-2.7-0.2-4l-0.5-0.9c-0.7-1.3-1.9-2.1-3.3-2.3c0.5-1.3,0.4-2.7-0.4-3.9l-0.6-0.9
		c-0.8-1.2-2.1-1.9-3.4-2.1c0.4-1.3,0.2-2.7-0.7-3.9l-0.6-0.8c-0.9-1.2-2.2-1.8-3.5-1.8c0.3-1.3,0-2.7-0.9-3.9l-0.7-0.8
		c-0.9-1.1-2.3-1.7-3.6-1.6c0.2-1.3-0.2-2.7-1.2-3.8L352,68c-1-1-2.4-1.5-3.7-1.4c0.1-1.3-0.3-2.7-1.4-3.7l-0.8-0.7
		c-1.1-1-2.5-1.4-3.8-1.1c0-1.3-0.5-2.7-1.6-3.6l-0.8-0.7c-1.1-0.9-2.6-1.2-3.9-0.9c0-1.3-0.7-2.7-1.9-3.5l-0.8-0.6
		c-1.2-0.8-2.6-1-3.9-0.6c-0.1-1.3-0.8-2.6-2.1-3.4l-0.9-0.5c-1.2-0.8-2.7-0.9-3.9-0.4c-0.2-1.3-1-2.5-2.3-3.2l-0.9-0.5
		c-1.3-0.7-2.7-0.7-4-0.2c-0.3-1.3-1.1-2.5-2.4-3.1l-0.9-0.4c-1.3-0.6-2.8-0.6-4,0c-0.3-1.3-1.3-2.4-2.6-3l-0.9-0.4
		c-1.3-0.6-2.8-0.4-3.9,0.2c-0.4-1.3-1.4-2.3-2.7-2.8l-1-0.3c-1.4-0.5-2.8-0.3-3.9,0.4c-0.5-1.2-1.5-2.3-2.9-2.7l-1-0.3
		c-1.4-0.4-2.8-0.2-3.9,0.6c-0.5-1.2-1.6-2.2-3-2.6l-1-0.3c-1.4-0.4-2.8,0-3.8,0.8c-0.6-1.2-1.7-2.1-3.1-2.4l-1-0.2
		c-1.4-0.3-2.8,0.1-3.8,0.9c-0.6-1.2-1.8-2.1-3.2-2.3l-1-0.2c-1.4-0.2-2.8,0.2-3.8,1.1c-0.7-1.1-1.8-2-3.2-2.2l-1-0.1
		c-1.4-0.2-2.8,0.3-3.7,1.2c-0.7-1.1-1.9-1.9-3.3-2.1l-1-0.1c-1.4-0.2-2.8,0.4-3.7,1.3c-0.7-1.1-2-1.9-3.4-2l-1-0.1
		c-1.4-0.1-2.7,0.5-3.6,1.4c-0.8-1.1-2-1.8-3.4-1.9h-1c-1.4-0.1-2.7,0.5-3.6,1.5c-0.8-1.1-2.1-1.7-3.5-1.8h-1
		c-1.4,0-2.7,0.6-3.6,1.6c-0.8-1-2.1-1.7-3.5-1.7h-1c-1.4,0-2.7,0.7-3.5,1.7c-0.9-1-2.1-1.6-3.6-1.6h-1c-1.4,0-2.7,0.7-3.5,1.8
		c-0.9-1-2.2-1.6-3.6-1.5l-1,0.1c-1.4,0.1-2.7,0.8-3.4,1.9c-0.9-1-2.2-1.5-3.6-1.4l-1,0.1c-1.4,0.1-2.6,0.9-3.4,2
		c-0.9-0.9-2.3-1.5-3.7-1.3l-1,0.1c-1.4,0.2-2.6,1-3.3,2.1c-1-0.9-2.3-1.4-3.7-1.2l-1,0.1c-1.4,0.2-2.6,1.1-3.2,2.2
		c-1-0.9-2.4-1.3-3.8-1l-1,0.2c-1.4,0.3-2.5,1.2-3.2,2.3c-1-0.8-2.4-1.2-3.8-0.9l-1,0.2c-1.4,0.3-2.5,1.3-3.1,2.5
		c-1.1-0.8-2.5-1.1-3.9-0.8l-1,0.3c-1.4,0.4-2.4,1.4-3,2.6c-1.1-0.8-2.5-1-3.9-0.6l-1,0.3c-1.4,0.4-2.4,1.5-2.9,2.7
		c-1.1-0.7-2.6-0.9-3.9-0.4l-1,0.4c-1.4,0.5-2.3,1.6-2.7,2.9c-1.2-0.6-2.6-0.8-3.9-0.2l-0.9,0.4c-1.3,0.6-2.2,1.7-2.6,3
		c-1.2-0.6-2.7-0.6-4,0l-0.9,0.4c-1.3,0.6-2.1,1.8-2.4,3.1c-1.2-0.5-2.7-0.5-4,0.2l-0.9,0.5c-1.3,0.7-2,1.9-2.2,3.3
		c-1.3-0.4-2.7-0.3-3.9,0.5l-0.9,0.6c-1.2,0.8-1.9,2.1-2,3.4c-1.3-0.4-2.7-0.2-3.9,0.7c-0.3,0.2-0.6,0.4-0.8,0.6
		c-1.2,0.9-1.8,2.2-1.8,3.5c-1.3-0.3-2.7,0-3.9,0.9l-0.5,0.7c-1.1,0.9-1.6,2.3-1.6,3.6c-1.3-0.2-2.7,0.2-3.8,1.2l-0.7,0.7
		c-1,1-1.5,2.4-1.3,3.7c-1.3-0.1-2.7,0.4-3.7,1.4L83,69.8c-1,1.1-1.3,2.5-1.1,3.8c-1.3,0-2.7,0.5-3.6,1.7l-0.6,0.8
		c-0.9,1.1-1.2,2.6-0.8,3.9c-1.3,0.1-2.7,0.7-3.5,1.9l-0.6,0.8c-0.8,1.2-1,2.6-0.6,3.9c-1.3,0.1-2.6,0.9-3.4,2.1l-0.5,0.9
		c-0.8,1.2-0.8,2.7-0.3,4c-1.3,0.2-2.5,1-3.2,2.3l-0.5,0.9c-0.7,1.3-0.7,2.7-0.1,4c-1.3,0.3-2.5,1.2-3.1,2.5c-0.1,0.3-0.3,0.6-0.4,1
		c-0.6,1.3-0.5,2.8,0.1,3.9c-1.3,0.4-2.4,1.3-2.9,2.7l-0.4,1c-0.5,1.3-0.4,2.8,0.3,4c-1.3,0.4-2.3,1.4-2.8,2.8l-0.3,1
		c-0.5,1.4-0.2,2.8,0.5,3.9c-1.2,0.5-2.2,1.6-2.6,2.9l-0.3,1c-0.4,1.4-0.1,2.8,0.7,3.9c-1.2,0.6-2.2,1.7-2.5,3.1l-0.2,1
		c-0.3,1.4,0.1,2.8,0.9,3.8c-1.2,0.6-2.1,1.8-2.4,3.2l-0.2,1c-0.3,1.4,0.2,2.8,1.1,3.8c-1.2,0.7-2,1.8-2.2,3.3l-0.1,1
		c-0.2,1.4,0.3,2.8,1.2,3.8c-1.1,0.7-2,1.9-2.1,3.4l-0.1,1c-0.1,1.4,0.4,2.8,1.3,3.7c-1.1,0.7-1.9,2-2,3.4l-0.1,1
		c-0.1,1.4,0.5,2.8,1.5,3.7c-1.1,0.8-1.8,2.1-1.9,3.5v1c0,1.4,0.6,2.7,1.6,3.6c-1,0.8-1.7,2.1-1.7,3.5v1c0,1.4,0.7,2.7,1.7,3.5
		c-1,0.9-1.7,2.1-1.6,3.6v1c0,1.4,0.8,2.7,1.8,3.5c-1,0.9-1.6,2.2-1.5,3.6l0.1,1c0.1,1.4,0.8,2.7,1.9,3.4c-1,0.9-1.5,2.2-1.4,3.7
		l0.1,1c0.1,1.4,0.9,2.6,2,3.4c-0.9,0.9-1.4,2.3-1.3,3.7l0.1,1c0.2,1.4,1,2.6,2.1,3.3c-0.9,1-1.4,2.3-1.2,3.7l0.1,1
		c0.2,1.4,1.1,2.6,2.2,3.2c-0.9,1-1.3,2.4-1.1,3.8l0.2,1c0,0.3,0.1,0.5,0.2,0.7c-3.8-5.8-10.5-13.5-17.8-13.5
		c-7.6,0-13.7,9.5-16.8,15.1c-9.4,17.5,2.2,32.8,15.6,50.5c0,0,0,0,0,0.1c6.3,8,12.7,16.4,15.5,24.6c4.1,12.9,13.1,20.2,17.8,21.8
		c0.6,0.2,1.3,0.3,1.9,0.3c1.2,0,2.5-0.4,3.5-1.1c1.2-0.9,2.1-2.2,2.4-3.6c0.3-0.8,0.5-1.7,0.6-2.9c0.5-1.7,2.1-3,3.8-3
		c0.2,0,0.4,0,0.6,0.1c0.1,0,0.1,0,0.2,0c1.4,0.2,2.2,0.8,2.9,2.1c27.2,60.2,65,142.4,137.5,142.5c72.7,0.1,111.2-82.2,138.4-142.2
		c0.5-0.8,1.6-2.2,3-2.4c0.1,0,0.1,0,0.2,0c0.3,0,0.5-0.1,0.8-0.1c1.8,0,3.2,1.2,3.6,2.9c0.1,1.1,0.4,2,0.5,2.6l0,0
		c0.2,1.6,1.1,3,2.4,4c1,0.7,2.3,1.1,3.5,1.1c0.6,0,1.3-0.1,1.9-0.3c4.7-1.6,13.6-8.9,17.8-21.8c2.8-8.2,9.2-16.6,15.5-24.6
		c0.1-0.1,0.2-0.2,0.2-0.3C418.5,267.6,429.9,252.3,420.4,234.6z M383.3,154.2c-0.2,0.2-0.4,0.5-0.6,0.8c-0.1-0.5-0.1-0.9-0.2-1.4
		C382.8,153.9,383.1,154.1,383.3,154.2z M382.1,146.5c-0.1,0.2-0.3,0.3-0.4,0.5c0-0.3-0.1-0.6-0.1-0.9
		C381.7,146.2,381.9,146.4,382.1,146.5z M380.5,138.8c-0.1,0.1-0.1,0.2-0.2,0.3c0-0.2-0.1-0.3-0.1-0.5
		C380.3,138.7,380.4,138.7,380.5,138.8z M378.6,131.2L378.6,131.2C378.5,131.2,378.5,131.2,378.6,131.2L378.6,131.2z M66.5,305.4
		c-0.1,1.3-1.2,2.3-2.5,2.3c-0.1,0-0.2,0-0.2,0c-1.4-0.1-2.4-1.3-2.3-2.7c2.4-25.4-28.5-44.8-28.8-45c-1.2-0.7-1.5-2.3-0.8-3.4
		c0.7-1.2,2.3-1.5,3.4-0.8c0.3,0.2,8.5,5.3,16.5,13.8C62.5,281.2,67.6,293.5,66.5,305.4z M169.5,430.8c-0.4,0.3-1,0.5-1.5,0.5
		c-0.8,0-1.5-0.4-2-1c-0.1-0.1-9.5-13.2-18.7-28.6c-12.5-21-18.6-36.1-18.3-45c0.1-3,1.3-6.6,3-10.5c-9.2-0.7-16.6-3.1-22.4-6.1
		c5.2,17.2,24.3,54.3,34,73.3c6.9,13.5,6.9,13.5,6.8,14.6c-0.1,1.3-1.2,2.3-2.5,2.3c-0.1,0-0.1,0-0.2,0c-1.1-0.1-2-0.9-2.2-1.9
		c-0.4-1.1-3.2-6.5-6.3-12.6c-11.6-22.6-32.9-64.1-35.6-79.2c-8.7-6-12.3-12.6-12.5-13.1c-0.6-1.2-0.2-2.7,1-3.4
		c1.2-0.6,2.7-0.2,3.4,1c0.4,0.8,10.4,18.7,38.9,20.3c9.7-18.5,29.4-41.3,30.5-42.6c0.9-1,2.5-1.2,3.5-0.3c1,0.9,1.2,2.5,0.3,3.5
		c-9.4,10.9-34.1,42-34.7,54.9c-0.3,7.8,5.7,22.3,17.5,42.2c9.1,15.2,18.4,28.2,18.5,28.3C170.9,428.5,170.6,430,169.5,430.8z
		 M190.4,170.9c10.1,7,19.7,13.6,27.3,13.6s17.2-6.6,27.3-13.6s20.6-14.2,30.7-15.9c22.3-3.8,53.7,18.1,55.1,19
		c1.1,0.8,1.4,2.4,0.6,3.5s-2.4,1.4-3.5,0.6c-0.3-0.2-31-21.6-51.3-18.2c-9,1.5-19,8.4-28.7,15.1c-10.8,7.5-21,14.5-30.2,14.5
		s-19.4-7.1-30.2-14.5c-9.6-6.7-19.6-13.6-28.6-15.1c-20.3-3.4-51,18-51.3,18.2c-1.1,0.8-2.7,0.5-3.5-0.6s-0.5-2.7,0.6-3.5
		c1.3-0.9,32.7-22.8,55.1-19C169.8,156.7,180.3,163.9,190.4,170.9z M165.9,123.7c1.2-0.7,2.7-0.2,3.4,1c6.3,11.2,24.4,18,48.4,18
		c24.1,0,42.2-6.7,48.4-18c0.7-1.2,2.2-1.6,3.4-1c1.2,0.7,1.6,2.2,1,3.4c-7.2,12.9-26.9,20.5-52.8,20.5s-45.6-7.7-52.8-20.5
		C164.2,125.8,164.7,124.3,165.9,123.7z M262.1,318.5c-1.9,3.6-5.1,6.3-9,7.5c-1.5,0.5-3.1,0.7-4.6,0.7c-2.4,0-4.8-0.6-7.1-1.7
		c-1.7-0.9-3.2-2.1-4.5-3.5c-3.3,5.3-10.6,9-19.3,9s-16-3.6-19.3-9c-1.2,1.4-2.7,2.6-4.4,3.5c-2.2,1.2-4.6,1.7-7.1,1.7
		c-1.5,0-3.1-0.2-4.6-0.7c-3.9-1.2-7.1-3.9-9-7.5s-2.3-7.8-1-11.7c0.4-1.3,1.8-2,3.1-1.6s2,1.8,1.6,3.1c-0.8,2.6-0.6,5.4,0.7,7.8
		s3.4,4.2,6,5.1c5.3,1.7,10.9-1.2,12.8-6.4c0.1-1.2,1.2-2.2,2.5-2.2c1.1,0,2,0.7,2.3,1.7c0.2,0.4,0.2,0.8,0.2,1.2
		c0.3,5.4,7.6,9.9,16.1,9.9c8.8,0,16.2-4.7,16.2-10.3V315l0,0c0.1-1.3,1.2-2.3,2.5-2.3c1.2,0,2.2,0.9,2.5,2
		c1.8,5.3,7.5,8.2,12.8,6.5c2.6-0.8,4.8-2.6,6-5.1c1.3-2.4,1.5-5.2,0.7-7.8c-0.4-1.3,0.3-2.7,1.6-3.1c1.3-0.4,2.7,0.3,3.1,1.6
		C264.4,310.8,264,314.9,262.1,318.5z M279.5,358L279.5,358c1.5,0.2,2.7,1.2,3.3,2.6c0.1,0.2,0.2,0.5,0.2,0.8v0.1
		c0.2,1.1,0,2.3-0.7,3.3c-4.2,6.2-27.7,29.3-64.7,29.3s-60.4-23.1-64.7-29.3c-0.7-1-0.9-2.2-0.7-3.3v-0.1c0.1-0.3,0.1-0.5,0.2-0.8
		c0.6-1.4,1.8-2.3,3.3-2.6c10.3-1.6,35.3-5.1,45.3-4.5c2.9,0.2,8.3,2,14,4c1,0.3,1.9,0.7,2.5,0.9c0.7-0.2,1.6-0.5,2.5-0.9
		c5.7-2,11-3.8,14-4C244.1,352.8,269.2,356.4,279.5,358z M182.8,261.1c-0.1,0-0.1,0-0.2,0c-0.7,0-1.3-0.1-2.1-0.4
		c-10.9-4.1-11.3-4-14.6-2.7c-1.1,0.4-2.4,0.9-4.3,1.4c-4.9,1.4-10.2-0.2-16.3-1.9c-8.6-2.5-19.3-5.6-32.6-1.3
		c-2.3,0.7-3.3,1.1-4.4-0.2c-0.7-0.7-0.8-1.8-0.4-2.7c0.5-1.1,0.5-1.1,7.7-3.5c2.7-0.9,8.1-2.7,14.4-4.6c14.6-4.4,24.3-6.7,28.8-6.7
		c12.3,0,22,11.2,26.1,16.7c5.3,5.9,5.1,15-0.6,20.7c-0.5,0.5-1.1,0.7-1.8,0.7s-1.3-0.2-1.8-0.7c-1-1-1-2.6,0-3.5
		C183.9,269.5,184.6,264.9,182.8,261.1z M254.8,260.8c-0.7,0.3-1.4,0.4-2.1,0.4c-0.1,0-0.1,0-0.2,0c-0.6,1.3-0.9,2.7-0.9,4.2
		c0,2.7,1.1,5.3,3,7.2c1,1,1,2.6,0,3.5c-0.5,0.5-1.1,0.7-1.8,0.7s-1.3-0.2-1.8-0.7c-2.9-2.9-4.4-6.7-4.4-10.7c0-3.7,1.4-7.3,3.8-10
		c4.1-5.5,13.8-16.7,26.1-16.7c4.5,0,14.2,2.2,28.8,6.7c6.3,1.9,11.7,3.7,14.4,4.6c7.2,2.4,7.2,2.4,7.7,3.5c0.4,0.9,0.2,2-0.4,2.7
		c-1.1,1.2-2.2,0.9-4.4,0.2c-13.3-4.3-24-1.2-32.6,1.3c-6.1,1.8-11.4,3.3-16.3,1.9c-1.9-0.5-3.2-1-4.3-1.4
		C266.1,256.8,265.7,256.7,254.8,260.8z M303,203c-21.1-6.8-37.6-3.5-49.2,9.7c-0.9,1-2.5,1.1-3.5,0.2c-1-0.9-1.1-2.5-0.2-3.5
		c12.9-14.7,31.8-18.5,54.6-11.1c16.9,5.4,29.9,15,30.4,15.4c1.1,0.8,1.3,2.4,0.5,3.5c-0.5,0.7-1.2,1-2,1c-0.5,0-1-0.2-1.5-0.5
		C331.9,217.6,319.1,208.2,303,203z M130.8,198.3c22.9-7.4,41.8-3.5,54.6,11.1c0.9,1,0.8,2.6-0.2,3.5s-2.6,0.8-3.5-0.2
		c-27.9-31.8-77.8,4.6-78.3,5c-0.4,0.3-1,0.5-1.5,0.5c-0.8,0-1.5-0.3-2-1c-0.8-1.1-0.6-2.7,0.5-3.5
		C100.9,213.2,113.9,203.7,130.8,198.3z M233.4,418.7c-4.2,0.2-9.7,0.3-15.7,0.3s-11.6-0.1-15.7-0.3c-6.1-0.3-9.5-0.5-9.5-3.5
		c0-1.4,1.1-2.5,2.5-2.5c0.6,0,1.1,0.2,1.5,0.5c4.8,1.1,37.6,1.1,42.4,0c0.4-0.3,0.9-0.5,1.5-0.5c1.4,0,2.5,1.1,2.5,2.5
		C242.9,418.2,239.5,418.4,233.4,418.7z M344.3,323.3c-0.3,0.5-3.9,7.1-12.5,13.1c-2.7,15-24,56.6-35.6,79.2
		c-3.2,6.1-5.9,11.5-6.3,12.6c-0.2,1-1.1,1.8-2.2,1.9c-0.1,0-0.1,0-0.2,0c-1.3,0-2.4-1-2.5-2.3c-0.1-1.1-0.1-1.1,6.8-14.6
		c9.7-18.9,28.8-56.1,34-73.3c-5.8,2.9-13.2,5.3-22.4,6.1c1.7,4,2.9,7.6,3,10.5c0.4,8.9-5.7,24-18.3,45
		c-9.2,15.4-18.6,28.5-18.7,28.6c-0.5,0.7-1.3,1-2,1c-0.5,0-1-0.2-1.5-0.5c-1.1-0.8-1.4-2.4-0.6-3.5c0.1-0.1,9.4-13.1,18.5-28.3
		c11.8-19.8,17.9-34.4,17.5-42.2c-0.6-12.9-25.2-44-34.7-54.9c-0.9-1-0.8-2.6,0.3-3.5c1-0.9,2.6-0.8,3.5,0.3
		c1.1,1.3,20.8,24.1,30.5,42.6c28.5-1.5,38.5-19.5,38.9-20.3c0.7-1.2,2.2-1.7,3.4-1C344.5,320.6,344.9,322.1,344.3,323.3z
		 M367.8,144.2c-0.6-1.2-0.6-2.6-0.1-3.8c-1.3-0.2-2.4-1-3.1-2.2c-0.2-0.3-0.3-0.6-0.5-0.8c-0.7-1.2-0.8-2.6-0.4-3.8
		c-1.3-0.1-2.5-0.8-3.2-2l-0.5-0.8c-0.8-1.1-1-2.5-0.6-3.7c-1.3-0.1-2.5-0.7-3.3-1.7l-0.6-0.8c-0.8-1.1-1.1-2.4-0.9-3.7
		c-1.3,0-2.5-0.5-3.5-1.5l-0.6-0.7c-0.9-1-1.3-2.3-1.1-3.6c-1.3,0.1-2.6-0.3-3.6-1.2l-0.7-0.7c-1-0.9-1.5-2.2-1.4-3.5
		c-1.3,0.2-2.6-0.1-3.6-1l-0.7-0.6c-1.1-0.9-1.6-2.1-1.6-3.4c-1.2,0.3-2.6,0.1-3.7-0.8l-0.8-0.6c-1.1-0.8-1.8-2-1.8-3.3
		c-1.2,0.4-2.6,0.2-3.8-0.5l-0.8-0.5c-1.2-0.7-1.9-1.9-2.1-3.2c-1.2,0.5-2.6,0.4-3.8-0.3l-0.8-0.5c-1.2-0.7-2-1.8-2.2-3.1
		c-1.2,0.5-2.6,0.5-3.8-0.1l-0.9-0.4c-1.2-0.6-2.1-1.7-2.4-2.9c-1.1,0.6-2.5,0.7-3.8,0.1l-0.9-0.4c-1.3-0.5-2.2-1.6-2.6-2.8
		c-1.1,0.6-2.5,0.8-3.8,0.3l-0.9-0.3c-1.3-0.5-2.3-1.5-2.7-2.7c-1.1,0.7-2.5,0.9-3.8,0.5l-0.9-0.3c-1.3-0.4-2.3-1.4-2.8-2.6
		c-1,0.7-2.4,1-3.8,0.7l-1-0.2c-1.3-0.3-2.4-1.3-2.9-2.4c-1,0.8-2.4,1.1-3.7,0.8l-1-0.2c-1.4-0.3-2.4-1.2-3-2.3
		c-1,0.8-2.3,1.2-3.7,1l-1-0.2c-1.4-0.2-2.5-1.1-3.1-2.2c-1,0.9-2.3,1.3-3.7,1.1l-1-0.1c-1.4-0.2-2.5-1-3.2-2.1
		c-0.9,0.9-2.3,1.4-3.6,1.2l-1-0.1c-1.4-0.2-2.6-0.9-3.3-2c-0.9,0.9-2.2,1.5-3.6,1.3l-1-0.1c-1.4-0.1-2.6-0.9-3.3-1.9
		c-0.9,1-2.1,1.5-3.6,1.4l-1-0.1c-1.4-0.1-2.6-0.8-3.4-1.8c-0.9,1-2.1,1.6-3.5,1.5h-1c-1.4,0-2.6-0.7-3.4-1.8
		c-0.8,1-2.1,1.6-3.5,1.6h-0.1h-1c-1.4,0-2.7-0.7-3.5-1.7c-0.8,1-2.1,1.7-3.5,1.7h-1c0,0,0,0-0.1,0c-1.4,0-2.6-0.6-3.4-1.6
		c-0.8,1-2,1.7-3.4,1.8h-1c-1.4,0.1-2.7-0.5-3.5-1.5c-0.8,1.1-2,1.8-3.4,1.9l-1,0.1c-1.4,0.1-2.7-0.5-3.6-1.4
		c-0.7,1.1-1.9,1.8-3.3,1.9l-1,0.1c-1.4,0.1-2.7-0.4-3.6-1.3c-0.7,1.1-1.9,1.9-3.3,2l-1,0.1c-1.4,0.2-2.7-0.3-3.6-1.2
		c-0.7,1.1-1.8,1.9-3.2,2.1l-1,0.1c-1.4,0.2-2.7-0.2-3.7-1.1c-0.6,1.1-1.7,2-3.1,2.2l-1,0.2c-1.4,0.3-2.7-0.1-3.7-1
		c-0.6,1.2-1.7,2-3,2.3l-1,0.2c-1.4,0.3-2.7,0-3.7-0.8c-0.5,1.2-1.6,2.1-2.9,2.5l-0.9,0.3c-1.3,0.4-2.7,0.1-3.8-0.7
		c-0.5,1.2-1.5,2.2-2.8,2.6l-0.9,0.3c-1.3,0.4-2.7,0.2-3.8-0.5c-0.4,1.2-1.4,2.2-2.7,2.7l-1,0.7c-1.3,0.5-2.7,0.3-3.8-0.3
		c-0.4,1.2-1.3,2.3-2.6,2.8l-0.9,0.4c-1.3,0.5-2.7,0.5-3.8-0.1c-0.3,1.2-1.1,2.3-2.4,3l-0.9,0.4c-1.2,0.6-2.6,0.6-3.8,0.1
		c-0.2,1.3-1,2.4-2.2,3.1l-0.8,0.5c-1.2,0.7-2.6,0.8-3.8,0.3c-0.2,1.3-0.9,2.5-2,3.2l-0.8,0.5c-1.1,0.8-2.5,0.9-3.7,0.6
		c-0.1,1.3-0.7,2.5-1.8,3.3l-0.8,0.6c-1.1,0.8-2.4,1.1-3.7,0.8c0,1.3-0.5,2.5-1.6,3.4l-0.7,0.6c-1,0.9-2.4,1.2-3.6,1.1
		c0.1,1.3-0.3,2.6-1.3,3.5l-0.7,0.7c-1,1-2.3,1.4-3.5,1.3c0.2,1.3-0.2,2.6-1.1,3.6l-0.6,0.7c-0.9,1-2.2,1.6-3.4,1.6l0,0
		c0.3,1.2,0,2.6-0.8,3.7c-0.2,0.3-0.4,0.5-0.6,0.8c-0.8,1.1-2,1.7-3.3,1.8c0.4,1.2,0.2,2.6-0.5,3.7l-0.5,0.8c-0.7,1.2-1.9,1.9-3.2,2
		c0.5,1.2,0.4,2.6-0.3,3.8c-0.2,0.3-0.3,0.6-0.5,0.8c-0.7,1.2-1.8,2-3,2.3c0.5,1.2,0.6,2.5,0,3.8c-0.1,0.3-0.3,0.6-0.4,0.9
		c-0.6,1.3-1.6,2.1-2.9,2.5c0.6,1.1,0.7,2.5,0.2,3.8l-0.3,0.9c-0.5,1.3-1.5,2.2-2.7,2.7c0.7,1.1,0.9,2.4,0.5,3.8l-0.3,0.9
		c-0.4,1.3-1.4,2.3-2.5,2.8c0.8,1,1.1,2.4,0.7,3.7l-0.2,0.9c-0.3,1.3-1.2,2.4-2.4,3c0.8,1,1.2,2.3,0.9,3.7l-0.2,1
		c-0.3,1.4-1.1,2.5-2.2,3.1c0.9,1,1.3,2.3,1.1,3.6l-0.1,1c-0.2,1.4-1,2.5-2.1,3.2c0.9,0.9,1.4,2.2,1.3,3.6l-0.1,0.9h-0.1
		c-0.3,1.3-1.1,2.4-2.2,3.1c1.2,0.9,1.9,2.3,1.9,3.8v1c0,1.4-0.7,2.6-1.7,3.4c1,0.8,1.6,2.1,1.6,3.5v1c0,1.4-0.6,2.7-1.6,3.5
		c1,0.8,1.7,2,1.8,3.4l0.1,1c0.1,1.4-0.5,2.7-1.4,3.5c1.1,0.7,1.8,1.9,1.9,3.3l0.1,1c0.1,1.4-0.4,2.7-1.3,3.6
		c1.1,0.7,1.9,1.8,2.1,3.2l0.1,1c0.2,1.5-0.3,2.9-1.3,3.8c1.3,0.6,2.2,1.8,2.5,3.3c0.1,0.8,0.4,2.5-1,4.1c-0.9,1-2.1,1.6-3.4,1.6
		c-2.4,0-4.4-1.9-4.5-4.3c-0.2-1.3,0.2-2.5,0.9-3.5c-0.1,0.1-0.2,0.2-0.2,0.3c-0.3-0.5-0.5-1-0.9-1.5c0.4,0.4,0.8,0.7,1.3,0.9
		c-0.1,0.1-0.1,0.1-0.2,0.2c0.1-0.1,0.2-0.2,0.3-0.4c-1.3-0.6-2.3-1.9-2.5-3.4l-0.1-1c-0.2-1.4,0.3-2.8,1.3-3.8
		c-1.1-0.7-2-1.9-2.1-3.4l-0.1-1c-0.1-1.4,0.4-2.8,1.4-3.7c-1.1-0.8-1.9-2-1.9-3.5l-0.1-1c-0.1-1.5,0.6-2.8,1.6-3.7
		c-1.1-0.8-1.8-2.1-1.8-3.5v-1c0-1.5,0.7-2.8,1.7-3.6c-1-0.9-1.7-2.2-1.6-3.6v-1c0.1-1.5,0.8-2.7,2-3.5c-1.3-0.9-2.1-2.3-2.1-4
		c0-1.9,1.1-3.5,2.7-4.3c-0.9-1-1.4-2.3-1.2-3.7l0.1-1c0.2-1.4,1.1-2.6,2.3-3.3c-0.9-1-1.4-2.4-1.1-3.8l0.2-1
		c0.3-1.4,1.2-2.6,2.4-3.2c-0.9-1.1-1.2-2.5-0.9-3.9l0.3-1c0.4-1.4,1.4-2.5,2.6-3c-0.8-1.1-1.1-2.6-0.7-4l0.3-1
		c0.4-1.4,1.5-2.4,2.8-2.9c-0.7-1.2-0.9-2.6-0.4-4l0.4-1c0.5-1.4,1.7-2.3,3-2.7c-0.7-1.2-0.8-2.7-0.2-4c0.1-0.3,0.3-0.6,0.4-1
		c0.6-1.3,1.8-2.2,3.1-2.5c-0.6-1.2-0.6-2.7,0.1-4c0.2-0.3,0.3-0.6,0.5-0.9c0.7-1.3,2-2.1,3.3-2.3c-0.5-1.3-0.4-2.8,0.4-4l0.6-0.9
		c0.8-1.2,2.1-2,3.5-2.1c-0.4-1.3-0.2-2.8,0.7-4c0.2-0.3,0.4-0.6,0.6-0.8c0.9-1.2,2.2-1.8,3.6-1.8l0,0c-0.3-1.3,0-2.8,1-3.9l0.7-0.8
		c1-1.1,2.4-1.6,3.7-1.5c-0.2-1.4,0.2-2.8,1.3-3.8l0.7-0.7c1-1,2.5-1.5,3.8-1.3c-0.1-1.4,0.4-2.8,1.5-3.7l0.8-0.7
		c1.1-1,2.6-1.3,3.9-1c0-1.4,0.6-2.7,1.8-3.6c0.3-0.2,0.6-0.4,0.8-0.6c1.2-0.9,2.6-1.1,3.9-0.7c0.1-1.4,0.8-2.7,2-3.5l0.9-0.6
		c1.2-0.8,2.7-0.9,4-0.5c0.2-1.3,1-2.6,2.2-3.3l0.9-0.5c1.3-0.7,2.8-0.7,4-0.2c0.3-1.3,1.1-2.5,2.4-3.2l0.9-0.5c1.3-0.6,2.8-0.6,4,0
		c0.3-1.3,1.2-2.5,2.6-3l0.9-0.4c1.3-0.6,2.8-0.4,4,0.2c0.4-1.3,1.4-2.4,2.7-2.9l1-0.4c1.4-0.5,2.8-0.3,4,0.4
		c0.5-1.3,1.5-2.3,2.9-2.8l1-0.3c1.4-0.4,2.8-0.2,3.9,0.6c0.5-1.2,1.6-2.2,3-2.6l1-0.3c1.4-0.4,2.8,0,3.9,0.8
		c0.6-1.2,1.7-2.2,3.1-2.5l1-0.2c1.4-0.3,2.8,0.1,3.9,0.9c0.6-1.2,1.7-2.1,3.2-2.4l1-0.2c1.4-0.3,2.8,0.2,3.8,1.1
		c0.7-1.2,1.8-2,3.2-2.3l1-0.2c1.4-0.2,2.8,0.3,3.8,1.2c0.7-1.1,1.9-2,3.3-2.2l1-0.1c1.4-0.2,2.8,0.4,3.7,1.3c0.7-1.1,1.9-1.9,3.4-2
		l1-0.1c1.4-0.1,2.8,0.4,3.7,1.4c0.8-1.1,2-1.9,3.4-2l1-0.1c1.4-0.1,2.8,0.5,3.6,1.5c0.8-1.1,2-1.8,3.5-1.9h1
		c1.4-0.1,2.7,0.6,3.6,1.6c0.8-1.1,2.1-1.8,3.5-1.8h1c1.5,0,2.7,0.6,3.6,1.7c0.8-1,2.1-1.7,3.5-1.7l0,0h1c1.4,0,2.7,0.7,3.5,1.8
		c0.9-1,2.1-1.7,3.6-1.6h1c1.4,0.1,2.7,0.8,3.5,1.9c0.9-1,2.2-1.6,3.6-1.5l1,0.1c1.4,0.1,2.7,0.8,3.4,1.9c0.9-1,2.2-1.5,3.7-1.4
		l1,0.1c1.4,0.1,2.7,0.9,3.4,2c0.9-1,2.3-1.5,3.7-1.3l1,0.1c1.4,0.2,2.6,1,3.3,2.1c1-0.9,2.3-1.4,3.8-1.2l1,0.1
		c1.4,0.2,2.6,1.1,3.3,2.2c1-0.9,2.4-1.3,3.8-1.1l1,0.2c1.4,0.3,2.6,1.2,3.2,2.4c1-0.9,2.4-1.3,3.8-1l1,0.2c1.4,0.3,2.5,1.3,3.1,2.5
		c1.1-0.8,2.5-1.2,3.9-0.8l1,0.3c1.4,0.4,2.5,1.4,3,2.6c1.1-0.8,2.5-1.1,3.9-0.6l1,0.3c1.4,0.4,2.4,1.5,2.9,2.7c1.1-0.7,2.6-1,4-0.5
		l1,0.3c1.4,0.5,2.3,1.6,2.8,2.9c1.2-0.7,2.6-0.8,4-0.3l1,0.4c1.3,0.6,2.3,1.7,2.6,3c1.2-0.6,2.7-0.7,4-0.1l0.9,0.4
		c1.3,0.6,2.2,1.8,2.5,3.2c1.2-0.6,2.7-0.5,4,0.2l0.9,0.5c1.3,0.7,2.1,2,2.3,3.3c1.3-0.5,2.7-0.4,4,0.4c0.3,0.2,0.6,0.4,0.9,0.6
		c1.2,0.8,1.9,2.1,2.1,3.4c1.3-0.4,2.8-0.2,4,0.7l0.8,0.6c1.2,0.9,1.8,2.2,1.8,3.6c1.3-0.3,2.8,0,3.9,0.9c0.3,0.2,0.5,0.4,0.8,0.7
		c1.1,0.9,1.7,2.3,1.6,3.7c1.3-0.2,2.8,0.2,3.8,1.2l0.8,0.7c1.1,1,1.5,2.4,1.3,3.8c1.4-0.1,2.8,0.4,3.8,1.5l0.7,0.8
		c1,1.1,1.3,2.5,1.1,3.9h0.1c1.3,0,2.7,0.6,3.5,1.7l0.6,0.8c0.9,1.2,1.1,2.6,0.8,3.9c1.4,0.1,2.7,0.8,3.5,2l0.6,0.9
		c0.8,1.2,1,2.7,0.5,4c1.4,0.2,2.6,0.9,3.4,2.2c0.2,0.3,0.4,0.6,0.5,0.9c0.7,1.3,0.8,2.8,0.2,4c1.3,0.3,2.6,1.1,3.2,2.4l0.5,0.9
		c0.6,1.3,0.6,2.8,0,4c1.3,0.3,2.5,1.3,3,2.6l0.4,0.9c0.6,1.4,0.4,2.8-0.3,4c1.3,0.4,2.4,1.4,2.9,2.8l0.3,1c0.5,1.4,0.2,2.8-0.6,4
		c0.5,0.2,0.9,0.5,1.3,0.8c0-0.1,0-0.2,0-0.3c0.3,0.3,0.6,0.7,1,0.9c-0.1,0.1-0.1,0.1-0.2,0.2c0.3,0.4,0.5,0.8,0.6,1.3l0.3,1
		c0.4,1.4,0,2.8-0.8,3.9c1.2,0.6,2.2,1.7,2.5,3.1l0.2,1c0.3,1.4-0.1,2.9-1,3.9c1.2,0.6,2.1,1.8,2.3,3.3l0.2,1
		c0.2,1.4-0.3,2.8-1.2,3.8c1.2,0.7,2,1.9,2.2,3.4l0.1,1c0.2,1.5-0.4,2.8-1.4,3.7c1.1,0.8,1.9,2,2,3.5l0.1,1c0.1,1.5-0.6,2.9-1.7,3.8
		c1.3,0.8,2.2,2.3,2.2,4c0,0.9-0.3,1.7-0.7,2.5c0,0.1-0.1,0.1-0.1,0.2l0,0c-0.3,0.5-0.7,1-1.2,1.4c1,0.9,1.7,2.2,1.7,3.6v1
		c-0.1,1.5-0.8,2.7-1.9,3.5c1,0.9,1.6,2.2,1.5,3.7l-0.1,1c-0.1,1.5-0.9,2.7-2,3.4c1,0.9,1.5,2.3,1.3,3.8l-0.1,1
		c-0.2,1.5-1,2.7-2.2,3.3c0.9,1,1.4,2.4,1.2,3.8v0.1c0,0.6-0.2,1.2-0.5,1.8c-0.8,1.5-2.3,2.3-4,2.3c-0.5,0-1-0.1-1.5-0.2
		c-0.6-0.2-3.6-1.4-2.9-5.5c0.2-1.4,1.1-2.5,2.2-3.2c-0.9-0.9-1.4-2.2-1.2-3.6l0.1-1c0.2-1.4,0.9-2.5,2-3.2
		c-0.9-0.9-1.5-2.2-1.3-3.6l0.1-1c0.1-1.2,0.6-2.2,1.5-3c0-0.3,0-0.5,0-0.8c-0.7-0.8-1.1-1.9-1.1-3.1v-1c0-1,0.4-1.9,0.9-2.6
		c0-0.7,0-1.3,0-1.8c-0.1-0.1-0.1-0.2-0.2-0.3c-0.6-0.8-0.9-1.8-0.9-2.8c0-1.4,0.7-2.7,1.7-3.6c0-0.1,0-0.3,0-0.4
		c-1-0.8-1.6-1.9-1.7-3.2l-0.1-1c-0.1-1.4,0.5-2.7,1.4-3.6c-1.1-0.7-1.8-1.9-2-3.3l-0.1-1c-0.1-1.4,0.3-2.7,1.2-3.6
		c-1.1-0.7-1.9-1.8-2.1-3.2l-0.2-1c-0.2-1.4,0.2-2.7,1-3.7c-1.1-0.6-2-1.7-2.3-3l-0.2-1c-0.3-1.4,0.1-2.7,0.8-3.7
		c-1.2-0.5-2.1-1.6-2.5-2.9l-0.3-0.9c-0.4-1.3-0.1-2.7,0.6-3.7c-1.2-0.5-2.2-1.4-2.6-2.8l-0.3-0.9c-0.4-1.3-0.3-2.7,0.4-3.8
		c-1.2-0.4-2.2-1.3-2.8-2.6l-0.4-0.9c-0.5-1.3-0.4-2.6,0.2-3.8c-1.2-0.3-2.3-1.2-2.9-2.4L367.8,144.2z M402.7,260
		c-0.3,0.2-31.2,19.5-28.8,45c0.1,1.4-0.9,2.6-2.3,2.7c-0.1,0-0.2,0-0.2,0c-1.3,0-2.4-1-2.5-2.3c-1.1-11.9,4-24.3,14.7-35.8
		c8-8.6,16.2-13.6,16.5-13.8c1.2-0.7,2.7-0.4,3.4,0.8C404.3,257.8,403.9,259.3,402.7,260z"/>
	<path class="st1" d="M150.8,249c0-1.7,0.6-3.2,1.6-4.5c-5.4,1.1-12.5,3-19.3,5.1c5.1,0.7,9.6,2,13.7,3.2c2.4,0.7,4.6,1.3,6.6,1.7
		C151.8,253.2,150.8,251.2,150.8,249z"/>
	<path class="st1" d="M302.3,249.6c-6.8-2-13.9-4-19.3-5.1c1,1.2,1.6,2.8,1.6,4.5c0,2.2-1,4.2-2.6,5.5c2-0.4,4.3-1.1,6.6-1.7
		C292.7,251.6,297.2,250.3,302.3,249.6z"/>
	<path class="st1" d="M163.6,244.4c1.1,1.3,1.7,2.9,1.7,4.6c0,1.8-0.6,3.4-1.7,4.6c0.2-0.1,0.5-0.2,0.7-0.3c4.1-1.5,5.7-1.7,13.5,1
		C174.3,250.5,169.3,246,163.6,244.4z"/>
	<path d="M371.1,147.5c-0.6,1.1-0.7,2.5-0.2,3.8l0.4,0.9c0.5,1.3,1.6,2.2,2.8,2.6c-0.7,1.1-0.8,2.5-0.4,3.8l0.3,0.9
		c0.4,1.3,1.4,2.3,2.6,2.8c-0.7,1.1-1,2.4-0.6,3.7l0.3,0.9c0.4,1.3,1.3,2.4,2.5,2.9c-0.8,1-1.1,2.4-0.8,3.7l0.2,1
		c0.3,1.4,1.2,2.4,2.3,3c-0.8,1-1.3,2.3-1,3.7l0.2,1c0.2,1.4,1,2.5,2.1,3.2c-0.9,0.9-1.4,2.2-1.2,3.6l0.1,1c0.1,1.4,0.9,2.6,2,3.3
		c-0.9,0.9-1.5,2.2-1.4,3.6l0.1,1c0.1,1.3,0.7,2.5,1.7,3.2c0.1,0.1,0.2,0.1,0.3,0.2c-0.1,0.1-0.2,0.2-0.3,0.3
		c-1,0.9-1.7,2.2-1.7,3.6c0,1.1,0.4,2,0.9,2.8c0.1,0.1,0.1,0.2,0.2,0.3c0.2,0.3,0.5,0.7,0.8,0.9c-0.3,0.2-0.6,0.5-0.8,0.9
		c-0.5,0.7-0.9,1.6-0.9,2.6v1c0,1.2,0.4,2.2,1.1,3.1c0.1,0.2,0.3,0.3,0.4,0.5c-0.1,0.1-0.3,0.2-0.4,0.3c-0.8,0.7-1.4,1.8-1.5,3
		l-0.1,1c-0.1,1.4,0.4,2.7,1.3,3.6c-1.1,0.7-1.9,1.9-2,3.2l-0.1,1c-0.2,1.4,0.3,2.7,1.2,3.6c-1.1,0.6-2,1.8-2.2,3.2
		c-0.7,4,2.3,5.3,2.9,5.5c0.5,0.2,1,0.2,1.5,0.2c1.6,0,3.1-0.9,4-2.3c0.3-0.6,0.5-1.2,0.5-1.8v-0.1c0.2-1.4-0.2-2.8-1.2-3.8
		c1.2-0.7,2-1.9,2.2-3.3l0.1-1c0.2-1.5-0.4-2.8-1.3-3.8c1.1-0.7,1.9-2,2-3.4l0.1-1c0.1-1.4-0.5-2.8-1.5-3.7c1.1-0.8,1.8-2.1,1.9-3.5
		v-1c0-1.5-0.6-2.8-1.7-3.6c0.5-0.4,0.9-0.8,1.2-1.4l0,0c0-0.1,0.1-0.1,0.1-0.2c0.4-0.7,0.7-1.6,0.7-2.5c0-1.7-0.9-3.2-2.2-4
		c1.1-0.9,1.8-2.3,1.7-3.8l-0.1-1c-0.1-1.5-0.9-2.7-2-3.5c1-0.9,1.5-2.3,1.4-3.7l-0.1-1c-0.2-1.5-1-2.7-2.2-3.4
		c0.9-1,1.4-2.4,1.2-3.8l-0.2-1c-0.2-1.4-1.1-2.6-2.3-3.3c0.9-1,1.3-2.4,1-3.9l-0.2-1c-0.3-1.4-1.3-2.6-2.5-3.1
		c0.8-1.1,1.2-2.5,0.8-3.9l-0.3-1c-0.1-0.5-0.3-0.9-0.6-1.3c-0.2-0.3-0.5-0.6-0.8-0.9c-0.4-0.3-0.8-0.6-1.3-0.8c0.8-1.1,1-2.6,0.6-4
		l-0.3-1c-0.5-1.4-1.6-2.4-2.9-2.8c0.7-1.2,0.9-2.6,0.3-4l-0.4-0.9c-0.6-1.4-1.7-2.3-3-2.6c0.6-1.2,0.7-2.7,0-4l-0.5-0.9
		c-0.7-1.3-1.9-2.2-3.2-2.4c0.5-1.3,0.5-2.7-0.2-4c-0.2-0.3-0.3-0.6-0.5-0.9c-0.7-1.3-2-2-3.4-2.2c0.5-1.3,0.3-2.8-0.5-4l-0.6-0.9
		c-0.8-1.2-2.1-1.9-3.5-2c0.4-1.3,0.1-2.8-0.8-3.9l-0.6-0.8c-0.9-1.1-2.2-1.7-3.5-1.7H359c0.3-1.3-0.1-2.8-1.1-3.9l-0.7-0.8
		c-1-1.1-2.4-1.6-3.8-1.5c0.2-1.4-0.3-2.8-1.3-3.8l-0.8-0.7c-1.1-1-2.5-1.4-3.8-1.2c0.1-1.4-0.5-2.7-1.6-3.7
		c-0.3-0.2-0.5-0.5-0.8-0.7c-1.1-0.9-2.6-1.2-3.9-0.9c0-1.4-0.7-2.7-1.8-3.6l-0.8-0.6c-1.2-0.9-2.7-1.1-4-0.7
		c-0.1-1.4-0.8-2.6-2.1-3.4c-0.3-0.2-0.6-0.4-0.9-0.6c-1.2-0.8-2.7-0.9-4-0.4c-0.2-1.3-1-2.6-2.3-3.3l-0.9-0.5
		c-1.3-0.7-2.8-0.7-4-0.2c-0.3-1.3-1.1-2.5-2.5-3.2L317,84c-1.3-0.6-2.8-0.6-4,0.1c-0.3-1.3-1.3-2.4-2.6-3l-1-0.4
		c-1.3-0.6-2.8-0.4-4,0.3c-0.4-1.3-1.4-2.4-2.8-2.9l-1-0.3c-1.4-0.5-2.8-0.3-4,0.5c-0.5-1.3-1.5-2.3-2.9-2.7l-1-0.3
		c-1.4-0.4-2.8-0.1-3.9,0.6c-0.5-1.2-1.6-2.2-3-2.6l-1-0.3c-1.4-0.4-2.8,0-3.9,0.8c-0.6-1.2-1.7-2.2-3.1-2.5l-1-0.2
		c-1.4-0.3-2.8,0.1-3.8,1c-0.6-1.2-1.8-2.1-3.2-2.4l-1-0.2c-1.4-0.3-2.8,0.2-3.8,1.1c-0.7-1.2-1.8-2-3.3-2.2l-1-0.1
		c-1.4-0.2-2.8,0.3-3.8,1.2c-0.7-1.1-1.9-2-3.3-2.1l-1-0.1c-1.4-0.2-2.8,0.4-3.7,1.3c-0.7-1.1-1.9-1.9-3.4-2l-1-0.1
		c-1.4-0.1-2.8,0.5-3.7,1.4c-0.8-1.1-2-1.9-3.4-1.9l-1-0.1c-1.4-0.1-2.8,0.5-3.6,1.5c-0.8-1.1-2-1.8-3.5-1.9h-1
		c-1.5,0-2.7,0.6-3.6,1.6c-0.8-1.1-2.1-1.7-3.5-1.8h-1l0,0c-1.4,0-2.7,0.7-3.5,1.7c-0.8-1-2.1-1.7-3.6-1.7h-1
		c-1.4,0-2.7,0.7-3.5,1.8c-0.9-1-2.2-1.7-3.6-1.6h-1c-1.4,0.1-2.7,0.8-3.5,1.9c-0.9-1-2.2-1.6-3.6-1.5l-1,0.1
		c-1.4,0.1-2.7,0.8-3.4,2c-0.9-1-2.2-1.5-3.7-1.4l-1,0.1c-1.4,0.1-2.7,0.9-3.4,2c-0.9-1-2.3-1.5-3.7-1.3l-1,0.1
		c-1.4,0.2-2.6,1-3.3,2.2c-1-0.9-2.3-1.4-3.8-1.2l-1,0.2c-1.4,0.2-2.6,1.1-3.2,2.3c-1-0.9-2.4-1.3-3.8-1.1l-1,0.2
		c-1.4,0.3-2.6,1.2-3.2,2.4c-1-0.9-2.4-1.2-3.9-0.9l-1,0.2c-1.4,0.3-2.5,1.3-3.1,2.5c-1.1-0.8-2.5-1.1-3.9-0.8l-1,0.3
		c-1.4,0.4-2.5,1.4-3,2.6c-1.1-0.8-2.5-1-3.9-0.6l-1,0.3c-1.4,0.4-2.4,1.5-2.9,2.8c-1.1-0.7-2.6-0.9-4-0.4l-1,0.4
		c-1.4,0.5-2.3,1.6-2.7,2.9c-1.2-0.7-2.6-0.8-4-0.2l-0.9,0.4c-1.3,0.6-2.3,1.7-2.6,3c-1.2-0.6-2.7-0.7-4,0l-0.9,0.5
		c-1.3,0.7-2.2,1.9-2.4,3.2c-1.2-0.5-2.7-0.5-4,0.2l-0.9,0.5c-1.3,0.7-2.1,2-2.2,3.3c-1.3-0.5-2.8-0.3-4,0.5l-0.9,0.6
		c-1.2,0.8-1.9,2.1-2,3.5c-1.3-0.4-2.8-0.2-3.9,0.7c-0.3,0.2-0.6,0.4-0.8,0.6c-1.2,0.9-1.8,2.2-1.8,3.6c-1.3-0.3-2.8,0-3.9,1
		l-0.8,0.7c-1.1,1-1.6,2.4-1.5,3.7c-1.4-0.2-2.8,0.2-3.8,1.3l-0.7,0.7c-1,1-1.5,2.5-1.3,3.8c-1.4-0.1-2.8,0.4-3.7,1.5l-0.7,0.8
		c-1,1.1-1.3,2.6-1,3.9l0,0c-1.4,0-2.7,0.6-3.6,1.8c-0.2,0.3-0.4,0.6-0.6,0.8c-0.9,1.2-1.1,2.7-0.7,4c-1.4,0.1-2.7,0.8-3.5,2.1
		l-0.6,0.9c-0.8,1.2-0.9,2.7-0.4,4c-1.4,0.2-2.6,1-3.3,2.3c-0.2,0.3-0.3,0.6-0.5,0.9c-0.7,1.3-0.7,2.8-0.1,4
		c-1.3,0.3-2.5,1.2-3.1,2.5c-0.1,0.3-0.3,0.6-0.4,1c-0.6,1.3-0.5,2.8,0.2,4c-1.3,0.4-2.4,1.3-3,2.7l-0.4,1c-0.5,1.4-0.3,2.8,0.4,4
		c-1.3,0.5-2.4,1.5-2.8,2.9l-0.3,1c-0.4,1.4-0.1,2.9,0.7,4c-1.3,0.5-2.2,1.6-2.6,3l-0.3,1c-0.3,1.4,0,2.9,0.9,3.9
		c-1.2,0.6-2.2,1.7-2.4,3.2l-0.2,1c-0.3,1.4,0.2,2.8,1.1,3.8c-1.2,0.7-2.1,1.9-2.3,3.3l-0.1,1c-0.2,1.4,0.3,2.7,1.2,3.7
		c-1.6,0.8-2.7,2.4-2.7,4.3c0,1.7,0.9,3.1,2.1,4c-1.1,0.8-1.9,2-2,3.5v1c-0.1,1.5,0.6,2.8,1.6,3.6c-1.1,0.8-1.8,2.1-1.7,3.6v1
		c0,1.5,0.7,2.7,1.8,3.5c-1,0.9-1.7,2.2-1.6,3.7l0.1,1c0.1,1.5,0.8,2.7,1.9,3.5c-1,0.9-1.6,2.3-1.4,3.7l0.1,1c0.1,1.4,1,2.7,2.1,3.4
		c-1,1-1.5,2.3-1.3,3.8l0.1,1c0.2,1.5,1.2,2.8,2.5,3.4c-0.1,0.1-0.2,0.2-0.3,0.4c0,0,0,0,0,0.1c-0.8,0.9-1.1,2.2-0.9,3.5
		c0.1,2.4,2.1,4.3,4.5,4.3c1.3,0,2.6-0.6,3.4-1.6c1.4-1.6,1.1-3.4,1-4.1c-0.2-1.5-1.2-2.7-2.5-3.3c1-1,1.5-2.4,1.3-3.8l-0.1-1
		c-0.2-1.4-1-2.5-2.1-3.2c0.9-0.9,1.4-2.2,1.3-3.6l-0.1-1c-0.1-1.4-0.9-2.6-1.9-3.3c0.9-0.9,1.5-2.2,1.4-3.5l-0.1-1
		c-0.1-1.4-0.8-2.6-1.8-3.4c1-0.8,1.6-2.1,1.6-3.5v-1c0-1.4-0.6-2.6-1.6-3.5c1-0.8,1.7-2,1.7-3.4v-1c0.1-1.6-0.7-3-1.9-3.8
		c1.1-0.7,1.9-1.8,2.2-3.1h0.1l0.1-0.9c0.1-1.4-0.4-2.7-1.3-3.6c1.1-0.7,1.9-1.8,2.1-3.2l0.1-1c0.2-1.4-0.3-2.7-1.1-3.6
		c1.1-0.6,2-1.7,2.2-3.1l0.2-1c0.3-1.4-0.1-2.7-0.9-3.7c1.2-0.6,2.1-1.6,2.4-3l0.2-0.9c0.3-1.3,0-2.7-0.7-3.7
		c1.2-0.5,2.1-1.5,2.5-2.8l0.3-0.9c0.4-1.3,0.2-2.7-0.5-3.8c1.2-0.4,2.2-1.4,2.7-2.7l0.3-0.9c0.5-1.3,0.4-2.7-0.2-3.8
		c1.2-0.3,2.3-1.2,2.9-2.5c0.1-0.3,0.3-0.6,0.4-0.9c0.6-1.2,0.5-2.6,0-3.8c1.2-0.3,2.4-1.1,3-2.3c0.1-0.3,0.3-0.6,0.5-0.8
		c0.7-1.2,0.7-2.6,0.3-3.8c1.3-0.2,2.4-0.9,3.2-2l0.5-0.8c0.7-1.2,0.9-2.5,0.5-3.7c1.3-0.1,2.5-0.7,3.3-1.8c0.2-0.3,0.4-0.5,0.6-0.8
		c0.8-1.1,1.1-2.4,0.8-3.7l0,0c1.3,0,2.5-0.5,3.4-1.6l0.6-0.7c0.9-1,1.2-2.4,1.1-3.6c1.3,0.1,2.6-0.3,3.5-1.3l0.7-0.7
		c1-1,1.4-2.3,1.3-3.5c1.3,0.2,2.6-0.2,3.6-1.1l0.7-0.6c1-0.9,1.6-2.2,1.6-3.4c1.2,0.3,2.6,0,3.7-0.8l0.8-0.6
		c1.1-0.8,1.7-2.1,1.8-3.3c1.2,0.4,2.6,0.2,3.7-0.6l0.8-0.5c1.2-0.7,1.9-1.9,2-3.2c1.2,0.4,2.6,0.4,3.8-0.3l0.8-0.5
		c1.2-0.7,2-1.8,2.2-3.1c1.2,0.5,2.6,0.5,3.8-0.1l0.9-0.4c1.2-0.6,2.1-1.7,2.4-3c1.1,0.6,2.5,0.7,3.8,0.1l0.9-0.4
		c1.3-0.5,2.2-1.6,2.6-2.8c1.1,0.6,2.5,0.8,3.8,0.3l0.9-0.3c1.3-0.5,2.3-1.5,2.7-2.7c1.1,0.7,2.5,0.9,3.8,0.5l0.9-0.3
		c1.3-0.4,2.3-1.4,2.8-2.6c1.1,0.7,2.4,1,3.8,0.7l0.9-0.3c1.3-0.4,2.4-1.3,2.9-2.5c1,0.8,2.4,1.1,3.7,0.8l1-0.2
		c1.4-0.3,2.4-1.2,3-2.3c1,0.8,2.3,1.2,3.7,1l1-0.2c1.4-0.3,2.5-1.1,3.1-2.2c1,0.9,2.3,1.3,3.7,1.1l1-0.1c1.4-0.2,2.5-1,3.2-2.1
		c0.9,0.9,2.3,1.4,3.6,1.2l1-0.1c1.4-0.2,2.6-0.9,3.3-2c0.9,0.9,2.2,1.5,3.6,1.3l1-0.1c1.4-0.1,2.6-0.9,3.3-1.9
		c0.9,1,2.2,1.5,3.6,1.4l1-0.1c1.4-0.1,2.6-0.8,3.4-1.9c0.9,1,2.2,1.6,3.5,1.5h1c1.4,0,2.6-0.7,3.4-1.8c0.8,1,2.1,1.6,3.4,1.6
		c0,0,0,0,0.1,0h1c1.4,0,2.7-0.7,3.5-1.7c0.8,1,2.1,1.7,3.5,1.7h1h0.1c1.4,0,2.6-0.6,3.5-1.6c0.8,1,2,1.7,3.4,1.8h1
		c1.4,0,2.7-0.6,3.5-1.5c0.8,1.1,2,1.8,3.4,1.8l1,0.1c1.4,0.1,2.7-0.5,3.6-1.4c0.7,1.1,1.9,1.8,3.3,1.9l1,0.1
		c1.4,0.1,2.7-0.4,3.6-1.3c0.7,1.1,1.9,1.9,3.3,2l1,0.1c1.4,0.2,2.7-0.3,3.6-1.2c0.7,1.1,1.8,1.9,3.2,2.1l1,0.1
		c1.4,0.2,2.7-0.2,3.7-1.1c0.6,1.1,1.8,2,3.1,2.2l1,0.2c1.4,0.3,2.7-0.1,3.7-1c0.6,1.1,1.7,2,3,2.3l1,0.2c1.4,0.3,2.7,0,3.7-0.8
		c0.5,1.2,1.6,2.1,2.9,2.4l1,0.2c1.3,0.4,2.7,0.1,3.8-0.7c0.5,1.2,1.5,2.2,2.8,2.6l0.9,0.3c1.3,0.4,2.7,0.2,3.8-0.5
		c0.4,1.2,1.4,2.2,2.7,2.7l0.9,0.3c1.3,0.5,2.7,0.3,3.8-0.3c0.4,1.2,1.3,2.3,2.6,2.8l0.9,0.4c1.3,0.5,2.7,0.4,3.8-0.1
		c0.3,1.2,1.2,2.3,2.4,2.9l0.9,0.4c1.2,0.6,2.6,0.6,3.8,0.1c0.3,1.3,1,2.4,2.2,3.1l0.8,0.5c1.2,0.7,2.6,0.7,3.8,0.3
		c0.2,1.3,0.9,2.4,2.1,3.2l0.8,0.5c1.2,0.7,2.5,0.9,3.8,0.5c0.1,1.3,0.7,2.5,1.8,3.3l0.8,0.6c1.1,0.8,2.5,1,3.7,0.8
		c0,1.3,0.6,2.5,1.6,3.4l0.7,0.6c1,0.9,2.4,1.2,3.6,1c-0.1,1.3,0.4,2.6,1.4,3.5l0.7,0.7c1,1,2.3,1.4,3.6,1.2
		c-0.2,1.3,0.2,2.6,1.1,3.6l0.6,0.7c0.9,1,2.2,1.5,3.5,1.5c-0.2,1.2,0,2.6,0.9,3.7l0.6,0.8c0.8,1.1,2.1,1.7,3.3,1.7
		c-0.3,1.2-0.2,2.6,0.6,3.7l0.5,0.8c0.8,1.1,2,1.8,3.2,2c-0.4,1.2-0.3,2.6,0.4,3.8c0.2,0.3,0.3,0.6,0.5,0.8c0.7,1.2,1.8,2,3.1,2.2
		c-0.5,1.2-0.5,2.5,0.1,3.8l0.4,0.9C368.8,146.3,369.9,147.2,371.1,147.5z"/>
	<path d="M260,305.2c-1.3,0.4-2,1.8-1.6,3.1c0.8,2.6,0.6,5.4-0.7,7.8c-1.3,2.4-3.4,4.2-6,5.1c-5.4,1.7-11.1-1.3-12.8-6.5
		c-0.2-1.2-1.2-2-2.5-2s-2.4,1-2.5,2.3l0,0v0.1c0,5.6-7.4,10.3-16.2,10.3c-8.6,0-15.8-4.5-16.1-9.9c0-0.4,0-0.8-0.2-1.2
		c-0.3-1-1.3-1.7-2.3-1.7c-1.3,0-2.3,1-2.5,2.2c-1.8,5.2-7.5,8-12.8,6.4c-2.6-0.8-4.8-2.6-6-5.1c-1.3-2.4-1.5-5.2-0.7-7.8
		c0.4-1.3-0.3-2.7-1.6-3.1s-2.7,0.3-3.1,1.6c-1.2,3.9-0.9,8,1,11.7s5.1,6.3,9,7.5c1.5,0.5,3.1,0.7,4.6,0.7c2.4,0,4.8-0.6,7.1-1.7
		c1.7-0.9,3.2-2.1,4.4-3.5c3.3,5.3,10.6,9,19.3,9s16.1-3.6,19.3-9c1.2,1.4,2.7,2.6,4.5,3.5c2.2,1.2,4.6,1.7,7.1,1.7
		c1.5,0,3.1-0.2,4.6-0.7c3.9-1.2,7.1-3.9,9-7.5s2.3-7.8,1-11.7C262.7,305.6,261.3,304.8,260,305.2z"/>
	<path d="M240.4,412.7c-0.6,0-1.1,0.2-1.5,0.5c-4.8,1.1-37.6,1.1-42.4,0c-0.4-0.3-0.9-0.5-1.5-0.5c-1.4,0-2.5,1.1-2.5,2.5
		c0,3,3.4,3.2,9.5,3.5c4.2,0.2,9.7,0.3,15.7,0.3s11.6-0.1,15.7-0.3c6.1-0.3,9.5-0.5,9.5-3.5C242.9,413.8,241.7,412.7,240.4,412.7z"
		/>
	<path d="M151.6,399c-11.8-19.8-17.9-34.4-17.5-42.2c0.6-12.9,25.2-44,34.7-54.9c0.9-1,0.8-2.6-0.3-3.5c-1-0.9-2.6-0.8-3.5,0.3
		c-1.1,1.3-20.8,24.1-30.5,42.6C106,339.8,96,321.8,95.6,321c-0.6-1.2-2.2-1.7-3.4-1c-1.2,0.6-1.7,2.2-1,3.4
		c0.3,0.5,3.9,7.1,12.5,13.1c2.7,15,24,56.6,35.6,79.2c3.2,6.1,5.9,11.5,6.3,12.6c0.2,1,1.1,1.8,2.2,1.9c0.1,0,0.1,0,0.2,0
		c1.3,0,2.4-1,2.5-2.3c0.1-1.1,0.1-1.1-6.8-14.6c-9.7-18.9-28.8-56.1-34-73.3c5.8,2.9,13.2,5.3,22.4,6.1c-1.7,4-2.9,7.6-3,10.5
		c-0.4,8.9,5.7,24,18.3,45c9.2,15.4,18.6,28.5,18.7,28.6c0.5,0.7,1.3,1,2,1c0.5,0,1-0.2,1.5-0.5c1.1-0.8,1.4-2.4,0.6-3.5
		C170,427.2,160.7,414.3,151.6,399z"/>
	<path d="M343.2,320c-1.2-0.6-2.7-0.2-3.4,1c-0.4,0.8-10.4,18.7-38.9,20.3c-9.7-18.5-29.4-41.3-30.5-42.6c-0.9-1-2.5-1.2-3.5-0.3
		c-1,0.9-1.2,2.5-0.3,3.5c9.4,10.9,34.1,42,34.7,54.9c0.3,7.8-5.7,22.3-17.5,42.2c-9.1,15.2-18.4,28.2-18.5,28.3
		c-0.8,1.1-0.6,2.7,0.6,3.5c0.4,0.3,1,0.5,1.5,0.5c0.8,0,1.5-0.4,2-1c0.1-0.1,9.5-13.2,18.7-28.6c12.5-21,18.6-36.1,18.3-45
		c-0.1-3-1.3-6.6-3-10.5c9.2-0.7,16.6-3.1,22.4-6.1c-5.2,17.2-24.3,54.3-34,73.3c-6.9,13.5-6.9,13.5-6.8,14.6
		c0.1,1.3,1.2,2.3,2.5,2.3c0.1,0,0.1,0,0.2,0c1.1-0.1,2-0.9,2.2-1.9c0.4-1.1,3.2-6.5,6.3-12.6c11.6-22.6,32.9-64.1,35.6-79.2
		c8.7-6,12.3-12.6,12.5-13.1C344.9,322.1,344.5,320.6,343.2,320z"/>
	<path class="st1" d="M234.5,358.5c-2.3,0.2-8,2.1-11.8,3.4h-10.1c-3.8-1.3-9.5-3.3-11.8-3.4c-6.2-0.4-19.1,1-29.8,2.4
		c12.7,2.1,27.7,5.8,30.2,6.4h0.1c0,0,12.5,3.8,16.4,4.9c3.9-1.2,16.4-4.9,16.4-4.9h0.1c2.5-0.6,17.4-4.2,30.2-6.4
		C253.7,359.5,240.7,358,234.5,358.5z"/>
	<path class="st1" d="M218.4,377.2c-0.2,0.1-0.5,0.1-0.7,0.1s-0.5,0-0.7-0.1c-2.6-0.8-16-4.8-17-5.1c-8.8-2.1-30.5-7-40.7-7.7
		c7.1,7.7,28.1,24.6,58.5,24.6s51.4-16.9,58.5-24.6c-10.3,0.7-32,5.6-40.7,7.7C234.4,372.4,221,376.4,218.4,377.2z"/>
	<path d="M234.2,353.5c-2.9,0.2-8.3,2-14,4c-1,0.3-1.9,0.7-2.5,0.9c-0.7-0.2-1.6-0.5-2.5-0.9c-5.7-2-11-3.8-14-4
		c-9.9-0.7-35,2.9-45.3,4.5c-1.5,0.2-2.7,1.2-3.3,2.6c-0.1,0.2-0.2,0.5-0.2,0.8v0.1c-0.2,1.1,0,2.3,0.7,3.3
		c4.2,6.2,27.7,29.3,64.7,29.3s60.4-23.1,64.7-29.3c0.7-1,0.9-2.2,0.7-3.3v-0.1c-0.1-0.3-0.1-0.5-0.2-0.8c-0.6-1.4-1.8-2.3-3.3-2.6
		l0,0C269.2,356.4,244.1,352.8,234.2,353.5z M217.7,388.9c-30.4,0-51.4-16.9-58.5-24.6c10.3,0.7,32,5.6,40.7,7.7
		c1,0.3,14.5,4.4,17,5.1c0.2,0.1,0.5,0.1,0.7,0.1s0.5,0,0.7-0.1c2.6-0.8,16-4.8,17-5.1c8.8-2.1,30.5-7,40.7-7.7
		C269.1,372,248.1,388.9,217.7,388.9z M234.2,367.2h-0.1c0,0-12.5,3.8-16.4,4.9c-3.9-1.2-16.4-4.9-16.4-4.9h-0.1
		c-2.5-0.6-17.4-4.2-30.2-6.4c10.7-1.4,23.6-2.8,29.8-2.4c2.3,0.2,8,2.1,11.8,3.4h10.1c3.8-1.3,9.5-3.3,11.8-3.4
		c6.2-0.4,19.1,1,29.8,2.4C251.6,363,236.7,366.6,234.2,367.2z"/>
	<path d="M180.8,276.1c0.5,0.5,1.1,0.7,1.8,0.7s1.3-0.2,1.8-0.7c5.7-5.7,5.9-14.8,0.6-20.7c-4.1-5.5-13.8-16.7-26.1-16.7
		c-4.5,0-14.2,2.2-28.8,6.7c-6.3,1.9-11.7,3.7-14.4,4.6c-7.2,2.4-7.2,2.4-7.7,3.5c-0.4,0.9-0.2,2,0.4,2.7c1.1,1.2,2.2,0.9,4.4,0.2
		c13.3-4.3,24-1.2,32.6,1.3c6.1,1.8,11.4,3.3,16.3,1.9c1.9-0.5,3.2-1,4.3-1.4c3.4-1.3,3.7-1.4,14.6,2.7c0.7,0.3,1.4,0.4,2.1,0.4
		c0.1,0,0.1,0,0.2,0c1.7,3.7,1,8.3-2,11.4C179.8,273.5,179.8,275.1,180.8,276.1z M146.8,252.8c-4.1-1.2-8.6-2.5-13.7-3.2
		c6.8-2,13.9-4,19.3-5.1c-1,1.2-1.6,2.8-1.6,4.5c0,2.2,1,4.2,2.6,5.5C151.4,254.1,149.1,253.5,146.8,252.8z M164.2,253.4
		c-0.2,0.1-0.5,0.2-0.7,0.3c1.1-1.3,1.7-2.9,1.7-4.6c0-1.8-0.6-3.4-1.7-4.6c5.8,1.7,10.8,6.2,14.2,10
		C170,251.6,168.4,251.8,164.2,253.4z"/>
	<path d="M269.4,258.1c1.1,0.4,2.4,0.9,4.3,1.4c4.9,1.4,10.2-0.2,16.3-1.9c8.6-2.5,19.3-5.6,32.6-1.3c2.3,0.7,3.3,1.1,4.4-0.2
		c0.7-0.7,0.8-1.8,0.4-2.7c-0.5-1.1-0.5-1.1-7.7-3.5c-2.7-0.9-8.1-2.7-14.4-4.6c-14.6-4.4-24.3-6.7-28.8-6.7
		c-12.3,0-22,11.2-26.1,16.7c-2.5,2.8-3.8,6.3-3.8,10c0,4,1.6,7.8,4.4,10.7c0.5,0.5,1.1,0.7,1.8,0.7s1.3-0.2,1.8-0.7
		c1-1,1-2.6,0-3.5c-1.9-1.9-3-4.5-3-7.2c0-1.5,0.3-2.9,0.9-4.2c0.1,0,0.1,0,0.2,0c0.7,0,1.3-0.1,2.1-0.4
		C265.7,256.7,266.1,256.8,269.4,258.1z M284.6,249c0-1.7-0.6-3.2-1.6-4.5c5.4,1.1,12.5,3,19.3,5.1c-5.1,0.7-9.6,2-13.7,3.2
		c-2.4,0.7-4.6,1.3-6.6,1.7C283.6,253.2,284.6,251.2,284.6,249z M271.8,244.4c-1.1,1.3-1.7,2.9-1.7,4.6c0,1.8,0.6,3.4,1.7,4.6
		c-0.2-0.1-0.5-0.2-0.7-0.3c-1.9-0.7-3.2-1.1-4.9-1.1c-2,0-4.4,0.6-8.7,2.1C261.1,250.5,266.1,246,271.8,244.4z"/>
	<path d="M35.3,255.8c-1.2-0.7-2.7-0.4-3.4,0.8c-0.7,1.2-0.4,2.7,0.8,3.4c0.3,0.2,31.2,19.5,28.8,45c-0.1,1.4,0.9,2.6,2.3,2.7
		c0.1,0,0.2,0,0.2,0c1.3,0,2.4-1,2.5-2.3c1.1-11.9-4-24.3-14.7-35.8C43.8,261,35.6,256,35.3,255.8z"/>
	<path d="M400.1,255.8c-0.3,0.2-8.5,5.3-16.5,13.8c-10.7,11.6-15.8,23.9-14.7,35.8c0.1,1.3,1.2,2.3,2.5,2.3c0.1,0,0.2,0,0.2,0
		c1.4-0.1,2.4-1.3,2.3-2.7c-2.4-25.4,28.5-44.8,28.8-45c1.2-0.7,1.5-2.3,0.8-3.4C402.8,255.4,401.3,255,400.1,255.8z"/>
	<path d="M217.7,147.6c25.9,0,45.6-7.7,52.8-20.5c0.7-1.2,0.2-2.7-1-3.4s-2.7-0.2-3.4,1c-6.3,11.2-24.4,18-48.4,18
		s-42.1-6.7-48.4-18c-0.7-1.2-2.2-1.6-3.4-1c-1.2,0.7-1.6,2.2-1,3.4C172.1,139.9,191.8,147.6,217.7,147.6z"/>
	<path d="M99.9,217.1c0.5,0.7,1.2,1,2,1c0.5,0,1-0.2,1.5-0.5c0.5-0.4,50.4-36.7,78.3-5c0.9,1,2.5,1.1,3.5,0.2s1.1-2.5,0.2-3.5
		c-12.9-14.7-31.8-18.5-54.6-11.1c-16.9,5.4-29.9,15-30.4,15.4C99.3,214.5,99,216,99.9,217.1z"/>
	<path d="M333.5,218.1c0.8,0,1.5-0.4,2-1c0.8-1.1,0.6-2.7-0.5-3.5c-0.5-0.4-13.5-9.9-30.4-15.4c-22.9-7.4-41.8-3.5-54.6,11.1
		c-0.9,1-0.8,2.6,0.2,3.5s2.6,0.8,3.5-0.2c11.6-13.2,28.2-16.5,49.2-9.7c16.1,5.2,29,14.6,29.1,14.7
		C332.5,218,333,218.1,333.5,218.1z"/>
	<path d="M104.7,174c-1.1,0.8-1.4,2.4-0.6,3.5s2.4,1.4,3.5,0.6c0.3-0.2,31-21.6,51.3-18.2c9,1.5,19,8.4,28.7,15.1
		c10.8,7.5,21,14.5,30.2,14.5s19.4-7.1,30.2-14.5c9.7-6.7,19.6-13.6,28.7-15.1c20.3-3.4,51,18,51.3,18.2c1.1,0.8,2.7,0.5,3.5-0.6
		s0.5-2.7-0.6-3.5c-1.3-0.9-32.7-22.8-55.1-19c-10.1,1.7-20.6,8.9-30.7,15.9c-10.1,7-19.7,13.6-27.3,13.6s-17.2-6.6-27.3-13.6
		s-20.6-14.2-30.7-15.9C137.4,151.2,106,173.1,104.7,174z"/>
</g>
<g>
	<g>
		<path class="st2" d="M231.8,507.3c0.4,0.1,0.7,0.1,1,0.3C232.5,507.4,232.2,507.4,231.8,507.3z"/>
		<path class="st2" d="M227,506.7c0.4,0,0.7,0,1,0C227.6,506.7,227.3,506.7,227,506.7z"/>
		<path class="st2" d="M239.3,509.6c0.4,0.1,0.7,0.4,1,0.5C240.1,510,239.7,509.9,239.3,509.6z"/>
		<path class="st2" d="M225.9,506.7c-0.1,0-0.3,0-0.3,0c0.3,0,0.5,0,0.8,0C226.2,506.7,226.1,506.7,225.9,506.7z"/>
		<path class="st2" d="M224,506.7c0.3,0,0.4,0,0.7,0C224.4,506.7,224.1,506.7,224,506.7z"/>
		<path class="st2" d="M234.8,508c0.3,0.1,0.7,0.1,0.9,0.3C235.5,508.2,235.1,508,234.8,508z"/>
		<path class="st2" d="M236.3,508.4c0.4,0.1,0.8,0.3,1.2,0.4C237.1,508.7,236.7,508.6,236.3,508.4z"/>
		<path class="st2" d="M237.7,509c0.5,0.1,0.9,0.4,1.4,0.5C238.6,509.4,238.1,509.1,237.7,509z"/>
		<path class="st2" d="M233.4,507.6c0.3,0.1,0.7,0.1,0.9,0.3C234.1,507.8,233.7,507.6,233.4,507.6z"/>
		<path class="st2" d="M222.3,507c0.1,0,0.4,0,0.5,0C222.5,506.9,222.4,506.9,222.3,507z"/>
		<path class="st2" d="M228.4,506.9c1,0.1,2,0.3,3,0.4C230.4,507,229.5,506.9,228.4,506.9z"/>
		<path class="st2" d="M208.7,514.2c0.1-0.1,0.3-0.3,0.4-0.4C208.9,513.8,208.8,513.9,208.7,514.2z"/>
		<path class="st2" d="M207.6,515.5c0.1-0.1,0.3-0.4,0.4-0.5C207.9,515.1,207.8,515.4,207.6,515.5z"/>
		<path class="st2" d="M209.9,512.8c0.1-0.1,0.1-0.1,0.3-0.3C210.1,512.6,210,512.6,209.9,512.8z"/>
		<path class="st2" d="M218.6,507.6c0.1,0,0.3-0.1,0.4-0.1C218.9,507.6,218.8,507.6,218.6,507.6z"/>
		<path class="st2" d="M206.9,517.1c0.1-0.3,0.3-0.4,0.3-0.7C207,516.7,207,516.8,206.9,517.1z"/>
		<path class="st2" d="M206.1,518.6c0.1-0.3,0.1-0.4,0.3-0.7C206.3,518.2,206.2,518.4,206.1,518.6z"/>
		<path class="st2" d="M216.9,508.3c0.1-0.1,0.4-0.1,0.5-0.3C217.3,508.2,217.1,508.2,216.9,508.3z"/>
		<path class="st2" d="M211.3,511.4c0.1-0.1,0.1-0.1,0.3-0.3C211.6,511.3,211.4,511.3,211.3,511.4z"/>
		<path class="st2" d="M215.4,509c0.1-0.1,0.4-0.1,0.5-0.3C215.7,508.7,215.6,508.8,215.4,509z"/>
		<path class="st2" d="M213.9,509.6c0.1-0.1,0.4-0.1,0.5-0.3C214.3,509.5,214.2,509.5,213.9,509.6z"/>
		<path class="st2" d="M205.4,520.3c0-0.1,0.1-0.4,0.1-0.5C205.5,519.9,205.5,520.1,205.4,520.3z"/>
		<path class="st2" d="M137.4,568.6c0.1,0,0.4,0,0.5,0C137.8,568.6,137.7,568.6,137.4,568.6z"/>
		<path class="st2" d="M141.3,568.6c0.3,0,0.5,0.1,0.8,0.1C141.9,568.7,141.6,568.7,141.3,568.6z"/>
		<path class="st2" d="M140,568.6c0.3,0,0.5,0,0.8,0C140.5,568.6,140.3,568.6,140,568.6z"/>
		<path class="st2" d="M143.9,569.1c0.4,0.1,0.8,0.1,1,0.3C144.7,569.3,144.3,569.3,143.9,569.1z"/>
		<path class="st2" d="M139.2,568.5c-0.1,0-0.3,0-0.3,0c0.3,0,0.4,0,0.7,0C139.5,568.5,139.4,568.5,139.2,568.5z"/>
		<path class="st2" d="M142.5,568.9c0.4,0,0.8,0.1,1.2,0.3C143.3,569,142.9,568.9,142.5,568.9z"/>
		<path class="st2" d="M149.3,571.1c0.3,0.1,0.5,0.3,0.8,0.4C149.8,571.3,149.6,571.2,149.3,571.1z"/>
		<path class="st2" d="M148.1,570.6c0.3,0.1,0.5,0.3,0.7,0.3C148.5,570.7,148.4,570.6,148.1,570.6z"/>
		<path class="st2" d="M146.8,570c0.3,0.1,0.5,0.1,0.7,0.3C147.3,570.2,147.1,570,146.8,570z"/>
		<path class="st2" d="M145.5,569.5c0.3,0.1,0.5,0.1,0.8,0.3C146,569.6,145.8,569.6,145.5,569.5z"/>
		<path class="st2" d="M240.9,510.4c0.3,0.1,0.5,0.3,0.9,0.5C241.4,510.8,241.1,510.5,240.9,510.4z"/>
		<path class="st2" d="M244.7,512.8c0.4,0.3,0.8,0.5,1.2,0.9C245.4,513.4,245,513.1,244.7,512.8z"/>
		<path class="st2" d="M243.5,512c0.3,0.1,0.5,0.4,0.8,0.5C244,512.4,243.7,512.1,243.5,512z"/>
		<path class="st2" d="M242.2,511.2c0.3,0.1,0.5,0.3,0.8,0.5C242.7,511.4,242.4,511.3,242.2,511.2z"/>
		<path class="st2" d="M128.2,572.4c0.1-0.1,0.3-0.3,0.4-0.4C128.5,572.3,128.4,572.3,128.2,572.4z"/>
		<path class="st2" d="M131,570.6c0.1-0.1,0.4-0.1,0.5-0.3C131.4,570.4,131.3,570.6,131,570.6z"/>
		<path class="st2" d="M132.6,569.9c0.1-0.1,0.3-0.1,0.5-0.3C132.8,569.8,132.7,569.8,132.6,569.9z"/>
		<path class="st2" d="M134.4,569.3h0.1C134.5,569.1,134.4,569.3,134.4,569.3z"/>
		<path class="st2" d="M136,568.9c0.1,0,0.4,0,0.5-0.1C136.2,568.7,136.1,568.9,136,568.9z"/>
		<path class="st2" d="M129.6,571.5c0.1-0.1,0.4-0.3,0.5-0.4C129.9,571.2,129.8,571.3,129.6,571.5z"/>
		<path class="st2" d="M223.6,582.5L223.6,582.5L223.6,582.5z"/>
		<path class="st2" d="M181.3,532.9c0.3,0.1,0.5,0.1,0.8,0.3C181.7,533,181.6,533,181.3,532.9z"/>
		<path class="st2" d="M182.7,533.4c0.3,0.1,0.4,0.1,0.7,0.3C183.1,533.5,182.8,533.4,182.7,533.4z"/>
		<path class="st2" d="M183.8,533.8c0.3,0.1,0.4,0.1,0.7,0.3C184.2,534.1,184.1,533.9,183.8,533.8z"/>
		<path class="st2" d="M179.6,532.5c0.4,0.1,0.8,0.1,1.2,0.3C180.4,532.8,180,532.6,179.6,532.5z"/>
		<path class="st2" d="M178.3,532.4c0.3,0,0.7,0.1,0.9,0.1C179,532.4,178.7,532.4,178.3,532.4z"/>
		<path class="st2" d="M189.2,536.8c0.1,0.1,0.4,0.3,0.5,0.4C189.6,536.9,189.5,536.9,189.2,536.8z"/>
		<path class="st2" d="M185.1,534.3c0.3,0.1,0.4,0.3,0.7,0.3C185.5,534.6,185.3,534.5,185.1,534.3z"/>
		<path class="st2" d="M177.2,532.2c0.3,0,0.5,0,0.8,0C177.7,532.2,177.4,532.2,177.2,532.2z"/>
		<path class="st2" d="M187.5,535.6c0.3,0.1,0.4,0.3,0.7,0.4C187.9,535.9,187.8,535.8,187.5,535.6z"/>
		<path class="st2" d="M186.3,535c0.3,0.1,0.4,0.3,0.7,0.4C186.7,535.2,186.5,535.1,186.3,535z"/>
		<path class="st2" d="M190.5,537.6c0.1,0.1,0.4,0.3,0.5,0.4C190.8,537.9,190.6,537.7,190.5,537.6z"/>
		<path class="st2" d="M166.3,535.2c0.1-0.1,0.3-0.1,0.5-0.3C166.6,535.1,166.4,535.1,166.3,535.2z"/>
		<path class="st2" d="M169.1,533.8c0.3-0.1,0.4-0.1,0.7-0.3C169.4,533.5,169.2,533.7,169.1,533.8z"/>
		<path class="st2" d="M226.2,586.8L226.2,586.8L226.2,586.8z"/>
		<path class="st2" d="M170.4,533.2c0.3-0.1,0.4-0.1,0.7-0.3C170.8,533,170.6,533.2,170.4,533.2z"/>
		<path class="st2" d="M174.5,532.2c0.3,0,0.4,0,0.7,0C174.9,532.2,174.7,532.2,174.5,532.2z"/>
		<path class="st2" d="M173.1,532.5c0.3,0,0.4-0.1,0.7-0.1C173.6,532.4,173.4,532.4,173.1,532.5z"/>
		<path class="st2" d="M176.1,532.2c-0.1,0-0.1,0-0.3,0c0.3,0,0.5,0,0.8,0C176.5,532.2,176.4,532.2,176.1,532.2z"/>
		<path class="st2" d="M171.8,532.8c0.3,0,0.4-0.1,0.7-0.1C172.2,532.6,171.9,532.8,171.8,532.8z"/>
		<path class="st2" d="M167.6,534.5c0.1-0.1,0.4-0.3,0.5-0.3C168,534.2,167.9,534.3,167.6,534.5z"/>
		<path class="st2" d="M224,583.2L224,583.2L224,583.2z"/>
		<path class="st2" d="M224.8,584.7C224.9,584.7,224.9,584.7,224.8,584.7C224.9,584.7,224.9,584.7,224.8,584.7z"/>
		<path class="st2" d="M150.6,571.7c0.4,0.3,0.8,0.4,1.2,0.7C151.4,572.1,151,571.9,150.6,571.7z"/>
		<path class="st2" d="M215.1,567.6C215.2,567.7,215.2,567.7,215.1,567.6C215.2,567.7,215.2,567.7,215.1,567.6z"/>
		<path class="st2" d="M219.1,574.5L219.1,574.5L219.1,574.5z"/>
		<path class="st2" d="M218.6,573.4L218.6,573.4L218.6,573.4z"/>
		<path class="st2" d="M225.2,585.2l0.1,0.1C225.2,585.3,225.2,585.3,225.2,585.2z"/>
		<path class="st2" d="M225.7,586.1c0,0,0,0.1,0.1,0.1L225.7,586.1z"/>
		<path class="st2" d="M225.9,586.5L225.9,586.5L225.9,586.5z"/>
		<path class="st2" d="M225.4,585.7l0.1,0.1L225.4,585.7z"/>
		<path class="st2" d="M201.1,547.7c0.1,0.1,0.3,0.3,0.4,0.4C201.4,547.9,201.2,547.8,201.1,547.7z"/>
		<path class="st2" d="M198,544.3c0.1,0.1,0.3,0.3,0.3,0.3S198.1,544.4,198,544.3z"/>
		<path class="st2" d="M193.9,540.3c0.1,0.1,0.3,0.3,0.4,0.4C194.3,540.6,194,540.5,193.9,540.3z"/>
		<path class="st2" d="M214.3,566.4c0,0.1,0.1,0.1,0.1,0.3C214.4,566.5,214.4,566.4,214.3,566.4z"/>
		<path class="st2" d="M192.9,539.4c0.1,0.1,0.3,0.3,0.5,0.4C193.1,539.7,193,539.6,192.9,539.4z"/>
		<path class="st2" d="M195.1,541.4c0.1,0.1,0.3,0.3,0.4,0.4C195.3,541.7,195.2,541.5,195.1,541.4z"/>
		<path class="st2" d="M199,545.3c0.1,0.1,0.3,0.3,0.4,0.4C199.3,545.6,199.1,545.4,199,545.3z"/>
		<path class="st2" d="M202.1,549c0.1,0.1,0.1,0.3,0.3,0.3C202.4,549.2,202.3,549.1,202.1,549z"/>
		<path class="st2" d="M191.7,538.5c0.1,0.1,0.4,0.3,0.5,0.4C191.9,538.8,191.8,538.6,191.7,538.5z"/>
		<path class="st2" d="M200.1,546.5c0.1,0.1,0.3,0.3,0.4,0.4C200.3,546.8,200.2,546.6,200.1,546.5z"/>
		<path class="st2" d="M212.6,510.5c0.1-0.1,0.3-0.1,0.4-0.3C212.9,510.3,212.7,510.4,212.6,510.5z"/>
		<path class="st2" d="M92.7,645.9c0-0.5,0-1,0-1.6C92.7,644.9,92.7,645.4,92.7,645.9z"/>
		<path class="st2" d="M118.7,589.3c0,0.3,0,0.7,0,0.9C118.7,589.8,118.7,589.5,118.7,589.3z"/>
		<path class="st2" d="M201.2,714c-0.1,0.1-0.3,0.3-0.4,0.4C201,714.3,201.1,714.2,201.2,714z"/>
		<path class="st2" d="M194.3,718.1c-0.1,0-0.3,0-0.4,0C193.9,718.1,194.2,718.1,194.3,718.1z"/>
		<path class="st2" d="M200.1,715.3c-0.1,0.1-0.3,0.3-0.4,0.4C199.8,715.6,199.9,715.5,200.1,715.3z"/>
		<path class="st2" d="M195.1,718c-0.1,0-0.3,0-0.4,0.1C194.8,718,195,718,195.1,718z"/>
		<path class="st2" d="M201.8,713.3c-0.1,0.1-0.3,0.4-0.4,0.5C201.6,713.6,201.6,713.5,201.8,713.3z"/>
		<path class="st2" d="M198.7,716.4c-0.1,0.1-0.3,0.1-0.4,0.3C198.5,716.5,198.6,716.5,198.7,716.4z"/>
		<path class="st2" d="M196.7,717.4c-0.1,0-0.3,0.1-0.4,0.1C196.3,717.6,196.4,717.6,196.7,717.4z"/>
		<path class="st2" d="M197.3,717.2c-0.1,0-0.3,0.1-0.4,0.1C197,717.3,197.2,717.2,197.3,717.2z"/>
		<path class="st2" d="M195.9,717.7c-0.1,0-0.3,0.1-0.4,0.1C195.6,717.8,195.7,717.7,195.9,717.7z"/>
		<path class="st2" d="M199.4,715.9c-0.1,0.1-0.3,0.3-0.4,0.3C199.1,716.1,199.3,716,199.4,715.9z"/>
		<path class="st2" d="M198.1,716.8c-0.1,0.1-0.3,0.1-0.4,0.3C197.8,716.9,198,716.9,198.1,716.8z"/>
		<path class="st2" d="M200.7,714.7c-0.1,0.1-0.3,0.3-0.4,0.4C200.4,715,200.6,714.8,200.7,714.7z"/>
		<path class="st2" d="M134.3,630.1c0.3,0.3,0.7,0.7,0.9,0.9C134.9,630.6,134.7,630.3,134.3,630.1z"/>
		<path class="st2" d="M133,628.8c0.3,0.3,0.5,0.5,0.9,0.8C133.5,629.3,133.2,629,133,628.8z"/>
		<path class="st2" d="M131.5,627.5c0.3,0.3,0.5,0.5,0.8,0.8C132,628,131.8,627.7,131.5,627.5z"/>
		<path class="st2" d="M130.2,626.3c0.3,0.3,0.5,0.4,0.8,0.7C130.7,626.8,130.5,626.5,130.2,626.3z"/>
		<path class="st2" d="M128.8,625.2c0.3,0.3,0.7,0.4,0.9,0.7C129.3,625.6,129,625.4,128.8,625.2z"/>
		<path class="st2" d="M198.2,692.1c0.4,0.4,0.8,0.9,1,1.3C199,693,198.6,692.5,198.2,692.1z"/>
		<path class="st2" d="M202.8,711.3c-0.1,0.3-0.3,0.5-0.4,0.8C202.5,711.9,202.7,711.7,202.8,711.3z"/>
		<path class="st2" d="M203.8,703.3c0.1,0.5,0.1,1,0.1,1.6C204,704.4,204,703.8,203.8,703.3z"/>
		<path class="st2" d="M202.4,698.6c0.3,0.5,0.4,1,0.7,1.6C202.8,699.7,202.7,699.1,202.4,698.6z"/>
		<path class="st2" d="M135.7,631.4c0.5,0.4,0.9,0.9,1.4,1.3C136.6,632.3,136.2,631.8,135.7,631.4z"/>
		<path class="st2" d="M202.3,712.5c-0.1,0.3-0.3,0.4-0.4,0.5C202.1,712.9,202.1,712.6,202.3,712.5z"/>
		<path class="st2" d="M190.6,718.1C190.6,718.1,190.5,718.1,190.6,718.1C190.5,718.1,190.6,718.1,190.6,718.1z"/>
		<path class="st2" d="M258.1,659.4l-0.1,0.1C258,659.5,258.1,659.5,258.1,659.4z"/>
		<path class="st2" d="M244.9,663.2h0.1C244.9,663.2,244.9,663.2,244.9,663.2C244.8,663.2,244.9,663.2,244.9,663.2z"/>
		<path class="st2" d="M256.9,660.2c-0.1,0-0.1,0.1-0.3,0.1C256.7,660.3,256.8,660.3,256.9,660.2z"/>
		<path class="st2" d="M255.5,660.9C255.4,660.9,255.4,660.9,255.5,660.9C255.4,660.9,255.4,660.9,255.5,660.9z"/>
		<path class="st2" d="M242.7,663c-0.1,0-0.3,0-0.3,0C242.6,663,242.6,663,242.7,663z"/>
		<path class="st2" d="M243.7,663.2h-0.1C243.6,663,243.7,663.2,243.7,663.2z"/>
		<path class="st2" d="M259.2,658.6C259.2,658.7,259.2,658.7,259.2,658.6C259.2,658.7,259.2,658.7,259.2,658.6z"/>
		<path class="st2" d="M241.6,662.9c-0.1,0-0.3,0-0.3,0C241.5,662.9,241.6,662.9,241.6,662.9z"/>
		<path class="st2" d="M193.4,718.1c-0.1,0-0.3,0-0.4,0C193.1,718.2,193.3,718.2,193.4,718.1z"/>
		<path class="st2" d="M233.9,674.9c0.3,0.7,0.4,1.2,0.5,1.7C234.3,676.1,234.1,675.5,233.9,674.9z"/>
		<path class="st2" d="M261.3,656.5l-0.1,0.1C261.1,656.6,261.3,656.6,261.3,656.5z"/>
		<path class="st2" d="M260.3,657.7l-0.1,0.1C260.2,657.7,260.2,657.7,260.3,657.7z"/>
		<path class="st2" d="M261.9,655.4L261.9,655.4L261.9,655.4z"/>
		<path class="st2" d="M187.2,717.4C187.1,717.4,187.1,717.4,187.2,717.4C187.1,717.4,187.1,717.4,187.2,717.4z"/>
		<path class="st2" d="M188.9,717.8C188.9,717.8,188.8,717.8,188.9,717.8C188.8,717.8,188.9,717.8,188.9,717.8z"/>
		<path class="st2" d="M185.5,716.9C185.5,716.9,185.4,716.9,185.5,716.9C185.4,716.9,185.5,716.9,185.5,716.9z"/>
		<path class="st2" d="M192.2,718.2c0.1,0,0.3,0,0.4,0C192.5,718.2,192.3,718.2,192.2,718.2L192.2,718.2z"/>
		<path class="st2" d="M240.5,662.8c-0.3-0.1-0.7-0.3-1-0.5C239.8,662.4,240.2,662.6,240.5,662.8z"/>
		<path class="st2" d="M126.9,623.9c0.4,0.3,0.9,0.7,1.3,0.9C127.9,624.6,127.5,624.2,126.9,623.9z"/>
		<path class="st2" d="M340,668.7c5.1-15.3,3.4-30.5-4.1-37.8c-3-2.9-9.7-5.2-16.2-7.5c-5-1.7-9.9-3.4-14-5.6
			c-13.9-7.5-28-15.2-42.1-23c-11.5,8.9-14.9,26.2-7.3,39.1v0.1c11.1,20.1,33.2,29.8,54.7,39c2.5,1,5,2.1,7.3,3.1
			c2.1,0.9,3,3.4,2.1,5.5s-3.4,3-5.5,2.1c-2.4-1-4.8-2.1-7.3-3.1c-12.9-5.6-27.1-11.8-38.8-20.5c-3.7,5.9-10.5,9.7-17.9,10.9
			c-3,3.7-5.6,7.3-8,11.2c-0.5,3.9-2.2,7.5-5.1,10.5c-3.9,9.8-5.6,20.4-5.2,31.5c0.7,16.5,6,28.1,6,28.3c0.9,2.1,0,4.4-2,5.5
			c-0.5,0.3-1.2,0.4-1.7,0.4c-1.6,0-3-0.9-3.8-2.4c-0.3-0.5-6-13.1-6.8-31.1c-0.3-7.2,0.3-16.1,2.7-25.5c-3.7,1.3-7.7,2.1-11.6,2.1
			c-1,0-2.2,0-3.1-0.1h-0.5c0.9,4.7,0.5,9.4-1.4,13.6c-3.3,7.5-9.9,11.8-18.2,11.8c-5.4,0-11.5-2-16.9-5.2
			c-16.7-7.8-30.5-15.8-42-24.3l-0.1-0.1l-0.1-0.1c-2.2-1.8-7.2-5.1-12.4-8.5c-3.7-2.4-7.1-4.7-10.2-6.8
			c5.2,26.6,14.9,52.1,31.1,73.1c6,7.6,12.9,14.6,16.3,23.5c6.5,27.9,8.4,59.4-2,86.1c23,9.7,47.5,11.5,72.2,8.8
			c28.4-1.8,60.2-5,81-26.6c-10.5-19.1-12.3-44.1-9.2-65.7c1.3-8.6,7.1-14.3,10.6-22.1c3.9-8.5,7.5-17.3,10.7-26
			c4.2-14.1,10.9-31,15-47.9l0.4-2.4C337.3,678.1,338.4,673.5,340,668.7z"/>
		<path class="st2" d="M239.4,662.1c-0.3-0.1-0.5-0.4-0.8-0.5C238.9,661.9,239.2,662,239.4,662.1z"/>
		<path class="st2" d="M180.7,714.8L180.7,714.8L180.7,714.8z"/>
		<path class="st2" d="M182.3,715.6L182.3,715.6L182.3,715.6z"/>
		<path class="st2" d="M183.8,716.4C183.8,716.3,183.8,716.3,183.8,716.4C183.8,716.3,183.8,716.3,183.8,716.4z"/>
		<path class="st2" d="M200.3,694.8c0.3,0.5,0.7,0.9,0.9,1.4C201,695.7,200.7,695.3,200.3,694.8z"/>
		<path class="st2" d="M225.6,691c-0.1,0.1-0.4,0.1-0.5,0.3C225.2,691.2,225.3,691.2,225.6,691z"/>
		<path class="st2" d="M125.6,623c0.4,0.3,0.8,0.4,1,0.7C126.3,623.5,125.9,623.3,125.6,623z"/>
		<path class="st2" d="M223.9,691.7c-0.3,0.1-0.4,0.1-0.7,0.3C223.3,691.8,223.6,691.8,223.9,691.7z"/>
		<path class="st2" d="M220.8,692.5c-0.1,0-0.4,0.1-0.5,0.1C220.6,692.6,220.7,692.5,220.8,692.5z"/>
		<path class="st2" d="M224.6,691.4c-0.1,0.1-0.4,0.1-0.5,0.1C224.2,691.5,224.5,691.4,224.6,691.4z"/>
		<path class="st2" d="M221.9,692.2c-0.3,0-0.4,0.1-0.7,0.1C221.4,692.3,221.6,692.3,221.9,692.2z"/>
		<path class="st2" d="M218.2,692.9c-0.1,0-0.4,0-0.5,0C217.8,692.9,218.1,692.9,218.2,692.9z"/>
		<path class="st2" d="M219.9,692.6c-0.1,0-0.4,0-0.5,0.1C219.7,692.7,219.8,692.6,219.9,692.6z"/>
		<path class="st2" d="M217.3,693c-0.1,0-0.3,0-0.5,0C217.1,693,217.2,693,217.3,693z"/>
		<path class="st2" d="M219.1,692.7c-0.1,0-0.4,0-0.5,0.1C218.8,692.9,218.9,692.9,219.1,692.7z"/>
		<path class="st2" d="M230.9,687.9c-0.1,0.1-0.4,0.3-0.5,0.4C230.5,688.1,230.7,688,230.9,687.9z"/>
		<path class="st2" d="M230.1,688.4c-0.1,0.1-0.3,0.3-0.4,0.4C229.9,688.7,230,688.5,230.1,688.4z"/>
		<path class="st2" d="M229.4,688.9c-0.1,0.1-0.3,0.1-0.4,0.3C229.1,689.2,229.2,689.1,229.4,688.9z"/>
		<path class="st2" d="M216.5,693c-0.1,0-0.3,0-0.5,0C216.1,693,216.3,693,216.5,693z"/>
		<path class="st2" d="M211.2,642.4c3.1,3.9,6.3,8,9.4,12C217.4,650.3,214.3,646.4,211.2,642.4z"/>
		<path class="st2" d="M228.7,689.5c-0.1,0.1-0.3,0.1-0.4,0.3C228.4,689.6,228.6,689.6,228.7,689.5z"/>
		<path class="st2" d="M226.3,690.6c-0.1,0.1-0.3,0.1-0.5,0.3C225.9,690.9,226.2,690.8,226.3,690.6z"/>
		<path class="st2" d="M227.1,690.4c-0.1,0.1-0.3,0.1-0.5,0.3C226.9,690.5,227,690.4,227.1,690.4z"/>
		<path class="st2" d="M227.9,689.8c-0.1,0.1-0.3,0.1-0.4,0.3C227.6,690.1,227.8,690,227.9,689.8z"/>
		<path class="st2" d="M222.9,691.9c-0.3,0.1-0.5,0.1-0.9,0.3C222.4,692.1,222.7,692.1,222.9,691.9z"/>
		<path class="st2" d="M113.9,620.5c0.3,0,0.4,0,0.7,0C114.3,620.4,114.1,620.4,113.9,620.5z"/>
		<path class="st2" d="M115.8,620.4L115.8,620.4c0.5,0,1,0,1.7,0.1C116.9,620.4,116.3,620.4,115.8,620.4z"/>
		<path class="st2" d="M246.4,663h0.1l0,0C246.4,663,246.4,663,246.4,663z"/>
		<path class="st2" d="M119.6,620.8c0.3,0.1,0.7,0.1,0.9,0.3C120.3,620.9,120,620.8,119.6,620.8z"/>
		<path class="st2" d="M122.8,621.7c0.3,0.1,0.5,0.3,0.9,0.4C123.3,622,123,621.8,122.8,621.7z"/>
		<path class="st2" d="M117.9,620.5c0.4,0,0.8,0.1,1.2,0.1C118.7,620.5,118.3,620.5,117.9,620.5z"/>
		<path class="st2" d="M121.2,621.2c0.3,0.1,0.7,0.1,0.9,0.3C121.8,621.3,121.6,621.3,121.2,621.2z"/>
		<path class="st2" d="M235,679.6c0-0.8-0.3-1.8-0.5-3C234.7,677.8,235,678.9,235,679.6L235,679.6z"/>
		<path class="st2" d="M215.5,693C215.6,693,215.6,693,215.5,693h-0.1H215.5z"/>
		<path class="st2" d="M214.6,693c-0.1,0-0.3,0-0.3,0S214.4,693,214.6,693z"/>
		<path class="st2" d="M231.1,687.7L231.1,687.7L231.1,687.7L231.1,687.7z"/>
		<path class="st2" d="M230.9,668.1c-0.3-0.4-0.5-0.8-0.8-1.2c-3.3-4.3-6.4-8.5-9.5-12.6c3.1,4.1,6.3,8.2,9.5,12.6
			C230.4,667.3,230.7,667.7,230.9,668.1z"/>
		<path class="st2" d="M124.2,622.4c0.3,0.1,0.7,0.3,0.9,0.5C124.7,622.6,124.5,622.5,124.2,622.4z"/>
		<path class="st2" d="M148,696.9c3.4,2.1,6.8,4.2,10.2,6.1c1.7,1,3.5,2,5.2,2.9c3.5,1.8,7.1,3.7,10.6,5.4c1.8,0.9,3.5,1.7,5.4,2.5
			c0.4,0.3,0.9,0.5,1.4,0.9l0,0c0.5,0.3,1,0.5,1.4,0.8l0,0c0.5,0.3,1,0.5,1.6,0.7l0,0c0.5,0.3,1,0.4,1.6,0.7l0,0
			c0.5,0.1,1,0.4,1.6,0.5l0,0c0.5,0.1,1,0.3,1.7,0.4c0,0,0,0,0.1,0c0.5,0.1,1,0.1,1.6,0.3c0,0,0,0,0.1,0c0.5,0,1,0.1,1.6,0.1
			c0.1,0,0.3,0,0.4,0s0.3,0,0.4,0s0.3,0,0.4,0s0.3,0,0.4,0s0.3,0,0.4,0s0.3,0,0.4,0s0.3,0,0.4-0.1c0.1,0,0.3,0,0.4-0.1
			c0.1,0,0.3-0.1,0.4-0.1s0.3,0,0.4-0.1c0.1,0,0.3-0.1,0.4-0.1c0.1,0,0.3-0.1,0.4-0.1s0.3-0.1,0.4-0.1s0.3-0.1,0.3-0.1
			c0.1-0.1,0.3-0.1,0.4-0.3c0.1,0,0.3-0.1,0.3-0.1c0.1-0.1,0.3-0.1,0.4-0.3c0.1,0,0.1-0.1,0.3-0.1c0.1-0.1,0.3-0.1,0.4-0.3
			c0.1-0.1,0.1-0.1,0.3-0.3c0.1-0.1,0.3-0.3,0.4-0.4c0.1-0.1,0.1-0.1,0.3-0.3c0.1-0.1,0.3-0.3,0.4-0.4s0.1-0.1,0.3-0.3
			c0.1-0.1,0.3-0.3,0.4-0.4c0.1-0.1,0.1-0.1,0.3-0.3c0.1-0.1,0.3-0.4,0.4-0.5c0-0.1,0.1-0.1,0.1-0.3c0.1-0.1,0.3-0.4,0.4-0.5
			c0-0.1,0.1-0.1,0.1-0.3c0.1-0.3,0.3-0.5,0.4-0.8c0,0,0,0,0-0.1l0,0c0.7-1.3,0.9-2.6,1-3.9c0-0.5,0.1-1,0.1-1.6c0-0.3,0-0.5,0-0.8
			c0-0.5-0.1-1-0.1-1.6c-0.1-1-0.5-2.1-0.8-3.1c-0.1-0.5-0.4-1-0.7-1.6c-0.4-0.8-0.8-1.6-1.2-2.2c-0.3-0.5-0.7-1-0.9-1.4
			c-0.3-0.5-0.7-0.9-1-1.4c-0.4-0.5-0.7-0.9-1-1.3c-1.3-1.6-2.7-3-4.2-4.2l0,0c0,0-0.1-0.1-0.3-0.3c-0.1-0.1-0.1-0.1-0.3-0.3
			c-0.3-0.3-0.5-0.4-0.8-0.8c-0.9-0.9-2.2-2.1-3.8-3.7c-0.5-0.5-1.2-1-1.7-1.7c-0.9-0.9-1.8-1.8-2.9-2.9c-1.7-1.7-3.7-3.5-5.6-5.5
			c-0.4-0.4-0.8-0.8-1.2-1.2c-1.7-1.6-3.4-3.3-5.1-5c-5.2-5.1-10.7-10.3-15.8-15.3c-1.7-1.7-3.4-3.3-5-4.7
			c-8.2-8-14.4-13.9-14.4-13.9c-0.5-0.5-0.9-0.9-1.4-1.3c-0.1-0.1-0.3-0.3-0.4-0.4c-0.4-0.3-0.7-0.7-0.9-0.9
			c-0.1-0.1-0.4-0.4-0.5-0.5c-0.3-0.3-0.5-0.5-0.9-0.8c-0.1-0.1-0.4-0.4-0.5-0.5c-0.3-0.3-0.5-0.5-0.8-0.8c-0.1-0.1-0.4-0.4-0.5-0.5
			c-0.3-0.3-0.5-0.5-0.8-0.7c-0.1-0.1-0.4-0.3-0.5-0.4c-0.3-0.3-0.7-0.5-0.9-0.7c-0.1-0.1-0.3-0.3-0.4-0.4c-0.4-0.4-0.9-0.7-1.3-0.9
			c-0.1,0-0.1-0.1-0.3-0.1c-0.4-0.3-0.8-0.5-1-0.7c-0.1-0.1-0.4-0.1-0.5-0.3c-0.3-0.1-0.7-0.3-0.9-0.5c-0.1-0.1-0.4-0.1-0.5-0.3
			c-0.3-0.1-0.5-0.3-0.9-0.4c-0.3-0.1-0.4-0.1-0.7-0.3s-0.7-0.3-0.9-0.3c-0.3,0-0.4-0.1-0.7-0.1c-0.3-0.1-0.7-0.1-0.9-0.3
			c-0.3,0-0.4-0.1-0.7-0.1c-0.4-0.1-0.8-0.1-1.2-0.1c-0.1,0-0.3,0-0.4,0c-0.5,0-1.2-0.1-1.7-0.1c-0.4,0-0.8,0-1.3,0
			c-0.3,0-0.4,0-0.7,0c-0.7,0-1.3,0.1-2.1,0.3c-3,0.1-5.6,0.8-7.8,2c-0.9,0.4-1.7,0.9-2.6,1.6c-1.2,0.9-2.2,1.8-3.3,3
			c-2.5,3-4.2,6.8-5,10.9c-0.3,1-0.4,2.1-0.4,3.1c-0.1,1-0.1,2.1-0.1,3.1c0,0.5,0,1,0,1.6c0.3,4.8,1.6,9.5,3.9,13.6
			c5.1,7.8,34,24.6,41.6,30.7C141.3,692.6,144.6,694.8,148,696.9z"/>
		<path class="st2" d="M118.8,592c0,0.3,0,0.7,0.1,0.9c0.1,1.2,0.4,2.4,0.8,3.7c0.3,0.9,0.5,1.8,0.9,2.7s0.8,1.8,1.2,2.6
			c0.1,0.3,0.3,0.7,0.4,0.9c2,3.8,4.6,7.6,7.6,11c0.7,0.8,1.4,1.6,2.1,2.4c0.5,0.5,0.9,1,1.4,1.4c3.1,3.3,6.5,6.1,9.7,8.5
			c11,9.5,21.2,19.6,31.1,29.4l0,0l36.4,36c0.1,0.1,0.7,0.4,1.3,0.7c0.4,0.3,0.9,0.4,1.2,0.5c0.1,0,0.3,0.1,0.3,0.1
			c0.4,0,0.7,0,1,0.1c0.1,0,0.3,0,0.3,0c0.3,0,0.5,0,0.8,0c0.1,0,0.3,0,0.3,0c0.1,0,0.3,0,0.4,0s0.3,0,0.5,0c0.1,0,0.3,0,0.4,0
			s0.3,0,0.5,0c0.1,0,0.3,0,0.4,0s0.4,0,0.5,0s0.3,0,0.4,0s0.4,0,0.5-0.1c0.1,0,0.3,0,0.4,0c0.1,0,0.4,0,0.5-0.1c0.1,0,0.3,0,0.4,0
			s0.4-0.1,0.5-0.1s0.3,0,0.4-0.1c0.3,0,0.4-0.1,0.7-0.1c0.1,0,0.1,0,0.3,0c0.3-0.1,0.5-0.1,0.9-0.3h0.1c0.3-0.1,0.5-0.1,0.7-0.3
			c0.1,0,0.3-0.1,0.3-0.1c0.1,0,0.4-0.1,0.5-0.1s0.3-0.1,0.4-0.1s0.4-0.1,0.5-0.3c0.1,0,0.3-0.1,0.4-0.1c0.1-0.1,0.3-0.1,0.5-0.3
			c0.1,0,0.3-0.1,0.4-0.1c0.1-0.1,0.3-0.1,0.5-0.3c0.1,0,0.3-0.1,0.4-0.1c0.1-0.1,0.3-0.1,0.4-0.3c0.1,0,0.3-0.1,0.3-0.1
			c0.1-0.1,0.3-0.1,0.4-0.3c0.1,0,0.3-0.1,0.3-0.1c0.1-0.1,0.3-0.1,0.4-0.3c0.1,0,0.1-0.1,0.3-0.1c0.1-0.1,0.3-0.3,0.4-0.4
			c0.1,0,0.1-0.1,0.3-0.1c0.1-0.1,0.4-0.3,0.5-0.4c0,0,0.1,0,0.1-0.1l0,0c0.3-0.1,0.4-0.4,0.5-0.5l0.1-0.1c0.1-0.1,0.3-0.3,0.4-0.4
			c0.1-0.1,0.1-0.1,0.1-0.3c0.1-0.1,0.3-0.3,0.3-0.4c0.1-0.1,0.1-0.1,0.1-0.3c0.1-0.1,0.1-0.3,0.3-0.4c0-0.1,0.1-0.1,0.1-0.3
			c0.1-0.1,0.1-0.3,0.3-0.4c0-0.1,0.1-0.3,0.1-0.3c0.1-0.1,0.1-0.3,0.3-0.4c0-0.1,0.1-0.3,0.1-0.3c0-0.1,0.1-0.3,0.1-0.4
			c0-0.1,0.1-0.3,0.1-0.3c0-0.1,0.1-0.3,0.1-0.4c0-0.1,0.1-0.3,0.1-0.3c0-0.1,0.1-0.3,0.1-0.5c0-0.1,0-0.3,0.1-0.3
			c0-0.1,0-0.4,0.1-0.5c0-0.1,0-0.1,0-0.3c0-0.3,0-0.5,0-0.8l0,0l0,0c0-0.8-0.3-1.8-0.5-3c-0.1-0.5-0.4-1.2-0.5-1.7
			c-0.8-2.4-2-5-3-6.7c-0.3-0.4-0.5-0.8-0.8-1.2c-3.3-4.3-6.4-8.5-9.5-12.6s-6.3-8.1-9.4-12c0,0,0-0.1-0.1-0.1L198.5,628
			c-8.9-10.5-18-21.3-27.9-31.5c-4.7-4.3-12.9-12.8-18.3-23.3c-0.1-0.1-0.3-0.1-0.4-0.3c-0.4-0.3-0.8-0.4-1.2-0.7
			c-0.1-0.1-0.4-0.1-0.5-0.3c-0.3-0.1-0.5-0.3-0.8-0.4c-0.1-0.1-0.4-0.1-0.5-0.3c-0.3-0.1-0.5-0.3-0.7-0.3c-0.1-0.1-0.4-0.1-0.5-0.3
			c-0.3-0.1-0.5-0.1-0.7-0.3s-0.4-0.1-0.5-0.3c-0.3-0.1-0.5-0.1-0.8-0.3c-0.1,0-0.3-0.1-0.5-0.1c-0.4-0.1-0.8-0.3-1-0.3
			c-0.1,0-0.1,0-0.3,0c-0.4-0.1-0.8-0.1-1.2-0.3c-0.1,0-0.3,0-0.4,0c-0.3,0-0.5-0.1-0.8-0.1c-0.1,0-0.3,0-0.5,0s-0.5,0-0.8,0
			c-0.1,0-0.3,0-0.5,0c-0.3,0-0.4,0-0.7,0s-0.7,0-0.9,0c-0.1,0-0.4,0-0.5,0c-0.4,0-0.7,0.1-1,0.1c-0.1,0-0.4,0-0.5,0.1
			c-0.5,0.1-0.9,0.3-1.4,0.4h-0.1c-0.5,0.1-0.9,0.3-1.4,0.5c-0.1,0-0.3,0.1-0.5,0.3c-0.3,0.1-0.7,0.3-0.9,0.4
			c-0.1,0.1-0.4,0.1-0.5,0.3c-0.3,0.1-0.7,0.4-0.9,0.5c-0.1,0.1-0.4,0.3-0.5,0.4c-0.3,0.3-0.7,0.4-0.9,0.7c-0.1,0.1-0.3,0.3-0.4,0.4
			c-0.5,0.4-0.9,0.8-1.4,1.2c-3,2.7-5.1,5.6-6.4,8.5c-0.1,0.3-0.3,0.5-0.4,0.9c-0.8,2.1-1.2,4.2-1.3,6.3c0,0.3,0,0.7,0,0.9
			C118.7,590.8,118.8,591.4,118.8,592z"/>
		<path class="st2" d="M263,546.6c-1.2-2.9-2.6-5.9-3.9-8.9c-1.8-4.2-3.9-8.5-5.8-12.3c-0.8-1.6-1.6-3.1-2.4-4.6
			c-0.5-0.9-1-1.8-1.6-2.6c-0.5-0.8-1-1.6-1.4-2.2c-0.8-1-1.4-1.8-2.1-2.4c-0.4-0.3-0.8-0.7-1.2-0.9c-0.1-0.1-0.3-0.1-0.4-0.3
			c-0.3-0.1-0.5-0.4-0.8-0.5c-0.1-0.1-0.3-0.3-0.4-0.3c-0.3-0.1-0.5-0.4-0.8-0.5c-0.1-0.1-0.3-0.1-0.5-0.3s-0.5-0.3-0.9-0.5
			c-0.1-0.1-0.3-0.1-0.4-0.3c-0.4-0.1-0.7-0.4-1-0.5c-0.1,0-0.1-0.1-0.3-0.1c-0.4-0.3-0.9-0.4-1.4-0.5c-0.1,0-0.1-0.1-0.3-0.1
			c-0.4-0.1-0.8-0.3-1.2-0.4c-0.1,0-0.3-0.1-0.5-0.1c-0.3-0.1-0.7-0.3-0.9-0.3c-0.1,0-0.4-0.1-0.5-0.1c-0.3-0.1-0.7-0.1-0.9-0.3
			c-0.1,0-0.4-0.1-0.5-0.1c-0.4-0.1-0.7-0.1-1-0.3c-0.1,0-0.3,0-0.4-0.1c-0.9-0.1-2-0.3-3-0.4c-0.1,0-0.3,0-0.4,0c-0.4,0-0.7,0-1,0
			c-0.1,0-0.4,0-0.5,0c-0.3,0-0.5,0-0.8,0c-0.4,0-0.7,0-1,0s-0.4,0-0.7,0c-0.4,0-0.8,0.1-1.2,0.1c-0.1,0-0.4,0-0.5,0
			c-1,0.1-2.2,0.4-3.3,0.7c-0.1,0-0.3,0.1-0.4,0.1c-0.4,0.1-0.8,0.3-1,0.4c-0.1,0-0.4,0.1-0.5,0.3c-0.3,0.1-0.7,0.3-0.9,0.4
			c-0.1,0.1-0.4,0.1-0.5,0.3c-0.3,0.1-0.7,0.3-0.9,0.4c-0.1,0.1-0.4,0.1-0.5,0.3c-0.3,0.1-0.7,0.4-0.9,0.5c-0.1,0.1-0.3,0.1-0.4,0.3
			c-0.4,0.3-0.7,0.5-1,0.8c-0.1,0.1-0.1,0.1-0.3,0.3c-0.4,0.4-0.8,0.7-1.2,1c-0.1,0.1-0.1,0.1-0.3,0.3c-0.3,0.3-0.5,0.7-0.9,0.9
			c-0.1,0.1-0.3,0.3-0.4,0.4c-0.3,0.3-0.4,0.5-0.7,0.9c-0.1,0.1-0.3,0.4-0.4,0.5c-0.1,0.3-0.4,0.7-0.5,0.9c-0.1,0.1-0.3,0.4-0.3,0.7
			c-0.1,0.3-0.3,0.7-0.5,1c-0.1,0.3-0.1,0.4-0.3,0.7c-0.1,0.4-0.3,0.8-0.4,1.2c0,0.1-0.1,0.4-0.1,0.5c-0.1,0.7-0.4,1.2-0.5,1.8
			c-1.6,4.6-1.6,8.5-0.5,12.3c0.7,2.1,1.6,4.2,2.7,6.4c1,1.8,2.2,3.7,3.5,5.6c4.1,5.1,7.6,10.6,10.7,15.7
			c7.7,11.2,18.8,27.5,26.7,39c2.9-5.9,7.3-11,12.9-14.6c1.3-0.8,2.9-0.9,4.2-0.1c6,3.3,11.9,6.7,17.8,9.8
			c-3.8-12.4-8.2-24.7-14.1-36.2C267.7,557.2,265.4,552.4,263,546.6z"/>
		<path class="st2" d="M226.3,586.9l-0.1-0.1c0,0,0,0,0-0.1l-0.1-0.1c0,0,0-0.1-0.1-0.1l-0.1-0.1c0,0,0-0.1-0.1-0.1
			c0-0.1-0.1-0.1-0.1-0.3l-0.1-0.1c0-0.1-0.1-0.3-0.1-0.3l-0.1-0.1c-0.1-0.1-0.1-0.3-0.3-0.4c0,0,0,0,0-0.1
			c-0.3-0.4-0.5-0.9-0.8-1.3c0,0,0,0,0-0.1c-0.1-0.3-0.3-0.5-0.4-0.8l0,0c-1.2-2.1-2.6-4.8-4.3-7.8l0,0c-0.3-0.4-0.4-0.7-0.7-1l0,0
			c-1-1.8-2.2-3.8-3.4-5.8c0,0,0,0,0-0.1c-0.3-0.4-0.4-0.8-0.7-1c0-0.1-0.1-0.1-0.1-0.3c-0.3-0.4-0.4-0.7-0.7-1
			c0-0.1-0.1-0.1-0.1-0.3c-0.3-0.4-0.4-0.7-0.7-1L213,564c-1-1.6-2.1-3.3-3.1-4.8c0,0,0,0,0-0.1c-0.3-0.4-0.5-0.7-0.8-1
			c-0.1-0.1-0.1-0.1-0.3-0.3c-0.3-0.4-0.5-0.7-0.7-1c-0.1-0.1-0.1-0.3-0.3-0.4c-0.3-0.3-0.5-0.7-0.7-0.9c-0.1-0.1-0.1-0.3-0.3-0.3
			c-0.3-0.4-0.5-0.7-0.8-1c0-0.1-0.1-0.1-0.1-0.3c-1.2-1.4-2.2-3-3.4-4.4c-0.1-0.1-0.1-0.3-0.3-0.3c-0.3-0.3-0.5-0.5-0.7-0.9
			c-0.1-0.1-0.3-0.3-0.4-0.4c-0.3-0.3-0.5-0.5-0.7-0.8c-0.1-0.1-0.3-0.3-0.4-0.4c-0.3-0.3-0.5-0.5-0.7-0.8c-0.1-0.1-0.3-0.3-0.4-0.4
			c-0.3-0.3-0.5-0.5-0.8-0.8c-0.1-0.1-0.3-0.3-0.3-0.3c-0.8-0.9-1.7-1.7-2.6-2.5c-0.1-0.1-0.3-0.3-0.4-0.4c-0.3-0.3-0.5-0.4-0.7-0.7
			c-0.1-0.1-0.3-0.3-0.4-0.4c-0.3-0.1-0.4-0.4-0.7-0.5c-0.1-0.1-0.3-0.3-0.5-0.4s-0.4-0.4-0.7-0.5c-0.1-0.1-0.4-0.3-0.5-0.4
			c-0.3-0.1-0.4-0.4-0.7-0.5c-0.1-0.1-0.4-0.3-0.5-0.4c-0.3-0.1-0.4-0.3-0.7-0.5c-0.1-0.1-0.4-0.3-0.5-0.4c-0.4-0.3-0.8-0.5-1-0.7
			s-0.4-0.3-0.7-0.4c-0.1-0.1-0.4-0.3-0.5-0.4c-0.3-0.1-0.4-0.3-0.7-0.4s-0.4-0.3-0.7-0.3c-0.3-0.1-0.4-0.3-0.7-0.3
			c-0.1-0.1-0.4-0.1-0.5-0.3c-0.3-0.1-0.4-0.1-0.7-0.3c-0.1-0.1-0.4-0.1-0.5-0.3c-0.3-0.1-0.4-0.1-0.7-0.3c-0.1,0-0.4-0.1-0.5-0.1
			c-0.3-0.1-0.5-0.1-0.8-0.3c-0.1,0-0.3-0.1-0.5-0.1c-0.4-0.1-0.8-0.3-1.2-0.3c-0.1,0-0.3,0-0.3,0c-0.3,0-0.7-0.1-0.9-0.1
			c-0.1,0-0.3,0-0.5,0s-0.5,0-0.8,0c-0.1,0-0.4,0-0.5,0c-0.3,0-0.5,0-0.8,0s-0.5,0-0.8,0s-0.4,0-0.7,0s-0.5,0-0.8,0.1
			c-0.3,0-0.4,0-0.7,0.1c-0.3,0-0.5,0.1-0.8,0.1s-0.4,0.1-0.7,0.1s-0.5,0.1-0.8,0.3c-0.3,0.1-0.4,0.1-0.7,0.3
			c-0.3,0.1-0.5,0.1-0.8,0.3c-0.3,0.1-0.4,0.1-0.7,0.3s-0.5,0.3-0.8,0.4c-0.1,0.1-0.4,0.1-0.5,0.3c-0.3,0.1-0.7,0.4-0.9,0.5
			c-0.1,0.1-0.3,0.1-0.5,0.3c-0.5,0.3-0.9,0.7-1.4,0.9c-6.9,5.1-9.5,11.2-9.5,17.7c0,0.7,0,1.2,0.1,1.8c0.1,0.9,0.3,1.8,0.4,2.7
			c0.3,1.2,0.5,2.5,0.9,3.7c0.1,0.3,0.3,0.7,0.3,0.9c0.3,0.7,0.4,1.2,0.7,1.8c0.1,0.3,0.3,0.7,0.4,0.9c1,2.5,2.4,4.8,3.8,7.2
			c0.4,0.5,0.8,1.2,1.2,1.7c3.9,5.8,8.8,11.1,13.3,15.2c1.3,1.3,2.5,2.6,3.8,3.9c1.2,1.3,2.5,2.6,3.7,3.9c2.5,2.6,4.8,5.4,7.2,8.1
			c4.7,5.4,9.3,10.9,13.9,16.1l0,0l0,0l0,0l33,39c0.1,0.1,0.4,0.3,0.8,0.5c0.3,0.1,0.5,0.4,0.8,0.5c0.4,0.3,0.8,0.5,1,0.5
			s0.7,0.1,0.9,0.1c0.1,0,0.3,0,0.3,0c0.3,0,0.5,0,0.8,0.1c0.1,0,0.3,0,0.3,0c0.3,0,0.5,0,0.9,0h0.1c0.4,0,0.7,0,1,0
			c0.1,0,0.1,0,0.3,0c0.4,0,0.8,0,1.3,0h0.1l0,0c0.4,0,0.9-0.1,1.3-0.1c0.1,0,0.1,0,0.3,0c0.4,0,0.9-0.1,1.3-0.1c0.1,0,0.1,0,0.3,0
			c0.4-0.1,0.9-0.1,1.3-0.3h0.1c0.4-0.1,0.9-0.3,1.3-0.4c0.1,0,0.1,0,0.3-0.1c0.4-0.1,0.9-0.3,1.3-0.4c0.1,0,0.1,0,0.3-0.1
			c0.4-0.1,0.8-0.3,1.2-0.5h0.1c0.4-0.1,0.8-0.4,1.2-0.7c0.1,0,0.1-0.1,0.3-0.1c0.4-0.3,0.8-0.4,1-0.7c0.1,0,0.1-0.1,0.1-0.1
			c0.4-0.3,0.7-0.5,1-0.8l0,0c0.3-0.3,0.7-0.5,0.9-0.8l0.1-0.1c0.3-0.3,0.5-0.7,0.8-0.9l0.1-0.1c0.3-0.3,0.5-0.7,0.7-1l0,0
			c0.1-0.3,0.3-0.7,0.5-0.9c-5.1-4.7-9.7-10.2-13.2-16.6c-4.2-7.2-5.8-15.4-5-23.4C238.2,605.2,232.4,596.2,226.3,586.9z"/>
	</g>
</g>
</svg>
