<?xml version="1.0" encoding="utf-8"?>
<!-- Generator: Adobe Illustrator 26.2.1, SVG Export Plug-In . SVG Version: 6.00 Build 0)  -->
<svg version="1.1" id="Capa_1" xmlns="http://www.w3.org/2000/svg" xmlns:xlink="http://www.w3.org/1999/xlink" x="0px" y="0px"
	 viewBox="0 0 362.4 273.9" style="enable-background:new 0 0 362.4 273.9;" xml:space="preserve">
<style type="text/css">
	.st0{fill:#22876A;}
	.st1{fill:#E4A85A;}
</style>
<path class="st0" d="M147.6,256.1c-3.7-1.4-5.4-2-9.1-3.4c1.4-4.4,2-11.5-0.7-19c-3-8.5-9.1-15.2-12.5-19c-1.4-1.4-3-1.4-4.1,0
	c-2.4,3.7-6.4,11.2-4.1,20.3c1,3.7,2.7,7.1,5.1,10.2c-7.8-4.1-11.2-6.4-18.3-11.5c2.4-4.1,4.7-10.8,4.1-18.3
	c-0.7-8.8-5.1-16.9-7.1-21c-0.7-1.4-2.7-2-4.1-0.7c-3,3-8.8,9.5-8.8,18.6c0,3.7,1,7.4,2.4,10.8c-6.4-5.8-9.1-8.8-14.9-14.9
	c3-3.4,7.1-9.1,8.5-16.9c1.4-8.8-0.7-17.3-2-22c-0.3-1.7-2.4-2.4-3.7-1.7c-3.7,2.4-10.8,7.1-12.9,15.9c-1,3.7-0.7,7.4-0.3,11.2
	c-4.7-6.8-6.8-10.5-10.8-17.9c3.7-2.7,9.1-7.4,12.2-14.6c3.4-8.1,3.4-16.9,3-21.7c0-1.7-1.7-3-3-2.4c-4.1,1.4-12.2,4.4-16.2,12.5
	c-1.7,3.4-2.4,7.1-2.7,10.8c-3-7.8-4.4-11.8-6.4-20c4.4-1.7,10.5-5.1,15.2-11.2c5.1-7.1,7.1-15.9,8.1-20.6c0.3-1.7-1-3.4-2.4-3
	c-4.4,0.3-12.9,1.7-18.6,8.5c-2.4,3-4.1,6.4-5.1,10.2c-1-8.5-1.4-12.5-1.7-21.3c4.7-0.7,11.5-2.4,17.3-7.4
	c6.8-5.8,10.8-14.2,12.9-19c0.7-1.7,0-3.4-1.7-3.7c-4.6-0.6-13.1-1.3-20.5,4.1c-3,2.4-5.4,5.4-7.4,8.8c1-9.5,1.7-14.2,4.1-23.7
	c0.7-3.4-0.3-6.4-2.7-7.1c-2.4-0.7-5.1,1.7-5.8,5.1c-2.4,9.8-3.4,14.9-4.4,24.7c-1.4-3.7-2.7-7.8-4.7-11.2
	c-5.1-8.8-12.5-12.2-16.9-13.5c-1.4-0.3-3,1.7-3.4,4.4c-0.3,7.1,1,20.6,7.1,29.1c5.4,7.1,12.5,9.1,16.9,9.5c0,9.1,0.3,13.5,1.7,22.3
	c-2-3.4-4.4-6.8-7.4-9.5c-7.1-6.8-15.2-8.5-19.6-8.8c-1.7,0-2.7,2.4-2,4.7c1.7,6.8,6.1,19.3,13.9,25.7c6.8,5.8,14.2,5.8,18.6,5.1
	c2,8.5,3.4,12.9,6.8,21c-2.7-2.7-5.8-5.4-9.1-7.4c-8.5-5.1-16.9-4.7-21-3.7c-1.7,0.3-2,3-1,5.1c3,6.1,10.2,16.9,19.3,21.3
	c7.8,3.7,14.9,2.4,19.3,0.7c4.1,7.8,6.4,11.5,11.5,19c-3.4-2-6.8-4.1-10.8-5.1c-9.5-3-17.3-0.7-21.3,1.4c-1.4,0.7-1.4,3.4,0.3,5.1
	c4.4,5.4,13.9,14.2,23.7,16.6c8.5,2,15.2-1.4,19-3.7c5.8,6.8,8.8,9.8,15.6,15.9c-3.7-1.4-7.8-2.4-11.8-2.4
	c-9.8-0.7-16.9,3.4-20.3,6.1c-1.4,1-0.7,3.4,1.4,5.1c5.4,4.1,16.9,10.8,27.1,10.8c8.8,0,14.6-4.7,17.6-8.1
	c7.4,5.4,11.2,7.8,19.3,11.8c-4.1-0.3-8.1-0.3-12.2,0.3c-9.8,1.7-15.9,7.1-18.6,10.5c-1,1.4,0.3,3.7,2.7,4.7
	c6.4,2.7,19.3,6.8,29.4,4.4c8.8-2,13.2-7.8,15.6-11.8c3.7,1.7,5.8,2.4,9.8,3.7c3.4,1,6.8,0,7.4-2.4
	C153,259.8,150.6,257.4,147.6,256.1L147.6,256.1z"/>
<path class="st0" d="M348.3,138.9c7.8-6.4,12.2-19,13.9-25.7c0.7-2.4-0.7-5.1-2-4.7c-4.4,0-12.5,1.7-19.6,8.8
	c-2.7,2.7-5.4,6.1-7.4,9.5c1.4-8.8,1.7-13.2,1.7-22.3c4.7-0.7,11.8-2.4,16.9-9.5c6.1-8.1,7.4-21.7,7.1-29.1c0-2.7-1.7-4.7-3.4-4.4
	c-4.1,1.4-11.8,4.7-16.9,13.5c-2,3.4-3.7,7.4-4.7,11.2c-1-9.8-1.7-14.9-4.4-24.7c-1-3.4-3.7-5.8-5.8-5.1c-2.4,0.7-3.4,4.1-2.7,7.1
	c2.4,9.5,3,14.2,4.1,23.7c-2-3.4-4.4-6.4-7.4-8.8c-7.4-5.8-15.9-5.1-20.3-4.1c-1.7,0.3-2.4,2-1.7,3.7c2,4.4,6.1,12.9,12.9,19
	c5.8,5.1,12.9,7.1,17.3,7.4c0,8.5-0.3,12.9-1.7,21.3c-1-3.7-2.7-7.1-5.1-10.2c-5.8-7.1-14.2-8.5-18.6-8.5c-1.7,0-2.7,1.4-2.4,3
	c1,4.7,2.7,13.5,8.1,20.6c4.4,6.1,10.8,9.5,15.2,11.2c-2,8.1-3.4,12.2-6.4,20c-0.3-3.7-1-7.4-2.7-10.8c-4.1-8.1-12.2-11.2-16.2-12.5
	c-1.4-0.3-3,0.7-3,2.4c-0.3,4.7-0.3,13.9,3,21.7c3,7.1,8.1,11.8,12.2,14.6c-3.7,7.4-6.1,11.2-10.8,17.9c0.7-3.7,0.7-7.4-0.3-11.2
	c-2-8.8-9.1-13.9-12.9-15.9c-1.4-0.7-3,0-3.7,1.7c-1.4,4.4-3.4,13.2-2,22c1.4,7.4,5.4,13.5,8.5,16.9c-5.4,6.4-8.5,9.5-14.9,14.9
	c1.4-3.4,2.4-7.1,2.4-10.8c0-9.1-5.8-15.6-8.8-18.6c-1-1-3-0.7-4.1,0.7c-2.4,4.1-6.4,12.2-7.1,21c-0.7,7.8,2,14.2,4.1,18.3
	c-6.8,5.1-10.5,7.4-18.3,11.5c2.4-3,4.4-6.4,5.1-10.2c2.4-9.1-1.7-16.6-4.1-20.3c-0.7-1.4-2.7-1.4-4.1,0c-3.4,3.4-9.5,10.5-12.5,19
	c-2.7,7.4-1.7,14.6-0.7,19c-3.7,1.4-5.4,2-9.1,3.4c-3.4,1-5.4,3.7-4.7,6.1s4.1,3.4,7.4,2.4c4.1-1.4,5.8-2,9.8-3.7
	c2.4,4.1,6.8,9.8,15.6,11.8c10.2,2.4,23-1.4,29.4-4.4c2.4-1,3.7-3.4,2.7-4.7c-2.7-3.4-8.8-9.1-18.6-10.5c-4.1-0.7-8.1-0.7-12.2-0.3
	c8.1-4.4,11.8-6.8,19.3-11.8c3,3.4,8.8,8.1,17.6,8.1c10.2,0,21.7-6.4,27.1-10.8c2-1.4,2.7-4.1,1.4-5.1c-3.4-2.7-10.8-6.8-20.3-6.1
	c-4.1,0.3-8.1,1.4-11.8,2.4c6.8-6.1,9.8-9.1,15.6-15.9c3.7,2.7,10.5,5.8,19,3.7c9.8-2,19.3-11.2,23.7-16.6c1.7-2,1.7-4.4,0.3-5.1
	c-4.1-2-11.8-4.1-21.3-1.4c-3.7,1-7.4,3-10.8,5.1c5.1-7.1,7.4-11.2,11.5-19c4.4,1.7,11.5,3.4,19.3-0.7c9.1-4.4,16.2-15.2,19.3-21.3
	c1-2.4,0.7-4.7-1-5.1c-4.4-1-12.5-1.4-21,3.7c-3.4,2-6.4,4.7-9.1,7.4c3.4-8.1,4.7-12.5,6.8-21C334.1,144.4,341.6,144.4,348.3,138.9
	L348.3,138.9z"/>
<path d="M181.4,232.6c-67.3,0-122.1-52.2-122.1-116.3S114.1,0,181.4,0s122.1,52.2,122.1,116.3S248.7,232.6,181.4,232.6z"/>
<g>
	<path class="st1" d="M243,140.3c-1.7-0.2-2.2-0.1-2.2-0.1l-27.7,46.7l-25.3-6.9l17.5,24.4L145,224.7c11.5,3.5,23.7,5.4,36.4,5.4
		c43,0,80.7-21.7,101.8-54.1C275.2,167.3,251.8,142.7,243,140.3z"/>
	<path class="st1" d="M117.1,212.3c1,0.6,1.9,1.1,2.9,1.7c-0.6-1.4-1.3-2.9-1.8-4.4C117.9,210.7,117.5,211.5,117.1,212.3z"/>
	<path class="st1" d="M224.8,116.3c-0.5-2.5-1-5.8-0.9-9.7c-6.2-2.3-16.7-4.8-19.3,0.4c-0.3,0.6-0.9,0.9-1.5,0.8s-1.1-0.5-1.3-1.1
		c-2-7.2-4.4-12.6-6.5-15.5c0.3-0.5,0.6-0.9,0.8-1.4c0.3-0.5,0.5-0.9,0.8-1.4c15.7-28.5-7.8-22.1-7.8-22.1
		c-9.9,10.5-11.1,31.4-5.4,34.5c0.9,0.5,1.9,0.5,3.2,0c-5.3,16.1-19.2,30.6-34,35.1c-1.6,0.5-3.2,0.9-4.8,1.1
		c1.7,0.9,7.1,4.1,11.7,8.4c-3.1,3.1-8.4,7.5-11.7,5.8c-6.3-3.2-18.8,19.2-24.8,37.7c9.8-13.7,28-34,36.6-43.4
		c0.7,0.7,1.5,1.5,2.2,2.2c-8.9,23.5-26.3,57.5-33.3,70.8c0.4,0.2,0.7,0.3,1.1,0.5C146.4,198.7,207.6,124.6,224.8,116.3z"/>
	<path class="st1" d="M139,92.7c3.2,2.7,4.8,9,5.2,14.1c7.9-3.4,17.5-10,21-17.6c3.1-6.9,4.1-16.5,4.9-25.8
		c1-10.5,1.9-19.9,5.9-24.5c-6.8-0.5-18.8-2.1-22.4-6.7c-3.9,3.9-17.5,17.6-19.4,23.1l-2.9-1.8c0,0,0,0.1,0,0.2
		c0.9,0.4,1.8,1,2.9,1.7c0,0,12,2.8,13.3,11.8c0,0,2.3,0.8-10.8-3.5l0,0c-0.7,1.3-10.6,19.9-14.6,21.9c-3.5,1.8-2.5,6.9,3.5,7.5
		c2.1-2.1,4.9-2.3,6-2.3C133.9,90,136.6,90.6,139,92.7z"/>
	<path d="M147.5,67.3c-1.3-9-13.3-11.8-13.3-11.8c-1.1-0.7-2.1-1.3-2.9-1.7c-0.2,1.1-0.9,6.8,5.4,9.9c0,0,0,0,0,0.1l0,0
		C149.8,68.1,147.5,67.3,147.5,67.3z"/>
	<path class="st1" d="M186.8,100.8c-1.2,0.5-2.3,0.5-3.2,0c-5.2,14.8-18,28-31.7,32.2c-6.5,2-16.1,2.8-24.8-4.6
		c-0.5-7,0-13.7,1.1-14.8l0,0c0.3,0.1,0.6,0.2,0.9,0.1h0.1c0.6,1.8,1,3.9,1,6.4c0,0.4,0.2,0.8,0.5,1.1c0.3,0.2,0.6,0.4,1,0.4
		c0.1,0,0.1,0,0.2,0c0.4-0.1,10.4-1.5,12.9-11.2c0.1-0.5,0.2-1.1,0.3-1.6c0.1,0,0.1,0,0.2-0.1c11.6-4.8,19.2-10.9,22.5-18.3
		s4.3-17.2,5.2-26.8c1.1-11.8,2.2-22.9,7.7-24.6c0.5-0.1,0.9-0.5,1.1-1c0.2-0.5,0-1.1-0.4-1.5c-0.3-0.3-0.8-0.5-1.2-0.4
		c-3,0.1-21.1-1.3-24.4-5.9l-0.1-0.1c-1-1.1-3.5-4.6-2.8-7.4c0.4-1.6,1.9-2.9,4.4-3.8c7.8-2.8,19.3-1.4,26.9-0.5
		c2.7,0.3,4.9,0.6,6.3,0.6c4.5,0,40.7,12.1,43.1,28.1c0.1,0.3,6.1,33.3-7.1,57.3c-1.8-0.7-5.5-2.1-9.5-2.9
		c-7.1-1.4-11.1-0.3-13.4,1.6c-1.4-4.3-3.8-11.1-7-14.7c-0.2,0.4-0.5,0.9-0.8,1.4s-0.6,1-0.8,1.4c2.1,2.9,4.5,8.3,6.5,15.5
		c0.2,0.6,0.7,1,1.3,1.1s1.2-0.3,1.5-0.8c2.6-5.2,13.1-2.7,19.3-0.4c1.1,0.4,2.1,0.8,2.8,1.1c0.7,0.3,1.5,0,1.9-0.6
		c14.6-25.1,8.4-59.1,8.1-60.5C233.6,28.4,195.5,16,190.3,16c-1.2,0-3.4-0.3-6-0.6c-7.9-0.9-19.8-2.4-28.3,0.7
		c-3.5,1.3-5.7,3.3-6.3,5.9c-1.1,4.6,2.9,9.4,3.5,10l0.1,0.1c3.6,4.5,15.6,6.1,22.4,6.7c-3.9,4.6-4.8,14-5.9,24.5
		c-0.9,9.3-1.8,18.9-4.9,25.8c-3.5,7.6-12,12.9-19.9,16.3c-0.4-5.1-3.1-10.1-6.3-12.8c-2.5-2.1-5.1-2.7-7.5-1.8c-1,0-3.9,0.2-6,2.3
		c-0.2,0.2-0.4,0.3-0.5,0.5c-2.2,2.6-2.4,6.8-0.8,12.3c0.1,0.3,0.3,0.6,0.5,0.8c0,0,1.6,1.2,3.1,3.8c-0.5,0-0.9,0.2-1.3,0.5
		c-3.3,2.2-2.8,13.5-2.4,18.2c0,0.4,0.2,0.8,0.5,1c5.3,4.7,11.7,7,18.5,7c1.6,0,3.2-0.1,4.8-0.4c1.6-0.2,3.2-0.6,4.8-1.1
		C167.6,131.3,181.6,116.9,186.8,100.8z M127,104.7c-1.2-4.2-1.1-7.4,0.3-9.1c1.5-1.9,4.3-1.7,4.3-1.7c0.3,0,0.5,0,0.7-0.1
		c1.7-0.8,3.5,0.3,4.7,1.3c3.4,2.9,6.3,9.3,4.9,14.7c-1.5,5.7-6.3,7.8-8.8,8.6C132.6,110.3,128.4,105.9,127,104.7z"/>
</g>
<path class="st1" d="M181.4,5C116.8,5,64.3,54.9,64.3,116.3s52.5,111.3,117.1,111.3s117.1-49.9,117.1-111.3S246,5,181.4,5z
	 M181.4,232.6c-67.3,0-122.1-52.2-122.1-116.3S114.1,0,181.4,0s122.1,52.2,122.1,116.3S248.7,232.6,181.4,232.6z"/>
</svg>
