<?xml version="1.0" encoding="utf-8"?>
<!-- Generator: Adobe Illustrator 26.2.1, SVG Export Plug-In . SVG Version: 6.00 Build 0)  -->
<svg version="1.1" id="Capa_1" xmlns="http://www.w3.org/2000/svg" xmlns:xlink="http://www.w3.org/1999/xlink" x="0px" y="0px"
	 viewBox="0 0 452.5 294.7" style="enable-background:new 0 0 452.5 294.7;" xml:space="preserve">
<style type="text/css">
	.st0{fill:#FFFFFF;}
	.st1{fill:#22876A;}
</style>
<path class="st0" d="M0,0h142.1v294.7H0V0z"/>
<rect x="152.6" y="0" class="st1" width="299.9" height="294.7"/>
<path class="st0" d="M287.2,82.7c-12.5,10.7-20.3,25.9-21.7,42.4c-1.4,16.4,3.8,32.7,14.3,45.4c10.6,12.7,25.8,20.7,42.2,22.2
	c16.4,1.6,32.8-3.4,45.6-13.9c-4,7.4-9.4,13.9-15.9,19.3c-13.7,11.4-31.4,17-49.2,15.3c-17.8-1.6-34.2-10.2-45.6-23.9
	s-16.9-31.4-15.3-49.2c1.6-17.8,10.2-34.2,23.9-45.6C271.9,89.4,279.2,85.3,287.2,82.7L287.2,82.7z"/>
<polygon class="st0" points="329.6,91.1 341,103.6 356.4,96.6 348,111.3 359.4,123.8 342.8,120.4 334.4,135.1 332.5,118.3 
	315.9,114.9 331.3,107.9 "/>
</svg>
