<?xml version="1.0" encoding="utf-8"?>
<!-- Generator: Adobe Illustrator 25.4.1, SVG Export Plug-In . SVG Version: 6.00 Build 0)  -->
<svg version="1.1" id="Capa_1" xmlns="http://www.w3.org/2000/svg" xmlns:xlink="http://www.w3.org/1999/xlink" x="0px" y="0px"
	 viewBox="0 0 353.3 353.3" style="enable-background:new 0 0 353.3 353.3;" xml:space="preserve">
<style type="text/css">
	.st0{fill:#BCBEC0;}
</style>
<path class="st0" d="M176.7,0C79.2,0,0,79.2,0,176.7s79.2,176.7,176.7,176.7s176.7-79.2,176.7-176.7S274.1,0,176.7,0L176.7,0z
	 M161.7,30.6v139.9l-98.8,98.8c-20.6-25.3-33-57.5-33-92.6C29.9,100.8,87.8,38.1,161.7,30.6L161.7,30.6z M84,290.4l77.7-77.7v110
	C132.4,319.7,105.7,308.1,84,290.4L84,290.4z M191.6,322.7v-110l77.7,77.7C247.7,308.1,220.9,319.7,191.6,322.7L191.6,322.7z
	 M290.4,269.3l-98.8-98.8V30.6c74,7.5,131.9,70.1,131.9,146C323.5,211.8,311.1,244,290.4,269.3L290.4,269.3z"/>
</svg>
