<?xml version="1.0" encoding="utf-8"?>
<!-- Generator: Adobe Illustrator 25.4.1, SVG Export Plug-In . SVG Version: 6.00 Build 0)  -->
<svg version="1.1" id="Capa_1" xmlns="http://www.w3.org/2000/svg" xmlns:xlink="http://www.w3.org/1999/xlink" x="0px" y="0px"
	 viewBox="0 0 700.6 396.3" style="enable-background:new 0 0 700.6 396.3;" xml:space="preserve">
<style type="text/css">
	.st0{fill:none;}
	.st1{fill:#BCBEC0;}
</style>
<g>
	<path class="st0" d="M251.6,187.6c-15.9-2.4-33,0.8-51.9,1.6c2.3,15.6,4.5,28.2,6.6,40.6c-2.3,0.9-3.8,1.7-6.2,2.7
		c-5.3-10.7-10.5-22.3-16.6-33.8c-13.9,21.1-8.1,43.7,11.6,44.3l0,0c18.9,0.7,37.8-1,55.8-2.6c11.7-1.4,17.8-7.9,16.4-20.4
		C265.9,206.6,269.8,189.9,251.6,187.6z"/>
	<path class="st1" d="M528.8,111.8c-14.7-3.7-31.2-5.7-45.7-6.6c19.2-11.2,41.5-39,42.3-105.2c0,0-52.2,29.2-70.6,104.9
		c-10.2,0.5-19.6,0.9-27.4,2.1c0.7-6-8.2-16.8-12.5-15.9c-18,2.4-31.7-5.6-46.3-14.3c-1.6-0.7-4.8-0.6-7.9-1.2
		c-0.6,5.5-1.1,10.3-2.4,16.7l-18.1,0.8L36.9,107.3c-17.3,0.8-24.1,7.4-22.5,24.6c1.5,14.1,2.9,27.4-8.3,39.7
		c-20.2,35,74.2-7.3,40.3,69.7C31.6,278.3,16.8,315.2,2.7,352c-6.3,16-1.8,27.6,14.9,30.8c34.1,5.5,69,9.4,103.7,13.3
		c14.3,1.7,17.7-8.7,14-20.3l0,0c-11.9-31.7,13.7-72.1,21.9-103.4c3.5-10.4,9.5-16.2,21.3-16c19.7,0.6,39.4,1.3,58.3,0.4
		c50.4-1.6,48-1.5,44.9-48.6c-1.9-15.1,3.6-22.5,19.3-23c30.6-0.7,61.3-2.9,91.9-4.3c14.9-0.7,27.4-2.1,23.3-22.4
		c-2.8-17.7,19.4-12.6,13.1-39.2c8.7,0.3,18.9-0.1,29.1,0.2c1.1,55.1,32.3,83.5,32.3,83.5c11-50.9-2.6-73.1-15.7-82.7
		c18.4,0.6,40.9,3.8,59.6,8.6c-2.1-3.4-3.8-7.4-4.9-11.9C529.4,115.4,529.1,113.7,528.8,111.8z M250.9,240.3
		c-18,1.6-36.8,3.3-55.8,2.6l0,0c-19.7-0.6-25.5-23.2-11.6-44.3c6,11.5,11.3,23.1,16.6,33.8c2.3-0.9,3.8-1.7,6.2-2.7
		c-2.1-12.5-4.4-25-6.6-40.6c18.8-0.9,36-4,51.9-1.6c18.2,2.3,14.2,19,15.7,32.3C268.6,232.5,262.6,239.1,250.9,240.3z"/>
	<path class="st1" d="M634.2,172.1l6.2,1.2l6.1,1l6.1,0.9c2.1,0.2,4.1,0.8,6.2,1.3c2,0.5,4.1,1.2,6.2,1.6c2.1,0.4,4.1,0.8,6.1,0.6
		c2.1-0.1,4-0.6,6-1.3c4-1.4,7.8-3.6,11.8-6.7c3.8-3.2,7.6-7,11.3-12.9c0.8-1.2,0.7-2.8-0.3-3.9c-4.5-5.5-8.7-8.7-12.9-11.3
		c-4.3-2.6-8.4-4.2-12.5-5c-2.1-0.4-4.1-0.6-6.2-0.4c-2,0.2-4,0.7-5.9,1.5c-2,0.8-3.9,1.7-6,2.5c-2,0.8-3.9,1.6-6,2.1l-6,1.7
		l-5.9,1.8l-6,2l-6,2.1c-0.2,0.1-0.3,0.1-0.6,0.2c0.1-0.1,0.4-0.2,0.5-0.3l5.2-3.5l5.1-3.5l5.1-3.6l5-3.7c1.7-1.3,3.4-2.3,5.2-3.5
		c1.9-1,3.8-2,5.6-3.2s3.5-2.3,4.8-3.9c1.3-1.5,2.4-3.3,3.3-5.1c1.7-3.8,3.1-8.1,3.6-13c0.4-4.9,0.5-10.3-1.1-17.1
		c-0.3-1.4-1.5-2.5-3-2.6c-7-0.7-12.3,0-17.1,1.1c-4.8,1.2-8.8,3-12.4,5.3c-1.8,1.2-3.3,2.5-4.6,4c-1.4,1.6-2.4,3.4-3.2,5.3
		c-0.8,2-1.6,4-2.4,5.9c-0.8,2-1.7,3.9-2.7,5.6l-3,5.4l-2.9,5.5l-2.8,5.6l-2.7,5.6c0,0.2-0.2,0.4-0.2,0.5c0-0.2,0.1-0.4,0.1-0.5
		l1.3-6.2l1.2-6.2l1-6.1l0.9-6.1c0.2-2.1,0.8-4.1,1.3-6.2s1.2-4.1,1.6-6.2c0.4-2.1,0.8-4.1,0.6-6.1c-0.1-2.1-0.6-4-1.3-6
		c-1.4-4-3.6-7.8-6.7-11.8c-3.2-3.8-7-7.6-12.9-11.3c-1.2-0.8-2.8-0.7-3.9,0.3c-5.5,4.5-8.7,8.7-11.3,12.9c-2.6,4.3-4.2,8.4-5,12.5
		c-0.4,2.1-0.6,4.1-0.4,6.2c0.2,2,0.7,4,1.5,5.9c0.8,2,1.7,3.9,2.5,6s1.6,3.9,2.1,6l1.7,6l1.8,5.9l2,6l2.1,6
		c0.1,0.2,0.1,0.3,0.2,0.6c-0.1-0.1-0.2-0.4-0.3-0.5l-3.5-5.2l-3.5-5.1l-3.6-5.1l-3.7-5c-1.3-1.7-2.3-3.4-3.5-5.2
		c-1-1.9-2-3.8-3.2-5.6c-1.2-1.8-2.3-3.5-3.9-4.8c-1.5-1.3-3.3-2.4-5.1-3.3c-3.8-1.7-8.1-3.1-13-3.6c-4.9-0.4-10.3-0.5-17.1,1.1
		c-1.4,0.3-2.5,1.5-2.6,3c-0.5,4.5-0.4,8.3,0.1,11.8c0.2,1.9,0.7,3.6,1,5.3c1.2,4.5,2.9,8.5,4.9,11.9c0.1,0.2,0.2,0.4,0.3,0.6
		c1.2,1.8,2.5,3.3,4,4.6c1.5,1.4,3.4,2.4,5.3,3.2c2,0.8,4,1.6,5.9,2.4c2,0.8,3.9,1.7,5.6,2.7l5.4,3l5.5,2.9l5.6,2.8l5.6,2.7
		c0.2,0,0.4,0.2,0.5,0.2c-0.2,0-0.4-0.1-0.5-0.1l-6.2-1.3l-6.2-1.2l-5.9-1.2l-6.1-0.9c-2.1-0.2-4.1-0.8-6.2-1.3
		c-2-0.5-4.1-1.2-6.2-1.6c-2.1-0.4-4.1-0.8-6.1-0.6c-2.1,0.1-4,0.6-6,1.3c-4,1.4-7.8,3.6-11.8,6.7c-3.8,3.2-7.6,7-11.3,12.9
		c-0.8,1.2-0.7,2.8,0.3,3.9c4.5,5.5,8.7,8.7,12.9,11.3c4.3,2.6,8.4,4.2,12.5,5c2.1,0.4,4.1,0.6,6.2,0.4c2-0.2,4-0.7,5.9-1.5
		c2-0.8,3.9-1.7,6-2.5c2-0.8,3.9-1.6,6-2.1l6-1.7l5.9-1.8l6-2l6-2.1c0.2-0.1,0.3-0.1,0.6-0.2c-0.1,0.1-0.4,0.2-0.5,0.3l-5.2,3.5
		l-5.1,3.5l-5.1,3.6l-5,3.7c-1.7,1.3-3.4,2.3-5.2,3.5c-1.9,1-3.8,2-5.6,3.2s-3.5,2.3-4.8,3.9c-1.3,1.5-2.4,3.3-3.3,5.1
		c-1.7,3.8-3.1,8.1-3.6,13c-0.4,4.9-0.5,10.3,1.1,17.1c0.3,1.4,1.5,2.5,3,2.6c7,0.7,12.3,0,17.1-1.1c4.8-1.2,8.8-3,12.4-5.3
		c1.8-1.2,3.3-2.5,4.6-4s2.4-3.4,3.2-5.3c0.8-2,1.6-4,2.4-5.9c0.8-2,1.7-3.9,2.7-5.6l3-5.4l2.9-5.5l2.8-5.6l2.7-5.6
		c0-0.2,0.2-0.4,0.2-0.5c0,0.2-0.1,0.4-0.1,0.5l-1.3,6.2l-1.2,6.2l-1,6.1l-0.9,6.1c-0.2,2.1-0.8,4.1-1.3,6.2s-1.2,4.1-1.6,6.2
		c-0.4,2.1-0.8,4.1-0.6,6.1c0.1,2.1,0.6,4,1.3,6c1.4,4,3.6,7.8,6.7,11.8c3.2,3.8,7,7.6,12.9,11.3c1.2,0.8,2.8,0.7,3.9-0.3
		c5.5-4.5,8.7-8.7,11.3-12.9c2.6-4.3,4.2-8.4,5-12.5c0.4-2.1,0.6-4.1,0.4-6.2c-0.2-2-0.7-4-1.5-5.9c-0.8-2-1.7-3.9-2.5-6
		s-1.6-3.9-2.1-6l-1.7-6l-1.8-5.9l-2-6l-2.1-6c-0.1-0.2-0.1-0.3-0.2-0.6c0.1,0.1,0.2,0.4,0.3,0.5l3.5,5.2l3.5,5.1l3.6,5.1l3.7,5
		c1.3,1.7,2.3,3.4,3.5,5.2c1,1.9,2,3.8,3.2,5.6c1.2,1.8,2.3,3.5,3.9,4.8c1.5,1.3,3.3,2.4,5.1,3.3c3.8,1.7,8.1,3.1,13,3.6
		c4.9,0.4,10.3,0.5,17.1-1.1c1.4-0.3,2.5-1.5,2.6-3c0.7-7,0-12.3-1.1-17.1c-1.2-4.8-3-8.8-5.3-12.4c-1.2-1.8-2.5-3.3-4-4.6
		c-1.5-1.4-3.4-2.4-5.3-3.2c-2-0.8-4-1.6-5.9-2.4c-2-0.8-3.9-1.7-5.6-2.7l-5.4-3l-5.5-2.9l-5.6-2.8l-5.6-2.7c-0.2,0-0.4-0.2-0.5-0.2
		c0.2,0,0.4,0.1,0.5,0.1L634.2,172.1z M644.5,195.3c1,0.9,1.1,2.5,0.3,3.5c-0.7,0.7-1.5,1-2.4,0.8c-0.4-0.1-0.8-0.3-1.1-0.5
		L606,168.3l3.2,46.6c0.1,1.4-1,2.6-2.3,2.7c-0.2,0.1-0.5,0-0.7,0c-1.1-0.2-1.9-1.1-2-2.3l-3.2-46.6l-30.8,35.1
		c-0.7,0.7-1.5,1-2.4,0.8c-0.4-0.1-0.8-0.3-1.1-0.5c-1-0.9-1.1-2.5-0.3-3.5l30.8-35.1l-46.6,3.2c-0.2,0.1-0.5,0-0.7,0
		c-1.1-0.2-1.9-1.1-2-2.3c-0.1-1.4,1-2.6,2.3-2.7l46.6-3.2l-35.1-30.8c-1-0.9-1.1-2.5-0.3-3.5c0.9-1,2.5-1.1,3.5-0.3l35.1,30.8
		l-3.1-46.7c-0.1-1.4,1-2.6,2.3-2.7c1.4-0.1,2.6,1,2.7,2.3l3.2,46.6L636,121c0.9-1,2.5-1.1,3.5-0.3c1,0.9,1.1,2.5,0.3,3.5L609,159.5
		l46.6-3.2c1.4-0.1,2.6,1,2.7,2.3c0.1,1.4-1,2.6-2.3,2.7l-46.6,3.2L644.5,195.3z"/>
	<path d="M609.3,164.5l46.6-3.2c1.4-0.1,2.4-1.3,2.3-2.7c-0.1-1.4-1.3-2.4-2.7-2.3l-46.6,3.2l30.8-35.1c0.9-1,0.8-2.6-0.3-3.5
		c-1-0.9-2.6-0.8-3.5,0.3l-30.7,35.1l-3.2-46.6c-0.1-1.4-1.3-2.4-2.7-2.3c-1.4,0.1-2.4,1.3-2.3,2.7l3.2,46.6L565,125.8
		c-1-0.9-2.6-0.8-3.5,0.3c-0.9,1-0.8,2.6,0.3,3.5l35.1,30.8l-46.6,3.2c-1.4,0.1-2.4,1.3-2.3,2.7c0.1,1.1,0.9,2,2,2.3
		c0.2,0,0.5,0.1,0.7,0l46.6-3.2l-30.8,35.1c-0.9,1-0.8,2.6,0.3,3.5c0.3,0.3,0.7,0.5,1.1,0.5c0.9,0.2,1.8-0.1,2.4-0.8l30.8-35.1
		l3.2,46.6c0.1,1.1,0.9,2,2,2.3c0.2,0,0.5,0.1,0.7,0c1.4-0.1,2.4-1.3,2.3-2.7l-3.2-46.6l35.1,30.8c0.3,0.3,0.7,0.5,1.1,0.5
		c0.9,0.2,1.8-0.1,2.4-0.8c0.9-1,0.8-2.6-0.3-3.5L609.3,164.5z"/>
</g>
</svg>
