<?xml version="1.0" encoding="utf-8"?>
<!-- Generator: Adobe Illustrator 25.4.1, SVG Export Plug-In . SVG Version: 6.00 Build 0)  -->
<svg version="1.1" id="Capa_1" xmlns="http://www.w3.org/2000/svg" xmlns:xlink="http://www.w3.org/1999/xlink" x="0px" y="0px"
	 viewBox="0 0 604.3 250" style="enable-background:new 0 0 604.3 250;" xml:space="preserve">
<style type="text/css">
	.st0{fill:none;}
	.st1{fill:#BCBEC0;}
</style>
<g>
	<g>
		<path class="st0" d="M233.3,197.2l0.3,0.3c0.5,0.4,0.8,1.1,0.8,1.7c0.6-0.1,1.3,0,1.8,0.4l0.4,0.3c0.5,0.4,0.8,1.1,0.8,1.7
			c0.5-0.1,1,0,1.5,0.2l-0.2-0.2c-0.4-0.5-0.6-1.2-0.4-1.9c-0.6,0-1.3-0.3-1.7-0.9l-0.3-0.4c-0.4-0.6-0.5-1.3-0.3-1.9
			c-0.6,0-1.3-0.3-1.7-0.9l-0.3-0.4c-0.4-0.6-0.5-1.3-0.3-1.9c-0.6,0-1.3-0.4-1.7-1l-0.3-0.4c-0.4-0.6-0.4-1.3-0.2-1.9
			c-0.6-0.1-1.3-0.4-1.6-1l-0.2-0.4c-0.3-0.6-0.4-1.3-0.2-1.9c-0.6-0.1-1.2-0.5-1.6-1.1l-0.2-0.4c-0.3-0.6-0.4-1.3-0.1-1.9
			c-0.6-0.1-1.2-0.5-1.6-1.1l-0.2-0.4c-0.3-0.6-0.3-1.3-0.1-1.9c-0.6-0.1-1.2-0.5-1.5-1.1l-0.2-0.4c-0.3-0.6-0.3-1.3,0-1.9
			c-0.6-0.1-1.2-0.5-1.5-1.2l-0.2-0.4c-0.3-0.6-0.3-1.3,0-1.9c-0.6-0.1-1.2-0.5-1.5-1.2l-0.2-0.4c-0.3-0.6-0.3-1.3,0-1.9
			c-0.6-0.1-1.2-0.6-1.5-1.2l-0.2-0.4c-0.3-0.6-0.3-1.3,0-1.9c-0.6-0.1-1.2-0.6-1.5-1.2l-0.2-0.4c-0.3-0.6-0.3-1.3,0-1.9
			c-0.6-0.1-1.2-0.6-1.5-1.2l-0.2-0.4c-0.3-0.6-0.3-1.3,0-1.9c-0.3,0-0.5-0.2-0.7-0.3c0,0.4-0.2,0.7-0.4,1c0.6,0.3,1,0.8,1.2,1.5
			l0.1,0.4c0.1,0.7,0,1.3-0.4,1.9c0.6,0.2,1,0.8,1.2,1.4l0.1,0.5c0.2,0.6,0,1.3-0.3,1.9c0.6,0.2,1.1,0.7,1.2,1.4l0.1,0.4
			c0.2,0.6,0,1.3-0.3,1.9c0.6,0.2,1.1,0.7,1.3,1.4l0.1,0.4c0.2,0.6,0.1,1.3-0.2,1.9c0.6,0.2,1.1,0.7,1.3,1.3l0.1,0.4
			c0.2,0.6,0.1,1.3-0.2,1.9c0.6,0.2,1.1,0.6,1.4,1.3l0.2,0.4c0.2,0.6,0.2,1.3-0.1,1.9c0.6,0.2,1.1,0.6,1.4,1.3l0.2,0.4
			c0.2,0.6,0.2,1.3-0.1,1.9c0.6,0.1,1.1,0.6,1.4,1.2l0.2,0.4c0.3,0.6,0.2,1.3,0,1.9c0.6,0.1,1.2,0.5,1.5,1.2l0.2,0.4
			c0.2,0.4,0.2,0.8,0.2,1.2c0.6,0,1.2,0.1,1.7,0.6l0.3,0.3c0.5,0.5,0.7,1.1,0.7,1.8c0.6-0.1,1.3,0.1,1.8,0.5l0.3,0.3
			c0.5,0.4,0.8,1.1,0.7,1.7C232,196.6,232.7,196.8,233.3,197.2z"/>
		<path class="st0" d="M212.9,155c0,0,0.1,0,0.1,0.1c0-0.2,0.1-0.3,0.1-0.5l0,0C213.2,154.8,213.1,154.9,212.9,155z"/>
		<path class="st0" d="M229.3,198.8C229.3,198.9,229.3,198.9,229.3,198.8c0,0.1,0.2,0.1,0.3,0.2c0-0.1,0-0.1,0-0.2
			C229.5,198.8,229.4,198.8,229.3,198.8z"/>
		<path class="st0" d="M377.3,53.6C377.2,53.6,377.2,53.6,377.3,53.6C377.2,53.6,377.2,53.7,377.3,53.6L377.3,53.6
			C377.3,53.7,377.3,53.7,377.3,53.6z"/>
		<path class="st0" d="M353.7,224.8l-0.4,0.2c-0.6,0.3-1.3,0.3-1.9,0c-0.1,0.6-0.6,1.2-1.2,1.5l-0.4,0.2c-0.6,0.3-1.4,0.2-2,0
			c-0.1,0.6-0.6,1.2-1.3,1.5l-0.4,0.2c-0.6,0.3-1.4,0.2-2-0.1c-0.2,0.6-0.7,1.2-1.3,1.4l-0.5,0.2c-0.7,0.2-1.4,0.1-1.9-0.2
			c-0.2,0.6-0.7,1.1-1.4,1.3l-0.5,0.1c-0.7,0.2-1.4,0.1-1.9-0.3c-0.2,0.6-0.8,1.1-1.5,1.3l-0.5,0.1c-0.7,0.2-1.4,0-1.9-0.4
			c-0.3,0.6-0.8,1.1-1.5,1.2l-0.5,0.1c-0.7,0.1-1.4,0-1.9-0.5c-0.3,0.6-0.9,1-1.6,1.1l-0.5,0.1c-0.7,0.1-1.4-0.1-1.9-0.5
			c-0.3,0.5-0.9,1-1.6,1.1l-0.5,0c-0.1,0-0.1,0-0.2,0c-0.6,0-1.2-0.3-1.6-0.7c-0.4,0.7-1.2,1.2-2.1,1.2c-0.7,0-1.3-0.3-1.7-0.7
			c0,0-0.1-0.1-0.1-0.1c-0.4,0.5-1,0.9-1.7,0.9h-0.5h0c-0.7,0-1.3-0.3-1.7-0.8c-0.4,0.5-1,0.8-1.7,0.8c0,0,0,0,0,0h-0.5
			c-0.7,0-1.3-0.3-1.7-0.9c-0.4,0.5-1.1,0.8-1.8,0.7l-0.5,0c-0.7,0-1.3-0.4-1.7-1c-0.4,0.5-1.1,0.7-1.8,0.7l-0.5,0
			c-0.7-0.1-1.3-0.5-1.6-1c-0.5,0.4-1.1,0.7-1.9,0.6l-0.5,0c-0.7-0.1-1.3-0.5-1.6-1.1c-0.5,0.4-1.2,0.6-1.9,0.5l-0.5-0.1
			c-0.7-0.1-1.2-0.6-1.6-1.2c-0.5,0.4-1.2,0.6-1.9,0.4l-0.5-0.1c-0.7-0.1-1.2-0.6-1.5-1.2c-0.5,0.4-1.2,0.5-1.9,0.3l-0.5-0.1
			c-0.7-0.2-1.2-0.7-1.5-1.3c-0.5,0.4-1.2,0.5-1.9,0.3l-0.5-0.1c-0.7-0.2-1.2-0.7-1.4-1.3c-0.5,0.3-1.3,0.4-1.9,0.2l-0.5-0.1
			c-0.7-0.2-1.1-0.7-1.4-1.4c-0.5,0.3-1.3,0.4-1.9,0.1l-0.5-0.2c-0.6-0.2-1.1-0.8-1.3-1.4c-0.6,0.3-1.3,0.4-1.9,0.1l-0.4-0.2
			c-0.6-0.3-1.1-0.8-1.3-1.5c-0.6,0.3-1.3,0.3-1.9,0l-0.4-0.2c-0.6-0.3-1.1-0.8-1.2-1.5c-0.6,0.3-1.3,0.3-1.9,0l-0.4-0.2
			c-0.6-0.3-1-0.9-1.2-1.5c-0.6,0.2-1.3,0.2-1.9,0l-0.4-0.2c-0.6-0.3-1-0.9-1.1-1.6c-0.6,0.2-1.3,0.2-1.9-0.1l-0.4-0.2
			c-0.6-0.3-1-0.9-1.1-1.6c-0.6,0.2-1.3,0.2-1.9-0.2l-0.5-0.2c-0.6-0.3-1-1-1-1.6c-0.6,0.2-1.3,0.1-1.9-0.2l-0.4-0.2
			c-0.6-0.4-0.9-1-1-1.6c-0.6,0.2-1.3,0.1-1.9-0.2l-0.4-0.3c-0.6-0.4-0.9-1-1-1.7c-0.6,0.2-1.3,0.1-1.9-0.3l-0.4-0.3
			c-0.6-0.4-0.9-1-0.9-1.7c-0.6,0.1-1.3,0-1.9-0.3l-0.4-0.3c-0.5-0.4-0.9-1-0.9-1.7c-0.6,0.1-1.3,0-1.9-0.4l-0.4-0.3
			c-0.5-0.4-0.8-1.1-0.8-1.7c-0.6,0.1-1.3,0-1.9-0.4l-0.4-0.3c-0.5-0.4-0.8-1.1-0.8-1.8c-0.4,0.1-0.8,0-1.2-0.1c0,0.3,0,0.7-0.1,1
			c0.6,0.1,1.2,0.4,1.6,1l0.2,0.4c0.4,0.6,0.4,1.2,0.2,1.9c0.6,0,1.2,0.4,1.6,0.9l0.3,0.4c0.4,0.5,0.5,1.2,0.3,1.9
			c0.6,0,1.2,0.3,1.7,0.9l0.3,0.4c0.4,0.5,0.5,1.2,0.4,1.8c0.6,0,1.3,0.3,1.7,0.8l0.3,0.4c0.4,0.5,0.6,1.2,0.4,1.8
			c0.6,0,1.3,0.2,1.7,0.7l0.3,0.3c0.4,0.5,0.6,1.2,0.5,1.8c0.6,0,1.3,0.2,1.7,0.7l0.3,0.3c0.5,0.5,0.6,1.1,0.6,1.8
			c0.6,0,1.3,0.1,1.8,0.6l0.3,0.3c0.5,0.5,0.7,1.1,0.6,1.8c0.6-0.1,1.3,0.1,1.8,0.5l0.3,0.3c0.5,0.4,0.7,1.1,0.7,1.7
			c0.6-0.1,1.3,0,1.8,0.5l0.4,0.3c0.5,0.4,0.8,1.1,0.8,1.7c0.6-0.1,1.3,0,1.8,0.4l0.4,0.3c0.5,0.4,0.8,1,0.9,1.7
			c0.6-0.1,1.3,0,1.8,0.3l0.4,0.3c0.5,0.4,0.9,1,0.9,1.6c0.6-0.2,1.3-0.1,1.9,0.2l0.4,0.2c0.6,0.3,0.9,0.9,1,1.6
			c0.6-0.2,1.3-0.2,1.9,0.1l0.4,0.2c0.6,0.3,1,0.9,1.1,1.5c0.6-0.2,1.3-0.2,1.9,0l0.4,0.2c0.6,0.3,1,0.8,1.1,1.5
			c0.6-0.2,1.2-0.3,1.9,0l0.4,0.2c0.6,0.3,1,0.8,1.2,1.4c0.5-0.3,1.2-0.3,1.9-0.1l0.4,0.2c0.6,0.2,1.1,0.7,1.3,1.3
			c0.5-0.3,1.2-0.4,1.8-0.2l0.4,0.1c0.6,0.2,1.1,0.7,1.4,1.3c0.5-0.3,1.2-0.5,1.8-0.3l0.4,0.1c0.6,0.2,1.2,0.6,1.4,1.2
			c0.5-0.4,1.2-0.5,1.8-0.4l0.4,0.1c0.6,0.1,1.2,0.5,1.5,1.1c0.5-0.4,1.1-0.6,1.8-0.5l0.4,0.1c0.7,0.1,1.2,0.5,1.6,1
			c0.4-0.4,1.1-0.7,1.8-0.6l0.5,0c0.7,0,1.2,0.4,1.6,0.9c0.4-0.4,1-0.7,1.6-0.7c0,0,0.1,0,0.1,0h0.5c0.7,0,1.3,0.3,1.7,0.8
			c0.4-0.5,1-0.8,1.7-0.8h0.5l0,0c0.7,0,1.3,0.3,1.7,0.8c0.4-0.5,1-0.8,1.6-0.9l0.5,0c0.7,0,1.3,0.2,1.7,0.7
			c0.3-0.5,0.9-0.9,1.6-0.9l0.5,0c0.7-0.1,1.3,0.1,1.8,0.6c0.3-0.5,0.9-0.9,1.5-1l0.5-0.1c0.7-0.1,1.3,0.1,1.8,0.5
			c0.3-0.5,0.8-1,1.5-1.1l0.5-0.1c0.6-0.1,1.3,0,1.8,0.4c0.2-0.6,0.8-1,1.4-1.2l0.4-0.1c0.6-0.2,1.3,0,1.8,0.3
			c0.2-0.6,0.7-1.1,1.3-1.3l0.4-0.1c0.6-0.2,1.3-0.1,1.9,0.2c0.2-0.6,0.6-1.1,1.3-1.3l0.4-0.2c0.6-0.2,1.3-0.2,1.9,0.1
			c0.1-0.6,0.6-1.1,1.2-1.4l0.4-0.2c0.6-0.3,1.3-0.2,1.9,0c0.1-0.6,0.5-1.2,1.1-1.5l0.4-0.2c0.6-0.3,1.3-0.3,1.9-0.1
			c0.1-0.6,0.5-1.2,1.1-1.5l0.4-0.2c0.6-0.3,1.3-0.4,1.9-0.2c0.1-0.6,0.4-1.2,1-1.6l0.4-0.2c0.6-0.4,1.2-0.4,1.9-0.2
			c0-0.6,0.4-1.2,0.9-1.6l0.4-0.3c0.5-0.4,1.2-0.5,1.8-0.3c0-0.6,0.3-1.2,0.8-1.7l0.4-0.3c0.5-0.4,1.2-0.5,1.8-0.4
			c0-0.6,0.2-1.2,0.8-1.7l0.4-0.3c0.5-0.4,1.2-0.6,1.8-0.5c0-0.6,0.2-1.3,0.7-1.7l0.3-0.3c0.2-0.2,0.4-0.3,0.6-0.4
			c-0.3,0-0.6,0-0.9-0.1C354.7,223.8,354.3,224.4,353.7,224.8z"/>
		<path class="st0" d="M221.5,110.1c0-1,0-2.1,0-3.1c-2.7-6.2-5.1-12.4-6.5-18.8c-0.2,0.3-0.5,0.5-0.8,0.6c0.4,0.5,0.5,1.2,0.4,1.8
			l-0.1,0.5c-0.1,0.7-0.6,1.2-1.1,1.5c0.4,0.5,0.6,1.2,0.4,1.8l-0.1,0.5c-0.1,0.7-0.5,1.2-1.1,1.5c0.4,0.5,0.6,1.1,0.5,1.8l-0.1,0.5
			c-0.1,0.7-0.5,1.2-1.1,1.5c0.1,0.1,0.2,0.3,0.3,0.5C215.6,102,218.7,105.8,221.5,110.1z"/>
		<path class="st0" d="M240.1,202.8c0.3,0.4,0.5,0.8,0.5,1.3c0.1,0,0.2,0,0.4,0c-0.1-0.4-0.1-0.8-0.1-1.1
			C240.6,203,240.3,202.9,240.1,202.8z"/>
		<path class="st0" d="M393.8,136.8c0-0.7,0.4-1.3,0.9-1.6c-0.2-0.2-0.4-0.4-0.5-0.7c-2.8,3.6-5.5,7.4-6.8,11
			c-2.3,7.1-9.8,15-12.6,8.6c-0.2-1.3-0.8-3.3-2.6-2.8c-3.5,33-24.6,71.6-69.5,71.7l0,0h0h0l0,0c-45-0.1-66.1-38.7-69.7-71.7
			c-1.8-0.4-2.4,1.6-2.6,2.8c-2.9,6.4-10.3-1.4-12.6-8.6c-1.2-3.6-3.9-7.3-6.6-10.9c-0.1,0.4-0.3,0.7-0.6,1c0.5,0.3,0.9,1,0.9,1.6
			l0,0.5c0,0.7-0.2,1.3-0.7,1.8c0.5,0.3,0.9,0.9,1,1.6l0,0.5c0,0.6-0.1,1.2-0.5,1.7c0.2,0.2,0.4,0.4,0.6,0.6l0.2,0.3
			c0.2,0.5,0.3,1,0.2,1.5c0,0.1,0,0.3,0,0.4c0.6,0.1,1.2,0.5,1.5,1.1l0.2,0.4c0.3,0.6,0.3,1.3,0,1.9c0.6,0.1,1.2,0.5,1.5,1.2
			l0.2,0.4c0.3,0.6,0.3,1.3,0,1.9c0.6,0.1,1.2,0.5,1.5,1.2l0.2,0.4c0.3,0.6,0.3,1.3,0,1.9c0.6,0.1,1.2,0.6,1.5,1.2l0.2,0.4
			c0.3,0.6,0.3,1.3,0,1.9c0.6,0.1,1.2,0.6,1.5,1.2l0.2,0.4c0.3,0.6,0.3,1.3,0,1.9c0.6,0.1,1.2,0.6,1.5,1.2l0.2,0.4
			c0.3,0.6,0.3,1.3,0,1.9c0.6,0.1,1.2,0.5,1.5,1.2l0.2,0.4c0.3,0.6,0.3,1.3,0,1.9c0.6,0.1,1.2,0.5,1.5,1.2l0.2,0.4
			c0.3,0.6,0.3,1.3,0,1.9c0.6,0.1,1.2,0.5,1.5,1.1l0.2,0.4c0.3,0.6,0.3,1.3,0.1,1.9c0.6,0.1,1.2,0.5,1.5,1.1l0.2,0.4
			c0.3,0.6,0.3,1.3,0.1,1.9c0.6,0.1,1.2,0.5,1.6,1.1l0.2,0.4c0.3,0.6,0.4,1.3,0.1,1.9c0.6,0.1,1.2,0.4,1.6,1l0.2,0.4
			c0.3,0.6,0.4,1.3,0.2,1.9c0.6,0.1,1.2,0.4,1.6,1l0.2,0.4c0.4,0.6,0.4,1.2,0.2,1.9c0.6,0,1.2,0.4,1.6,0.9l0.3,0.4
			c0.4,0.5,0.5,1.2,0.3,1.9c0.6,0,1.2,0.3,1.7,0.9l0.4,0.4c0.4,0.5,0.5,1.2,0.4,1.8c0.6,0,1.2,0.3,1.7,0.8l0.3,0.4
			c0.4,0.5,0.6,1.2,0.4,1.8c0.6,0,1.3,0.2,1.7,0.7l0.3,0.3c0.4,0.5,0.6,1.2,0.5,1.8c0.6,0,1.3,0.2,1.7,0.7l0.3,0.3
			c0.5,0.5,0.7,1.1,0.6,1.8c0.6,0,1.3,0.1,1.8,0.6l0.3,0.3c0.5,0.5,0.7,1.1,0.7,1.7c0.6-0.1,1.3,0.1,1.8,0.5l0.3,0.3
			c0.5,0.4,0.8,1.1,0.7,1.7c0.6-0.1,1.3,0,1.8,0.4l0.4,0.3c0.5,0.4,0.8,1,0.8,1.7c0.6-0.1,1.3,0,1.8,0.3l0.4,0.3
			c0.5,0.4,0.9,1,0.9,1.6c0,0,0,0.1,0,0.1c0.6-0.2,1.3-0.2,1.9,0.1l0.4,0.2c0.6,0.3,1,0.9,1.1,1.5c0.6-0.2,1.3-0.2,1.9,0l0.4,0.2
			c0.6,0.3,1,0.8,1.2,1.5c0.6-0.3,1.3-0.3,1.9,0l0.4,0.2c0.6,0.3,1,0.8,1.2,1.4c0.6-0.3,1.2-0.3,1.9,0l0.4,0.2
			c0.6,0.2,1.1,0.8,1.3,1.4c0.5-0.3,1.2-0.4,1.9-0.1l0.4,0.2c0.6,0.2,1.1,0.7,1.3,1.4c0.5-0.3,1.2-0.4,1.9-0.2l0.4,0.1
			c0.6,0.2,1.1,0.7,1.3,1.3c0.5-0.3,1.2-0.4,1.9-0.2l0.4,0.1c0.6,0.2,1.1,0.7,1.4,1.3c0.5-0.3,1.2-0.5,1.9-0.3l0.5,0.1
			c0.6,0.2,1.2,0.6,1.4,1.2c0.5-0.4,1.2-0.5,1.8-0.4l0.4,0.1c0.7,0.1,1.2,0.6,1.5,1.1c0.5-0.4,1.1-0.6,1.8-0.4l0.5,0.1
			c0.7,0.1,1.2,0.5,1.5,1.1c0.5-0.4,1.1-0.6,1.8-0.5l0.5,0c0.7,0.1,1.2,0.5,1.6,1c0.4-0.4,1.1-0.7,1.8-0.6l0.5,0
			c0.7,0,1.2,0.4,1.6,1c0.4-0.4,1-0.7,1.7-0.7l0.5,0c0.7,0,1.3,0.4,1.6,0.9c0.4-0.5,1-0.8,1.7-0.7h0.5c0.7,0,1.3,0.3,1.7,0.8
			c0.4-0.5,1-0.8,1.7-0.8h0.5c0.7,0,1.3,0.2,1.7,0.7c0.1-0.1,0.1-0.2,0.2-0.3c0.4-0.5,1-0.8,1.8-0.8c0.7,0,1.4,0.3,1.8,0.9
			c0.3-0.5,0.9-1,1.6-1l0.4,0c0.7-0.1,1.3,0.1,1.8,0.6c0.3-0.5,0.9-0.9,1.5-1l0.4-0.1c0.7-0.1,1.3,0.1,1.8,0.5
			c0.3-0.5,0.8-1,1.5-1.1l0.4-0.1c0.7-0.1,1.3,0,1.8,0.4c0.2-0.6,0.8-1,1.4-1.2l0.4-0.1c0.6-0.2,1.3,0,1.8,0.3
			c0.2-0.6,0.7-1,1.4-1.3l0.4-0.1c0.6-0.2,1.3-0.1,1.9,0.2c0.2-0.6,0.7-1.1,1.3-1.3l0.4-0.1c0.6-0.2,1.3-0.1,1.9,0.1
			c0.2-0.6,0.6-1.1,1.3-1.4l0.4-0.2c0.6-0.2,1.3-0.2,1.9,0c0.1-0.6,0.6-1.1,1.2-1.4l0.4-0.2c0.6-0.3,1.3-0.3,1.9,0
			c0.1-0.6,0.5-1.2,1.1-1.5l0.4-0.2c0.6-0.3,1.3-0.3,1.9-0.1c0.1-0.6,0.5-1.2,1.1-1.5l0.4-0.2c0.6-0.3,1.3-0.4,1.9-0.2
			c0.1-0.6,0.4-1.2,1-1.6l0.4-0.2c0.6-0.3,1.2-0.4,1.9-0.2c0-0.6,0.4-1.2,0.9-1.6l0.4-0.2c0.5-0.4,1.2-0.5,1.9-0.3
			c0-0.6,0.3-1.2,0.9-1.7l0.4-0.3c0.4-0.3,0.9-0.4,1.3-0.4c0.1-0.1,0.3-0.2,0.5-0.3c0.1-0.5,0.3-1,0.8-1.3l0.1-0.1
			c0-0.2,0.1-0.4,0.3-0.6l0.3-0.4c0.4-0.5,1-0.8,1.7-0.9c-0.1-0.6,0-1.3,0.3-1.9l0.3-0.4c0.4-0.5,1-0.9,1.6-0.9
			c-0.2-0.6-0.1-1.3,0.2-1.9l0.2-0.4c0.4-0.6,1-0.9,1.6-1c-0.2-0.6-0.1-1.3,0.2-1.9l0.2-0.4c0.3-0.6,0.9-0.9,1.6-1
			c-0.2-0.6-0.2-1.3,0.1-1.9l0.2-0.4c0.3-0.6,0.9-1,1.5-1.1c-0.2-0.6-0.2-1.3,0.1-1.9l0.2-0.4c0.3-0.6,0.9-1,1.5-1.1
			c-0.2-0.6-0.3-1.3,0-1.9l0.2-0.4c0.3-0.6,0.8-1,1.5-1.2c-0.3-0.6-0.3-1.3,0-1.9l0.2-0.4c0.3-0.6,0.8-1.1,1.4-1.2
			c-0.3-0.5-0.3-1.2-0.1-1.9l0.2-0.4c0.2-0.6,0.8-1.1,1.4-1.3c-0.3-0.5-0.4-1.2-0.1-1.9l0.2-0.4c0.2-0.6,0.7-1.1,1.3-1.3
			c-0.3-0.5-0.4-1.2-0.2-1.9l0.1-0.4c0.2-0.6,0.7-1.1,1.3-1.3c-0.3-0.5-0.4-1.2-0.2-1.9l0.1-0.4c0.2-0.6,0.7-1.1,1.3-1.4
			c-0.3-0.5-0.5-1.2-0.3-1.9l0.1-0.4c0.2-0.6,0.6-1.2,1.2-1.4c-0.4-0.5-0.5-1.2-0.3-1.9l0.1-0.4c0.1-0.7,0.6-1.2,1.2-1.5
			c-0.4-0.5-0.5-1.2-0.4-1.9l0.1-0.4c0.1-0.7,0.6-1.2,1.2-1.5c-0.4-0.5-0.6-1.2-0.4-1.8l0.1-0.5c0.1-0.7,0.5-1.2,1.1-1.5
			c-0.4-0.5-0.6-1.1-0.5-1.8l0.1-0.5c0.1-0.7,0.5-1.2,1.1-1.5c-0.4-0.5-0.6-1.1-0.5-1.8l0-0.5c0.1-0.7,0.5-1.2,1-1.6
			c-0.4-0.4-0.7-1.1-0.6-1.8l0-0.5c0.1-0.7,0.5-1.2,1-1.6c-0.4-0.4-0.7-1.1-0.6-1.8l0-0.5c0-0.7,0.4-1.3,1-1.6
			c-0.4-0.4-0.7-1.1-0.7-1.8L393.8,136.8z"/>
		<path class="st0" d="M356.6,223.2c0.1,0,0.2,0,0.3,0c0,0,0-0.1,0-0.2l-0.1,0C356.7,223.1,356.6,223.1,356.6,223.2z"/>
		<path class="st1" d="M265.2,117.5c0-1.7,0.9-3.2,2.3-4c-3.5,0.7-6.7,3-8.6,4.7c0,0-0.1,0.1-0.2,0.1c-0.2,0.2-0.5,0.4-0.7,0.6
			c1.7,0.8,5.5,2.4,9.5,2.4C266.1,120.6,265.2,119.1,265.2,117.5z"/>
		<path class="st1" d="M333.3,113.7c-3.6,1.1-6.5,4.5-8.1,6.5c0.8-0.1,1.5-0.2,2.3-0.2c1.4,0,2.9,0.2,4.9,0.6
			c-0.7-0.8-1.2-1.9-1.2-3.1C331.2,115.9,332,114.5,333.3,113.7z"/>
		<path class="st1" d="M346.8,118.2c-1.9-1.6-5.1-3.9-8.6-4.7c1.3,0.8,2.3,2.3,2.3,4s-0.9,3.1-2.2,3.9c4,0,7.7-1.6,9.5-2.4
			c-0.2-0.2-0.4-0.4-0.7-0.6C346.9,118.3,346.9,118.3,346.8,118.2z"/>
		<path class="st1" d="M274.4,117.5c0,1.2-0.4,2.3-1.2,3.1c3.2-0.6,5.2-0.7,7.3-0.3c-1.5-2-4.5-5.4-8.1-6.5
			C273.6,114.5,274.4,115.9,274.4,117.5z"/>
		<path class="st1" d="M318.7,184.3l-13.2,1.5c-0.9,0.1-1.9,0.1-2.9,0.1c-0.9,0-1.9,0-2.9-0.1l-12.1-1.4c-0.3,0-0.7,0-1,0.1
			c-0.6,0-1.2,0.5-1.4,1c-0.2,0.5-0.1,1.2,0.2,1.7c3.2,4,9,6.1,17.1,6.1c7.6,0,13-1.7,16.1-5c0.5-0.5,0.9-0.9,1.3-1.7
			c0.2-0.5,0.2-1.1,0-1.6C319.6,184.8,319.2,184.4,318.7,184.3z"/>
		<path class="st1" d="M309.2,178.8c-2.2-0.5-5,0.8-6,1.4c-0.3,0.2-0.8,0.2-1.2,0c-0.8-0.4-3.7-1.9-6-1.4c-0.9,0.2-2.3,0.6-3.9,1
			c-2.8,0.7-5.3,1.4-7.3,1.8c0.6,0.1,1.2,0.2,1.9,0.3l13.4,1.5c1.7,0.2,3.5,0.2,5.2,0l13.3-1.5c0.6,0,1.2-0.1,1.9-0.3
			c-2-0.4-4.5-1.1-7.3-1.8C311.5,179.3,310.1,179,309.2,178.8z"/>
		<path d="M326.7,180.8c-0.2-1.2-1.5-1.1-1.9-1.1c-1.8,0-7.4-1.4-11-2.4c-1.6-0.4-3-0.8-4-1c-2.6-0.6-5.5,0.4-7.2,1.3
			c-1.7-0.8-4.6-1.9-7.2-1.3c-1,0.2-2.4,0.6-4,1c-3.7,1-9.2,2.4-11,2.4c-0.4,0-1.7,0-1.9,1.1c-0.2,1.2,1.1,1.7,2.3,2.2
			c0.8,0.3,1.7,0.6,2.6,0.8c-0.2,0.2-0.3,0.5-0.5,0.8c-0.6,1.4-0.3,3.1,0.6,4.3c3.7,4.7,10.2,7,19.1,7c8.3,0,14.3-1.9,17.8-5.7
			c0.5-0.5,1.2-1.2,1.7-2.3c0.6-1.2,0.6-2.7,0-3.9c0-0.1-0.1-0.1-0.1-0.2c0.8-0.2,1.7-0.4,2.5-0.7
			C325.6,182.5,327,182.1,326.7,180.8z M319.9,186.8c-0.4,0.7-0.8,1.1-1.3,1.7c-3.1,3.3-8.5,5-16.1,5c-8.2,0-13.9-2-17.1-6.1
			c-0.4-0.5-0.5-1.2-0.2-1.7c0.2-0.5,0.8-1,1.4-1c0.3,0,0.7,0,1-0.1l12.1,1.4c0.9,0.1,1.9,0.1,2.9,0.1c1,0,1.9,0,2.9-0.1l13.2-1.5
			c0.5,0.1,0.9,0.4,1.2,0.8C320.1,185.7,320.2,186.3,319.9,186.8z M318.5,181.9l-13.3,1.5c-1.7,0.2-3.5,0.2-5.2,0l-13.4-1.5
			c-0.6,0-1.2-0.1-1.9-0.3c2-0.4,4.5-1.1,7.3-1.8c1.6-0.4,3-0.8,3.9-1c2.3-0.5,5.2,0.9,6,1.4c0.3,0.2,0.8,0.2,1.2,0
			c1.1-0.6,3.8-1.9,6-1.4c0.9,0.2,2.3,0.6,3.9,1c2.8,0.7,5.3,1.4,7.3,1.8C319.8,181.7,319.2,181.8,318.5,181.9z"/>
		<path d="M227.9,122.2c0.1-10.6,7.6-19.8,16.3-26c8.7-6.1,18.7-10.1,27.6-15.9c6.4-4.2,12.2-9.4,17-15.4
			c4.4-5.3,7.9-11.2,12.4-16.5c3.8-4.4,8.3-8.3,13.6-10.5c0-0.1,0.1-0.2,0.1-0.4c1.8-3.3,2.4-13.6,1-17.8c-0.3-0.9,0.2-1.9,1.1-2.2
			c0.9-0.3,1.9,0.2,2.2,1.1c1.4,4.2,1.3,13.4-0.4,18.6c1.6,2.4,3.7,4.6,5.8,7.2c10.5,13.5,21.3,26.9,33.7,38.7
			c6,5.7,12.4,11.1,17.6,17.6s9.1,14.4,9.2,22.6c4.9-4.8,7.5-11.6,8.2-18.5c-0.2-0.3-0.3-0.6-0.4-1l0-0.5c-0.1-0.7,0.1-1.3,0.5-1.8
			c-0.5-0.3-0.9-0.9-1.1-1.6l-0.1-0.5c-0.1-0.7,0.1-1.3,0.5-1.8c-0.5-0.3-1-0.8-1.1-1.5l-0.1-0.5c-0.1-0.7,0-1.3,0.5-1.8
			c-0.6-0.3-1-0.8-1.1-1.5l-0.1-0.4c-0.1-0.7,0-1.3,0.4-1.8c-0.6-0.3-1-0.8-1.2-1.5l-0.1-0.4c-0.1-0.7,0-1.3,0.4-1.9
			c-0.6-0.2-1-0.8-1.2-1.4l-0.1-0.4c-0.2-0.6,0-1.3,0.3-1.9c-0.6-0.2-1.1-0.7-1.3-1.4l-0.1-0.4c-0.2-0.6-0.1-1.3,0.3-1.9
			c-0.6-0.2-1.1-0.7-1.3-1.4l-0.1-0.4c-0.2-0.6-0.1-1.3,0.2-1.9c-0.6-0.2-1.1-0.7-1.3-1.3l-0.1-0.4c-0.2-0.6-0.1-1.3,0.2-1.9
			c-0.6-0.2-1.1-0.6-1.4-1.3l-0.2-0.4c-0.2-0.6-0.2-1.3,0.1-1.9c-0.6-0.2-1.1-0.6-1.4-1.2l-0.2-0.4c-0.2-0.6-0.2-1.3,0-1.9
			c-0.6-0.1-1.1-0.6-1.4-1.2l-0.2-0.4c-0.3-0.6-0.2-1.3,0-1.9c-0.6-0.1-1.2-0.5-1.5-1.2l-0.2-0.4c-0.3-0.6-0.3-1.3,0-1.9
			c-0.6-0.1-1.2-0.5-1.5-1.1l-0.2-0.4c-0.3-0.6-0.3-1.2-0.1-1.8v0c0,0,0,0,0-0.1c-0.6-0.1-1.1-0.5-1.4-1l-0.2-0.4
			c-0.3-0.5-0.3-1-0.2-1.6c-0.1-0.1-0.1-0.2-0.2-0.4c-0.5-0.1-0.9-0.4-1.2-0.9l-0.2-0.4c-0.3-0.5-0.4-1.1-0.2-1.7c0,0,0-0.1-0.1-0.2
			c-0.6-0.1-1.1-0.4-1.5-0.9l-0.2-0.4c-0.4-0.6-0.4-1.2-0.3-1.9c-0.6,0-1.2-0.3-1.6-0.9l-0.3-0.4c-0.4-0.5-0.5-1.2-0.3-1.9
			c-0.6,0-1.2-0.3-1.7-0.9l-0.3-0.4c-0.4-0.5-0.5-1.2-0.4-1.8l0,0c-0.6,0-1.2-0.2-1.7-0.8l-0.3-0.4c-0.4-0.5-0.6-1.2-0.5-1.8
			c-0.6,0-1.3-0.2-1.7-0.7l-0.3-0.3c-0.4-0.5-0.6-1.2-0.5-1.8c-0.6,0-1.3-0.2-1.7-0.7l-0.3-0.3c-0.5-0.5-0.7-1.1-0.6-1.8
			c-0.6,0-1.3-0.1-1.8-0.6l-0.3-0.3c-0.5-0.5-0.7-1.1-0.7-1.8c-0.6,0.1-1.3-0.1-1.8-0.5l-0.3-0.3c-0.5-0.4-0.7-1.1-0.7-1.7
			c-0.6,0.1-1.3,0-1.8-0.4l-0.4-0.3c-0.5-0.4-0.8-1-0.8-1.7c-0.6,0.1-1.3,0-1.8-0.4l-0.4-0.3c-0.5-0.4-0.8-1-0.9-1.6
			c-0.6,0.1-1.3,0.1-1.8-0.3l-0.4-0.3c-0.5-0.4-0.9-1-0.9-1.6c-0.6,0.2-1.3,0.1-1.9-0.2l-0.4-0.2c-0.6-0.3-0.9-0.9-1-1.6
			c-0.6,0.2-1.3,0.2-1.9-0.1l-0.4-0.2c-0.6-0.3-1-0.9-1.1-1.5c-0.6,0.2-1.3,0.2-1.9,0l-0.4-0.2c-0.6-0.3-1-0.8-1.2-1.4
			c-0.5,0.3-1.2,0.3-1.9,0l-0.4-0.2c-0.6-0.2-1-0.8-1.2-1.4c-0.5,0.3-1.2,0.4-1.9,0.1l-0.4-0.1c-0.6-0.2-1.1-0.7-1.3-1.3
			c-0.5,0.3-1.2,0.4-1.8,0.2L324,7.8c-0.6-0.2-1.1-0.7-1.4-1.2c-0.5,0.3-1.2,0.5-1.8,0.3l-0.5-0.1c-0.6-0.1-1.2-0.6-1.4-1.2
			c-0.5,0.4-1.1,0.5-1.8,0.4L316.5,6c-0.6-0.1-1.2-0.5-1.5-1.1c-0.5,0.4-1.1,0.6-1.8,0.5l-0.5,0c-0.7-0.1-1.2-0.5-1.6-1
			c-0.4,0.4-1.1,0.7-1.8,0.6l-0.5,0c-0.7,0-1.2-0.4-1.6-0.9c-0.4,0.4-1,0.7-1.7,0.7h-0.5c-0.7,0-1.3-0.3-1.7-0.8
			c-0.4,0.5-1,0.8-1.7,0.8h-0.5c-0.7,0-1.3-0.3-1.7-0.7c-0.4,0.5-0.9,0.8-1.6,0.9l-0.5,0c-0.7,0-1.3-0.2-1.7-0.6
			c-0.3,0.5-0.9,0.9-1.6,1l-0.5,0c-0.7,0.1-1.3-0.1-1.8-0.5c-0.3,0.5-0.8,0.9-1.5,1.1l-0.5,0.1c-0.6,0.1-1.3,0-1.8-0.4
			c-0.3,0.5-0.8,1-1.5,1.1l-0.4,0.1c-0.6,0.1-1.3,0-1.8-0.3c-0.2,0.6-0.7,1-1.4,1.2l-0.4,0.1c-0.6,0.2-1.3,0.1-1.8-0.2
			c-0.2,0.6-0.7,1.1-1.3,1.3l-0.4,0.1c-0.6,0.2-1.3,0.1-1.9-0.1c-0.2,0.6-0.6,1.1-1.3,1.4l-0.4,0.2c-0.6,0.2-1.3,0.2-1.9-0.1
			c-0.1,0.6-0.6,1.1-1.2,1.4l-0.4,0.2c-0.6,0.3-1.3,0.3-1.9,0c-0.1,0.6-0.5,1.2-1.1,1.5l-0.4,0.2c-0.6,0.3-1.3,0.3-1.9,0.1
			c-0.1,0.6-0.5,1.2-1.1,1.5l-0.4,0.2c-0.6,0.3-1.3,0.4-1.9,0.2c-0.1,0.6-0.4,1.2-1,1.6l-0.4,0.2c-0.6,0.4-1.2,0.4-1.9,0.3
			c0,0.6-0.3,1.2-0.9,1.6l-0.4,0.3c-0.5,0.4-1.2,0.5-1.8,0.3c0,0.6-0.3,1.2-0.8,1.7l-0.4,0.3c-0.5,0.4-1.2,0.5-1.8,0.4
			c0,0.6-0.2,1.3-0.8,1.7l-0.3,0.3c-0.5,0.4-1.2,0.6-1.8,0.5c0,0.6-0.2,1.3-0.7,1.7l-0.3,0.3c-0.5,0.4-1.1,0.6-1.8,0.6
			c0,0.6-0.1,1.3-0.6,1.8l-0.3,0.3c-0.5,0.5-1.1,0.7-1.8,0.6c0.1,0.6-0.1,1.3-0.5,1.8l-0.3,0.3c-0.4,0.5-1.1,0.7-1.7,0.7
			c0.1,0.6,0,1.3-0.5,1.8l-0.3,0.3c-0.4,0.5-1.1,0.8-1.7,0.8l0,0c0.1,0.6,0,1.3-0.4,1.8l-0.3,0.4c-0.4,0.5-1,0.8-1.7,0.8
			c0.1,0.6,0,1.3-0.3,1.8l-0.3,0.4c-0.4,0.5-1,0.9-1.6,0.9c0.1,0.6,0.1,1.3-0.3,1.9l-0.3,0.4c-0.4,0.5-1,0.9-1.6,0.9
			c0.2,0.6,0.1,1.3-0.2,1.9l-0.2,0.4c-0.3,0.6-0.9,0.9-1.6,1c0.2,0.6,0.1,1.3-0.2,1.9l-0.2,0.4c-0.3,0.6-0.9,1-1.6,1.1
			c0.2,0.6,0.2,1.3-0.1,1.9l-0.2,0.4c-0.3,0.6-0.9,1-1.5,1.1c0.2,0.6,0.2,1.3,0,1.9l-0.2,0.4c-0.3,0.6-0.9,1-1.5,1.1
			c0.2,0.6,0.3,1.3,0,1.9l-0.2,0.4c-0.3,0.6-0.8,1-1.4,1.2c0.3,0.6,0.3,1.2,0,1.9l-0.2,0.4c-0.3,0.6-0.8,1.1-1.4,1.2
			c0.3,0.5,0.3,1.2,0.1,1.9l-0.2,0.4c-0.2,0.6-0.8,1.1-1.4,1.3c0.3,0.5,0.4,1.2,0.1,1.9l-0.1,0.4c-0.2,0.6-0.7,1.1-1.3,1.3
			c0.3,0.5,0.4,1.2,0.2,1.9l-0.1,0.4c-0.2,0.6-0.7,1.1-1.3,1.4c0.3,0.5,0.4,1.2,0.2,1.9l-0.1,0.4c-0.2,0.6-0.7,1.1-1.3,1.4
			c0.3,0.5,0.5,1.2,0.3,1.9l-0.1,0.4c-0.2,0.6-0.6,1.2-1.2,1.4c0.4,0.5,0.5,1.2,0.3,1.9l-0.1,0.5c-0.1,0.3-0.2,0.6-0.4,0.8
			c1.4,6.4,3.9,12.6,6.5,18.8C223.7,112,226,117.1,227.9,122.2z"/>
		<g>
			<path d="M290.2,159.1c2.3,0,5.4,3.2,7.5,1.7c0.3-0.9-1.8-2.2-2.4-2.5C293.9,157.8,290.4,156.9,290.2,159.1z"/>
		</g>
		<path d="M284.4,157.3c0,4.8,3.9,8.7,8.7,8.7c0.7,0,1.2-0.5,1.2-1.2c0-0.7-0.5-1.2-1.2-1.2c-3.4,0-6.2-2.8-6.2-6.2
			c0-3.4,2.8-6.2,6.2-6.2c0.4,0,0.8-0.2,1-0.6s0.2-0.8,0-1.2c0,0-2.1-4-0.2-7.6c0.3-0.6,0.1-1.3-0.5-1.7c-0.6-0.3-1.3-0.1-1.7,0.5
			c-1.7,3.2-1.1,6.4-0.5,8.3C287.3,149.6,284.4,153.1,284.4,157.3z"/>
		<g>
			<path d="M307.4,160.8c2.1,1.5,5.2-1.7,7.5-1.7c-0.2-2.2-3.7-1.3-5.2-0.8C309.2,158.6,307.1,159.9,307.4,160.8z"/>
		</g>
		<path d="M311,150.5c0.2,0.4,0.6,0.6,1.1,0.6c3.4,0,6.2,2.8,6.2,6.2c0,3.4-2.8,6.2-6.2,6.2c-0.7,0-1.2,0.5-1.2,1.2
			c0,0.7,0.5,1.2,1.2,1.2c4.8,0,8.7-3.9,8.7-8.7c0-4.2-3-7.6-6.9-8.5c0.6-1.9,1.2-5.2-0.5-8.3c-0.3-0.6-1.1-0.8-1.7-0.5
			c-0.6,0.3-0.8,1.1-0.5,1.7c1.9,3.6-0.1,7.6-0.2,7.6C310.8,149.6,310.8,150.1,311,150.5z"/>
		<path class="st1" d="M398.6,125.5V125c0-0.2,0-0.5-0.1-0.7c0.1-0.2,0.1-0.5,0.1-0.7V123c0-0.7-0.3-1.3-0.9-1.7
			c0.5-0.4,0.8-1.1,0.8-1.8V119c0-0.7-0.4-1.3-0.9-1.7c0.5-0.4,0.8-1.1,0.7-1.8l0-0.5c0-0.7-0.4-1.3-0.9-1.7
			c0.5-0.4,0.7-1.1,0.7-1.8l0-0.5c0-0.7-0.4-1.3-1-1.7c0.4-0.4,0.7-1.1,0.6-1.8l0-0.5c-0.1-0.7-0.5-1.3-1-1.6
			c0.4-0.5,0.7-1.1,0.6-1.8l0-0.5c-0.1-0.7-0.5-1.3-1.1-1.6c0.4-0.5,0.7-1.1,0.5-1.8l-0.1-0.5c-0.1-0.7-0.5-1.3-1.1-1.6
			c0.4-0.5,0.6-1.2,0.5-1.9l-0.1-0.5c-0.1-0.7-0.6-1.2-1.1-1.6c0.4-0.5,0.6-1.2,0.4-1.9l-0.1-0.5c-0.1-0.7-0.6-1.2-1.2-1.5
			c0.4-0.5,0.6-1.2,0.4-1.9l-0.1-0.5c-0.1-0.7-0.6-1.2-1.2-1.5c0.4-0.5,0.5-1.2,0.3-1.9l-0.1-0.5c-0.2-0.7-0.7-1.2-1.3-1.5
			c0.4-0.5,0.5-1.2,0.3-1.9l-0.1-0.5c-0.2-0.7-0.7-1.2-1.3-1.4c0.3-0.5,0.5-1.2,0.2-1.9l-0.1-0.5c-0.2-0.7-0.7-1.2-1.3-1.4
			c0.3-0.5,0.4-1.3,0.2-1.9l-0.1-0.4c-0.2-0.6-0.8-1.1-1.4-1.3c0.3-0.6,0.4-1.3,0.1-1.9l-0.2-0.4c-0.2-0.6-0.8-1.1-1.4-1.3
			c0.3-0.6,0.4-1.3,0.1-1.9l-0.2-0.4c-0.3-0.6-0.8-1.1-1.5-1.3c0.3-0.6,0.3-1.3,0-1.9l-0.2-0.4c-0.3-0.6-0.8-1.1-1.5-1.2
			c0.3-0.6,0.3-1.3,0-1.9l-0.2-0.4c-0.3-0.6-0.9-1-1.5-1.2c0.2-0.6,0.2-1.3-0.1-1.9l-0.2-0.4c-0.3-0.6-0.9-1-1.6-1.1
			c0.2-0.6,0.2-1.3-0.1-1.9l-0.2-0.4c-0.3-0.6-0.9-1-1.6-1.1c0.2-0.6,0.2-1.3-0.2-1.9l-0.2-0.4c-0.4-0.6-1-1-1.6-1
			c0.2-0.6,0.1-1.3-0.2-1.9l-0.3-0.4c-0.4-0.6-1-0.9-1.7-1c0.2-0.6,0.1-1.3-0.3-1.9l-0.3-0.4c-0.4-0.6-1-0.9-1.7-0.9
			c0.1-0.6,0-1.3-0.4-1.9l-0.3-0.4c-0.4-0.6-1.1-0.9-1.8-0.9l0,0c0.1-0.6,0-1.4-0.4-1.9l-0.3-0.3c-0.4-0.5-1.1-0.8-1.8-0.8
			c0.1-0.6,0-1.3-0.5-1.9l-0.3-0.4c-0.5-0.5-1.1-0.8-1.8-0.7c0.1-0.6-0.1-1.3-0.6-1.9l-0.3-0.3c-0.5-0.5-1.2-0.7-1.8-0.7
			c0-0.6-0.1-1.3-0.6-1.8l-0.3-0.3c-0.5-0.5-1.2-0.7-1.9-0.6c0-0.6-0.2-1.3-0.7-1.8l-0.4-0.3c-0.5-0.5-1.2-0.6-1.9-0.5
			c0-0.6-0.2-1.3-0.8-1.8l-0.4-0.3c-0.5-0.4-1.2-0.6-1.9-0.4c0-0.6-0.3-1.3-0.9-1.7l-0.4-0.3c-0.6-0.4-1.3-0.5-1.9-0.3
			c0-0.6-0.4-1.3-1-1.7l-0.4-0.3c-0.6-0.4-1.3-0.5-1.9-0.3c0-0.6-0.4-1.3-1-1.7l-0.4-0.2c-0.6-0.4-1.3-0.4-1.9-0.2
			c-0.1-0.6-0.5-1.2-1.1-1.6l-0.4-0.2c-0.6-0.3-1.3-0.3-2-0.1c-0.1-0.6-0.5-1.2-1.2-1.5L336.3,8c-0.6-0.3-1.4-0.3-2,0
			c-0.1-0.6-0.6-1.2-1.3-1.5l-0.4-0.2c-0.6-0.3-1.4-0.2-1.9,0.1c-0.2-0.6-0.7-1.2-1.3-1.4l-0.5-0.2c-0.7-0.2-1.4-0.1-1.9,0.2
			c-0.2-0.6-0.7-1.1-1.4-1.3l-0.5-0.1c-0.7-0.2-1.4-0.1-1.9,0.3c-0.2-0.6-0.8-1.1-1.5-1.3L321,2.4c-0.7-0.2-1.4,0-1.9,0.4
			c-0.3-0.6-0.8-1-1.5-1.2l-0.5-0.1c-0.7-0.1-1.4,0-1.9,0.5c-0.3-0.6-0.9-1-1.6-1.1l-0.5,0c-0.7-0.1-1.4,0.1-1.9,0.6
			c-0.3-0.5-0.9-1-1.7-1l-0.5,0c-0.7,0-1.4,0.2-1.8,0.7c-0.4-0.5-1-0.9-1.7-0.9h-0.5c-0.7,0-1.4,0.3-1.8,0.8c-0.4-0.5-1-0.8-1.8-0.8
			h-0.5c-0.7,0-1.3,0.3-1.7,0.9c-0.4-0.5-1.1-0.8-1.8-0.7l-0.5,0c-0.7,0-1.3,0.4-1.7,1c-0.4-0.5-1.1-0.7-1.9-0.6l-0.5,0
			c-0.7,0.1-1.3,0.5-1.6,1.1c-0.5-0.4-1.2-0.7-1.9-0.5l-0.5,0.1c-0.7,0.1-1.3,0.6-1.6,1.2C286.6,2,286,1.8,285.3,2l-0.5,0.1
			c-0.7,0.1-1.2,0.6-1.5,1.2c-0.5-0.4-1.2-0.5-1.9-0.3l-0.5,0.1c-0.7,0.2-1.2,0.7-1.4,1.3c-0.5-0.3-1.3-0.5-1.9-0.2L277,4.4
			c-0.7,0.2-1.1,0.8-1.4,1.4c-0.6-0.3-1.3-0.4-2-0.1l-0.4,0.2c-0.6,0.3-1.1,0.8-1.3,1.5c-0.6-0.3-1.3-0.3-2,0l-0.4,0.2
			c-0.6,0.3-1.1,0.9-1.2,1.5c-0.6-0.3-1.3-0.3-2,0l-0.4,0.2c-0.6,0.3-1,0.9-1.1,1.6c-0.6-0.2-1.3-0.2-1.9,0.1l-0.4,0.2
			c-0.6,0.3-1,1-1.1,1.6c-0.6-0.2-1.3-0.1-1.9,0.2l-0.4,0.3c-0.6,0.4-0.9,1-1,1.7c-0.6-0.2-1.3-0.1-1.9,0.3l-0.4,0.3
			c-0.6,0.4-0.9,1.1-0.9,1.7c-0.6-0.1-1.3,0-1.9,0.4l-0.4,0.3c-0.5,0.4-0.8,1.1-0.8,1.8c-0.6-0.1-1.3,0-1.9,0.5l-0.4,0.3
			c-0.5,0.4-0.8,1.1-0.7,1.8c-0.6-0.1-1.3,0.1-1.9,0.6l-0.3,0.3c-0.5,0.5-0.7,1.2-0.7,1.8c-0.6-0.1-1.3,0.1-1.8,0.6l-0.3,0.3
			c-0.5,0.5-0.7,1.2-0.6,1.8c-0.6,0-1.3,0.2-1.8,0.7l-0.3,0.4c-0.5,0.5-0.6,1.2-0.5,1.9c-0.6,0-1.3,0.2-1.8,0.8l-0.3,0.4
			c-0.4,0.5-0.6,1.2-0.5,1.9l0,0c-0.6,0-1.3,0.3-1.7,0.8l-0.3,0.4c-0.4,0.5-0.5,1.3-0.4,1.9c-0.6,0-1.3,0.3-1.7,0.9l-0.3,0.4
			c-0.4,0.6-0.5,1.3-0.3,1.9c-0.6,0-1.3,0.4-1.7,1l-0.3,0.4c-0.4,0.6-0.5,1.3-0.3,1.9c-0.6,0-1.3,0.4-1.7,1l-0.2,0.4
			c-0.4,0.6-0.4,1.3-0.2,1.9c-0.6,0.1-1.3,0.4-1.6,1.1l-0.2,0.4c-0.3,0.6-0.4,1.3-0.1,1.9c-0.6,0.1-1.2,0.5-1.6,1.1l-0.2,0.4
			c-0.3,0.6-0.3,1.3-0.1,1.9c-0.6,0.1-1.2,0.5-1.5,1.2l-0.2,0.4c-0.3,0.6-0.3,1.3,0,1.9c-0.6,0.1-1.2,0.6-1.5,1.2l-0.2,0.4
			c-0.3,0.6-0.3,1.3,0,1.9c-0.6,0.1-1.2,0.6-1.5,1.2l-0.2,0.4c-0.3,0.6-0.2,1.4,0.1,1.9c-0.6,0.2-1.2,0.6-1.4,1.3l-0.2,0.4
			c-0.2,0.6-0.2,1.4,0.1,1.9c-0.6,0.2-1.1,0.7-1.4,1.3l-0.1,0.4c-0.2,0.6-0.1,1.4,0.2,1.9c-0.6,0.2-1.1,0.7-1.4,1.4l-0.1,0.5
			c-0.2,0.7-0.1,1.4,0.2,1.9c-0.6,0.2-1.1,0.7-1.3,1.4l-0.1,0.5c-0.2,0.7-0.1,1.4,0.3,1.9c-0.6,0.2-1.1,0.8-1.3,1.4l-0.1,0.5
			c-0.2,0.7,0,1.4,0.3,1.9c-0.6,0.2-1.1,0.8-1.2,1.5l-0.1,0.5c-0.1,0.7,0,1.4,0.4,1.9c-0.6,0.3-1,0.8-1.2,1.5l-0.1,0.5
			c-0.1,0.7,0,1.4,0.4,1.9c-0.6,0.3-1,0.8-1.2,1.5l-0.1,0.5c-0.1,0.7,0,1.4,0.5,1.9c-0.6,0.3-1,0.9-1.1,1.6l-0.1,0.5
			c-0.1,0.7,0.1,1.4,0.5,1.9c-0.5,0.3-1,0.9-1.1,1.6l0,0.5c-0.1,0.7,0.1,1.4,0.6,1.8c-0.5,0.3-0.9,0.9-1,1.6l0,0.5
			c-0.1,0.7,0.1,1.4,0.6,1.8c-0.5,0.3-0.9,0.9-1,1.6l0,0.5c0,0.7,0.2,1.4,0.7,1.8c-0.5,0.3-0.9,1-1,1.7l0,0.5c0,0.7,0.2,1.3,0.7,1.8
			c-0.5,0.4-0.9,1-0.9,1.7v0.5c0,0.7,0.3,1.3,0.8,1.8c-0.5,0.4-0.8,1-0.9,1.7v0.5c0,0.7,0.3,1.3,0.8,1.8c-0.5,0.4-0.8,1-0.8,1.7v0.5
			c0,0.7,0.3,1.3,0.8,1.7c-0.5,0.4-0.8,1-0.8,1.8v0.5c0,0.7,0.3,1.3,0.9,1.7c-0.5,0.4-0.8,1.1-0.7,1.8l0,0.5c0,0.7,0.4,1.3,0.9,1.7
			c-0.5,0.4-0.7,1.1-0.7,1.8l0,0.5c0,0.7,0.4,1.3,1,1.7c-0.5,0.4-0.7,1.1-0.6,1.8l0,0.5c0,0.6,0.4,1.2,0.8,1.5
			c-0.5,0.6-0.7,1.5-0.4,2.3v0.2c0.1,0.7,0.5,1.3,1.1,1.6c-0.4,0.5-0.7,1.1-0.6,1.8l0.1,0.5c0.1,0.7,0.5,1.3,1.1,1.6
			c-0.4,0.5-0.6,1.2-0.5,1.9l0.1,0.5c0.1,0.7,0.5,1.2,1.1,1.6c-0.4,0.5-0.6,1.2-0.5,1.9l0.1,0.5c0.1,0.7,0.6,1.2,1.2,1.5
			c-0.4,0.5-0.6,1.2-0.4,1.9l0.1,0.5c0.1,0.7,0.6,1.2,1.2,1.5c-0.4,0.5-0.5,1.2-0.4,1.9l0.1,0.5c0.2,0.7,0.6,1.2,1.3,1.5
			c-0.4,0.5-0.5,1.2-0.3,1.9l0.1,0.5c0.2,0.7,0.7,1.2,1.3,1.4c-0.3,0.5-0.5,1.2-0.3,1.9l0.1,0.5c0.2,0.7,0.7,1.2,1.3,1.4
			c-0.3,0.5-0.4,1.3-0.2,1.9l0.1,0.4c0.2,0.7,0.7,1.1,1.4,1.4c-0.3,0.5-0.4,1.3-0.1,1.9l0.2,0.4c0.2,0.6,0.8,1.1,1.4,1.3
			c-0.3,0.6-0.4,1.3-0.1,1.9l0.2,0.4c0.3,0.6,0.8,1.1,1.5,1.3c-0.3,0.6-0.3,1.3,0,1.9l0.2,0.4c0.3,0.6,0.8,1,1.4,1.2
			c-0.5,0.9-0.4,2,0.3,2.8l0.3,0.3c0.3,0.3,0.7,0.5,1.1,0.6c-0.2,0.6-0.2,1.3,0.1,1.9l0.2,0.4c0.3,0.6,0.9,1,1.6,1.1
			c-0.2,0.6-0.2,1.3,0.1,1.9l0.2,0.4c0.3,0.6,0.9,1,1.6,1.1c-0.2,0.6-0.2,1.3,0.2,1.9l0.2,0.4c0.3,0.6,1,1,1.6,1
			c-0.2,0.6-0.1,1.3,0.2,1.9l0.3,0.4c0.4,0.6,1,0.9,1.7,1c-0.2,0.6-0.1,1.3,0.3,1.9l0.3,0.4c0.4,0.6,1,0.9,1.7,0.9
			c-0.1,0.6,0,1.3,0.3,1.9l0.3,0.4c0.4,0.5,1.1,0.9,1.7,0.9c-0.1,0.6,0,1.3,0.4,1.9l0.3,0.4c0.4,0.5,1.1,0.8,1.8,0.8
			c-0.1,0.6,0,1.4,0.5,1.9l0.2,0.8c0.4,0.5,1.1,0.8,1.8,0.7c-0.1,0.6,0.1,1.3,0.6,1.9l0.3,0.3c0.5,0.5,1.2,0.7,1.8,0.7
			c-0.1,0.6,0.1,1.3,0.6,1.8l0.3,0.3c0.5,0.5,1.2,0.7,1.8,0.6c0,0.6,0.2,1.3,0.7,1.8l0.4,0.3c0.5,0.5,1.2,0.6,1.9,0.5
			c0,0.6,0.2,1.3,0.8,1.8l0.4,0.3c0.5,0.4,1.2,0.6,1.9,0.4c0,0.6,0.3,1.3,0.9,1.7l0.4,0.3c0.5,0.4,1.3,0.5,1.9,0.4
			c0,0.6,0.3,1.3,0.9,1.7l0.4,0.3c0.6,0.4,1.3,0.5,1.9,0.3c0,0.6,0.4,1.3,1,1.7l0.4,0.3c0.6,0.4,1.3,0.4,1.9,0.2
			c0.1,0.6,0.5,1.3,1.1,1.6l0.4,0.2c0.6,0.3,1.3,0.4,1.9,0.1c0.1,0.6,0.5,1.2,1.2,1.6l0.4,0.2c0.6,0.3,1.4,0.3,2,0
			c0.1,0.6,0.6,1.2,1.2,1.5l0.4,0.2c0.6,0.3,1.4,0.2,2,0c0.2,0.6,0.6,1.2,1.3,1.4l0.5,0.2c0.6,0.2,1.4,0.1,1.9-0.1
			c0.2,0.6,0.7,1.1,1.4,1.4l0.5,0.1c0.7,0.2,1.4,0.1,1.9-0.2c0.2,0.6,0.8,1.1,1.5,1.3l0.5,0.1c0.7,0.2,1.4,0,1.9-0.4
			c0.3,0.6,0.8,1.1,1.5,1.2l0.5,0.1c0.7,0.1,1.4,0,1.9-0.5c0.3,0.6,0.9,1,1.6,1.1l0.5,0.1c0.7,0.1,1.4-0.1,1.9-0.6
			c0.3,0.6,0.9,1,1.7,1l0.5,0c0.7,0,1.4-0.2,1.8-0.7c0.4,0.5,1,0.9,1.7,0.9l0.5,0c0.7,0,1.4-0.3,1.8-0.8c0.4,0.5,1,0.9,1.8,0.9h0.5
			c0.7,0,1.3-0.3,1.8-0.9c0.4,0.5,1.1,0.8,1.8,0.8l0.5,0c0.7,0,1.3-0.4,1.7-1c0.4,0.5,1.1,0.7,1.8,0.7l0.5,0
			c0.7-0.1,1.3-0.5,1.6-1.1c0.5,0.4,1.2,0.7,1.9,0.5l0.5-0.1c0.7-0.1,1.3-0.5,1.6-1.1c0.5,0.4,1.2,0.6,1.9,0.4l0.5-0.1
			c0.7-0.1,1.2-0.6,1.5-1.2c0.5,0.4,1.2,0.5,1.9,0.3l0.5-0.1c0.7-0.2,1.2-0.7,1.4-1.3c0.5,0.3,1.3,0.5,1.9,0.2l0.5-0.1
			c0.7-0.2,1.2-0.7,1.4-1.4c0.6,0.3,1.3,0.4,2,0.1l0.5-0.2c0.6-0.2,1.1-0.8,1.3-1.5c0.6,0.3,1.3,0.3,2,0l0.4-0.2
			c0.6-0.3,1.1-0.9,1.2-1.5c0.6,0.3,1.3,0.3,2,0l0.4-0.2c0.6-0.3,1-0.9,1.1-1.6c0.6,0.2,1.3,0.2,1.9-0.1l0.4-0.2
			c0.6-0.3,1-1,1.1-1.6c0.6,0.2,1.3,0.1,1.9-0.2l0.4-0.3c0.6-0.4,0.9-1,1-1.7c0.6,0.2,1.3,0.1,1.9-0.3l0.4-0.3
			c0.6-0.4,0.9-1,0.9-1.7c0.6,0.1,1.3,0,1.9-0.4l0.4-0.3c0.5-0.4,0.8-1.1,0.8-1.8c0.6,0.1,1.3,0,1.9-0.5l0.4-0.3
			c0.5-0.4,0.8-1.1,0.8-1.8c0.6,0.1,1.3,0,1.9-0.5l0.4-0.3c0.5-0.5,0.7-1.1,0.7-1.8c0.6,0.1,1.3-0.1,1.8-0.6l0.3-0.3
			c0.5-0.5,0.7-1.2,0.6-1.8c0.6,0,1.3-0.2,1.8-0.7l0.3-0.3c0.5-0.5,0.7-1.2,0.5-1.9c0.6,0,1.3-0.2,1.8-0.7l0.3-0.4
			c0.4-0.5,0.6-1.2,0.5-1.9c0.6,0,1.3-0.3,1.8-0.8l0.3-0.4c0.2-0.3,0.4-0.6,0.4-1c0.2-0.1,0.3-0.2,0.5-0.3l0.4-0.3
			c0.3-0.3,0.6-0.7,0.7-1.1l0,0l0.3-0.4c0.4-0.6,0.5-1.3,0.3-1.9c0.6,0,1.3-0.3,1.7-0.9l0.3-0.4c0.4-0.6,0.5-1.3,0.3-1.9
			c0.6,0,1.3-0.4,1.7-1l0.2-0.4c0.4-0.6,0.4-1.3,0.2-1.9c0.6-0.1,1.3-0.4,1.6-1l0.2-0.4c0.3-0.6,0.4-1.3,0.1-1.9
			c0.6-0.1,1.2-0.5,1.6-1.1l0.2-0.4c0.3-0.6,0.3-1.3,0.1-1.9c0.6-0.1,1.2-0.5,1.6-1.1l0.2-0.4c0.3-0.6,0.3-1.3,0-1.9
			c0.6-0.1,1.2-0.5,1.5-1.2l0.2-0.4c0.3-0.6,0.3-1.3,0-1.9c0.6-0.1,1.2-0.6,1.5-1.2l0.2-0.4c0.3-0.6,0.2-1.3,0-1.9
			c0.6-0.2,1.2-0.6,1.4-1.3l0.2-0.4c0.2-0.6,0.2-1.4-0.1-1.9c0.6-0.2,1.2-0.7,1.4-1.3l0.2-0.4c0.2-0.6,0.1-1.4-0.2-1.9
			c0.6-0.2,1.1-0.7,1.4-1.4l0.1-0.5c0.2-0.7,0.1-1.4-0.2-1.9c0.6-0.2,1.1-0.7,1.3-1.4l0.1-0.5c0.2-0.7,0.1-1.4-0.3-1.9
			c0.6-0.2,1.1-0.7,1.3-1.4l0.1-0.5c0.2-0.7,0-1.4-0.3-1.9c0.6-0.2,1.1-0.8,1.2-1.5l0.1-0.5c0.2-0.7,0-1.4-0.4-1.9
			c0.6-0.3,1-0.8,1.2-1.5l0.1-0.5c0.1-0.7,0-1.4-0.4-1.9c0.6-0.3,1-0.8,1.2-1.5l0.1-0.5c0.1-0.7,0-1.4-0.5-1.9
			c0.6-0.3,1-0.9,1.1-1.6l0.1-0.5c0.1-0.7-0.1-1.4-0.5-1.9c0.6-0.3,1-0.9,1.1-1.6l0.1-0.5c0.1-0.7-0.1-1.4-0.6-1.9
			c0.5-0.3,1-0.9,1-1.6l0-0.5c0.1-0.7-0.1-1.4-0.6-1.8c0.5-0.3,0.9-0.9,1-1.6l0-0.5c0-0.7-0.2-1.4-0.7-1.8c0.5-0.3,0.9-1,1-1.7
			l0-0.5c0-0.7-0.2-1.3-0.7-1.8c0.5-0.4,0.9-1,0.9-1.7l0-0.5c0-0.7-0.2-1.3-0.7-1.8c0.5-0.4,0.9-1,0.9-1.7v-0.5
			c0-0.7-0.3-1.3-0.8-1.8C398.3,126.9,398.6,126.3,398.6,125.5z M213.1,98.8l0.1-0.5c0.1-0.7-0.1-1.3-0.5-1.8c0.5-0.3,1-0.8,1.1-1.5
			l0.1-0.5c0.1-0.7,0-1.3-0.4-1.8c0.6-0.3,1-0.8,1.1-1.5l0.1-0.5c0.1-0.7,0-1.3-0.4-1.8c0.3-0.1,0.6-0.4,0.8-0.6
			c0.2-0.2,0.3-0.5,0.4-0.8l0.1-0.5c0.1-0.7,0-1.3-0.3-1.9c0.6-0.2,1-0.8,1.2-1.4l0.1-0.4c0.2-0.6,0-1.3-0.3-1.9
			c0.6-0.2,1.1-0.7,1.3-1.4l0.1-0.4c0.2-0.6,0.1-1.3-0.2-1.9c0.6-0.2,1.1-0.7,1.3-1.4l0.1-0.4c0.2-0.6,0.1-1.3-0.2-1.9
			c0.6-0.2,1.1-0.7,1.3-1.3l0.1-0.4c0.2-0.6,0.1-1.3-0.1-1.9c0.6-0.2,1.1-0.6,1.4-1.3l0.2-0.4c0.2-0.6,0.2-1.3-0.1-1.9
			c0.6-0.2,1.1-0.6,1.4-1.2l0.2-0.4c0.3-0.6,0.2-1.3,0-1.9c0.6-0.1,1.2-0.6,1.4-1.2l0.2-0.4c0.3-0.6,0.3-1.3,0-1.9
			c0.6-0.1,1.2-0.5,1.5-1.1l0.2-0.4c0.3-0.6,0.3-1.3,0-1.9c0.6-0.1,1.2-0.5,1.5-1.1l0.2-0.4c0.3-0.6,0.3-1.3,0.1-1.9
			c0.6-0.1,1.2-0.5,1.6-1.1l0.2-0.4c0.3-0.6,0.4-1.3,0.2-1.9c0.6-0.1,1.2-0.4,1.6-1l0.2-0.4c0.3-0.6,0.4-1.3,0.2-1.9
			c0.6,0,1.2-0.4,1.6-0.9l0.3-0.4c0.4-0.5,0.5-1.2,0.3-1.9c0.6,0,1.2-0.3,1.6-0.9l0.3-0.4c0.4-0.5,0.5-1.2,0.3-1.8
			c0.6,0,1.3-0.3,1.7-0.8l0.3-0.4c0.4-0.5,0.5-1.2,0.4-1.8l0,0c0.6,0,1.3-0.2,1.7-0.8l0.3-0.3c0.4-0.5,0.6-1.2,0.5-1.8
			c0.6,0,1.3-0.2,1.7-0.7l0.3-0.3c0.4-0.5,0.6-1.2,0.5-1.8c0.6,0,1.3-0.1,1.8-0.6l0.3-0.3c0.5-0.5,0.7-1.1,0.6-1.8
			c0.6,0.1,1.3-0.1,1.8-0.6l0.3-0.3c0.5-0.4,0.7-1.1,0.7-1.7c0.6,0.1,1.3,0,1.8-0.5l0.3-0.3c0.5-0.4,0.8-1.1,0.8-1.7
			c0.6,0.1,1.3,0,1.8-0.4l0.4-0.3c0.5-0.4,0.8-1,0.8-1.7c0.6,0.1,1.3,0,1.8-0.3l0.4-0.3c0.5-0.4,0.9-1,0.9-1.6
			c0.6,0.2,1.3,0.1,1.9-0.3l0.4-0.2c0.6-0.4,0.9-1,1-1.6c0.6,0.2,1.3,0.1,1.9-0.2l0.4-0.2c0.6-0.3,0.9-0.9,1.1-1.5
			c0.6,0.2,1.3,0.2,1.9-0.1l0.4-0.2c0.6-0.3,1-0.9,1.1-1.5c0.6,0.2,1.3,0.3,1.9,0l0.4-0.2c0.6-0.3,1-0.8,1.2-1.4
			c0.5,0.3,1.2,0.3,1.9,0.1l0.4-0.2c0.6-0.2,1.1-0.8,1.3-1.4c0.5,0.3,1.2,0.4,1.9,0.1l0.4-0.1c0.6-0.2,1.1-0.7,1.3-1.3
			c0.5,0.3,1.2,0.4,1.8,0.2l0.4-0.1c0.6-0.2,1.1-0.6,1.4-1.2c0.5,0.3,1.2,0.5,1.8,0.3l0.4-0.1c0.6-0.1,1.2-0.6,1.5-1.1
			c0.5,0.4,1.1,0.6,1.8,0.4l0.5-0.1c0.6-0.1,1.2-0.5,1.5-1.1c0.4,0.4,1.1,0.6,1.8,0.5l0.5,0c0.7-0.1,1.2-0.4,1.6-1
			c0.4,0.4,1.1,0.7,1.7,0.6l0.5,0c0.7,0,1.2-0.4,1.6-0.9c0.4,0.5,1,0.8,1.7,0.7h0.5c0.7,0,1.3-0.3,1.7-0.8c0.4,0.5,1,0.8,1.7,0.8
			h0.5c0.7,0,1.3-0.2,1.7-0.7c0.3,0.5,0.9,0.9,1.6,0.9l0.5,0c0.7,0,1.3-0.2,1.8-0.6c0.3,0.5,0.9,0.9,1.6,1l0.5,0
			c0.7,0.1,1.3-0.1,1.8-0.5c0.3,0.5,0.8,1,1.5,1.1L317,6c0.6,0.1,1.3,0,1.8-0.4c0.3,0.5,0.8,1,1.4,1.2l0.5,0.1
			c0.6,0.1,1.3,0,1.8-0.3c0.2,0.6,0.7,1,1.4,1.2l0.4,0.1c0.6,0.2,1.3,0.1,1.8-0.2c0.2,0.6,0.7,1.1,1.3,1.3l0.4,0.1
			c0.6,0.2,1.3,0.2,1.9-0.1c0.2,0.6,0.6,1.1,1.2,1.4l0.4,0.2c0.6,0.3,1.3,0.2,1.9,0c0.1,0.6,0.5,1.1,1.2,1.4l0.4,0.2
			c0.6,0.3,1.3,0.3,1.9,0c0.1,0.6,0.5,1.2,1.1,1.5l0.4,0.2c0.6,0.3,1.3,0.3,1.9,0.1c0.1,0.6,0.4,1.2,1,1.6l0.4,0.2
			c0.6,0.3,1.2,0.4,1.9,0.2c0,0.6,0.4,1.2,0.9,1.6l0.4,0.3c0.5,0.4,1.2,0.5,1.8,0.3c0,0.6,0.3,1.2,0.9,1.6l0.4,0.3
			c0.5,0.4,1.2,0.5,1.8,0.4c0,0.6,0.3,1.2,0.8,1.7l0.4,0.3c0.5,0.4,1.2,0.6,1.8,0.4c0,0.6,0.2,1.3,0.7,1.7l0.3,0.3
			c0.5,0.4,1.2,0.6,1.8,0.5c0,0.6,0.2,1.3,0.7,1.8l0.3,0.3c0.5,0.5,1.1,0.7,1.8,0.6c0,0.6,0.1,1.3,0.6,1.8l0.3,0.3
			c0.5,0.5,1.1,0.7,1.7,0.7c-0.1,0.6,0.1,1.3,0.5,1.8l0.3,0.3c0.4,0.5,1.1,0.7,1.7,0.7c-0.1,0.6,0,1.3,0.5,1.8l0.3,0.4
			c0.4,0.5,1,0.8,1.7,0.8l0,0c-0.1,0.6,0,1.3,0.4,1.8l0.3,0.4c0.4,0.5,1,0.8,1.7,0.9c-0.1,0.6,0,1.3,0.3,1.9l0.3,0.4
			c0.4,0.5,1,0.9,1.6,0.9c-0.2,0.6-0.1,1.3,0.3,1.9l0.2,0.4c0.3,0.5,0.9,0.8,1.5,0.9c0,0,0,0.1,0.1,0.2c-0.1,0.5,0,1.2,0.2,1.7
			l0.2,0.4c0.3,0.5,0.7,0.8,1.2,0.9c0.1,0.1,0.1,0.2,0.2,0.4c-0.1,0.5,0,1.1,0.2,1.6l0.2,0.4c0.3,0.5,0.8,0.9,1.4,1c0,0,0,0,0,0.1
			c0,0,0,0,0,0c0,0,0,0,0.1,0c0,0,0,0,0,0.1c-0.2,0.6-0.2,1.2,0.1,1.8l0.2,0.4c0.3,0.6,0.9,1,1.5,1.1c-0.2,0.6-0.2,1.3,0,1.9
			l0.2,0.4c0.3,0.6,0.8,1,1.5,1.2c-0.3,0.6-0.3,1.3,0,1.9l0.2,0.4c0.3,0.6,0.8,1,1.4,1.2c-0.3,0.5-0.3,1.2,0,1.9l0.2,0.4
			c0.2,0.6,0.8,1.1,1.4,1.2c-0.3,0.5-0.4,1.2-0.1,1.9l0.2,0.4c0.2,0.6,0.7,1.1,1.4,1.3c-0.3,0.5-0.4,1.2-0.2,1.9l0.1,0.4
			c0.2,0.6,0.7,1.1,1.3,1.3c-0.3,0.5-0.4,1.2-0.2,1.9l0.1,0.4c0.2,0.6,0.7,1.1,1.3,1.4c-0.3,0.5-0.5,1.2-0.3,1.9l0.1,0.4
			c0.2,0.6,0.7,1.2,1.3,1.4c-0.3,0.5-0.5,1.2-0.3,1.9l0.1,0.4c0.2,0.7,0.6,1.2,1.2,1.4c-0.4,0.5-0.5,1.2-0.4,1.9l0.1,0.4
			c0.1,0.7,0.6,1.2,1.2,1.5c-0.4,0.5-0.6,1.2-0.4,1.8l0.1,0.4c0.1,0.7,0.6,1.2,1.1,1.5c-0.4,0.5-0.6,1.1-0.5,1.8l0.1,0.5
			c0.1,0.7,0.5,1.2,1.1,1.5c-0.4,0.5-0.6,1.1-0.5,1.8l0.1,0.5c0.1,0.7,0.5,1.2,1.1,1.6c-0.4,0.5-0.6,1.1-0.5,1.8l0,0.5
			c0,0.4,0.2,0.7,0.4,1c-0.7,6.9-3.3,13.7-8.2,18.5c0-8.3-4-16.2-9.2-22.6c-5.2-6.5-11.6-11.9-17.6-17.6
			c-12.4-11.8-23.2-25.2-33.7-38.7c-2-2.6-4.2-4.8-5.8-7.2c1.7-5.3,1.8-14.4,0.4-18.6c-0.3-0.9-1.3-1.4-2.2-1.1
			c-0.9,0.3-1.4,1.3-1.1,2.2c1.4,4.2,0.8,14.5-1,17.8c0,0.1-0.1,0.2-0.1,0.4c-5.3,2.1-9.9,6-13.6,10.5c-4.5,5.2-8.1,11.1-12.4,16.5
			c-4.9,5.9-10.6,11.1-17,15.4c-8.9,5.8-18.9,9.8-27.6,15.9c-8.7,6.1-16.2,15.4-16.3,26c-1.9-5.1-4.2-10.2-6.3-15.2c0,1,0,2.1,0,3.1
			c-2.8-4.3-5.9-8.2-9.2-9.2c-0.1-0.2-0.2-0.4-0.3-0.5C212.6,100,213,99.4,213.1,98.8z M350.3,119.4c-0.1,0.7-0.6,1.3-1.3,1.6
			c-1.7,0.7-6.1,2.8-11,2.8c-1,0-2-0.1-3.1-0.3c-5.9-1.2-7.7-1.4-10.4-0.7c-0.7,0.2-1.5-0.1-1.9-0.7c-0.5-0.8-0.5-2,0-2.7
			c1.8-2.6,6.8-8.6,13.2-8.6c1.9,0,3.8,0.4,5.5,1.1c0,0,0,0,0.1,0c1.2-0.3,2-2.4,2.1-3.1c0.1-0.6,0.8-1.1,1.5-0.9
			c0.6,0.1,1.1,0.8,0.9,1.5c0,0.3-0.6,2.4-2,3.9c0.2,0.1,0.5,0.3,0.7,0.4c0.1,0,0.2-0.1,0.2-0.1c1.3-0.3,2-2.5,2.1-3.1
			c0.1-0.6,0.8-1.1,1.5-0.9c0.6,0.1,1.1,0.8,0.9,1.5c-0.1,0.3-0.7,2.9-2.5,4.3c0.3,0.2,0.6,0.4,0.9,0.7c0.9-0.6,1.5-2.2,1.6-2.8
			c0.1-0.6,0.8-1.1,1.5-0.9c0.6,0.1,1.1,0.8,0.9,1.5c0,0.3-0.6,2.6-2.2,4C350.2,118.1,350.4,118.8,350.3,119.4z M322.1,184
			c0.6,1.2,0.7,2.7,0,3.9c-0.5,1.1-1.2,1.7-1.7,2.3c-3.5,3.8-9.5,5.7-17.8,5.7c-9,0-15.4-2.4-19.1-7c-0.9-1.2-1.2-2.8-0.6-4.3
			c0.1-0.3,0.3-0.6,0.5-0.8c-0.9-0.2-1.8-0.5-2.6-0.8c-1.3-0.4-2.6-0.9-2.3-2.2c0.2-1.2,1.5-1.1,1.9-1.1c1.8,0,7.4-1.4,11-2.4
			c1.6-0.4,3-0.8,4-1c2.6-0.6,5.5,0.4,7.2,1.3c1.7-0.8,4.6-1.9,7.2-1.3c1,0.2,2.4,0.6,4,1c3.7,1,9.2,2.4,11,2.4c0.4,0,1.7,0,1.9,1.1
			c0.2,1.2-1.1,1.7-2.4,2.2c-0.8,0.3-1.6,0.5-2.5,0.7C322,183.8,322,183.9,322.1,184z M253.6,113.6c-0.1-0.6,0.3-1.3,0.9-1.5
			c0.7-0.1,1.3,0.3,1.5,0.9c0.1,0.6,0.7,2.2,1.6,2.8c0.3-0.2,0.5-0.4,0.9-0.7c-1.8-1.3-2.4-3.9-2.5-4.3c-0.1-0.6,0.3-1.3,0.9-1.5
			c0.7-0.1,1.3,0.3,1.5,0.9c0.1,0.7,0.9,2.8,2.1,3.1c0.1,0,0.2,0,0.2,0.1c0.2-0.1,0.5-0.3,0.7-0.4c-1.4-1.4-2-3.5-2-3.9
			c-0.1-0.6,0.3-1.3,0.9-1.5c0.7-0.1,1.3,0.3,1.5,0.9c0.1,0.7,0.9,2.8,2.1,3.1c0,0,0,0,0.1,0c1.7-0.7,3.6-1.1,5.5-1.1
			c6.3,0,11.3,6,13.2,8.6c0.5,0.7,0.5,1.9,0,2.7c-0.4,0.6-1.2,0.9-1.9,0.7c-2.7-0.7-4.5-0.5-10.4,0.7c-1,0.2-2,0.3-3.1,0.3
			c-4.8,0-9.3-2-11-2.8c-0.7-0.3-1.1-0.9-1.3-1.6c-0.1-0.6,0.1-1.3,0.5-1.8C254.2,116.2,253.7,114,253.6,113.6z M291.7,140.5
			c0.3-0.6,1.1-0.8,1.7-0.5c0.6,0.3,0.8,1.1,0.5,1.7c-1.9,3.6,0.1,7.6,0.2,7.6c0.2,0.4,0.2,0.8,0,1.2c-0.2,0.4-0.6,0.6-1,0.6
			c-3.4,0-6.2,2.8-6.2,6.2c0,3.4,2.8,6.2,6.2,6.2c0.7,0,1.2,0.5,1.2,1.2s-0.5,1.2-1.2,1.2c-4.8,0-8.7-3.9-8.7-8.7
			c0-4.2,3-7.6,6.9-8.5C290.6,146.9,290,143.6,291.7,140.5z M295.3,158.3c0.6,0.2,2.7,1.6,2.4,2.5c-2.1,1.5-5.2-1.7-7.5-1.7
			C290.4,156.9,293.9,157.8,295.3,158.3z M286.4,108.2c-0.5,0.4-1.3,0.4-1.7-0.1c-5.7-6.5-13.9-8.2-24.4-4.8
			c-8,2.6-14.4,7.2-14.4,7.3c-0.2,0.1-0.5,0.2-0.7,0.2c-0.4,0-0.7-0.2-1-0.5c-0.4-0.5-0.3-1.3,0.2-1.7c0.2-0.2,6.7-4.9,15.1-7.6
			c11.3-3.7,20.7-1.7,27.1,5.5C287,107,286.9,107.7,286.4,108.2z M311.2,141.6c-0.3-0.6-0.1-1.3,0.5-1.7c0.6-0.3,1.3-0.1,1.7,0.5
			c1.7,3.2,1.1,6.4,0.5,8.3c3.9,0.8,6.9,4.3,6.9,8.5c0,4.8-3.9,8.7-8.7,8.7c-0.7,0-1.2-0.5-1.2-1.2c0-0.7,0.5-1.2,1.2-1.2
			c3.4,0,6.2-2.8,6.2-6.2c0-3.4-2.8-6.2-6.2-6.2c-0.4,0-0.8-0.2-1.1-0.6c-0.2-0.4-0.2-0.8,0-1.2C311,149.2,313.2,145.2,311.2,141.6z
			 M314.9,159.1c-2.3,0-5.4,3.2-7.5,1.7c-0.3-0.9,1.8-2.2,2.4-2.5C311.2,157.8,314.7,156.9,314.9,159.1z M344.8,103.3
			c-10.5-3.4-18.6-1.7-24.4,4.8c-0.4,0.5-1.2,0.5-1.7,0.1s-0.5-1.2-0.1-1.7c6.4-7.3,15.8-9.2,27.1-5.5c8.4,2.7,14.8,7.4,15.1,7.6
			c0.5,0.4,0.6,1.2,0.2,1.7c-0.2,0.3-0.6,0.5-1,0.5c-0.2,0-0.5-0.1-0.7-0.2C359.1,110.5,352.8,105.8,344.8,103.3z M210.5,118.9
			c0.3-0.6,1.1-0.7,1.7-0.4c0.1,0.1,4.2,2.6,8.2,6.8c5.3,5.7,7.8,11.8,7.3,17.7c0,0.6-0.6,1.1-1.2,1.1c0,0-0.1,0-0.1,0
			c-0.7,0-1.2-0.6-1.1-1.3c1.2-12.6-14.1-22.2-14.3-22.3C210.3,120.3,210.1,119.5,210.5,118.9z M213.1,155.1c0,0-0.1,0-0.1-0.1
			c0.1-0.1,0.2-0.2,0.3-0.4l0,0C213.2,154.8,213.1,155,213.1,155.1z M229.3,199C229.3,198.9,229.3,198.9,229.3,199
			c0.1-0.1,0.2-0.1,0.3-0.1c0,0.1,0,0.1,0,0.2C229.5,199,229.4,199,229.3,199z M230.7,195l-0.3-0.3c-0.5-0.4-1.2-0.6-1.8-0.5
			c0-0.6-0.2-1.3-0.7-1.8l-0.3-0.3c-0.5-0.4-1.1-0.6-1.7-0.6c0-0.4,0-0.8-0.2-1.2l-0.2-0.4c-0.3-0.6-0.8-1-1.5-1.2
			c0.3-0.6,0.3-1.3,0-1.9l-0.2-0.4c-0.3-0.6-0.8-1-1.4-1.2c0.3-0.5,0.3-1.2,0.1-1.9l-0.2-0.4c-0.2-0.6-0.8-1.1-1.4-1.3
			c0.3-0.5,0.4-1.2,0.1-1.9l-0.2-0.4c-0.2-0.6-0.7-1.1-1.4-1.3c0.3-0.5,0.4-1.2,0.2-1.9l-0.1-0.4c-0.2-0.6-0.7-1.1-1.3-1.3
			c0.3-0.5,0.4-1.2,0.2-1.9l-0.1-0.4c-0.2-0.6-0.7-1.1-1.3-1.4c0.3-0.5,0.5-1.2,0.3-1.9L217,168c-0.2-0.6-0.6-1.2-1.2-1.4
			c0.4-0.5,0.5-1.2,0.3-1.9l-0.1-0.5c-0.2-0.7-0.6-1.2-1.2-1.4c0.4-0.5,0.5-1.2,0.4-1.9l-0.1-0.4c-0.1-0.7-0.6-1.2-1.2-1.5
			c0.2-0.3,0.4-0.7,0.4-1c0.2,0.1,0.5,0.3,0.7,0.3c-0.3,0.6-0.3,1.3,0,1.9l0.2,0.4c0.3,0.6,0.8,1,1.5,1.2c-0.3,0.6-0.3,1.3,0,1.9
			l0.2,0.4c0.3,0.6,0.8,1,1.5,1.2c-0.3,0.6-0.3,1.3,0,1.9l0.2,0.4c0.3,0.6,0.9,1,1.5,1.2c-0.3,0.6-0.3,1.3,0,1.9l0.2,0.4
			c0.3,0.6,0.9,1,1.5,1.2c-0.2,0.6-0.3,1.3,0,1.9l0.2,0.4c0.3,0.6,0.9,1,1.5,1.2c-0.2,0.6-0.2,1.3,0,1.9l0.2,0.4
			c0.3,0.6,0.9,1,1.5,1.1c-0.2,0.6-0.2,1.3,0.1,1.9l0.2,0.4c0.3,0.6,0.9,1,1.6,1.1c-0.2,0.6-0.2,1.3,0.1,1.9l0.2,0.4
			c0.3,0.6,0.9,1,1.6,1.1c-0.2,0.6-0.2,1.3,0.2,1.9l0.2,0.4c0.3,0.6,1,1,1.6,1c-0.2,0.6-0.1,1.3,0.2,1.9l0.3,0.4
			c0.4,0.6,1,0.9,1.7,1c-0.2,0.6-0.1,1.3,0.3,1.9l0.3,0.4c0.4,0.6,1,0.9,1.7,0.9c-0.2,0.6,0,1.3,0.3,1.9l0.3,0.4
			c0.4,0.6,1.1,0.9,1.7,0.9c-0.1,0.6,0,1.3,0.4,1.9l0.2,0.2c-0.5-0.2-1-0.3-1.5-0.2c0-0.6-0.3-1.3-0.8-1.7l-0.4-0.3
			c-0.5-0.4-1.2-0.6-1.8-0.4c0-0.6-0.2-1.3-0.8-1.7l-0.3-0.3c-0.5-0.4-1.2-0.6-1.8-0.5C231.4,196.1,231.2,195.4,230.7,195z
			 M355.1,223.8l-0.3,0.3c-0.5,0.4-0.7,1.1-0.7,1.7c-0.6-0.1-1.3,0-1.8,0.5l-0.4,0.3c-0.5,0.4-0.8,1.1-0.8,1.7
			c-0.6-0.1-1.3,0-1.8,0.4l-0.4,0.3c-0.5,0.4-0.8,1-0.8,1.7c-0.6-0.1-1.3,0-1.8,0.3l-0.4,0.3c-0.5,0.4-0.9,1-0.9,1.6
			c-0.6-0.2-1.3-0.1-1.9,0.2l-0.4,0.2c-0.6,0.3-0.9,0.9-1,1.6c-0.6-0.2-1.3-0.1-1.9,0.2l-0.4,0.2c-0.6,0.3-1,0.9-1.1,1.5
			c-0.6-0.2-1.3-0.2-1.9,0.1l-0.4,0.2c-0.6,0.3-1,0.9-1.1,1.5c-0.6-0.2-1.2-0.3-1.9,0l-0.4,0.2c-0.6,0.3-1,0.8-1.2,1.4
			c-0.5-0.3-1.2-0.3-1.9-0.1l-0.4,0.2c-0.6,0.2-1.1,0.7-1.3,1.3c-0.5-0.3-1.2-0.4-1.9-0.2l-0.4,0.1c-0.6,0.2-1.1,0.7-1.3,1.3
			c-0.5-0.3-1.2-0.5-1.8-0.3l-0.4,0.1c-0.6,0.2-1.1,0.6-1.4,1.2c-0.5-0.4-1.2-0.5-1.8-0.4l-0.5,0.1c-0.6,0.1-1.2,0.6-1.5,1.1
			c-0.5-0.4-1.1-0.6-1.8-0.5l-0.5,0.1c-0.7,0.1-1.2,0.5-1.5,1c-0.4-0.4-1.1-0.6-1.8-0.6l-0.5,0c-0.7,0.1-1.2,0.4-1.6,0.9
			c-0.4-0.4-1-0.7-1.7-0.7l-0.5,0c-0.7,0-1.3,0.4-1.6,0.9c-0.4-0.5-1-0.8-1.7-0.8l0,0h-0.5c-0.7,0-1.3,0.3-1.7,0.8
			c-0.4-0.5-1-0.8-1.7-0.8h-0.5c0,0-0.1,0-0.1,0c-0.6,0-1.2,0.2-1.6,0.7c-0.3-0.5-0.9-0.9-1.6-0.9l-0.5,0c-0.7,0-1.3,0.1-1.8,0.6
			c-0.3-0.5-0.9-0.9-1.6-1l-0.4-0.1c-0.7-0.1-1.3,0.1-1.8,0.5c-0.3-0.5-0.8-1-1.5-1.1l-0.4-0.1c-0.6-0.1-1.3,0-1.8,0.4
			c-0.2-0.6-0.8-1-1.4-1.2l-0.4-0.1c-0.6-0.2-1.3,0-1.8,0.3c-0.2-0.6-0.7-1-1.4-1.3l-0.4-0.1c-0.6-0.2-1.3-0.1-1.8,0.2
			c-0.2-0.6-0.6-1.1-1.3-1.3l-0.4-0.2c-0.6-0.2-1.3-0.2-1.9,0.1c-0.2-0.6-0.6-1.1-1.2-1.4l-0.4-0.2c-0.6-0.3-1.3-0.2-1.9,0
			c-0.1-0.6-0.5-1.2-1.1-1.5l-0.4-0.2c-0.6-0.3-1.3-0.3-1.9,0c-0.1-0.6-0.5-1.2-1.1-1.5l-0.4-0.2c-0.6-0.3-1.3-0.4-1.9-0.1
			c-0.1-0.6-0.4-1.2-1-1.6l-0.4-0.2c-0.6-0.3-1.2-0.4-1.9-0.2c0-0.6-0.4-1.2-0.9-1.6l-0.4-0.3c-0.5-0.4-1.2-0.5-1.8-0.3
			c0-0.6-0.3-1.2-0.9-1.7l-0.4-0.3c-0.5-0.4-1.2-0.5-1.8-0.4c0-0.6-0.3-1.3-0.8-1.7l-0.4-0.3c-0.5-0.4-1.2-0.6-1.8-0.5
			c0-0.6-0.2-1.3-0.7-1.7l-0.3-0.3c-0.5-0.4-1.1-0.6-1.8-0.5c0-0.6-0.1-1.3-0.6-1.8l-0.3-0.3c-0.5-0.5-1.1-0.7-1.8-0.6
			c0-0.6-0.1-1.3-0.6-1.8l-0.3-0.3c-0.4-0.5-1.1-0.7-1.7-0.7c0.1-0.6,0-1.3-0.5-1.8l-0.3-0.3c-0.4-0.5-1.1-0.8-1.7-0.7
			c0.1-0.6,0-1.3-0.4-1.8l-0.3-0.4c-0.4-0.5-1-0.8-1.7-0.8c0.1-0.6,0-1.3-0.4-1.8l-0.3-0.4c-0.4-0.5-1-0.8-1.7-0.9
			c0.1-0.6,0-1.3-0.3-1.9l-0.3-0.4c-0.4-0.5-1-0.9-1.6-0.9c0.2-0.6,0.1-1.3-0.2-1.9l-0.2-0.4c-0.4-0.6-1-0.9-1.6-1
			c0.1-0.3,0.1-0.6,0.1-1c0.4,0.1,0.8,0.2,1.2,0.1c0,0.6,0.2,1.3,0.8,1.8l0.4,0.3c0.5,0.4,1.2,0.6,1.9,0.4c0,0.6,0.3,1.3,0.8,1.7
			l0.4,0.3c0.5,0.4,1.2,0.5,1.9,0.4c0,0.6,0.3,1.3,0.9,1.7l0.4,0.3c0.5,0.4,1.3,0.5,1.9,0.3c0,0.6,0.3,1.3,0.9,1.7l0.4,0.3
			c0.6,0.4,1.3,0.5,1.9,0.3c0,0.6,0.4,1.3,1,1.7l0.4,0.3c0.6,0.4,1.3,0.5,1.9,0.2c0,0.6,0.4,1.3,1,1.6l0.4,0.2
			c0.6,0.4,1.3,0.4,1.9,0.2c0.1,0.6,0.4,1.3,1,1.6l0.4,0.2c0.6,0.3,1.3,0.4,1.9,0.2c0.1,0.6,0.5,1.2,1.1,1.6l0.4,0.2
			c0.6,0.3,1.3,0.4,1.9,0.1c0.1,0.6,0.5,1.2,1.1,1.6l0.4,0.2c0.6,0.3,1.3,0.3,1.9,0c0.1,0.6,0.5,1.2,1.2,1.5l0.4,0.2
			c0.6,0.3,1.3,0.3,1.9,0c0.1,0.6,0.6,1.2,1.2,1.5l0.4,0.2c0.6,0.3,1.3,0.2,1.9,0c0.1,0.6,0.6,1.2,1.3,1.5l0.4,0.2
			c0.6,0.3,1.4,0.2,1.9-0.1c0.2,0.6,0.6,1.2,1.3,1.4l0.5,0.2c0.6,0.2,1.4,0.1,1.9-0.1c0.2,0.6,0.7,1.1,1.4,1.4l0.5,0.1
			c0.7,0.2,1.4,0.1,1.9-0.2c0.2,0.6,0.7,1.1,1.4,1.3l0.5,0.1c0.7,0.2,1.4,0.1,1.9-0.3c0.2,0.6,0.8,1.1,1.5,1.3l0.5,0.1
			c0.7,0.2,1.4,0,1.9-0.3c0.3,0.6,0.8,1.1,1.5,1.2l0.5,0.1c0.7,0.1,1.4,0,1.9-0.4c0.3,0.6,0.8,1,1.6,1.2l0.5,0.1
			c0.7,0.1,1.4-0.1,1.9-0.5c0.3,0.6,0.9,1,1.6,1.1l0.5,0c0.7,0.1,1.4-0.1,1.9-0.6c0.3,0.5,0.9,1,1.6,1l0.5,0c0.7,0,1.4-0.2,1.8-0.7
			c0.4,0.5,1,0.9,1.7,1l0.5,0c0.7,0,1.4-0.2,1.8-0.7c0.4,0.5,1,0.9,1.7,0.9h0.5c0,0,0,0,0,0c0.7,0,1.3-0.3,1.7-0.8
			c0.4,0.5,1,0.8,1.7,0.8h0h0.5c0.7,0,1.3-0.4,1.7-0.9c0,0,0.1,0.1,0.1,0.1c0.4,0.4,1,0.7,1.7,0.7c0.9,0,1.7-0.5,2.1-1.2
			c0.4,0.4,1,0.7,1.6,0.7c0.1,0,0.1,0,0.2,0l0.5,0c0.7-0.1,1.3-0.5,1.6-1.1c0.5,0.4,1.2,0.7,1.9,0.5l0.5-0.1
			c0.7-0.1,1.3-0.5,1.6-1.1c0.5,0.4,1.2,0.6,1.9,0.5l0.5-0.1c0.7-0.1,1.2-0.6,1.5-1.2c0.5,0.4,1.2,0.5,1.9,0.4l0.5-0.1
			c0.7-0.2,1.2-0.7,1.5-1.3c0.5,0.4,1.2,0.5,1.9,0.3l0.5-0.1c0.7-0.2,1.2-0.7,1.4-1.3c0.5,0.3,1.3,0.4,1.9,0.2l0.5-0.2
			c0.7-0.2,1.1-0.8,1.3-1.4c0.6,0.3,1.3,0.4,2,0.1l0.4-0.2c0.6-0.3,1.1-0.8,1.3-1.5c0.6,0.3,1.3,0.3,2,0l0.4-0.2
			c0.6-0.3,1.1-0.9,1.2-1.5c0.6,0.3,1.3,0.3,1.9,0l0.4-0.2c0.6-0.3,1-0.9,1.1-1.6c0.3,0.1,0.6,0.1,0.9,0.1
			C355.5,223.4,355.3,223.6,355.1,223.8z M241,204.1c-0.1,0-0.2,0-0.4,0c0-0.5-0.2-0.9-0.5-1.3c0.2,0.1,0.5,0.1,0.8,0.1
			C240.8,203.4,240.9,203.8,241,204.1z M356.9,223.2c-0.1,0-0.2,0-0.3,0C356.7,223.1,356.7,223.1,356.9,223.2V223
			C356.9,223,356.9,223.1,356.9,223.2z M394.4,139c-0.5,0.3-0.9,0.9-1,1.6l0,0.5c0,0.7,0.2,1.3,0.6,1.8c-0.5,0.3-0.9,0.9-1,1.6
			l0,0.5c-0.1,0.7,0.1,1.3,0.6,1.8c-0.5,0.3-0.9,0.9-1,1.6l0,0.5c-0.1,0.7,0.1,1.3,0.5,1.8c-0.5,0.3-1,0.9-1.1,1.5l-0.1,0.5
			c-0.1,0.7,0.1,1.3,0.5,1.8c-0.5,0.3-1,0.8-1.1,1.5l-0.1,0.5c-0.1,0.7,0,1.3,0.4,1.8c-0.6,0.3-1,0.8-1.2,1.5l-0.1,0.4
			c-0.1,0.7,0,1.3,0.4,1.9c-0.6,0.3-1,0.8-1.2,1.5l-0.1,0.4c-0.2,0.7,0,1.3,0.3,1.9c-0.6,0.2-1,0.7-1.2,1.4l-0.1,0.4
			c-0.2,0.6,0,1.3,0.3,1.9c-0.6,0.2-1.1,0.7-1.3,1.4l-0.1,0.4c-0.2,0.6-0.1,1.3,0.2,1.9c-0.6,0.2-1.1,0.7-1.3,1.3l-0.1,0.4
			c-0.2,0.6-0.1,1.3,0.2,1.9c-0.6,0.2-1.1,0.7-1.3,1.3l-0.2,0.4c-0.2,0.6-0.1,1.3,0.1,1.9c-0.6,0.2-1.1,0.6-1.4,1.3l-0.2,0.4
			c-0.2,0.6-0.2,1.3,0.1,1.9c-0.6,0.2-1.1,0.6-1.4,1.2l-0.2,0.4c-0.3,0.6-0.2,1.3,0,1.9c-0.6,0.1-1.2,0.6-1.5,1.2l-0.2,0.4
			c-0.3,0.6-0.3,1.3,0,1.9c-0.6,0.1-1.2,0.5-1.5,1.1l-0.2,0.4c-0.3,0.6-0.3,1.3-0.1,1.9c-0.6,0.1-1.2,0.5-1.5,1.1l-0.2,0.4
			c-0.3,0.6-0.3,1.3-0.1,1.9c-0.6,0.1-1.2,0.4-1.6,1l-0.2,0.4c-0.3,0.6-0.4,1.3-0.2,1.9c-0.6,0.1-1.2,0.4-1.6,1l-0.2,0.4
			c-0.4,0.6-0.4,1.2-0.2,1.9c-0.6,0-1.2,0.4-1.6,0.9l-0.3,0.4c-0.4,0.5-0.5,1.2-0.3,1.9c-0.6,0-1.2,0.3-1.7,0.9l-0.3,0.4
			c-0.1,0.2-0.2,0.4-0.3,0.6l-0.1,0.1c-0.4,0.3-0.7,0.8-0.8,1.3c-0.2,0.1-0.3,0.1-0.5,0.3c-0.5,0-0.9,0.1-1.3,0.4l-0.4,0.3
			c-0.5,0.4-0.8,1-0.9,1.7c-0.6-0.1-1.3,0-1.9,0.3l-0.4,0.2c-0.5,0.4-0.9,1-0.9,1.6c-0.6-0.2-1.3-0.1-1.9,0.2l-0.4,0.2
			c-0.6,0.3-0.9,0.9-1,1.6c-0.6-0.2-1.3-0.1-1.9,0.2l-0.4,0.2c-0.6,0.3-1,0.9-1.1,1.5c-0.6-0.2-1.3-0.2-1.9,0.1l-0.4,0.2
			c-0.6,0.3-1,0.9-1.1,1.5c-0.6-0.2-1.3-0.3-1.9,0l-0.4,0.2c-0.6,0.3-1,0.8-1.2,1.4c-0.5-0.3-1.2-0.3-1.9,0l-0.4,0.2
			c-0.6,0.2-1.1,0.8-1.3,1.4c-0.5-0.3-1.2-0.4-1.9-0.1l-0.4,0.1c-0.6,0.2-1.1,0.7-1.3,1.3c-0.5-0.3-1.2-0.4-1.9-0.2l-0.4,0.1
			c-0.6,0.2-1.1,0.7-1.4,1.3c-0.5-0.3-1.2-0.5-1.8-0.3l-0.4,0.1c-0.6,0.2-1.2,0.6-1.4,1.2c-0.5-0.4-1.2-0.5-1.8-0.4l-0.4,0.1
			c-0.7,0.1-1.2,0.6-1.5,1.1c-0.5-0.4-1.1-0.6-1.8-0.5l-0.4,0.1c-0.7,0.1-1.2,0.5-1.5,1c-0.4-0.4-1.1-0.6-1.8-0.6l-0.4,0
			c-0.7,0.1-1.3,0.5-1.6,1c-0.4-0.5-1.1-0.9-1.8-0.9c-0.7,0-1.3,0.3-1.8,0.8c-0.1,0.1-0.2,0.2-0.2,0.3c-0.4-0.5-1-0.7-1.7-0.7h-0.5
			c-0.7,0-1.3,0.3-1.7,0.8c-0.4-0.5-1-0.8-1.7-0.8h-0.5c-0.7,0-1.3,0.3-1.7,0.7c-0.4-0.5-1-0.8-1.6-0.9l-0.5,0
			c-0.7,0-1.3,0.2-1.7,0.7c-0.3-0.5-0.9-0.9-1.6-1l-0.5,0c-0.7,0-1.3,0.1-1.8,0.6c-0.3-0.5-0.9-0.9-1.6-1l-0.5,0
			c-0.7-0.1-1.3,0.1-1.8,0.5c-0.3-0.5-0.8-1-1.5-1.1l-0.5-0.1c-0.7-0.1-1.3,0-1.8,0.4c-0.3-0.5-0.8-1-1.5-1.1l-0.4-0.1
			c-0.7-0.1-1.3,0-1.8,0.4c-0.2-0.6-0.8-1-1.4-1.2l-0.5-0.1c-0.6-0.2-1.3,0-1.9,0.3c-0.2-0.6-0.7-1.1-1.4-1.3l-0.4-0.1
			c-0.6-0.2-1.3-0.1-1.9,0.2c-0.2-0.6-0.7-1.1-1.3-1.3l-0.4-0.1c-0.6-0.2-1.3-0.1-1.9,0.2c-0.2-0.6-0.7-1.1-1.3-1.4l-0.4-0.2
			c-0.6-0.2-1.3-0.2-1.9,0.1c-0.2-0.6-0.6-1.1-1.3-1.4l-0.4-0.2c-0.6-0.2-1.3-0.2-1.9,0c-0.1-0.6-0.6-1.1-1.2-1.4l-0.4-0.2
			c-0.6-0.3-1.3-0.2-1.9,0c-0.1-0.6-0.5-1.2-1.2-1.5l-0.4-0.2c-0.6-0.3-1.3-0.3-1.9,0c-0.1-0.6-0.5-1.2-1.1-1.5l-0.4-0.2
			c-0.6-0.3-1.3-0.3-1.9-0.1c0,0,0-0.1,0-0.1c0-0.6-0.3-1.2-0.9-1.6l-0.4-0.3c-0.5-0.4-1.2-0.5-1.8-0.3c0-0.6-0.3-1.2-0.8-1.7
			l-0.4-0.3c-0.5-0.4-1.2-0.6-1.8-0.4c0-0.6-0.2-1.3-0.7-1.7l-0.3-0.3c-0.5-0.4-1.2-0.6-1.8-0.5c0-0.6-0.2-1.3-0.7-1.7l-0.3-0.3
			c-0.5-0.5-1.1-0.7-1.8-0.6c0-0.6-0.1-1.3-0.6-1.8l-0.3-0.3c-0.4-0.5-1.1-0.7-1.7-0.7c0.1-0.6-0.1-1.3-0.5-1.8l-0.3-0.3
			c-0.4-0.5-1.1-0.8-1.7-0.7c0.1-0.6,0-1.3-0.4-1.8l-0.3-0.4c-0.4-0.5-1-0.8-1.7-0.8c0.1-0.6,0-1.3-0.4-1.8l-0.3-0.4
			c-0.4-0.5-1-0.8-1.7-0.9c0.1-0.6,0-1.3-0.3-1.9l-0.3-0.4c-0.4-0.5-1-0.9-1.6-0.9c0.2-0.6,0.1-1.3-0.2-1.9l-0.2-0.4
			c-0.4-0.6-1-0.9-1.6-1c0.2-0.6,0.1-1.3-0.2-1.9l-0.2-0.4c-0.3-0.6-0.9-0.9-1.6-1c0.2-0.6,0.2-1.3-0.1-1.9l-0.2-0.4
			c-0.3-0.6-0.9-1-1.6-1.1c0.2-0.6,0.2-1.3-0.1-1.9l-0.2-0.4c-0.3-0.6-0.9-1-1.5-1.1c0.2-0.6,0.2-1.3-0.1-1.9l-0.2-0.4
			c-0.3-0.6-0.9-1-1.5-1.1c0.2-0.6,0.2-1.3,0-1.9l-0.2-0.4c-0.3-0.6-0.9-1-1.5-1.2c0.2-0.6,0.3-1.3,0-1.9l-0.2-0.4
			c-0.3-0.6-0.9-1-1.5-1.2c0.3-0.6,0.3-1.3,0-1.9l-0.2-0.4c-0.3-0.6-0.8-1-1.5-1.2c0.3-0.6,0.3-1.3,0-1.9l-0.2-0.4
			c-0.3-0.6-0.8-1-1.5-1.2c0.3-0.6,0.3-1.3,0-1.9l-0.2-0.4c-0.3-0.6-0.8-1-1.5-1.2c0.3-0.6,0.3-1.3,0-1.9l-0.2-0.4
			c-0.3-0.6-0.9-1-1.5-1.2c0.3-0.6,0.3-1.3,0-1.9l-0.2-0.4c-0.3-0.6-0.9-1-1.5-1.2c0.2-0.6,0.2-1.3,0-1.9l-0.2-0.4
			c-0.3-0.6-0.9-1-1.5-1.1c0-0.1,0-0.3,0-0.4c0.1-0.5,0-1-0.2-1.5l-0.2-0.3c-0.1-0.2-0.3-0.5-0.6-0.6c0.4-0.4,0.6-1,0.5-1.7l0-0.5
			c0-0.7-0.4-1.3-1-1.6c0.4-0.4,0.7-1.1,0.7-1.8l0-0.5c0-0.7-0.4-1.3-0.9-1.6c0.3-0.3,0.5-0.6,0.6-1c2.8,3.6,5.5,7.2,6.6,10.9
			c2.3,7.1,9.8,15,12.6,8.6c0.2-1.3,0.8-3.3,2.6-2.8c3.5,33,24.6,71.6,69.5,71.7l0,0h0h0l0,0c44.9,0,66-38.6,69.5-71.7
			c1.8-0.4,2.4,1.6,2.6,2.8c2.9,6.4,10.3-1.4,12.6-8.6c1.2-3.7,4-7.4,6.8-11c0.1,0.2,0.3,0.5,0.5,0.7c-0.5,0.4-0.9,0.9-0.9,1.6
			l0,0.5C393.7,138,393.9,138.6,394.4,139z M394.2,120.6c-0.1,0.1-15.5,9.7-14.3,22.3c0,0.7-0.4,1.3-1.1,1.3c0,0-0.1,0-0.1,0
			c-0.6,0-1.2-0.5-1.2-1.1c-0.5-5.9,2-12,7.3-17.7c4-4.3,8-6.7,8.2-6.8c0.6-0.3,1.3-0.2,1.7,0.4C395,119.5,394.8,120.3,394.2,120.6z
			"/>
		<path d="M255.3,119.4c0.1,0.7,0.6,1.3,1.3,1.6c1.7,0.7,6.1,2.8,11,2.8c1,0,2-0.1,3.1-0.3c5.9-1.2,7.7-1.4,10.4-0.7
			c0.7,0.2,1.5-0.1,1.9-0.7c0.5-0.8,0.5-2,0-2.7c-1.8-2.6-6.8-8.6-13.2-8.6c-1.9,0-3.8,0.4-5.5,1.1c0,0,0,0-0.1,0
			c-1.2-0.3-2-2.4-2.1-3.1c-0.1-0.6-0.8-1.1-1.5-0.9c-0.6,0.1-1.1,0.8-0.9,1.5c0,0.3,0.6,2.4,2,3.9c-0.2,0.1-0.5,0.3-0.7,0.4
			c-0.1,0-0.2-0.1-0.2-0.1c-1.2-0.3-2-2.4-2.1-3.1c-0.1-0.6-0.8-1.1-1.5-0.9c-0.6,0.1-1.1,0.8-0.9,1.5c0.1,0.3,0.7,2.9,2.5,4.3
			c-0.3,0.2-0.6,0.4-0.9,0.7c-0.9-0.6-1.5-2.2-1.6-2.8c-0.1-0.6-0.8-1.1-1.5-0.9c-0.6,0.1-1.1,0.8-0.9,1.5c0,0.3,0.6,2.6,2.2,4
			C255.4,118.1,255.2,118.8,255.3,119.4z M280.4,120.2c-2.1-0.4-4-0.2-7.3,0.3c0.7-0.8,1.2-1.9,1.2-3.1c0-1.6-0.8-3-2-3.8
			C275.9,114.9,278.9,118.1,280.4,120.2z M258.6,118.4c0,0,0.1-0.1,0.2-0.1c1.9-1.6,5.1-3.9,8.6-4.7c-1.3,0.8-2.3,2.3-2.3,4
			s0.9,3.1,2.2,3.9c-4,0-7.7-1.6-9.5-2.4C258.2,118.8,258.4,118.6,258.6,118.4z"/>
		<path d="M352,113.6c0.1-0.6-0.3-1.3-0.9-1.5c-0.6-0.1-1.3,0.3-1.5,0.9c-0.1,0.6-0.7,2.2-1.6,2.8c-0.3-0.2-0.5-0.4-0.9-0.7
			c1.8-1.3,2.4-3.9,2.5-4.3c0.1-0.6-0.3-1.3-0.9-1.5c-0.6-0.1-1.3,0.3-1.5,0.9c-0.1,0.5-0.8,2.8-2.1,3.1c-0.1,0-0.2,0-0.2,0.1
			c-0.2-0.1-0.5-0.3-0.7-0.4c1.4-1.4,2-3.5,2-3.9c0.1-0.6-0.3-1.3-0.9-1.5c-0.6-0.1-1.3,0.3-1.5,0.9c-0.1,0.7-0.9,2.8-2.1,3.1
			c0,0,0,0-0.1,0c-1.7-0.7-3.6-1.1-5.5-1.1c-6.3,0-11.3,6-13.2,8.6c-0.5,0.7-0.5,1.9,0,2.7c0.4,0.6,1.2,0.9,1.9,0.7
			c2.7-0.7,4.5-0.5,10.4,0.7c1,0.2,2,0.3,3.1,0.3c4.8,0,9.3-2,11-2.8c0.7-0.3,1.1-0.9,1.3-1.6c0.1-0.6-0.1-1.3-0.5-1.8
			C351.4,116.2,351.9,114,352,113.6z M332.4,120.6c-2-0.4-3.6-0.6-4.9-0.6c-0.8,0-1.6,0-2.3,0.2c1.5-2,4.5-5.4,8.1-6.5
			c-1.2,0.8-2,2.2-2,3.8C331.2,118.7,331.7,119.7,332.4,120.6z M338.2,121.4c1.3-0.8,2.2-2.3,2.2-3.9c0-1.7-0.9-3.2-2.3-4
			c3.5,0.7,6.7,3,8.6,4.7c0,0,0.1,0.1,0.2,0.1c0.2,0.2,0.5,0.4,0.7,0.6C345.9,119.8,342.1,121.4,338.2,121.4z"/>
		<path d="M210.9,120.6c0.1,0.1,15.5,9.7,14.3,22.3c0,0.7,0.4,1.3,1.1,1.3c0,0,0.1,0,0.1,0c0.6,0,1.2-0.5,1.2-1.1
			c0.5-5.9-2-12-7.3-17.7c-4-4.3-8-6.7-8.2-6.8c-0.6-0.3-1.3-0.2-1.7,0.4C210.1,119.5,210.3,120.3,210.9,120.6z"/>
		<path d="M392.9,118.5c-0.1,0.1-4.2,2.6-8.2,6.8c-5.3,5.7-7.8,11.8-7.3,17.7c0,0.6,0.6,1.1,1.2,1.1c0,0,0.1,0,0.1,0
			c0.7,0,1.2-0.6,1.1-1.3c-1.2-12.6,14.1-22.2,14.3-22.3c0.6-0.3,0.7-1.1,0.4-1.7C394.3,118.3,393.5,118.2,392.9,118.5z"/>
		<path d="M259.5,100.9c-8.4,2.7-14.8,7.4-15.1,7.6c-0.5,0.4-0.6,1.2-0.2,1.7c0.2,0.3,0.6,0.5,1,0.5c0.2,0,0.5-0.1,0.7-0.2
			c0,0,6.4-4.7,14.4-7.3c10.5-3.4,18.6-1.7,24.4,4.8c0.4,0.5,1.2,0.5,1.7,0.1c0.5-0.4,0.5-1.2,0.1-1.7
			C280.2,99.2,270.8,97.3,259.5,100.9z"/>
		<path d="M359.9,110.8c0.4,0,0.7-0.2,1-0.5c0.4-0.5,0.3-1.3-0.2-1.7c-0.2-0.2-6.7-4.9-15.1-7.6c-11.3-3.7-20.7-1.7-27.1,5.5
			c-0.4,0.5-0.4,1.3,0.1,1.7c0.5,0.4,1.3,0.4,1.7-0.1c5.7-6.5,14-8.2,24.4-4.8c8,2.6,14.4,7.2,14.4,7.3
			C359.4,110.7,359.7,110.8,359.9,110.8z"/>
	</g>
	<g>
		<path class="st1" d="M183.1,121.5c0-3.2,0-6.3,0-9.3l-23.4,25c0,0.2,0,0.4,0,0.6c0,13.2-10.7,23.9-23.9,23.9
			c-4.9,0-9.4-1.5-13.2-4c-0.1,0.2-0.2,0.4-0.4,0.7c-0.5,0.7-1.2,1.4-2.1,2.2c13.8,5.5,23.3,17.1,23.3,30.5c0,1.2-0.1,2.6-0.3,3.9
			c0,0.5-0.4,0.9-1,1c-0.5,0.1-1-0.1-1.3-0.6c-1.1-1.9-7.7-3.9-17.8-5.1c-3.5,4.3-10,10-18.7,10.8c-0.1,0-0.1,0-0.2,0
			c-0.3,0-0.5,0-0.8,0c-0.4,0-0.7,0-1.1,0c-0.4,0-0.8,0-1.1,0c-0.3,0-0.5,0-0.8,0c-0.1,0-0.1,0-0.2,0c-8.8-0.8-15.2-6.5-18.7-10.8
			c-10.2,1.2-16.7,3.2-17.8,5.1c-0.2,0.4-0.6,0.6-1.1,0.6c-0.1,0-0.1,0-0.2,0c-0.5-0.1-0.9-0.5-1-1c-0.2-1.3-0.3-2.6-0.3-3.9
			c0-13.4,9.5-25,23.3-30.5c-0.9-0.8-1.6-1.5-2.1-2.2c-0.2-0.2-0.3-0.4-0.4-0.7c-3.8,2.5-8.3,4-13.2,4c-13.2,0-23.9-10.7-23.9-23.9
			c0-0.2,0-0.4,0-0.6l-23.4-25c0,3.1,0,6.1,0,9.3c-5.6-8.5-12.2-15.3-19.2-2.1c-4.7,8.8,1,16.4,7.7,25.2c3.1,4,6.3,8.1,7.7,12.2
			c2.3,7.1,9.8,15,12.6,8.6c0.2-1.3,0.8-3.3,2.6-2.8c15.9,31.4,46.1,71.7,69.7,71.7s53-39.1,69.7-71.7c1.8-0.4,2.4,1.6,2.6,2.8
			c2.9,6.4,10.3-1.4,12.6-8.6c1.4-4.1,4.6-8.2,7.7-12.2c6.6-8.8,12.4-16.4,7.7-25.2C195.3,106.1,188.7,113,183.1,121.5z M27.1,154.5
			c0,0.6-0.6,1.1-1.2,1.1c0,0-0.1,0-0.1,0c-0.7,0-1.2-0.6-1.1-1.3c1.2-12.6-14.1-22.2-14.3-22.3c-0.6-0.3-0.7-1.1-0.4-1.7
			c0.3-0.6,1.1-0.7,1.7-0.4c0.1,0.1,4.2,2.6,8.2,6.8C25.1,142.5,27.6,148.6,27.1,154.5z M193.7,132c-0.1,0.1-15.5,9.7-14.3,22.3
			c0,0.7-0.4,1.3-1.1,1.3c0,0-0.1,0-0.1,0c-0.6,0-1.2-0.5-1.2-1.1c-0.5-5.9,2-12,7.3-17.7c4-4.3,8-6.7,8.2-6.8
			c0.6-0.3,1.3-0.2,1.7,0.4C194.5,130.9,194.3,131.6,193.7,132z"/>
		<path class="st1" d="M21.8,109.5l22.8,24.4c1.9-11.3,11.7-20,23.5-20c12.1,0,22.1,9.1,23.7,20.8c3.2-3.1,6.6-4.7,10.2-4.7
			s7,1.6,10.2,4.7c1.5-11.7,11.5-20.8,23.7-20.8c11.8,0,21.7,8.7,23.5,20l22.8-24.4c0.2-0.2,0.6-0.4,0.9-0.4
			c0.1-22.8-0.5-43.4-22.5-71.1c-13.9-14.7-33.5-22.1-58.4-22.1l0,0c0,0-0.1,0-0.1,0s-0.1,0-0.1,0l0,0C77,15.9,57.4,23.3,43.5,38
			c-22.1,27.7-22.6,48.3-22.5,71.1C21.3,109.1,21.6,109.2,21.8,109.5z M160.1,109c0.5,0.4,0.6,1.2,0.2,1.7c-0.2,0.3-0.6,0.5-1,0.5
			c-0.2,0-0.5-0.1-0.7-0.2c0,0-6.4-4.7-14.4-7.3c-10.5-3.4-18.6-1.7-24.4,4.8c-0.4,0.5-1.2,0.5-1.7,0.1s-0.5-1.2-0.1-1.7
			c6.4-7.3,15.8-9.2,27.1-5.5C153.4,104.1,159.9,108.8,160.1,109z M76.3,64.4c0.6-0.3,1.3-0.1,1.7,0.5c3.1,5.5,12.1,8.9,24,8.9
			c11.9,0,20.9-3.3,24-8.9c0.3-0.6,1.1-0.8,1.7-0.5c0.6,0.3,0.8,1.1,0.5,1.7c-3.6,6.3-13.3,10.2-26.2,10.2s-22.6-3.8-26.2-10.2
			C75.5,65.5,75.7,64.8,76.3,64.4z M46,89.4c0.6-0.4,16.2-11.3,27.3-9.4c5,0.8,10.2,4.4,15.2,7.9c5,3.5,9.8,6.7,13.5,6.7
			c3.8,0,8.5-3.3,13.5-6.7c5-3.5,10.2-7,15.2-7.9c11-1.9,26.6,9,27.3,9.4c0.5,0.4,0.7,1.2,0.3,1.7c-0.4,0.5-1.2,0.7-1.7,0.3
			c-0.1-0.1-15.4-10.7-25.4-9c-4.5,0.7-9.4,4.2-14.2,7.5c-5.4,3.7-10.4,7.2-15,7.2s-9.6-3.5-15-7.2c-4.8-3.3-9.7-6.7-14.2-7.5
			c-10.1-1.7-25.3,8.9-25.4,9c-0.5,0.4-1.3,0.2-1.7-0.3C45.3,90.5,45.4,89.8,46,89.4z M43.9,109c0.2-0.2,6.7-4.9,15.1-7.6
			c11.3-3.7,20.7-1.7,27.1,5.5c0.4,0.5,0.4,1.3-0.1,1.7c-0.5,0.4-1.3,0.4-1.7-0.1c-5.7-6.5-13.9-8.2-24.4-4.8
			c-8,2.6-14.4,7.2-14.4,7.3c-0.2,0.1-0.5,0.2-0.7,0.2c-0.4,0-0.7-0.2-1-0.5C43.2,110.2,43.3,109.4,43.9,109z"/>
		<path class="st1" d="M119.9,190c-5.3-0.5-11.3-0.8-17.9-0.8c-6.6,0-12.7,0.3-17.9,0.8c3.7,4,9.9,8.8,17.9,8.8
			C110,198.7,116.3,194,119.9,190z"/>
		<path class="st1" d="M117.8,162.3c-4.8,3.5-11.8,6.9-15.8,6.9l0,0c-4,0-11-3.4-15.8-6.9c-13.6,4.9-23.1,16-23.1,28.7
			c0,0.4,0,0.8,0,1.2c6.3-3.8,23.6-5.6,38.9-5.6s32.6,1.8,38.9,5.6c0-0.4,0-0.8,0-1.2C140.9,178.3,131.4,167.2,117.8,162.3z"/>
		<path class="st1" d="M83.4,156.1c0.1,0.2,0.3,0.7,1,1.4c3.7,4,13.6,9.2,17.6,9.2l0,0c4,0,13.9-5.2,17.6-9.2c0.6-0.7,0.9-1.2,1-1.4
			c-5.2-4.3-8.5-10.8-8.6-18c-2.7-3.3-6-5.6-10-5.6c-4,0-7.3,2.4-10,5.6C92,145.4,88.6,151.8,83.4,156.1z"/>
		<circle class="st1" cx="68.2" cy="137.8" r="21.4"/>
		<path d="M44.3,137.8c0,13.2,10.7,23.9,23.9,23.9c4.9,0,9.4-1.5,13.2-4c0.1,0.2,0.2,0.4,0.4,0.7c0.5,0.7,1.2,1.4,2.1,2.2
			c-13.8,5.5-23.3,17.1-23.3,30.5c0,1.2,0.1,2.6,0.3,3.9c0,0.5,0.4,0.9,1,1c0.1,0,0.1,0,0.2,0c0.4,0,0.8-0.2,1.1-0.6
			c1.1-1.9,7.7-3.9,17.8-5.1c3.5,4.3,10,10,18.7,10.8c0.1,0,0.1,0,0.2,0c0.3,0,0.5,0,0.8,0c0.4,0,0.7,0,1.1,0c0.4,0,0.8,0,1.1,0
			c0.3,0,0.5,0,0.8,0c0.1,0,0.1,0,0.2,0c8.8-0.8,15.2-6.5,18.7-10.8c10.2,1.2,16.7,3.2,17.8,5.1c0.2,0.4,0.8,0.7,1.3,0.6
			c0.5-0.1,0.9-0.5,1-1c0.2-1.3,0.3-2.6,0.3-3.9c0-13.4-9.5-25-23.3-30.5c0.9-0.8,1.6-1.5,2.1-2.2c0.2-0.2,0.3-0.4,0.4-0.7
			c3.8,2.5,8.3,4,13.2,4c13.2,0,23.9-10.7,23.9-23.9c0-0.2,0-0.4,0-0.6l23.4-25l0.9-1c0.4-0.5,0.4-1.3,0-1.7
			c-0.2-0.2-0.5-0.3-0.8-0.3c-0.3,0-0.6,0.1-0.9,0.4l-22.8,24.4c-1.9-11.3-11.7-20-23.5-20c-12.1,0-22.1,9.1-23.7,20.8
			c-3.2-3.1-6.6-4.7-10.2-4.7c-3.6,0-7,1.6-10.2,4.7C90.4,123,80.4,114,68.2,114c-11.8,0-21.7,8.7-23.5,20l-22.8-24.4
			c-0.2-0.2-0.6-0.4-0.9-0.4s-0.6,0.1-0.8,0.3c-0.5,0.4-0.5,1.2,0,1.7l0.9,1l23.4,25C44.3,137.4,44.3,137.6,44.3,137.8z M89.6,137.8
			c0,11.8-9.6,21.4-21.4,21.4s-21.4-9.6-21.4-21.4s9.6-21.4,21.4-21.4S89.6,126,89.6,137.8z M102,132.5c4,0,7.3,2.4,10,5.6
			c0.1,7.2,3.4,13.7,8.6,18c-0.1,0.2-0.3,0.7-1,1.4c-3.7,4-13.6,9.2-17.6,9.2l0,0c-4,0-13.9-5.2-17.6-9.2c-0.6-0.7-0.9-1.2-1-1.4
			c5.2-4.3,8.5-10.8,8.6-18C94.7,134.9,98,132.5,102,132.5z M135.9,116.4c11.8,0,21.4,9.6,21.4,21.4s-9.6,21.4-21.4,21.4
			s-21.4-9.6-21.4-21.4S124.1,116.4,135.9,116.4z M140.9,192.3c-6.3-3.8-23.6-5.6-38.9-5.6s-32.6,1.8-38.9,5.6c0-0.4,0-0.8,0-1.2
			c0-12.8,9.5-23.8,23.1-28.7c4.8,3.5,11.8,6.9,15.8,6.9l0,0c4,0,11-3.4,15.8-6.9c13.6,4.9,23.1,16,23.1,28.7
			C140.9,191.5,140.9,191.9,140.9,192.3z M102,198.7c-8,0-14.3-4.8-17.9-8.8c5.3-0.5,11.3-0.8,17.9-0.8c6.6,0,12.7,0.3,17.9,0.8
			C116.3,194,110,198.7,102,198.7z"/>
		<circle class="st1" cx="135.9" cy="137.8" r="21.4"/>
		<path d="M11.6,129.9c-0.6-0.3-1.3-0.2-1.7,0.4c-0.3,0.6-0.2,1.3,0.4,1.7c0.1,0.1,15.5,9.7,14.3,22.3c0,0.7,0.4,1.3,1.1,1.3
			c0,0,0.1,0,0.1,0c0.6,0,1.2-0.5,1.2-1.1c0.5-5.9-2-12-7.3-17.7C15.8,132.5,11.8,130,11.6,129.9z"/>
		<path d="M192.4,129.9c-0.1,0.1-4.2,2.6-8.2,6.8c-5.3,5.7-7.8,11.8-7.3,17.7c0,0.6,0.6,1.1,1.2,1.1c0,0,0.1,0,0.1,0
			c0.7,0,1.2-0.6,1.1-1.3c-1.2-12.6,14.1-22.2,14.3-22.3c0.6-0.3,0.7-1.1,0.4-1.7C193.7,129.7,193,129.5,192.4,129.9z"/>
		<path d="M102,76.3c12.8,0,22.6-3.8,26.2-10.2c0.3-0.6,0.1-1.3-0.5-1.7c-0.6-0.3-1.3-0.1-1.7,0.5c-3.1,5.5-12.1,8.9-24,8.9
			s-20.9-3.3-24-8.9c-0.3-0.6-1.1-0.8-1.7-0.5c-0.6,0.3-0.8,1.1-0.5,1.7C79.4,72.5,89.2,76.3,102,76.3z"/>
		<path d="M44.6,111.2c0.2,0,0.5-0.1,0.7-0.2c0,0,6.4-4.7,14.4-7.3c10.5-3.4,18.6-1.7,24.4,4.8c0.4,0.5,1.2,0.5,1.7,0.1
			c0.5-0.4,0.5-1.2,0.1-1.7c-6.4-7.3-15.8-9.2-27.1-5.5c-8.4,2.7-14.8,7.4-15.1,7.6c-0.5,0.4-0.6,1.2-0.2,1.7
			C43.9,111,44.2,111.2,44.6,111.2z"/>
		<path d="M118,106.9c-0.4,0.5-0.4,1.3,0.1,1.7c0.5,0.4,1.3,0.4,1.7-0.1c5.7-6.5,13.9-8.2,24.4-4.8c8,2.6,14.4,7.2,14.4,7.3
			c0.2,0.1,0.5,0.2,0.7,0.2c0.4,0,0.7-0.2,1-0.5c0.4-0.5,0.3-1.3-0.2-1.7c-0.2-0.2-6.7-4.9-15.1-7.6
			C133.7,97.7,124.4,99.6,118,106.9z"/>
		<path d="M47.4,91.4c0.1-0.1,15.4-10.7,25.4-9c4.5,0.7,9.4,4.2,14.2,7.5c5.4,3.7,10.4,7.2,15,7.2s9.6-3.5,15-7.2
			c4.8-3.3,9.7-6.7,14.2-7.5c10.1-1.7,25.3,8.9,25.4,9c0.5,0.4,1.3,0.2,1.7-0.3s0.2-1.3-0.3-1.7c-0.6-0.4-16.2-11.3-27.3-9.4
			c-5,0.8-10.2,4.4-15.2,7.9c-5,3.5-9.8,6.7-13.5,6.7s-8.5-3.3-13.5-6.7c-5-3.5-10.2-7-15.2-7.9c-11-1.9-26.6,9-27.3,9.4
			c-0.5,0.4-0.7,1.2-0.3,1.7C46.1,91.7,46.9,91.8,47.4,91.4z"/>
	</g>
	<g>
		<path class="st0" d="M582.8,73.1c0,0-0.1,0-0.1-0.1c0,0.1,0,0.1,0,0.2C582.7,73.2,582.7,73.1,582.8,73.1z"/>
		<path class="st0" d="M581.8,69.3L581.8,69.3C581.8,69.3,581.8,69.3,581.8,69.3L581.8,69.3z"/>
		<path class="st0" d="M420,121c-0.2-0.1-0.4-0.3-0.6-0.4c0.1,0.2,0.3,0.5,0.4,0.7c0,0,0.1-0.1,0.1-0.1
			C419.9,121.1,419.9,121.1,420,121C419.9,121.1,420,121,420,121z"/>
		<path class="st0" d="M584.2,80.7c-0.1-0.1-0.2-0.2-0.4-0.3c0,0.2,0,0.4,0.1,0.7C584,81,584.1,80.8,584.2,80.7z"/>
		<path class="st0" d="M584.7,84.6c-0.2-0.1-0.3-0.3-0.5-0.4c0,0,0,0.1,0,0.1c0.1,0.1,0.2,0.3,0.4,0.4
			C584.6,84.7,584.6,84.6,584.7,84.6z"/>
		<path class="st0" d="M583.6,76.9c-0.1,0-0.2-0.1-0.2-0.2c0,0.1,0,0.3,0,0.4C583.4,77,583.5,76.9,583.6,76.9z"/>
		<path class="st0" d="M583.7,111.6c0,0.1,0,0.2,0,0.4c0,0,0.1-0.1,0.2-0.1C583.9,111.7,583.8,111.6,583.7,111.6z"/>
		<path class="st0" d="M584.1,107.8c-0.1-0.1-0.3-0.3-0.4-0.4c0,0.2,0,0.5,0,0.9C583.8,108.1,583.9,107.9,584.1,107.8z"/>
		<path class="st0" d="M583.9,103.9c0,0.1,0,0.1,0,0.2c0,0,0.1-0.1,0.1-0.1C584,103.9,584,103.9,583.9,103.9z"/>
		<path class="st1" d="M528.6,129.8c0.1,0,0.2,0.1,0.3,0.1c-0.5-0.6-0.8-1.4-0.8-2.3c0-0.9,0.3-1.7,0.8-2.3c-2.9,0.8-5.4,3.1-7,5
			c2.1-0.7,3.3-1,4.3-1C527,129.3,527.7,129.5,528.6,129.8z"/>
		<path class="st1" d="M602.6,120.5c-1.5-2.8-4.6-7.5-8.3-7.5c-2.6,0-5.2,2.3-7,4.5c0-0.5-0.2-1-0.6-1.4c0.5-0.3,1-0.9,1.1-1.6
			l0-0.5c0.1-0.7-0.1-1.4-0.6-1.8c0.5-0.3,0.9-0.9,1-1.6l0-0.5c0-0.7-0.2-1.4-0.6-1.8c0.5-0.3,0.9-1,1-1.7l0-0.5
			c0-0.7-0.2-1.3-0.7-1.8c0.5-0.4,0.9-1,0.9-1.7v-0.5c0-0.7-0.3-1.3-0.8-1.8c0.5-0.4,0.8-1,0.9-1.7V98c0-0.7-0.3-1.3-0.8-1.8
			c0.5-0.4,0.8-1,0.8-1.8V94c0-0.7-0.3-1.3-0.9-1.7c0.5-0.4,0.8-1.1,0.8-1.8V90c0-0.7-0.4-1.3-0.9-1.7c0.5-0.4,0.7-1.1,0.7-1.8
			l0-0.5c0-0.7-0.4-1.3-1-1.7c0.4-0.4,0.7-1.1,0.6-1.8l0-0.5c-0.1-0.7-0.5-1.3-1-1.6c0.4-0.5,0.7-1.1,0.5-1.9l-0.1-0.5
			c-0.1-0.7-0.5-1.3-1.1-1.6c0.4-0.5,0.6-1.2,0.5-1.9l-0.1-0.5c-0.1-0.7-0.6-1.2-1.2-1.5c0.4-0.5,0.6-1.2,0.4-1.9L586,70
			c-0.2-0.7-0.6-1.2-1.2-1.5c0.4-0.5,0.5-1.2,0.3-1.9l-0.1-0.5c-0.2-0.7-0.7-1.2-1.3-1.4c0.3-0.5,0.4-1.3,0.2-1.9l-0.1-0.5
			c-0.2-0.7-0.8-1.1-1.4-1.4c0.3-0.6,0.4-1.3,0.1-1.9l-0.4-0.4c-0.3-0.6-0.8-1.1-1.5-1.3c0.3-0.6,0.3-1.3,0-2l-0.2-0.4
			c-0.3-0.6-0.9-1.1-1.5-1.2c0.2-0.6,0.2-1.3-0.1-2l-0.2-0.4c-0.3-0.6-0.9-1-1.6-1.1c0.2-0.6,0.2-1.3-0.2-1.9l-0.3-0.4
			c-0.4-0.6-1-0.9-1.7-1c0.2-0.6,0.1-1.3-0.3-1.9l-0.3-0.4c-0.4-0.6-1.1-0.9-1.7-0.9c0.1-0.6,0-1.3-0.4-1.9l-0.3-0.4
			c-0.4-0.5-1.1-0.8-1.8-0.8c0.1-0.6-0.1-1.3-0.6-1.9l-0.3-0.4c-0.5-0.5-1.2-0.7-1.8-0.7c0-0.6-0.1-1.3-0.7-1.8l-0.4-0.3
			c-0.5-0.5-1.2-0.7-1.9-0.5c0-0.6-0.2-1.3-0.8-1.8l-0.4-0.3c-0.5-0.4-1.3-0.6-1.9-0.4c0-0.6-0.3-1.3-0.9-1.7l-0.4-0.3
			c-0.6-0.4-1.3-0.5-1.9-0.3c0-0.6-0.4-1.3-1-1.7l-0.4-0.2c-0.6-0.4-1.3-0.4-1.9-0.2c-0.1-0.6-0.5-1.2-1.1-1.6l-0.4-0.2
			c-0.6-0.3-1.3-0.3-2-0.1c-0.1-0.6-0.5-1.2-1.2-1.5l-0.4-0.2c-0.6-0.3-1.4-0.3-2,0c-0.1-0.6-0.6-1.2-1.3-1.5l-0.4-0.2
			c-0.6-0.3-1.4-0.2-1.9,0.1c-0.2-0.6-0.7-1.1-1.3-1.4l-0.5-0.1c-0.7-0.2-1.4-0.1-1.9,0.2c-0.2-0.6-0.7-1.1-1.4-1.3l-0.5-0.1
			c-0.7-0.2-1.4-0.1-1.9,0.3c-0.2-0.6-0.8-1.1-1.5-1.3l-0.5-0.1c-0.7-0.2-1.4,0-1.9,0.4c-0.3-0.6-0.8-1-1.5-1.2l-0.5-0.1
			c-0.7-0.1-1.4,0-1.9,0.4c-0.3-0.6-0.9-1-1.6-1.1l-0.5-0.1c-0.7-0.1-1.4,0.1-1.9,0.5c-0.3-0.5-0.9-1-1.6-1.1l-0.5,0
			c-0.7-0.1-1.4,0.1-1.8,0.6c-0.3-0.5-0.9-0.9-1.6-1l-0.5,0c-0.7-0.1-1.4,0.2-1.8,0.6c-0.3-0.5-1-0.9-1.7-1l-0.5,0
			c-0.7,0-1.3,0.2-1.8,0.7c-0.4-0.5-1-0.9-1.7-0.9h-0.5c-0.7,0-1.3,0.2-1.8,0.7c-0.4-0.5-1-0.8-1.7-0.9h-0.5c-0.7,0-1.3,0.3-1.8,0.8
			c-0.4-0.5-1-0.8-1.7-0.8h-0.5c-0.7,0-1.3,0.3-1.7,0.8c-0.4-0.5-1-0.8-1.8-0.8h-0.5c-0.7,0-1.3,0.3-1.7,0.9
			c-0.4-0.5-1.1-0.8-1.8-0.7l-0.5,0c-0.7,0-1.3,0.4-1.7,0.9c-0.4-0.5-1.1-0.7-1.8-0.7l-0.5,0c-0.7,0-1.3,0.4-1.7,1
			c-0.4-0.4-1.1-0.7-1.8-0.6l-0.5,0c-0.7,0.1-1.3,0.5-1.6,1c-0.5-0.4-1.1-0.7-1.8-0.6l-0.5,0c-0.7,0.1-1.3,0.5-1.6,1.1
			c-0.5-0.4-1.2-0.6-1.9-0.5l-0.5,0.1c-0.7,0.1-1.2,0.6-1.6,1.1c-0.5-0.4-1.2-0.6-1.9-0.4l-0.5,0.1c-0.7,0.1-1.2,0.6-1.5,1.2
			c-0.5-0.4-1.2-0.5-1.9-0.4l-0.5,0.1c-0.7,0.2-1.2,0.7-1.5,1.3c-0.5-0.4-1.2-0.5-1.9-0.3l-0.5,0.1c-0.7,0.2-1.2,0.7-1.4,1.3
			c-0.5-0.3-1.3-0.4-1.9-0.2l-0.5,0.2c-0.7,0.2-1.1,0.8-1.3,1.4c-0.6-0.3-1.3-0.4-1.9-0.1l-0.4,0.2c-0.6,0.3-1.1,0.8-1.3,1.5
			c-0.6-0.3-1.3-0.3-2,0l-0.4,0.2c-0.6,0.3-1,0.9-1.2,1.5c-0.6-0.2-1.3-0.2-2,0.1l-0.4,0.2c-0.6,0.3-1,0.9-1.1,1.6
			c-0.6-0.2-1.3-0.1-1.9,0.2l-0.4,0.3c-0.6,0.4-0.9,1-1,1.7c-0.6-0.2-1.3-0.1-1.9,0.3c-0.1,0.1-0.3,0.2-0.4,0.3
			c-0.6,0.4-0.9,1.1-0.9,1.7c-0.6-0.1-1.3,0-1.9,0.4l-0.2,0.3c-0.5,0.4-0.8,1.1-0.8,1.8c-0.6-0.1-1.3,0.1-1.9,0.6l-0.3,0.3
			c-0.5,0.5-0.7,1.2-0.6,1.8c-0.6,0-1.3,0.2-1.8,0.7l-0.3,0.4c-0.5,0.5-0.6,1.2-0.5,1.9c-0.6,0-1.3,0.2-1.8,0.8l-0.3,0.4
			c-0.4,0.5-0.6,1.3-0.4,1.9c-0.6,0-1.3,0.3-1.7,0.9l-0.3,0.4c-0.4,0.6-0.5,1.3-0.3,1.9c-0.6,0-1.3,0.4-1.7,1l-0.2,0.4
			c-0.4,0.6-0.4,1.3-0.1,2c-0.6,0.1-1.2,0.5-1.6,1.1l-0.2,0.4c-0.3,0.6-0.3,1.3,0,2c-0.6,0.1-1.2,0.6-1.5,1.2c0,0.1-0.1,0.3-0.2,0.5
			c-0.3,0.6-0.2,1.4,0,1.9c-0.6,0.2-1.2,0.6-1.4,1.3l-0.2,0.5c-0.2,0.6-0.2,1.4,0.1,2c-0.6,0.2-1.1,0.7-1.4,1.4l-0.1,0.5
			c-0.2,0.7-0.1,1.4,0.2,1.9c-0.6,0.2-1.1,0.8-1.3,1.4l-0.1,0.5c-0.2,0.7,0,1.4,0.3,1.9c-0.6,0.3-1.1,0.8-1.2,1.5l-0.1,0.5
			c-0.1,0.7,0,1.4,0.4,1.9c-0.6,0.3-1,0.9-1.2,1.6l-0.1,0.5c-0.1,0.7,0.1,1.4,0.5,1.9c-0.6,0.3-1,0.9-1.1,1.6l0,0.5
			c-0.1,0.7,0.1,1.4,0.6,1.9c-0.5,0.3-1,0.9-1,1.7l0,0.5c0,0.7,0.2,1.4,0.6,1.8c-0.5,0.3-0.9,1-1,1.7l0,0.5c0,0.7,0.2,1.4,0.7,1.8
			c-0.5,0.4-0.9,1-0.9,1.7v0.5c0,0.7,0.3,1.3,0.8,1.8c-0.5,0.4-0.8,1-0.8,1.7v0.5c0,0.7,0.3,1.3,0.8,1.7c-0.5,0.4-0.8,1-0.8,1.8v0.5
			c0,0.7,0.4,1.3,0.9,1.7c-0.5,0.4-0.8,1.1-0.7,1.8l0,0.5c0,0.7,0.4,1.3,0.9,1.7c-0.5,0.4-0.7,1.1-0.7,1.8l0,0.5
			c0,0.7,0.4,1.3,1,1.7c-0.4,0.4-0.7,1.1-0.6,1.8l0,0.5c0.1,0.7,0.5,1.3,1,1.6c-0.4,0.5-0.7,1.1-0.6,1.8l0,0.5
			c0.1,0.7,0.5,1.3,1.1,1.6c-0.4,0.5-0.6,1.2-0.5,1.9l0.1,0.5c0,0.1,0,0.2,0.1,0.3c-1.9-2.9-5.2-6.7-8.8-6.7c-3.8,0-6.8,4.7-8.3,7.5
			c-4.7,8.7,1.1,16.3,7.7,25c0,0,0,0,0,0c3.1,4,6.3,8.1,7.7,12.2c2,6.4,6.5,10,8.8,10.8c0.3,0.1,0.6,0.1,0.9,0.1
			c0.6,0,1.2-0.2,1.7-0.5c0.6-0.4,1-1.1,1.2-1.8c0.1-0.4,0.2-0.8,0.3-1.4c0.2-0.8,1-1.5,1.9-1.5c0.1,0,0.2,0,0.3,0c0,0,0,0,0.1,0
			c0.7,0.1,1.1,0.4,1.4,1c13.5,29.8,32.2,70.6,68.1,70.6c36,0,55.1-40.7,68.6-70.5c0.2-0.4,0.8-1.1,1.5-1.2c0,0,0,0,0.1,0
			c0.1,0,0.2,0,0.4,0c0.9,0,1.6,0.6,1.8,1.4c0,0.5,0.2,1,0.2,1.3l0,0c0.1,0.8,0.5,1.5,1.2,2c0.5,0.3,1.1,0.5,1.7,0.5
			c0.3,0,0.6,0,0.9-0.1c2.3-0.8,6.7-4.4,8.8-10.8c1.4-4.1,4.6-8.2,7.7-12.2c0,0,0.1-0.1,0.1-0.1
			C601.6,136.9,607.3,129.3,602.6,120.5z M584.2,80.7c-0.1,0.1-0.2,0.2-0.3,0.4c0-0.2,0-0.4-0.1-0.7
			C583.9,80.5,584.1,80.6,584.2,80.7z M583.6,76.9c0,0.1-0.1,0.1-0.2,0.2c0-0.1,0-0.3,0-0.4C583.4,76.7,583.5,76.8,583.6,76.9z
			 M582.8,73.1c0,0,0,0.1-0.1,0.1c0-0.1,0-0.1,0-0.2C582.7,73,582.7,73,582.8,73.1z M581.8,69.3L581.8,69.3
			C581.8,69.3,581.8,69.3,581.8,69.3L581.8,69.3z M427.2,155.6c0,0.6-0.6,1.1-1.2,1.1c0,0-0.1,0-0.1,0c-0.7,0-1.2-0.6-1.1-1.3
			c1.2-12.6-14.1-22.2-14.3-22.3c-0.6-0.3-0.7-1.1-0.4-1.7c0.3-0.6,1.1-0.7,1.7-0.4c0.1,0.1,4.2,2.6,8.2,6.8
			C425.2,143.6,427.7,149.7,427.2,155.6z M478.2,217.8c-0.2,0.1-0.5,0.2-0.7,0.2c-0.4,0-0.7-0.2-1-0.5c0,0-4.7-6.5-9.3-14.2
			c-6.2-10.4-9.2-17.9-9.1-22.3c0-1.5,0.6-3.3,1.5-5.2c-4.6-0.3-8.2-1.5-11.1-3c2.6,8.5,12,26.9,16.8,36.3c3.4,6.7,3.4,6.7,3.4,7.2
			c0,0.6-0.6,1.1-1.2,1.1c0,0,0,0-0.1,0c-0.5,0-1-0.4-1.1-0.9c-0.2-0.5-1.6-3.2-3.1-6.2c-5.7-11.2-16.3-31.8-17.6-39.2
			c-4.3-3-6.1-6.2-6.2-6.5c-0.3-0.6-0.1-1.3,0.5-1.7c0.6-0.3,1.3-0.1,1.7,0.5c0.2,0.4,5.2,9.3,19.3,10.1
			c4.8-9.2,14.6-20.5,15.1-21.1c0.4-0.5,1.2-0.6,1.7-0.1c0.5,0.4,0.6,1.2,0.1,1.7c-4.7,5.4-16.9,20.8-17.2,27.2
			c-0.1,3.9,2.8,11,8.7,20.9c4.5,7.5,9.1,14,9.2,14C478.9,216.6,478.8,217.4,478.2,217.8z M488.6,89c5,3.5,9.8,6.7,13.5,6.7
			s8.5-3.3,13.5-6.7c5-3.5,10.2-7,15.2-7.9c11-1.9,26.6,9,27.3,9.4c0.5,0.4,0.7,1.2,0.3,1.7c-0.4,0.5-1.2,0.7-1.7,0.3
			c-0.1-0.1-15.4-10.7-25.4-9c-4.5,0.7-9.4,4.2-14.2,7.5c-5.4,3.7-10.4,7.2-15,7.2c-4.6,0-9.6-3.5-15-7.2c-4.8-3.3-9.7-6.7-14.2-7.5
			c-10.1-1.7-25.3,8.9-25.4,9c-0.5,0.4-1.3,0.2-1.7-0.3c-0.4-0.5-0.2-1.3,0.3-1.7c0.6-0.4,16.2-11.3,27.3-9.4
			C478.4,81.9,483.6,85.5,488.6,89z M476.5,65.6c0.6-0.3,1.3-0.1,1.7,0.5c3.1,5.5,12.1,8.9,24,8.9c11.9,0,20.9-3.3,24-8.9
			c0.3-0.6,1.1-0.8,1.7-0.5c0.6,0.3,0.8,1.1,0.5,1.7c-3.6,6.4-13.3,10.2-26.2,10.2c-12.8,0-22.6-3.8-26.2-10.2
			C475.6,66.6,475.9,65.9,476.5,65.6z M524.1,162.1c-0.9,1.8-2.5,3.1-4.5,3.7c-0.7,0.2-1.5,0.3-2.3,0.3c-1.2,0-2.4-0.3-3.5-0.8
			c-0.8-0.4-1.6-1-2.2-1.7c-1.6,2.6-5.3,4.5-9.6,4.5s-7.9-1.8-9.6-4.5c-0.6,0.7-1.3,1.3-2.2,1.7c-1.1,0.6-2.3,0.8-3.5,0.8
			c-0.7,0-1.5-0.1-2.3-0.3c-1.9-0.6-3.5-1.9-4.5-3.7s-1.1-3.9-0.5-5.8c0.2-0.6,0.9-1,1.5-0.8s1,0.9,0.8,1.5
			c-0.4,1.3-0.3,2.7,0.3,3.9s1.7,2.1,3,2.5c2.6,0.8,5.4-0.6,6.3-3.2c0-0.6,0.6-1.1,1.2-1.1c0.5,0,1,0.3,1.1,0.8
			c0.1,0.2,0.1,0.4,0.1,0.6c0.1,2.7,3.8,4.9,8,4.9c4.4,0,8-2.3,8-5.1v0l0,0c0-0.6,0.6-1.1,1.2-1.1c0.6,0,1.1,0.4,1.2,1
			c0.9,2.6,3.7,4.1,6.3,3.2c1.3-0.4,2.4-1.3,3-2.5c0.6-1.2,0.7-2.6,0.3-3.9c-0.2-0.6,0.1-1.3,0.8-1.5s1.3,0.1,1.5,0.8
			C525.3,158.3,525.1,160.3,524.1,162.1z M532.7,181.7L532.7,181.7c0.7,0.1,1.3,0.6,1.6,1.3c0,0.1,0.1,0.2,0.1,0.4v0
			c0.1,0.5,0,1.1-0.3,1.6c-2.1,3.1-13.7,14.5-32.1,14.5S472.1,188.1,470,185c-0.3-0.5-0.4-1.1-0.3-1.6v0c0-0.1,0-0.2,0.1-0.4
			c0.3-0.7,0.9-1.1,1.6-1.3c5.1-0.8,17.5-2.5,22.4-2.2c1.4,0.1,4.1,1,6.9,2c0.5,0.1,0.9,0.3,1.2,0.4c0.3-0.1,0.8-0.2,1.2-0.4
			c2.8-1,5.5-1.9,6.9-2C515.2,179.1,527.6,180.9,532.7,181.7z M484.8,133.7C484.8,133.7,484.8,133.7,484.8,133.7
			c-0.4,0-0.7,0-1.1-0.2c-5.4-2-5.6-2-7.2-1.3c-0.5,0.2-1.2,0.4-2.1,0.7c-2.4,0.7-5.1-0.1-8.1-0.9c-4.3-1.2-9.6-2.8-16.2-0.6
			c-1.1,0.3-1.6,0.5-2.2-0.1c-0.3-0.3-0.4-0.9-0.2-1.3c0.2-0.5,0.2-0.5,3.8-1.7c1.3-0.4,4-1.3,7.1-2.3c7.2-2.2,12-3.3,14.3-3.3
			c6.1,0,10.9,5.5,12.9,8.3c2.6,2.9,2.5,7.4-0.3,10.3c-0.2,0.2-0.5,0.3-0.9,0.3s-0.6-0.1-0.9-0.3c-0.5-0.5-0.5-1.3,0-1.7
			C485.4,137.8,485.7,135.5,484.8,133.7z M520.5,133.5c-0.3,0.1-0.7,0.2-1,0.2c0,0,0,0-0.1,0c-0.3,0.6-0.4,1.3-0.4,2.1
			c0,1.3,0.5,2.6,1.5,3.6c0.5,0.5,0.5,1.3,0,1.7c-0.2,0.2-0.5,0.3-0.9,0.3c-0.3,0-0.6-0.1-0.9-0.3c-1.4-1.4-2.2-3.3-2.2-5.3
			c0-1.8,0.7-3.6,1.9-5c2-2.7,6.8-8.3,12.9-8.3c2.2,0,7,1.1,14.3,3.3c3.1,0.9,5.8,1.8,7.1,2.3c3.6,1.2,3.6,1.2,3.8,1.7
			c0.2,0.4,0.1,1-0.2,1.3c-0.5,0.6-1.1,0.4-2.2,0.1c-6.6-2.1-11.9-0.6-16.2,0.6c-3,0.9-5.6,1.6-8.1,0.9c-0.9-0.2-1.6-0.5-2.1-0.7
			C526.1,131.5,525.9,131.5,520.5,133.5z M544.4,104.9c-10.5-3.4-18.6-1.7-24.4,4.8c-0.4,0.5-1.2,0.5-1.7,0.1
			c-0.5-0.4-0.5-1.2-0.1-1.7c6.4-7.3,15.8-9.2,27.1-5.5c8.4,2.7,14.8,7.4,15.1,7.6c0.5,0.4,0.6,1.2,0.2,1.7c-0.2,0.3-0.6,0.5-1,0.5
			c-0.2,0-0.5-0.1-0.7-0.2C558.7,112.1,552.4,107.5,544.4,104.9z M459.1,102.5c11.3-3.7,20.7-1.7,27.1,5.5c0.4,0.5,0.4,1.3-0.1,1.7
			c-0.5,0.4-1.3,0.4-1.7-0.1c-13.8-15.8-38.6,2.3-38.8,2.5c-0.2,0.1-0.5,0.2-0.7,0.2c-0.4,0-0.7-0.1-1-0.5c-0.4-0.5-0.3-1.3,0.2-1.7
			C444.2,109.9,450.7,105.2,459.1,102.5z M509.9,211.8c-2.1,0.1-4.8,0.1-7.8,0.1c-3,0-5.7,0-7.8-0.1c-3-0.1-4.7-0.2-4.7-1.7
			c0-0.7,0.5-1.2,1.2-1.2c0.3,0,0.5,0.1,0.7,0.2c2.4,0.5,18.6,0.5,21,0c0.2-0.1,0.4-0.2,0.7-0.2c0.7,0,1.2,0.5,1.2,1.2
			C514.6,211.5,512.9,211.6,509.9,211.8z M564.9,164.5c-0.1,0.2-1.9,3.5-6.2,6.5c-1.3,7.4-11.9,28-17.6,39.2c-1.6,3-2.9,5.7-3.1,6.2
			c-0.1,0.5-0.5,0.9-1.1,0.9c0,0,0,0-0.1,0c-0.6,0-1.2-0.5-1.2-1.1c0-0.5,0-0.5,3.4-7.2c4.8-9.4,14.3-27.8,16.8-36.3
			c-2.9,1.4-6.5,2.6-11.1,3c0.8,2,1.4,3.8,1.5,5.2c0.2,4.4-2.8,11.9-9.1,22.3c-4.6,7.6-9.2,14.1-9.3,14.2c-0.2,0.3-0.6,0.5-1,0.5
			c-0.2,0-0.5-0.1-0.7-0.2c-0.5-0.4-0.7-1.2-0.3-1.7c0,0,4.7-6.5,9.2-14c5.8-9.8,8.9-17,8.7-20.9c-0.3-6.4-12.5-21.8-17.2-27.2
			c-0.4-0.5-0.4-1.3,0.1-1.7c0.5-0.4,1.3-0.4,1.7,0.1c0.5,0.6,10.3,11.9,15.1,21.1c14.1-0.7,19.1-9.7,19.3-10.1
			c0.3-0.6,1.1-0.8,1.7-0.5C565,163.1,565.2,163.9,564.9,164.5z M576.5,75.7c-0.3-0.6-0.3-1.3,0-1.9c-0.6-0.1-1.2-0.5-1.5-1.1
			c-0.1-0.1-0.1-0.3-0.2-0.4c-0.3-0.6-0.4-1.3-0.2-1.9c-0.6,0-1.2-0.4-1.6-1l-0.2-0.4c-0.4-0.5-0.5-1.2-0.3-1.8
			c-0.6,0-1.2-0.3-1.6-0.8l-0.3-0.4c-0.4-0.5-0.5-1.2-0.4-1.8c-0.6,0-1.2-0.2-1.7-0.7l-0.3-0.3c-0.4-0.5-0.6-1.1-0.5-1.8
			c-0.6,0-1.3-0.1-1.8-0.6l-0.3-0.3c-0.5-0.4-0.7-1.1-0.7-1.7c-0.6,0.1-1.3,0-1.8-0.5l-0.3-0.3c-0.5-0.4-0.8-1-0.8-1.7
			c-0.6,0.1-1.3,0-1.8-0.4l-0.4-0.3c-0.5-0.4-0.9-1-0.9-1.6c-0.6,0.2-1.3,0.1-1.9-0.2l-0.4-0.2c-0.6-0.3-0.9-0.9-1-1.6
			c-0.6,0.2-1.3,0.2-1.9-0.1l-0.4-0.2c-0.6-0.3-1-0.9-1.1-1.5c-0.6,0.2-1.3,0.2-1.9,0l-0.4-0.2c-0.6-0.3-1-0.8-1.2-1.4
			c-0.5,0.3-1.2,0.3-1.9,0L546,48c-0.6-0.2-1.1-0.8-1.3-1.4c-0.5,0.3-1.2,0.4-1.9,0.1l-0.4-0.1c-0.6-0.2-1.1-0.7-1.3-1.3
			c-0.5,0.3-1.2,0.4-1.9,0.2l-0.4-0.1c-0.6-0.2-1.1-0.7-1.4-1.3c-0.5,0.3-1.2,0.5-1.9,0.3l-0.5-0.1c-0.6-0.1-1.2-0.6-1.4-1.2
			c-0.5,0.4-1.2,0.5-1.8,0.4l-0.5-0.1c-0.7-0.1-1.2-0.6-1.5-1.1c-0.5,0.4-1.1,0.6-1.8,0.5l-0.5-0.1c-0.7-0.1-1.2-0.5-1.5-1.1
			c-0.5,0.4-1.1,0.6-1.8,0.5l-0.5,0c-0.7-0.1-1.2-0.5-1.6-1c-0.4,0.4-1.1,0.7-1.8,0.6l-0.5,0c-0.7-0.1-1.3-0.4-1.6-1
			c-0.4,0.4-1.1,0.7-1.8,0.6l-0.5,0c-0.7,0-1.3-0.4-1.6-0.9c-0.4,0.5-1,0.7-1.8,0.7l-0.5,0c-0.7,0-1.3-0.4-1.7-0.9
			c-0.4,0.5-1,0.8-1.7,0.7h-0.5c-0.7,0-1.3-0.3-1.7-0.9c-0.4,0.5-1,0.8-1.7,0.8h0h-0.5c-0.7,0-1.3-0.3-1.7-0.8
			c-0.4,0.5-1,0.8-1.7,0.8h-0.5c0,0,0,0,0,0c-0.7,0-1.3-0.3-1.7-0.8c-0.4,0.5-1,0.8-1.7,0.9H496c-0.7,0-1.3-0.2-1.7-0.7
			c-0.4,0.5-1,0.9-1.7,0.9l-0.5,0c-0.7,0-1.3-0.2-1.8-0.7c-0.3,0.5-0.9,0.9-1.6,0.9l-0.5,0c-0.7,0-1.3-0.2-1.8-0.6
			c-0.3,0.5-0.9,0.9-1.6,1l-0.5,0c-0.7,0.1-1.3-0.1-1.8-0.6c-0.3,0.5-0.9,0.9-1.6,1l-0.5,0c-0.7,0.1-1.3-0.1-1.8-0.5
			c-0.3,0.5-0.8,1-1.5,1.1l-0.5,0.1c-0.7,0.1-1.3,0-1.8-0.5c-0.3,0.6-0.8,1-1.5,1.1l-0.5,0.1c-0.7,0.1-1.3,0-1.8-0.4
			c-0.2,0.6-0.8,1-1.4,1.2l-0.4,0.1c-0.6,0.2-1.3,0-1.9-0.3c-0.2,0.6-0.7,1.1-1.4,1.3l-0.4,0.1c-0.6,0.2-1.3,0.1-1.9-0.2
			c-0.2,0.6-0.7,1.1-1.3,1.3l-0.5,0.3c-0.6,0.2-1.3,0.1-1.9-0.1c-0.2,0.6-0.6,1.1-1.3,1.4l-0.4,0.2c-0.6,0.2-1.3,0.2-1.9,0
			c-0.1,0.6-0.5,1.1-1.2,1.5l-0.4,0.2c-0.6,0.3-1.3,0.3-1.9,0c-0.1,0.6-0.5,1.2-1.1,1.5l-0.4,0.2c-0.6,0.3-1.3,0.4-1.9,0.1
			c-0.1,0.6-0.4,1.2-1,1.6l-0.4,0.2c-0.5,0.4-1.2,0.4-1.8,0.3c0,0.6-0.3,1.2-0.9,1.6l-0.4,0.3c-0.5,0.4-1.2,0.5-1.8,0.4
			c0,0.6-0.2,1.2-0.8,1.7l-0.3,0.3c-0.5,0.4-1.2,0.6-1.8,0.5c0,0.6-0.1,1.3-0.6,1.7l-0.3,0.3c-0.5,0.5-1.1,0.7-1.7,0.6
			c0.1,0.6-0.1,1.3-0.5,1.8l-0.3,0.3c-0.4,0.5-1.1,0.8-1.7,0.8l0,0c0.1,0.6,0,1.3-0.4,1.8c-0.1,0.1-0.2,0.2-0.3,0.4
			c-0.4,0.5-1,0.8-1.6,0.9c0.2,0.6,0.1,1.3-0.2,1.8l-0.2,0.4c-0.3,0.6-0.9,0.9-1.6,1c0.2,0.6,0.2,1.3-0.1,1.9
			c-0.1,0.1-0.1,0.3-0.2,0.4c-0.3,0.6-0.9,1-1.5,1.1c0.2,0.6,0.3,1.2,0,1.9c0,0.1-0.1,0.3-0.2,0.4c-0.3,0.6-0.8,1-1.4,1.2
			c0.3,0.5,0.3,1.2,0.1,1.9l-0.1,0.4c-0.2,0.6-0.7,1.1-1.3,1.3c0.3,0.5,0.4,1.2,0.2,1.9l-0.1,0.4c-0.2,0.6-0.7,1.1-1.2,1.4
			c0.4,0.5,0.5,1.2,0.3,1.8l-0.1,0.4c-0.1,0.6-0.6,1.2-1.2,1.5c0.4,0.5,0.6,1.1,0.4,1.8l-0.1,0.5c-0.1,0.7-0.5,1.2-1.1,1.5
			c0.4,0.5,0.6,1.1,0.5,1.8l0,0.5c-0.1,0.7-0.5,1.2-1,1.6c0.4,0.4,0.7,1.1,0.6,1.8l0,0.4h0c-0.1,0.6-0.5,1.2-1.1,1.5
			c0.6,0.4,0.9,1.1,0.9,1.9v0.5c0,0.7-0.3,1.3-0.8,1.7c0.5,0.4,0.8,1,0.8,1.7v0.5c0,0.7-0.3,1.3-0.8,1.7c0.5,0.4,0.8,1,0.9,1.7
			l0,0.5c0,0.7-0.2,1.3-0.7,1.7c0.5,0.3,0.9,0.9,0.9,1.6l0,0.5c0,0.7-0.2,1.3-0.6,1.8c0.5,0.3,0.9,0.9,1,1.6l0,0.5
			c0.1,0.7-0.1,1.4-0.6,1.9c0.6,0.3,1.1,0.9,1.2,1.6c0,0.4,0.2,1.2-0.5,2c-0.4,0.5-1,0.8-1.7,0.8c-1.2,0-2.2-0.9-2.2-2.1
			c-0.1-0.6,0.1-1.2,0.4-1.7c0,0-0.1,0.1-0.1,0.1c-0.1-0.2-0.2-0.5-0.4-0.7c0.2,0.2,0.4,0.3,0.6,0.4c0,0,0,0-0.1,0.1
			c0,0,0.1-0.1,0.1-0.2c-0.6-0.3-1.1-0.9-1.2-1.7l0-0.5c-0.1-0.7,0.1-1.4,0.6-1.9c-0.5-0.3-1-0.9-1-1.7l0-0.5c0-0.7,0.2-1.4,0.7-1.8
			c-0.5-0.4-0.9-1-0.9-1.7l0-0.5c0-0.7,0.3-1.4,0.8-1.8c-0.5-0.4-0.9-1-0.9-1.7v-0.5c0-0.7,0.3-1.4,0.8-1.8
			c-0.5-0.4-0.8-1.1-0.8-1.8v-0.5c0-0.7,0.4-1.3,1-1.7c-0.6-0.4-1-1.1-1-2c0-0.9,0.5-1.7,1.3-2.1c-0.4-0.5-0.7-1.1-0.6-1.8l0-0.5
			c0.1-0.7,0.5-1.3,1.1-1.6c-0.4-0.5-0.7-1.2-0.5-1.9l0.1-0.5c0.1-0.7,0.6-1.3,1.2-1.6c-0.4-0.5-0.6-1.2-0.4-1.9l0.1-0.5
			c0.2-0.7,0.7-1.2,1.3-1.5c-0.4-0.5-0.5-1.3-0.3-2l0.1-0.5c0.2-0.7,0.7-1.2,1.4-1.4c-0.3-0.6-0.4-1.3-0.2-2l0.2-0.5
			c0.2-0.7,0.8-1.1,1.5-1.3c-0.3-0.6-0.4-1.3-0.1-2c0-0.1,0.1-0.3,0.2-0.5c0.3-0.6,0.9-1.1,1.5-1.2c-0.3-0.6-0.3-1.3,0-2
			c0.1-0.1,0.1-0.3,0.2-0.4c0.3-0.6,1-1,1.6-1.1c-0.2-0.6-0.2-1.4,0.2-2l0.3-0.4c0.4-0.6,1-1,1.7-1c-0.2-0.6-0.1-1.4,0.3-2
			c0.1-0.1,0.2-0.3,0.3-0.4c0.4-0.6,1.1-0.9,1.8-0.9l0,0c-0.1-0.6,0-1.4,0.5-1.9l0.3-0.4c0.5-0.5,1.2-0.8,1.8-0.7
			c-0.1-0.7,0.1-1.4,0.6-1.9l0.3-0.3c0.5-0.5,1.2-0.7,1.9-0.6c0-0.7,0.2-1.4,0.7-1.8l0.4-0.3c0.5-0.5,1.3-0.6,1.9-0.5
			c0-0.7,0.3-1.3,0.9-1.8c0.1-0.1,0.3-0.2,0.4-0.3c0.6-0.4,1.3-0.5,1.9-0.3c0-0.7,0.4-1.3,1-1.7l0.4-0.3c0.6-0.4,1.3-0.4,2-0.2
			c0.1-0.6,0.5-1.3,1.1-1.6l0.4-0.2c0.6-0.3,1.4-0.3,2-0.1c0.1-0.6,0.5-1.2,1.2-1.6l0.4-0.2c0.6-0.3,1.4-0.3,2,0
			c0.1-0.6,0.6-1.2,1.3-1.5l0.4-0.2c0.6-0.3,1.4-0.2,2,0.1c0.2-0.6,0.7-1.2,1.3-1.4l0.5-0.2c0.7-0.2,1.4-0.1,2,0.2
			c0.2-0.6,0.7-1.1,1.4-1.4l0.5-0.1c0.7-0.2,1.4-0.1,1.9,0.3c0.2-0.6,0.8-1.1,1.5-1.3l0.5-0.1c0.7-0.2,1.4,0,1.9,0.4
			c0.3-0.6,0.8-1.1,1.5-1.2l0.5-0.1c0.7-0.1,1.4,0,1.9,0.4c0.3-0.6,0.8-1,1.6-1.2l0.5-0.1c0.7-0.1,1.4,0.1,1.9,0.5
			c0.3-0.6,0.9-1,1.6-1.1l0.5-0.1c0.7-0.1,1.4,0.1,1.9,0.6c0.3-0.5,0.9-1,1.6-1.1l0.5,0c0.7-0.1,1.4,0.2,1.8,0.6
			c0.3-0.5,0.9-0.9,1.7-1l0.5,0c0.7,0,1.4,0.2,1.8,0.7c0.4-0.5,1-0.9,1.7-1l0.5,0c0.7,0,1.4,0.2,1.8,0.7c0.4-0.5,1-0.9,1.7-0.9h0.5
			c0.7,0,1.3,0.3,1.8,0.8c0.4-0.5,1-0.9,1.7-0.9h0.5c0.7,0,1.3,0.3,1.8,0.8c0.4-0.5,1-0.8,1.7-0.8l0,0h0.5c0.7,0,1.3,0.3,1.7,0.9
			c0.4-0.5,1-0.8,1.8-0.8h0.5c0.7,0,1.3,0.4,1.7,0.9c0.4-0.5,1.1-0.8,1.8-0.7l0.5,0c0.7,0,1.3,0.4,1.7,0.9c0.4-0.5,1.1-0.7,1.8-0.7
			l0.5,0c0.7,0,1.3,0.4,1.7,1c0.4-0.5,1.1-0.7,1.8-0.6l0.5,0c0.7,0.1,1.3,0.5,1.6,1c0.5-0.4,1.1-0.7,1.9-0.6l0.5,0
			c0.7,0.1,1.3,0.5,1.6,1.1c0.5-0.4,1.2-0.6,1.9-0.5l0.5,0.1c0.7,0.1,1.3,0.6,1.6,1.2c0.5-0.4,1.2-0.6,1.9-0.5l0.5,0.1
			c0.7,0.1,1.2,0.6,1.5,1.2c0.5-0.4,1.2-0.6,1.9-0.4l0.5,0.1c0.7,0.2,1.2,0.7,1.5,1.3c0.5-0.4,1.2-0.5,1.9-0.3l0.5,0.1
			c0.7,0.2,1.2,0.7,1.4,1.3c0.5-0.3,1.3-0.5,2-0.2l0.5,0.1c0.7,0.2,1.1,0.8,1.4,1.4c0.6-0.3,1.3-0.4,2-0.1L548,44
			c0.6,0.3,1.1,0.8,1.3,1.5c0.6-0.3,1.3-0.3,2,0l0.4,0.2c0.6,0.3,1.1,0.9,1.2,1.6c0.6-0.3,1.3-0.2,2,0.1l0.4,0.2
			c0.6,0.3,1,1,1.1,1.6c0.6-0.2,1.3-0.2,2,0.2c0.1,0.1,0.3,0.2,0.4,0.3c0.6,0.4,0.9,1,1,1.7c0.6-0.2,1.4-0.1,2,0.3l0.4,0.3
			c0.6,0.4,0.9,1.1,0.9,1.8c0.6-0.1,1.4,0,1.9,0.4c0.1,0.1,0.2,0.2,0.4,0.3c0.5,0.4,0.8,1.1,0.8,1.8c0.6-0.1,1.4,0.1,1.9,0.6
			l0.4,0.3c0.5,0.5,0.7,1.2,0.6,1.9c0.7,0,1.4,0.2,1.9,0.7l0.3,0.4c0.5,0.5,0.6,1.2,0.5,1.9h0c0.6,0,1.3,0.3,1.7,0.8l0.3,0.4
			c0.4,0.6,0.5,1.3,0.4,1.9c0.7,0,1.3,0.4,1.7,1l0.3,0.4c0.4,0.6,0.5,1.3,0.2,2c0.7,0.1,1.3,0.4,1.7,1.1c0.1,0.1,0.2,0.3,0.2,0.4
			c0.3,0.6,0.4,1.4,0.1,2c0.6,0.1,1.3,0.5,1.6,1.2l0.2,0.4c0.3,0.6,0.3,1.4,0,2c0.6,0.1,1.2,0.6,1.5,1.3l0.2,0.4
			c0.3,0.7,0.2,1.4-0.1,2c0.6,0.2,1.2,0.7,1.4,1.4l0.1,0.5c0.2,0.7,0.1,1.4-0.3,2c0.2,0.1,0.4,0.2,0.6,0.4c0,0,0-0.1,0-0.1
			c0.1,0.1,0.3,0.3,0.5,0.4c0,0,0,0-0.1,0.1c0.1,0.2,0.2,0.4,0.3,0.6l0.1,0.5c0.2,0.7,0,1.4-0.4,1.9c0.6,0.3,1.1,0.8,1.2,1.5
			l0.1,0.5c0.1,0.7,0,1.4-0.5,1.9c0.6,0.3,1,0.9,1.1,1.6l0.1,0.5c0.1,0.7-0.1,1.4-0.6,1.9c0.6,0.3,1,0.9,1.1,1.7l0,0.5
			c0.1,0.7-0.2,1.4-0.7,1.8c0.5,0.4,0.9,1,1,1.7l0,0.5c0,0.7-0.3,1.4-0.8,1.9c0.6,0.4,1.1,1.1,1.1,2c0,0.4-0.1,0.8-0.3,1.2
			c0,0,0,0,0,0.1l0,0c-0.1,0.2-0.3,0.5-0.6,0.7c0.5,0.4,0.8,1.1,0.8,1.8v0.5c0,0.7-0.4,1.3-0.9,1.7c0.5,0.4,0.8,1.1,0.7,1.8l0,0.5
			c0,0.7-0.4,1.3-1,1.7c0.5,0.4,0.7,1.1,0.6,1.9l0,0.5c-0.1,0.7-0.5,1.3-1.1,1.6c0.4,0.5,0.7,1.2,0.6,1.9v0c0,0.3-0.1,0.6-0.2,0.9
			c-0.4,0.7-1.1,1.1-2,1.1c-0.2,0-0.5,0-0.7-0.1c-0.3-0.1-1.8-0.7-1.4-2.7c0.1-0.7,0.5-1.2,1.1-1.6c-0.4-0.4-0.7-1.1-0.6-1.8l0-0.5
			c0.1-0.7,0.4-1.2,1-1.6c-0.4-0.4-0.7-1.1-0.6-1.8l0-0.5c0-0.6,0.3-1.1,0.7-1.5c0-0.1,0-0.2,0-0.4c-0.3-0.4-0.5-0.9-0.5-1.5v-0.5
			c0-0.5,0.2-0.9,0.4-1.3c0-0.3,0-0.6,0-0.9c0,0,0-0.1-0.1-0.1c-0.3-0.4-0.4-0.9-0.4-1.4c0-0.7,0.3-1.3,0.8-1.8c0,0,0-0.1,0-0.2
			c-0.5-0.4-0.8-0.9-0.8-1.6l0-0.5c0-0.7,0.2-1.3,0.7-1.8c-0.5-0.3-0.9-0.9-1-1.6l0-0.5c0-0.7,0.1-1.3,0.6-1.8
			c-0.5-0.3-0.9-0.9-1-1.6l-0.1-0.5c-0.1-0.7,0.1-1.3,0.5-1.8c-0.5-0.3-1-0.8-1.1-1.5l-0.1-0.5c-0.1-0.7,0-1.3,0.4-1.8
			c-0.6-0.2-1-0.8-1.2-1.4l-0.1-0.4c-0.2-0.6,0-1.3,0.3-1.8c-0.6-0.2-1.1-0.7-1.3-1.4l-0.1-0.4c-0.2-0.6-0.1-1.3,0.2-1.9
			c-0.6-0.2-1.1-0.6-1.4-1.3l-0.2-0.4c-0.2-0.6-0.2-1.3,0.1-1.9C577.4,76.7,576.9,76.3,576.5,75.7L576.5,75.7z M593.8,133.1
			c-0.1,0.1-15.5,9.7-14.3,22.3c0,0.7-0.4,1.3-1.1,1.3c0,0-0.1,0-0.1,0c-0.6,0-1.2-0.5-1.2-1.1c-0.5-5.9,2-12,7.3-17.7
			c4-4.3,8-6.7,8.2-6.8c0.6-0.3,1.3-0.2,1.7,0.4C594.6,132,594.4,132.8,593.8,133.1z"/>
		<path class="st1" d="M469,127.7c0-0.8,0.3-1.6,0.8-2.2c-2.7,0.5-6.2,1.5-9.6,2.5c2.5,0.3,4.8,1,6.8,1.6c1.2,0.3,2.3,0.6,3.3,0.8
			C469.5,129.7,469,128.8,469,127.7z"/>
		<path class="st1" d="M544,128c-3.4-1-6.9-2-9.6-2.5c0.5,0.6,0.8,1.4,0.8,2.2c0,1.1-0.5,2.1-1.3,2.7c1-0.2,2.1-0.5,3.3-0.8
			C539.3,129,541.5,128.3,544,128z"/>
		<path class="st1" d="M475.3,125.4c0.5,0.6,0.8,1.4,0.8,2.3c0,0.9-0.3,1.7-0.8,2.3c0.1,0,0.2-0.1,0.3-0.1c2-0.7,2.8-0.8,6.7,0.5
			C480.6,128.4,478.1,126.2,475.3,125.4z"/>
		<path d="M578.1,77.4c-0.3,0.5-0.3,1.2-0.1,1.9l0.2,0.4c0.2,0.6,0.8,1.1,1.4,1.3c-0.3,0.5-0.4,1.2-0.2,1.9l0.1,0.4
			c0.2,0.6,0.7,1.1,1.3,1.4c-0.3,0.5-0.5,1.2-0.3,1.8l0.1,0.4c0.2,0.6,0.6,1.2,1.2,1.4c-0.4,0.5-0.5,1.2-0.4,1.8l0.1,0.5
			c0.1,0.7,0.6,1.2,1.1,1.5c-0.4,0.5-0.6,1.1-0.5,1.8l0.1,0.5c0.1,0.7,0.5,1.2,1,1.6c-0.4,0.4-0.7,1.1-0.6,1.8l0,0.5
			c0,0.7,0.4,1.3,1,1.6c-0.4,0.4-0.7,1.1-0.7,1.8l0,0.5c0,0.6,0.3,1.2,0.8,1.6c0,0,0.1,0,0.1,0.1c0,0-0.1,0.1-0.1,0.1
			c-0.5,0.4-0.8,1.1-0.8,1.8c0,0.5,0.2,1,0.4,1.4c0,0,0,0.1,0.1,0.1c0.1,0.1,0.2,0.3,0.4,0.4c-0.1,0.1-0.3,0.2-0.4,0.4
			c-0.2,0.3-0.4,0.8-0.4,1.3v0.5c0,0.6,0.2,1.1,0.5,1.5c0,0.1,0.1,0.1,0.2,0.2c0,0-0.1,0.1-0.2,0.1c-0.4,0.3-0.7,0.9-0.7,1.5l0,0.5
			c0,0.7,0.2,1.3,0.6,1.8c-0.5,0.3-0.9,0.9-1,1.6l0,0.5c-0.1,0.7,0.1,1.3,0.6,1.8c-0.5,0.3-1,0.9-1.1,1.6c-0.3,2,1.1,2.6,1.4,2.7
			c0.2,0.1,0.5,0.1,0.7,0.1c0.8,0,1.5-0.4,2-1.1c0.1-0.3,0.2-0.6,0.2-0.9v0c0.1-0.7-0.1-1.4-0.6-1.9c0.6-0.3,1-0.9,1.1-1.6l0-0.5
			c0.1-0.7-0.2-1.4-0.6-1.9c0.5-0.3,0.9-1,1-1.7l0-0.5c0-0.7-0.2-1.4-0.7-1.8c0.5-0.4,0.9-1,0.9-1.7v-0.5c0-0.7-0.3-1.4-0.8-1.8
			c0.2-0.2,0.4-0.4,0.6-0.7l0,0c0,0,0,0,0-0.1c0.2-0.3,0.3-0.8,0.3-1.2c0-0.8-0.4-1.6-1.1-2c0.5-0.4,0.9-1.1,0.8-1.9l0-0.5
			c0-0.7-0.4-1.3-1-1.7c0.5-0.4,0.7-1.1,0.7-1.8l0-0.5c-0.1-0.7-0.5-1.3-1.1-1.7c0.4-0.5,0.7-1.2,0.6-1.9l-0.1-0.5
			c-0.1-0.7-0.5-1.3-1.1-1.6c0.4-0.5,0.6-1.2,0.5-1.9l-0.1-0.5c-0.1-0.7-0.6-1.3-1.2-1.5c0.4-0.5,0.6-1.2,0.4-1.9l-0.1-0.5
			c0-0.2-0.1-0.4-0.3-0.6c-0.1-0.1-0.2-0.3-0.4-0.4c-0.2-0.1-0.4-0.3-0.6-0.4c0.4-0.5,0.5-1.3,0.3-2l-0.1-0.5
			c-0.2-0.7-0.8-1.2-1.4-1.4c0.3-0.6,0.4-1.3,0.1-2l-0.2-0.4c-0.3-0.7-0.8-1.1-1.5-1.3c0.3-0.6,0.3-1.3,0-2l-0.2-0.4
			c-0.3-0.6-0.9-1.1-1.6-1.2c0.2-0.6,0.2-1.3-0.1-2c-0.1-0.1-0.1-0.3-0.2-0.4c-0.3-0.6-1-1-1.7-1.1c0.2-0.6,0.1-1.4-0.2-2l-0.3-0.4
			c-0.4-0.6-1-0.9-1.7-1c0.2-0.6,0-1.4-0.4-1.9l-0.3-0.4c-0.4-0.5-1.1-0.8-1.7-0.8h0c0.1-0.6,0-1.4-0.5-1.9l-0.3-0.4
			c-0.5-0.5-1.2-0.8-1.9-0.7c0.1-0.7-0.1-1.4-0.6-1.9l-0.4-0.3c-0.5-0.5-1.2-0.7-1.9-0.6c0-0.7-0.2-1.3-0.8-1.8
			c-0.1-0.1-0.2-0.2-0.4-0.3c-0.5-0.4-1.3-0.6-1.9-0.4c0-0.7-0.3-1.3-0.9-1.8l-0.4-0.3c-0.6-0.4-1.3-0.5-2-0.3c0-0.7-0.4-1.3-1-1.7
			c-0.1-0.1-0.3-0.2-0.4-0.3c-0.6-0.4-1.3-0.4-2-0.2c-0.1-0.6-0.5-1.3-1.1-1.6l-0.4-0.2c-0.6-0.3-1.4-0.3-2-0.1
			c-0.1-0.6-0.5-1.2-1.2-1.6l-0.4-0.2c-0.6-0.3-1.4-0.3-2,0c-0.1-0.6-0.6-1.2-1.3-1.5l-0.5-0.2c-0.6-0.3-1.4-0.2-2,0.1
			c-0.2-0.6-0.7-1.2-1.4-1.4l-0.5-0.1c-0.7-0.2-1.4-0.1-2,0.2c-0.2-0.6-0.7-1.1-1.4-1.3l-0.5-0.1c-0.7-0.2-1.4,0-1.9,0.3
			c-0.2-0.6-0.8-1.1-1.5-1.3l-0.5-0.1c-0.7-0.2-1.4,0-1.9,0.4c-0.3-0.6-0.8-1.1-1.5-1.2l-0.5-0.1c-0.7-0.1-1.4,0-1.9,0.5
			c-0.3-0.6-0.9-1-1.6-1.2l-0.5-0.1c-0.7-0.1-1.4,0.1-1.9,0.5c-0.3-0.6-0.9-1-1.6-1.1l-0.5,0c-0.7-0.1-1.4,0.1-1.9,0.6
			c-0.3-0.5-0.9-1-1.6-1l-0.5,0c-0.7-0.1-1.4,0.2-1.8,0.6c-0.3-0.5-0.9-0.9-1.7-1l-0.5,0c-0.7,0-1.4,0.2-1.8,0.7
			c-0.4-0.5-1-0.9-1.7-0.9l-0.5,0c-0.7,0-1.4,0.2-1.8,0.7c-0.4-0.5-1-0.9-1.7-0.9h-0.5c-0.7,0-1.3,0.3-1.8,0.8
			c-0.4-0.5-1-0.8-1.7-0.9h-0.5l0,0c-0.7,0-1.3,0.3-1.7,0.8c-0.4-0.5-1-0.8-1.8-0.8h-0.5c-0.7,0-1.3,0.3-1.7,0.9
			c-0.4-0.5-1.1-0.8-1.8-0.8h-0.5c-0.7,0-1.3,0.4-1.7,0.9c-0.4-0.5-1.1-0.8-1.8-0.7l-0.5,0c-0.7,0-1.3,0.4-1.7,1
			c-0.4-0.5-1.1-0.7-1.8-0.7l-0.5,0c-0.7,0-1.3,0.4-1.7,1c-0.4-0.5-1.1-0.7-1.8-0.6l-0.5,0c-0.7,0.1-1.3,0.5-1.6,1.1
			c-0.5-0.4-1.1-0.7-1.9-0.6l-0.5,0.1c-0.7,0.1-1.3,0.5-1.6,1.1c-0.5-0.4-1.2-0.6-1.9-0.5l-0.5,0.1c-0.7,0.1-1.3,0.6-1.6,1.2
			c-0.5-0.4-1.2-0.6-1.9-0.4l-0.5,0.1c-0.7,0.1-1.2,0.6-1.5,1.2c-0.5-0.4-1.2-0.5-1.9-0.4l-0.5,0.1c-0.7,0.2-1.2,0.7-1.5,1.3
			c-0.5-0.4-1.2-0.5-1.9-0.3l-0.5,0.1c-0.7,0.2-1.2,0.7-1.4,1.4c-0.5-0.3-1.3-0.4-2-0.2l-0.5,0.2c-0.7,0.2-1.1,0.8-1.3,1.4
			c-0.6-0.3-1.3-0.4-2-0.1l-0.4,0.2c-0.6,0.3-1.1,0.8-1.3,1.5c-0.6-0.3-1.3-0.3-2,0l-0.4,0.2c-0.6,0.3-1.1,0.9-1.2,1.6
			c-0.6-0.2-1.3-0.2-2,0.1l-0.4,0.2c-0.6,0.3-1,1-1.1,1.6c-0.6-0.2-1.4-0.1-2,0.2l-0.4,0.3c-0.6,0.4-0.9,1-1,1.7
			c-0.6-0.2-1.4-0.1-1.9,0.3c-0.1,0.1-0.3,0.2-0.4,0.3c-0.6,0.4-0.9,1.1-0.9,1.8c-0.6-0.1-1.4,0-1.9,0.5l-0.4,0.3
			c-0.5,0.5-0.8,1.2-0.7,1.8c-0.7-0.1-1.4,0.1-1.9,0.6l-0.3,0.3c-0.5,0.5-0.7,1.2-0.6,1.9c-0.7,0-1.4,0.2-1.8,0.7l-0.3,0.4
			c-0.5,0.5-0.6,1.3-0.5,1.9l0,0c-0.7,0-1.3,0.3-1.8,0.9c-0.1,0.1-0.2,0.3-0.3,0.4c-0.4,0.6-0.5,1.3-0.3,2c-0.7,0-1.3,0.4-1.7,1
			l-0.3,0.4c-0.4,0.6-0.4,1.3-0.2,2c-0.7,0.1-1.3,0.5-1.6,1.1c-0.1,0.1-0.1,0.3-0.2,0.4c-0.3,0.6-0.3,1.4,0,2
			c-0.6,0.1-1.2,0.6-1.5,1.2c0,0.1-0.1,0.3-0.2,0.5c-0.3,0.6-0.2,1.4,0.1,2c-0.6,0.2-1.2,0.6-1.5,1.3l-0.2,0.5
			c-0.2,0.7-0.1,1.4,0.2,2c-0.6,0.2-1.2,0.7-1.4,1.4l-0.1,0.5c-0.2,0.7,0,1.4,0.3,2c-0.6,0.2-1.1,0.8-1.3,1.5l-0.1,0.5
			c-0.1,0.7,0,1.4,0.4,1.9c-0.6,0.3-1.1,0.8-1.2,1.6l-0.1,0.5c-0.1,0.7,0.1,1.4,0.5,1.9c-0.6,0.3-1,0.9-1.1,1.6l0,0.5
			c-0.1,0.7,0.1,1.3,0.6,1.8c-0.8,0.4-1.3,1.2-1.3,2.1c0,0.8,0.4,1.5,1,2c-0.5,0.4-0.9,1-1,1.7v0.5c0,0.7,0.3,1.4,0.8,1.8
			c-0.5,0.4-0.9,1-0.8,1.8v0.5c0,0.7,0.3,1.3,0.9,1.7c-0.5,0.4-0.8,1.1-0.8,1.8l0,0.5c0,0.7,0.4,1.3,0.9,1.7
			c-0.5,0.4-0.8,1.1-0.7,1.8l0,0.5c0,0.7,0.5,1.3,1,1.7c-0.5,0.5-0.7,1.1-0.6,1.9l0,0.5c0.1,0.7,0.6,1.4,1.2,1.7
			c0,0-0.1,0.1-0.1,0.2c0,0,0,0,0,0c-0.4,0.4-0.5,1.1-0.4,1.7c0,1.2,1,2.1,2.2,2.1c0.6,0,1.3-0.3,1.7-0.8c0.7-0.8,0.5-1.7,0.5-2
			c-0.1-0.7-0.6-1.3-1.2-1.6c0.5-0.5,0.7-1.2,0.6-1.9l0-0.5c-0.1-0.7-0.5-1.2-1-1.6c0.4-0.4,0.7-1.1,0.6-1.8l0-0.5
			c0-0.7-0.4-1.3-0.9-1.6c0.4-0.4,0.7-1.1,0.7-1.7l0-0.5c0-0.7-0.4-1.3-0.9-1.7c0.5-0.4,0.8-1,0.8-1.7v-0.5c0-0.7-0.3-1.3-0.8-1.7
			c0.5-0.4,0.8-1,0.8-1.7v-0.5c0-0.8-0.3-1.5-0.9-1.9c0.5-0.3,0.9-0.9,1.1-1.5h0l0-0.4c0-0.7-0.2-1.3-0.6-1.8c0.5-0.3,0.9-0.9,1-1.6
			l0-0.5c0.1-0.7-0.1-1.3-0.5-1.8c0.5-0.3,1-0.8,1.1-1.5l0.1-0.5c0.1-0.7,0-1.3-0.4-1.8c0.6-0.3,1-0.8,1.2-1.5l0.1-0.4
			c0.1-0.6,0-1.3-0.3-1.8c0.6-0.2,1-0.7,1.2-1.4l0.1-0.4c0.2-0.6,0.1-1.3-0.2-1.9c0.6-0.2,1.1-0.7,1.3-1.3l0.1-0.4
			c0.2-0.6,0.2-1.3-0.1-1.9c0.6-0.1,1.1-0.6,1.4-1.2c0-0.1,0.1-0.3,0.2-0.4c0.3-0.6,0.2-1.3,0-1.9c0.6-0.1,1.2-0.5,1.5-1.1
			c0-0.1,0.1-0.3,0.2-0.4c0.3-0.6,0.3-1.3,0.1-1.9c0.6-0.1,1.2-0.4,1.6-1l0.2-0.4c0.3-0.6,0.4-1.2,0.2-1.8c0.6,0,1.2-0.3,1.6-0.9
			c0.1-0.1,0.2-0.2,0.3-0.4c0.4-0.5,0.5-1.2,0.4-1.8l0,0c0.6,0,1.2-0.2,1.7-0.8l0.3-0.3c0.4-0.5,0.6-1.2,0.5-1.8
			c0.6,0,1.3-0.1,1.7-0.6l0.3-0.3c0.5-0.5,0.7-1.1,0.6-1.7c0.6,0.1,1.3-0.1,1.8-0.5l0.3-0.3c0.5-0.4,0.8-1.1,0.8-1.7
			c0.6,0.1,1.3,0,1.8-0.4l0.4-0.3c0.5-0.4,0.8-1,0.9-1.6c0.6,0.2,1.3,0.1,1.8-0.3l0.4-0.2c0.6-0.3,0.9-0.9,1-1.6
			c0.6,0.2,1.3,0.2,1.9-0.1l0.4-0.2c0.6-0.3,1-0.9,1.1-1.5c0.6,0.2,1.3,0.2,1.9,0l0.4-0.2c0.6-0.3,1-0.8,1.2-1.5
			c0.5,0.3,1.2,0.3,1.9,0l0.4-0.2c0.6-0.2,1.1-0.8,1.3-1.4c0.5,0.3,1.2,0.4,1.9,0.1l0.4-0.1c0.6-0.2,1.1-0.7,1.3-1.3
			c0.5,0.3,1.2,0.4,1.9,0.2l0.4-0.1c0.6-0.2,1.1-0.7,1.4-1.3c0.5,0.3,1.2,0.5,1.9,0.3l0.4-0.1c0.6-0.2,1.2-0.6,1.4-1.2
			c0.5,0.4,1.2,0.5,1.8,0.4l0.5-0.1c0.7-0.1,1.2-0.6,1.5-1.1c0.5,0.4,1.1,0.6,1.8,0.5l0.5-0.1c0.7-0.1,1.2-0.5,1.5-1.1
			c0.5,0.4,1.1,0.6,1.8,0.5l0.5,0c0.7-0.1,1.2-0.5,1.6-1c0.4,0.4,1.1,0.7,1.8,0.6l0.5,0c0.7-0.1,1.3-0.4,1.6-1
			c0.4,0.4,1.1,0.7,1.8,0.6l0.5,0c0.7,0,1.3-0.4,1.6-0.9c0.4,0.5,1.1,0.7,1.8,0.7l0.5,0c0.7,0,1.3-0.4,1.7-0.9
			c0.4,0.5,1.1,0.8,1.7,0.7h0.5c0.7,0,1.3-0.3,1.7-0.9c0.4,0.5,1,0.8,1.7,0.8c0,0,0,0,0,0h0.5c0.7,0,1.3-0.3,1.7-0.8
			c0.4,0.5,1,0.8,1.7,0.8h0.5h0c0.7,0,1.3-0.3,1.7-0.8c0.4,0.5,1,0.8,1.7,0.9h0.5c0.7,0,1.3-0.3,1.7-0.7c0.4,0.5,1,0.9,1.7,0.9
			l0.5,0c0.7,0,1.3-0.2,1.8-0.7c0.3,0.5,0.9,0.9,1.6,0.9l0.5,0c0.7,0,1.3-0.2,1.8-0.6c0.3,0.5,0.9,0.9,1.6,1l0.5,0
			c0.7,0.1,1.3-0.1,1.8-0.6c0.3,0.5,0.9,0.9,1.6,1l0.5,0c0.7,0.1,1.3-0.1,1.8-0.5c0.3,0.5,0.9,1,1.5,1.1l0.5,0.1
			c0.7,0.1,1.3,0,1.8-0.5c0.3,0.5,0.8,1,1.5,1.1l0.5,0.1c0.7,0.1,1.3,0,1.8-0.4c0.2,0.6,0.8,1,1.4,1.2l0.5,0.1
			c0.6,0.2,1.3,0,1.9-0.3c0.2,0.6,0.7,1.1,1.4,1.3l0.4,0.1c0.6,0.2,1.3,0.1,1.9-0.2c0.2,0.6,0.7,1.1,1.3,1.3l0.4,0.1
			c0.6,0.2,1.3,0.1,1.9-0.1c0.2,0.6,0.6,1.1,1.3,1.4l0.4,0.2c0.6,0.2,1.3,0.2,1.9,0c0.1,0.6,0.6,1.1,1.2,1.4l0.4,0.2
			c0.6,0.3,1.3,0.3,1.9,0c0.1,0.6,0.5,1.2,1.1,1.5l0.4,0.2c0.6,0.3,1.3,0.3,1.9,0.1c0.1,0.6,0.4,1.2,1,1.6l0.4,0.2
			c0.6,0.3,1.2,0.4,1.9,0.2c0,0.6,0.3,1.2,0.9,1.6l0.4,0.3c0.5,0.4,1.2,0.5,1.8,0.4c0,0.6,0.3,1.2,0.8,1.7l0.3,0.3
			c0.5,0.4,1.2,0.6,1.8,0.5c0,0.6,0.2,1.3,0.7,1.7l0.3,0.3c0.5,0.5,1.1,0.7,1.8,0.6c-0.1,0.6,0.1,1.3,0.5,1.8l0.3,0.3
			c0.4,0.5,1.1,0.7,1.7,0.7c-0.1,0.6,0,1.3,0.4,1.8l0.3,0.4c0.4,0.5,1,0.8,1.6,0.8c-0.1,0.6-0.1,1.3,0.3,1.8l0.2,0.4
			c0.4,0.5,1,0.9,1.6,1c-0.2,0.6-0.1,1.3,0.2,1.9c0.1,0.1,0.1,0.3,0.2,0.4c0.3,0.6,0.9,1,1.5,1.1c-0.2,0.6-0.2,1.2,0,1.9l0.2,0.4
			C577,76.8,577.5,77.2,578.1,77.4z"/>
		<path d="M523.1,155.5c-0.6,0.2-1,0.9-0.8,1.5c0.4,1.3,0.3,2.7-0.3,3.9s-1.7,2.1-3,2.5c-2.7,0.8-5.5-0.6-6.3-3.2
			c-0.1-0.6-0.6-1-1.2-1c-0.6,0-1.2,0.5-1.2,1.1l0,0v0c0,2.8-3.7,5.1-8,5.1c-4.3,0-7.8-2.2-8-4.9c0-0.2,0-0.4-0.1-0.6
			c-0.1-0.5-0.6-0.8-1.1-0.8c-0.6,0-1.1,0.5-1.2,1.1c-0.9,2.6-3.7,4-6.3,3.2c-1.3-0.4-2.4-1.3-3-2.5c-0.6-1.2-0.7-2.6-0.3-3.9
			c0.2-0.6-0.1-1.3-0.8-1.5c-0.6-0.2-1.3,0.1-1.5,0.8c-0.6,1.9-0.4,4,0.5,5.8c0.9,1.8,2.5,3.1,4.5,3.7c0.7,0.2,1.5,0.3,2.3,0.3
			c1.2,0,2.4-0.3,3.5-0.8c0.8-0.4,1.6-1,2.2-1.7c1.6,2.6,5.3,4.5,9.6,4.5s8-1.8,9.6-4.5c0.6,0.7,1.3,1.3,2.2,1.7
			c1.1,0.6,2.3,0.8,3.5,0.8c0.7,0,1.5-0.1,2.3-0.3c1.9-0.6,3.5-1.9,4.5-3.7s1.1-3.9,0.5-5.8C524.4,155.7,523.7,155.3,523.1,155.5z"
			/>
		<path d="M513.4,208.8c-0.3,0-0.5,0.1-0.7,0.2c-2.4,0.5-18.6,0.5-21,0c-0.2-0.1-0.4-0.2-0.7-0.2c-0.7,0-1.2,0.5-1.2,1.2
			c0,1.5,1.7,1.6,4.7,1.7c2.1,0.1,4.8,0.1,7.8,0.1c3,0,5.7,0,7.8-0.1c3-0.1,4.7-0.2,4.7-1.7C514.6,209.3,514,208.8,513.4,208.8z"/>
		<path d="M469.4,202c-5.8-9.8-8.9-17-8.7-20.9c0.3-6.4,12.5-21.8,17.2-27.2c0.4-0.5,0.4-1.3-0.1-1.7c-0.5-0.4-1.3-0.4-1.7,0.1
			c-0.5,0.6-10.3,11.9-15.1,21.1c-14.1-0.7-19.1-9.7-19.3-10.1c-0.3-0.6-1.1-0.8-1.7-0.5c-0.6,0.3-0.8,1.1-0.5,1.7
			c0.1,0.2,1.9,3.5,6.2,6.5c1.3,7.4,11.9,28,17.6,39.2c1.6,3,2.9,5.7,3.1,6.2c0.1,0.5,0.5,0.9,1.1,0.9c0,0,0,0,0.1,0
			c0.6,0,1.2-0.5,1.2-1.1c0-0.5,0-0.5-3.4-7.2c-4.8-9.4-14.3-27.8-16.8-36.3c2.9,1.4,6.5,2.6,11.1,3c-0.8,2-1.4,3.8-1.5,5.2
			c-0.2,4.4,2.8,11.9,9.1,22.3c4.6,7.6,9.2,14.1,9.3,14.2c0.2,0.3,0.6,0.5,1,0.5c0.2,0,0.5-0.1,0.7-0.2c0.5-0.4,0.7-1.2,0.3-1.7
			C478.5,216,473.9,209.6,469.4,202z"/>
		<path d="M564.3,162.8c-0.6-0.3-1.3-0.1-1.7,0.5c-0.2,0.4-5.2,9.3-19.3,10.1c-4.8-9.2-14.6-20.5-15.1-21.1
			c-0.4-0.5-1.2-0.6-1.7-0.1c-0.5,0.4-0.6,1.2-0.1,1.7c4.7,5.4,16.9,20.8,17.2,27.2c0.1,3.9-2.8,11-8.7,20.9c-4.5,7.5-9.1,14-9.2,14
			c-0.4,0.5-0.3,1.3,0.3,1.7c0.2,0.1,0.5,0.2,0.7,0.2c0.4,0,0.7-0.2,1-0.5c0,0,4.7-6.5,9.3-14.2c6.2-10.4,9.2-17.9,9.1-22.3
			c0-1.5-0.6-3.3-1.5-5.2c4.6-0.3,8.2-1.5,11.1-3c-2.6,8.5-12,26.9-16.8,36.3c-3.4,6.7-3.4,6.7-3.4,7.2c0,0.6,0.6,1.1,1.2,1.1
			c0,0,0,0,0.1,0c0.5,0,1-0.4,1.1-0.9c0.2-0.5,1.6-3.2,3.1-6.2c5.7-11.2,16.3-31.8,17.6-39.2c4.3-3,6.1-6.2,6.2-6.5
			C565.2,163.9,565,163.1,564.3,162.8z"/>
		<path class="st1" d="M510.4,181.9c-1.1,0.1-4,1-5.8,1.7h-5c-1.9-0.6-4.7-1.6-5.8-1.7c-3.1-0.2-9.5,0.5-14.8,1.2
			c6.3,1,13.7,2.9,15,3.2h0c0,0,6.2,1.9,8.1,2.4c1.9-0.6,8.1-2.4,8.1-2.4h0c1.2-0.3,8.6-2.1,15-3.2
			C520,182.4,513.5,181.7,510.4,181.9z"/>
		<path class="st1" d="M502.5,191.2c-0.1,0-0.2,0-0.3,0c-0.1,0-0.2,0-0.3,0c-1.3-0.4-7.9-2.4-8.4-2.5c-4.4-1-15.1-3.5-20.2-3.8
			c3.5,3.8,13.9,12.2,29,12.2c15.1,0,25.5-8.4,29-12.2c-5.1,0.3-15.9,2.8-20.2,3.8C510.4,188.8,503.8,190.8,502.5,191.2z"/>
		<path d="M510.3,179.4c-1.4,0.1-4.1,1-6.9,2c-0.5,0.1-0.9,0.3-1.2,0.4c-0.3-0.1-0.8-0.2-1.2-0.4c-2.8-1-5.5-1.9-6.9-2
			c-4.9-0.3-17.3,1.4-22.4,2.2c-0.7,0.1-1.3,0.6-1.6,1.3c0,0.1-0.1,0.2-0.1,0.4v0c-0.1,0.5,0,1.1,0.3,1.6
			c2.1,3.1,13.7,14.5,32.1,14.5s29.9-11.4,32.1-14.5c0.3-0.5,0.4-1.1,0.3-1.6v0c0-0.1,0-0.2-0.1-0.4c-0.3-0.7-0.9-1.1-1.6-1.3l0,0
			C527.6,180.9,515.2,179.1,510.3,179.4z M502.1,197c-15.1,0-25.5-8.4-29-12.2c5.1,0.3,15.9,2.8,20.2,3.8c0.5,0.1,7.2,2.2,8.4,2.5
			c0.1,0,0.2,0,0.3,0s0.2,0,0.3,0c1.3-0.4,7.9-2.4,8.4-2.5c4.4-1,15.1-3.5,20.2-3.8C527.6,188.6,517.2,197,502.1,197z M510.3,186.2
			L510.3,186.2c0,0-6.2,1.9-8.2,2.4c-1.9-0.6-8.1-2.4-8.1-2.4h0c-1.2-0.3-8.6-2.1-15-3.2c5.3-0.7,11.7-1.4,14.8-1.2
			c1.1,0.1,4,1,5.8,1.7h5c1.9-0.6,4.7-1.6,5.8-1.7c3.1-0.2,9.5,0.5,14.8,1.2C518.9,184.2,511.5,185.9,510.3,186.2z"/>
		<path d="M483.8,141.1c0.2,0.2,0.5,0.3,0.9,0.3s0.6-0.1,0.9-0.3c2.8-2.8,2.9-7.3,0.3-10.3c-2-2.7-6.8-8.3-12.9-8.3
			c-2.2,0-7,1.1-14.3,3.3c-3.1,0.9-5.8,1.8-7.1,2.3c-3.6,1.2-3.6,1.2-3.8,1.7c-0.2,0.4-0.1,1,0.2,1.3c0.5,0.6,1.1,0.4,2.2,0.1
			c6.6-2.1,11.9-0.6,16.2,0.6c3,0.9,5.6,1.6,8.1,0.9c0.9-0.2,1.6-0.5,2.1-0.7c1.7-0.6,1.8-0.7,7.2,1.3c0.3,0.1,0.7,0.2,1,0.2
			c0,0,0,0,0.1,0c0.8,1.8,0.5,4.1-1,5.6C483.3,139.8,483.3,140.6,483.8,141.1z M467,129.6c-2-0.6-4.3-1.2-6.8-1.6
			c3.4-1,6.9-2,9.6-2.5c-0.5,0.6-0.8,1.4-0.8,2.2c0,1.1,0.5,2.1,1.3,2.7C469.3,130.2,468.1,129.9,467,129.6z M475.6,129.8
			c-0.1,0-0.2,0.1-0.3,0.1c0.5-0.6,0.8-1.4,0.8-2.3c0-0.9-0.3-1.7-0.8-2.3c2.9,0.8,5.4,3.1,7,5C478.5,129,477.7,129.1,475.6,129.8z"
			/>
		<path d="M527.7,132.2c0.5,0.2,1.2,0.4,2.1,0.7c2.4,0.7,5.1-0.1,8.1-0.9c4.3-1.2,9.6-2.8,16.2-0.6c1.1,0.3,1.6,0.5,2.2-0.1
			c0.3-0.3,0.4-0.9,0.2-1.3c-0.2-0.5-0.2-0.5-3.8-1.7c-1.3-0.4-4-1.3-7.1-2.3c-7.2-2.2-12-3.3-14.3-3.3c-6.1,0-10.9,5.5-12.9,8.3
			c-1.2,1.4-1.9,3.1-1.9,5c0,2,0.8,3.9,2.2,5.3c0.2,0.2,0.5,0.3,0.9,0.3s0.6-0.1,0.9-0.3c0.5-0.5,0.5-1.3,0-1.7
			c-0.9-0.9-1.5-2.2-1.5-3.6c0-0.7,0.1-1.4,0.4-2.1c0,0,0,0,0.1,0c0.3,0,0.6,0,1-0.2C525.9,131.5,526.1,131.5,527.7,132.2z
			 M535.3,127.7c0-0.8-0.3-1.6-0.8-2.2c2.7,0.5,6.2,1.5,9.6,2.5c-2.5,0.3-4.8,1-6.8,1.6c-1.2,0.3-2.3,0.6-3.3,0.8
			C534.8,129.7,535.3,128.8,535.3,127.7z M528.9,125.4c-0.5,0.6-0.8,1.4-0.8,2.3c0,0.9,0.3,1.7,0.8,2.3c-0.1,0-0.2-0.1-0.3-0.1
			c-0.9-0.3-1.6-0.5-2.4-0.5c-1,0-2.2,0.3-4.3,1C523.6,128.4,526.1,126.2,528.9,125.4z"/>
		<path d="M411.7,131c-0.6-0.3-1.3-0.2-1.7,0.4c-0.3,0.6-0.2,1.3,0.4,1.7c0.1,0.1,15.5,9.7,14.3,22.3c0,0.7,0.4,1.3,1.1,1.3
			c0,0,0.1,0,0.1,0c0.6,0,1.2-0.5,1.2-1.1c0.5-5.9-2-12-7.3-17.7C416,133.6,411.9,131.1,411.7,131z"/>
		<path d="M592.5,131c-0.1,0.1-4.2,2.6-8.2,6.8c-5.3,5.7-7.8,11.8-7.3,17.7c0,0.6,0.6,1.1,1.2,1.1c0,0,0.1,0,0.1,0
			c0.7,0,1.2-0.6,1.1-1.3c-1.2-12.6,14.1-22.2,14.3-22.3c0.6-0.3,0.7-1.1,0.4-1.7C593.8,130.8,593.1,130.6,592.5,131z"/>
		<path d="M502.1,77.4c12.8,0,22.6-3.8,26.2-10.2c0.3-0.6,0.1-1.3-0.5-1.7c-0.6-0.3-1.3-0.1-1.7,0.5c-3.1,5.5-12.1,8.9-24,8.9
			s-20.9-3.3-24-8.9c-0.3-0.6-1.1-0.8-1.7-0.5c-0.6,0.3-0.8,1.1-0.5,1.7C479.5,73.6,489.3,77.4,502.1,77.4z"/>
		<path d="M443.7,111.9c0.2,0.3,0.6,0.5,1,0.5c0.2,0,0.5-0.1,0.7-0.2c0.2-0.2,25-18.2,38.8-2.5c0.4,0.5,1.2,0.5,1.7,0.1
			c0.5-0.4,0.5-1.2,0.1-1.7c-6.4-7.3-15.8-9.2-27.1-5.5c-8.4,2.7-14.8,7.4-15.1,7.6C443.5,110.6,443.3,111.3,443.7,111.9z"/>
		<path d="M559.5,112.4c0.4,0,0.7-0.2,1-0.5c0.4-0.5,0.3-1.3-0.2-1.7c-0.2-0.2-6.7-4.9-15.1-7.6c-11.3-3.7-20.7-1.7-27.1,5.5
			c-0.4,0.5-0.4,1.3,0.1,1.7c0.5,0.4,1.3,0.4,1.7-0.1c5.7-6.5,14-8.2,24.4-4.8c8,2.6,14.4,7.2,14.4,7.3
			C559,112.3,559.3,112.4,559.5,112.4z"/>
		<path d="M446.1,90.5c-0.5,0.4-0.7,1.2-0.3,1.7c0.4,0.5,1.2,0.7,1.7,0.3c0.1-0.1,15.4-10.7,25.4-9c4.5,0.7,9.4,4.2,14.2,7.5
			c5.4,3.7,10.4,7.2,15,7.2s9.6-3.5,15-7.2c4.8-3.3,9.7-6.7,14.2-7.5c10.1-1.7,25.3,8.9,25.4,9c0.5,0.4,1.3,0.2,1.7-0.3
			s0.2-1.3-0.3-1.7c-0.6-0.4-16.2-11.3-27.3-9.4c-5,0.8-10.2,4.4-15.2,7.9c-5,3.5-9.8,6.7-13.5,6.7s-8.5-3.3-13.5-6.7
			s-10.2-7-15.2-7.9C462.3,79.2,446.8,90.1,446.1,90.5z"/>
	</g>
</g>
</svg>
