<?xml version="1.0" encoding="utf-8"?>
<!-- Generator: Adobe Illustrator 26.2.1, SVG Export Plug-In . SVG Version: 6.00 Build 0)  -->
<svg version="1.1" id="Capa_1" xmlns="http://www.w3.org/2000/svg" xmlns:xlink="http://www.w3.org/1999/xlink" x="0px" y="0px"
	 viewBox="0 0 448.4 459.5" style="enable-background:new 0 0 448.4 459.5;" xml:space="preserve">
<style type="text/css">
	.st0{fill:#BCBEC0;}
	.st1{fill:none;}
	.st2{fill:#231F20;}
</style>
<g>
	<path class="st0" d="M229.9,79V5.8c0-3.2-2.6-5.8-5.8-5.8c-1.5,0-3,0.6-4.1,1.7s-1.7,2.6-1.7,4.1V79c0,1.5,0.6,3,1.7,4.1
		c1.1,1.1,2.6,1.7,4.1,1.7C227.3,84.8,229.9,82.2,229.9,79z"/>
	<path class="st0" d="M303,102.9L339,39c0.8-1.3,1-2.9,0.6-4.4s-1.4-2.8-2.7-3.5c-1.3-0.8-2.9-1-4.4-0.5c-1.5,0.4-2.8,1.4-3.5,2.8
		l-36,63.8c-0.8,1.3-1,2.9-0.5,4.4c0.4,1.5,1.4,2.7,2.8,3.5c0.8,0.5,1.8,0.8,2.8,0.8C300.1,105.8,302,104.6,303,102.9L303,102.9z"/>
	<path class="st0" d="M347.9,148.3c-2.7,1.7-3.6,5.2-1.9,7.9c1,1.7,2.9,2.8,4.9,2.8c1.1,0,2.1-0.2,3-0.8l0,0l62.8-38
		c1.3-0.8,2.3-2,2.7-3.5c0.4-1.5,0.1-3.1-0.7-4.4c-1.7-2.7-5.3-3.6-8-1.9L347.9,148.3L347.9,148.3z"/>
	<path class="st0" d="M363.8,226.1c-0.1,1.5,0.5,3,1.6,4.1s2.5,1.7,4,1.8l73.2,1.8c3.2,0,5.8-2.5,5.8-5.7c0.1-1.5-0.5-3-1.6-4.1
		s-2.5-1.7-4-1.8l0,0l-73.3-1.8c-1.5,0-3,0.6-4.1,1.6c-1.1,1.1-1.7,2.5-1.8,4.1L363.8,226.1z"/>
	<path class="st0" d="M354.1,292.7c-1.3-1.2-3-1.7-4.7-1.5s-3.3,1.2-4.2,2.7c-0.9,1.5-1.1,3.3-0.6,4.9c0.6,1.6,1.8,3,3.5,3.6
		l62.4,38.7c0.9,0.6,2,0.9,3.1,0.9c2.6,0,4.8-1.8,5.5-4.2c0.7-2.5-0.3-5.1-2.5-6.5l0,0l-62.5-38.7L354.1,292.7z"/>
	<path class="st0" d="M111.3,31.1c-1.4,0.8-2.4,2-2.8,3.5s-0.2,3.1,0.6,4.4l0,0l36,63.8c1,1.8,3,2.9,5,2.9c1,0,2-0.2,2.8-0.8
		c1.3-0.7,2.3-2,2.8-3.5c0.4-1.5,0.2-3.1-0.5-4.4l-36-63.8c-0.8-1.3-2-2.3-3.5-2.8C114.2,30.1,112.6,30.3,111.3,31.1L111.3,31.1z"/>
	<path class="st0" d="M97.2,159c2.1,0,4-1,5-2.8c1.6-2.7,0.8-6.3-1.9-7.9l0,0l-62.8-37.9c-2.8-1.7-6.3-0.8-8,1.9
		c-0.8,1.3-1,2.9-0.7,4.4c0.4,1.5,1.4,2.8,2.7,3.5l0,0l62.8,38C95.2,158.8,96.2,159.1,97.2,159L97.2,159z"/>
	<path class="st0" d="M5.6,222.2c-1.5,0-3,0.7-4,1.8c-1.1,1.1-1.6,2.6-1.6,4.1c0.1,3.2,2.6,5.7,5.8,5.7l73.3-1.8c1.5,0,3-0.7,4-1.8
		c1.1-1.1,1.6-2.6,1.6-4.1s-0.7-3-1.8-4.1c-1.1-1.1-2.6-1.7-4.1-1.6l-73.4,1.8L5.6,222.2z"/>
	<path class="st0" d="M31.7,330.6c-2.2,1.4-3.2,4-2.5,6.5s3,4.2,5.5,4.2c1.1,0,2.2-0.3,3.1-0.9l0,0l62.4-38.7c2-1.9,2.4-4.9,1-7.3
		c-1.5-2.4-4.4-3.3-7-2.4l-62.5,38.7L31.7,330.6z"/>
	<g>
		<path class="st1" d="M233.7,101.7c0.3,0.1,0.7,0.1,1,0.2C234.3,101.9,234,101.8,233.7,101.7z"/>
		<path class="st1" d="M230.5,101.3c0.9,0.1,1.9,0.2,2.8,0.4C232.3,101.5,231.4,101.4,230.5,101.3z"/>
		<path class="st1" d="M224.6,101.4c0.2,0,0.3,0,0.5-0.1C224.9,101.4,224.7,101.4,224.6,101.4z"/>
		<path class="st1" d="M226.1,101.3c0.2,0,0.4,0,0.6,0C226.6,101.2,226.4,101.3,226.1,101.3z"/>
		<path class="st1" d="M208.5,114.2c0.1-0.2,0.1-0.4,0.2-0.5C208.7,113.8,208.6,114,208.5,114.2z"/>
		<path class="st1" d="M228.1,101.2c-0.1,0-0.2,0-0.3,0c0.3,0,0.5,0,0.8,0C228.4,101.2,228.2,101.2,228.1,101.2z"/>
		<path class="st1" d="M229.1,101.2c0.3,0,0.6,0,1,0.1C229.7,101.3,229.4,101.2,229.1,101.2z"/>
		<path class="st1" d="M235.2,102.1c0.3,0.1,0.6,0.2,0.9,0.2C235.8,102.2,235.5,102.1,235.2,102.1z"/>
		<path class="st1" d="M243.6,105.5c0.3,0.2,0.5,0.3,0.8,0.5C244.1,105.8,243.9,105.6,243.6,105.5z"/>
		<path class="st1" d="M237.9,102.9c0.4,0.1,0.7,0.3,1.1,0.4C238.7,103.1,238.3,103,237.9,102.9z"/>
		<path class="st1" d="M244.8,106.2c0.3,0.2,0.5,0.4,0.8,0.5C245.3,106.6,245.1,106.4,244.8,106.2z"/>
		<path class="st1" d="M242.3,104.7c0.3,0.1,0.6,0.3,0.8,0.4C242.9,105,242.6,104.9,242.3,104.7z"/>
		<path class="st1" d="M240.9,104c0.3,0.2,0.7,0.3,1,0.5C241.6,104.4,241.2,104.2,240.9,104z"/>
		<path class="st1" d="M246,107c0.4,0.3,0.7,0.6,1.1,0.9C246.7,107.6,246.3,107.3,246,107z"/>
		<path class="st1" d="M239.3,103.4c0.4,0.2,0.9,0.4,1.3,0.6C240.2,103.7,239.7,103.5,239.3,103.4z"/>
		<path class="st1" d="M129.9,194.6c0.5,0.8,1,1.6,1.5,2.4l0,0C130.9,196.2,130.4,195.4,129.9,194.6z"/>
		<path class="st1" d="M212.8,107c0.1-0.1,0.1-0.2,0.2-0.2C212.9,106.8,212.8,106.9,212.8,107z"/>
		<path class="st1" d="M211.6,108.3c0.1-0.1,0.2-0.3,0.3-0.4C211.8,108,211.7,108.2,211.6,108.3z"/>
		<path class="st1" d="M100.8,232.7C100.8,232.6,100.8,232.6,100.8,232.7C100.8,232.6,100.8,232.6,100.8,232.7z"/>
		<path class="st1" d="M209.1,112.6c0.1-0.2,0.2-0.4,0.3-0.6C209.3,112.2,209.2,112.4,209.1,112.6z"/>
		<path class="st1" d="M210.7,109.6c0.1-0.2,0.2-0.3,0.3-0.5C210.9,109.3,210.8,109.5,210.7,109.6z"/>
		<path class="st1" d="M209.8,111c0.1-0.2,0.2-0.4,0.3-0.6C210,110.7,209.9,110.9,209.8,111z"/>
		<path class="st1" d="M219.5,102.7c0.2-0.1,0.3-0.1,0.5-0.2C219.8,102.6,219.6,102.6,219.5,102.7z"/>
		<path class="st1" d="M218,103.3c0.2-0.1,0.3-0.2,0.5-0.2C218.4,103.1,218.2,103.2,218,103.3z"/>
		<path class="st1" d="M221,102.2c0.1,0,0.3-0.1,0.4-0.1C221.3,102.1,221.2,102.1,221,102.2z"/>
		<path class="st1" d="M216.6,104c0.2-0.1,0.3-0.2,0.5-0.3C217,103.8,216.8,103.9,216.6,104z"/>
		<path class="st1" d="M125.7,180c0,0.6,0,1.2,0,1.7C125.7,181.2,125.7,180.6,125.7,180z"/>
		<path class="st1" d="M214.1,105.7c0.1-0.1,0.2-0.1,0.3-0.2C214.3,105.6,214.2,105.6,214.1,105.7z"/>
		<path class="st1" d="M215.4,104.8c0.1-0.1,0.3-0.2,0.4-0.3C215.6,104.6,215.5,104.7,215.4,104.8z"/>
		<path class="st1" d="M236.6,102.4c0.3,0.1,0.6,0.2,0.9,0.3C237.2,102.6,236.9,102.5,236.6,102.4z"/>
		<path class="st1" d="M152.6,161.6c0.2,0.1,0.5,0.2,0.7,0.3C153,161.8,152.8,161.7,152.6,161.6z"/>
		<path class="st1" d="M153.8,162.1c0.2,0.1,0.4,0.2,0.7,0.3C154.2,162.3,154,162.2,153.8,162.1z"/>
		<path class="st1" d="M151.3,161.2c0.2,0.1,0.5,0.2,0.7,0.2C151.8,161.4,151.5,161.3,151.3,161.2z"/>
		<path class="st1" d="M138.9,161.5c0.2-0.1,0.3-0.1,0.5-0.2C139.2,161.4,139.1,161.5,138.9,161.5z"/>
		<path class="st1" d="M137.5,162.2c0.2-0.1,0.3-0.2,0.5-0.3C137.8,162,137.7,162.1,137.5,162.2z"/>
		<path class="st1" d="M156.2,163.2c0.4,0.2,0.8,0.4,1.1,0.6C156.9,163.7,156.5,163.4,156.2,163.2z"/>
		<path class="st1" d="M155,162.7c0.2,0.1,0.5,0.2,0.7,0.3C155.4,162.9,155.2,162.8,155,162.7z"/>
		<path class="st1" d="M149.8,160.8c0.3,0.1,0.7,0.2,1,0.3C150.5,161,150.1,160.9,149.8,160.8z"/>
		<path class="st1" d="M148.5,160.5c0.4,0.1,0.7,0.1,1.1,0.2C149.2,160.6,148.8,160.6,148.5,160.5z"/>
		<path class="st1" d="M142.1,160.5c0.2,0,0.3-0.1,0.5-0.1C142.5,160.5,142.3,160.5,142.1,160.5z"/>
		<path class="st1" d="M145.3,160.2c-0.1,0-0.2,0-0.3,0c0.2,0,0.4,0,0.6,0C145.5,160.2,145.4,160.2,145.3,160.2z"/>
		<path class="st1" d="M143.6,160.3c0.2,0,0.4,0,0.5,0C143.9,160.3,143.7,160.3,143.6,160.3z"/>
		<path class="st1" d="M147.3,160.3c0.3,0,0.5,0.1,0.8,0.1C147.8,160.4,147.5,160.4,147.3,160.3z"/>
		<path class="st1" d="M146.1,160.2c0.2,0,0.5,0,0.7,0C146.6,160.3,146.3,160.3,146.1,160.2z"/>
		<path class="st1" d="M126.9,187.8c-0.2-0.6-0.3-1.1-0.5-1.7C126.5,186.7,126.7,187.2,126.9,187.8z"/>
		<path class="st1" d="M282.7,186.5C282.7,186.5,282.7,186.5,282.7,186.5c-0.3-1-0.6-2-0.9-3C282.1,184.6,282.4,185.5,282.7,186.5z"
			/>
		<path class="st1" d="M129.4,193.8c-0.6-1.1-1.1-2.2-1.6-3.4C128.3,191.5,128.8,192.6,129.4,193.8z"/>
		<path class="st1" d="M276.2,167.4c-2.1-5.3-4.4-10.5-6.9-15.5c-1.5-2.7-3.8-7.8-6.3-13.7c2.6,5.9,4.8,11,6.3,13.7
			C271.8,156.9,274.1,162.1,276.2,167.4z"/>
		<path class="st1" d="M258.2,127.4c1.5,3.2,2.9,6.5,4.3,9.6C261,133.9,259.6,130.6,258.2,127.4z"/>
		<path class="st1" d="M136.1,163c0.2-0.1,0.3-0.2,0.5-0.3C136.4,162.8,136.3,162.9,136.1,163z"/>
		<path class="st1" d="M127.8,190.4c-0.2-0.6-0.5-1.1-0.7-1.7C127.4,189.2,127.6,189.8,127.8,190.4z"/>
		<path class="st1" d="M276.2,167.4c1.4,3.5,2.7,7.1,3.9,10.7C278.9,174.6,277.6,171,276.2,167.4z"/>
		<path class="st1" d="M256.6,124c0.5,1.1,1.1,2.3,1.6,3.4C257.6,126.3,257.1,125.1,256.6,124z"/>
		<path class="st1" d="M126.6,174.9c0.2-0.6,0.4-1.1,0.6-1.7C127,173.8,126.8,174.3,126.6,174.9z"/>
		<path class="st1" d="M129.1,169.9c0.6-0.8,1.2-1.6,1.9-2.4C130.3,168.2,129.7,169,129.1,169.9z"/>
		<path class="st1" d="M134.7,164c0.1-0.1,0.3-0.2,0.4-0.3C135,163.7,134.9,163.8,134.7,164z"/>
		<path class="st1" d="M126,177.4c0.2-0.9,0.4-1.7,0.6-2.6C126.4,175.7,126.2,176.6,126,177.4z"/>
		<path class="st1" d="M140.7,160.9c0,0,0.1,0,0.1,0C140.8,160.8,140.7,160.9,140.7,160.9z"/>
		<path class="st1" d="M254.2,119.1c0.5,1,1,2.1,1.6,3.2C255.3,121.2,254.7,120.2,254.2,119.1z"/>
		<path class="st1" d="M125.9,183.5c-0.1-0.6-0.1-1.2-0.2-1.7C125.8,182.3,125.8,182.9,125.9,183.5z"/>
		<path class="st1" d="M187.9,127.1c0.2,0.1,0.4,0.2,0.6,0.3C188.3,127.3,188.1,127.2,187.9,127.1z"/>
		<path class="st1" d="M185.5,126.2c0.2,0.1,0.5,0.1,0.7,0.2C185.9,126.4,185.7,126.3,185.5,126.2z"/>
		<path class="st1" d="M183.8,125.9c0.4,0.1,0.8,0.2,1.2,0.3C184.6,126,184.2,125.9,183.8,125.9z"/>
		<path class="st1" d="M189.1,127.6c0.2,0.1,0.4,0.2,0.6,0.3C189.5,127.8,189.3,127.7,189.1,127.6z"/>
		<path class="st1" d="M186.7,126.6c0.2,0.1,0.4,0.2,0.6,0.2C187.1,126.8,186.9,126.7,186.7,126.6z"/>
		<path class="st1" d="M193,129.9c0.2,0.1,0.4,0.2,0.5,0.4C193.4,130.1,193.2,130,193,129.9z"/>
		<path class="st1" d="M194.2,130.7c0.2,0.1,0.3,0.2,0.5,0.4C194.5,130.9,194.4,130.8,194.2,130.7z"/>
		<path class="st1" d="M191.4,128.8c0.2,0.1,0.4,0.3,0.6,0.4C191.8,129.1,191.6,129,191.4,128.8z"/>
		<path class="st1" d="M190.2,128.2c0.2,0.1,0.4,0.2,0.6,0.3C190.6,128.4,190.4,128.3,190.2,128.2z"/>
		<path class="st1" d="M172.4,127.7c0.2-0.1,0.4-0.2,0.6-0.3C172.8,127.5,172.6,127.6,172.4,127.7z"/>
		<path class="st1" d="M173.7,127c0.2-0.1,0.4-0.2,0.6-0.2C174.1,126.9,173.9,126.9,173.7,127z"/>
		<path class="st1" d="M195.3,131.5c0.2,0.1,0.3,0.3,0.5,0.4C195.6,131.8,195.5,131.7,195.3,131.5z"/>
		<path class="st1" d="M171.1,128.5c0.2-0.1,0.3-0.2,0.5-0.3C171.4,128.3,171.2,128.4,171.1,128.5z"/>
		<path class="st1" d="M175,126.5c0.2-0.1,0.4-0.1,0.6-0.2C175.4,126.4,175.2,126.4,175,126.5z"/>
		<path class="st1" d="M181.5,125.6c0.3,0,0.5,0,0.8,0.1C182,125.6,181.7,125.6,181.5,125.6z"/>
		<path class="st1" d="M179,125.6c0.2,0,0.4,0,0.6,0C179.4,125.6,179.2,125.6,179,125.6z"/>
		<path class="st1" d="M180.6,125.5c-0.1,0-0.2,0-0.3,0c0.2,0,0.5,0,0.7,0C180.8,125.5,180.7,125.5,180.6,125.5z"/>
		<path class="st1" d="M176.3,126.1c0.2-0.1,0.4-0.1,0.6-0.1C176.8,126,176.6,126,176.3,126.1z"/>
		<path class="st1" d="M177.7,125.8c0.2,0,0.4-0.1,0.6-0.1C178.1,125.7,177.9,125.8,177.7,125.8z"/>
		<path class="st1" d="M182.7,125.7c0.3,0,0.6,0.1,0.9,0.1C183.3,125.8,183,125.7,182.7,125.7z"/>
		<path class="st1" d="M227,175.6C227,175.7,227.1,175.7,227,175.6C227.1,175.7,227,175.7,227,175.6z"/>
		<path class="st1" d="M227.3,176.2c0,0.1,0.1,0.1,0.1,0.2C227.4,176.3,227.4,176.2,227.3,176.2z"/>
		<path class="st1" d="M226.2,174.3C226.3,174.3,226.3,174.3,226.2,174.3C226.3,174.3,226.3,174.3,226.2,174.3z"/>
		<path class="st1" d="M221.6,165.9C221.6,166,221.6,166,221.6,165.9C221.6,166,221.6,166,221.6,165.9z"/>
		<path class="st1" d="M221,164.9C221,164.9,221,164.9,221,164.9C221,164.9,221,164.9,221,164.9z"/>
		<path class="st1" d="M227.6,176.6c0,0.1,0.1,0.1,0.1,0.2C227.7,176.7,227.6,176.7,227.6,176.6z"/>
		<path class="st1" d="M228.3,177.7C228.3,177.7,228.3,177.6,228.3,177.7C228.3,177.6,228.3,177.7,228.3,177.7z"/>
		<path class="st1" d="M227.9,177c0,0,0.1,0.1,0.1,0.1C227.9,177.1,227.9,177.1,227.9,177z"/>
		<path class="st1" d="M228.1,177.4c0,0,0.1,0.1,0.1,0.1C228.1,177.4,228.1,177.4,228.1,177.4z"/>
		<path class="st1" d="M201.4,137.1c0.1,0.1,0.2,0.2,0.3,0.3C201.6,137.3,201.5,137.2,201.4,137.1z"/>
		<path class="st1" d="M202.4,138.1c0.1,0.1,0.2,0.2,0.3,0.4C202.6,138.4,202.5,138.2,202.4,138.1z"/>
		<path class="st1" d="M217.8,159.3C217.8,159.4,217.8,159.4,217.8,159.3C217.8,159.4,217.8,159.4,217.8,159.3z"/>
		<path class="st1" d="M203.4,139.2c0.1,0.1,0.2,0.3,0.3,0.4C203.6,139.5,203.5,139.3,203.4,139.2z"/>
		<path class="st1" d="M198.6,134.3c0.1,0.1,0.2,0.2,0.3,0.3C198.8,134.5,198.7,134.4,198.6,134.3z"/>
		<path class="st1" d="M197.5,133.4c0.1,0.1,0.3,0.3,0.4,0.4C197.8,133.6,197.7,133.5,197.5,133.4z"/>
		<path class="st1" d="M196.4,132.4c0.2,0.1,0.3,0.3,0.5,0.4C196.7,132.7,196.6,132.5,196.4,132.4z"/>
		<path class="st1" d="M217,158.1c0,0.1,0.1,0.1,0.1,0.2C217.1,158.2,217.1,158.2,217,158.1z"/>
		<path class="st1" d="M205.4,141.6c0.1,0.1,0.2,0.2,0.2,0.3C205.5,141.8,205.5,141.7,205.4,141.6z"/>
		<path class="st1" d="M204.4,140.4c0.1,0.1,0.2,0.2,0.3,0.4C204.6,140.6,204.5,140.5,204.4,140.4z"/>
		<path class="st0" d="M243.1,250.3c-0.1,0-0.2,0-0.3,0C242.9,250.3,243,250.3,243.1,250.3z"/>
		<polygon class="st0" points="220,225.6 239.4,248.6 220,225.6 		"/>
		<path class="st0" d="M262.5,243.2C262.5,243.3,262.4,243.3,262.5,243.2C262.4,243.3,262.5,243.3,262.5,243.2z"/>
		<path class="st0" d="M124.8,201.3c-0.3,0.2-0.6,0.4-0.8,0.6c0.4,0,0.8,0,1.3,0.1C125.1,201.8,125,201.5,124.8,201.3z"/>
		<path class="st0" d="M247.5,250.5c0,0,0.1,0,0.1,0l0,0C247.6,250.5,247.6,250.5,247.5,250.5z"/>
		<path class="st0" d="M232.4,183.9c2.6,4,5.2,8,7.9,12C237.6,191.9,235,187.9,232.4,183.9z"/>
		<path class="st0" d="M261.8,244.2c0,0.1-0.1,0.1-0.1,0.2C261.7,244.4,261.7,244.3,261.8,244.2z"/>
		<path class="st0" d="M246.2,250.5c0,0,0.1,0,0.1,0C246.2,250.5,246.2,250.5,246.2,250.5C246.1,250.5,246.1,250.5,246.2,250.5z"/>
		<path class="st0" d="M244.1,250.5c-0.1,0-0.2,0-0.3,0C243.9,250.4,244,250.4,244.1,250.5z"/>
		<path class="st0" d="M260.9,245.3c-0.1,0.1-0.1,0.1-0.2,0.2C260.8,245.4,260.9,245.3,260.9,245.3z"/>
		<path class="st0" d="M245.1,250.5c-0.1,0-0.1,0-0.2,0C245,250.5,245,250.5,245.1,250.5z"/>
		<path class="st0" d="M256.3,248.5C256.2,248.5,256.2,248.5,256.3,248.5C256.2,248.5,256.2,248.5,256.3,248.5z"/>
		<path class="st0" d="M259.9,246.3C259.8,246.3,259.8,246.3,259.9,246.3C259.8,246.3,259.8,246.3,259.9,246.3z"/>
		<path class="st0" d="M257.6,247.8c-0.1,0-0.2,0.1-0.2,0.1C257.5,247.8,257.6,247.8,257.6,247.8z"/>
		<path class="st0" d="M258.8,247c-0.1,0-0.1,0.1-0.2,0.1C258.7,247.1,258.8,247,258.8,247z"/>
		<path class="st0" d="M194.3,303C194.3,303,194.3,303,194.3,303C194.3,303,194.3,303,194.3,303z"/>
		<path class="st0" d="M179.3,256.3c0.8,0.8,1.6,1.6,2.4,2.3C180.9,257.9,180.1,257.1,179.3,256.3z"/>
		<path class="st0" d="M181.6,258.7c2.3,2.3,4.6,4.4,6.5,6.3C186.2,263.1,184,260.9,181.6,258.7z"/>
		<path class="st0" d="M174.3,251.5c1.7,1.6,3.3,3.2,5,4.8C177.6,254.8,176,253.2,174.3,251.5z"/>
		<path class="st0" d="M167.9,245.4c0.8,0.8,1.7,1.6,2.5,2.5C169.6,247,168.8,246.2,167.9,245.4z"/>
		<path class="st0" d="M170.5,247.9c0.8,0.8,1.7,1.6,2.5,2.5C172.2,249.5,171.3,248.7,170.5,247.9z"/>
		<path class="st0" d="M205.6,284.4c0.2,0.5,0.4,1,0.6,1.5C206,285.4,205.8,284.9,205.6,284.4z"/>
		<path class="st0" d="M194.7,271.3c0.4,0.4,0.8,0.8,1.1,1.1C195.5,272.1,195.1,271.7,194.7,271.3z"/>
		<path class="st0" d="M188.2,265c0.7,0.6,1.3,1.3,1.9,1.8C189.5,266.3,188.9,265.6,188.2,265z"/>
		<path class="st0" d="M164.2,241.7c1.2,1.2,2.5,2.4,3.8,3.7C166.7,244.2,165.4,242.9,164.2,241.7z"/>
		<path class="st0" d="M191.8,268.5c1.1,1.1,2.1,2,2.9,2.8C193.9,270.5,192.9,269.6,191.8,268.5z"/>
		<path class="st0" d="M190.1,266.8c0.6,0.6,1.2,1.2,1.7,1.7C191.3,268,190.7,267.4,190.1,266.8z"/>
		<path class="st0" d="M206.2,285.9c0.4,1,0.6,2,0.8,3C206.8,287.9,206.6,286.9,206.2,285.9z"/>
		<path class="st0" d="M136.6,215.4c0.3,0.2,0.5,0.4,0.8,0.7C137.2,215.8,136.9,215.6,136.6,215.4z"/>
		<path class="st0" d="M133.6,213.1c0.4,0.3,0.9,0.6,1.3,0.9C134.4,213.7,134,213.4,133.6,213.1z"/>
		<path class="st0" d="M135.3,214.3c0.3,0.2,0.6,0.4,0.9,0.7C135.8,214.8,135.6,214.5,135.3,214.3z"/>
		<path class="st0" d="M130.9,211.6c0.3,0.1,0.6,0.3,0.9,0.4C131.5,211.9,131.2,211.7,130.9,211.6z"/>
		<path class="st0" d="M132.3,212.3c0.4,0.2,0.7,0.4,1.1,0.6C133,212.7,132.6,212.5,132.3,212.3z"/>
		<path class="st0" d="M139.3,217.7c0.3,0.2,0.5,0.5,0.8,0.8C139.8,218.2,139.5,218,139.3,217.7z"/>
		<path class="st0" d="M150,228c0.9,0.8,1.8,1.8,2.8,2.7C151.8,229.7,150.8,228.8,150,228z"/>
		<path class="st0" d="M138,216.5c0.3,0.2,0.5,0.5,0.8,0.7C138.5,217,138.2,216.8,138,216.5z"/>
		<path class="st0" d="M152.8,230.7c0.7,0.6,1.4,1.3,2.1,2C154.1,232,153.4,231.4,152.8,230.7z"/>
		<path class="st0" d="M155.9,233.7c2.6,2.5,5.4,5.2,8.3,8C161.3,238.9,158.5,236.2,155.9,233.7z"/>
		<path class="st0" d="M140.6,218.9c0.3,0.3,0.6,0.6,0.9,0.9C141.2,219.5,140.9,219.2,140.6,218.9z"/>
		<path class="st0" d="M129.5,211c0.3,0.1,0.6,0.2,0.8,0.4C130.1,211.2,129.8,211.1,129.5,211z"/>
		<path class="st0" d="M198.6,302.9c-0.1,0-0.3,0.1-0.4,0.1C198.3,302.9,198.4,302.9,198.6,302.9z"/>
		<path class="st0" d="M197.8,303c-0.1,0-0.3,0-0.4,0.1C197.5,303,197.7,303,197.8,303z"/>
		<path class="st0" d="M197,303.1c-0.1,0-0.3,0-0.4,0C196.8,303.1,196.9,303.1,197,303.1z"/>
		<path class="st0" d="M200.1,302.4c-0.1,0-0.3,0.1-0.4,0.1C199.8,302.5,199.9,302.5,200.1,302.4z"/>
		<path class="st0" d="M199.3,302.7c-0.1,0-0.3,0.1-0.4,0.1C199.1,302.7,199.2,302.7,199.3,302.7z"/>
		<path class="st0" d="M195.9,303.1c0.1,0,0.2,0,0.4,0C196.1,303.1,196,303.1,195.9,303.1C195.9,303.1,195.9,303.1,195.9,303.1z"/>
		<path class="st0" d="M191.1,302.4C191.1,302.4,191,302.4,191.1,302.4C191,302.4,191.1,302.4,191.1,302.4z"/>
		<path class="st0" d="M189.5,301.9C189.4,301.9,189.4,301.9,189.5,301.9C189.4,301.9,189.4,301.9,189.5,301.9z"/>
		<path class="st0" d="M192.7,302.8C192.7,302.8,192.7,302.8,192.7,302.8C192.7,302.8,192.7,302.8,192.7,302.8z"/>
		<path class="st0" d="M200.8,302.1c-0.1,0.1-0.3,0.1-0.4,0.2C200.5,302.3,200.6,302.2,200.8,302.1z"/>
		<path class="st0" d="M187.9,301.3C187.9,301.3,187.9,301.3,187.9,301.3C187.9,301.3,187.9,301.3,187.9,301.3z"/>
		<path class="st0" d="M207,293.5c-0.1,0.5-0.2,1-0.4,1.5C206.8,294.5,206.9,294,207,293.5z"/>
		<path class="st0" d="M204.5,299.2c-0.1,0.1-0.2,0.3-0.3,0.4C204.3,299.5,204.4,299.3,204.5,299.2z"/>
		<path class="st0" d="M205.5,297.6c-0.1,0.2-0.2,0.4-0.3,0.6C205.3,298,205.4,297.8,205.5,297.6z"/>
		<path class="st0" d="M205,298.4c-0.1,0.2-0.2,0.3-0.3,0.5C204.8,298.8,204.9,298.6,205,298.4z"/>
		<path class="st0" d="M206,296.6c-0.1,0.3-0.2,0.5-0.4,0.8C205.8,297.1,205.9,296.8,206,296.6z"/>
		<path class="st0" d="M207,288.9c0.1,0.5,0.1,1,0.2,1.5C207.1,289.9,207.1,289.4,207,288.9z"/>
		<path class="st0" d="M201.5,301.8c-0.1,0.1-0.3,0.1-0.4,0.2C201.2,301.9,201.3,301.9,201.5,301.8z"/>
		<path class="st0" d="M202.1,301.4c-0.1,0.1-0.3,0.2-0.4,0.2C201.9,301.6,202,301.5,202.1,301.4z"/>
		<path class="st0" d="M203.9,299.8c-0.1,0.1-0.2,0.3-0.3,0.4C203.7,300.1,203.8,299.9,203.9,299.8z"/>
		<path class="st0" d="M202.8,300.9c-0.1,0.1-0.2,0.2-0.4,0.3C202.5,301.1,202.6,301,202.8,300.9z"/>
		<path class="st0" d="M203.4,300.4c-0.1,0.1-0.2,0.2-0.4,0.3C203.1,300.6,203.2,300.5,203.4,300.4z"/>
		<path class="st0" d="M186.4,300.6C186.4,300.6,186.3,300.6,186.4,300.6C186.3,300.6,186.4,300.6,186.4,300.6z"/>
		<path class="st0" d="M229.2,276.5c-0.1,0.1-0.3,0.1-0.4,0.2C228.9,276.6,229.1,276.6,229.2,276.5z"/>
		<path class="st0" d="M227.7,277.2c-0.2,0.1-0.3,0.1-0.5,0.2C227.3,277.3,227.5,277.3,227.7,277.2z"/>
		<path class="st0" d="M228.4,276.9c-0.2,0.1-0.3,0.1-0.5,0.2C228.1,277,228.3,276.9,228.4,276.9z"/>
		<path class="st0" d="M230,276.1c-0.1,0.1-0.3,0.2-0.4,0.2C229.7,276.3,229.8,276.2,230,276.1z"/>
		<path class="st0" d="M230.7,275.7c-0.1,0.1-0.3,0.2-0.4,0.3C230.4,275.8,230.5,275.8,230.7,275.7z"/>
		<path class="st0" d="M226.9,277.5c-0.2,0.1-0.4,0.1-0.5,0.2C226.5,277.6,226.7,277.6,226.9,277.5z"/>
		<path class="st0" d="M222.4,278.7c-0.2,0-0.3,0.1-0.5,0.1C222.1,278.8,222.2,278.7,222.4,278.7z"/>
		<path class="st0" d="M225.2,278c-0.3,0.1-0.6,0.2-0.8,0.2C224.7,278.2,225,278.1,225.2,278z"/>
		<path class="st0" d="M231.4,275.2c-0.1,0.1-0.3,0.2-0.4,0.3C231.1,275.4,231.3,275.3,231.4,275.2z"/>
		<path class="st0" d="M226.1,277.8c-0.2,0.1-0.4,0.1-0.7,0.2C225.6,277.9,225.8,277.9,226.1,277.8z"/>
		<path class="st0" d="M223.3,278.5c-0.2,0-0.4,0.1-0.5,0.1C222.9,278.6,223.1,278.6,223.3,278.5z"/>
		<path class="st0" d="M232.8,255.4c0.4,0.6,0.8,1.4,1.1,2.2C233.6,256.7,233.2,256,232.8,255.4z"/>
		<path class="st0" d="M232.1,274.7c-0.1,0.1-0.3,0.2-0.4,0.3C231.8,274.9,231.9,274.8,232.1,274.7z"/>
		<path class="st0" d="M337,255.8c4.8-14.6,3.3-29.1-3.9-36.1c-2.8-2.8-9.2-5-15.4-7.1c-4.7-1.6-9.5-3.3-13.4-5.4
			c-13.2-7.1-26.7-14.5-40.2-22c-11,8.4-14.2,25-6.9,37.3l0.1,0.1c10.6,19.3,31.7,28.4,52.2,37.3c2.4,1,4.7,2,7,3.1l-3.2,7.2
			c-2.3-1-4.6-2-6.9-3c-12.4-5.4-25.8-11.2-37.1-19.6c-3.5,5.7-10,9.2-17.1,10.4c-2.9,3.4-5.4,7-7.6,10.7c-0.5,3.7-2.2,7.2-4.9,10
			c-3.7,9.4-5.4,19.4-5,30.1c0.6,15.7,5.7,26.9,5.8,27c0.9,2,0.1,4.3-1.9,5.2c-0.5,0.2-1.1,0.4-1.7,0.4c-1.5,0-2.9-0.8-3.6-2.3
			c-0.2-0.5-5.7-12.5-6.5-29.7c-0.3-6.9,0.2-15.3,2.6-24.3c-3.5,1.2-7.3,1.9-11.1,1.9c-1,0-2.1-0.1-3.1-0.2l-0.5-0.1
			c0.9,4.5,0.5,8.9-1.3,13c-3.2,7.2-9.5,11.3-17.3,11.3c-5.2,0-11-1.8-16.1-5c-16-7.5-29.1-15.1-40.1-23.2l-0.1-0.1l-0.1-0.1
			c-2.1-1.7-6.8-4.8-11.9-8.1c-3.5-2.3-6.8-4.5-9.8-6.5c5,25.4,14.2,49.7,29.7,69.8c5.7,7.2,12.4,13.9,15.6,22.5
			c6.3,26.5,8,56.7-1.8,82.2c21.9,9.3,45.4,10.9,68.9,8.3c27.1-1.8,57.5-4.8,77.3-25.3c-10-18.2-11.7-42.1-8.7-62.7
			c1.2-8.3,6.8-13.6,10.2-21.1c3.7-8.1,7.1-16.4,10.2-24.8c4-13.5,10.3-29.6,14.4-45.7l0.4-2.3C334.4,264.8,335.5,260.5,337,255.8z"
			/>
		<path class="st0" d="M234.3,258.3c0.4,0.8,0.7,1.7,1,2.6C235,260,234.7,259.2,234.3,258.3z"/>
		<path class="st0" d="M235.4,260.9c0.3,0.9,0.6,1.7,0.8,2.6C236,262.7,235.7,261.8,235.4,260.9z"/>
		<path class="st0" d="M232.8,274.1c-0.2,0.1-0.3,0.3-0.5,0.4C232.5,274.4,232.6,274.3,232.8,274.1z"/>
		<path class="st0" d="M198.8,275.2c-0.4-0.4-0.8-0.7-1.2-1c0,0-0.7-0.6-1.8-1.8c1.2,1.1,1.8,1.8,1.8,1.8
			C198.1,274.5,198.5,274.8,198.8,275.2z"/>
		<path class="st0" d="M119.1,210.1C119.1,210.1,119.1,210.1,119.1,210.1c-2.3,0.1-4.4,0.6-6.2,1.3
			C114.8,210.6,116.8,210.2,119.1,210.1C119.1,210.1,119.1,210.1,119.1,210.1z"/>
		<path class="st0" d="M150,228c-4.1-3.9-6.7-6.5-6.7-6.5c-0.5-0.4-0.9-0.9-1.4-1.3c0.4,0.4,0.9,0.9,1.4,1.3
			C143.3,221.5,145.9,224.1,150,228z"/>
		<path class="st0" d="M224.2,278.3c-0.2,0.1-0.4,0.1-0.6,0.1C223.8,278.4,224,278.4,224.2,278.3z"/>
		<path class="st0" d="M121,209.8c0.2,0,0.4,0,0.6,0C121.5,209.8,121.3,209.8,121,209.8z"/>
		<path class="st0" d="M131.4,197L131.4,197C131.4,197,131.4,197.1,131.4,197C131.4,197.1,131.4,197,131.4,197z"/>
		<path class="st0" d="M221.5,278.8c-0.2,0-0.3,0-0.5,0.1C221.2,278.9,221.4,278.9,221.5,278.8z"/>
		<path class="st0" d="M207.2,292c0-0.5,0-1,0-1.5C207.2,290.9,207.2,291.5,207.2,292z"/>
		<path class="st0" d="M122.9,209.7C122.9,209.7,122.9,209.7,122.9,209.7c0.5,0,1,0,1.6,0.1C124,209.7,123.5,209.7,122.9,209.7z"/>
		<path class="st0" d="M126.6,210.1c0.3,0.1,0.6,0.1,0.9,0.2C127.2,210.2,126.9,210.2,126.6,210.1z"/>
		<path class="st0" d="M184.9,299.9C184.9,299.9,184.9,299.9,184.9,299.9C184.9,299.9,184.9,299.9,184.9,299.9z"/>
		<path class="st0" d="M128.1,210.5c0.3,0.1,0.6,0.2,0.9,0.3C128.7,210.7,128.4,210.6,128.1,210.5z"/>
		<path class="st0" d="M124.9,209.8c0.4,0,0.8,0.1,1.1,0.2C125.7,209.9,125.3,209.9,124.9,209.8z"/>
		<path class="st0" d="M232.9,274C232.9,274,232.9,274,232.9,274L232.9,274C232.9,274,232.9,274,232.9,274z"/>
		<path class="st0" d="M205.3,283.6c-1.6-3.2-3.9-6.1-6.4-8.4C201.4,277.5,203.7,280.5,205.3,283.6z"/>
		<path class="st0" d="M218.1,279.1c0,0,0.1,0,0.1,0c-0.1,0-0.2,0-0.3,0C218,279.1,218.1,279.1,218.1,279.1z"/>
		<path class="st0" d="M219.9,279c-0.2,0-0.3,0-0.5,0C219.6,279,219.7,279,219.9,279z"/>
		<path class="st0" d="M219.1,279.1c-0.2,0-0.3,0-0.5,0C218.7,279.1,218.9,279.1,219.1,279.1z"/>
		<path class="st0" d="M217.2,279.1c-0.1,0-0.2,0-0.3,0C217,279.1,217.1,279.1,217.2,279.1z"/>
		<path class="st0" d="M220.7,278.9c-0.2,0-0.3,0-0.5,0C220.4,279,220.5,279,220.7,278.9z"/>
		<path class="st0" d="M133.7,200.3c-0.4-0.5-0.8-1.1-1.2-1.6C132.9,199.2,133.3,199.8,133.7,200.3z"/>
		<path class="st0" d="M145.3,212.3c-0.5-0.4-1-0.8-1.4-1.2C144.4,211.5,144.8,211.9,145.3,212.3z"/>
		<path class="st0" d="M138.9,206.3c-0.5-0.5-0.9-1-1.4-1.5C138,205.4,138.5,205.9,138.9,206.3z"/>
		<path class="st2" d="M253.6,249.5c-0.1,0-0.2,0.1-0.3,0.1C253.4,249.5,253.5,249.5,253.6,249.5z"/>
		<path class="st2" d="M255,249c-0.1,0-0.1,0.1-0.2,0.1C254.9,249,255,249,255,249z"/>
		<path class="st2" d="M252.1,249.9c0,0-0.1,0-0.1,0C252,249.9,252,249.9,252.1,249.9z"/>
		<path class="st2" d="M236.7,266.3c0,0.3,0,0.5,0,0.8C236.7,266.9,236.7,266.6,236.7,266.3z"/>
		<path class="st2" d="M235.4,271.1c-0.1,0.1-0.2,0.3-0.2,0.4C235.2,271.3,235.3,271.2,235.4,271.1z"/>
		<path class="st2" d="M235.7,270.4c-0.1,0.1-0.1,0.3-0.2,0.4C235.6,270.7,235.7,270.6,235.7,270.4z"/>
		<path class="st2" d="M234.5,272.4c-0.1,0.1-0.2,0.2-0.3,0.4C234.3,272.6,234.4,272.5,234.5,272.4z"/>
		<path class="st2" d="M250.7,250.1c-0.1,0-0.1,0-0.2,0C250.6,250.2,250.6,250.1,250.7,250.1z"/>
		<path class="st2" d="M235,271.7c-0.1,0.1-0.2,0.2-0.3,0.4C234.8,272,234.9,271.9,235,271.7z"/>
		<path class="st2" d="M236.6,267.4c0,0.2,0,0.3-0.1,0.5C236.6,267.8,236.6,267.6,236.6,267.4z"/>
		<path class="st2" d="M236,269.7c-0.1,0.1-0.1,0.3-0.2,0.4C235.9,270,236,269.9,236,269.7z"/>
		<path class="st2" d="M236.3,269c0,0.1-0.1,0.3-0.1,0.4C236.2,269.3,236.3,269.1,236.3,269z"/>
		<path class="st2" d="M249.2,250.4c-0.1,0-0.2,0-0.3,0C249,250.4,249.1,250.4,249.2,250.4z"/>
		<path class="st2" d="M236.5,268.2c0,0.2-0.1,0.3-0.1,0.5C236.4,268.5,236.5,268.4,236.5,268.2z"/>
		<path class="st2" d="M234,272.9c-0.1,0.1-0.3,0.3-0.4,0.4C233.8,273.2,233.9,273.1,234,272.9z"/>
		<path class="st2" d="M232.9,274c0.2-0.2,0.4-0.3,0.5-0.5C233.3,273.7,233.1,273.8,232.9,274L232.9,274z"/>
		<polygon class="st2" points="247.6,250.5 247.7,250.5 247.6,250.5 		"/>
		<path class="st0" d="M135.7,270.5c3.7,2.4,6.8,4.5,8.5,6c3,2.2,6.1,4.4,9.3,6.4c3.2,2,6.4,4,9.7,5.9c1.7,0.9,3.3,1.9,5,2.7
			c3.3,1.8,6.7,3.5,10.1,5.2c1.7,0.8,3.4,1.6,5.1,2.4c0.4,0.3,0.9,0.6,1.4,0.8c0,0,0,0,0,0c0.5,0.3,0.9,0.5,1.4,0.8c0,0,0,0,0,0
			c0.5,0.2,1,0.5,1.5,0.7c0,0,0,0,0,0c0.5,0.2,1,0.4,1.5,0.6c0,0,0,0,0,0c0.5,0.2,1,0.3,1.6,0.5c0,0,0,0,0.1,0
			c0.5,0.1,1,0.3,1.6,0.4c0,0,0,0,0.1,0c0.5,0.1,1,0.2,1.6,0.2c0,0,0.1,0,0.1,0c0.5,0,1,0.1,1.5,0.1c0.1,0,0.3,0,0.4,0
			c0.1,0,0.3,0,0.4,0c0.1,0,0.3,0,0.4,0c0.1,0,0.3,0,0.4,0c0.1,0,0.3,0,0.4-0.1c0.1,0,0.2,0,0.4-0.1c0.1,0,0.3-0.1,0.4-0.1
			c0.1,0,0.2,0,0.4-0.1c0.1,0,0.3-0.1,0.4-0.1c0.1,0,0.2-0.1,0.3-0.1c0.1,0,0.3-0.1,0.4-0.1c0.1,0,0.2-0.1,0.3-0.1
			c0.1-0.1,0.3-0.1,0.4-0.2c0.1,0,0.2-0.1,0.3-0.1c0.1-0.1,0.3-0.1,0.4-0.2c0.1-0.1,0.2-0.1,0.3-0.2c0.1-0.1,0.3-0.2,0.4-0.2
			c0.1-0.1,0.2-0.1,0.3-0.2c0.1-0.1,0.2-0.2,0.4-0.3c0.1-0.1,0.2-0.1,0.3-0.2c0.1-0.1,0.2-0.2,0.4-0.3c0.1-0.1,0.2-0.1,0.2-0.2
			c0.1-0.1,0.2-0.2,0.3-0.4c0.1-0.1,0.1-0.2,0.2-0.2c0.1-0.1,0.2-0.3,0.3-0.4c0.1-0.1,0.1-0.2,0.2-0.3c0.1-0.2,0.2-0.3,0.3-0.5
			c0.1-0.1,0.1-0.2,0.2-0.3c0.1-0.2,0.2-0.4,0.3-0.6c0-0.1,0.1-0.2,0.1-0.3c0.1-0.3,0.3-0.5,0.4-0.8c0,0,0-0.1,0-0.1l0,0
			c0.2-0.5,0.4-1,0.6-1.5c0.2-0.5,0.3-1,0.4-1.5c0-0.3,0.1-0.5,0.1-0.8c0-0.3,0.1-0.5,0.1-0.8c0-0.5,0-1,0-1.5c0-0.5-0.1-1-0.2-1.5
			c-0.2-1-0.4-2-0.8-3c-0.2-0.5-0.4-1-0.6-1.5c-0.1-0.2-0.2-0.5-0.3-0.7c-1.6-3.2-3.9-6.1-6.4-8.4c-0.4-0.4-0.8-0.7-1.2-1
			c0,0-0.7-0.6-1.8-1.8c-0.3-0.3-0.7-0.7-1.1-1.1c-0.8-0.8-1.8-1.7-2.9-2.8c-0.5-0.5-1.1-1.1-1.7-1.7c-0.6-0.6-1.2-1.2-1.9-1.8
			c-2-1.9-4.2-4.1-6.5-6.3c-0.8-0.8-1.6-1.5-2.4-2.3c-1.6-1.6-3.3-3.2-5-4.8c-0.4-0.4-0.8-0.8-1.3-1.2c-0.8-0.8-1.7-1.6-2.5-2.5
			c-0.8-0.8-1.7-1.6-2.5-2.5c-1.3-1.2-2.5-2.4-3.8-3.7c-2.9-2.8-5.7-5.5-8.3-8c-0.4-0.4-0.7-0.7-1.1-1c-0.7-0.7-1.4-1.4-2.1-2
			c-1-1-1.9-1.9-2.8-2.7c-4.1-3.9-6.7-6.5-6.7-6.5c-0.5-0.4-0.9-0.9-1.4-1.3c-0.1-0.1-0.3-0.3-0.4-0.4c-0.3-0.3-0.6-0.6-0.9-0.9
			c-0.2-0.2-0.3-0.3-0.5-0.5c-0.3-0.3-0.5-0.5-0.8-0.8c-0.2-0.2-0.4-0.3-0.5-0.5c-0.3-0.2-0.5-0.5-0.8-0.7c-0.2-0.2-0.4-0.3-0.5-0.5
			c-0.3-0.2-0.5-0.4-0.8-0.7c-0.2-0.1-0.3-0.3-0.5-0.4c-0.3-0.2-0.6-0.4-0.9-0.7c-0.1-0.1-0.3-0.2-0.4-0.3c-0.4-0.3-0.9-0.6-1.3-0.9
			c-0.1-0.1-0.2-0.1-0.3-0.2c-0.3-0.2-0.7-0.4-1.1-0.6c-0.2-0.1-0.3-0.2-0.5-0.3c-0.3-0.2-0.6-0.3-0.9-0.4c-0.2-0.1-0.4-0.2-0.6-0.3
			c-0.3-0.1-0.5-0.2-0.8-0.4c-0.2-0.1-0.4-0.1-0.6-0.2c-0.3-0.1-0.6-0.2-0.9-0.3c-0.2-0.1-0.4-0.1-0.6-0.2c-0.3-0.1-0.6-0.1-0.9-0.2
			c-0.2,0-0.4-0.1-0.6-0.1c-0.4-0.1-0.7-0.1-1.1-0.2c-0.1,0-0.3,0-0.4-0.1c-0.5,0-1.1-0.1-1.6-0.1c-0.4,0-0.8,0-1.2,0.1
			c-0.2,0-0.4,0-0.6,0c-0.6,0.1-1.2,0.1-1.9,0.2c0,0,0,0,0,0c-2.3,0.1-4.3,0.5-6.2,1.3c-3.2,1.3-5.8,3.4-7.7,6
			c-0.6,0.8-1,1.6-1.5,2.4c-0.2,0.4-0.4,0.8-0.6,1.3c-0.4,0.9-0.7,1.8-1,2.7c-0.1,0.5-0.3,0.9-0.4,1.4c-0.2,1-0.4,1.9-0.6,2.9
			c-0.1,0.5-0.1,1-0.2,1.5c-0.1,1-0.1,2-0.1,3c0,0,0,0,0,0.1c0,1,0.1,2,0.2,3c0.1,0.5,0.1,1,0.2,1.5c0.6,3.5,1.7,7,3.4,10
			c1.2,1.9,3.8,4.3,7.2,6.9c0.4,0.3,0.9,0.7,1.3,1c1.8,1.4,3.7,2.8,5.8,4.2c4.6,3.2,9.6,6.4,14,9.4
			C133.9,269.2,134.8,269.9,135.7,270.5z"/>
		<path class="st0" d="M131.4,197.1c0.4,0.5,0.7,1.1,1.1,1.6c0.4,0.5,0.8,1.1,1.2,1.6c1.2,1.6,2.5,3.1,3.9,4.6
			c0.5,0.5,0.9,1,1.4,1.5c1.6,1.7,3.3,3.3,5,4.7c0.5,0.4,1,0.8,1.4,1.2c1.2,1,2.4,2,3.5,2.9c10.5,9.1,20.3,18.8,29.7,28.1l0,0
			l34.7,34.3c0.2,0.2,2.1,1.1,2.7,1.3c0.3,0,0.6,0.1,1,0.1c0.1,0,0.2,0,0.3,0c0.3,0,0.5,0,0.8,0c0.1,0,0.2,0,0.3,0
			c0.1,0,0.2,0,0.3,0c0.2,0,0.3,0,0.5,0c0.1,0,0.2,0,0.3,0c0.2,0,0.3,0,0.5,0c0.1,0,0.2,0,0.4,0c0.2,0,0.3,0,0.5,0
			c0.1,0,0.2,0,0.4,0c0.2,0,0.3,0,0.5-0.1c0.1,0,0.2,0,0.4-0.1c0.2,0,0.3-0.1,0.5-0.1c0.1,0,0.2,0,0.3-0.1c0.2,0,0.4-0.1,0.5-0.1
			c0.1,0,0.2,0,0.3-0.1c0.2,0,0.4-0.1,0.6-0.1c0.1,0,0.1,0,0.2-0.1c0.3-0.1,0.6-0.1,0.8-0.2c0,0,0.1,0,0.1,0
			c0.2-0.1,0.5-0.1,0.7-0.2c0.1,0,0.2-0.1,0.3-0.1c0.2-0.1,0.4-0.1,0.5-0.2c0.1,0,0.2-0.1,0.3-0.1c0.2-0.1,0.3-0.1,0.5-0.2
			c0.1,0,0.2-0.1,0.3-0.1c0.2-0.1,0.3-0.1,0.5-0.2c0.1,0,0.2-0.1,0.3-0.2c0.1-0.1,0.3-0.1,0.4-0.2c0.1-0.1,0.2-0.1,0.3-0.2
			c0.1-0.1,0.3-0.2,0.4-0.2c0.1-0.1,0.2-0.1,0.3-0.2c0.1-0.1,0.3-0.2,0.4-0.3c0.1-0.1,0.2-0.1,0.3-0.2c0.1-0.1,0.3-0.2,0.4-0.3
			c0.1-0.1,0.2-0.1,0.3-0.2c0.1-0.1,0.3-0.2,0.4-0.3c0.1-0.1,0.1-0.1,0.2-0.2c0.2-0.1,0.3-0.3,0.5-0.4c0,0,0.1-0.1,0.1-0.1
			c0,0,0,0,0,0c0.2-0.2,0.4-0.3,0.5-0.5c0.1,0,0.1-0.1,0.1-0.2c0.1-0.1,0.3-0.3,0.4-0.4c0.1-0.1,0.1-0.1,0.2-0.2
			c0.1-0.1,0.2-0.2,0.3-0.4c0.1-0.1,0.1-0.2,0.2-0.2c0.1-0.1,0.2-0.2,0.3-0.4c0.1-0.1,0.1-0.2,0.2-0.3c0.1-0.1,0.2-0.2,0.2-0.4
			c0.1-0.1,0.1-0.2,0.2-0.3c0.1-0.1,0.1-0.3,0.2-0.4c0-0.1,0.1-0.2,0.1-0.3c0.1-0.1,0.1-0.3,0.2-0.4c0-0.1,0.1-0.2,0.1-0.3
			c0-0.1,0.1-0.3,0.1-0.4c0-0.1,0.1-0.2,0.1-0.3c0-0.1,0.1-0.3,0.1-0.5c0-0.1,0-0.2,0.1-0.3c0-0.2,0.1-0.3,0.1-0.5
			c0-0.1,0-0.2,0-0.3c0-0.3,0-0.5,0-0.8c0-0.8-0.2-1.8-0.5-2.9c-0.2-0.8-0.5-1.7-0.8-2.6c-0.3-0.9-0.7-1.7-1-2.6
			c-0.1-0.3-0.2-0.5-0.4-0.8c-0.4-0.8-0.8-1.5-1.1-2.2c-0.3-0.4-0.5-0.8-0.7-1.1c-6.2-8.3-12.2-16-18.2-23.6l-12-14.2
			c-8.5-10-17.2-20.4-26.6-30.1c-4.5-4.1-12.4-12.3-17.5-22.2c-0.1-0.1-0.3-0.2-0.4-0.2c-0.4-0.2-0.7-0.4-1.1-0.6
			c-0.2-0.1-0.3-0.2-0.5-0.3c-0.2-0.1-0.5-0.2-0.7-0.3c-0.2-0.1-0.4-0.2-0.5-0.2c-0.2-0.1-0.4-0.2-0.7-0.3c-0.2-0.1-0.4-0.1-0.5-0.2
			c-0.2-0.1-0.5-0.2-0.7-0.3c-0.2-0.1-0.3-0.1-0.5-0.2c-0.2-0.1-0.5-0.2-0.7-0.2c-0.2,0-0.3-0.1-0.5-0.1c-0.3-0.1-0.7-0.2-1-0.3
			c-0.1,0-0.2,0-0.3-0.1c-0.4-0.1-0.7-0.2-1.1-0.2c-0.1,0-0.3,0-0.4-0.1c-0.3,0-0.5-0.1-0.8-0.1c-0.2,0-0.3,0-0.5,0
			c-0.2,0-0.5,0-0.7,0c-0.2,0-0.3,0-0.5,0c-0.2,0-0.4,0-0.6,0c-0.3,0-0.6,0-0.9,0c-0.2,0-0.4,0-0.5,0c-0.3,0-0.6,0.1-0.9,0.1
			c-0.2,0-0.3,0-0.5,0.1c-0.4,0.1-0.9,0.2-1.3,0.3c0,0-0.1,0-0.1,0c-0.4,0.1-0.9,0.3-1.3,0.4c-0.2,0.1-0.3,0.1-0.5,0.2
			c-0.3,0.1-0.6,0.3-0.9,0.4c-0.2,0.1-0.3,0.2-0.5,0.3c-0.3,0.2-0.6,0.3-0.9,0.5c-0.2,0.1-0.3,0.2-0.5,0.3c-0.3,0.2-0.6,0.4-0.9,0.6
			c-0.1,0.1-0.3,0.2-0.4,0.3c-0.4,0.3-0.9,0.7-1.3,1.1c-0.9,0.8-1.7,1.6-2.4,2.4c-0.7,0.8-1.3,1.6-1.9,2.4c-0.7,1.1-1.4,2.2-1.8,3.3
			c-0.2,0.6-0.5,1.1-0.6,1.7c-0.3,0.8-0.5,1.7-0.6,2.6c-0.2,0.9-0.2,1.7-0.3,2.6c0,0.6,0,1.2,0,1.7c0,0.6,0.1,1.2,0.2,1.7
			c0.1,0.9,0.3,1.7,0.5,2.6c0.1,0.6,0.3,1.2,0.5,1.7c0.1,0.3,0.2,0.6,0.3,0.9c0.2,0.6,0.4,1.1,0.7,1.7c0.5,1.1,1,2.3,1.6,3.4
			c0.2,0.3,0.3,0.6,0.5,0.8C130.4,195.4,130.9,196.2,131.4,197.1C131.4,197,131.4,197.1,131.4,197.1z"/>
		<path class="st0" d="M280.1,178.2c-1.2-3.6-2.5-7.2-3.9-10.7c-2.1-5.3-4.4-10.5-6.9-15.5c-1.5-2.7-3.8-7.8-6.3-13.7
			c-0.2-0.4-0.4-0.8-0.5-1.2c-1.4-3.1-2.8-6.4-4.3-9.6c-0.5-1.1-1.1-2.3-1.6-3.4c-0.3-0.6-0.5-1.1-0.8-1.7c-0.5-1.1-1.1-2.2-1.6-3.2
			c-0.8-1.5-1.6-3-2.3-4.4c-0.5-0.9-1-1.7-1.5-2.5c-0.5-0.8-1-1.5-1.4-2.1c-0.7-0.9-1.3-1.7-2-2.3c-0.4-0.3-0.7-0.6-1.1-0.9
			c-0.1-0.1-0.2-0.2-0.4-0.3c-0.3-0.2-0.5-0.4-0.8-0.5c-0.1-0.1-0.3-0.2-0.4-0.3c-0.3-0.2-0.5-0.3-0.8-0.5c-0.2-0.1-0.3-0.2-0.5-0.3
			c-0.3-0.2-0.5-0.3-0.8-0.4c-0.1-0.1-0.3-0.2-0.4-0.2c-0.3-0.2-0.7-0.3-1-0.5c-0.1,0-0.2-0.1-0.3-0.1c-0.4-0.2-0.9-0.4-1.3-0.6
			c-0.1,0-0.2-0.1-0.3-0.1c-0.4-0.1-0.7-0.3-1.1-0.4c-0.1-0.1-0.3-0.1-0.4-0.1c-0.3-0.1-0.6-0.2-0.9-0.3c-0.2,0-0.3-0.1-0.5-0.1
			c-0.3-0.1-0.6-0.2-0.9-0.2c-0.2,0-0.3-0.1-0.5-0.1c-0.3-0.1-0.7-0.1-1-0.2c-0.1,0-0.3-0.1-0.4-0.1c-0.9-0.2-1.9-0.3-2.8-0.4
			c-0.1,0-0.3,0-0.4,0c-0.3,0-0.6,0-1-0.1c-0.2,0-0.3,0-0.5,0c-0.3,0-0.5,0-0.8,0c-0.3,0-0.7,0-1,0c-0.2,0-0.4,0-0.6,0
			c-0.4,0-0.7,0.1-1.1,0.1c-0.2,0-0.3,0-0.5,0.1c-1.1,0.1-2.1,0.3-3.1,0.6c-0.1,0-0.3,0.1-0.4,0.1c-0.4,0.1-0.7,0.2-1.1,0.3
			c-0.2,0.1-0.3,0.1-0.5,0.2c-0.3,0.1-0.6,0.2-0.9,0.4c-0.2,0.1-0.4,0.2-0.5,0.2c-0.3,0.1-0.6,0.3-0.9,0.4c-0.2,0.1-0.3,0.2-0.5,0.3
			c-0.3,0.2-0.6,0.3-0.9,0.5c-0.1,0.1-0.3,0.2-0.4,0.3c-0.3,0.2-0.6,0.5-1,0.7c-0.1,0.1-0.2,0.1-0.3,0.2c-0.4,0.3-0.8,0.7-1.1,1
			c-0.1,0.1-0.1,0.2-0.2,0.2c-0.3,0.3-0.6,0.6-0.8,0.9c-0.1,0.1-0.2,0.3-0.3,0.4c-0.2,0.3-0.4,0.5-0.6,0.8c-0.1,0.2-0.2,0.3-0.3,0.5
			c-0.2,0.3-0.4,0.6-0.5,0.9c-0.1,0.2-0.2,0.4-0.3,0.6c-0.2,0.3-0.3,0.6-0.4,0.9c-0.1,0.2-0.2,0.4-0.3,0.6c-0.1,0.4-0.3,0.7-0.4,1.1
			c-0.1,0.2-0.1,0.4-0.2,0.5c-0.2,0.6-0.3,1.1-0.5,1.7c-3.2,9,0.2,15.3,5.5,23.1c3.8,4.9,7.2,10.1,10.2,15c1,1.5,2.1,3.1,3.2,4.7
			c0.6,0.9,1.2,1.8,1.8,2.7c0.6,0.9,1.3,1.8,1.9,2.8c0.6,0.9,1.3,1.9,2,2.9c1,1.4,2,2.9,3,4.4c1.3,1.9,2.7,3.9,4,5.8
			c0.3,0.5,0.7,1,1,1.4c1.3,1.9,2.6,3.8,3.9,5.6c0.3,0.5,0.6,0.9,0.9,1.4c0.6,0.9,1.2,1.8,1.8,2.6c0.7,1,1.3,1.9,1.9,2.8
			c2.8-5.6,7-10.5,12.4-14l2-1.3l2,1.1c5.7,3.2,11.4,6.3,17,9.4c-0.3-1-0.6-2-0.9-3C281.3,181.8,280.7,179.9,280.1,178.2z"/>
		<path class="st0" d="M232.4,183.9c-1.3-2-2.6-4-3.9-6.1c0,0-0.1-0.1-0.1-0.1c0,0,0,0-0.1-0.1c0,0-0.1-0.1-0.1-0.1
			c0,0-0.1-0.1-0.1-0.1c0-0.1-0.1-0.1-0.1-0.2c0,0-0.1-0.1-0.1-0.1c0-0.1-0.1-0.2-0.1-0.2c0-0.1-0.1-0.1-0.1-0.2
			c-0.1-0.1-0.1-0.2-0.2-0.3c0-0.1-0.1-0.1-0.1-0.2c-0.1-0.1-0.2-0.3-0.3-0.4c0,0,0-0.1-0.1-0.1c-0.2-0.4-0.5-0.8-0.7-1.3
			c0,0,0,0,0,0c-1.2-2.1-2.7-5-4.6-8.3c0,0,0-0.1,0-0.1c-0.2-0.3-0.4-0.7-0.6-1c0,0,0,0,0-0.1c-1-1.7-2.1-3.6-3.2-5.5c0,0,0,0,0-0.1
			c-0.2-0.3-0.4-0.7-0.6-1c0-0.1-0.1-0.1-0.1-0.2c-0.2-0.3-0.4-0.7-0.6-1c0-0.1-0.1-0.1-0.1-0.2c-0.2-0.3-0.4-0.7-0.6-1
			c0-0.1-0.1-0.1-0.1-0.2c-1-1.5-2-3.1-3-4.6c0,0,0,0,0-0.1c-0.2-0.3-0.5-0.7-0.7-1c-0.1-0.1-0.1-0.2-0.2-0.3
			c-0.2-0.3-0.4-0.6-0.7-0.9c-0.1-0.1-0.1-0.2-0.2-0.3c-0.2-0.3-0.4-0.6-0.7-0.9c-0.1-0.1-0.1-0.2-0.2-0.3c-0.2-0.3-0.5-0.6-0.7-0.9
			c-0.1-0.1-0.1-0.2-0.2-0.2c-1.1-1.4-2.2-2.8-3.3-4.2c-0.1-0.1-0.2-0.2-0.2-0.3c-0.2-0.3-0.5-0.5-0.7-0.8c-0.1-0.1-0.2-0.2-0.3-0.4
			c-0.2-0.3-0.4-0.5-0.7-0.8c-0.1-0.1-0.2-0.3-0.3-0.4c-0.2-0.2-0.4-0.5-0.7-0.7c-0.1-0.1-0.2-0.2-0.3-0.4c-0.2-0.2-0.5-0.5-0.7-0.7
			c-0.1-0.1-0.2-0.2-0.3-0.3c-0.8-0.8-1.6-1.6-2.4-2.4c-0.1-0.1-0.2-0.2-0.3-0.3c-0.2-0.2-0.4-0.4-0.7-0.6c-0.1-0.1-0.3-0.3-0.4-0.4
			c-0.2-0.2-0.4-0.4-0.6-0.5c-0.2-0.1-0.3-0.3-0.5-0.4c-0.2-0.2-0.4-0.3-0.6-0.5c-0.2-0.1-0.3-0.3-0.5-0.4c-0.2-0.2-0.4-0.3-0.6-0.5
			c-0.2-0.1-0.3-0.2-0.5-0.4c-0.2-0.1-0.4-0.3-0.6-0.4c-0.2-0.1-0.4-0.2-0.5-0.4c-0.3-0.2-0.7-0.5-1-0.7c-0.2-0.1-0.4-0.3-0.6-0.4
			c-0.2-0.1-0.4-0.2-0.6-0.3c-0.2-0.1-0.4-0.2-0.6-0.3c-0.2-0.1-0.4-0.2-0.6-0.3c-0.2-0.1-0.4-0.2-0.6-0.3c-0.2-0.1-0.4-0.2-0.6-0.3
			c-0.2-0.1-0.4-0.2-0.6-0.3c-0.2-0.1-0.4-0.2-0.6-0.2c-0.2-0.1-0.4-0.2-0.6-0.2c-0.2-0.1-0.4-0.1-0.5-0.2c-0.2-0.1-0.5-0.1-0.7-0.2
			c-0.2,0-0.3-0.1-0.5-0.1c-0.4-0.1-0.8-0.2-1.2-0.3c-0.1,0-0.2,0-0.3,0c-0.3-0.1-0.6-0.1-0.9-0.1c-0.1,0-0.3,0-0.4,0
			c-0.3,0-0.5,0-0.8-0.1c-0.2,0-0.3,0-0.5,0c-0.2,0-0.5,0-0.7,0c-0.2,0-0.5,0-0.7,0c-0.2,0-0.4,0-0.6,0c-0.2,0-0.5,0.1-0.7,0.1
			c-0.2,0-0.4,0.1-0.6,0.1c-0.2,0-0.5,0.1-0.7,0.1c-0.2,0-0.4,0.1-0.6,0.1c-0.2,0.1-0.5,0.1-0.7,0.2c-0.2,0.1-0.4,0.1-0.6,0.2
			c-0.2,0.1-0.5,0.2-0.7,0.3c-0.2,0.1-0.4,0.2-0.6,0.2c-0.3,0.1-0.5,0.2-0.8,0.4c-0.2,0.1-0.4,0.2-0.6,0.3c-0.3,0.2-0.6,0.3-0.8,0.5
			c-0.2,0.1-0.3,0.2-0.5,0.3c-0.4,0.3-0.9,0.6-1.3,0.9c-6.6,4.9-9.1,10.7-9.1,16.8c0,0.6,0,1.2,0.1,1.7c0.5,6.1,3.4,12.4,7.3,18.2
			c3.7,5.5,8.4,10.6,12.7,14.5c1.2,1.2,2.4,2.5,3.6,3.8c1.2,1.3,2.4,2.5,3.5,3.8c2.3,2.5,4.6,5.1,6.9,7.7
			c4.5,5.1,8.9,10.3,13.2,15.4l0,0l12.1,14.3l19.4,23c0.2,0.2,2,1.3,2.5,1.5c0.3,0.1,0.6,0.1,0.9,0.2c0.1,0,0.2,0,0.3,0
			c0.2,0,0.5,0.1,0.7,0.1c0.1,0,0.2,0,0.3,0c0.3,0,0.5,0,0.8,0.1c0.1,0,0.1,0,0.2,0c0.3,0,0.7,0,1,0c0.1,0,0.1,0,0.2,0
			c0.4,0,0.8,0,1.2,0c0,0,0.1,0,0.1,0c0,0,0,0,0,0c0.4,0,0.9-0.1,1.3-0.1c0.1,0,0.2,0,0.3,0c0.4-0.1,0.9-0.1,1.3-0.2
			c0.1,0,0.1,0,0.2,0c0.4-0.1,0.8-0.2,1.2-0.2c0,0,0.1,0,0.1,0c0.4-0.1,0.9-0.2,1.3-0.3c0.1,0,0.2,0,0.3-0.1
			c0.4-0.1,0.8-0.3,1.2-0.4c0.1,0,0.1-0.1,0.2-0.1c0.4-0.1,0.8-0.3,1.1-0.5c0,0,0.1,0,0.1,0c0.4-0.2,0.8-0.4,1.1-0.6
			c0.1,0,0.2-0.1,0.2-0.1c0.4-0.2,0.7-0.4,1-0.6c0.1,0,0.1-0.1,0.2-0.1c0.3-0.2,0.6-0.5,1-0.7c0,0,0,0,0.1,0
			c0.3-0.3,0.6-0.5,0.9-0.8c0.1-0.1,0.1-0.1,0.2-0.2c0.3-0.3,0.5-0.6,0.8-0.9c0-0.1,0.1-0.1,0.1-0.2c0.2-0.3,0.5-0.6,0.6-1
			c0,0,0,0,0,0c0.2-0.3,0.3-0.6,0.4-0.9c-4.9-4.5-9.2-9.7-12.6-15.9c-4-6.9-5.5-14.8-4.7-22.4c-1.8-2.7-3.5-5.4-5.3-8.2
			C237.6,191.9,235,187.9,232.4,183.9z"/>
	</g>
</g>
</svg>
