<?xml version="1.0" encoding="utf-8"?>
<!-- Generator: Adobe Illustrator 25.4.1, SVG Export Plug-In . SVG Version: 6.00 Build 0)  -->
<svg version="1.1" id="Capa_1" xmlns="http://www.w3.org/2000/svg" xmlns:xlink="http://www.w3.org/1999/xlink" x="0px" y="0px"
	 viewBox="0 0 342.9 342.9" style="enable-background:new 0 0 342.9 342.9;" xml:space="preserve">
<style type="text/css">
	.st0{fill:#BCBEC0;}
</style>
<g>
	<g>
		<g>
			<path class="st0" d="M311.6,72.9c-0.6,0.1-17.4-3.1-31.6,2.9c-4.4,1.9-14.6,11.4-23.3,3.4c-4.9-4.5-6.5-20.6-7.1-22
				c-7.7-16.8-31.2-16.2-33.9-26.6c-2.1-7.9,6-16.3,19.8-10.6c30.4,12.4,34.5,12.8,26.8,6.6c-1.2-1-3.1-2.2-5.3-3.4
				c-0.6-0.4-1.1-0.7-1.6-0.9c-0.5-0.3-1-0.6-1.5-0.8C229.4,7.9,201.4,0,171.4,0C116.1,0,67,26.3,35.7,67c0.1,0,0.2,0,0.4,0l-1,1
				c22-17.7,10.5,1.5,55.2-16c1.6-0.7,14.3-1.8,16.8-1.2c46,12.1,66.9-0.3,68.6-1.5c21.2-14.4,37.6-11,37.7,1.3
				c0.1,7.6,2.2,16.1-7.1,14c-13.3-3.1-21-16.9-22.9-1.8C182,73.9,160.9,75,164.3,82c2.2,4.6,22.3-3.9,31.3-9.2
				c9.1-5.3,16.7,4.7,17.3,6c6.5,14,25.7,19.9,27.7,20.7c15.4,6.1-1,14.4-10,19.2c-0.2,0.1-37.5,41.8-50.9,38.6
				c-1.7-0.4-5.7-7-8-7.6c-42.8-10.7-20.1,49.9-9.1,25.9c4.6-10,3.9,4.9,4,11c0.1,6,9.2,12,9.2,12c0.4,0.7,10.1,1.8,10.9,4.3l3,1.8
				c0,0,5.6-9.4,13.3-8.5c19.2,2.1,49.3,20.9,52.6,22.5c31.1,15.6,20.7,43.5-8.6,58.9c-9.3,4.9-8.6,25.3-19.5,17.7
				c-6.2-4.3-21.9,37.2-22.8,44.2c67.3-13.2,120.5-65.8,134.5-132.8c-0.4-0.5-0.9-1.1-1.3-1.8c0.1-0.3,0.2-0.5,0.3-0.7
				c0.7-1.3,0-4.9-0.3-5.8c-0.3-1-0.7-1.6-0.8-3.1c-0.2-1.5,0.2-2.3,0-4.4c-0.2-2.1,1.3-1.9,1.9-5.7c0.7-3.7-0.5-2.7-1-4.8
				c-0.2-0.8,0.2-1.4,0.8-1.9c0.2-0.2,0.5-0.4,0.8-0.7c0.7-0.5,1.4-1,1.7-1.5c0.6-0.6,0.9-0.9,1.2-1.3c0-1.2,0.2-2.4,0.2-3.7
				C342.9,134.7,331.2,100.8,311.6,72.9L311.6,72.9z"/>
		</g>
	</g>
	<g>
		<g>
			<path class="st0" d="M187.7,215.6c3.6-7.2-7.9-7.1-14.4-12.4c-9.6-7.7-21.6-12.9-23.8-13.8c-4.8-2-22.6-18.5-26.9-23.8
				c-3.6-4.5-1-10.6-7.3-7.9c-0.1,0.1-0.1-0.1-0.2-0.1c-4.1,2.7-10.3,1.1-15.8-20.7c-1-3.9-0.8-4.2,0.5-6
				c6.9-9.3-16.1-38.4-21.1-44.4c-2.5-3-11.2-0.7-14.9-0.1c-1.1-0.6-3.7,0.1-4.7,0.1c-1.1,0,0.1-1.6,0.8-2.9
				c0.6-1.3-0.7-0.7-1.6-0.8c-1-0.1,0.3-1.4,1-2.9c1.2-2.5-9.1,4.6-11.7,5.8c-3.1,1.5-1.8,1.8-2.8,2.9c-1,1.1-1.5,3.6-2.6,4.5
				c-1.1,1,2.3,0.5,3.3,0.7c1.3,0.2,0.5,4.4-2.3,3.9c0,0-4.2,3-9,5.6c-0.8,0.2-0.9-0.3-0.8-0.8c1.3-0.8,2-2.3,3.6-2.7
				c2.1-0.4,1.2-2.6,0-2.9c-0.4-0.1-0.6-0.3-0.7-0.5c0-0.2,0-0.4,0.1-0.5c0.1-0.3,0.3-0.6,0.6-1c0.6-0.9-3.3-1.5-5.4-1.5
				c-2.1,0-1.6-1.3-2.1-3.6c-0.9-4.2,11.4-6.1,6.5-9.2c-0.7-2.7-2.8,1-5.4,0.2c-0.7-0.2-1.9,0.4-2.8,1.1c-0.8,0.6-2,0.6-2.9,0.7
				C9.2,108.6,0,138.9,0,171.4c0,94.7,76.7,171.4,171.4,171.4c7.1,0,14.1-0.6,21-1.4c-0.1-0.6,1.1-17.8,3.1-23.6
				c2.1-6.3,6.3-43.6,4.8-53.1C198.1,250.8,198,257.3,187.7,215.6L187.7,215.6z"/>
		</g>
	</g>
</g>
</svg>
