<?xml version="1.0" encoding="utf-8"?>
<!-- Generator: Adobe Illustrator 25.4.1, SVG Export Plug-In . SVG Version: 6.00 Build 0)  -->
<svg version="1.1" id="Capa_1" xmlns="http://www.w3.org/2000/svg" xmlns:xlink="http://www.w3.org/1999/xlink" x="0px" y="0px"
	 viewBox="0 0 435.6 782" style="enable-background:new 0 0 435.6 782;" xml:space="preserve">
<style type="text/css">
	.st0{fill:#BCBEC0;}
</style>
<g>
	<path class="st0" d="M381.4,266.6c-0.1-6.4,0-12.7,0-18.8l-47.2,50.5c0,0.4,0,0.8,0,1.2c0,26.6-21.6,48.2-48.2,48.2
		c-9.8,0-19-3-26.7-8.1c-0.3,0.5-0.5,0.9-0.9,1.4c-1,1.4-2.5,2.9-4.2,4.4c27.8,11.1,47.1,34.6,47.1,61.6c0,2.5-0.2,5.2-0.6,7.8
		c-0.1,1.1-0.9,1.9-2,2.1c-1,0.2-2.1-0.3-2.6-1.2c-2.2-3.8-15.5-7.9-36-10.3c-7.1,8.7-20.1,20.1-37.8,21.8c-0.2,0-0.3,0-0.5,0
		c-0.6,0-1.1,0.1-1.7,0.1c-0.8,0-1.5,0.1-2.3,0.1s-1.6,0-2.3-0.1c-0.6,0-1.1-0.1-1.7-0.1c-0.2,0-0.3,0-0.5,0
		c-17.7-1.7-30.7-13.1-37.8-21.8c-20.5,2.4-33.8,6.5-36,10.3c-0.5,0.8-1.3,1.2-2.2,1.2c-0.2,0-0.3,0-0.5,0c-1-0.2-1.8-1.1-2-2.1
		c-0.4-2.7-0.6-5.3-0.6-7.8c0-27.1,19.2-50.5,47.1-61.6c-1.8-1.6-3.2-3.1-4.2-4.4c-0.4-0.5-0.6-0.9-0.9-1.4
		c-7.6,5.1-16.8,8.1-26.7,8.1c-26.6,0-48.2-21.6-48.2-48.2c0-0.4,0-0.8,0-1.2l-47.2-50.5c0,6.2,0.1,12.4,0,18.8
		c-11.3-17.1-24.6-30.9-38.7-4.2c-9.5,17.8,2.1,33.1,15.5,50.8c6.3,8.1,12.8,16.4,15.5,24.7c4.7,14.4,19.8,30.2,25.5,17.3
		c0.4-2.6,1.7-6.6,5.2-5.7c32,63.3,93,144.6,140.6,144.6s106.9-79,140.6-144.6c3.6-0.9,4.9,3.2,5.2,5.7c5.8,12.9,20.8-2.9,25.5-17.3
		c2.8-8.3,9.3-16.6,15.5-24.7c13.4-17.7,25-33,15.5-50.8C406,235.6,392.7,249.4,381.4,266.6z M66.6,333.2c-0.1,1.3-1.2,2.3-2.5,2.3
		c-0.1,0-0.2,0-0.2,0c-1.4-0.1-2.4-1.3-2.3-2.7c2.4-25.4-28.5-44.8-28.8-45c-1.2-0.7-1.5-2.3-0.8-3.4c0.7-1.2,2.3-1.5,3.4-0.8
		c0.3,0.2,8.5,5.3,16.5,13.8C62.6,308.9,67.7,321.3,66.6,333.2z M402.8,287.8c-0.3,0.2-31.2,19.5-28.8,45c0.1,1.4-0.9,2.6-2.3,2.7
		c-0.1,0-0.2,0-0.2,0c-1.3,0-2.4-1-2.5-2.3c-1.1-11.9,4-24.3,14.7-35.8c8-8.6,16.2-13.6,16.5-13.8c1.2-0.7,2.7-0.4,3.4,0.8
		C404.4,285.5,404,287,402.8,287.8z"/>
	<path class="st0" d="M56,242.3l46,49.3c3.8-22.8,23.6-40.3,47.5-40.3c24.5,0,44.7,18.3,47.8,42c6.4-6.3,13.3-9.5,20.5-9.5
		s14.1,3.3,20.5,9.5c3-23.7,23.3-42,47.8-42c23.9,0,43.8,17.5,47.5,40.3l46-49.3c0.5-0.5,1.2-0.8,1.8-0.8
		c0.2-46.1-1-87.5-45.5-143.5c-28-29.6-67.6-44.6-117.8-44.7l0,0c-0.1,0-0.2,0-0.3,0s-0.2,0-0.3,0l0,0
		C167.3,53.4,127.7,68.5,99.7,98C55.2,154,54,195.5,54.2,241.5C54.9,241.6,55.5,241.8,56,242.3z M335.1,241.4
		c1.1,0.8,1.3,2.4,0.5,3.5c-0.5,0.7-1.2,1-2,1c-0.5,0-1-0.2-1.5-0.5c-0.1-0.1-12.9-9.5-29.1-14.7c-21.1-6.8-37.6-3.5-49.2,9.7
		c-0.9,1-2.5,1.1-3.5,0.2s-1.1-2.5-0.2-3.5c12.9-14.7,31.8-18.5,54.6-11.1C321.6,231.5,334.6,241,335.1,241.4z M166,151.4
		c1.2-0.7,2.7-0.2,3.4,1c6.3,11.2,24.4,18,48.4,18c24.1,0,42.2-6.7,48.4-18c0.7-1.2,2.2-1.6,3.4-1c1.2,0.7,1.6,2.2,1,3.4
		c-7.2,12.8-26.9,20.5-52.8,20.5s-45.6-7.7-52.8-20.5C164.3,153.6,164.8,152.1,166,151.4z M104.8,201.8c1.3-0.9,32.7-22.8,55.1-19
		c10.1,1.7,20.6,8.9,30.7,15.9c10.1,7,19.7,13.6,27.3,13.6s17.2-6.6,27.3-13.6s20.6-14.2,30.7-15.9c22.3-3.8,53.7,18.1,55.1,19
		c1.1,0.8,1.4,2.4,0.6,3.5s-2.4,1.4-3.5,0.6c-0.3-0.2-31-21.6-51.3-18.2c-9,1.5-19,8.4-28.7,15.1c-10.8,7.5-21,14.5-30.2,14.5
		s-19.4-7.1-30.2-14.5c-9.7-6.7-19.6-13.6-28.7-15.1c-20.3-3.4-51,18-51.3,18.2c-1.1,0.8-2.7,0.5-3.5-0.6
		C103.4,204.1,103.6,202.6,104.8,201.8z M100.5,241.4c0.5-0.4,13.5-9.9,30.4-15.4c22.9-7.4,41.8-3.5,54.6,11.1
		c0.9,1,0.8,2.6-0.2,3.5s-2.6,0.8-3.5-0.2c-11.6-13.2-28.1-16.5-49.2-9.7c-16.1,5.2-29,14.6-29.1,14.7c-0.4,0.3-1,0.5-1.5,0.5
		c-0.8,0-1.5-0.4-2-1C99.1,243.8,99.4,242.2,100.5,241.4z"/>
	<path class="st0" d="M254,404.8c-10.6-1-22.8-1.6-36.2-1.6s-25.6,0.6-36.2,1.6c7.4,8.1,20,17.7,36.2,17.7
		C234,422.4,246.6,412.9,254,404.8z"/>
	<path class="st0" d="M249.7,349c-9.7,7-23.9,13.9-31.9,13.9l0,0c-8,0-22.2-6.9-31.9-13.9c-27.4,9.9-46.6,32.2-46.6,58
		c0,0.8,0,1.6,0.1,2.4c12.7-7.7,47.6-11.3,78.5-11.3s65.8,3.6,78.5,11.3c0-0.8,0.1-1.6,0.1-2.4C296.3,381.2,277.1,358.9,249.7,349z"
		/>
	<path class="st0" d="M180.3,336.5c0.2,0.5,0.7,1.4,2,2.8c7.5,8.1,27.4,18.5,35.5,18.5l0,0c8.1,0,28.1-10.4,35.6-18.5
		c1.3-1.4,1.8-2.4,2-2.9c-10.5-8.7-17.2-21.8-17.4-36.4c-5.5-6.6-12.2-11.4-20.1-11.4c-8,0-14.7,4.8-20.1,11.4
		C197.5,314.8,190.7,327.8,180.3,336.5z"/>
	<circle class="st0" cx="149.5" cy="299.5" r="43.2"/>
	<path d="M101.4,299.5c0,26.6,21.6,48.2,48.2,48.2c9.8,0,19-3,26.7-8.1c0.3,0.5,0.5,0.9,0.9,1.4c1,1.4,2.5,2.9,4.2,4.4
		c-27.8,11.1-47.1,34.6-47.1,61.6c0,2.5,0.2,5.2,0.6,7.8c0.1,1.1,0.9,1.9,2,2.1c0.2,0,0.3,0,0.5,0c0.9,0,1.7-0.5,2.2-1.2
		c2.2-3.8,15.5-7.9,36-10.3c7.1,8.7,20.1,20.1,37.8,21.8c0.2,0,0.3,0,0.5,0c0.6,0,1.1,0.1,1.7,0.1c0.8,0,1.5,0.1,2.3,0.1
		s1.6,0,2.3-0.1c0.6,0,1.1-0.1,1.7-0.1c0.2,0,0.3,0,0.5,0c17.7-1.7,30.7-13.1,37.8-21.8c20.5,2.4,33.8,6.5,36,10.3
		c0.5,0.9,1.6,1.4,2.6,1.2s1.8-1.1,2-2.1c0.4-2.7,0.6-5.3,0.6-7.8c0-27.1-19.2-50.5-47.1-61.6c1.8-1.6,3.2-3.1,4.2-4.4
		c0.4-0.5,0.6-0.9,0.9-1.4c7.6,5.1,16.8,8.1,26.7,8.1c26.6,0,48.2-21.6,48.2-48.2c0-0.4,0-0.8,0-1.2l47.2-50.5l1.8-2
		c0.9-1,0.9-2.6-0.1-3.5c-0.5-0.4-1.1-0.7-1.7-0.7c-0.7,0-1.3,0.3-1.8,0.8l-46,49.3c-3.8-22.8-23.6-40.3-47.5-40.3
		c-24.5,0-44.7,18.3-47.8,42c-6.4-6.3-13.3-9.5-20.5-9.5s-14.1,3.3-20.5,9.5c-3-23.7-23.3-42-47.8-42c-23.9,0-43.8,17.5-47.5,40.3
		l-46-49.3c-0.5-0.5-1.2-0.8-1.8-0.8s-1.2,0.2-1.7,0.7c-1,0.9-1.1,2.5-0.1,3.5l1.8,2l47.2,50.5C101.4,298.7,101.4,299.1,101.4,299.5
		z M192.7,299.5c0,23.8-19.4,43.2-43.2,43.2s-43.2-19.4-43.2-43.2s19.4-43.2,43.2-43.2S192.7,275.7,192.7,299.5z M217.8,288.8
		c8,0,14.7,4.8,20.1,11.4c0.2,14.6,6.9,27.7,17.4,36.4c-0.2,0.5-0.7,1.4-2,2.9c-7.5,8.1-27.4,18.5-35.6,18.5l0,0
		c-8.1,0-28-10.4-35.5-18.5c-1.3-1.4-1.8-2.4-2-2.8c10.5-8.7,17.2-21.8,17.4-36.4C203.1,293.6,209.8,288.8,217.8,288.8z
		 M286.1,256.3c23.8,0,43.2,19.4,43.2,43.2s-19.4,43.2-43.2,43.2s-43.2-19.4-43.2-43.2C242.9,275.7,262.3,256.3,286.1,256.3z
		 M296.3,409.4c-12.7-7.7-47.6-11.3-78.5-11.3s-65.8,3.6-78.5,11.3c0-0.8-0.1-1.6-0.1-2.4c0-25.8,19.2-48.1,46.6-58
		c9.7,7,23.9,13.9,31.9,13.9l0,0c8,0,22.2-6.9,31.9-13.9c27.4,9.9,46.6,32.2,46.6,58C296.3,407.8,296.3,408.6,296.3,409.4z
		 M217.8,422.4c-16.2,0-28.8-9.6-36.2-17.7c10.6-1,22.8-1.6,36.2-1.6s25.6,0.6,36.2,1.6C246.6,412.9,234,422.4,217.8,422.4z"/>
	<circle class="st0" cx="286.1" cy="299.5" r="43.2"/>
	<path d="M35.4,283.5c-1.2-0.7-2.7-0.4-3.4,0.8s-0.4,2.7,0.8,3.4c0.3,0.2,31.2,19.5,28.8,45c-0.1,1.4,0.9,2.6,2.3,2.7
		c0.1,0,0.2,0,0.2,0c1.3,0,2.4-1,2.5-2.3c1.1-11.9-4-24.3-14.7-35.8C43.9,288.8,35.7,283.7,35.4,283.5z"/>
	<path d="M400.2,283.5c-0.3,0.2-8.5,5.3-16.5,13.8c-10.7,11.5-15.8,23.9-14.7,35.8c0.1,1.3,1.2,2.3,2.5,2.3c0.1,0,0.2,0,0.2,0
		c1.4-0.1,2.4-1.3,2.3-2.7c-2.4-25.4,28.5-44.8,28.8-45c1.2-0.7,1.5-2.3,0.8-3.4C402.9,283.1,401.4,282.8,400.2,283.5z"/>
	<path d="M217.8,175.3c25.9,0,45.6-7.7,52.8-20.5c0.7-1.2,0.2-2.7-1-3.4c-1.2-0.7-2.7-0.2-3.4,1c-6.3,11.2-24.4,18-48.4,18
		s-42.1-6.7-48.4-18c-0.7-1.2-2.2-1.6-3.4-1c-1.2,0.7-1.6,2.2-1,3.4C172.2,167.7,191.9,175.3,217.8,175.3z"/>
	<path d="M102,245.9c0.5,0,1-0.2,1.5-0.5c0.1-0.1,12.9-9.5,29.1-14.7c21.1-6.8,37.6-3.5,49.2,9.7c0.9,1,2.5,1.1,3.5,0.2
		s1.1-2.5,0.2-3.5c-12.9-14.7-31.8-18.5-54.6-11.1c-16.9,5.4-29.9,15-30.4,15.4c-1.1,0.8-1.3,2.4-0.5,3.5
		C100.5,245.5,101.2,245.9,102,245.9z"/>
	<path d="M250.1,237.1c-0.9,1-0.8,2.6,0.2,3.5s2.6,0.8,3.5-0.2c11.6-13.2,28.1-16.5,49.2-9.7c16.1,5.2,29,14.6,29.1,14.7
		c0.4,0.3,1,0.5,1.5,0.5c0.8,0,1.5-0.4,2-1c0.8-1.1,0.6-2.7-0.5-3.5c-0.5-0.4-13.5-9.9-30.4-15.4
		C281.8,218.6,262.9,222.5,250.1,237.1z"/>
	<path d="M107.6,205.9c0.3-0.2,31-21.6,51.3-18.2c9,1.5,19,8.4,28.7,15.1c10.8,7.5,21,14.5,30.2,14.5s19.4-7.1,30.2-14.5
		c9.7-6.7,19.6-13.6,28.7-15.1c20.3-3.4,51,18,51.3,18.2c1.1,0.8,2.7,0.5,3.5-0.6s0.5-2.7-0.6-3.5c-1.3-0.9-32.7-22.8-55.1-19
		c-10.1,1.7-20.6,8.9-30.7,15.9c-10.1,7-19.7,13.6-27.3,13.6s-17.2-6.6-27.3-13.6s-20.6-14.2-30.7-15.9c-22.3-3.8-53.7,18.1-55.1,19
		c-1.1,0.8-1.4,2.4-0.6,3.5C104.9,206.4,106.5,206.7,107.6,205.9z"/>
</g>
<g>
	<path class="st0" d="M414.1,637.8c-1.5-27.5-16.2-52.7-39.3-67.6c-23.6-15.2-53.2-17.9-79.2-7.3c-25.3,10.3-44.2,32.1-50.9,58.5
		c-8.1-5.2-17.3-8-27-8s-18.9,2.8-27,8c-4.9-19.2-16.2-36.2-32.2-48c-16.6-12.3-37-18.2-57.6-16.7c-20.4,1.5-39.8,10.3-54.4,25
		c-15.1,15-24.1,34.9-25.2,56.2H12v12.8h9.5c2,21.1,11.7,40.6,27.3,55.1c16,14.7,36.7,22.9,58.5,22.9c23,0,44.6-9,60.8-25.2
		s25.2-37.9,25.2-60.8c0-2.3,0-4.5-0.3-6.9c6.7-6.1,15.5-9.4,24.6-9.4c9.2,0,17.8,3.4,24.6,9.4c-2.3,30.4,11.8,59.9,36.9,77.2
		c25.2,17.5,58.1,20.3,85.9,7.2c27.3-12.9,46-39.4,49.1-69.4h9.5v-12.9h-9.5V637.8z M401.4,642.6c0,19.3-7.8,38.2-21.5,51.8l0,0
		c-16,16-39,23.7-61.3,20.7c-22.4-2.9-42.5-16.5-53.9-36.1c-11.3-19.6-12.9-43.8-4.1-64.6c8.7-20.9,26.9-36.9,48.7-42.7
		c6.1-1.6,12.5-2.4,18.7-2.4c16.1,0,31.9,5.2,44.8,15.1C390.8,598.2,401.4,620,401.4,642.6z M159.1,694.3
		c-13.9,13.8-32.2,21.5-51.8,21.5s-37.9-7.7-51.8-21.5C41.6,680.5,34,662.1,34,642.5c0-19.6,7.7-37.9,21.5-51.8
		c13.8-13.8,32.3-21.5,51.8-21.5c19.6,0,37.9,7.7,51.8,21.5c13.7,13.6,21.5,32.5,21.5,51.8S172.8,680.7,159.1,694.3L159.1,694.3z"/>
</g>
</svg>
