<?xml version="1.0" encoding="utf-8"?>
<!-- Generator: Adobe Illustrator 26.2.1, SVG Export Plug-In . SVG Version: 6.00 Build 0)  -->
<svg version="1.1" id="Capa_1" xmlns="http://www.w3.org/2000/svg" xmlns:xlink="http://www.w3.org/1999/xlink" x="0px" y="0px"
	 viewBox="0 0 435.6 920" style="enable-background:new 0 0 435.6 920;" xml:space="preserve">
<style type="text/css">
	.st0{fill:none;}
	.st1{fill:#BCBEC0;}
</style>
<g>
	<g>
		<path class="st0" d="M77.7,798.3l0.7,0.6c1.1,0.9,1.6,2.2,1.6,3.5c1.3-0.3,2.6,0,3.7,0.9l0.8,0.6c1.1,0.9,1.6,2.2,1.7,3.4
			c1-0.2,2.1-0.1,3,0.4l-0.4-0.4c-0.9-1.1-1.2-2.5-0.9-3.9c-1.3,0-2.6-0.6-3.5-1.8l-0.6-0.8c-0.9-1.2-1.1-2.6-0.7-3.9
			c-1.3-0.1-2.6-0.7-3.4-1.9l-0.6-0.8c-0.8-1.2-1-2.6-0.6-3.9c-1.3-0.1-2.6-0.8-3.4-2l-0.6-0.9c-0.8-1.2-0.9-2.6-0.5-3.9
			c-1.3-0.2-2.6-0.9-3.3-2.1l-0.5-0.9c-0.7-1.2-0.8-2.7-0.4-3.9c-1.3-0.2-2.5-1-3.2-2.2l-0.5-0.9c-0.7-1.2-0.8-2.7-0.3-3.9
			c-1.3-0.2-2.5-1-3.2-2.3l-0.5-0.9c-0.7-1.3-0.7-2.7-0.2-3.9c-1.3-0.2-2.5-1.1-3.1-2.3l-0.5-0.9c-0.7-1.3-0.7-2.7-0.1-3.9
			c-1.3-0.3-2.5-1.1-3.1-2.4l-0.5-0.9c-0.6-1.3-0.6-2.7-0.1-3.9c-1.3-0.3-2.4-1.1-3.1-2.4l-0.4-0.9c-0.6-1.3-0.6-2.7,0-3.9
			c-1.3-0.3-2.4-1.2-3-2.4l-0.4-0.9c-0.6-1.3-0.6-2.7,0-3.9c-1.3-0.3-2.4-1.2-3-2.4l-0.4-0.9c-0.6-1.3-0.6-2.7,0-3.9
			c-1.3-0.3-2.4-1.2-3-2.4l-0.5-0.8c-0.6-1.3-0.6-2.7,0-3.9c-0.6-0.1-1.1-0.4-1.5-0.7c-0.1,0.8-0.4,1.5-0.9,2.1
			c1.2,0.6,2.1,1.7,2.4,3l0.2,0.9c0.3,1.4,0,2.7-0.8,3.8c1.2,0.5,2.1,1.6,2.5,2.9l0.3,1c0.4,1.3,0.1,2.7-0.7,3.8
			c1.2,0.5,2.2,1.5,2.5,2.9l0.3,0.9c0.4,1.3,0.1,2.7-0.6,3.8c1.2,0.5,2.2,1.5,2.6,2.8l0.3,0.9c0.4,1.3,0.2,2.7-0.5,3.8
			c1.2,0.4,2.2,1.4,2.7,2.7l0.3,0.9c0.5,1.3,0.3,2.7-0.4,3.8c1.2,0.4,2.3,1.3,2.8,2.6l0.4,0.9c0.5,1.3,0.4,2.7-0.3,3.8
			c1.2,0.4,2.3,1.3,2.8,2.6l0.4,0.9c0.5,1.3,0.4,2.7-0.2,3.8c1.2,0.3,2.3,1.2,2.9,2.5l0.4,0.9c0.6,1.3,0.5,2.7-0.1,3.8
			c1.2,0.3,2.4,1.1,3,2.4l0.4,0.9c0.4,0.8,0.5,1.7,0.4,2.5c1.2-0.1,2.5,0.2,3.5,1.2l0.7,0.7c1,1,1.5,2.3,1.4,3.6
			c1.3-0.2,2.6,0.2,3.7,1.1l0.7,0.7c1,0.9,1.6,2.2,1.5,3.5C75.2,797.1,76.6,797.4,77.7,798.3z"/>
		<path class="st0" d="M36.6,713.2c0.1,0.1,0.2,0.1,0.3,0.2c0.1-0.4,0.2-0.7,0.3-1l0,0C37.1,712.7,36.9,713,36.6,713.2z"/>
		<path class="st0" d="M69.7,801.6c0,0.1,0,0.2-0.1,0.2c0.2,0,0.5,0.1,0.7,0.2c0-0.2,0-0.3,0-0.5C70.1,801.6,69.9,801.6,69.7,801.6z
			"/>
		<path class="st0" d="M368.3,508.5c-0.1,0-0.1,0-0.2,0c0,0,0,0.1,0.1,0.1v0.1C368.3,508.6,368.3,508.6,368.3,508.5z"/>
		<path class="st0" d="M320.7,853.9l-0.9,0.5c-1.3,0.7-2.7,0.7-3.9,0.1c-0.3,1.3-1.2,2.5-2.5,3.1l-0.9,0.4c-1.3,0.6-2.8,0.5-4-0.1
			c-0.3,1.3-1.3,2.4-2.6,3l-0.9,0.4c-1.3,0.6-2.8,0.4-4-0.2c-0.4,1.3-1.4,2.4-2.7,2.9l-1,0.4c-1.4,0.5-2.8,0.3-3.9-0.4
			c-0.5,1.3-1.5,2.3-2.8,2.7l-1,0.3c-1.4,0.4-2.8,0.2-3.9-0.6c-0.5,1.2-1.6,2.2-3,2.6l-1,0.3c-1.4,0.4-2.8,0-3.9-0.8
			c-0.6,1.2-1.7,2.2-3.1,2.5l-1,0.2c-1.4,0.3-2.8-0.1-3.8-1c-0.6,1.2-1.8,2.1-3.2,2.3l-1,0.2c-1.4,0.2-2.8-0.2-3.8-1.1
			c-0.7,1.1-1.9,2-3.3,2.2l-1,0.1c-0.2,0-0.3,0-0.5,0c-1.3,0-2.5-0.6-3.3-1.5c-0.8,1.5-2.4,2.5-4.2,2.5c-1.4,0-2.6-0.6-3.5-1.5
			c-0.1-0.1-0.2-0.2-0.3-0.3c-0.8,1.1-2.1,1.8-3.5,1.8h-1h-0.1c-1.4,0-2.7-0.6-3.5-1.7c-0.8,1-2.1,1.7-3.5,1.7c0,0,0,0-0.1,0h-1
			c-1.4,0-2.7-0.7-3.5-1.8c-0.9,1-2.2,1.6-3.6,1.5l-1-0.1c-1.4-0.1-2.7-0.9-3.4-2c-0.9,1-2.3,1.5-3.7,1.4l-1-0.1
			c-1.4-0.2-2.6-1-3.3-2.1c-1,0.9-2.3,1.4-3.8,1.2l-1-0.1c-1.4-0.2-2.6-1.1-3.2-2.2c-1,0.9-2.4,1.3-3.8,1l-1-0.2
			c-1.4-0.3-2.5-1.2-3.2-2.4c-1,0.8-2.4,1.2-3.8,0.9l-1-0.2c-1.4-0.3-2.5-1.3-3.1-2.5c-1.1,0.8-2.5,1.1-3.9,0.7l-1-0.3
			c-1.4-0.4-2.4-1.4-3-2.6c-1.1,0.8-2.5,1-3.9,0.6l-1-0.3c-1.4-0.4-2.4-1.5-2.9-2.7c-1.1,0.7-2.6,0.9-3.9,0.5l-1-0.3
			c-1.4-0.5-2.3-1.5-2.8-2.8c-1.1,0.7-2.6,0.9-3.9,0.3l-1-0.4c-1.3-0.5-2.3-1.6-2.7-2.9c-1.2,0.6-2.6,0.8-3.9,0.2l-0.9-0.4
			c-1.3-0.6-2.2-1.7-2.6-3c-1.2,0.6-2.6,0.7-3.9,0.1l-0.9-0.4c-1.3-0.6-2.2-1.7-2.5-3c-1.2,0.6-2.6,0.6-3.9,0l-0.9-0.4
			c-1.3-0.6-2.1-1.8-2.4-3.1c-1.2,0.5-2.7,0.5-3.9-0.1l-0.9-0.5c-1.3-0.7-2.1-1.9-2.3-3.2c-1.2,0.5-2.7,0.5-3.9-0.3l-0.9-0.5
			c-1.2-0.7-2-1.9-2.2-3.2c-1.2,0.5-2.7,0.4-3.9-0.4l-1.1-0.4c-1.2-0.7-2-2-2.1-3.3c-1.3,0.4-2.7,0.3-3.9-0.5l-0.9-0.5
			c-1.2-0.8-1.9-2-2-3.3c-1.3,0.4-2.7,0.2-3.9-0.5l-0.8-0.6c-1.2-0.8-1.9-2.1-2-3.4c-1.3,0.4-2.7,0.2-3.9-0.6l-0.8-0.6
			c-1.2-0.8-1.8-2.1-1.9-3.4c-1.3,0.3-2.7,0.1-3.8-0.7l-0.8-0.6c-1.1-0.9-1.8-2.1-1.8-3.5c-1.3,0.3-2.7,0.1-3.8-0.8l-0.8-0.6
			c-1.1-0.9-1.7-2.2-1.7-3.5c-1.3,0.3-2.7,0-3.8-0.9l-0.8-0.6c-1.1-0.9-1.7-2.2-1.7-3.6c-0.8,0.2-1.7,0.1-2.5-0.2
			c0.1,0.7,0,1.4-0.2,2c1.3,0.2,2.5,0.8,3.2,2l0.5,0.8c0.8,1.2,0.9,2.5,0.5,3.8c1.3,0.1,2.5,0.8,3.3,1.9l0.6,0.8
			c0.8,1.1,1,2.5,0.7,3.8c1.3,0.1,2.5,0.7,3.4,1.8l0.6,0.8c0.8,1.1,1.1,2.5,0.8,3.7c1.3,0,2.6,0.6,3.4,1.7l0.6,0.8
			c0.9,1.1,1.2,2.4,0.9,3.7c1.3,0,2.6,0.5,3.5,1.5l0.6,0.7c0.9,1,1.3,2.4,1.1,3.7c1.3-0.1,2.6,0.4,3.5,1.4l0.7,0.7
			c1,1,1.3,2.3,1.2,3.6c1.3-0.1,2.6,0.3,3.6,1.3l0.7,0.7c1,1,1.4,2.3,1.3,3.6c1.3-0.2,2.6,0.2,3.6,1.1l0.7,0.7
			c1,0.9,1.5,2.2,1.5,3.5c1.3-0.2,2.6,0.1,3.7,1l0.8,0.6c1.1,0.9,1.6,2.2,1.6,3.4c1.3-0.3,2.6,0,3.7,0.8l0.8,0.6
			c1.1,0.8,1.7,2.1,1.8,3.4c1.2-0.3,2.6-0.1,3.7,0.7l0.8,0.6c1.1,0.8,1.8,2,1.9,3.3c1.2-0.4,2.6-0.2,3.8,0.5l0.8,0.5
			c1.2,0.7,1.9,1.9,2.1,3.2c1.2-0.4,2.6-0.4,3.8,0.3l0.8,0.5c1.2,0.7,2,1.8,2.2,3.1c1.2-0.5,2.6-0.5,3.8,0.1l0.9,0.4
			c1.2,0.6,2,1.7,2.3,3c1.2-0.5,2.5-0.6,3.8,0l0.9,0.4c1.3,0.6,2.1,1.6,2.5,2.9c1.1-0.6,2.5-0.7,3.8-0.2l0.9,0.4
			c1.3,0.5,2.2,1.5,2.6,2.7c1.1-0.7,2.4-0.8,3.7-0.4l0.9,0.3c1.3,0.4,2.3,1.4,2.8,2.6c1.1-0.7,2.4-1,3.7-0.6l0.9,0.3
			c1.3,0.4,2.4,1.3,2.9,2.4c1-0.8,2.4-1.1,3.7-0.8l0.9,0.2c1.3,0.3,2.4,1.1,3,2.3c1-0.8,2.3-1.2,3.7-1l0.9,0.2
			c1.4,0.2,2.5,1,3.2,2.1c0.9-0.9,2.2-1.4,3.6-1.2l1,0.1c1.4,0.1,2.5,0.9,3.2,1.9c0.8-0.9,2-1.4,3.3-1.4c0.1,0,0.2,0,0.3,0h1
			c1.4,0.1,2.6,0.7,3.4,1.7c0.8-1,2.1-1.6,3.4-1.6h1l0,0c1.4,0,2.6,0.6,3.4,1.6c0.8-1,2-1.7,3.3-1.8l1-0.1c1.4-0.1,2.6,0.5,3.5,1.4
			c0.7-1,1.9-1.8,3.2-1.9l1-0.1c1.4-0.2,2.7,0.3,3.6,1.2c0.7-1.1,1.8-1.9,3.1-2.1l1-0.2c1.4-0.2,2.7,0.2,3.7,1c0.6-1.1,1.7-2,3-2.3
			l1-0.2c1.3-0.3,2.7,0,3.7,0.8c0.5-1.2,1.6-2.1,2.9-2.4l0.9-0.3c1.3-0.4,2.7-0.1,3.7,0.6c0.5-1.2,1.4-2.2,2.7-2.6l0.9-0.3
			c1.3-0.4,2.7-0.3,3.8,0.4c0.4-1.2,1.3-2.2,2.6-2.7l0.9-0.4c1.3-0.5,2.7-0.4,3.8,0.2c0.3-1.2,1.2-2.3,2.5-2.9l0.9-0.4
			c1.3-0.6,2.6-0.5,3.8,0c0.3-1.3,1.1-2.4,2.3-3l0.9-0.4c1.2-0.6,2.6-0.7,3.8-0.2c0.2-1.3,1-2.4,2.2-3.1l0.8-0.5
			c1.2-0.7,2.6-0.8,3.8-0.4c0.2-1.3,0.9-2.5,2-3.2l0.8-0.5c1.2-0.8,2.5-0.9,3.8-0.5c0.1-1.3,0.8-2.5,1.9-3.3l0.8-0.6
			c1.1-0.8,2.5-1,3.7-0.7c0.1-1.3,0.7-2.5,1.7-3.4l0.8-0.6c1.1-0.9,2.4-1.1,3.7-0.9c0-1.3,0.5-2.5,1.6-3.4l0.8-0.6
			c1.1-0.9,2.4-1.2,3.7-1c-0.1-1.3,0.4-2.6,1.5-3.5l0.7-0.7c0.4-0.4,0.9-0.6,1.3-0.8c-0.6,0-1.3-0.1-1.9-0.3
			C322.8,852,322,853.2,320.7,853.9z"/>
		<path class="st0" d="M54,622.5c0-2.1,0-4.2,0-6.3c-5.4-12.5-10.3-25-13.1-38c-0.4,0.6-1,1-1.6,1.3c0.8,1,1.1,2.4,0.8,3.7l-0.2,1
			c-0.3,1.4-1.2,2.4-2.3,3c0.8,1,1.2,2.4,0.9,3.7l-0.2,1c-0.3,1.4-1.1,2.5-2.3,3.1c0.8,1,1.3,2.3,1,3.7l-0.2,1
			c-0.2,1.4-1.1,2.5-2.2,3.1c0.3,0.3,0.5,0.7,0.7,1.1C42.1,606.1,48.3,613.9,54,622.5z"/>
		<path class="st0" d="M91.4,809.6c0.6,0.8,1,1.7,1,2.7c0.3-0.1,0.5-0.1,0.8-0.1c-0.3-0.8-0.3-1.6-0.2-2.3
			C92.5,809.9,91.9,809.8,91.4,809.6z"/>
		<path class="st0" d="M401.6,676.3c0.1-1.4,0.8-2.6,1.9-3.3c-0.4-0.4-0.8-0.9-1-1.4c-5.7,7.3-11.2,14.9-13.7,22.3
			c-4.7,14.4-19.8,30.2-25.5,17.3c-0.4-2.6-1.7-6.6-5.2-5.7C351,772.1,308.5,850,217.8,850.1l0,0h-0.1h-0.1l0,0
			C126.7,849.8,84.2,772,77,705.4c-3.6-0.9-4.9,3.2-5.2,5.7C66,724,51,708.2,46.3,693.8c-2.5-7.3-7.9-14.7-13.4-21.9
			c-0.2,0.8-0.7,1.5-1.3,2.1c1.1,0.7,1.8,2,1.9,3.3l0.1,1c0.1,1.4-0.4,2.7-1.4,3.6c1.1,0.7,1.8,1.9,2,3.3l0.1,1
			c0.1,1.3-0.3,2.5-1.1,3.5c0.5,0.4,0.9,0.8,1.2,1.3l0.4,0.7c0.5,1,0.7,2,0.5,3c0,0.3-0.1,0.6-0.1,0.9c1.3,0.3,2.4,1.1,3,2.3
			l0.5,0.9c0.7,1.3,0.7,2.7,0.1,3.9c1.3,0.3,2.5,1.1,3.1,2.4l0.4,0.9c0.6,1.3,0.6,2.7,0.1,3.9c1.3,0.3,2.4,1.1,3.1,2.4l0.4,0.9
			c0.6,1.3,0.6,2.7,0,3.9c1.3,0.3,2.4,1.2,3,2.4l0.4,0.9c0.6,1.3,0.6,2.7,0,3.9c1.3,0.3,2.4,1.2,3,2.4l0.4,0.9
			c0.6,1.3,0.6,2.7,0,3.9c1.3,0.3,2.4,1.2,3,2.4l0.4,0.9c0.6,1.3,0.6,2.7,0,3.9c1.3,0.3,2.4,1.1,3,2.4l0.4,0.9
			c0.6,1.3,0.6,2.7,0,3.9c1.3,0.3,2.4,1.1,3,2.4l0.4,0.9c0.6,1.3,0.6,2.7,0.1,3.9c1.3,0.3,2.4,1.1,3.1,2.3l0.5,0.9
			c0.7,1.2,0.7,2.6,0.2,3.8c1.3,0.2,2.4,1,3.1,2.3l0.5,0.9c0.7,1.2,0.7,2.6,0.2,3.8c1.3,0.2,2.5,1,3.2,2.2l0.5,0.9
			c0.7,1.2,0.8,2.6,0.3,3.8c1.3,0.2,2.5,0.9,3.2,2.1l0.5,0.8c0.7,1.2,0.8,2.6,0.4,3.8c1.3,0.2,2.5,0.9,3.3,2l0.5,0.8
			c0.8,1.2,0.9,2.5,0.5,3.8c1.3,0.1,2.5,0.8,3.3,1.9l0.6,0.8c0.8,1.1,1,2.5,0.6,3.8c1.3,0.1,2.5,0.7,3.4,1.8l0.8,0.8
			c0.8,1.1,1.1,2.5,0.8,3.7c1.3,0,2.5,0.6,3.4,1.7l0.6,0.8c0.9,1.1,1.2,2.4,0.9,3.7c1.3,0,2.6,0.5,3.5,1.5l0.6,0.7
			c0.9,1,1.3,2.4,1.1,3.6c1.3-0.1,2.6,0.4,3.5,1.4l0.7,0.7c1,1,1.4,2.3,1.2,3.6c1.3-0.1,2.6,0.3,3.6,1.2l0.7,0.7
			c1,1,1.5,2.3,1.4,3.5c1.3-0.2,2.6,0.2,3.6,1.1l0.7,0.6c1,0.9,1.6,2.2,1.5,3.5c1.3-0.2,2.6,0,3.7,0.9l0.8,0.6
			c1.1,0.9,1.7,2.1,1.7,3.4c1.2-0.3,2.6-0.1,3.7,0.7l0.8,0.6c1.1,0.8,1.8,2,1.8,3.3c0,0.1,0.1,0.2,0.1,0.3c1.2-0.5,2.6-0.5,3.8,0.2
			l0.9,0.5c1.2,0.7,2,1.8,2.3,3.1c1.2-0.5,2.6-0.5,3.8,0.1l0.9,0.4c1.3,0.6,2.1,1.7,2.4,3c1.2-0.6,2.6-0.6,3.8,0l0.9,0.4
			c1.3,0.6,2.1,1.7,2.5,2.9c1.2-0.6,2.5-0.7,3.8-0.1l0.9,0.4c1.3,0.5,2.2,1.6,2.6,2.8c1.1-0.6,2.5-0.8,3.8-0.3l0.9,0.4
			c1.3,0.5,2.2,1.5,2.7,2.8c1.1-0.7,2.5-0.8,3.8-0.4l0.9,0.3c1.3,0.5,2.3,1.5,2.7,2.7c1.1-0.7,2.5-0.9,3.8-0.5l0.9,0.3
			c1.3,0.4,2.3,1.4,2.8,2.6c1.1-0.7,2.4-1,3.8-0.6l1,0.3c1.3,0.4,2.4,1.3,2.9,2.5c1-0.8,2.4-1.1,3.7-0.8l0.9,0.2
			c1.4,0.3,2.4,1.2,3,2.3c1-0.8,2.3-1.2,3.7-0.9l1,0.2c1.4,0.3,2.5,1.1,3.1,2.2c1-0.8,2.3-1.3,3.6-1.1l1,0.1c1.4,0.2,2.5,1,3.2,2.1
			c0.9-0.9,2.2-1.4,3.6-1.2l1,0.1c1.4,0.1,2.5,0.9,3.3,2c0.9-0.9,2.1-1.5,3.5-1.4l1,0.1c1.4,0.1,2.6,0.8,3.3,1.8
			c0.8-1,2.1-1.6,3.5-1.5h1c1.4,0,2.6,0.7,3.4,1.7c0.8-1,2-1.6,3.4-1.7h1c1.4,0,2.6,0.5,3.5,1.5c0.2-0.2,0.3-0.4,0.5-0.6
			c0.9-1,2.1-1.6,3.6-1.6s2.8,0.7,3.7,1.8c0.7-1.1,1.9-2,3.3-2.1l0.9-0.1c1.4-0.2,2.7,0.3,3.6,1.2c0.7-1.1,1.8-1.9,3.1-2.1l0.9-0.2
			c1.4-0.2,2.7,0.2,3.7,1c0.6-1.1,1.7-2,3-2.3l0.9-0.2c1.4-0.3,2.7,0,3.7,0.8c0.5-1.2,1.6-2.1,2.9-2.4l0.9-0.2
			c1.3-0.4,2.7-0.1,3.7,0.6c0.5-1.2,1.5-2.1,2.8-2.6l0.9-0.3c1.3-0.4,2.7-0.2,3.8,0.5c0.4-1.2,1.4-2.2,2.7-2.7l0.9-0.3
			c1.3-0.5,2.7-0.3,3.8,0.3c0.4-1.2,1.3-2.3,2.6-2.8l0.9-0.4c1.3-0.5,2.6-0.4,3.8,0.1c0.3-1.2,1.2-2.3,2.4-2.9l0.9-0.4
			c1.2-0.6,2.6-0.6,3.8,0c0.3-1.3,1.1-2.4,2.3-3l0.8-0.4c1.2-0.7,2.6-0.7,3.8-0.2c0.2-1.3,1-2.4,2.2-3.1l0.8-0.5
			c1.2-0.7,2.6-0.8,3.8-0.4c0.2-1.3,0.9-2.5,2-3.2l0.8-0.5c1.2-0.7,2.5-0.9,3.8-0.5c0.1-1.3,0.8-2.5,1.9-3.3l0.8-0.5
			c1.1-0.8,2.5-1,3.8-0.7c0.1-1.3,0.7-2.5,1.8-3.4l0.8-0.6c0.8-0.6,1.8-0.9,2.7-0.9c0.3-0.3,0.7-0.5,1.1-0.6c0.2-1,0.7-2,1.6-2.7
			l0.2-0.2c0.1-0.4,0.3-0.9,0.6-1.2l0.6-0.8c0.8-1.1,2.1-1.7,3.4-1.8c-0.3-1.2-0.1-2.6,0.7-3.8l0.6-0.8c0.8-1.1,2-1.8,3.3-1.9
			c-0.4-1.2-0.2-2.6,0.5-3.8l0.5-0.8c0.8-1.2,2-1.9,3.2-2c-0.4-1.2-0.3-2.6,0.4-3.8l0.5-0.8c0.7-1.2,1.9-1.9,3.2-2.1
			c-0.5-1.2-0.4-2.6,0.3-3.8l0.5-0.9c0.7-1.2,1.8-2,3.1-2.2c-0.5-1.2-0.5-2.6,0.2-3.8l0.5-0.9c0.6-1.2,1.8-2.1,3-2.3
			c-0.5-1.2-0.6-2.6,0-3.8l0.4-0.9c0.6-1.3,1.7-2.1,3-2.4c-0.6-1.2-0.6-2.6-0.1-3.8l0.4-0.9c0.6-1.3,1.7-2.2,2.9-2.5
			c-0.6-1.1-0.7-2.5-0.2-3.8l0.4-0.9c0.5-1.3,1.6-2.2,2.8-2.6c-0.6-1.1-0.8-2.5-0.3-3.8l0.4-0.9c0.5-1.3,1.5-2.2,2.7-2.7
			c-0.7-1.1-0.9-2.5-0.4-3.8l0.3-0.9c0.5-1.3,1.5-2.3,2.7-2.7c-0.7-1.1-0.9-2.5-0.5-3.8l0.3-0.9c0.4-1.3,1.4-2.3,2.6-2.8
			c-0.7-1.1-1-2.4-0.6-3.8l0.3-0.9c0.4-1.3,1.3-2.4,2.5-2.9c-0.8-1.1-1.1-2.4-0.7-3.8l0.2-0.9c0.3-1.4,1.3-2.4,2.4-3
			c-0.8-1-1.1-2.4-0.8-3.8l0.2-0.9c0.3-1.4,1.2-2.4,2.4-3c-0.8-1-1.2-2.4-0.9-3.7l0.2-1c0.3-1.4,1.1-2.5,2.3-3.1
			c-0.8-1-1.2-2.3-1-3.7l0.2-1c0.2-1.4,1.1-2.5,2.2-3.1c-0.9-1-1.3-2.3-1.1-3.7l0.1-1c0.2-1.4,1-2.5,2.1-3.2
			c-0.9-0.9-1.4-2.3-1.2-3.7l0.1-1c0.2-1.4,1-2.5,2-3.2c-0.9-0.9-1.4-2.2-1.3-3.6l0.1-1c0.1-1.4,0.9-2.6,2-3.3
			c-0.9-0.9-1.5-2.2-1.4-3.6L401.6,676.3z"/>
		<path class="st0" d="M326.5,850.7c0.2,0,0.5,0,0.7,0c0-0.1,0-0.3,0-0.4l-0.2,0.1C326.8,850.5,326.6,850.6,326.5,850.7z"/>
		<path class="st1" d="M142.1,637.4c0-3.4,1.8-6.4,4.6-8c-7.1,1.5-13.5,6.1-17.4,9.5c-0.1,0.1-0.2,0.2-0.4,0.3
			c-0.5,0.4-1,0.9-1.4,1.2c3.5,1.6,11.1,4.8,19.1,4.9C143.9,643.7,142.1,640.7,142.1,637.4z"/>
		<path class="st1" d="M279.5,629.7c-7.2,2.3-13.2,9-16.3,13.1c1.6-0.3,3.1-0.4,4.7-0.4c2.8,0,5.8,0.4,9.9,1.2
			c-1.5-1.6-2.4-3.8-2.4-6.2C275.4,634.2,277,631.4,279.5,629.7z"/>
		<path class="st1" d="M306.7,638.8c-3.9-3.3-10.3-7.9-17.4-9.4c2.7,1.6,4.6,4.6,4.6,8c0,3.4-1.8,6.3-4.5,7.9
			c8-0.1,15.6-3.3,19.1-4.9c-0.4-0.4-0.9-0.8-1.4-1.2C307,639.1,306.9,639,306.7,638.8z"/>
		<path class="st1" d="M160.6,637.4c0,2.4-0.9,4.6-2.4,6.2c6.5-1.2,10.4-1.5,14.7-0.7c-3.1-4.1-9.1-10.8-16.3-13.1
			C159,631.4,160.6,634.2,160.6,637.4z"/>
		<path class="st1" d="M250.1,772.3l-26.6,3.1c-1.9,0.2-3.9,0.3-5.9,0.3c-1.9,0-3.9-0.1-5.8-0.3l-24.5-2.8c-0.7,0-1.4,0.1-2.1,0.2
			c-1.3,0.1-2.4,1-2.9,2.1c-0.5,1.1-0.3,2.5,0.5,3.5c6.5,8.1,18.2,12.3,34.6,12.3c15.3,0,26.2-3.4,32.4-10c1-1,1.9-1.9,2.6-3.4
			c0.5-1,0.5-2.2-0.1-3.2C252,773.2,251.1,772.5,250.1,772.3z"/>
		<path class="st1" d="M230.9,761.1c-4.5-1-10,1.6-12.2,2.8c-0.7,0.4-1.6,0.4-2.4,0c-1.7-0.9-7.5-3.8-12.2-2.8
			c-1.9,0.4-4.7,1.2-7.9,2c-5.6,1.5-10.6,2.8-14.7,3.7c1.2,0.2,2.5,0.4,3.8,0.6l27,3.1c3.5,0.4,7,0.4,10.5,0l26.8-3.1
			c1.3-0.1,2.5-0.3,3.8-0.6c-4.1-0.9-9.1-2.2-14.7-3.7C235.6,762.2,232.8,761.5,230.9,761.1z"/>
		<path d="M266.3,765.2c-0.5-2.4-3.1-2.3-3.9-2.2c-3.7,0.1-14.9-2.8-22.3-4.8c-3.3-0.9-6.1-1.6-8.1-2c-5.3-1.2-11,0.9-14.5,2.6
			c-3.5-1.7-9.2-3.8-14.5-2.6c-2,0.4-4.8,1.2-8.1,2c-7.4,2-18.6,4.9-22.3,4.8c-0.9,0-3.5-0.1-3.9,2.2c-0.5,2.5,2.2,3.5,4.7,4.4
			c1.7,0.6,3.5,1.2,5.3,1.6c-0.4,0.5-0.7,1.1-1,1.7c-1.2,2.9-0.7,6.2,1.2,8.6c7.5,9.4,20.5,14.2,38.5,14.2c16.8,0,28.9-3.9,36-11.5
			c1.1-1.1,2.4-2.4,3.5-4.6c1.3-2.5,1.2-5.4-0.1-7.9c-0.1-0.2-0.2-0.3-0.3-0.5c1.7-0.4,3.4-0.9,5-1.5
			C264.1,768.7,266.8,767.8,266.3,765.2z M252.5,777.3c-0.8,1.5-1.6,2.3-2.6,3.4c-6.2,6.6-17.1,10-32.4,10
			c-16.5,0-28.1-4.1-34.6-12.3c-0.8-1-1-2.4-0.5-3.5c0.5-1.1,1.6-2,2.9-2.1c0.7-0.1,1.4-0.1,2.1-0.2l24.5,2.8
			c1.9,0.2,3.9,0.3,5.8,0.3c2,0,3.9-0.1,5.9-0.3l26.6-3.1c1,0.2,1.9,0.8,2.4,1.7C253,775.1,253.1,776.3,252.5,777.3z M249.7,767.3
			l-26.8,3.1c-3.5,0.4-7,0.4-10.5,0l-27-3.1c-1.3-0.1-2.5-0.3-3.8-0.6c4.1-0.9,9.1-2.2,14.7-3.7c3.2-0.8,6-1.6,7.9-2
			c4.7-1,10.5,1.8,12.2,2.8c0.7,0.4,1.6,0.4,2.4,0c2.2-1.2,7.7-3.8,12.2-2.8c1.9,0.4,4.7,1.2,7.9,2c5.6,1.5,10.6,2.8,14.7,3.7
			C252.3,767,251,767.2,249.7,767.3z"/>
		<path d="M66.9,646.9c0.2-21.4,15.3-40,32.8-52.4c17.5-12.4,37.7-20.3,55.6-32c12.9-8.5,24.6-19,34.3-31
			c8.8-10.7,16-22.6,25.1-33.2c7.6-8.8,16.8-16.8,27.5-21.1c0.1-0.3,0.2-0.5,0.3-0.8c3.7-6.7,4.9-27.5,2-35.9
			c-0.6-1.8,0.4-3.8,2.2-4.4c1.8-0.6,3.8,0.4,4.4,2.2c2.8,8.4,2.7,27-0.9,37.6c3.2,4.9,7.5,9.2,11.7,14.5
			c21.2,27.3,43,54.3,68.1,78.1c12.1,11.5,25.1,22.4,35.5,35.5c10.4,13.1,18.4,29,18.5,45.7c9.9-9.7,15.1-23.5,16.5-37.3
			c-0.4-0.6-0.7-1.3-0.9-2.1l-0.1-1c-0.2-1.4,0.3-2.7,1.1-3.7c-1.1-0.7-1.9-1.8-2.2-3.2l-0.2-1c-0.2-1.4,0.2-2.7,1.1-3.7
			c-1.1-0.6-2-1.7-2.2-3.1l-0.2-1c-0.3-1.4,0.1-2.7,1-3.7c-1.2-0.6-2-1.7-2.3-3.1l-0.2-0.9c-0.3-1.4,0.1-2.7,0.9-3.7
			c-1.2-0.6-2.1-1.6-2.4-3l-0.2-0.8c-0.3-1.4,0-2.7,0.8-3.8c-1.2-0.5-2.1-1.6-2.5-2.9l-0.3-0.9c-0.4-1.3-0.1-2.7,0.7-3.8
			c-1.2-0.5-2.2-1.5-2.6-2.9l-0.3-0.9c-0.4-1.3-0.2-2.7,0.6-3.8c-1.2-0.5-2.2-1.5-2.6-2.8l-0.3-0.9c-0.4-1.3-0.2-2.7,0.5-3.8
			c-1.2-0.4-2.2-1.4-2.7-2.7l-0.3-0.9c-0.5-1.3-0.3-2.7,0.4-3.8c-1.2-0.4-2.3-1.3-2.8-2.6l-0.4-0.9c-0.5-1.3-0.4-2.7,0.2-3.8
			c-1.2-0.4-2.3-1.3-2.8-2.5l-0.4-0.9c-0.5-1.3-0.5-2.7,0.1-3.8c-1.2-0.3-2.3-1.2-2.9-2.5l-0.4-0.9c-0.6-1.3-0.5-2.7,0-3.8
			c-1.3-0.3-2.4-1.1-3-2.4l-0.4-0.9c-0.6-1.2-0.6-2.6-0.1-3.8c-1.3-0.3-2.4-1.1-3.1-2.3l-0.5-0.9c-0.6-1.2-0.7-2.5-0.3-3.6v-0.1
			c0-0.1-0.1-0.1-0.1-0.2c-1.2-0.3-2.3-1-2.9-2.1l-0.5-0.9c-0.6-1-0.7-2.1-0.5-3.2c-0.2-0.3-0.3-0.5-0.5-0.8c-1-0.3-1.9-0.9-2.5-1.9
			l-0.5-0.8c-0.7-1.1-0.8-2.3-0.5-3.5c-0.1-0.1-0.1-0.3-0.2-0.4c-1.2-0.2-2.3-0.9-3-1.9l-0.5-0.8c-0.8-1.2-0.9-2.5-0.6-3.8
			c-1.3-0.1-2.5-0.7-3.3-1.9l-0.6-0.8c-0.8-1.1-1-2.5-0.7-3.8c-1.3-0.1-2.5-0.7-3.4-1.8l-0.6-0.8c-0.9-1.1-1.1-2.5-0.8-3.7l0,0
			c-1.3,0-2.5-0.5-3.4-1.6l-0.6-0.8c-0.9-1.1-1.2-2.4-1-3.7c-1.3,0-2.6-0.5-3.5-1.5l-0.7-0.7c-0.9-1-1.3-2.4-1.1-3.6
			c-1.3,0.1-2.6-0.4-3.5-1.4l-0.7-0.7c-1-1-1.4-2.3-1.2-3.6c-1.3,0.1-2.6-0.3-3.6-1.2l-0.7-0.7c-1-1-1.5-2.3-1.4-3.6
			c-1.3,0.2-2.6-0.2-3.6-1.1l-0.7-0.7c-1-0.9-1.5-2.2-1.5-3.5c-1.3,0.2-2.6-0.1-3.7-0.9l-0.8-0.6c-1.1-0.9-1.6-2.1-1.7-3.4
			c-1.2,0.3-2.6,0-3.7-0.8l-0.8-0.6c-1.1-0.8-1.7-2.1-1.8-3.3c-1.2,0.3-2.6,0.2-3.7-0.6l-0.8-0.6c-1.1-0.8-1.8-2-1.9-3.3
			c-1.2,0.4-2.6,0.3-3.8-0.5l-0.8-0.5c-1.2-0.7-1.9-1.9-2.1-3.2c-1.2,0.5-2.6,0.4-3.8-0.3l-0.8-0.5c-1.2-0.7-2-1.8-2.2-3.1
			c-1.2,0.5-2.6,0.5-3.8-0.1l-0.9-0.4c-1.2-0.6-2.1-1.7-2.4-2.9c-1.1,0.6-2.5,0.6-3.8,0.1l-0.9-0.4c-1.3-0.5-2.1-1.6-2.5-2.8
			c-1.1,0.6-2.5,0.8-3.8,0.3l-0.9-0.3c-1.3-0.5-2.2-1.5-2.7-2.7c-1.1,0.7-2.4,0.9-3.7,0.5l-0.9-0.3c-1.3-0.4-2.3-1.4-2.8-2.5
			c-1,0.7-2.4,1-3.7,0.7l-1-0.2c-1.3-0.3-2.4-1.2-2.9-2.4c-1,0.8-2.3,1.1-3.7,0.9l-1-0.2c-1.3-0.3-2.4-1.1-3.1-2.2
			c-1,0.8-2.3,1.3-3.6,1.1l-1-0.1c-1.4-0.2-2.5-1-3.2-2.1c-0.9,0.9-2.2,1.4-3.6,1.3l-1-0.1c-1.4-0.1-2.5-0.8-3.3-1.9
			c-0.9,0.9-2.1,1.5-3.5,1.4h-1c-1.4,0-2.6-0.7-3.4-1.7c-0.8,1-2,1.6-3.4,1.6h-1c-1.4,0.1-2.6-0.6-3.5-1.5c-0.8,1-1.9,1.7-3.3,1.8
			l-1,0.1c-1.4,0.1-2.6-0.4-3.5-1.3c-0.7,1.1-1.8,1.8-3.2,2l-1,0.1c-1.4,0.2-2.7-0.3-3.6-1.1c-0.6,1.1-1.7,1.9-3.1,2.2l-1,0.2
			c-1.3,0.2-2.7-0.1-3.6-0.9c-0.6,1.1-1.6,2-3,2.3l-0.9,0.2c-1.3,0.3-2.7,0-3.7-0.7c-0.5,1.2-1.5,2.1-2.8,2.5l-0.9,0.3
			c-1.3,0.4-2.7,0.2-3.7-0.5c-0.5,1.2-1.4,2.2-2.7,2.6l-0.9,0.3c-1.3,0.5-2.7,0.3-3.8-0.3c-0.4,1.2-1.3,2.3-2.6,2.8l-0.9,0.4
			c-1.3,0.5-2.7,0.4-3.8-0.2c-0.3,1.2-1.2,2.3-2.4,2.9l-0.9,0.4c-1.2,0.6-2.6,0.6-3.8,0c-0.3,1.3-1.1,2.4-2.3,3l-0.9,0.5
			c-1.2,0.6-2.6,0.7-3.8,0.2c-0.2,1.3-1,2.4-2.2,3.1l-0.8,0.5c-1.2,0.7-2.6,0.8-3.8,0.4c-0.2,1.3-0.8,2.5-2,3.2l-0.8,0.5
			c-1.2,0.8-2.5,0.9-3.8,0.6c-0.1,1.3-0.7,2.5-1.9,3.3l-0.8,0.6c-1.1,0.8-2.5,1-3.7,0.7c0,1.3-0.6,2.5-1.7,3.4l-0.8,0.6
			c-1.1,0.9-2.4,1.1-3.7,0.9c0,1.3-0.5,2.6-1.6,3.5l-0.7,0.6c-1,0.9-2.4,1.2-3.7,1c0.1,1.3-0.4,2.6-1.4,3.5l-0.7,0.7
			c-1,0.9-2.3,1.3-3.6,1.2c0.1,1.3-0.3,2.6-1.3,3.6l-0.7,0.7c-1,1-2.3,1.4-3.6,1.3c0.2,1.3-0.2,2.6-1.1,3.6l-0.7,0.7
			c-0.9,1-2.2,1.5-3.5,1.5c0.2,1.3-0.1,2.6-1,3.7l-0.6,0.7c-0.9,1.1-2.2,1.6-3.4,1.6l0,0c0.3,1.3,0,2.6-0.9,3.7l-0.6,0.8
			c-0.9,1.1-2.1,1.7-3.4,1.7c0.3,1.3,0.1,2.6-0.7,3.7l-0.6,0.8c-0.8,1.1-2.1,1.8-3.3,1.8c0.3,1.2,0.2,2.6-0.6,3.8l-0.6,0.8
			c-0.8,1.1-2,1.8-3.3,1.9c0.4,1.2,0.3,2.6-0.5,3.8l-0.5,0.8c-0.7,1.2-1.9,1.9-3.2,2.1c0.4,1.2,0.3,2.6-0.4,3.8l-0.5,0.8
			c-0.7,1.2-1.9,2-3.2,2.2c0.5,1.2,0.4,2.6-0.2,3.8l-0.5,0.9c-0.7,1.2-1.8,2-3.1,2.3c0.5,1.2,0.5,2.6-0.1,3.8l-0.5,0.9
			c-0.6,1.2-1.8,2.1-3,2.3c0.5,1.2,0.6,2.6,0,3.8l-0.4,0.9c-0.6,1.3-1.7,2.1-2.9,2.4c0.6,1.2,0.7,2.5,0.1,3.8l-0.4,0.9
			c-0.6,1.3-1.6,2.2-2.9,2.5c0.6,1.1,0.7,2.5,0.2,3.8l-0.4,0.9c-0.5,1.3-1.6,2.2-2.8,2.6c0.6,1.1,0.8,2.5,0.3,3.8l-0.3,0.9
			c-0.5,1.3-1.5,2.2-2.7,2.7c0.7,1.1,0.9,2.5,0.4,3.8l-0.3,0.9c-0.4,1.3-1.4,2.3-2.7,2.8c0.7,1.1,0.9,2.5,0.5,3.8l-0.3,0.9
			c-0.4,1.3-1.4,2.3-2.6,2.8c0.7,1.1,1,2.4,0.6,3.8l-0.3,0.9c-0.4,1.3-1.3,2.4-2.5,2.9c0.8,1,1.1,2.4,0.7,3.8l-0.2,1
			c-0.2,0.6-0.4,1.2-0.8,1.7c2.8,13,7.8,25.5,13.1,38C58.4,626.4,63.1,636.6,66.9,646.9z"/>
		<g>
			<path d="M192.5,721.4c4.7,0,10.9,6.4,15.2,3.4c0.6-1.8-3.6-4.5-4.8-5C200,718.8,192.9,716.9,192.5,721.4z"/>
		</g>
		<path d="M180.8,717.7c0,9.6,7.8,17.5,17.5,17.5c1.4,0,2.5-1.1,2.5-2.5c0-1.4-1.1-2.5-2.5-2.5c-6.9,0-12.5-5.6-12.5-12.5
			c0-6.9,5.6-12.5,12.5-12.5c0.9,0,1.7-0.5,2.1-1.2s0.5-1.7,0-2.5c0-0.1-4.3-8.1-0.4-15.4c0.7-1.2,0.2-2.7-1-3.4
			c-1.2-0.7-2.7-0.2-3.4,1c-3.5,6.4-2.3,13-1,16.8C186.8,702.2,180.8,709.3,180.8,717.7z"/>
		<g>
			<path d="M227.3,724.8c4.2,3.1,10.4-3.4,15.2-3.4c-0.4-4.5-7.5-2.6-10.4-1.6C230.9,720.3,226.7,722.9,227.3,724.8z"/>
		</g>
		<path d="M234.6,704c0.5,0.8,1.3,1.2,2.2,1.2c6.9,0,12.5,5.6,12.5,12.5c0,6.9-5.6,12.5-12.5,12.5c-1.4,0-2.5,1.1-2.5,2.5
			c0,1.4,1.1,2.5,2.5,2.5c9.6,0,17.5-7.8,17.5-17.5c0-8.4-6-15.4-13.9-17.1c1.3-3.8,2.5-10.4-1-16.8c-0.7-1.2-2.2-1.7-3.4-1
			s-1.7,2.2-1,3.4c3.9,7.3-0.3,15.3-0.4,15.4C234.1,702.3,234.2,703.2,234.6,704z"/>
		<path class="st1" d="M411.4,653.6v-1c0-0.5-0.1-1.1-0.3-1.5c0.2-0.5,0.3-1,0.3-1.5v-1c0-1.4-0.7-2.7-1.8-3.5
			c1-0.9,1.6-2.2,1.6-3.6v-1c0-1.4-0.8-2.7-1.8-3.5c1-0.9,1.6-2.2,1.5-3.6l-0.1-1c-0.1-1.4-0.8-2.7-1.9-3.4c1-0.9,1.5-2.2,1.4-3.7
			l-0.1-1c-0.1-1.4-0.9-2.6-2-3.4c0.9-0.9,1.5-2.3,1.3-3.7l-0.1-1c-0.2-1.4-1-2.6-2.1-3.3c0.9-1,1.4-2.3,1.2-3.7l-0.1-1
			c-0.2-1.4-1-2.6-2.2-3.3c0.9-1,1.4-2.3,1.1-3.7l-0.2-1c-0.2-1.4-1.1-2.6-2.3-3.2c0.9-1,1.3-2.4,1-3.8l-0.2-1
			c-0.3-1.4-1.2-2.5-2.3-3.2c0.8-1,1.2-2.4,0.9-3.8l-0.2-1c-0.3-1.4-1.2-2.5-2.4-3.1c0.8-1,1.2-2.4,0.8-3.8l-0.2-1
			c-0.3-1.4-1.3-2.5-2.5-3c0.8-1.1,1.1-2.5,0.7-3.8l-0.3-1c-0.4-1.4-1.4-2.4-2.6-3c0.8-1.1,1-2.5,0.6-3.9l-0.3-1
			c-0.4-1.4-1.4-2.4-2.7-2.9c0.7-1.1,1-2.5,0.5-3.9l-0.3-1c-0.5-1.4-1.5-2.4-2.7-2.8c0.7-1.1,0.9-2.6,0.4-3.9l-0.3-0.9
			c-0.5-1.3-1.6-2.3-2.8-2.7c0.7-1.2,0.8-2.6,0.3-3.9l-0.4-0.9c-0.5-1.3-1.6-2.3-2.9-2.7c0.6-1.2,0.8-2.6,0.2-3.9l-0.4-0.9
			c-0.6-1.3-1.7-2.2-3-2.6c0.6-1.2,0.7-2.6,0.1-3.9l-0.4-0.9c-0.6-1.3-1.7-2.2-3-2.5c0.6-1.2,0.6-2.7,0-3.9l-0.5-0.9
			c-0.6-1.3-1.8-2.1-3.1-2.4c0.5-1.2,0.5-2.7-0.2-3.9l-0.5-0.9c-0.7-1.3-1.9-2.1-3.2-2.3c0.5-1.2,0.4-2.7-0.3-3.9l-0.5-0.9
			c-0.7-1.2-1.9-2-3.3-2.2c0.5-1.3,0.4-2.7-0.4-3.9l-0.5-0.9c-0.8-1.2-2-2-3.3-2.1c0.4-1.3,0.3-2.7-0.5-3.9l-0.6-0.8
			c-0.8-1.2-2.1-1.9-3.4-2c0.4-1.3,0.2-2.7-0.7-3.9l-0.6-0.8c-0.8-1.2-2.1-1.8-3.5-1.9c0.3-1.3,0.1-2.7-0.8-3.9l-0.6-0.8
			c-0.9-1.2-2.2-1.8-3.6-1.8l0,0c0.3-1.3,0-2.8-0.9-3.9l-0.6-0.7c-0.9-1.1-2.3-1.7-3.6-1.6c0.2-1.3-0.1-2.7-1.1-3.8l-0.7-0.8
			c-1-1.1-2.3-1.6-3.6-1.5c0.2-1.3-0.2-2.7-1.2-3.8l-0.7-0.7c-1-1-2.4-1.5-3.7-1.4c0.1-1.3-0.3-2.7-1.3-3.7l-0.7-0.7
			c-1-1-2.4-1.4-3.8-1.2c0.1-1.3-0.4-2.7-1.5-3.7l-0.8-0.7c-1.1-1-2.5-1.3-3.8-1.1c0-1.3-0.5-2.7-1.6-3.6l-0.8-0.6
			c-1.1-0.9-2.5-1.2-3.8-0.9c0-1.3-0.6-2.7-1.8-3.5l-0.8-0.6c-1.2-0.9-2.6-1.1-3.9-0.7c-0.1-1.3-0.8-2.6-2-3.5l-0.8-0.6
			c-1.2-0.8-2.6-1-3.9-0.6c-0.1-1.3-0.9-2.6-2.1-3.4l-0.9-0.5c-1.2-0.8-2.7-0.9-3.9-0.4c-0.2-1.3-1-2.5-2.2-3.3l-0.9-0.5
			c-1.3-0.7-2.7-0.7-4-0.2c-0.3-1.3-1.1-2.5-2.4-3.1l-0.9-0.5c-1.3-0.6-2.8-0.6-4,0c-0.3-1.3-1.2-2.4-2.6-3l-0.9-0.4
			c-1.3-0.6-2.8-0.5-3.9,0.2c-0.4-1.3-1.4-2.4-2.7-2.9l-1-0.4c-1.4-0.5-2.8-0.3-3.9,0.4c-0.5-1.3-1.5-2.3-2.9-2.7l-1-0.3
			c-1.4-0.4-2.8-0.2-3.9,0.6c-0.5-1.2-1.6-2.2-3-2.6l-1-0.3c-1.4-0.4-2.8,0-3.9,0.8c-0.6-1.2-1.7-2.1-3.1-2.4l-1-0.2
			c-1.4-0.3-2.8,0.1-3.8,1c-0.7-1.2-1.8-2.1-3.3-2.3l-1-0.1c-1.4-0.2-2.8,0.3-3.8,1.2c-0.7-1.1-1.9-2-3.4-2.1l-1-0.1
			c-1.4-0.1-2.8,0.4-3.7,1.4c-0.8-1.1-2-1.8-3.5-1.9h-1c-1.4-0.1-2.8,0.6-3.6,1.6c-0.8-1.1-2.1-1.7-3.6-1.7h-1
			c-1.5,0-2.7,0.7-3.5,1.8c-0.9-1-2.2-1.6-3.7-1.5l-1,0.1c-1.4,0.1-2.7,0.9-3.4,2c-0.9-1-2.3-1.5-3.8-1.3l-1,0.1
			c-1.4,0.2-2.6,1-3.3,2.2c-1-0.9-2.4-1.4-3.8-1.1l-1,0.2c-1.4,0.3-2.6,1.2-3.2,2.4c-1-0.8-2.4-1.2-3.8-0.9l-1,0.2
			c-1.4,0.3-2.5,1.3-3,2.5c-1.1-0.8-2.5-1.1-3.9-0.7l-1,0.3c-1.4,0.4-2.4,1.4-2.9,2.7c-1.1-0.7-2.6-1-3.9-0.5l-1,0.3
			c-1.4,0.5-2.3,1.6-2.8,2.8c-1.2-0.7-2.6-0.8-4-0.3l-0.9,0.4c-1.3,0.6-2.3,1.7-2.6,3c-1.2-0.6-2.7-0.7-4-0.1l-0.9,0.4
			c-1.3,0.6-2.2,1.8-2.5,3.1c-1.2-0.6-2.7-0.6-4,0.1l-0.9,0.5c-1.3,0.7-2.1,1.9-2.3,3.2c-1.2-0.5-2.7-0.4-3.9,0.3l-0.9,0.5
			c-1.2,0.7-2,2-2.2,3.3c-1.3-0.4-2.7-0.3-3.9,0.5l-0.9,0.6c-1.2,0.8-1.9,2.1-2,3.4c-1.3-0.4-2.7-0.2-3.9,0.7l-0.8,0.6
			c-1.2,0.9-1.8,2.2-1.8,3.5c-1.3-0.3-2.7-0.1-3.9,0.8l-0.8,0.6c-1.1,0.9-1.7,2.2-1.7,3.6c-1.3-0.3-2.7,0.1-3.8,1l-0.8,0.7
			c-1.1,0.9-1.6,2.3-1.5,3.6c-1.3-0.2-2.7,0.2-3.8,1.2l-0.7,0.7c-1.1,1-1.5,2.4-1.4,3.7c-1.3-0.2-2.7,0.3-3.7,1.3l-0.7,0.7
			c-1,1-1.4,2.4-1.2,3.7c-1.3-0.1-2.7,0.4-3.7,1.4l-0.7,0.8c-1,1.1-1.3,2.5-1.1,3.8c-1.3-0.1-2.7,0.5-3.6,1.6l-0.7,0.8
			c-0.9,1.1-1.2,2.5-1,3.8l0,0c-1.3,0-2.6,0.6-3.5,1.7l-0.6,0.8c-0.9,1.1-1.1,2.6-0.8,3.8c-1.3,0-2.6,0.7-3.5,1.8l-0.6,0.8
			c-0.8,1.2-1.1,2.6-0.7,3.9c-1.3,0.1-2.6,0.8-3.4,2l-0.6,0.8c-0.8,1.2-1,2.6-0.6,3.9c-1.3,0.1-2.6,0.8-3.4,2.1l-0.5,0.9
			c-0.8,1.2-0.9,2.7-0.4,3.9c-1.3,0.2-2.6,0.9-3.3,2.2l-0.5,0.9c-0.7,1.2-0.8,2.7-0.3,3.9c-1.3,0.2-2.5,1-3.2,2.3l-0.5,0.9
			c-0.7,1.3-0.7,2.7-0.2,3.9c-1.3,0.3-2.5,1.1-3.1,2.4l-0.5,0.9c-0.7,1.3-0.6,2.7-0.1,3.9c-1.3,0.3-2.5,1.2-3.1,2.5l-0.4,0.9
			c-0.6,1.3-0.6,2.7,0,3.9c-1.3,0.3-2.4,1.2-3,2.5l-0.4,0.9c-0.6,1.3-0.5,2.8,0.2,3.9c-1.3,0.4-2.4,1.3-2.9,2.6l-0.4,0.9
			c-0.5,1.3-0.4,2.8,0.3,3.9c-1.3,0.4-2.3,1.4-2.8,2.7l-0.3,0.9c-0.5,1.3-0.3,2.8,0.4,3.9c-1.3,0.4-2.3,1.4-2.8,2.8l-0.3,1
			c-0.5,1.4-0.2,2.8,0.5,3.9c-1.2,0.5-2.3,1.5-2.7,2.9l-0.3,1c-0.4,1.4-0.2,2.8,0.6,3.9c-1.2,0.5-2.2,1.6-2.6,2.9l-0.3,1
			c-0.4,1.4-0.1,2.8,0.7,3.9c-1.2,0.5-2.2,1.6-2.5,3l-0.2,1c-0.3,1.4,0,2.8,0.8,3.8c-1.2,0.6-2.1,1.7-2.4,3.1l-0.2,1
			c-0.3,1.4,0.1,2.8,0.9,3.8c-1.2,0.6-2.1,1.7-2.4,3.1l-0.2,1c-0.3,1.4,0.1,2.8,1,3.8c-1.2,0.6-2,1.8-2.3,3.2l-0.2,1
			c-0.2,1.4,0.2,2.8,1.1,3.8c-1.1,0.7-2,1.8-2.2,3.2l-0.1,1c-0.2,1.4,0.3,2.8,1.2,3.7c-1.1,0.7-1.9,1.9-2.1,3.3l-0.1,1
			c-0.2,1.4,0.3,2.8,1.3,3.7c-1.1,0.7-1.9,1.9-2,3.3l-0.1,1c-0.1,1.4,0.4,2.8,1.4,3.7c-1.1,0.7-1.8,2-2,3.4l-0.1,1
			c-0.1,1.4,0.5,2.7,1.5,3.6c-1.1,0.8-1.8,2-1.9,3.4v1c-0.1,1.4,0.6,2.7,1.6,3.6c-1.1,0.8-1.7,2.1-1.8,3.5v1c0,1.4,0.6,2.7,1.6,3.6
			c-1,0.8-1.7,2.1-1.7,3.5v1c0,1.4,0.7,2.7,1.7,3.5c-1,0.9-1.6,2.1-1.6,3.6v1c0,1.4,0.7,2.7,1.8,3.5c-1,0.9-1.6,2.2-1.5,3.6l0.1,1
			c0.1,1.4,0.8,2.7,1.9,3.4c-1,0.9-1.5,2.2-1.4,3.6l0.1,1c0.1,1.4,0.9,2.6,2,3.4c-1,0.9-1.5,2.3-1.3,3.7l0.1,1
			c0.1,1.3,0.8,2.4,1.7,3.1c-1.1,1.2-1.4,3-0.8,4.6v0.4c0.2,1.4,1,2.6,2.2,3.3c-0.9,1-1.4,2.3-1.2,3.7l0.2,1
			c0.2,1.4,1.1,2.6,2.2,3.2c-0.9,1-1.3,2.4-1.1,3.8l0.2,1c0.3,1.4,1.1,2.5,2.3,3.2c-0.9,1-1.3,2.4-1,3.8l0.2,1
			c0.3,1.4,1.2,2.5,2.4,3.1c-0.8,1-1.2,2.4-0.9,3.8l0.2,1c0.3,1.4,1.3,2.5,2.5,3c-0.8,1.1-1.1,2.5-0.8,3.8l0.3,1
			c0.4,1.4,1.3,2.5,2.6,3c-0.8,1.1-1.1,2.5-0.7,3.9l0.3,1c0.4,1.4,1.4,2.4,2.6,2.9c-0.7,1.1-1,2.5-0.6,3.9l0.3,1
			c0.4,1.4,1.5,2.4,2.7,2.8c-0.7,1.1-0.9,2.6-0.4,3.9l0.3,0.9c0.5,1.4,1.5,2.3,2.8,2.8c-0.7,1.1-0.9,2.6-0.3,3.9l0.4,0.9
			c0.5,1.3,1.6,2.3,2.9,2.7c-0.7,1.2-0.8,2.6-0.2,3.9l0.4,0.9c0.6,1.3,1.7,2.2,3,2.6c-0.6,1.2-0.7,2.6-0.1,3.9l0.4,0.9
			c0.6,1.2,1.6,2.1,2.8,2.4c-1.1,1.8-0.9,4.1,0.7,5.6l0.7,0.7c0.7,0.6,1.5,1,2.3,1.2c-0.5,1.2-0.5,2.6,0.2,3.8l0.5,0.9
			c0.7,1.3,1.9,2.1,3.2,2.3c-0.5,1.2-0.5,2.7,0.2,3.9l0.5,0.9c0.7,1.2,1.9,2,3.2,2.2c-0.5,1.3-0.4,2.7,0.4,3.9l0.5,0.9
			c0.7,1.2,2,2,3.3,2.1c-0.4,1.3-0.3,2.7,0.5,3.9l0.6,0.8c0.8,1.2,2.1,1.9,3.4,2c-0.4,1.3-0.2,2.7,0.6,3.9l0.6,0.8
			c0.8,1.2,2.1,1.8,3.4,1.9c-0.3,1.3-0.1,2.7,0.7,3.9l0.6,0.8c0.9,1.1,2.2,1.8,3.5,1.8c-0.3,1.3,0,2.7,0.9,3.8l0.6,0.8
			c0.9,1.1,2.2,1.7,3.6,1.7c-0.3,1.3,0.1,2.8,1,3.9l0.4,1.7c0.9,1.1,2.3,1.6,3.6,1.5c-0.2,1.3,0.2,2.7,1.2,3.8l0.7,0.7
			c1,1,2.4,1.5,3.7,1.4c-0.2,1.3,0.3,2.7,1.3,3.7l0.7,0.7c1,1,2.4,1.4,3.7,1.2c-0.1,1.3,0.4,2.7,1.5,3.7l0.8,0.7
			c1.1,1,2.5,1.3,3.8,1.1c0,1.3,0.5,2.7,1.6,3.6l0.8,0.7c1.1,0.9,2.5,1.2,3.8,0.9c0,1.3,0.6,2.7,1.8,3.5l0.8,0.6
			c1.1,0.9,2.6,1.1,3.9,0.8c0.1,1.3,0.7,2.6,1.9,3.5l0.8,0.6c1.2,0.8,2.6,1,3.9,0.6c0.1,1.3,0.8,2.6,2.1,3.4l0.9,0.6
			c1.2,0.8,2.7,0.9,3.9,0.4c0.2,1.3,1,2.6,2.2,3.3l0.9,0.5c1.3,0.7,2.7,0.8,3.9,0.2c0.2,1.3,1.1,2.5,2.4,3.2l0.9,0.5
			c1.3,0.7,2.8,0.6,4,0c0.3,1.3,1.2,2.5,2.5,3.1l0.9,0.4c1.3,0.6,2.8,0.5,4-0.1c0.4,1.3,1.3,2.4,2.7,2.9l1,0.4
			c1.3,0.5,2.8,0.3,3.9-0.3c0.4,1.3,1.4,2.3,2.8,2.8l1,0.3c1.4,0.5,2.8,0.2,3.9-0.5c0.5,1.2,1.6,2.2,3,2.6l1,0.3
			c1.4,0.4,2.8,0.1,3.9-0.8c0.6,1.2,1.7,2.2,3.1,2.5l1,0.2c1.4,0.3,2.8-0.1,3.9-1c0.6,1.2,1.8,2.1,3.2,2.3l1,0.2
			c1.4,0.2,2.8-0.3,3.8-1.2c0.7,1.2,1.9,2,3.4,2.1l1,0.1c1.4,0.1,2.8-0.4,3.7-1.4c0.8,1.1,2,1.9,3.5,1.9l1,0.1
			c1.4,0.1,2.8-0.6,3.6-1.6c0.8,1.1,2.1,1.8,3.6,1.8h1c1.5,0,2.7-0.7,3.6-1.8c0.9,1,2.2,1.6,3.6,1.6l1-0.1c1.4-0.1,2.7-0.9,3.4-2
			c0.9,1,2.3,1.5,3.7,1.4l1-0.1c1.4-0.2,2.6-1,3.3-2.2c1,0.9,2.4,1.4,3.8,1.1l1-0.2c1.4-0.2,2.6-1.1,3.2-2.3c1,0.9,2.4,1.3,3.9,0.9
			l1-0.2c1.4-0.3,2.5-1.3,3.1-2.5c1.1,0.8,2.5,1.1,3.9,0.7l1-0.3c1.4-0.4,2.4-1.4,2.9-2.7c1.1,0.7,2.6,1,3.9,0.5l1-0.3
			c1.4-0.5,2.4-1.5,2.8-2.8c1.2,0.7,2.6,0.9,4,0.3l1-0.4c1.3-0.5,2.3-1.7,2.7-3c1.2,0.6,2.6,0.7,4,0.1l0.9-0.4
			c1.3-0.6,2.2-1.8,2.5-3.1c1.2,0.6,2.7,0.6,4-0.1l0.9-0.5c1.3-0.7,2.1-1.9,2.3-3.2c1.2,0.5,2.7,0.5,3.9-0.3l0.9-0.5
			c1.2-0.7,2-2,2.2-3.3c1.3,0.4,2.7,0.3,3.9-0.4l0.9-0.6c1.2-0.8,1.9-2.1,2-3.4c1.3,0.4,2.7,0.2,3.9-0.6l0.8-0.6
			c1.2-0.8,1.8-2.1,1.9-3.5c1.3,0.3,2.7,0.1,3.9-0.8l0.8-0.6c1.1-0.9,1.7-2.2,1.7-3.6c1.3,0.3,2.7,0,3.8-1l0.8-0.7
			c1.1-0.9,1.6-2.3,1.6-3.6c1.3,0.2,2.7-0.1,3.8-1.1l0.8-0.7c1.1-1,1.5-2.3,1.4-3.7c1.3,0.2,2.7-0.3,3.7-1.3l0.7-0.7
			c1-1,1.5-2.4,1.3-3.7c1.3,0.1,2.7-0.4,3.7-1.4l0.7-0.7c1-1.1,1.4-2.5,1.1-3.8c1.3,0.1,2.7-0.5,3.6-1.5l0.7-0.8
			c0.9-1.1,1.3-2.5,1-3.8c1.3,0,2.7-0.6,3.6-1.7l0.6-0.8c0.5-0.6,0.8-1.3,0.9-2c0.4-0.2,0.7-0.4,1.1-0.6l0.8-0.6
			c0.7-0.6,1.2-1.4,1.5-2.3l0.1-0.1l0.6-0.8c0.9-1.2,1.1-2.6,0.7-3.9c1.3-0.1,2.6-0.7,3.4-1.9l0.6-0.8c0.8-1.2,1-2.6,0.6-3.9
			c1.3-0.1,2.6-0.8,3.4-2l0.5-0.8c0.8-1.2,0.9-2.6,0.5-3.9c1.3-0.2,2.6-0.9,3.3-2.1l0.5-0.9c0.7-1.2,0.8-2.7,0.3-3.9
			c1.3-0.2,2.5-1,3.2-2.2l0.5-0.9c0.7-1.3,0.7-2.7,0.2-3.9c1.3-0.2,2.5-1.1,3.2-2.3l0.5-0.9c0.7-1.3,0.7-2.7,0.1-3.9
			c1.3-0.3,2.5-1.1,3.1-2.4l0.4-0.9c0.6-1.3,0.6-2.7,0-3.9c1.3-0.3,2.4-1.2,3-2.5l0.4-0.9c0.6-1.3,0.5-2.7-0.1-3.9
			c1.3-0.4,2.4-1.3,2.9-2.6l0.4-0.9c0.5-1.3,0.4-2.8-0.2-3.9c1.3-0.4,2.4-1.4,2.9-2.7l0.4-0.9c0.5-1.3,0.3-2.8-0.4-3.9
			c1.3-0.4,2.3-1.4,2.8-2.8l0.3-1c0.5-1.4,0.3-2.8-0.5-3.9c1.2-0.5,2.3-1.5,2.7-2.8l0.3-1c0.4-1.4,0.2-2.8-0.6-3.9
			c1.2-0.5,2.2-1.5,2.6-2.9l0.3-1c0.4-1.4,0.1-2.8-0.7-3.9c1.2-0.5,2.2-1.6,2.5-3l0.3-1c0.4-1.4,0-2.8-0.8-3.8
			c1.2-0.6,2.1-1.7,2.5-3l0.2-1c0.3-1.4,0-2.8-0.9-3.8c1.2-0.6,2.1-1.7,2.4-3.1l0.2-1c0.3-1.4-0.1-2.8-1-3.8
			c1.2-0.6,2.1-1.8,2.3-3.2l0.2-1c0.2-1.4-0.2-2.8-1.1-3.8c1.2-0.7,2-1.8,2.2-3.2l0.2-1c0.2-1.4-0.3-2.8-1.2-3.8
			c1.1-0.7,2-1.9,2.1-3.3l0.1-1c0.2-1.4-0.3-2.8-1.3-3.7c1.1-0.7,1.9-1.9,2.1-3.3l0.1-1c0.1-1.4-0.4-2.8-1.4-3.7
			c1.1-0.7,1.9-2,2-3.4l0.1-1c0.1-1.4-0.5-2.7-1.4-3.6c1.1-0.8,1.8-2,1.9-3.4l0.1-1c0.1-1.4-0.5-2.7-1.5-3.6c1.1-0.8,1.8-2,1.8-3.5
			v-1c0-1.4-0.6-2.7-1.6-3.6C410.8,656.4,411.4,655.1,411.4,653.6z M36.9,599.6l0.2-1c0.2-1.4-0.2-2.7-1-3.7c1.1-0.6,2-1.7,2.3-3.1
			l0.2-1c0.3-1.4-0.1-2.7-0.9-3.7c1.2-0.6,2-1.7,2.3-3l0.2-1c0.3-1.4,0-2.7-0.8-3.7c0.6-0.3,1.2-0.8,1.6-1.3c0.4-0.5,0.7-1,0.8-1.7
			l0.2-1c0.3-1.4,0-2.7-0.7-3.8c1.2-0.5,2.1-1.6,2.5-2.9l0.3-0.9c0.4-1.3,0.1-2.7-0.6-3.8c1.2-0.5,2.2-1.5,2.6-2.8l0.3-0.9
			c0.4-1.3,0.2-2.7-0.5-3.8c1.2-0.5,2.2-1.4,2.7-2.8l0.3-0.9c0.5-1.3,0.3-2.7-0.4-3.8c1.2-0.4,2.2-1.4,2.7-2.7l0.3-0.9
			c0.5-1.3,0.3-2.7-0.3-3.8c1.2-0.4,2.3-1.3,2.8-2.6l0.4-0.9c0.5-1.3,0.4-2.7-0.2-3.8c1.2-0.4,2.3-1.2,2.9-2.5l0.4-0.9
			c0.6-1.3,0.5-2.7-0.1-3.8c1.2-0.3,2.4-1.2,2.9-2.4l0.4-0.9c0.6-1.3,0.6-2.6,0-3.8c1.3-0.3,2.4-1.1,3-2.3l0.5-0.9
			c0.6-1.2,0.6-2.6,0.1-3.8c1.3-0.2,2.4-1,3.1-2.3l0.5-0.9c0.7-1.2,0.7-2.6,0.2-3.8c1.3-0.2,2.5-1,3.2-2.2l0.5-0.8
			c0.7-1.2,0.8-2.6,0.4-3.8c1.3-0.2,2.5-0.9,3.2-2.1l0.5-0.8c0.7-1.2,0.9-2.6,0.5-3.8c1.3-0.1,2.5-0.8,3.3-1.9l0.6-0.8
			c0.8-1.1,1-2.5,0.6-3.8c1.3-0.1,2.5-0.7,3.3-1.8l0.6-0.8c0.8-1.1,1.1-2.5,0.7-3.7c1.3,0,2.6-0.6,3.4-1.7l0.6-0.8
			c0.9-1.1,1.1-2.5,0.9-3.7l0,0c1.3,0,2.6-0.5,3.4-1.6l0.6-0.7c0.9-1.1,1.2-2.4,1-3.7c1.3,0.1,2.6-0.4,3.5-1.5l0.7-0.7
			c0.9-1,1.3-2.4,1.1-3.6c1.3,0.1,2.6-0.3,3.6-1.3l0.7-0.7c1-1,1.4-2.3,1.3-3.6c1.3,0.2,2.6-0.2,3.6-1.2l0.7-0.7
			c1-0.9,1.5-2.2,1.4-3.5c1.3,0.2,2.6-0.1,3.7-1l0.7-0.6c1-0.9,1.6-2.2,1.6-3.5c1.3,0.3,2.6,0,3.7-0.9l0.8-0.6
			c1.1-0.9,1.7-2.1,1.7-3.4c1.2,0.3,2.6,0.1,3.7-0.7l0.8-0.6c1.1-0.8,1.8-2,1.9-3.3c1.2,0.4,2.6,0.2,3.8-0.6l0.8-0.5
			c1.2-0.8,1.9-2,2-3.2c1.2,0.4,2.6,0.3,3.8-0.4l0.8-0.5c1.2-0.7,1.9-1.9,2.2-3.1c1.2,0.5,2.6,0.4,3.8-0.2l0.9-0.5
			c1.2-0.6,2-1.8,2.3-3c1.2,0.5,2.6,0.6,3.8,0l0.9-0.4c1.3-0.6,2.1-1.7,2.4-2.9c1.1,0.6,2.5,0.7,3.8,0.2l0.9-0.4
			c1.3-0.5,2.2-1.6,2.6-2.8c1.1,0.6,2.5,0.8,3.8,0.3l0.9-0.3c1.3-0.5,2.3-1.4,2.7-2.6c1.1,0.7,2.4,0.9,3.7,0.5l0.9-0.3
			c1.3-0.4,2.3-1.3,2.8-2.5c1,0.7,2.4,1.1,3.7,0.7l0.9-0.2c1.3-0.3,2.4-1.2,3-2.3c1,0.8,2.3,1.2,3.6,0.9l1-0.2
			c1.3-0.2,2.4-1.1,3.1-2.2c0.9,0.9,2.2,1.3,3.6,1.1l1-0.1c1.4-0.2,2.5-0.9,3.2-2c0.9,0.9,2.2,1.4,3.5,1.3l1-0.1
			c1.4-0.1,2.5-0.8,3.3-1.8c0.8,1,2.1,1.6,3.5,1.5h1c1.4,0,2.6-0.7,3.4-1.6c0.8,1,2,1.7,3.4,1.7h1c1.4,0,2.6-0.5,3.5-1.4
			c0.7,1,1.9,1.8,3.3,1.9l1,0.1c1.4,0.1,2.7-0.4,3.6-1.3c0.7,1.1,1.8,1.9,3.2,2.1l1,0.1c1.4,0.2,2.7-0.2,3.6-1.1
			c0.6,1.1,1.7,2,3.1,2.2l1,0.2c1.3,0.3,2.7-0.1,3.7-0.9c0.6,1.1,1.6,2,2.9,2.4l1,0.2c1.3,0.3,2.7,0.1,3.7-0.7
			c0.5,1.2,1.5,2.1,2.8,2.5l0.9,0.3c1.3,0.4,2.7,0.2,3.7-0.5c0.4,1.2,1.4,2.2,2.7,2.7l0.9,0.3c1.3,0.5,2.7,0.4,3.8-0.3
			c0.4,1.2,1.3,2.3,2.5,2.8l0.9,0.4c1.3,0.6,2.6,0.5,3.8-0.1c0.3,1.2,1.1,2.3,2.4,2.9l0.9,0.4c1.2,0.6,2.6,0.6,3.8,0.1
			c0.3,1.3,1,2.4,2.2,3.1l0.8,0.5c1.2,0.7,2.6,0.7,3.8,0.3c0.2,1.3,0.9,2.4,2.1,3.2l0.8,0.5c1.2,0.7,2.5,0.9,3.8,0.5
			c0.1,1.3,0.8,2.5,1.9,3.3l0.8,0.6c1.1,0.8,2.5,1,3.7,0.6c0.1,1.3,0.7,2.5,1.8,3.3l0.8,0.6c1.1,0.8,2.5,1.1,3.7,0.8
			c0,1.3,0.6,2.5,1.7,3.4l0.8,0.6c1.1,0.9,2.4,1.2,3.7,0.9c0,1.3,0.5,2.6,1.5,3.5l0.7,0.7c1,0.9,2.4,1.3,3.6,1.1
			c-0.1,1.3,0.4,2.6,1.4,3.6l0.7,0.7c1,1,2.3,1.4,3.6,1.2c-0.1,1.3,0.3,2.6,1.2,3.6l0.7,0.7c1,1,2.3,1.5,3.5,1.4
			c-0.2,1.3,0.2,2.6,1.1,3.6l0.7,0.7c0.9,1,2.2,1.5,3.5,1.5c-0.2,1.3,0.1,2.6,1,3.7l0.6,0.8c0.9,1.1,2.1,1.6,3.4,1.6l0,0
			c-0.3,1.3,0,2.6,0.8,3.7l0.6,0.8c0.8,1.1,2.1,1.7,3.4,1.8c-0.3,1.2-0.1,2.6,0.7,3.8l0.6,0.8c0.8,1.1,2,1.8,3.3,1.9
			c-0.4,1.2-0.2,2.6,0.6,3.8l0.5,0.8c0.7,1.1,1.8,1.7,3,1.9c0.1,0.1,0.1,0.3,0.2,0.4c-0.3,1.1-0.1,2.4,0.5,3.5l0.5,0.8
			c0.6,1,1.5,1.6,2.5,1.9c0.2,0.3,0.3,0.5,0.5,0.8c-0.2,1-0.1,2.2,0.5,3.2l0.5,0.9c0.7,1.1,1.7,1.9,2.9,2.1c0,0.1,0.1,0.1,0.1,0.2
			c0,0,0-0.1-0.1-0.1c0.1,0,0.1,0,0.2,0c0,0.1,0,0.1-0.1,0.2c-0.4,1.2-0.4,2.5,0.3,3.6l0.5,0.9c0.7,1.2,1.8,2,3.1,2.3
			c-0.5,1.2-0.5,2.6,0.1,3.8l0.4,0.9c0.6,1.2,1.7,2.1,3,2.4c-0.6,1.2-0.6,2.6,0,3.8l0.4,0.9c0.6,1.3,1.7,2.1,2.9,2.5
			c-0.6,1.1-0.7,2.5-0.1,3.8l0.4,0.9c0.5,1.3,1.6,2.2,2.8,2.5c-0.6,1.1-0.8,2.5-0.2,3.8l0.4,0.9c0.5,1.3,1.5,2.2,2.8,2.6
			c-0.7,1.1-0.8,2.5-0.4,3.8l0.3,0.9c0.5,1.3,1.5,2.3,2.7,2.7c-0.7,1.1-0.9,2.5-0.5,3.8l0.3,0.9c0.4,1.3,1.4,2.3,2.6,2.8
			c-0.7,1.1-1,2.4-0.6,3.8l0.3,0.9c0.4,1.3,1.4,2.4,2.6,2.9c-0.7,1.1-1,2.4-0.7,3.8l0.3,0.9c0.4,1.4,1.3,2.4,2.5,2.9
			c-0.8,1-1.1,2.4-0.8,3.8l0.2,0.9c0.3,1.4,1.2,2.4,2.4,3c-0.8,1-1.2,2.4-0.9,3.7l0.2,0.9c0.3,1.4,1.2,2.5,2.3,3.1
			c-0.8,1-1.2,2.3-1,3.7l0.2,1c0.3,1.4,1.1,2.5,2.2,3.1c-0.9,1-1.3,2.3-1.1,3.7l0.2,1c0.2,1.4,1,2.5,2.2,3.2c-0.9,1-1.3,2.3-1.1,3.7
			l0.1,1c0.1,0.8,0.4,1.5,0.9,2.1c-1.4,13.9-6.6,27.6-16.5,37.3c-0.1-16.8-8-32.6-18.5-45.7c-10.4-13.1-23.4-24-35.5-35.5
			c-25.1-23.9-46.9-50.8-68.1-78.1c-4.1-5.3-8.5-9.6-11.7-14.5c3.5-10.6,3.7-29.1,0.9-37.6c-0.6-1.8-2.6-2.8-4.4-2.2
			c-1.8,0.6-2.8,2.6-2.2,4.4c2.8,8.4,1.7,29.2-2,35.9c-0.1,0.3-0.2,0.5-0.3,0.8c-10.7,4.3-19.9,12.2-27.5,21.1
			c-9,10.5-16.3,22.4-25.1,33.2c-9.8,12-21.4,22.5-34.3,31c-17.9,11.8-38.1,19.7-55.6,32c-17.5,12.4-32.6,31-32.8,52.4
			c-3.8-10.3-8.4-20.5-12.8-30.7c0,2.1,0,4.2,0,6.3c-5.7-8.7-11.9-16.5-18.5-18.6c-0.2-0.4-0.4-0.8-0.7-1.1
			C35.9,602.1,36.7,601,36.9,599.6z M313.8,641.3c-0.2,1.5-1.2,2.7-2.6,3.3c-3.4,1.5-12.4,5.7-22.1,5.7c-2,0-4.1-0.2-6.2-0.6
			c-11.9-2.5-15.5-2.9-21-1.5c-1.5,0.4-3-0.2-3.9-1.5c-1.1-1.6-1.1-4,0-5.5c3.7-5.2,13.8-17.4,26.6-17.4c3.9,0,7.6,0.9,11.1,2.3
			c0.1,0,0.1-0.1,0.2-0.1c2.5-0.6,4-4.8,4.3-6.2c0.3-1.3,1.6-2.2,3-1.9c1.3,0.3,2.2,1.6,1.9,3c-0.1,0.6-1.2,4.9-4.1,7.8
			c0.5,0.3,1,0.6,1.5,0.9c0.2-0.1,0.4-0.2,0.5-0.2c2.6-0.6,4.1-5,4.3-6.2c0.3-1.3,1.6-2.2,3-1.9c1.3,0.3,2.2,1.6,1.9,3
			c-0.2,0.7-1.4,5.9-5,8.6c0.6,0.5,1.2,0.9,1.8,1.4c1.9-1.3,3-4.5,3.3-5.7c0.3-1.3,1.6-2.2,3-1.9c1.3,0.3,2.2,1.6,1.9,3
			c-0.1,0.7-1.3,5.2-4.4,8C313.7,638.7,314,640,313.8,641.3z M256.9,771.7c1.3,2.4,1.4,5.4,0.1,7.9c-1.1,2.2-2.4,3.5-3.5,4.6
			c-7.1,7.6-19.2,11.5-36,11.5c-18.1,0-31-4.8-38.5-14.2c-1.9-2.4-2.4-5.7-1.2-8.6c0.3-0.6,0.6-1.2,1-1.7c-1.8-0.4-3.6-1-5.3-1.6
			c-2.6-0.9-5.2-1.9-4.7-4.4c0.5-2.4,3.1-2.2,3.9-2.2c3.7,0.1,14.9-2.8,22.3-4.8c3.3-0.9,6.1-1.6,8.1-2c5.3-1.2,11,0.9,14.5,2.6
			c3.5-1.7,9.2-3.8,14.5-2.6c2,0.4,4.8,1.2,8.1,2c7.4,2,18.6,4.9,22.3,4.8c0.9,0,3.5-0.1,3.9,2.2c0.5,2.5-2.2,3.5-4.8,4.4
			c-1.6,0.6-3.3,1.1-5,1.5C256.7,771.3,256.8,771.5,256.9,771.7z M118.8,629.6c-0.3-1.3,0.6-2.7,1.9-3c1.4-0.3,2.7,0.6,3,1.9
			c0.3,1.2,1.4,4.4,3.3,5.7c0.6-0.5,1.1-0.9,1.8-1.4c-3.6-2.7-4.9-7.9-5-8.6c-0.3-1.3,0.6-2.7,1.9-3c1.4-0.3,2.7,0.6,3,1.9
			c0.3,1.4,1.8,5.6,4.3,6.2c0.2,0,0.4,0.1,0.5,0.2c0.5-0.3,1-0.6,1.5-0.9c-2.9-2.8-4-7.1-4.1-7.8c-0.3-1.3,0.6-2.7,1.9-3
			c1.4-0.3,2.7,0.6,3,1.9c0.3,1.4,1.8,5.6,4.3,6.2c0.1,0,0.1,0,0.2,0.1c3.5-1.4,7.2-2.3,11.1-2.3c12.8,0,22.8,12.2,26.6,17.4
			c1.1,1.5,1.1,3.9,0,5.5c-0.9,1.3-2.4,1.9-3.9,1.5c-5.5-1.5-9.1-1-21,1.5c-2.1,0.4-4.1,0.6-6.2,0.6c-9.7,0-18.7-4.1-22.1-5.7
			c-1.4-0.6-2.3-1.9-2.6-3.3c-0.2-1.3,0.2-2.7,1-3.7C120,634.9,118.9,630.3,118.8,629.6z M195.6,683.8c0.7-1.2,2.2-1.7,3.4-1
			s1.7,2.2,1,3.4c-3.9,7.3,0.3,15.3,0.4,15.4c0.4,0.8,0.4,1.7,0,2.5s-1.3,1.2-2.1,1.2c-6.9,0-12.5,5.6-12.5,12.5
			c0,6.9,5.6,12.5,12.5,12.5c1.4,0,2.5,1.1,2.5,2.5c0,1.4-1.1,2.5-2.5,2.5c-9.6,0-17.5-7.8-17.5-17.5c0-8.4,6-15.4,13.9-17.1
			C193.4,696.8,192.2,690.2,195.6,683.8z M202.9,719.7c1.2,0.5,5.4,3.2,4.8,5c-4.2,3.1-10.4-3.4-15.2-3.4
			C192.9,716.9,200,718.8,202.9,719.7z M185,618.6c-1,0.9-2.6,0.8-3.5-0.2c-11.6-13.2-28.1-16.5-49.2-9.7
			c-16.1,5.2-29,14.6-29.1,14.7c-0.4,0.3-1,0.5-1.5,0.5c-0.8,0-1.5-0.4-2-1c-0.8-1.1-0.6-2.7,0.5-3.5c0.5-0.4,13.5-9.9,30.4-15.4
			c22.9-7.4,41.8-3.5,54.6,11.1C186.1,616.2,186,617.7,185,618.6z M235,686.1c-0.7-1.2-0.2-2.7,1-3.4s2.7-0.2,3.4,1
			c3.5,6.4,2.3,13,1,16.8c7.9,1.7,13.9,8.7,13.9,17.1c0,9.6-7.8,17.5-17.5,17.5c-1.4,0-2.5-1.1-2.5-2.5c0-1.4,1.1-2.5,2.5-2.5
			c6.9,0,12.5-5.6,12.5-12.5c0-6.9-5.6-12.5-12.5-12.5c-0.9,0-1.7-0.5-2.2-1.2c-0.4-0.8-0.5-1.7,0-2.5
			C234.6,701.4,238.9,693.4,235,686.1z M242.5,721.4c-4.7,0-10.9,6.4-15.2,3.4c-0.6-1.8,3.6-4.5,4.8-5
			C235,718.8,242.1,716.9,242.5,721.4z M302.8,608.7c-21.1-6.8-37.6-3.5-49.2,9.7c-0.9,1-2.5,1.1-3.5,0.2c-1-0.9-1.1-2.5-0.2-3.5
			c12.9-14.7,31.8-18.5,54.6-11.1c16.9,5.4,29.9,15,30.4,15.4c1.1,0.8,1.3,2.4,0.5,3.5c-0.5,0.7-1.2,1-2,1c-0.5,0-1-0.2-1.5-0.5
			C331.7,623.3,318.9,613.9,302.8,608.7z M31.7,640.3c0.7-1.2,2.3-1.5,3.4-0.8c0.3,0.2,8.5,5.3,16.5,13.8
			c10.7,11.6,15.8,23.9,14.7,35.8c-0.1,1.3-1.2,2.3-2.5,2.3c-0.1,0-0.2,0-0.2,0c-1.4-0.1-2.4-1.3-2.3-2.7
			c2.4-25.4-28.5-44.8-28.8-45C31.3,643,30.9,641.5,31.7,640.3z M36.9,713.4c-0.1-0.1-0.2-0.1-0.3-0.2c0.2-0.3,0.4-0.5,0.6-0.9l0,0
			C37.1,712.7,37,713.1,36.9,713.4z M69.6,801.9c0-0.1,0.1-0.2,0.1-0.2c0.2,0,0.4,0,0.6,0c0,0.2,0,0.3,0,0.5
			C70.1,802,69.8,801.9,69.6,801.9z M72.5,793.8l-0.7-0.7c-1-0.9-2.4-1.3-3.7-1.1c0.1-1.3-0.4-2.6-1.4-3.6l-0.7-0.7
			c-1-0.9-2.3-1.3-3.5-1.2c0.1-0.8,0-1.7-0.4-2.5l-0.4-0.9c-0.6-1.2-1.7-2.1-3-2.4c0.6-1.2,0.6-2.6,0.1-3.8l-0.4-0.9
			c-0.6-1.3-1.7-2.1-2.9-2.5c0.6-1.1,0.7-2.5,0.2-3.8l-0.4-0.9c-0.5-1.3-1.6-2.2-2.8-2.6c0.6-1.1,0.8-2.5,0.3-3.8l-0.4-0.9
			c-0.5-1.3-1.5-2.2-2.8-2.6c0.7-1.1,0.8-2.5,0.4-3.8l-0.3-0.9c-0.5-1.3-1.5-2.3-2.7-2.7c0.7-1.1,0.9-2.5,0.5-3.8l-0.3-0.9
			c-0.4-1.3-1.4-2.3-2.6-2.8c0.7-1.1,1-2.4,0.6-3.8l-0.3-0.9c-0.4-1.3-1.3-2.4-2.5-2.9c0.8-1.1,1-2.4,0.7-3.8l-0.3-1
			c-0.4-1.4-1.3-2.4-2.5-2.9c0.8-1,1.1-2.4,0.8-3.8l-0.2-0.9c-0.3-1.4-1.2-2.4-2.4-3c0.5-0.6,0.8-1.4,0.9-2.1c0.5,0.3,1,0.6,1.5,0.7
			c-0.6,1.2-0.6,2.6,0,3.9l0.4,0.9c0.6,1.3,1.7,2.1,3,2.4c-0.6,1.2-0.6,2.6,0,3.9l0.4,0.9c0.6,1.3,1.7,2.1,3,2.4
			c-0.6,1.2-0.6,2.6,0,3.9l0.4,0.9c0.6,1.3,1.8,2.1,3,2.4c-0.6,1.2-0.6,2.6,0,3.9l0.4,0.9c0.6,1.3,1.8,2.1,3.1,2.4
			c-0.5,1.2-0.6,2.6,0.1,3.9l0.5,0.9c0.6,1.3,1.8,2.1,3.1,2.4c-0.5,1.2-0.5,2.6,0.1,3.9l0.5,0.9c0.7,1.3,1.8,2.1,3.1,2.3
			c-0.5,1.2-0.5,2.7,0.2,3.9l0.5,0.9c0.7,1.3,1.9,2,3.2,2.3c-0.5,1.2-0.4,2.7,0.3,3.9l0.5,0.9c0.7,1.2,1.9,2,3.2,2.2
			c-0.5,1.2-0.4,2.7,0.4,3.9l0.5,0.9c0.7,1.2,2,2,3.3,2.1c-0.4,1.3-0.3,2.7,0.5,3.9l0.6,0.9c0.8,1.2,2,1.9,3.4,2
			c-0.4,1.3-0.2,2.7,0.6,3.9l0.6,0.8c0.8,1.2,2.1,1.8,3.4,1.9c-0.4,1.3-0.1,2.7,0.7,3.9l0.6,0.8c0.9,1.2,2.2,1.8,3.5,1.8
			c-0.3,1.3,0,2.7,0.9,3.9l0.4,0.4c-1-0.5-2-0.6-3-0.4c0-1.3-0.6-2.6-1.7-3.4l-0.9-0.7c-1.1-0.9-2.5-1.2-3.7-0.9
			c0-1.3-0.5-2.6-1.6-3.5l-0.7-0.6c-1.1-0.9-2.4-1.2-3.7-1C74,796,73.5,794.7,72.5,793.8z M323.6,851.9l-0.7,0.7
			c-1,0.9-1.5,2.2-1.5,3.5c-1.3-0.2-2.6,0.1-3.7,1l-0.8,0.6c-1.1,0.9-1.6,2.2-1.6,3.4c-1.3-0.3-2.6,0-3.7,0.9l-0.8,0.6
			c-1.1,0.8-1.7,2.1-1.7,3.4c-1.2-0.3-2.6-0.1-3.7,0.7l-0.8,0.6c-1.1,0.8-1.8,2-1.9,3.3c-1.2-0.4-2.6-0.2-3.8,0.5l-0.8,0.5
			c-1.2,0.7-1.9,1.9-2,3.2c-1.2-0.4-2.6-0.3-3.8,0.4l-0.8,0.5c-1.2,0.7-2,1.8-2.2,3.1c-1.2-0.5-2.6-0.5-3.8,0.2l-0.9,0.4
			c-1.2,0.6-2,1.8-2.3,3c-1.2-0.5-2.5-0.6-3.8,0l-0.9,0.4c-1.3,0.6-2.1,1.6-2.5,2.9c-1.1-0.6-2.5-0.7-3.8-0.2l-0.9,0.4
			c-1.3,0.5-2.2,1.5-2.6,2.7c-1.1-0.7-2.5-0.8-3.8-0.4l-0.9,0.3c-1.3,0.4-2.3,1.4-2.7,2.6c-1.1-0.7-2.4-1-3.7-0.6l-0.9,0.3
			c-1.3,0.4-2.3,1.3-2.9,2.4c-1-0.8-2.4-1.1-3.7-0.8l-1,0.2c-1.3,0.3-2.4,1.2-3,2.3c-1-0.8-2.3-1.2-3.7-1l-1,0.2
			c-1.4,0.2-2.5,1-3.1,2.1c-0.9-0.9-2.2-1.3-3.6-1.2l-1,0.1c-1.4,0.2-2.5,0.9-3.2,1.9c-0.9-0.9-2.1-1.5-3.5-1.4l-1,0.1
			c-1.4,0.1-2.6,0.8-3.3,1.8c-0.8-1-2-1.6-3.4-1.6l0,0h-1c-1.4,0-2.6,0.6-3.4,1.6c-0.8-1-2-1.7-3.4-1.7h-1c-0.1,0-0.2,0-0.3,0
			c-1.3,0-2.4,0.5-3.3,1.4c-0.7-1-1.9-1.8-3.2-1.9l-1-0.1c-1.4-0.1-2.7,0.3-3.6,1.2c-0.7-1.1-1.8-1.9-3.2-2.1l-0.9-0.2
			c-1.4-0.2-2.7,0.2-3.7,1c-0.6-1.1-1.7-2-3-2.3l-0.9-0.2c-1.3-0.3-2.7,0-3.7,0.8c-0.5-1.2-1.6-2.1-2.9-2.4l-0.9-0.3
			c-1.3-0.4-2.7-0.1-3.7,0.6c-0.5-1.2-1.5-2.1-2.8-2.6l-0.9-0.3c-1.3-0.4-2.7-0.2-3.7,0.4c-0.4-1.2-1.3-2.2-2.6-2.7l-0.9-0.4
			c-1.3-0.5-2.7-0.4-3.8,0.2c-0.4-1.2-1.2-2.3-2.5-2.9l-0.9-0.4c-1.3-0.6-2.6-0.5-3.8,0c-0.3-1.2-1.1-2.4-2.3-3l-0.9-0.4
			c-1.2-0.6-2.6-0.6-3.8-0.1c-0.2-1.3-1-2.4-2.2-3.1l-0.8-0.5c-1.2-0.7-2.6-0.8-3.8-0.3c-0.2-1.3-0.9-2.5-2.1-3.2l-0.8-0.5
			c-1.2-0.7-2.5-0.9-3.8-0.5c-0.1-1.3-0.8-2.5-1.9-3.3l-0.8-0.6c-1.1-0.8-2.5-1-3.7-0.7c-0.1-1.3-0.7-2.5-1.8-3.4l-0.8-0.6
			c-1.1-0.8-2.5-1.1-3.7-0.8c0-1.3-0.6-2.6-1.6-3.4l-0.8-0.6c-1.1-0.9-2.4-1.2-3.7-1c0-1.3-0.5-2.6-1.5-3.5l-0.7-0.7
			c-1-0.9-2.3-1.3-3.6-1.1c0.1-1.3-0.3-2.6-1.3-3.6l-0.7-0.7c-1-1-2.3-1.4-3.6-1.3c0.1-1.3-0.2-2.6-1.2-3.6l-0.7-0.7
			c-0.9-1-2.2-1.5-3.5-1.4c0.2-1.3-0.1-2.6-1.1-3.7l-0.6-0.7c-0.9-1-2.2-1.6-3.5-1.5c0.2-1.3,0-2.6-0.9-3.7l-0.6-0.8
			c-0.9-1.1-2.1-1.6-3.4-1.7c0.3-1.3,0-2.6-0.8-3.7l-0.6-0.8c-0.8-1.1-2.1-1.7-3.4-1.8c0.3-1.2,0.1-2.6-0.7-3.8l-0.6-0.8
			c-0.8-1.1-2-1.8-3.3-1.9c0.4-1.2,0.2-2.6-0.5-3.8l-0.5-0.8c-0.8-1.2-2-1.9-3.2-2c0.2-0.7,0.3-1.3,0.2-2c0.8,0.3,1.7,0.4,2.5,0.2
			c0,1.3,0.5,2.6,1.7,3.6l0.8,0.6c1.1,0.9,2.5,1.2,3.8,0.9c0,1.3,0.6,2.6,1.7,3.5l0.8,0.6c1.1,0.9,2.5,1.1,3.8,0.8
			c0,1.3,0.7,2.6,1.8,3.5l0.8,0.6c1.1,0.8,2.6,1.1,3.8,0.7c0.1,1.3,0.7,2.6,1.9,3.4l0.8,0.6c1.2,0.8,2.6,1,3.9,0.6
			c0.1,1.3,0.8,2.6,2,3.4l0.8,0.6c1.2,0.8,2.6,1,3.9,0.5c0.1,1.3,0.8,2.6,2,3.3l0.9,0.5c1.2,0.8,2.6,0.9,3.9,0.5
			c0.2,1.3,0.9,2.6,2.1,3.3l0.9,0.5c1.2,0.7,2.7,0.8,3.9,0.4c0.2,1.3,1,2.5,2.2,3.2l0.9,0.5c1.2,0.7,2.7,0.8,3.9,0.3
			c0.2,1.3,1,2.5,2.3,3.2l0.9,0.5c1.3,0.7,2.7,0.7,3.9,0.1c0.3,1.3,1.1,2.5,2.4,3.1l0.9,0.4c1.3,0.6,2.7,0.6,3.9,0
			c0.3,1.3,1.2,2.4,2.5,3l0.9,0.4c1.3,0.6,2.7,0.5,3.9-0.1c0.3,1.3,1.3,2.4,2.6,3l0.9,0.4c1.3,0.6,2.8,0.4,3.9-0.2
			c0.4,1.3,1.3,2.4,2.7,2.9l1,0.4c1.3,0.5,2.8,0.3,3.9-0.3c0.4,1.3,1.4,2.3,2.8,2.8l1,0.3c1.4,0.5,2.8,0.3,3.9-0.5
			c0.5,1.2,1.5,2.3,2.9,2.7l1,0.3c1.4,0.4,2.8,0.2,3.9-0.6c0.5,1.2,1.6,2.2,3,2.6l1,0.3c1.4,0.4,2.8,0.1,3.9-0.7
			c0.6,1.2,1.7,2.2,3.1,2.5l1,0.2c1.4,0.3,2.8-0.1,3.8-0.9c0.6,1.2,1.7,2.1,3.2,2.4l1,0.2c1.4,0.3,2.8-0.2,3.8-1
			c0.7,1.2,1.8,2,3.2,2.2l1,0.1c1.4,0.2,2.8-0.3,3.8-1.2c0.7,1.1,1.9,2,3.3,2.1l1,0.1c1.4,0.1,2.8-0.4,3.7-1.4c0.8,1.1,2,1.9,3.4,2
			l1,0.1c1.4,0.1,2.8-0.5,3.6-1.5c0.8,1.1,2.1,1.8,3.5,1.8h1c0,0,0,0,0.1,0c1.4,0,2.7-0.7,3.5-1.7c0.8,1,2.1,1.7,3.5,1.7h0.1h1
			c1.4,0,2.7-0.8,3.5-1.8c0.1,0.1,0.2,0.2,0.3,0.3c0.9,0.9,2.1,1.5,3.5,1.5c1.8,0,3.4-1,4.2-2.5c0.8,0.9,2,1.5,3.3,1.5
			c0.2,0,0.3,0,0.5,0l1-0.1c1.4-0.2,2.6-1,3.3-2.2c1,0.9,2.4,1.4,3.8,1.1l1-0.2c1.4-0.2,2.6-1.1,3.2-2.3c1,0.9,2.4,1.3,3.8,1l1-0.2
			c1.4-0.3,2.5-1.3,3.1-2.5c1.1,0.8,2.5,1.1,3.9,0.8l1-0.3c1.4-0.4,2.5-1.4,3-2.6c1.1,0.8,2.5,1,3.9,0.6l1-0.3
			c1.4-0.4,2.4-1.5,2.8-2.7c1.1,0.7,2.6,0.9,3.9,0.4l1-0.4c1.4-0.5,2.3-1.6,2.7-2.9c1.2,0.7,2.6,0.8,4,0.2l0.9-0.4
			c1.3-0.6,2.3-1.7,2.6-3c1.2,0.6,2.6,0.7,4,0.1l0.9-0.4c1.3-0.6,2.2-1.8,2.5-3.1c1.2,0.6,2.7,0.6,3.9-0.1l0.9-0.5
			c1.3-0.7,2.1-1.9,2.3-3.2c0.6,0.2,1.2,0.3,1.9,0.3C324.4,851.2,324,851.5,323.6,851.9z M93.2,812.2c-0.3,0-0.5,0-0.8,0.1
			c0-1-0.4-1.9-1-2.7c0.5,0.2,1.1,0.3,1.7,0.3C92.9,810.7,93,811.5,93.2,812.2z M327.2,850.7c-0.2,0-0.5,0-0.7,0
			c0.2-0.1,0.3-0.2,0.5-0.2l0.2-0.1C327.2,850.4,327.2,850.6,327.2,850.7z M402.9,680.9c-1.1,0.7-1.8,1.9-2,3.3l-0.1,1
			c-0.1,1.4,0.4,2.7,1.3,3.6c-1.1,0.7-1.9,1.9-2,3.2l-0.1,1c-0.2,1.4,0.3,2.7,1.2,3.7c-1.1,0.7-1.9,1.8-2.1,3.2l-0.1,1
			c-0.2,1.4,0.2,2.7,1.1,3.7c-1.1,0.6-2,1.8-2.2,3.1l-0.2,1c-0.2,1.4,0.2,2.7,1,3.7c-1.1,0.6-2,1.7-2.3,3.1l-0.2,1
			c-0.3,1.4,0.1,2.7,0.9,3.7c-1.2,0.6-2.1,1.7-2.4,3l-0.2,0.9c-0.3,1.4,0,2.7,0.8,3.8c-1.2,0.6-2.1,1.6-2.4,3l-0.2,0.9
			c-0.4,1.4-0.1,2.7,0.7,3.8c-1.2,0.5-2.1,1.5-2.5,2.9l-0.3,0.9c-0.4,1.3-0.1,2.7,0.6,3.8c-1.2,0.5-2.2,1.5-2.6,2.8l-0.3,0.9
			c-0.4,1.3-0.2,2.7,0.5,3.8c-1.2,0.5-2.2,1.4-2.7,2.7l-0.3,0.9c-0.5,1.3-0.3,2.7,0.4,3.8c-1.2,0.4-2.3,1.4-2.7,2.7l-0.4,0.9
			c-0.5,1.3-0.3,2.7,0.3,3.8c-1.2,0.4-2.3,1.3-2.8,2.6l-0.4,0.9c-0.5,1.3-0.4,2.7,0.2,3.8c-1.2,0.4-2.3,1.2-2.9,2.5l-0.4,0.9
			c-0.6,1.3-0.5,2.7,0.1,3.8c-1.3,0.3-2.4,1.2-3,2.4l-0.4,0.9c-0.6,1.2-0.6,2.6,0,3.8c-1.3,0.3-2.4,1.1-3,2.3l-0.5,0.9
			c-0.6,1.2-0.7,2.6-0.2,3.8c-1.3,0.2-2.4,1-3.1,2.2l-0.5,0.9c-0.7,1.2-0.7,2.6-0.3,3.8c-1.3,0.2-2.5,0.9-3.2,2.1l-0.5,0.8
			c-0.7,1.2-0.8,2.6-0.4,3.8c-1.3,0.2-2.5,0.9-3.2,2l-0.5,0.8c-0.8,1.2-0.9,2.5-0.5,3.8c-1.3,0.1-2.5,0.8-3.3,1.9L354,817
			c-0.8,1.1-1,2.5-0.7,3.8c-1.3,0.1-2.5,0.7-3.4,1.8l-0.6,0.8c-0.3,0.4-0.5,0.8-0.6,1.2l-0.2,0.2c-0.9,0.7-1.4,1.7-1.6,2.7
			c-0.4,0.2-0.7,0.3-1.1,0.6c-1,0-1.9,0.3-2.7,0.9l-0.8,0.6c-1.1,0.8-1.7,2.1-1.8,3.4c-1.2-0.3-2.6-0.1-3.8,0.7l-0.8,0.5
			c-1.1,0.8-1.8,2-1.9,3.3c-1.2-0.4-2.6-0.2-3.8,0.5l-0.8,0.5c-1.2,0.7-1.9,1.9-2,3.2c-1.2-0.4-2.6-0.3-3.8,0.4l-0.8,0.5
			c-1.2,0.7-2,1.9-2.2,3.1c-1.2-0.5-2.6-0.4-3.8,0.2l-0.8,0.4c-1.2,0.6-2,1.8-2.3,3c-1.2-0.5-2.6-0.6-3.8,0l-0.9,0.4
			c-1.3,0.6-2.1,1.7-2.4,2.9c-1.1-0.6-2.5-0.7-3.8-0.1l-0.9,0.4c-1.3,0.5-2.2,1.6-2.6,2.8c-1.1-0.6-2.5-0.8-3.8-0.3l-0.9,0.3
			c-1.3,0.5-2.2,1.5-2.7,2.7c-1.1-0.7-2.5-0.9-3.8-0.5l-0.9,0.3c-1.3,0.4-2.3,1.4-2.8,2.6c-1.1-0.7-2.4-1-3.7-0.6l-0.9,0.2
			c-1.3,0.4-2.4,1.3-2.9,2.4c-1-0.8-2.4-1.1-3.7-0.8l-0.9,0.2c-1.4,0.3-2.4,1.2-3,2.3c-1-0.8-2.3-1.2-3.7-1l-0.9,0.2
			c-1.4,0.2-2.5,1-3.1,2.1c-0.9-0.9-2.2-1.3-3.6-1.2l-0.9,0.1c-1.4,0.2-2.6,1-3.3,2.1c-0.9-1.1-2.2-1.8-3.7-1.8
			c-1.4,0-2.7,0.6-3.6,1.6c-0.2,0.2-0.4,0.4-0.5,0.6c-0.9-1-2.1-1.5-3.5-1.5h-1c-1.4,0-2.6,0.7-3.4,1.7c-0.8-1-2-1.6-3.4-1.7h-1
			c-1.4,0-2.6,0.6-3.5,1.5c-0.8-1-2-1.7-3.3-1.8l-1-0.1c-1.4-0.1-2.6,0.5-3.5,1.4c-0.7-1.1-1.9-1.8-3.3-2l-1-0.1
			c-1.4-0.1-2.7,0.3-3.6,1.2c-0.7-1.1-1.8-1.9-3.2-2.1l-1-0.1c-1.4-0.2-2.7,0.2-3.6,1.1c-0.6-1.1-1.7-2-3.1-2.2l-1-0.2
			c-1.4-0.3-2.7,0.1-3.7,0.9c-0.6-1.1-1.7-2-3-2.3l-0.9-0.2c-1.4-0.3-2.7,0-3.7,0.8c-0.5-1.2-1.6-2.1-2.9-2.5l-1-0.3
			c-1.3-0.4-2.7-0.1-3.8,0.6c-0.5-1.2-1.5-2.2-2.8-2.6l-0.9-0.3c-1.3-0.4-2.7-0.2-3.8,0.5c-0.5-1.2-1.4-2.2-2.7-2.7l-0.9-0.3
			c-1.3-0.5-2.7-0.3-3.8,0.4c-0.4-1.2-1.4-2.3-2.7-2.8l-0.9-0.4c-1.3-0.5-2.7-0.4-3.8,0.3c-0.4-1.2-1.3-2.3-2.6-2.8l-0.9-0.4
			c-1.3-0.5-2.7-0.5-3.8,0.1c-0.3-1.2-1.2-2.3-2.5-2.9l-0.9-0.4c-1.3-0.6-2.7-0.5-3.8,0c-0.3-1.3-1.1-2.4-2.4-3l-0.9-0.4
			c-1.2-0.6-2.6-0.6-3.8-0.1c-0.3-1.3-1.1-2.4-2.3-3.1l-0.9-0.5c-1.2-0.7-2.6-0.7-3.8-0.2c0-0.1-0.1-0.2-0.1-0.3
			c-0.1-1.3-0.7-2.5-1.8-3.3l-0.8-0.6c-1.1-0.8-2.5-1-3.7-0.7c0-1.3-0.6-2.5-1.7-3.4l-0.8-0.6c-1.1-0.9-2.4-1.2-3.7-0.9
			c0-1.3-0.5-2.6-1.5-3.5l-0.7-0.6c-1-0.9-2.4-1.3-3.6-1.1c0.1-1.3-0.4-2.6-1.4-3.5l-0.7-0.7c-1-1-2.3-1.4-3.6-1.2
			c0.1-1.3-0.3-2.6-1.2-3.6l-0.7-0.7c-0.9-1-2.2-1.5-3.5-1.4c0.2-1.3-0.2-2.6-1.1-3.6l-0.6-0.7c-0.9-1-2.2-1.6-3.5-1.5
			c0.2-1.3,0-2.6-0.9-3.7l-0.6-0.8c-0.9-1.1-2.1-1.7-3.4-1.7c0.3-1.3,0.1-2.6-0.8-3.7l-0.6-0.8c-0.8-1.1-2.1-1.7-3.4-1.8
			c0.3-1.2,0.1-2.6-0.6-3.8l-0.6-0.8c-0.8-1.1-2-1.8-3.3-1.9c0.4-1.2,0.2-2.6-0.5-3.8l-0.5-0.8c-0.8-1.2-2-1.9-3.3-2
			c0.4-1.2,0.3-2.6-0.4-3.8l-0.5-0.8c-0.7-1.2-1.9-1.9-3.2-2.1c0.5-1.2,0.4-2.6-0.3-3.8l-0.5-0.9c-0.7-1.2-1.9-2-3.2-2.2
			c0.5-1.2,0.4-2.6-0.2-3.8l-0.5-0.9c-0.7-1.2-1.8-2-3.1-2.3c0.5-1.2,0.5-2.6-0.2-3.8l-0.5-0.9c-0.6-1.2-1.8-2.1-3.1-2.3
			c0.5-1.2,0.5-2.6-0.1-3.9l-0.4-0.9c-0.6-1.3-1.8-2.1-3-2.4c0.5-1.2,0.6-2.6,0-3.9l-0.4-0.9c-0.6-1.3-1.8-2.1-3-2.4
			c0.6-1.2,0.6-2.6,0-3.9l-0.4-0.9c-0.6-1.3-1.7-2.1-3-2.4c0.6-1.2,0.6-2.6,0-3.9l-0.4-0.9c-0.6-1.3-1.7-2.1-3-2.4
			c0.6-1.2,0.6-2.6,0-3.9l-0.4-0.9c-0.6-1.3-1.7-2.1-3-2.4c0.6-1.2,0.6-2.6,0-3.9l-0.4-0.9c-0.6-1.3-1.8-2.1-3.1-2.4
			c0.6-1.2,0.6-2.6-0.1-3.9l-0.4-0.9c-0.6-1.3-1.8-2.1-3.1-2.4c0.5-1.2,0.5-2.6-0.1-3.9l-0.5-0.9c-0.6-1.2-1.8-2-3-2.3
			c0.1-0.3,0.1-0.6,0.1-0.9c0.2-1,0-2.1-0.5-3l-0.4-0.7c-0.3-0.5-0.7-1-1.2-1.3c0.8-0.9,1.2-2.1,1.1-3.5l-0.1-1
			c-0.1-1.4-0.9-2.6-2-3.3c0.9-0.9,1.5-2.2,1.4-3.6l-0.1-1c-0.1-1.4-0.8-2.6-1.9-3.3c0.6-0.6,1-1.3,1.3-2.1
			c5.6,7.2,11,14.6,13.4,21.9c4.7,14.4,19.8,30.2,25.5,17.3c0.4-2.6,1.7-6.6,5.2-5.7c7.1,66.6,49.6,144.5,140.3,144.6l0,0h0.1h0.1
			l0,0c90.7-0.1,133.2-78,140.3-144.6c3.6-0.9,4.9,3.2,5.2,5.7c5.8,12.9,20.8-2.9,25.5-17.3c2.5-7.5,8-15,13.7-22.3
			c0.3,0.5,0.6,1,1,1.4c-1.1,0.8-1.8,1.9-1.9,3.3l-0.1,1C401.4,678.7,401.9,680,402.9,680.9z M402.5,643.7
			c-0.3,0.2-31.2,19.5-28.8,45c0.1,1.4-0.9,2.6-2.3,2.7c-0.1,0-0.2,0-0.2,0c-1.3,0-2.4-1-2.5-2.3c-1.1-11.9,4-24.3,14.7-35.8
			c8-8.6,16.2-13.6,16.5-13.8c1.2-0.7,2.7-0.4,3.4,0.8C404.1,641.5,403.7,643,402.5,643.7z"/>
		<path d="M122.2,641.3c0.2,1.5,1.2,2.7,2.6,3.3c3.4,1.5,12.4,5.7,22.1,5.7c2,0,4.1-0.2,6.2-0.6c11.9-2.5,15.5-2.9,21-1.5
			c1.5,0.4,3-0.2,3.9-1.5c1.1-1.6,1.1-4,0-5.5c-3.7-5.2-13.8-17.4-26.6-17.4c-3.9,0-7.6,0.9-11.1,2.3c-0.1,0-0.1-0.1-0.2-0.1
			c-2.5-0.6-4-4.8-4.3-6.2c-0.3-1.3-1.6-2.2-3-1.9c-1.3,0.3-2.2,1.6-1.9,3c0.1,0.6,1.2,4.9,4.1,7.8c-0.5,0.3-1,0.6-1.5,0.9
			c-0.2-0.1-0.4-0.2-0.5-0.2c-2.5-0.6-4-4.8-4.3-6.2c-0.3-1.3-1.6-2.2-3-1.9c-1.3,0.3-2.2,1.6-1.9,3c0.2,0.7,1.4,5.9,5,8.6
			c-0.6,0.5-1.2,0.9-1.8,1.4c-1.9-1.3-3-4.5-3.3-5.7c-0.3-1.3-1.6-2.2-3-1.9c-1.3,0.3-2.2,1.6-1.9,3c0.1,0.7,1.3,5.2,4.4,8
			C122.3,638.7,121.9,640,122.2,641.3z M172.8,642.8c-4.3-0.8-8.1-0.5-14.7,0.7c1.5-1.6,2.4-3.8,2.4-6.2c0-3.2-1.6-6-4.1-7.7
			C163.8,632.1,169.7,638.7,172.8,642.8z M128.9,639.2c0.1-0.1,0.3-0.2,0.4-0.3c3.9-3.3,10.3-7.9,17.4-9.5c-2.7,1.6-4.6,4.6-4.6,8
			c0,3.4,1.8,6.3,4.5,7.9c-8-0.1-15.6-3.3-19.1-4.9C127.9,640,128.4,639.6,128.9,639.2z"/>
		<path d="M317.2,629.6c0.3-1.3-0.6-2.7-1.9-3s-2.7,0.6-3,1.9c-0.3,1.2-1.4,4.4-3.3,5.7c-0.6-0.5-1.1-0.9-1.8-1.4
			c3.6-2.7,4.9-7.9,5-8.6c0.3-1.3-0.6-2.7-1.9-3c-1.3-0.3-2.7,0.6-3,1.9c-0.3,1.1-1.7,5.6-4.3,6.2c-0.2,0-0.4,0.1-0.5,0.2
			c-0.5-0.3-1-0.6-1.5-0.9c2.9-2.8,4-7.1,4.1-7.8c0.3-1.3-0.6-2.7-1.9-3s-2.7,0.6-3,1.9c-0.3,1.4-1.8,5.6-4.3,6.2
			c-0.1,0-0.1,0-0.2,0.1c-3.5-1.4-7.2-2.3-11.1-2.3c-12.8,0-22.8,12.2-26.6,17.4c-1.1,1.5-1.1,3.9,0,5.5c0.9,1.3,2.4,1.9,3.9,1.5
			c5.5-1.5,9.1-1,21,1.5c2.1,0.4,4.1,0.6,6.2,0.6c9.7,0,18.7-4.1,22.1-5.7c1.4-0.6,2.3-1.9,2.6-3.3c0.2-1.3-0.2-2.7-1-3.7
			C316,634.9,317.1,630.3,317.2,629.6z M277.8,643.6c-4.1-0.8-7.2-1.2-9.9-1.2c-1.6,0-3.2,0.1-4.7,0.4c3.1-4.1,9.1-10.8,16.3-13.1
			c-2.4,1.7-4.1,4.5-4.1,7.7C275.4,639.8,276.3,641.9,277.8,643.6z M289.4,645.3c2.7-1.6,4.5-4.6,4.5-7.9c0-3.4-1.8-6.4-4.6-8
			c7.1,1.5,13.5,6.1,17.4,9.4c0.1,0.1,0.2,0.2,0.4,0.3c0.5,0.4,1,0.9,1.4,1.2C305,642,297.4,645.2,289.4,645.3z"/>
		<path d="M32.5,643.7c0.3,0.2,31.2,19.5,28.8,45c-0.1,1.4,0.9,2.6,2.3,2.7c0.1,0,0.2,0,0.2,0c1.3,0,2.4-1,2.5-2.3
			c1.1-11.9-4-24.3-14.7-35.8c-8-8.6-16.2-13.6-16.5-13.8c-1.2-0.7-2.7-0.4-3.4,0.8C30.9,641.5,31.3,643,32.5,643.7z"/>
		<path d="M399.9,639.5c-0.3,0.2-8.5,5.3-16.5,13.8c-10.7,11.6-15.8,23.9-14.7,35.8c0.1,1.3,1.2,2.3,2.5,2.3c0.1,0,0.2,0,0.2,0
			c1.4-0.1,2.4-1.3,2.3-2.7c-2.4-25.4,28.5-44.8,28.8-45c1.2-0.7,1.5-2.3,0.8-3.4C402.6,639.1,401.1,638.8,399.9,639.5z"/>
		<path d="M130.6,604c-16.9,5.4-29.9,15-30.4,15.4c-1.1,0.8-1.3,2.4-0.5,3.5c0.5,0.7,1.2,1,2,1c0.5,0,1-0.2,1.5-0.5
			c0.1-0.1,12.9-9.5,29.1-14.7c21.1-6.8,37.6-3.5,49.2,9.7c0.9,1,2.5,1.1,3.5,0.2c1-0.9,1.1-2.5,0.2-3.5
			C172.4,600.5,153.5,596.6,130.6,604z"/>
		<path d="M333.3,623.9c0.8,0,1.5-0.4,2-1c0.8-1.1,0.6-2.7-0.5-3.5c-0.5-0.4-13.5-9.9-30.4-15.4c-22.9-7.4-41.8-3.5-54.6,11.1
			c-0.9,1-0.8,2.6,0.2,3.5c1,0.9,2.6,0.8,3.5-0.2c11.6-13.2,28.2-16.5,49.2-9.7c16.1,5.2,29,14.6,29.1,14.7
			C332.3,623.7,332.8,623.9,333.3,623.9z"/>
	</g>
	<path class="st1" d="M353.5,15.1H114.8c-22.7,0-41.2,18.5-41.2,41.2v266.6v5.7c0,22.7,18.5,41.2,41.2,41.2h238.7
		c4.7,0,8.5-4.3,8.5-8.5V23.6C362.5,19.4,358.2,15.1,353.5,15.1L353.5,15.1z M91.6,333.8c-0.5-1.4-0.5-3.3-0.5-4.7
		c0-1.4,0-2.4,0.5-3.8h253.4v8.5L91.6,333.8z M94.4,316.3c4.3-6.6,11.4-11.4,20.4-11.4h230.2v11.4H94.4z M144.6,32.6h200.3v254.8
		H144.6V32.6z M114.8,352.8c-8.1,0-15.2-3.8-19.4-10.4h249.6v10.4H114.8z"/>
</g>
</svg>
