<?xml version="1.0" encoding="utf-8"?>
<!-- Generator: Adobe Illustrator 26.2.1, SVG Export Plug-In . SVG Version: 6.00 Build 0)  -->
<svg version="1.1" id="Capa_1" xmlns="http://www.w3.org/2000/svg" xmlns:xlink="http://www.w3.org/1999/xlink" x="0px" y="0px"
	 viewBox="0 0 378.5 290.7" style="enable-background:new 0 0 378.5 290.7;" xml:space="preserve">
<style type="text/css">
	.st0{fill:#BCBEC0;}
	.st1{fill-rule:evenodd;clip-rule:evenodd;stroke:#BCBEC0;stroke-width:5;stroke-miterlimit:10;}
	
		.st2{clip-path:url(#SVGID_00000127031289223274687420000017431930874037312140_);fill-rule:evenodd;clip-rule:evenodd;fill:#BCBEC0;}
	.st3{clip-path:url(#SVGID_00000127031289223274687420000017431930874037312140_);fill-rule:evenodd;clip-rule:evenodd;}
	.st4{clip-path:url(#SVGID_00000099648261305691765000000003365523116665847951_);}
	.st5{clip-path:url(#SVGID_00000165943861822744718150000014364183313955016376_);fill-rule:evenodd;clip-rule:evenodd;}
	
		.st6{clip-path:url(#SVGID_00000091003122935782851180000003199387461543746705_);fill-rule:evenodd;clip-rule:evenodd;fill:#BCBEC0;}
	.st7{clip-path:url(#SVGID_00000091003122935782851180000003199387461543746705_);fill-rule:evenodd;clip-rule:evenodd;}
	
		.st8{clip-path:url(#SVGID_00000091003122935782851180000003199387461543746705_);fill-rule:evenodd;clip-rule:evenodd;stroke:#BCBEC0;stroke-width:3;stroke-linecap:round;stroke-linejoin:round;stroke-miterlimit:10;}
</style>
<path class="st0" d="M155.5,263.8c-3.7-1.4-5.4-2-9.1-3.4c1.4-4.4,2-11.5-0.7-19c-3-8.5-9.1-15.2-12.5-19c-1.4-1.4-3-1.4-4.1,0
	c-2.4,3.7-6.4,11.2-4.1,20.3c1,3.7,2.7,7.1,5.1,10.2c-7.8-4.1-11.2-6.4-18.3-11.5c2.4-4.1,4.7-10.8,4.1-18.3
	c-0.7-8.8-5.1-16.9-7.1-21c-0.7-1.4-2.7-2-4.1-0.7c-3,3-8.8,9.5-8.8,18.6c0,3.7,1,7.4,2.4,10.8c-6.4-5.8-9.1-8.8-14.9-14.9
	c3-3.4,7.1-9.1,8.5-16.9c1.4-8.8-0.7-17.3-2-22c-0.3-1.7-2.4-2.4-3.7-1.7c-3.7,2.4-10.8,7.1-12.9,15.9c-1,3.7-0.7,7.4-0.3,11.2
	c-4.7-6.8-6.8-10.5-10.8-17.9c3.7-2.7,9.1-7.4,12.2-14.6c3.4-8.1,3.4-16.9,3-21.7c0-1.7-1.7-3-3-2.4c-4.1,1.4-12.2,4.4-16.2,12.5
	c-1.7,3.4-2.4,7.1-2.7,10.8c-3-7.8-4.4-11.8-6.4-20c4.4-1.7,10.5-5.1,15.2-11.2c5.1-7.1,7.1-15.9,8.1-20.6c0.3-1.7-1-3.4-2.4-3
	c-4.4,0.3-12.9,1.7-18.6,8.5c-2.4,3-4.1,6.4-5.1,10.2c-1-8.5-1.4-12.5-1.7-21.3c4.7-0.7,11.5-2.4,17.3-7.4
	c6.8-5.8,10.8-14.2,12.9-19c0.7-1.7,0-3.4-1.7-3.7C68.5,81,60,80.3,52.6,85.7c-3,2.4-5.4,5.4-7.4,8.8c1-9.5,1.7-14.2,4.1-23.7
	c0.7-3.4-0.3-6.4-2.7-7.1c-2.4-0.7-5.1,1.7-5.8,5.1c-2.4,9.8-3.4,14.9-4.4,24.7c-1.4-3.7-2.7-7.8-4.7-11.2
	c-5.1-8.8-12.5-12.2-16.9-13.5c-1.4-0.3-3,1.7-3.4,4.4c-0.3,7.1,1,20.6,7.1,29.1c5.4,7.1,12.5,9.1,16.9,9.5c0,9.1,0.3,13.5,1.7,22.3
	c-2-3.4-4.4-6.8-7.4-9.5c-7.1-6.8-15.2-8.5-19.6-8.8c-1.7,0-2.7,2.4-2,4.7c1.7,6.8,6.1,19.3,13.9,25.7c6.8,5.8,14.2,5.8,18.6,5.1
	c2,8.5,3.4,12.9,6.8,21c-2.7-2.7-5.8-5.4-9.1-7.4c-8.5-5.1-16.9-4.7-21-3.7c-1.7,0.3-2,3-1,5.1c3,6.1,10.2,16.9,19.3,21.3
	c7.8,3.7,14.9,2.4,19.3,0.7c4.1,7.8,6.4,11.5,11.5,19c-3.4-2-6.8-4.1-10.8-5.1c-9.5-3-17.3-0.7-21.3,1.4c-1.4,0.7-1.4,3.4,0.3,5.1
	c4.4,5.4,13.9,14.2,23.7,16.6c8.5,2,15.2-1.4,19-3.7c5.8,6.8,8.8,9.8,15.6,15.9c-3.7-1.4-7.8-2.4-11.8-2.4
	c-9.8-0.7-16.9,3.4-20.3,6.1c-1.4,1-0.7,3.4,1.4,5.1c5.4,4.1,16.9,10.8,27.1,10.8c8.8,0,14.6-4.7,17.6-8.1
	c7.4,5.4,11.2,7.8,19.3,11.8c-4.1-0.3-8.1-0.3-12.2,0.3c-9.8,1.7-15.9,7.1-18.6,10.5c-1,1.4,0.3,3.7,2.7,4.7
	c6.4,2.7,19.3,6.8,29.4,4.4c8.8-2,13.2-7.8,15.6-11.8c3.7,1.7,5.8,2.4,9.8,3.7c3.4,1,6.8,0,7.4-2.4
	C160.9,267.5,158.5,265.1,155.5,263.8L155.5,263.8z"/>
<path class="st0" d="M356.2,146.6c7.8-6.4,12.2-19,13.9-25.7c0.7-2.4-0.7-5.1-2-4.7c-4.4,0-12.5,1.7-19.6,8.8
	c-2.7,2.7-5.4,6.1-7.4,9.5c1.4-8.8,1.7-13.2,1.7-22.3c4.7-0.7,11.8-2.4,16.9-9.5c6.1-8.1,7.4-21.7,7.1-29.1c0-2.7-1.7-4.7-3.4-4.4
	c-4.1,1.4-11.8,4.7-16.9,13.5c-2,3.4-3.7,7.4-4.7,11.2c-1-9.8-1.7-14.9-4.4-24.7c-1-3.4-3.7-5.8-5.8-5.1c-2.4,0.7-3.4,4.1-2.7,7.1
	c2.4,9.5,3,14.2,4.1,23.7c-2-3.4-4.4-6.4-7.4-8.8c-7.4-5.8-15.9-5.1-20.3-4.1c-1.7,0.3-2.4,2-1.7,3.7c2,4.4,6.1,12.9,12.9,19
	c5.8,5.1,12.9,7.1,17.3,7.4c0,8.5-0.3,12.9-1.7,21.3c-1-3.7-2.7-7.1-5.1-10.2c-5.8-7.1-14.2-8.5-18.6-8.5c-1.7,0-2.7,1.4-2.4,3
	c1,4.7,2.7,13.5,8.1,20.6c4.4,6.1,10.8,9.5,15.2,11.2c-2,8.1-3.4,12.2-6.4,20c-0.3-3.7-1-7.4-2.7-10.8c-4.1-8.1-12.2-11.2-16.2-12.5
	c-1.4-0.3-3,0.7-3,2.4c-0.3,4.7-0.3,13.9,3,21.7c3,7.1,8.1,11.8,12.2,14.6c-3.7,7.4-6.1,11.2-10.8,17.9c0.7-3.7,0.7-7.4-0.3-11.2
	c-2-8.8-9.1-13.9-12.9-15.9c-1.4-0.7-3,0-3.7,1.7c-1.4,4.4-3.4,13.2-2,22c1.4,7.4,5.4,13.5,8.5,16.9c-5.4,6.4-8.5,9.5-14.9,14.9
	c1.4-3.4,2.4-7.1,2.4-10.8c0-9.1-5.8-15.6-8.8-18.6c-1-1-3-0.7-4.1,0.7c-2.4,4.1-6.4,12.2-7.1,21c-0.7,7.8,2,14.2,4.1,18.3
	c-6.8,5.1-10.5,7.4-18.3,11.5c2.4-3,4.4-6.4,5.1-10.2c2.4-9.1-1.7-16.6-4.1-20.3c-0.7-1.4-2.7-1.4-4.1,0c-3.4,3.4-9.5,10.5-12.5,19
	c-2.7,7.4-1.7,14.6-0.7,19c-3.7,1.4-5.4,2-9.1,3.4c-3.4,1-5.4,3.7-4.7,6.1c0.7,2.4,4.1,3.4,7.4,2.4c4.1-1.4,5.8-2,9.8-3.7
	c2.4,4.1,6.8,9.8,15.6,11.8c10.2,2.4,23-1.4,29.4-4.4c2.4-1,3.7-3.4,2.7-4.7c-2.7-3.4-8.8-9.1-18.6-10.5c-4.1-0.7-8.1-0.7-12.2-0.3
	c8.1-4.4,11.8-6.8,19.3-11.8c3,3.4,8.8,8.1,17.6,8.1c10.2,0,21.7-6.4,27.1-10.8c2-1.4,2.7-4.1,1.4-5.1c-3.4-2.7-10.8-6.8-20.3-6.1
	c-4.1,0.3-8.1,1.4-11.8,2.4c6.8-6.1,9.8-9.1,15.6-15.9c3.7,2.7,10.5,5.8,19,3.7c9.8-2,19.3-11.2,23.7-16.6c1.7-2,1.7-4.4,0.3-5.1
	c-4.1-2-11.8-4.1-21.3-1.4c-3.7,1-7.4,3-10.8,5.1c5.1-7.1,7.4-11.2,11.5-19c4.4,1.7,11.5,3.4,19.3-0.7c9.1-4.4,16.2-15.2,19.3-21.3
	c1-2.4,0.7-4.7-1-5.1c-4.4-1-12.5-1.4-21,3.7c-3.4,2-6.4,4.7-9.1,7.4c3.4-8.1,4.7-12.5,6.8-21C342,152.1,349.5,152.1,356.2,146.6
	L356.2,146.6z"/>
<path class="st1" d="M189.3,10.2c66,0,119.6,51,119.6,113.8c0,62.8-53.6,113.8-119.6,113.8c-66,0-119.6-51-119.6-113.8
	C69.7,61.2,123.3,10.2,189.3,10.2L189.3,10.2z"/>
<g>
	<g>
		<defs>
			<path id="SVGID_1_" d="M189.3,10.2c66,0,119.6,51,119.6,113.8c0,62.8-53.6,113.8-119.6,113.8c-66,0-119.6-51-119.6-113.8
				C69.7,61.2,123.3,10.2,189.3,10.2L189.3,10.2z"/>
		</defs>
		<clipPath id="SVGID_00000072257685655277074250000005864753522559652999_">
			<use xlink:href="#SVGID_1_"  style="overflow:visible;"/>
		</clipPath>
		
			<path style="clip-path:url(#SVGID_00000072257685655277074250000005864753522559652999_);fill-rule:evenodd;clip-rule:evenodd;fill:#BCBEC0;" d="
			M170.1,150.4c0,0-9.3,11-14.2,8.5c-7.8-4-25.2,31.5-27.9,50c-2.1,14.7-6.2,14.1-6.2,14.1s154.2,80.5,172.1-36.3
			c0,0-37.2-41.3-45-38.8c0,0-10.7-16.2-11.9-22.4c-1.2-6.2-100.3,104.3-100.3,104.3l35.9-77.1C172.5,152.8,174.4,148.1,170.1,150.4
			L170.1,150.4z"/>
		
			<path style="clip-path:url(#SVGID_00000072257685655277074250000005864753522559652999_);fill-rule:evenodd;clip-rule:evenodd;fill:#BCBEC0;" d="
			M232,127.9c1.8-8.1-48,26-54.5,38.8c0,0-1.8-18.4-6.3-15.2c-17.6,28.4-43.9,67.1-34.2,80.2c-2.6,0,79.6-96.5,95.6-103.8"/>
		
			<path style="clip-path:url(#SVGID_00000072257685655277074250000005864753522559652999_);fill-rule:evenodd;clip-rule:evenodd;" d="
			M172.5,147.9c0,0-48,51.3-48,61c0,9.7,9.1,22.9,9.1,22.9S163.1,176.5,172.5,147.9L172.5,147.9z"/>
		
			<path style="clip-path:url(#SVGID_00000072257685655277074250000005864753522559652999_);fill-rule:evenodd;clip-rule:evenodd;fill:#BCBEC0;" d="
			M162.6,38.9c0,0-18.3,17.7-20.5,24.2l-2.9-1.8c0,0-1.7,6.7,5.4,10.1c0,0-10.5,19.9-14.6,22c-4,2-2.2,8.4,6.2,7.4
			c8.4-1,15.5,19.1,15.5,24.5c0,5.4,47.6-53.1,47.8-69.7C199.8,38.9,177.5,24.1,162.6,38.9L162.6,38.9z"/>
	</g>
	<g>
		<defs>
			<path id="SVGID_00000077297894429863650860000016427587987655620496_" d="M162.6,38.9c0,0-18.3,17.7-20.5,24.2l-2.9-1.8
				c0,0-1.7,6.7,5.4,10.1c0,0-10.5,19.9-14.6,22c-4,2-2.2,8.4,6.2,7.4c8.4-1,15.5,19.1,15.5,24.5c0,5.4,47.6-53.1,47.8-69.7
				C199.8,38.9,177.5,24.1,162.6,38.9L162.6,38.9z"/>
		</defs>
		<defs>
			<path id="SVGID_00000176020842775082694270000009239209686031932068_" d="M189.3,10.2c66,0,119.6,51,119.6,113.8
				c0,62.8-53.6,113.8-119.6,113.8c-66,0-119.6-51-119.6-113.8C69.7,61.2,123.3,10.2,189.3,10.2L189.3,10.2z"/>
		</defs>
		<clipPath id="SVGID_00000081633169468609293030000004320088163461051019_">
			<use xlink:href="#SVGID_00000077297894429863650860000016427587987655620496_"  style="overflow:visible;"/>
		</clipPath>
		
			<clipPath id="SVGID_00000006688916902538390630000016308054829017048480_" style="clip-path:url(#SVGID_00000081633169468609293030000004320088163461051019_);">
			<use xlink:href="#SVGID_00000176020842775082694270000009239209686031932068_"  style="overflow:visible;"/>
		</clipPath>
		
			<path style="clip-path:url(#SVGID_00000006688916902538390630000016308054829017048480_);fill-rule:evenodd;clip-rule:evenodd;" d="
			M142.1,63.2c0,0,12,2.8,13.3,11.8c0,0,2.3,0.8-10.8-3.5C132.6,67.5,128.7,54.6,142.1,63.2L142.1,63.2z"/>
	</g>
	<g>
		<defs>
			<path id="SVGID_00000163763146595067398480000011013097395579186837_" d="M106.9,41.5c21.4-19.4,50.5-31.3,82.4-31.3l0,0
				c66,0,119.6,51,119.6,113.8c0,62.8-53.6,113.8-119.6,113.8c-66,0-119.6-51-119.6-113.8C69.7,91.5,84,62.2,106.9,41.5"/>
		</defs>
		<clipPath id="SVGID_00000159461657581257307550000014325729213380457613_">
			<use xlink:href="#SVGID_00000163763146595067398480000011013097395579186837_"  style="overflow:visible;"/>
		</clipPath>
		
			<path style="clip-path:url(#SVGID_00000159461657581257307550000014325729213380457613_);fill-rule:evenodd;clip-rule:evenodd;fill:#BCBEC0;" d="
			M155.4,144.4c0,0,22.5,11.6,18.6,23.9c-3.8,12.3,43.7-43.6,54.5-38.8c10.8,4.8,2-1.1,3.4-18.6C233.2,93.5,176.2,59.5,155.4,144.4
			L155.4,144.4z"/>
		
			<path style="clip-path:url(#SVGID_00000159461657581257307550000014325729213380457613_);fill-rule:evenodd;clip-rule:evenodd;" d="
			M248.8,147.9L221,194.6l-25.3-6.9l17.5,24.4l-77.1,26l-2.6-6.3c0,0,93.4-115.6,102.9-108.2c6.9,5.4,11,26.6,14.7,24.3"/>
		
			<path style="clip-path:url(#SVGID_00000159461657581257307550000014325729213380457613_);fill-rule:evenodd;clip-rule:evenodd;stroke:#BCBEC0;stroke-width:3;stroke-linecap:round;stroke-linejoin:round;stroke-miterlimit:10;" d="
			M162.6,38.9c0,0-8.8-9.6,2.2-13.6c10.9-3.9,28.5,0,33.7,0s42,12.3,44.6,29.3c0,0,6.6,34.6-7.9,59.5c0,0-19.7-8.8-24.1,0
			c0,0-9.9-36-17-8.8c-7.1,27.2-39.5,50.1-60.5,31.6c0,0-1.5-19.2,3.2-16.9c0,0,30-5.6,37.7-22.4c7.6-16.8,2.6-48.9,13.9-52.2
			C188.5,45.5,166.8,44.7,162.6,38.9L162.6,38.9z"/>
		
			<path style="clip-path:url(#SVGID_00000159461657581257307550000014325729213380457613_);fill-rule:evenodd;clip-rule:evenodd;stroke:#BCBEC0;stroke-width:3;stroke-linecap:round;stroke-linejoin:round;stroke-miterlimit:10;" d="
			M139.7,100.1c0,0-10.3-0.9-6.1,13.2c0,0,6.1,4.5,6.1,14.6c0,0,9.4-1.3,11.7-10.1C153.6,109.1,145.8,97.4,139.7,100.1L139.7,100.1z
			"/>
		
			<path style="clip-path:url(#SVGID_00000159461657581257307550000014325729213380457613_);fill-rule:evenodd;clip-rule:evenodd;fill:#BCBEC0;" d="
			M197,74c0,0,24.2-6.6,7,23.6S182.4,89.5,197,74"/>
	</g>
</g>
</svg>
