<?xml version="1.0" encoding="utf-8"?>
<!-- Generator: Adobe Illustrator 26.2.1, SVG Export Plug-In . SVG Version: 6.00 Build 0)  -->
<svg version="1.1" id="Capa_1" xmlns="http://www.w3.org/2000/svg" xmlns:xlink="http://www.w3.org/1999/xlink" x="0px" y="0px"
	 viewBox="0 0 452.5 294.7" style="enable-background:new 0 0 452.5 294.7;" xml:space="preserve">
<style type="text/css">
	.st0{fill:#BCBEC0;}
</style>
<g>
	<path class="st0" d="M0,0h142.1v294.7H0L0,0z"/>
	<path class="st0" d="M152.6,0v294.7h299.9V0L152.6,0z M287.2,82.7c-12.5,10.7-20.3,25.9-21.7,42.4c-1.4,16.4,3.8,32.7,14.3,45.4
		c10.6,12.7,25.8,20.7,42.2,22.2c16.4,1.6,32.8-3.4,45.6-13.9c-4,7.4-9.4,13.9-15.9,19.3c-13.7,11.4-31.4,17-49.2,15.3
		c-17.8-1.6-34.2-10.2-45.6-23.9c-11.4-13.7-16.9-31.4-15.3-49.2c1.6-17.8,10.2-34.2,23.9-45.6C271.9,89.4,279.2,85.3,287.2,82.7
		L287.2,82.7z M329.6,91.1l11.4,12.5l15.4-7l-8.4,14.7l11.4,12.5l-16.6-3.4l-8.4,14.7l-1.9-16.8l-16.6-3.4l15.4-7L329.6,91.1z"/>
</g>
</svg>
