<?xml version="1.0" encoding="utf-8"?>
<!-- Generator: Adobe Illustrator 26.2.1, SVG Export Plug-In . SVG Version: 6.00 Build 0)  -->
<svg version="1.1" id="Capa_1" xmlns="http://www.w3.org/2000/svg" xmlns:xlink="http://www.w3.org/1999/xlink" x="0px" y="0px"
	 viewBox="0 0 400 267" style="enable-background:new 0 0 400 267;" xml:space="preserve">
<style type="text/css">
	.st0{fill:#3C3C3B;}
	.st1{fill:#575756;}
	.st2{fill:#FFFFFF;}
	.st3{fill:#706F6F;}
	.st4{fill:#BCBEC0;}
</style>
<g>
	<polygon class="st0" points="80,267 400,267 400,178 213,178 	"/>
	<polygon class="st1" points="80,0 213,89 400,89 400,0 	"/>
	<polygon class="st2" points="48.5,267 80,267 213,178 400,178 400,160.5 207.5,160.5 	"/>
	<polygon class="st2" points="80,0 48.5,0 207.5,106.5 400,106.5 400,89 213,89 	"/>
	<polygon class="st3" points="48.5,0 0,0 0,32.5 152,133.5 0,234.5 0,267 48.5,267 207.5,160.5 400,160.5 400,133.5 400,106.5 
		207.5,106.5 	"/>
	<polygon class="st4" points="0,32.5 0,53.5 120,133.5 0,213.5 0,234.5 152,133.5 	"/>
	<polygon points="0,53.5 0,133.5 0,213.5 120,133.5 	"/>
</g>
</svg>
